<svg version="1.0" xmlns="http://www.w3.org/2000/svg"
 width="512.000000pt" height="512.000000pt" viewBox="0 0 512.000000 512.000000"
 preserveAspectRatio="xMidYMid meet">
<g transform="translate(0.000000,512.000000) scale(0.100000,-0.100000)"
fill="#168eca" stroke="none">
<path d="M2414 5109 c-620 -32 -1214 -298 -1659 -744 -309 -309 -530 -683
-654 -1111 -106 -364 -122 -833 -42 -1216 157 -752 655 -1404 1339 -1751 377
-192 735 -278 1162 -278 344 0 639 55 942 177 735 295 1282 897 1512 1664 112
373 129 831 46 1236 -78 377 -265 770 -516 1084 -88 109 -265 286 -374 373
-507 406 -1107 599 -1756 566z m284 -699 c271 -636 554 -1208 1127 -2274 32
-60 54 -107 49 -104 -5 2 -56 27 -114 55 -87 42 -273 113 -298 113 -3 0 36
-25 87 -55 108 -64 194 -125 341 -243 l105 -84 147 -271 c81 -149 145 -273
143 -275 -2 -2 -60 28 -129 67 -434 246 -794 404 -1098 481 l-128 33 8 41 c4
23 7 109 6 191 0 124 -4 164 -23 230 -67 241 -205 388 -360 388 -152 0 -290
-152 -352 -388 -23 -88 -31 -288 -16 -400 l8 -61 -133 -33 c-300 -74 -665
-233 -1104 -482 -69 -39 -127 -69 -129 -67 -2 2 68 134 156 293 456 822 771
1412 967 1807 70 141 130 257 134 257 4 1 34 -18 65 -42 32 -24 85 -60 118
-79 65 -39 245 -130 245 -125 0 2 -39 34 -86 72 -47 37 -133 113 -192 170
l-106 102 21 49 c12 27 64 146 115 264 51 118 136 322 188 452 52 130 98 234
102 230 4 -4 65 -144 136 -312z"/>
</g>
</svg>
