<svg id="Capa_1" enable-background="new 0 0 510 510" height="512" viewBox="0 0 510 510" width="512" xmlns="http://www.w3.org/2000/svg" xmlns:xlink="http://www.w3.org/1999/xlink"><linearGradient id="SVGID_1_" gradientUnits="userSpaceOnUse" x1="155.409" x2="211.535" y1="77.091" y2="133.217"><stop offset="0" stop-color="#6fa953"/><stop offset="1" stop-color="#43765a"/></linearGradient><linearGradient id="lg1"><stop offset="0" stop-color="#ff4181"/><stop offset="1" stop-color="#843561"/></linearGradient><linearGradient id="SVGID_2_" gradientTransform="matrix(.707 -.707 .707 .707 -103.982 217.432)" gradientUnits="userSpaceOnUse" x1="19.413" x2="82.946" xlink:href="#lg1" y1="163.946" y2="227.48"/><linearGradient id="lg2"><stop offset="0" stop-color="#7acbff"/><stop offset="1" stop-color="#45a2e0"/></linearGradient><linearGradient id="SVGID_3_" gradientUnits="userSpaceOnUse" x1="15.175" x2="73.828" xlink:href="#lg2" y1="151.553" y2="210.205"/><linearGradient id="SVGID_4_" gradientUnits="userSpaceOnUse" x1="252.323" x2="311.059" y1="81.825" y2="140.562"><stop offset="0" stop-color="#ffce47"/><stop offset="1" stop-color="#ff9356"/></linearGradient><linearGradient id="SVGID_5_" gradientTransform="matrix(.707 -.707 .707 .707 -103.982 217.432)" gradientUnits="userSpaceOnUse" x1="305.409" x2="383.97" y1="235.247" y2="313.807"><stop offset="0" stop-color="#ff9356"/><stop offset="1" stop-color="#ff755c"/></linearGradient><linearGradient id="SVGID_6_" gradientUnits="userSpaceOnUse" x1="264.281" x2="346.386" y1="93.783" y2="175.888"><stop offset="0" stop-color="#ff755c" stop-opacity="0"/><stop offset="1" stop-color="#ff4181"/></linearGradient><linearGradient id="SVGID_7_" gradientTransform="matrix(.707 -.707 .707 .707 -103.982 217.432)" gradientUnits="userSpaceOnUse" x1="8.093" x2="100.534" xlink:href="#lg2" y1="244.809" y2="337.25"/><linearGradient id="SVGID_8_" gradientTransform="matrix(.707 -.707 .707 .707 -103.982 217.432)" gradientUnits="userSpaceOnUse" x1="206.596" x2="284.147" y1="351.13" y2="428.68"><stop offset="0" stop-color="#ff755c"/><stop offset="1" stop-color="#ff4181"/></linearGradient><linearGradient id="SVGID_9_" gradientTransform="matrix(.707 -.707 .707 .707 -103.982 217.432)" gradientUnits="userSpaceOnUse" x1="293.327" x2="262.928" y1="437.86" y2="407.461"><stop offset="0" stop-color="#843561" stop-opacity="0"/><stop offset="1" stop-color="#843561"/></linearGradient><linearGradient id="SVGID_10_" gradientTransform="matrix(.707 -.707 .707 .707 -103.982 217.432)" gradientUnits="userSpaceOnUse" x1="74.219" x2="261.743" xlink:href="#lg1" y1="310.934" y2="498.458"/><linearGradient id="lg3"><stop offset="0" stop-color="#843561" stop-opacity="0"/><stop offset=".2156" stop-color="#6c335b" stop-opacity=".216"/><stop offset=".5241" stop-color="#513153" stop-opacity=".524"/><stop offset=".7959" stop-color="#402f4f" stop-opacity=".796"/><stop offset="1" stop-color="#3a2f4d"/></linearGradient><linearGradient id="SVGID_11_" gradientUnits="userSpaceOnUse" x1="355.785" x2="355.785" xlink:href="#lg3" y1="170.248" y2="244.994"/><linearGradient id="SVGID_12_" gradientUnits="userSpaceOnUse" x1="69.381" x2="76.357" xlink:href="#lg3" y1="237.228" y2="311.968"/><linearGradient id="SVGID_13_" gradientUnits="userSpaceOnUse" x1="110.157" x2="385.409" y1="204.922" y2="480.174"><stop offset="0" stop-color="#c7e9ff"/><stop offset="1" stop-color="#7acbff"/></linearGradient><linearGradient id="lg4"><stop offset="0" stop-color="#7acbff" stop-opacity="0"/><stop offset="1" stop-color="#2f73a0"/></linearGradient><linearGradient id="SVGID_14_" gradientUnits="userSpaceOnUse" x1="216.324" x2="393.419" xlink:href="#lg4" y1="241.074" y2="205.064"/><linearGradient id="SVGID_15_" gradientUnits="userSpaceOnUse" x1="252.205" x2="252.205" xlink:href="#lg4" y1="437.482" y2="505.958"/><linearGradient id="SVGID_16_" gradientUnits="userSpaceOnUse" x1="118.688" x2="177.938" y1="245.067" y2="304.881"><stop offset="0" stop-color="#edf5ff"/><stop offset="1" stop-color="#c7e9ff" stop-opacity="0"/></linearGradient><g><g><path d="m214.696 29.03v119.267c-24.426 0-48.851 9.315-67.482 27.946l-84.331-84.33c41.92-41.92 96.867-62.891 151.813-62.883z" fill="url(#SVGID_1_)"/><path d="m119.268 243.726c0 24.426 9.315 48.851 27.946 67.482l-84.331 84.331c-41.919-41.92-62.89-96.866-62.883-151.813z" fill="url(#SVGID_2_)"/><path d="m62.883 91.913 84.331 84.331c-18.631 18.631-27.946 43.057-27.946 67.482h-119.268c-.007-54.947 20.964-109.893 62.883-151.813z" fill="url(#SVGID_3_)"/><path d="m366.509 91.913-84.331 84.331c-18.631-18.631-43.057-27.946-67.482-27.946v-119.267c54.947-.009 109.894 20.962 151.813 62.882z" fill="url(#SVGID_4_)"/><path d="m366.509 91.913c41.92 41.92 62.891 96.866 62.883 151.813h-119.267c0-24.426-9.315-48.851-27.946-67.482z" fill="url(#SVGID_5_)"/><path d="m366.509 91.913c41.92 41.92 62.891 96.866 62.883 151.813h-119.267c0-24.426-9.315-48.851-27.946-67.482z" fill="url(#SVGID_6_)"/><path d="m214.696 339.155v119.267c-54.947.007-109.893-20.963-151.813-62.883l84.331-84.331c18.631 18.631 43.057 27.947 67.482 27.947z" fill="url(#SVGID_7_)"/><path d="m429.392 243.726c.007 54.947-20.963 109.893-62.883 151.813l-84.331-84.331c18.631-18.631 27.946-43.057 27.946-67.482z" fill="url(#SVGID_8_)"/><path d="m429.392 243.726c.007 54.947-20.963 109.893-62.883 151.813l-84.331-84.331c18.631-18.631 27.946-43.057 27.946-67.482z" fill="url(#SVGID_9_)"/><path d="m282.178 311.208 84.331 84.331c-41.92 41.92-96.866 62.891-151.813 62.883v-119.267c24.426 0 48.851-9.316 67.482-27.947z" fill="url(#SVGID_10_)"/></g><path d="m282.178 176.244c18.631 18.631 27.946 43.057 27.946 67.482h119.268c.004-28.417-5.618-56.828-16.832-83.443h-114.421z" fill="url(#SVGID_11_)"/><path d="m1.311 220.075c-.865 7.858-1.312 15.754-1.311 23.651-.007 54.947 20.963 109.893 62.883 151.813l84.331-84.331c-18.631-18.631-27.947-43.057-27.947-67.482 0-7.952 1.005-15.899 2.98-23.651z" fill="url(#SVGID_12_)"/><g><g><g><path d="m369.706 200.381c-15.21 0-29.85 2.43-43.566 6.907-14.67-47.862-59.206-82.665-111.874-82.665-64.616 0-116.997 52.381-116.997 116.997 0 9.336 1.1 18.415 3.166 27.119-55.143 3.887-98.672 49.847-98.672 105.98 0 58.681 47.57 106.252 106.252 106.252h261.691c77.482-.001 140.294-62.813 140.294-140.295s-62.812-140.295-140.294-140.295z" fill="url(#SVGID_13_)"/><path d="m229.408 340.681c0 5.691.342 11.299 1.004 16.812-5.277.744-10.673 1.122-16.151 1.122-64.616 0-116.989-52.385-116.989-117.001 0-64.604 52.373-116.989 116.989-116.989 52.668 0 97.213 34.805 111.877 82.668-56.151 18.312-96.73 71.11-96.73 133.388z" fill="url(#SVGID_14_)"/><path d="m2.581 387.944c6.511 52.439 51.231 93.026 105.433 93.026h261.691c60.895 0 112.721-38.801 132.123-93.026z" fill="url(#SVGID_15_)"/></g></g></g><circle cx="188.092" cy="315.131" fill="url(#SVGID_16_)" r="86.255"/></g></svg>