<svg id="Capa_1" enable-background="new 0 0 510 510" height="512" viewBox="0 0 510 510" width="512" xmlns="http://www.w3.org/2000/svg" xmlns:xlink="http://www.w3.org/1999/xlink"><linearGradient id="lg1"><stop offset="0" stop-color="#fff5d9"/><stop offset="1" stop-color="#ffce47"/></linearGradient><linearGradient id="SVGID_1_" gradientUnits="userSpaceOnUse" x1="106.174" x2="421.57" xlink:href="#lg1" y1="106.174" y2="421.57"/><linearGradient id="lg2"><stop offset="0" stop-color="#ff9356" stop-opacity="0"/><stop offset="1" stop-color="#ff755c"/></linearGradient><linearGradient id="SVGID_2_" gradientUnits="userSpaceOnUse" x1="307.567" x2="23.742" xlink:href="#lg2" y1="134.211" y2="-149.614"/><linearGradient id="SVGID_3_" gradientUnits="userSpaceOnUse" x1="74.381" x2="156.222" xlink:href="#lg1" y1="57.151" y2="138.992"/><linearGradient id="SVGID_4_" gradientUnits="userSpaceOnUse" x1="255" x2="255" xlink:href="#lg2" y1="450.888" y2="514.198"/><linearGradient id="lg3"><stop offset="0" stop-color="#2f73a0"/><stop offset="1" stop-color="#43765a"/></linearGradient><linearGradient id="SVGID_5_" gradientUnits="userSpaceOnUse" x1="191.092" x2="318.19" xlink:href="#lg3" y1="212.928" y2="340.026"/><linearGradient id="SVGID_6_" gradientUnits="userSpaceOnUse" x1="74.999" x2="202.097" xlink:href="#lg3" y1="329.021" y2="456.12"/><linearGradient id="SVGID_7_" gradientUnits="userSpaceOnUse" x1="277.508" x2="404.607" xlink:href="#lg3" y1="126.512" y2="253.61"/><linearGradient id="SVGID_8_" gradientUnits="userSpaceOnUse" x1="247.491" x2="374.589" xlink:href="#lg3" y1="156.529" y2="283.627"/><linearGradient id="SVGID_9_" gradientUnits="userSpaceOnUse" x1="95.013" x2="222.111" xlink:href="#lg3" y1="309.007" y2="436.105"/><linearGradient id="SVGID_10_" gradientUnits="userSpaceOnUse" x1="90.161" x2="217.26" xlink:href="#lg3" y1="313.858" y2="440.957"/><linearGradient id="SVGID_11_" gradientUnits="userSpaceOnUse" x1="143.738" x2="270.837" xlink:href="#lg3" y1="260.281" y2="387.38"/><linearGradient id="SVGID_12_" gradientUnits="userSpaceOnUse" x1="279.306" x2="406.404" xlink:href="#lg3" y1="124.714" y2="251.812"/><linearGradient id="SVGID_13_" gradientUnits="userSpaceOnUse" x1="219.598" x2="346.697" xlink:href="#lg3" y1="184.422" y2="311.52"/><linearGradient id="SVGID_15_" gradientUnits="userSpaceOnUse" x1="125.277" x2="252.376" xlink:href="#lg3" y1="278.743" y2="405.841"/><linearGradient id="SVGID_16_" gradientUnits="userSpaceOnUse" x1="234.499" x2="361.597" xlink:href="#lg3" y1="169.521" y2="296.619"/><linearGradient id="SVGID_17_" gradientUnits="userSpaceOnUse" x1="273.329" x2="400.427" xlink:href="#lg3" y1="130.691" y2="257.789"/><linearGradient id="SVGID_18_" gradientUnits="userSpaceOnUse" x1="181.992" x2="309.091" xlink:href="#lg3" y1="222.028" y2="349.126"/><linearGradient id="SVGID_19_" gradientUnits="userSpaceOnUse" x1="169.983" x2="297.081" xlink:href="#lg3" y1="234.037" y2="361.135"/><linearGradient id="SVGID_20_" gradientUnits="userSpaceOnUse" x1="171.52" x2="298.618" xlink:href="#lg3" y1="232.5" y2="359.598"/><linearGradient id="SVGID_21_" gradientUnits="userSpaceOnUse" x1="128.412" x2="255.51" xlink:href="#lg3" y1="275.608" y2="402.706"/><g><g><g><path d="m452.826 0h-286.474c-12.495 0-24.478 4.964-33.314 13.799l-102.766 102.766c-8.835 8.835-13.799 20.819-13.799 33.314v319.419c0 22.386 18.316 40.701 40.701 40.701h395.664c22.379 0 40.689-18.31 40.689-40.689v-428.609c0-22.385-18.316-40.701-40.701-40.701z" fill="url(#SVGID_1_)"/><path d="m452.826 0h-286.474c-12.495 0-24.479 4.964-33.314 13.799l-102.766 102.767c-6.555 6.555-10.973 14.845-12.82 23.789l369.645 369.645h65.741c22.379 0 40.689-18.31 40.689-40.689v-428.61c0-22.385-18.316-40.701-40.701-40.701z" fill="url(#SVGID_2_)"/><path d="m17.869 138.449c-.151.654-.29 1.291-.417 1.905h124.668c8.828 0 15.984-7.156 15.984-15.984v-123.628c-.974.173-1.998.377-3.054.61-9.294 2.055-17.767 6.834-24.497 13.564l-99.143 99.143c-6.703 6.703-11.411 15.154-13.541 24.39z" fill="url(#SVGID_3_)"/><path d="m16.473 429.824v39.475c0 22.386 18.316 40.701 40.701 40.701h395.664c22.379 0 40.689-18.31 40.689-40.689v-39.488h-477.054z" fill="url(#SVGID_4_)"/></g></g><g><path d="m145.043 201.886c2.139 0 4.253-.564 6.113-1.631l28.855-16.534c5.892-3.375 7.938-10.914 4.563-16.806-1.636-2.854-4.284-4.901-7.459-5.763-3.176-.861-6.494-.436-9.348 1.2l-28.854 16.534c-5.892 3.375-7.938 10.915-4.563 16.807 2.19 3.82 6.287 6.193 10.693 6.193z" fill="url(#SVGID_5_)"/><path d="m160.057 391.591-22.053-12.637c-1.643-.946-3.211-2.039-4.658-3.246-5.212-4.351-12.993-3.647-17.344 1.566-4.351 5.214-3.647 12.995 1.566 17.345 2.534 2.115 5.28 4.028 8.168 5.691l22.077 12.65c1.862 1.067 3.977 1.631 6.114 1.631 4.406 0 8.503-2.373 10.692-6.194 3.376-5.892 1.328-13.431-4.562-16.806z" fill="url(#SVGID_6_)"/><path d="m328.36 154.397-28.855-16.536c-2.854-1.636-6.174-2.063-9.348-1.201-3.175.861-5.824 2.908-7.46 5.762-3.375 5.891-1.329 13.431 4.561 16.807l28.854 16.536c1.862 1.068 3.978 1.632 6.117 1.632 4.405 0 8.502-2.373 10.691-6.193 3.377-5.891 1.331-13.431-4.56-16.807z" fill="url(#SVGID_7_)"/><path d="m259.164 131.869c-.587-3.236-2.4-6.05-5.107-7.924-2.706-1.874-5.976-2.581-9.207-1.994-6.398 1.161-12.498 3.39-18.128 6.622l-15.671 8.979c-5.89 3.375-7.937 10.914-4.563 16.807 2.189 3.82 6.287 6.193 10.693 6.193 2.139 0 4.253-.564 6.113-1.631l15.679-8.983c3.195-1.834 6.651-3.097 10.271-3.754 6.682-1.213 11.132-7.635 9.92-14.315z" fill="url(#SVGID_8_)"/><path d="m121.764 340.072v-33.256c0-6.79-5.523-12.314-12.313-12.314s-12.314 5.524-12.314 12.314v33.256c0 6.79 5.524 12.314 12.314 12.314s12.313-5.524 12.313-12.314z" fill="url(#SVGID_9_)"/><path d="m232.195 432.926-28.854-16.534c-2.854-1.636-6.174-2.062-9.348-1.201-3.175.862-5.824 2.908-7.461 5.763-3.373 5.892-1.325 13.431 4.564 16.806l28.855 16.534c1.862 1.067 3.977 1.631 6.114 1.631 4.406 0 8.503-2.373 10.692-6.194 3.377-5.891 1.33-13.43-4.562-16.805z" fill="url(#SVGID_10_)"/><path d="m109.45 269.245c6.79 0 12.313-5.524 12.313-12.314v-21.15c0-1.474.101-2.943.302-4.399l16.146 9.254c1.862 1.067 3.977 1.631 6.115 1.631 4.405 0 8.502-2.373 10.691-6.193 3.376-5.891 1.33-13.431-4.561-16.807l-28.855-16.537c-5.894-3.375-13.432-1.326-16.806 4.563-1.241 2.167-1.781 4.627-1.592 7.065-1.905 1.583-3.304 3.718-3.984 6.16-1.384 4.967-2.085 10.103-2.085 15.263v21.15c.002 6.79 5.526 12.314 12.316 12.314z" fill="url(#SVGID_11_)"/><path d="m359.467 245.823c2.119 0 4.215-.554 6.064-1.603l28.813-15.513.093-.052c3.699-2.12 5.717-6.434 6.109-10.307 4.336-4.201 5.032-11.079 1.377-16.093-4.724-6.48-10.664-11.802-17.658-15.819l-12.626-7.235c-5.891-3.376-13.43-1.329-16.807 4.562-1.636 2.854-2.062 6.174-1.2 9.348.861 3.175 2.907 5.824 5.761 7.458l12.617 7.231c1.215.698 2.382 1.472 3.492 2.318l-22.168 12.704c-5.891 3.376-7.936 10.916-4.56 16.806 2.19 3.822 6.287 6.195 10.693 6.195z" fill="url(#SVGID_12_)"/><path d="m319.403 246.427c-3.176-.863-6.495-.435-9.349 1.2l-28.854 16.537c-2.854 1.635-4.9 4.284-5.762 7.459-.861 3.174-.436 6.494 1.2 9.347 2.188 3.821 6.285 6.194 10.691 6.194 2.139 0 4.253-.564 6.116-1.631l28.854-16.536c2.854-1.636 4.9-4.285 5.762-7.459.861-3.174.436-6.494-1.2-9.348-1.634-2.855-4.283-4.902-7.458-5.763z" fill="url(#SVGID_13_)"/><path d="m319.403 246.427c-3.176-.863-6.495-.435-9.349 1.2l-28.854 16.537c-2.854 1.635-4.9 4.284-5.762 7.459-.861 3.174-.436 6.494 1.2 9.347 2.188 3.821 6.285 6.194 10.691 6.194 2.139 0 4.253-.564 6.116-1.631l28.854-16.536c2.854-1.636 4.9-4.285 5.762-7.459.861-3.174.436-6.494-1.2-9.348-1.634-2.855-4.283-4.902-7.458-5.763z" fill="url(#SVGID_13_)"/><path d="m312.29 425.923-.002-.002c-3.691-5.151-10.625-6.661-16.129-3.504l-25.105 14.389c-.904.518-1.842.997-2.788 1.423-4.119 1.859-6.885 5.814-7.219 10.324-.15 2.035.216 4.097 1.058 5.965 1.988 4.406 6.396 7.252 11.23 7.252 1.753 0 3.455-.368 5.059-1.092 1.667-.752 3.318-1.595 4.907-2.505l25.105-14.389c5.891-3.377 7.937-10.917 4.56-16.809-.21-.365-.437-.717-.676-1.052z" fill="url(#SVGID_15_)"/><path d="m400.55 306.608c-6.79 0-12.313 5.524-12.313 12.314v32.042c0 .296-.005.591-.013.897-.01.417 0 .831.03 1.244.472 6.32 5.608 11.214 11.98 11.385l.304.003c6.722 0 12.126-5.265 12.306-11.986.014-.514.021-1.028.021-1.543v-32.042c-.001-6.789-5.525-12.314-12.315-12.314z" fill="url(#SVGID_16_)"/><path d="m400.55 234.473c-6.79 0-12.313 5.524-12.313 12.314v22.25c0 6.79 5.523 12.314 12.313 12.314s12.314-5.524 12.314-12.314v-22.25c0-6.789-5.524-12.314-12.314-12.314z" fill="url(#SVGID_17_)"/><path d="m368.294 381.075-28.854 16.537c-5.891 3.376-7.937 10.916-4.561 16.807 2.189 3.82 6.286 6.193 10.691 6.193 2.139 0 4.253-.564 6.116-1.632l28.854-16.537c5.891-3.376 7.937-10.916 4.561-16.807-3.376-5.889-10.917-7.936-16.807-4.561z" fill="url(#SVGID_18_)"/><path d="m242.686 298.849v40.41c0 6.79 5.524 12.314 12.314 12.314s12.314-5.524 12.314-12.314v-40.41c0-6.79-5.524-12.314-12.314-12.314s-12.314 5.524-12.314 12.314z" fill="url(#SVGID_19_)"/><path d="m216.463 283.608c4.405 0 8.502-2.373 10.691-6.193 3.376-5.891 1.33-13.43-4.561-16.808l-28.854-16.536c-5.891-3.375-13.43-1.328-16.807 4.561-3.375 5.891-1.33 13.431 4.56 16.808l28.854 16.536c1.862 1.067 3.977 1.632 6.117 1.632z" fill="url(#SVGID_20_)"/><path d="m267.314 422.401v-40.41c0-6.79-5.524-12.314-12.314-12.314s-12.314 5.524-12.314 12.314v40.41c0 6.79 5.524 12.314 12.314 12.314s12.314-5.524 12.314-12.314z" fill="url(#SVGID_21_)"/></g><g><g fill="#ff9356"><path d="m392.498 64.166h59.034c3.835 0 6.943-3.109 6.943-6.943v-11.332c0-3.835-3.109-6.943-6.943-6.943h-59.034c-3.835 0-6.943 3.109-6.943 6.943v11.332c0 3.834 3.108 6.943 6.943 6.943z"/><path d="m259.37 64.166h102.016c3.835 0 6.943-3.109 6.943-6.943v-11.332c0-3.835-3.109-6.943-6.943-6.943h-102.016c-3.835 0-6.943 3.109-6.943 6.943v11.332c0 3.834 3.108 6.943 6.943 6.943z"/></g><g><path d="m318.404 102.149h-59.034c-3.835 0-6.943-3.109-6.943-6.943v-11.332c0-3.835 3.109-6.943 6.943-6.943h59.034c3.835 0 6.943 3.109 6.943 6.943v11.332c0 3.834-3.109 6.943-6.943 6.943z" fill="#ff9356"/></g></g></g></svg>