<svg id="Capa_1" enable-background="new 0 0 510 510" height="512" viewBox="0 0 510 510" width="512" xmlns="http://www.w3.org/2000/svg" xmlns:xlink="http://www.w3.org/1999/xlink"><linearGradient id="lg1"><stop offset="0" stop-color="#2f73a0"/><stop offset="1" stop-color="#174461"/></linearGradient><linearGradient id="SVGID_1_" gradientUnits="userSpaceOnUse" x1="127.817" x2="396.849" xlink:href="#lg1" y1="159.902" y2="428.934"/><linearGradient id="SVGID_2_" gradientUnits="userSpaceOnUse" x1="344.266" x2="192.54" y1="478.705" y2="-55.561"><stop offset="0" stop-color="#2f73a0"/><stop offset=".1545" stop-color="#2b6a94"/><stop offset=".7075" stop-color="#1c4f6f"/><stop offset="1" stop-color="#174461"/></linearGradient><linearGradient id="SVGID_3_" gradientUnits="userSpaceOnUse" x1="83.126" x2="12.502" xlink:href="#lg1" y1="313.69" y2="243.066"/><linearGradient id="SVGID_4_" gradientTransform="matrix(-1 0 0 -1 141.121 510)" gradientUnits="userSpaceOnUse" x1="105.528" x2="49.972" xlink:href="#lg1" y1="243.843" y2="188.287"/><linearGradient id="SVGID_5_" gradientUnits="userSpaceOnUse" x1="56.521" x2="56.521" xlink:href="#lg1" y1="370.925" y2="347.968"/><linearGradient id="SVGID_6_" gradientUnits="userSpaceOnUse" x1="56.521" x2="56.521" xlink:href="#lg1" y1="421.004" y2="398.047"/><linearGradient id="SVGID_7_" gradientUnits="userSpaceOnUse" x1="56.521" x2="56.521" xlink:href="#lg1" y1="161.694" y2="138.737"/><linearGradient id="SVGID_8_" gradientUnits="userSpaceOnUse" x1="56.521" x2="56.521" xlink:href="#lg1" y1="211.773" y2="188.816"/><linearGradient id="lg2"><stop offset="0" stop-color="#c7e9ff"/><stop offset="1" stop-color="#7acbff"/></linearGradient><linearGradient id="SVGID_9_" gradientUnits="userSpaceOnUse" x1="184.919" x2="375.093" xlink:href="#lg2" y1="210.691" y2="400.864"/><linearGradient id="SVGID_10_" gradientUnits="userSpaceOnUse" x1="485.669" x2="773.212" xlink:href="#lg2" y1="229.288" y2="516.831"/><linearGradient id="SVGID_11_" gradientUnits="userSpaceOnUse" x1="203.516" x2="491.059" xlink:href="#lg2" y1="454.722" y2="742.264"/><linearGradient id="SVGID_12_" gradientUnits="userSpaceOnUse" x1="467.072" x2="657.244" xlink:href="#lg2" y1="436.124" y2="626.297"/><linearGradient id="lg3"><stop offset="0" stop-color="#092a40" stop-opacity="0"/><stop offset="1" stop-color="#092a40"/></linearGradient><linearGradient id="SVGID_13_" gradientUnits="userSpaceOnUse" x1="255" x2="255" xlink:href="#lg3" y1="420.883" y2="466.085"/><linearGradient id="SVGID_14_" gradientUnits="userSpaceOnUse" x1="386.038" x2="310.924" xlink:href="#lg3" y1="242.137" y2="167.023"/><linearGradient id="SVGID_15_" gradientTransform="matrix(.707 .707 -.707 .707 205.633 -126.073)" gradientUnits="userSpaceOnUse" x1="269.812" x2="290.968" xlink:href="#lg1" y1="-12.293" y2="-12.293"/><linearGradient id="SVGID_16_" gradientTransform="matrix(.707 .707 -.707 .707 205.633 -126.073)" gradientUnits="userSpaceOnUse" x1="276.12" x2="283.141" xlink:href="#lg1" y1="286.725" y2="286.725"/><linearGradient id="SVGID_17_" gradientTransform="matrix(.707 .707 -.707 .707 205.633 -126.073)" gradientUnits="userSpaceOnUse" x1="265.308" x2="299.074" xlink:href="#lg1" y1="264.271" y2="264.271"/><linearGradient id="SVGID_18_" gradientTransform="matrix(.707 .707 -.707 .707 205.633 -126.073)" gradientUnits="userSpaceOnUse" x1="251.333" x2="303.493" xlink:href="#lg1" y1="124.67" y2="124.67"/><linearGradient id="SVGID_19_" gradientTransform="matrix(.707 .707 -.707 .707 205.633 -126.073)" gradientUnits="userSpaceOnUse" x1="265.361" x2="299.4" y1="204.407" y2="204.407"><stop offset="0" stop-color="#e4e08e"/><stop offset="1" stop-color="#6fa953"/></linearGradient><linearGradient id="SVGID_20_" gradientTransform="matrix(.707 .707 -.707 .707 205.633 -126.073)" gradientUnits="userSpaceOnUse" x1="295.1" x2="256.36" xlink:href="#lg1" y1="159.348" y2="159.348"/><linearGradient id="SVGID_21_" gradientTransform="matrix(-.707 -.707 -.707 .707 566.257 234.551)" gradientUnits="userSpaceOnUse" x1="240.643" x2="217.599" xlink:href="#lg1" y1="159.348" y2="159.348"/><g><g><path d="m471.896 465.961h-433.792c-21.044 0-38.104-17.06-38.104-38.104v-281.544c0-21.044 17.06-38.104 38.104-38.104h433.793c21.044 0 38.104 17.06 38.104 38.104v281.544c-.001 21.044-17.061 38.104-38.105 38.104z" fill="url(#SVGID_1_)"/><path d="m436.199 429.613h-292.703c-15.539 0-28.135-12.597-28.135-28.135v-228.785c0-15.539 12.597-28.135 28.135-28.135h292.703c15.539 0 28.135 12.597 28.135 28.135v228.785c.001 15.539-12.596 28.135-28.135 28.135z" fill="url(#SVGID_2_)"/><circle cx="56.521" cy="287.085" fill="url(#SVGID_3_)" r="41.496"/><circle cx="56.521" cy="287.085" fill="url(#SVGID_4_)" r="32.642"/><g><path d="m73.421 379.534h-33.8c-7.109 0-12.873-5.763-12.873-12.873 0-7.109 5.763-12.873 12.873-12.873h33.8c7.109 0 12.873 5.763 12.873 12.873 0 7.11-5.763 12.873-12.873 12.873z" fill="url(#SVGID_5_)"/><path d="m73.421 429.613h-33.8c-7.109 0-12.873-5.763-12.873-12.873 0-7.109 5.763-12.873 12.873-12.873h33.8c7.109 0 12.873 5.763 12.873 12.873 0 7.11-5.763 12.873-12.873 12.873z" fill="url(#SVGID_6_)"/></g><g><path d="m73.421 170.303h-33.8c-7.109 0-12.873-5.763-12.873-12.873 0-7.109 5.763-12.873 12.873-12.873h33.8c7.109 0 12.873 5.763 12.873 12.873 0 7.11-5.763 12.873-12.873 12.873z" fill="url(#SVGID_7_)"/><path d="m73.421 220.382h-33.8c-7.109 0-12.873-5.763-12.873-12.873 0-7.109 5.763-12.873 12.873-12.873h33.8c7.109 0 12.873 5.763 12.873 12.873 0 7.11-5.763 12.873-12.873 12.873z" fill="url(#SVGID_8_)"/></g><g><path d="m160.868 164.136h-15.894c-3.458 0-6.261 2.803-6.261 6.261v16.592c0 3.214 2.653 5.808 5.889 5.711 3.127-.094 5.537-2.822 5.537-5.95v-11.187h10.489c3.128 0 5.856-2.411 5.95-5.537.098-3.237-2.496-5.89-5.71-5.89z" fill="url(#SVGID_9_)"/><path d="m434.721 164.485h-16.592c-3.214 0-5.808 2.653-5.711 5.889.094 3.127 2.822 5.537 5.95 5.537h11.187v10.489c0 3.128 2.411 5.856 5.537 5.95 3.236.097 5.889-2.497 5.889-5.711v-15.894c.001-3.457-2.802-6.26-6.26-6.26z" fill="url(#SVGID_10_)"/><path d="m160.629 398.608h-10.489v-11.187c0-3.128-2.41-5.856-5.537-5.95-3.236-.097-5.889 2.497-5.889 5.711v16.592c0 3.458 2.803 6.261 6.261 6.261h15.894c3.214 0 5.808-2.653 5.711-5.889-.095-3.127-2.823-5.538-5.951-5.538z" fill="url(#SVGID_11_)"/><path d="m435.093 381.82c-3.127.094-5.537 2.822-5.537 5.95v10.489h-11.187c-3.128 0-5.856 2.411-5.95 5.537-.097 3.236 2.497 5.889 5.711 5.889h16.592c3.458 0 6.261-2.803 6.261-6.261v-15.894c-.001-3.213-2.654-5.807-5.89-5.71z" fill="url(#SVGID_12_)"/></g><path d="m0 395.752v32.105c0 21.044 17.06 38.104 38.104 38.104h433.793c21.044 0 38.104-17.06 38.104-38.104v-32.105z" fill="url(#SVGID_13_)"/></g><path d="m471.896 108.21h-106.04l-174.657 174.657 183.094 183.094h97.603c21.044 0 38.104-17.06 38.104-38.104v-281.544c0-21.044-17.06-38.103-38.104-38.103z" fill="url(#SVGID_14_)"/><g><path d="m412.149 85.506-23.589-23.589 14.648-14.648c4.308-4.308 11.292-4.308 15.599 0l7.99 7.99c4.308 4.308 4.308 11.292 0 15.599z" fill="url(#SVGID_15_)"/><g><g><path d="m191.199 282.867c-2.101-2.101-2.101-5.508 0-7.609l10.273-10.273c2.101-2.101 5.508-2.101 7.609 0 2.101 2.101 2.101 5.508 0 7.609l-10.273 10.273c-2.1 2.101-5.507 2.101-7.609 0z" fill="url(#SVGID_16_)"/><g><path d="m231.896 242.17c-6.407-6.407-13.567-11.547-21.142-15.453l-13.031 36.452c-2.928 8.191 4.982 16.102 13.173 13.173l36.452-13.031c-3.905-7.574-9.045-14.734-15.452-21.141z" fill="url(#SVGID_17_)"/><path d="m284.598 225.026 128.837-128.837c8.387-8.387 8.387-21.986 0-30.373l-4.641-4.641c-8.387-8.387-21.986-8.387-30.373 0l-126.69 126.69c-7.774 7.774-16.504 14.528-25.981 20.1l-6.32 3.716c-14.209 8.355-16.7 27.878-5.045 39.533l8.467 8.467c11.692 11.692 31.287 9.142 39.597-5.153l1.721-2.961c5.634-9.693 12.501-18.614 20.428-26.541z" fill="url(#SVGID_18_)"/></g></g><path d="m236.549 200.859 36.89 36.89c2.001-2.606 4.111-5.128 6.305-7.576l-35.452-35.452c-2.504 2.142-5.083 4.194-7.743 6.138z" fill="url(#SVGID_19_)"/></g><path d="m272.518 201.548c4.239 4.239 11.112 4.239 15.35 0l20.033-20.033c4.239-4.239 4.239-11.112 0-15.35-4.239-4.239-11.112-4.239-15.35 0l-20.033 20.033c-4.239 4.239-4.239 11.111 0 15.35z" fill="url(#SVGID_20_)"/><path d="m278.155 197.293-1.381-1.381c-2.14-2.14-2.14-5.61 0-7.75l17.741-17.741c2.14-2.14 5.61-2.14 7.75 0l1.381 1.381c2.14 2.14 2.14 5.61 0 7.75l-17.741 17.741c-2.14 2.14-5.61 2.14-7.75 0z" fill="url(#SVGID_21_)"/></g></g></svg>