<svg id="Capa_1" enable-background="new 0 0 510 510" height="512" viewBox="0 0 510 510" width="512" xmlns="http://www.w3.org/2000/svg" xmlns:xlink="http://www.w3.org/1999/xlink"><linearGradient id="SVGID_1_" gradientTransform="matrix(0 1 1 0 1064 -1064)" gradientUnits="userSpaceOnUse" x1="1319" x2="1319" y1="-880.416" y2="-597.065"><stop offset="0" stop-color="#edf5ff"/><stop offset="1" stop-color="#c7e9ff"/></linearGradient><linearGradient id="lg1"><stop offset="0" stop-color="#2f73a0"/><stop offset="1" stop-color="#174461"/></linearGradient><linearGradient id="SVGID_2_" gradientTransform="matrix(0 1 1 0 1064 -1064)" gradientUnits="userSpaceOnUse" x1="1319" x2="1319" xlink:href="#lg1" y1="-1016.023" y2="-981.329"/><linearGradient id="lg2"><stop offset="0" stop-color="#7acbff" stop-opacity="0"/><stop offset="1" stop-color="#2f73a0"/></linearGradient><linearGradient id="SVGID_3_" gradientUnits="userSpaceOnUse" x1="241.933" x2="-60.067" xlink:href="#lg2" y1="269.527" y2="238.527"/><linearGradient id="SVGID_4_" gradientUnits="userSpaceOnUse" x1="292.284" x2="292.284" xlink:href="#lg2" y1="390" y2="454.498"/><linearGradient id="lg3"><stop offset="0" stop-color="#7acbff"/><stop offset="1" stop-color="#45a2e0"/></linearGradient><linearGradient id="SVGID_5_" gradientUnits="userSpaceOnUse" x1="50" x2="102.154" xlink:href="#lg3" y1="255" y2="255"/><linearGradient id="SVGID_6_" gradientUnits="userSpaceOnUse" x1="291.859" x2="322.525" y1="155.353" y2="258.687"><stop offset="0" stop-color="#ff755c"/><stop offset="1" stop-color="#ff4181"/></linearGradient><linearGradient id="SVGID_7_" gradientUnits="userSpaceOnUse" x1="299.692" x2="315.692" xlink:href="#lg1" y1="156.975" y2="253.475"/><linearGradient id="SVGID_8_" gradientUnits="userSpaceOnUse" x1="207.681" x2="230.623" xlink:href="#lg3" y1="317.597" y2="394.903"/><linearGradient id="SVGID_9_" gradientUnits="userSpaceOnUse" x1="208.601" x2="230.601" xlink:href="#lg1" y1="311.298" y2="402.798"/><linearGradient id="SVGID_10_" gradientUnits="userSpaceOnUse" x1="384.672" x2="407.614" y1="317.597" y2="394.903"><stop offset="0" stop-color="#ffce47"/><stop offset="1" stop-color="#ff9356"/></linearGradient><linearGradient id="SVGID_11_" gradientUnits="userSpaceOnUse" x1="385.653" x2="414.153" xlink:href="#lg1" y1="333.59" y2="399.09"/><g><g><path d="m506.143 422.271v-334.542c0-15.062-12.21-27.271-27.271-27.271h-400.446v389.085h400.446c15.061 0 27.271-12.21 27.271-27.272z" fill="url(#SVGID_1_)"/><g><g><path d="m87.472 483.814v-457.628c0-14.462-11.724-26.186-26.186-26.186-14.462 0-26.185 11.724-26.185 26.186v457.629c0 14.462 11.724 26.186 26.186 26.186 14.461-.001 26.185-11.725 26.185-26.187z" fill="url(#SVGID_2_)"/><path d="m500.639 438.698-378.24-378.24h-43.973v389.085h400.446c8.892-.001 16.789-4.259 21.767-10.845z" fill="url(#SVGID_3_)"/><path d="m78.426 359.579v89.963h400.446c15.062 0 27.271-12.21 27.271-27.271v-62.692z" fill="url(#SVGID_4_)"/><path d="m118.716 453.226v-396.452c0-12.181-9.875-22.056-22.056-22.056h-70.747c-12.181 0-22.056 9.875-22.056 22.056v396.451c0 12.181 9.875 22.056 22.056 22.056h70.746c12.182.001 22.057-9.874 22.057-22.055z" fill="url(#SVGID_5_)"/></g></g></g><g><g><g><path d="m149 156.329h320v113.565h-320z" fill="url(#SVGID_6_)"/><path d="m469 148.83h-320c-4.143 0-7.5 3.357-7.5 7.5v113.565c0 4.143 3.357 7.5 7.5 7.5h320c4.143 0 7.5-3.357 7.5-7.5v-113.565c0-4.143-3.357-7.5-7.5-7.5zm-312.5 18.12 130.074 46.162-130.074 46.163zm36.059-3.12h232.882l-116.441 41.324zm116.441 57.241 116.441 41.324h-232.882zm22.426-7.959 130.074-46.162v92.325z" fill="url(#SVGID_7_)"/></g><g><path d="m149 304.025h143.009v113.565h-143.009z" fill="url(#SVGID_8_)"/><path d="m292.009 296.525h-143.009c-4.143 0-7.5 3.357-7.5 7.5v113.565c0 4.143 3.357 7.5 7.5 7.5h143.009c4.143 0 7.5-3.357 7.5-7.5v-113.565c0-4.143-3.358-7.5-7.5-7.5zm-135.509 23.032 51.945 41.25-51.945 41.25zm14.004-8.032h100l-50 39.706zm50 58.859 50 39.706h-100zm12.06-9.577 51.945-41.25v82.5z" fill="url(#SVGID_9_)"/></g><g><path d="m325.991 304.025h143.009v113.565h-143.009z" fill="url(#SVGID_10_)"/><path d="m469 296.525h-143.009c-4.143 0-7.5 3.357-7.5 7.5v113.565c0 4.143 3.357 7.5 7.5 7.5h143.009c4.143 0 7.5-3.357 7.5-7.5v-113.565c0-4.143-3.357-7.5-7.5-7.5zm-135.509 23.032 51.945 41.25-51.945 41.25zm14.004-8.032h100l-50 39.706zm50.001 58.859 50 39.706h-100zm12.059-9.577 51.945-41.25v82.5z" fill="url(#SVGID_11_)"/></g></g><g><g fill="#45a2e0"><path d="m422.123 105.694h48.655c3.16 0 5.722-2.562 5.722-5.722v-9.34c0-3.16-2.562-5.722-5.722-5.722h-48.655c-3.16 0-5.722 2.562-5.722 5.722v9.34c-.001 3.16 2.561 5.722 5.722 5.722z"/><path d="m312.401 105.694h84.08c3.16 0 5.722-2.562 5.722-5.722v-9.34c0-3.16-2.562-5.722-5.722-5.722h-84.08c-3.16 0-5.722 2.562-5.722 5.722v9.34c0 3.16 2.562 5.722 5.722 5.722z"/></g><g><path d="m361.056 136.999h-48.655c-3.16 0-5.722-2.562-5.722-5.722v-9.34c0-3.16 2.562-5.722 5.722-5.722h48.655c3.16 0 5.722 2.562 5.722 5.722v9.34c0 3.16-2.562 5.722-5.722 5.722z" fill="#45a2e0"/></g></g></g></g></svg>