<svg id="Capa_1" enable-background="new 0 0 510 510" height="512" viewBox="0 0 510 510" width="512" xmlns="http://www.w3.org/2000/svg" xmlns:xlink="http://www.w3.org/1999/xlink"><linearGradient id="lg1"><stop offset="0" stop-color="#ffe0ea"/><stop offset="1" stop-color="#ffc0d5"/></linearGradient><linearGradient id="SVGID_1_" gradientTransform="matrix(-1 0 0 -1 -204.59 653.632)" gradientUnits="userSpaceOnUse" x1="-704.348" x2="-581.047" xlink:href="#lg1" y1="502.293" y2="502.293"/><linearGradient id="lg2"><stop offset="0" stop-color="#ffce47"/><stop offset="1" stop-color="#ff9356"/></linearGradient><linearGradient id="SVGID_2_" gradientTransform="matrix(-.707 .707 -.707 -.707 -1156.552 836.576)" gradientUnits="userSpaceOnUse" x1="-1622.204" x2="-1361.832" xlink:href="#lg2" y1="-763.162" y2="-763.162"/><linearGradient id="SVGID_3_" gradientTransform="matrix(-.707 .707 -.707 -.707 -1156.552 836.576)" gradientUnits="userSpaceOnUse" x1="-1458.808" x2="-1546.822" xlink:href="#lg2" y1="-724.021" y2="-812.035"/><linearGradient id="lg3"><stop offset="0" stop-color="#2f73a0"/><stop offset="1" stop-color="#174461"/></linearGradient><linearGradient id="SVGID_4_" gradientTransform="matrix(-1 0 0 -1 -204.59 653.632)" gradientUnits="userSpaceOnUse" x1="-646.42" x2="-614.959" xlink:href="#lg3" y1="559.244" y2="559.244"/><linearGradient id="lg4"><stop offset="0" stop-color="#ff755c"/><stop offset="1" stop-color="#ff4181"/></linearGradient><linearGradient id="SVGID_5_" gradientTransform="matrix(-1 0 0 -1 -1874.895 526.141)" gradientUnits="userSpaceOnUse" x1="-2319.093" x2="-2310.359" xlink:href="#lg4" y1="37.251" y2="67.818"/><linearGradient id="lg5"><stop offset="0" stop-color="#edf5ff"/><stop offset="1" stop-color="#c7e9ff"/></linearGradient><linearGradient id="SVGID_6_" gradientTransform="matrix(-1 0 0 -1 -1874.895 526.141)" gradientUnits="userSpaceOnUse" x1="-2316.642" x2="-2308.941" xlink:href="#lg5" y1="70.634" y2="97.586"/><linearGradient id="SVGID_7_" gradientTransform="matrix(-1 0 0 -1 -204.59 653.632)" gradientUnits="userSpaceOnUse" x1="-520.61" x2="-397.309" xlink:href="#lg1" y1="428.703" y2="428.703"/><linearGradient id="SVGID_8_" gradientTransform="matrix(-.707 .707 -.707 -.707 -1156.552 836.576)" gradientUnits="userSpaceOnUse" x1="-1440.247" x2="-1231.91" xlink:href="#lg2" y1="-659.258" y2="-659.258"/><linearGradient id="SVGID_9_" gradientTransform="matrix(-.707 .707 -.707 -.707 -1156.552 836.576)" gradientUnits="userSpaceOnUse" x1="-1302.868" x2="-1390.883" xlink:href="#lg2" y1="-620.117" y2="-708.132"/><linearGradient id="SVGID_10_" gradientTransform="matrix(-1 0 0 -1 -204.59 653.632)" gradientUnits="userSpaceOnUse" x1="-462.682" x2="-431.221" xlink:href="#lg3" y1="485.654" y2="485.654"/><linearGradient id="SVGID_11_" gradientTransform="matrix(-1 0 0 -1 -1874.895 526.141)" gradientUnits="userSpaceOnUse" x1="-2135.356" x2="-2126.622" xlink:href="#lg4" y1="37.251" y2="67.818"/><linearGradient id="SVGID_12_" gradientTransform="matrix(-1 0 0 -1 -1874.895 526.141)" gradientUnits="userSpaceOnUse" x1="-2132.906" x2="-2125.205" xlink:href="#lg5" y1="70.634" y2="97.586"/><linearGradient id="SVGID_13_" gradientTransform="matrix(-1 0 0 -1 -204.59 653.632)" gradientUnits="userSpaceOnUse" x1="-336.871" x2="-213.57" xlink:href="#lg1" y1="342.847" y2="342.847"/><linearGradient id="SVGID_14_" gradientTransform="matrix(-.707 .707 -.707 -.707 -1156.552 836.576)" gradientUnits="userSpaceOnUse" x1="-1249.616" x2="-1101.988" xlink:href="#lg2" y1="-559.691" y2="-559.691"/><linearGradient id="SVGID_15_" gradientTransform="matrix(-.707 .707 -.707 -.707 -1156.552 836.576)" gradientUnits="userSpaceOnUse" x1="-1142.592" x2="-1230.607" xlink:href="#lg2" y1="-520.55" y2="-608.565"/><linearGradient id="SVGID_16_" gradientTransform="matrix(-1 0 0 -1 -204.59 653.632)" gradientUnits="userSpaceOnUse" x1="-278.943" x2="-247.482" xlink:href="#lg3" y1="399.798" y2="399.798"/><linearGradient id="SVGID_17_" gradientTransform="matrix(-1 0 0 -1 -1874.895 526.141)" gradientUnits="userSpaceOnUse" x1="-1951.619" x2="-1942.885" xlink:href="#lg4" y1="37.251" y2="67.818"/><linearGradient id="SVGID_18_" gradientTransform="matrix(-1 0 0 -1 -1874.895 526.141)" gradientUnits="userSpaceOnUse" x1="-1949.169" x2="-1941.468" xlink:href="#lg5" y1="70.634" y2="97.586"/><linearGradient id="SVGID_19_" gradientTransform="matrix(.375 .927 -.927 .375 -4027.776 5567.293)" gradientUnits="userSpaceOnUse" x1="-3581.379" x2="-3391.778" xlink:href="#lg4" y1="-6104.538" y2="-5914.937"/><linearGradient id="SVGID_20_" gradientTransform="matrix(.375 .927 -.927 .375 -692.401 565.105)" gradientUnits="userSpaceOnUse" x1="-13.075" x2="-204.434" y1="-996.861" y2="-1092.541"><stop offset="0" stop-color="#ff9356" stop-opacity="0"/><stop offset="1" stop-color="#ff755c"/></linearGradient><g><g><g><g><g><g><path d="m499.751 198.735-54.99-116.18c-2.661-5.621-10.659-5.621-13.32 0l-54.99 116.18c0 34.15 123.3 34.15 123.3 0z" fill="url(#SVGID_1_)"/><path d="m376.442 436.679.011-237.945c4.613 1.238 9.766 1.26 14.886-.191 6.976-2.003 12.636-10.385 16.022-16.72.743-1.373 2.262-1.789 3.499-1.339.754.259 1.418.833 1.755 1.71-.011.011 0 .022 0 .022.349.889.743 1.755 1.17 2.588.214.394.428.787.641 1.181.011.034.022.045.045.068.72 1.238 1.519 2.396 2.419 3.499.292.36.607.72.911 1.069.515.571 1.054 1.121 1.615 1.646 3.927 3.681 8.948 6.216 14.52 7.062 1.361.214 2.745.315 4.163.315s2.802-.101 4.163-.315c6.368-.968 12.017-4.141 16.135-8.709.304-.349.619-.709.911-1.069.9-1.103 1.71-2.273 2.419-3.499.023-.023.034-.034.045-.068.214-.394.428-.788.641-1.181.225-.428.427-.855.619-1.294.191-.416.371-.844.54-1.283.011-.011.011-.011.011-.034.338-.878 1.001-1.451 1.755-1.71 1.238-.45 2.757-.034 3.499 1.339 3.387 6.335 9.035 14.706 16.011 16.709 5.131 1.463 10.273 1.451 14.897.203l.011 237.946c-.011 9.305-7.55 16.844-16.844 16.844h-17.575-54.48-17.575c-9.29-.001-16.829-7.539-16.84-16.844z" fill="url(#SVGID_2_)"/><path d="m410.861 453.522v-273.039c.754.259 1.418.833 1.755 1.71-.011.011 0 .022 0 .022.349.889 3.376 6.256 4.276 7.336.292.383.596.731.911 1.069 4.118 4.568 9.767 7.741 16.135 8.709 1.361.214 2.745.315 4.163.315s2.802-.101 4.163-.315c6.368-.968 12.017-4.141 16.135-8.709.315-.338.619-.686.911-1.069.9-1.08 1.71-2.25 2.419-3.499.023-.023.034-.034.045-.068.225-.383 1.631-3.319 1.8-3.758.011-.011.011-.011.011-.034.338-.878 1.001-1.451 1.755-1.71v273.039z" fill="url(#SVGID_3_)"/><path d="m438.101 110.447c6.478 0 12.696-1.021 18.5-2.876l-11.841-25.016c-2.661-5.621-10.659-5.621-13.319 0l-11.841 25.016c5.805 1.855 12.024 2.876 18.501 2.876z" fill="url(#SVGID_4_)"/></g></g><path d="m409.498 510h57.216c18.251 0 33.046-14.795 33.046-33.046v-23.431h-123.309v23.431c0 18.251 14.796 33.046 33.047 33.046z" fill="url(#SVGID_5_)"/><path d="m383.611 424.372h110.251c6.946 0 12.577 5.631 12.577 12.577v16.043c0 6.946-5.631 12.577-12.577 12.577h-110.251c-6.946 0-12.577-5.631-12.577-12.577v-16.043c0-6.946 5.631-12.577 12.577-12.577z" fill="url(#SVGID_6_)"/></g></g><g><g><g><g><path d="m316.014 272.324-54.99-116.18c-2.661-5.621-10.659-5.621-13.32 0l-54.99 116.18c0 34.15 123.3 34.15 123.3 0z" fill="url(#SVGID_7_)"/><path d="m192.705 436.679.011-164.356c4.613 1.238 9.766 1.26 14.886-.191 6.976-2.003 12.636-10.385 16.022-16.72.743-1.373 2.262-1.789 3.499-1.339.754.259 1.418.833 1.755 1.71-.011.011 0 .022 0 .022.349.889.743 1.755 1.17 2.588.214.394.428.787.641 1.181.011.034.022.045.045.068.72 1.238 1.519 2.396 2.419 3.499.292.36.607.72.911 1.069.515.571 1.054 1.121 1.615 1.646 3.927 3.681 8.948 6.216 14.52 7.062 1.361.214 2.745.315 4.163.315s2.802-.101 4.163-.315c6.368-.968 12.017-4.141 16.135-8.709.304-.349.619-.709.911-1.069.9-1.103 1.71-2.273 2.419-3.499.023-.023.034-.034.045-.068.214-.394.428-.788.641-1.181.225-.428.427-.855.619-1.294.191-.416.371-.844.54-1.283.011-.011.011-.011.011-.034.338-.878 1.001-1.451 1.755-1.71 1.238-.45 2.757-.034 3.499 1.339 3.387 6.335 9.035 14.706 16.011 16.709 5.131 1.463 10.273 1.451 14.897.203l.011 164.356c-.011 9.305-7.55 16.844-16.844 16.844h-17.575-54.48-17.575c-9.29 0-16.828-7.538-16.84-16.843z" fill="url(#SVGID_8_)"/><path d="m227.124 453.522v-199.45c.754.259 1.418.833 1.755 1.71-.011.011 0 .022 0 .022.349.889 3.376 6.256 4.276 7.336.292.383.596.731.911 1.069 4.118 4.568 9.767 7.741 16.135 8.709 1.361.214 2.745.315 4.163.315s2.802-.101 4.163-.315c6.368-.968 12.017-4.141 16.135-8.709.315-.338.619-.686.911-1.069.9-1.08 1.71-2.25 2.419-3.499.023-.023.034-.034.045-.068.225-.383 1.631-3.319 1.8-3.758.011-.011.011-.011.011-.034.338-.878 1.001-1.451 1.755-1.71v199.45z" fill="url(#SVGID_9_)"/><path d="m254.364 184.036c6.478 0 12.696-1.021 18.5-2.876l-11.841-25.016c-2.661-5.621-10.659-5.621-13.319 0l-11.84 25.016c5.804 1.855 12.023 2.876 18.5 2.876z" fill="url(#SVGID_10_)"/></g></g><path d="m225.761 510h57.216c18.251 0 33.046-14.795 33.046-33.046v-23.431h-123.308v23.431c0 18.251 14.795 33.046 33.046 33.046z" fill="url(#SVGID_11_)"/><path d="m199.874 424.372h110.251c6.946 0 12.577 5.631 12.577 12.577v16.043c0 6.946-5.631 12.577-12.577 12.577h-110.251c-6.946 0-12.577-5.631-12.577-12.577v-16.043c0-6.946 5.631-12.577 12.577-12.577z" fill="url(#SVGID_12_)"/></g></g><g><g><g><g><path d="m132.278 358.18-54.991-116.18c-2.661-5.621-10.659-5.621-13.32 0l-54.989 116.18c0 34.149 123.3 34.149 123.3 0z" fill="url(#SVGID_13_)"/><path d="m8.968 436.679.011-78.501c4.613 1.238 9.766 1.26 14.886-.191 6.976-2.003 12.636-10.385 16.022-16.72.743-1.373 2.262-1.789 3.499-1.339.754.259 1.418.833 1.755 1.71-.011.011 0 .022 0 .022.349.889.743 1.755 1.17 2.588.214.394.428.788.641 1.181.011.034.022.045.045.068.72 1.238 1.519 2.396 2.419 3.499.292.36.607.72.911 1.069.515.571 1.054 1.121 1.615 1.646 3.927 3.681 8.948 6.216 14.52 7.062 1.361.214 2.745.315 4.163.315s2.802-.101 4.163-.315c6.368-.968 12.017-4.141 16.135-8.709.304-.349.619-.709.911-1.069.9-1.103 1.71-2.273 2.419-3.499.023-.023.034-.034.045-.068.214-.394.428-.788.641-1.181.225-.427.427-.855.619-1.294.191-.416.371-.844.54-1.283.011-.011.011-.011.011-.034.338-.878 1.001-1.451 1.755-1.71 1.238-.45 2.757-.034 3.499 1.339 3.387 6.335 9.035 14.706 16.011 16.709 5.131 1.463 10.273 1.451 14.897.203l.011 78.501c-.011 9.305-7.55 16.844-16.844 16.844h-17.575-54.48-17.575c-9.29 0-16.828-7.538-16.84-16.843z" fill="url(#SVGID_14_)"/><path d="m43.387 453.522v-113.594c.754.259 1.418.833 1.755 1.71-.011.011 0 .022 0 .022.349.889 3.376 6.256 4.276 7.336.292.383.596.731.911 1.069 4.118 4.568 9.767 7.741 16.135 8.709 1.361.214 2.745.315 4.163.315s2.802-.101 4.163-.315c6.368-.968 12.017-4.141 16.135-8.709.315-.338.619-.686.911-1.069.9-1.08 1.71-2.25 2.419-3.499.023-.023.034-.034.045-.068.225-.383 1.631-3.319 1.8-3.758.011-.011.011-.011.011-.034.338-.878 1.001-1.451 1.755-1.71v113.595z" fill="url(#SVGID_15_)"/><path d="m70.628 269.892c6.478 0 12.696-1.021 18.5-2.876l-11.841-25.016c-2.661-5.621-10.659-5.621-13.319 0l-11.841 25.016c5.804 1.855 12.023 2.876 18.501 2.876z" fill="url(#SVGID_16_)"/></g></g><path d="m42.024 510h57.216c18.251 0 33.046-14.795 33.046-33.046v-23.431h-123.308v23.431c0 18.251 14.795 33.046 33.046 33.046z" fill="url(#SVGID_17_)"/><path d="m16.138 424.372h110.251c6.946 0 12.577 5.631 12.577 12.577v16.043c0 6.946-5.631 12.577-12.577 12.577h-110.251c-6.946 0-12.577-5.631-12.577-12.577v-16.043c-.001-6.946 5.63-12.577 12.577-12.577z" fill="url(#SVGID_18_)"/></g></g></g><g><path d="m411.572 99.697 24.165-56.929c2.902-6.837-.288-14.733-7.125-17.635l-56.929-24.165c-9.638-4.091-19.411 5.513-15.488 15.221l5.295 13.106-331.661 135.181c-10.141 4.097-15.041 15.64-10.943 25.781l8.235 20.383c4.097 10.141 15.64 15.041 25.781 10.943l331.661-135.181 5.295 13.106c3.922 9.707 17.623 9.827 21.714.189z" fill="url(#SVGID_19_)"/><path d="m27.121 210.64c4.097 10.141 15.64 15.041 25.781 10.943l331.661-135.181 5.295 13.106c3.922 9.708 17.624 9.827 21.715.189l24.165-56.929c1.451-3.419 1.379-7.102.09-10.293l-402.634 163.856c-5.628 2.274-8.347 8.68-6.073 14.309z" fill="url(#SVGID_20_)"/></g></g></svg>