<svg id="Capa_1" enable-background="new 0 0 510 510" height="512" viewBox="0 0 510 510" width="512" xmlns="http://www.w3.org/2000/svg" xmlns:xlink="http://www.w3.org/1999/xlink"><linearGradient id="SVGID_1_" gradientTransform="matrix(.707 .707 -.707 .707 -56.638 646.737)" gradientUnits="userSpaceOnUse" x1="-108.693" x2="-32.632" y1="-497.362" y2="-497.362"><stop offset="0" stop-color="#edf5ff"/><stop offset="1" stop-color="#c7e9ff"/></linearGradient><linearGradient id="SVGID_2_" gradientTransform="matrix(.707 .707 -.707 .707 -56.638 646.737)" gradientUnits="userSpaceOnUse" x1="-61.426" x2="-7.888" y1="-508.595" y2="-486.909"><stop offset="0" stop-color="#ff755c"/><stop offset="1" stop-color="#ff4181"/></linearGradient><linearGradient id="SVGID_3_" gradientTransform="matrix(.707 .707 -.707 .707 -56.638 646.737)" gradientUnits="userSpaceOnUse" x1="-74.269" x2="-42.249" y1="-371.817" y2="-301.679"><stop offset="0" stop-color="#ff4181"/><stop offset="1" stop-color="#843561"/></linearGradient><linearGradient id="SVGID_4_" gradientTransform="matrix(.707 .707 -.707 .707 -56.638 646.737)" gradientUnits="userSpaceOnUse" x1="-45.984" x2="-213.714" y1="-496.985" y2="-468.521"><stop offset="0" stop-color="#fff" stop-opacity="0"/><stop offset="1" stop-color="#fff"/></linearGradient><linearGradient id="lg1"><stop offset="0" stop-color="#7acbff" stop-opacity="0"/><stop offset="1" stop-color="#2f73a0"/></linearGradient><linearGradient id="SVGID_5_" gradientTransform="matrix(.707 .707 -.707 .707 -56.638 646.737)" gradientUnits="userSpaceOnUse" x1="-56.638" x2="-56.638" xlink:href="#lg1" y1="-364.194" y2="-336.672"/><linearGradient id="SVGID_6_" gradientTransform="matrix(.707 .707 -.707 .707 -56.638 646.737)" gradientUnits="userSpaceOnUse" x1="-56.638" x2="-56.638" xlink:href="#lg1" y1="-608.165" y2="-697.829"/><linearGradient id="lg2"><stop offset="0" stop-color="#7acbff"/><stop offset="1" stop-color="#45a2e0"/></linearGradient><linearGradient id="SVGID_7_" gradientTransform="matrix(.707 .707 -.707 .707 -56.638 646.737)" gradientUnits="userSpaceOnUse" x1="-56.638" x2="-56.638" xlink:href="#lg2" y1="-697.755" y2="-643.501"/><linearGradient id="SVGID_8_" gradientTransform="matrix(.707 .707 -.707 .707 -56.638 646.737)" gradientUnits="userSpaceOnUse" x1="-56.638" x2="-56.638" xlink:href="#lg2" y1="-332.208" y2="-277.954"/><linearGradient id="lg3"><stop offset="0" stop-color="#ffce47"/><stop offset="1" stop-color="#ff9356"/></linearGradient><linearGradient id="SVGID_9_" gradientTransform="matrix(.707 .707 -.707 .707 42.683 564.05)" gradientUnits="userSpaceOnUse" x1="170.579" x2="222.672" xlink:href="#lg3" y1="-368.662" y2="-368.662"/><linearGradient id="lg4"><stop offset="0" stop-color="#e4e08e"/><stop offset="1" stop-color="#6fa953"/></linearGradient><linearGradient id="SVGID_10_" gradientTransform="matrix(.707 .707 -.707 .707 42.683 564.05)" gradientUnits="userSpaceOnUse" x1="80.107" x2="141.235" xlink:href="#lg4" y1="-368.662" y2="-368.662"/><linearGradient id="SVGID_11_" gradientTransform="matrix(-.707 -.707 .707 -.707 -1964.844 -358.211)" gradientUnits="userSpaceOnUse" x1="-1764.293" x2="-1712.2" xlink:href="#lg3" y1="1136.061" y2="1136.061"/><linearGradient id="SVGID_12_" gradientTransform="matrix(-.707 -.707 .707 -.707 -1964.844 -358.211)" gradientUnits="userSpaceOnUse" x1="-1854.766" x2="-1793.637" xlink:href="#lg4" y1="1136.061" y2="1136.061"/><g><g><path d="m302.478 285.789c65.893-1.049 124.321-24.154 166.345-66.177l-178.435-178.434c-42.023 42.023-65.128 100.451-66.177 166.345-.146 9.172-7.517 16.543-16.689 16.689-65.893 1.049-124.321 24.154-166.345 66.177l178.434 178.434c42.023-42.023 65.128-100.452 66.177-166.345.147-9.172 7.518-16.543 16.69-16.689z" fill="url(#SVGID_1_)"/><path d="m346.33 210.655-46.985-46.985c-12.971-12.971-34.989-9.6-43.16 6.823-9.625 19.347-14.126 41.97-12.936 66.27.003.052.005.104.008.155.607 11.156-3.282 22.084-11.182 29.985l-46.088 46.088 11.022 11.022 46.088-46.088c7.9-7.9 18.829-11.789 29.985-11.182.052.003.104.005.155.008 24.3 1.19 46.923-3.311 66.27-12.936 16.423-8.171 19.794-30.19 6.823-43.16z" fill="url(#SVGID_2_)"/><path d="m179.996 300.017c-37.896-1.855-71.712 10.129-95.386 33.803l91.57 91.57c23.674-23.674 35.658-57.491 33.803-95.386-.734-14.995-14.992-29.253-29.987-29.987z" fill="url(#SVGID_3_)"/><path d="m302.478 285.789c65.893-1.049 124.321-24.154 166.345-66.177l-160.225-160.225c-42.023 42.023-65.128 100.451-66.177 166.345-.146 9.172-7.517 16.543-16.689 16.689-65.893 1.049-124.321 24.154-166.345 66.177l160.224 160.224c42.023-42.023 65.128-100.452 66.177-166.345.147-9.171 7.518-16.542 16.69-16.688z" fill="url(#SVGID_4_)"/><path d="m41.178 290.388 178.434 178.434c16.953-16.953 30.823-36.58 41.412-58.286l-161.56-161.56c-21.706 10.589-41.333 24.459-58.286 41.412z" fill="url(#SVGID_5_)"/><path d="m468.822 219.612-178.434-178.434c-5.187 5.187-10.084 10.627-14.689 16.297v314.684c6.28-21.902 9.701-45.277 10.089-69.681.146-9.172 7.517-16.543 16.689-16.689 65.894-1.049 124.322-24.154 166.345-66.177z" fill="url(#SVGID_6_)"/><g><path d="m464.387 246.16-200.547-200.547c-7.146-7.146-7.146-18.731 0-25.877l14.376-14.376c7.146-7.146 18.731-7.146 25.877 0l200.547 200.547c7.146 7.146 7.146 18.731 0 25.877l-14.376 14.376c-7.145 7.146-18.731 7.146-25.877 0z" fill="url(#SVGID_7_)"/><path d="m205.907 504.641-200.548-200.548c-7.146-7.146-7.146-18.731 0-25.877l14.376-14.376c7.146-7.146 18.731-7.146 25.877 0l200.548 200.547c7.146 7.146 7.146 18.731 0 25.877l-14.376 14.376c-7.146 7.146-18.732 7.146-25.877.001z" fill="url(#SVGID_8_)"/></g></g><g><path d="m509.998 353.336c.153-14.035-11.1-25.537-25.135-25.69-7.118-.078-13.584 2.778-18.249 7.443-4.533 4.533-7.365 10.775-7.441 17.691-.309 28.279-11.5 54.874-31.51 74.884-20.011 20.011-46.605 31.201-74.884 31.51-14.034.154-25.287 11.655-25.134 25.69.154 14.034 11.655 25.287 25.69 25.134 41.645-.455 80.806-16.931 110.268-46.394 29.464-29.462 45.94-68.622 46.395-110.268z" fill="url(#SVGID_9_)"/><path d="m431.784 353.746c.38-14.03-10.686-25.712-24.716-26.092-14.03-.381-25.712 10.685-26.092 24.716-.204 7.547-3.262 14.647-8.609 19.995s-12.449 8.405-19.995 8.61c-6.767.183-12.843 2.995-17.279 7.431-4.762 4.762-7.633 11.397-7.437 18.661.38 14.03 12.061 25.096 26.092 24.716 20.601-.557 39.978-8.895 54.56-23.477 14.58-14.582 22.918-33.959 23.476-54.56z" fill="url(#SVGID_10_)"/></g><g><path d="m.002 156.664c-.153 14.035 11.1 25.537 25.135 25.69 7.118.078 13.584-2.778 18.249-7.443 4.533-4.533 7.365-10.775 7.441-17.691.309-28.279 11.5-54.874 31.51-74.884 20.011-20.011 46.605-31.201 74.884-31.51 14.034-.154 25.287-11.655 25.134-25.69-.154-14.034-11.655-25.287-25.69-25.134-41.646.454-80.807 16.931-110.27 46.393-29.462 29.463-45.938 68.623-46.393 110.269z" fill="url(#SVGID_11_)"/><path d="m78.216 156.254c-.38 14.03 10.686 25.712 24.716 26.092 14.03.381 25.712-10.685 26.092-24.716.204-7.547 3.262-14.648 8.609-19.995 5.348-5.348 12.449-8.405 19.995-8.609 6.767-.183 12.843-2.995 17.279-7.431 4.762-4.762 7.633-11.397 7.437-18.661-.38-14.03-12.061-25.096-26.092-24.716-20.601.557-39.978 8.895-54.56 23.477-14.58 14.581-22.918 33.958-23.476 54.559z" fill="url(#SVGID_12_)"/></g></g></svg>