<svg id="Capa_1" enable-background="new 0 0 510 510" height="512" viewBox="0 0 510 510" width="512" xmlns="http://www.w3.org/2000/svg" xmlns:xlink="http://www.w3.org/1999/xlink"><linearGradient id="SVGID_1_" gradientUnits="userSpaceOnUse" x1="140.824" x2="408.777" y1="156.141" y2="424.095"><stop offset="0" stop-color="#45a2e0"/><stop offset="1" stop-color="#2f73a0"/></linearGradient><linearGradient id="lg1"><stop offset="0" stop-color="#174461" stop-opacity="0"/><stop offset="1" stop-color="#174461"/></linearGradient><linearGradient id="SVGID_2_" gradientUnits="userSpaceOnUse" x1="261.713" x2="261.713" xlink:href="#lg1" y1="471.715" y2="506.555"/><linearGradient id="SVGID_3_" gradientUnits="userSpaceOnUse" x1="426.978" x2="364.974" xlink:href="#lg1" y1="260.971" y2="250.029"/><linearGradient id="SVGID_4_" gradientUnits="userSpaceOnUse" x1="402.975" x2="370.975" xlink:href="#lg1" y1="364.814" y2="294.814"/><linearGradient id="SVGID_5_" gradientUnits="userSpaceOnUse" x1="87.286" x2="355.239" y1="138.524" y2="406.477"><stop offset="0" stop-color="#7acbff"/><stop offset="1" stop-color="#45a2e0"/></linearGradient><linearGradient id="lg2"><stop offset="0" stop-color="#2f73a0" stop-opacity="0"/><stop offset="1" stop-color="#2f73a0"/></linearGradient><linearGradient id="SVGID_6_" gradientUnits="userSpaceOnUse" x1="208.175" x2="208.175" xlink:href="#lg2" y1="466.851" y2="491.775"/><linearGradient id="SVGID_7_" gradientUnits="userSpaceOnUse" x1="228.949" x2="226.518" xlink:href="#lg2" y1="492.218" y2="441.156"/><linearGradient id="lg3"><stop offset="0" stop-color="#c7e9ff"/><stop offset="1" stop-color="#7acbff"/></linearGradient><linearGradient id="SVGID_8_" gradientUnits="userSpaceOnUse" x1="148.573" x2="423.942" xlink:href="#lg3" y1="113.309" y2="490.802"/><linearGradient id="lg4"><stop offset="0" stop-color="#7acbff" stop-opacity="0"/><stop offset="1" stop-color="#2f73a0"/></linearGradient><linearGradient id="SVGID_9_" gradientUnits="userSpaceOnUse" x1="396.622" x2="-61.653" xlink:href="#lg4" y1="219.403" y2="-238.873"/><linearGradient id="SVGID_10_" gradientUnits="userSpaceOnUse" x1="109.47" x2="176.227" xlink:href="#lg3" y1="43.756" y2="110.512"/><linearGradient id="SVGID_11_" gradientUnits="userSpaceOnUse" x1="235.529" x2="235.529" xlink:href="#lg4" y1="422.81" y2="468.026"/><linearGradient id="SVGID_12_" gradientUnits="userSpaceOnUse" x1="430.292" x2="314.292" xlink:href="#lg4" y1="299.037" y2="201.037"/><linearGradient id="SVGID_13_" gradientUnits="userSpaceOnUse" x1="291.316" x2="408.495" y1="159.326" y2="276.505"><stop offset="0" stop-color="#edf5ff"/><stop offset="1" stop-color="#c7e9ff"/></linearGradient><linearGradient id="SVGID_14_" gradientUnits="userSpaceOnUse" x1="384.634" x2="123.098" xlink:href="#lg4" y1="252.644" y2="-8.893"/><linearGradient id="SVGID_15_" gradientUnits="userSpaceOnUse" x1="315.38" x2="400.209" y1="183.39" y2="268.219"><stop offset="0" stop-color="#ff4181"/><stop offset="1" stop-color="#843561"/></linearGradient><g><g><g><path d="m121.826 510h279.774c16.827 0 30.468-13.641 30.468-30.468v-405.003c0-16.827-13.641-30.468-30.468-30.468h-279.774c-16.827 0-30.468 13.641-30.468 30.468v405.003c0 16.827 13.641 30.468 30.468 30.468z" fill="url(#SVGID_1_)"/><path d="m91.358 411.534v67.997c0 16.827 13.641 30.468 30.468 30.468h279.774c16.827 0 30.468-13.641 30.468-30.468v-67.997z" fill="url(#SVGID_2_)"/><path d="m401.6 44.06h-24.775v420.967h55.243v-390.498c0-16.827-13.641-30.469-30.468-30.469z" fill="url(#SVGID_3_)"/><path d="m211.406 191.391c-6.209 9.091-6.209 21.074 0 30.166 8.199 12.004 15.326 22.85 25.223 32.358l195.439 195.439v-297.633c-27.057-22.576-59.16-34.462-93.604-34.462-51.123 0-95.108 27.353-127.058 74.132z" fill="url(#SVGID_4_)"/></g><g><path d="m68.288 492.382h279.773c16.827 0 30.468-13.641 30.468-30.468v-405.003c0-16.827-13.641-30.468-30.468-30.468h-279.773c-16.827 0-30.468 13.641-30.468 30.468v405.003c-.001 16.827 13.641 30.468 30.468 30.468z" fill="url(#SVGID_5_)"/><path d="m37.819 407.766v54.148c0 16.827 13.641 30.468 30.468 30.468h279.773c16.827 0 30.468-13.641 30.468-30.468v-54.148z" fill="url(#SVGID_6_)"/><path d="m76.174 458.678 33.704 33.704h238.184c16.827 0 30.468-13.641 30.468-30.468v-3.235h-302.356z" fill="url(#SVGID_7_)"/></g><g><path d="m376.816 0h-204.599c-8.924 0-17.482 3.545-23.793 9.855l-73.395 73.396c-6.31 6.31-9.855 14.869-9.855 23.793v328.916c0 15.988 13.081 29.069 29.069 29.069h282.582c15.983 0 29.06-13.077 29.06-29.06v-406.9c-.001-15.988-13.081-29.069-29.069-29.069z" fill="url(#SVGID_8_)"/><g><g fill="#fff"><g><path d="m189.594 232.514h-70.123c-5.139 0-9.304-4.166-9.304-9.304v-18.608c0-5.139 4.166-9.304 9.304-9.304h70.123c5.139 0 9.304 4.166 9.304 9.304v18.608c0 5.138-4.166 9.304-9.304 9.304z"/><path d="m351.587 232.514h-122.424c-5.139 0-9.304-4.166-9.304-9.304v-18.608c0-5.139 4.166-9.304 9.304-9.304h122.424c5.139 0 9.304 4.166 9.304 9.304v18.608c.001 5.138-4.165 9.304-9.304 9.304z"/></g><g><path d="m281.465 288.569h70.123c5.139 0 9.304-4.166 9.304-9.304v-18.608c0-5.139-4.166-9.304-9.304-9.304h-70.123c-5.139 0-9.304 4.166-9.304 9.304v18.608c-.001 5.138 4.165 9.304 9.304 9.304z"/><path d="m119.471 288.569h122.424c5.139 0 9.304-4.166 9.304-9.304v-18.608c0-5.139-4.166-9.304-9.304-9.304h-122.424c-5.139 0-9.304 4.166-9.304 9.304v18.608c0 5.138 4.165 9.304 9.304 9.304z"/></g><g><path d="m189.594 344.624h-70.123c-5.139 0-9.304-4.166-9.304-9.304v-18.608c0-5.139 4.166-9.304 9.304-9.304h70.123c5.139 0 9.304 4.166 9.304 9.304v18.608c0 5.139-4.166 9.304-9.304 9.304z"/><path d="m351.587 344.624h-122.424c-5.139 0-9.304-4.166-9.304-9.304v-18.608c0-5.139 4.166-9.304 9.304-9.304h122.424c5.139 0 9.304 4.166 9.304 9.304v18.608c.001 5.139-4.165 9.304-9.304 9.304z"/></g></g></g><path d="m405.885 435.968v-406.899c0-15.988-13.081-29.069-29.069-29.069h-204.599c-8.924 0-17.482 3.545-23.793 9.855l-73.395 73.396c-4.682 4.682-7.837 10.602-9.156 16.99l339.727 339.727c.183-1.309.285-2.643.285-4z" fill="url(#SVGID_9_)"/><path d="m66.171 98.88c-.108.467-.207.922-.298 1.361h89.037c6.305 0 11.416-5.111 11.416-11.416v-88.295c-.696.124-1.427.269-2.181.436-6.637 1.468-12.689 4.881-17.496 9.687l-70.807 70.807c-4.787 4.788-8.149 10.823-9.671 17.42z" fill="url(#SVGID_10_)"/><path d="m65.174 407.766v28.193c0 15.988 13.081 29.069 29.069 29.069h282.582c15.983 0 29.06-13.077 29.06-29.06v-28.202z" fill="url(#SVGID_11_)"/></g></g><path d="m432.068 151.721c-27.057-22.576-59.16-34.462-93.604-34.462-51.123 0-95.109 27.354-127.058 74.132-6.209 9.091-6.209 21.074 0 30.166 8.199 12.004 15.326 22.85 25.223 32.358l195.439 195.439z" fill="url(#SVGID_12_)"/><g><g><path d="m338.464 115.258c-51.123 0-97.11 29.355-129.059 76.133-6.209 9.091-6.209 21.075 0 30.166 31.95 46.778 77.936 76.133 129.059 76.133s97.11-29.355 129.059-76.133c6.209-9.091 6.209-21.075 0-30.166-31.949-46.779-77.936-76.133-129.059-76.133z" fill="url(#SVGID_13_)"/><circle cx="338.464" cy="206.474" fill="url(#SVGID_14_)" r="80.314"/><circle cx="338.464" cy="206.474" fill="url(#SVGID_15_)" r="65.5"/></g></g></g></svg>