<svg id="Capa_1" enable-background="new 0 0 510 510" height="512" viewBox="0 0 510 510" width="512" xmlns="http://www.w3.org/2000/svg" xmlns:xlink="http://www.w3.org/1999/xlink"><linearGradient id="SVGID_1_" gradientUnits="userSpaceOnUse" x1="150.652" x2="350.309" y1="131.892" y2="455.559"><stop offset="0" stop-color="#ffce47"/><stop offset="1" stop-color="#ff9356"/></linearGradient><linearGradient id="lg1"><stop offset="0" stop-color="#ff755c" stop-opacity="0"/><stop offset="1" stop-color="#ff4181"/></linearGradient><linearGradient id="SVGID_2_" gradientUnits="userSpaceOnUse" x1="478.23" x2="422.878" xlink:href="#lg1" y1="324.154" y2="324.154"/><linearGradient id="lg2"><stop offset="0" stop-color="#ff9356" stop-opacity="0"/><stop offset="1" stop-color="#ff755c"/></linearGradient><linearGradient id="SVGID_3_" gradientUnits="userSpaceOnUse" x1="269.251" x2="269.251" xlink:href="#lg2" y1="386.895" y2="452.621"/><linearGradient id="SVGID_4_" gradientUnits="userSpaceOnUse" x1="232.31" x2="152.117" xlink:href="#lg2" y1="187.051" y2="145.714"/><linearGradient id="SVGID_5_" gradientUnits="userSpaceOnUse" x1="331.273" x2="432.115" y1="90.515" y2="191.357"><stop offset="0" stop-color="#e4e08e"/><stop offset="1" stop-color="#6fa953"/></linearGradient><linearGradient id="SVGID_6_" gradientUnits="userSpaceOnUse" x1="278.775" x2="356.699" y1="38.017" y2="115.941"><stop offset="0" stop-color="#7acbff"/><stop offset="1" stop-color="#45a2e0"/></linearGradient><linearGradient id="SVGID_7_" gradientUnits="userSpaceOnUse" x1="67.973" x2="107.407" y1="123.154" y2="162.587"><stop offset="0" stop-color="#ff755c"/><stop offset="1" stop-color="#ff4181"/></linearGradient><linearGradient id="SVGID_8_" gradientUnits="userSpaceOnUse" x1="174.057" x2="257.728" y1="31.951" y2="115.622"><stop offset="0" stop-color="#ff4181"/><stop offset="1" stop-color="#843561"/></linearGradient><linearGradient id="SVGID_9_" gradientUnits="userSpaceOnUse" x1="380.265" x2="380.265" y1="145.901" y2="214.521"><stop offset="0" stop-color="#43765a" stop-opacity="0"/><stop offset="1" stop-color="#43765a"/></linearGradient><linearGradient id="SVGID_10_" gradientUnits="userSpaceOnUse" x1="113.749" x2="113.749" y1="106.218" y2="162.223"><stop offset="0" stop-color="#843561" stop-opacity="0"/><stop offset="1" stop-color="#843561"/></linearGradient><linearGradient id="SVGID_11_" gradientUnits="userSpaceOnUse" x1="483.49" x2="455.814" xlink:href="#lg1" y1="343.44" y2="343.44"/><linearGradient id="SVGID_12_" gradientUnits="userSpaceOnUse" x1="122.151" x2="321.808" y1="160.393" y2="484.061"><stop offset="0" stop-color="#ffebb4"/><stop offset="1" stop-color="#ffce47"/></linearGradient><linearGradient id="SVGID_13_" gradientUnits="userSpaceOnUse" x1="240.749" x2="240.749" xlink:href="#lg2" y1="440.22" y2="543.179"/><g><g><path d="m208.485 137.052c0-16.435-13.323-29.758-29.758-29.758h-99.218c-16.435 0-29.758 13.323-29.758 29.758v314.69c0 16.435 13.323 29.758 29.758 29.758h379.482c16.435 0 29.758-13.323 29.758-29.758v-255.175c0-16.435-13.323-29.758-29.758-29.758h-220.748c-16.435 0-29.758-13.323-29.758-29.757z" fill="url(#SVGID_1_)"/><path d="m458.992 166.809h-42.147v314.69h42.147c16.435 0 29.758-13.323 29.758-29.758v-255.174c-.001-16.435-13.324-29.758-29.758-29.758z" fill="url(#SVGID_2_)"/><path d="m49.752 362.115v89.627c0 16.435 13.323 29.758 29.758 29.758h379.482c16.435 0 29.758-13.323 29.758-29.758v-89.627z" fill="url(#SVGID_3_)"/></g><path d="m238.243 166.809c-16.403 0-29.706-13.271-29.757-29.661-.052-16.419-13.339-29.854-29.758-29.854h-59.096v33.647c0 39.724 32.202 71.926 71.926 71.926h59.525v-46.058z" fill="url(#SVGID_4_)"/><g><path d="m356.346 197.287c0-29.588-11.284-59.175-33.853-81.744l57.754-57.754c38.526 38.526 57.78 89.003 57.789 139.497z" fill="url(#SVGID_5_)"/><path d="m240.749 81.69v-81.69c50.495.009 100.971 19.263 139.497 57.789l-57.754 57.754c-22.567-22.568-52.155-33.853-81.743-33.853z" fill="url(#SVGID_6_)"/><path d="m43.463 197.287c.009-50.494 19.263-100.971 57.789-139.497l57.754 57.754c-22.568 22.568-33.853 52.156-33.853 81.744h-81.69z" fill="url(#SVGID_7_)"/><path d="m159.006 115.543-57.754-57.754c38.526-38.526 89.003-57.78 139.497-57.789v81.69c-29.587 0-59.175 11.285-81.743 33.853z" fill="url(#SVGID_8_)"/></g><path d="m438.036 197.287c-.005-27.928-5.909-55.846-17.693-81.744h-97.85c22.568 22.569 33.853 52.156 33.853 81.744z" fill="url(#SVGID_9_)"/><path d="m71.074 96.559c-18.4 30.942-27.605 65.829-27.611 100.728h81.69c0-29.588 11.284-59.175 33.853-81.744 7.628-7.628 16.07-13.934 25.031-18.984z" fill="url(#SVGID_10_)"/><path d="m452.797 205.382v276.117h6.195c16.435 0 29.758-13.323 29.758-29.758v-210.407z" fill="url(#SVGID_11_)"/><g><path d="m179.984 165.553c0-16.435-13.323-29.758-29.758-29.758h-99.218c-16.435 0-29.758 13.323-29.758 29.758v314.69c0 16.435 13.323 29.758 29.758 29.758h379.483c16.435 0 29.758-13.323 29.758-29.758v-255.175c0-16.435-13.323-29.758-29.758-29.758h-220.749c-16.435 0-29.758-13.323-29.758-29.757z" fill="url(#SVGID_12_)"/><path d="m21.251 390.616v89.627c0 16.435 13.323 29.758 29.758 29.758h379.482c16.435 0 29.758-13.323 29.758-29.758v-89.627z" fill="url(#SVGID_13_)"/></g></g></svg>