<?xml version="1.0" encoding="utf-8"?>
<!-- Generator: Adobe Illustrator 19.1.0, SVG Export Plug-In . SVG Version: 6.00 Build 0)  -->
<svg version="1.1" id="Layer_1" xmlns="http://www.w3.org/2000/svg" xmlns:xlink="http://www.w3.org/1999/xlink" x="0px" y="0px"
	 viewBox="0 0 64 64" enable-background="new 0 0 64 64" xml:space="preserve">
<path id="Bluetooth" d="M33.4520187,31.2442265l15.1142006-13.6035004c0.2041016-0.1835995,0.3232994-0.4424,0.3311005-0.7168007
	c0.006813-0.2743988-0.0986023-0.5391006-0.2929993-0.7334003L32.7069206,0.2930257
	c-0.2862015-0.2861-0.714901-0.372-1.089901-0.2168c-0.3740005,0.1543-0.6172009,0.5196-0.6172009,0.9238999v27.7910004
	L16.8094196,14.6016254c-0.3906002-0.3906002-1.0233994-0.3906002-1.4140997,0
	c-0.3906002,0.3906002-0.3906002,1.0235004,0,1.4141006l15.1524,15.1513004L15.4334202,44.7706261
	c-0.4101,0.3690987-0.4432878,1.0018997-0.0742006,1.4120979c0.3691006,0.4101028,1.000001,0.4433022,1.4121008,0.0742035
	l14.2284985-12.8057022v29.5489006c0,0.4042015,0.2432003,0.7695007,0.6172009,0.9238014
	c0.1240005,0.0516968,0.2539005,0.0761948,0.3827991,0.0761948c0.2598019,0,0.5156994-0.1015968,0.7071018-0.2929955
	l15.8973999-15.8974991c0.1875-0.1875,0.2929993-0.4414024,0.2929993-0.7070007
	c0-0.2656021-0.1054993-0.5195007-0.2929993-0.7070007L33.4520187,31.2442265z M32.9998207,3.4141257l13.4453125,13.4453011
	L32.9998207,28.9600258V3.4141257z M32.9998207,60.5860252V33.620224l13.4833984,13.4824028L32.9998207,60.5860252z"/>
<g>
</g>
<g>
</g>
<g>
</g>
<g>
</g>
<g>
</g>
<g>
</g>
<g>
</g>
<g>
</g>
<g>
</g>
<g>
</g>
<g>
</g>
<g>
</g>
<g>
</g>
<g>
</g>
<g>
</g>
</svg>
