<?xml version="1.0" encoding="utf-8"?>
<!-- Generator: Adobe Illustrator 19.1.0, SVG Export Plug-In . SVG Version: 6.00 Build 0)  -->
<svg version="1.1" id="Layer_1" xmlns="http://www.w3.org/2000/svg" xmlns:xlink="http://www.w3.org/1999/xlink" x="0px" y="0px"
	 viewBox="0 0 64 64" enable-background="new 0 0 64 64" xml:space="preserve">
<path id="Location-sign" d="M44.4998817,63.9999695c-0.3721008,0-0.7187996-0.2079964-0.8915977-0.5467987L32.5760841,41.7704697
	l-24.5284004,1.177803c-0.4267001,0.0155983-0.8203001-0.2334023-0.9775004-0.6309013
	c-0.1571999-0.3973999-0.0448999-0.8515015,0.2803001-1.1288986l48-40.9491997c0.3232002-0.2754,0.7841072-0.3164,1.1493988-0.1055
	c0.3671989,0.2119,0.5605011,0.6319,0.4834023,1.0488l-11.5,62c-0.0781021,0.4208984-0.4160004,0.7461014-0.839901,0.8067017
	C44.5945892,63.9970703,44.5467834,63.9999695,44.4998817,63.9999695z M33.1736832,39.7402725
	c0.375,0,0.7196999,0.2098999,0.8915977,0.5467987l9.9893074,19.6319008L54.5017815,3.5927713L10.8758831,40.8095703
	l22.2499981-1.0683975C33.1414833,39.7402725,33.1580811,39.7402725,33.1736832,39.7402725z"/>
<g>
</g>
<g>
</g>
<g>
</g>
<g>
</g>
<g>
</g>
<g>
</g>
<g>
</g>
<g>
</g>
<g>
</g>
<g>
</g>
<g>
</g>
<g>
</g>
<g>
</g>
<g>
</g>
<g>
</g>
</svg>
