<?xml version="1.0" encoding="utf-8"?>
<!-- Generator: Adobe Illustrator 19.1.0, SVG Export Plug-In . SVG Version: 6.00 Build 0)  -->
<svg version="1.1" id="Layer_1" xmlns="http://www.w3.org/2000/svg" xmlns:xlink="http://www.w3.org/1999/xlink" x="0px" y="0px"
	 viewBox="0 0 64 64" enable-background="new 0 0 64 64" xml:space="preserve">
<g id="Division-sign">
	<path d="M45,31H19c-0.5527,0-1,0.4473-1,1s0.4473,1,1,1h26c0.5527992,0,1-0.4473,1-1S45.5527992,31,45,31z"/>
	<path d="M32,0c-17.6730843,0-32,14.3268003-32,32c0,17.6730995,14.3269148,32,32,32c17.6731987,0,32-14.3269005,32-32
		C64,14.3268003,49.6731987,0,32,0z M32,62c-16.5419998,0-30-13.457901-30-30S15.4580002,2,32,2c16.542099,0,30,13.4579,30,30
		S48.542099,62,32,62z"/>
	<path d="M32,28c2.7613983,0,5-2.2385998,5-5s-2.2386017-5-5-5s-5,2.2385998-5,5S29.2385998,28,32,28z M32,20
		c1.6543007,0,3,1.3458004,3,3s-1.3456993,3-3,3c-1.6540833,0-3-1.3458004-3-3S30.3459167,20,32,20z"/>
	<path d="M32,36c-2.7614002,0-5,2.2386017-5,5s2.2385998,5,5,5s5-2.2386017,5-5S34.7613983,36,32,36z M32,44
		c-1.6540833,0-3-1.3457985-3-3s1.3459167-3,3-3c1.6543007,0,3,1.3457985,3,3S33.6543007,44,32,44z"/>
</g>
<g>
</g>
<g>
</g>
<g>
</g>
<g>
</g>
<g>
</g>
<g>
</g>
<g>
</g>
<g>
</g>
<g>
</g>
<g>
</g>
<g>
</g>
<g>
</g>
<g>
</g>
<g>
</g>
<g>
</g>
</svg>
