<svg height="25" width="25" class="icon ic-download" viewBox="0 0 64 64"><g id="Save-sign">	<path d="M31.2865009,46.700901c0.1864986,0.1739006,0.4245987,0.2607994,0.6627998,0.2607994		c0.2352009,0,0.4713993-0.0849991,0.6578999-0.2559013l13.0443993-11.906601		c0.398201-0.3631973,0.4264984-0.9803963,0.0625-1.3787994c-0.3632011-0.3983994-0.980999-0.4247971-1.3782997-0.0625		L32.9869003,43.7164993V4h-1.9736996v39.7867012L19.6692009,33.2700005c-0.3934002-0.3671989-1.011301-0.3437004-1.3782997,0.0527		c-0.3660011,0.3945007-0.3426018,1.0126991,0.0527,1.3788986L31.2865009,46.700901z"/>	<path d="M61.969799,29.9703999v27.9984989H2.0303009V29.9703999H0.0000008v29.014101		C0.0000008,59.5460014,0.4539008,60,1.0152007,60h61.969696C63.5461998,60,64,59.5460014,64,58.9845009v-29.014101H61.969799z"/></g></svg>