<?xml version="1.0" encoding="utf-8"?>
<!-- Generator: Adobe Illustrator 19.1.0, SVG Export Plug-In . SVG Version: 6.00 Build 0)  -->
<svg version="1.1" id="Layer_1" xmlns="http://www.w3.org/2000/svg" xmlns:xlink="http://www.w3.org/1999/xlink" x="0px" y="0px"
	 viewBox="0 0 64 64" enable-background="new 0 0 64 64" xml:space="preserve">
<g id="Link">
	<path d="M61.7017403,7.1336627L56.856041,2.2869625c-3.0459023-3.0448999-7.9980011-3.0429001-11.0419006,0L26.4703407,21.6307621
		c-0.3906002,0.3906002-0.3906002,1.0234013,0,1.4141006l3.9208984,3.9207993c0.3906002,0.3907013,1.0234203,0.3907013,1.4141006,0
		c0.3905983-0.3906002,0.3905983-1.0233994,0-1.4139996l-3.2138996-3.2138996L47.228138,3.7010624
		c2.2637024-2.2627001,5.9483032-2.2645998,8.2139015,0l4.8456993,4.8467007
		c1.1025009,1.1025,1.709919,2.5682993,1.709919,4.1268997s-0.6074181,3.0243998-1.709919,4.1269999L41.6715393,35.4178619
		l-2.6181984-2.6181984c-0.3906021-0.3906021-1.0233994-0.3906021-1.4141006,0
		c-0.3905792,0.3906975-0.3905792,1.0234985,0,1.4141006l3.3251991,3.3251991
		c0.1954002,0.1953011,0.4512215,0.2929993,0.7070999,0.2929993c0.2558022,0,0.5116997-0.0976982,0.7070007-0.2929993
		L61.7017403,18.215662c1.4804993-1.4793987,2.2959175-3.4481993,2.2959175-5.5409994
		C63.9976578,10.5819626,63.1822395,8.6141624,61.7017403,7.1336627z"/>
	<path d="M34.2105408,37.6424637c-0.3906021-0.3906021-1.0233994-0.3906021-1.4140015,0
		c-0.3905983,0.3905983-0.3905983,1.0233994,0,1.4141006l2.6181183,2.6180992L16.8004398,60.2918625
		c-2.2774,2.2734985-5.9804993,2.2734985-8.2558994,0l-4.8466997-4.8466988c-2.2626998-2.2656021-2.2626998-5.9502029,0-8.2138023
		l18.6368198-18.6366997l3.2137814,3.2138004c0.3906994,0.3906002,1.0234985,0.3906002,1.4140987,0s0.3906002-1.0233994,0-1.4139996
		l-3.9208794-3.9209003c-0.375-0.375-1.0391197-0.375-1.4141197,0L2.2838407,45.8172607
		c-3.0420001,3.0430031-3.0420001,7.9961014,0,11.0420036l4.8466997,4.8466988
		c1.5273004,1.527298,3.5341191,2.2900009,5.5409999,2.2900009c2.0067997,0,4.0145998-0.7627029,5.5428991-2.2900009
		l19.3213005-19.3241997c0.3907013-0.3907013,0.3907013-1.0235023,0-1.4141006L34.2105408,37.6424637z"/>
	<path d="M19.2232399,44.7869644c0.1953011,0.1953964,0.4512005,0.2929993,0.7070999,0.2929993
		c0.2558002,0,0.5116997-0.0976028,0.7070007-0.2929993l24.1571999-24.1572018c0.3905983-0.3906002,0.3905983-1.0233994,0-1.4141006
		c-0.3906021-0.3906002-1.0233994-0.3906002-1.4140015,0L19.2232399,43.372963
		C18.8326588,43.7635612,18.8326588,44.3963623,19.2232399,44.7869644z"/>
</g>
<g>
</g>
<g>
</g>
<g>
</g>
<g>
</g>
<g>
</g>
<g>
</g>
<g>
</g>
<g>
</g>
<g>
</g>
<g>
</g>
<g>
</g>
<g>
</g>
<g>
</g>
<g>
</g>
<g>
</g>
</svg>
