<?xml version="1.0" encoding="utf-8"?>
<!-- Generator: Adobe Illustrator 19.1.0, SVG Export Plug-In . SVG Version: 6.00 Build 0)  -->
<svg version="1.1" id="Layer_1" xmlns="http://www.w3.org/2000/svg" xmlns:xlink="http://www.w3.org/1999/xlink" x="0px" y="0px"
	 viewBox="0 0 64 64" enable-background="new 0 0 64 64" xml:space="preserve">
<path id="Double-nota" d="M61.5268593,1.000347c0-0.3076-0.1416168-0.5985999-0.384819-0.7880999
	c-0.2430992-0.1894-0.5605011-0.2588-0.857399-0.1816l-39.3652,9.8407993
	c-0.4454002,0.1113005-0.7579002,0.5107002-0.7579002,0.9697008v40.011097
	c-1.7949982-2.0005989-4.6441994-3.3030968-7.857399-3.3030968c-5.4208999,0-9.8309994,3.6904984-9.8309994,8.2255974
	c0,4.535202,4.4101,8.2255974,9.8309994,8.2255974s9.8311005-3.6903954,9.8311005-8.2255974
	c0-0.1340981,0.0262985-30.3118992,0.0262985-30.3118992l37.3653183-10.1899996V42.769249
	c-1.7951202-2.0007019-4.6442184-3.3031006-7.8574181-3.3031006c-5.4208984,0-9.8311005,3.6904984-9.8311005,8.2255974
	c0,4.535202,4.410202,8.2256012,9.8311005,8.2256012s9.8310013-3.6903992,9.8310013-8.2256012
	C61.5004425,47.526947,61.5268593,1.000347,61.5268593,1.000347z M12.304142,62.0003471
	c-4.3182845,0-7.8309999-2.7929993-7.8309999-6.2256012c0-3.4325981,3.5127153-6.2255974,7.8309999-6.2255974
	c4.3183994,0,7.8311005,2.7929993,7.8311005,6.2255974C20.1352425,59.2073479,16.6225414,62.0003471,12.304142,62.0003471z
	 M51.6694412,53.917347c-4.3184013,0-7.8311005-2.7929993-7.8311005-6.2256012c0-3.4325981,3.5126991-6.2255974,7.8311005-6.2255974
	c4.3182983,0,7.8310013,2.7929993,7.8310013,6.2255974C59.5004425,51.1243477,55.9877396,53.917347,51.6694412,53.917347z
	 M22.161541,23.3899479V11.622447L59.5268593,2.280647v10.9193001L22.161541,23.3899479z"/>
<g>
</g>
<g>
</g>
<g>
</g>
<g>
</g>
<g>
</g>
<g>
</g>
<g>
</g>
<g>
</g>
<g>
</g>
<g>
</g>
<g>
</g>
<g>
</g>
<g>
</g>
<g>
</g>
<g>
</g>
</svg>
