<svg version="1.0" xmlns="http://www.w3.org/2000/svg"
 width="710.000000pt" height="710.000000pt" viewBox="0 0 710.000000 710.000000"
 preserveAspectRatio="xMidYMid meet">
<g transform="translate(0.000000,710.000000) scale(0.100000,-0.100000)"
fill="#f7c327" stroke="none">
<path d="M0 3550 l0 -3550 3550 0 3550 0 0 3550 0 3550 -3550 0 -3550 0 0
-3550z m4671 1086 c172 -40 360 -127 473 -219 l30 -24 -113 -164 c-62 -90
-119 -170 -126 -177 -10 -11 -24 -6 -76 28 -90 58 -213 115 -305 142 -60 17
-106 23 -189 23 -101 0 -115 -2 -168 -28 -78 -39 -112 -89 -112 -166 1 -131
84 -182 459 -281 290 -77 471 -166 571 -282 141 -164 165 -452 58 -678 -49
-103 -166 -220 -273 -271 -158 -77 -311 -105 -518 -96 -205 9 -355 46 -537
131 -136 65 -317 188 -312 213 4 25 269 333 279 327 6 -4 45 -32 87 -62 164
-117 333 -180 511 -189 226 -12 356 65 354 208 -2 129 -83 180 -434 275 -285
78 -413 129 -512 207 -140 108 -194 219 -205 417 -18 357 198 613 580 686 111
21 345 11 478 -20z m-1493 -803 l-3 -808 -28 -90 c-42 -134 -81 -199 -172
-290 -153 -153 -343 -216 -617 -202 -179 9 -323 55 -462 148 -62 42 -186 156
-186 172 0 9 279 320 292 325 4 2 39 -25 77 -60 79 -73 143 -111 226 -133 160
-41 296 15 356 148 l24 52 3 773 3 772 245 0 245 0 -3 -807z"/>
</g>
</svg>
