<svg version="1.0" xmlns="http://www.w3.org/2000/svg"
 width="512.000000pt" height="512.000000pt" viewBox="0 0 512.000000 512.000000"
 preserveAspectRatio="xMidYMid meet">
<g transform="translate(0.000000,512.000000) scale(0.100000,-0.100000)"
fill="#e86229" stroke="none">
<path d="M716 4673 c3 -27 79 -884 169 -1906 90 -1023 165 -1860 167 -1862 2
-1 340 -115 752 -252 l749 -249 756 249 c416 137 757 251 759 252 2 2 77 839
167 1862 90 1022 166 1879 169 1906 l5 47 -1849 0 -1849 0 5 -47z m3009 -750
c-2 -16 -12 -111 -20 -213 -9 -102 -18 -195 -21 -207 l-4 -23 -885 0 -885 0 5
-42 c6 -51 35 -393 35 -414 0 -12 114 -14 845 -14 l845 0 0 -32 c-1 -53 -126
-1398 -131 -1401 -2 -2 -218 -62 -478 -134 l-475 -131 -470 130 c-259 72 -475
133 -479 137 -4 5 -19 131 -32 282 -13 151 -27 293 -29 317 l-6 42 234 0 233
0 6 -37 c3 -21 11 -83 18 -138 l12 -100 251 -68 c138 -37 256 -67 261 -67 9 0
506 131 512 135 2 1 14 120 28 266 13 145 27 279 29 297 l5 32 -804 0 -804 0
-5 33 c-8 47 -116 1306 -116 1345 l0 32 1165 0 1164 0 -4 -27z"/>
</g>
</svg>
