<svg id="Capa_1" enable-background="new 0 0 510 510" height="512" viewBox="0 0 510 510" width="512" xmlns="http://www.w3.org/2000/svg" xmlns:xlink="http://www.w3.org/1999/xlink"><linearGradient id="SVGID_1_" gradientUnits="userSpaceOnUse" x1="188.075" x2="337.014" y1="182.106" y2="331.046"><stop offset="0" stop-color="#ffebb4"/><stop offset="1" stop-color="#ffce47"/></linearGradient><linearGradient id="lg1"><stop offset="0" stop-color="#ff9356" stop-opacity="0"/><stop offset="1" stop-color="#ff755c"/></linearGradient><linearGradient id="SVGID_2_" gradientUnits="userSpaceOnUse" x1="254.999" x2="254.999" xlink:href="#lg1" y1="342.651" y2="415.574"/><linearGradient id="SVGID_3_" gradientUnits="userSpaceOnUse" x1="269.592" x2="198.881" y1="264.009" y2="121.562"><stop offset="0" stop-color="#ffebb4" stop-opacity="0"/><stop offset="1" stop-color="#fff5d9"/></linearGradient><linearGradient id="SVGID_4_" gradientUnits="userSpaceOnUse" x1="358.149" x2="297.48" xlink:href="#lg1" y1="256.12" y2="256.12"/><linearGradient id="SVGID_5_" gradientTransform="matrix(1 0 0 -1 352.764 -3637.483)" gradientUnits="userSpaceOnUse" x1="-158.661" x2="-36.87" y1="-3709.629" y2="-3709.629"><stop offset="0" stop-color="#ffe0ea"/><stop offset="1" stop-color="#ffc0d5"/></linearGradient><linearGradient id="lg2"><stop offset="0" stop-color="#ffce47"/><stop offset="1" stop-color="#ff9356"/></linearGradient><linearGradient id="SVGID_6_" gradientTransform="matrix(.707 .707 .707 -.707 2524.53 -4271.454)" gradientUnits="userSpaceOnUse" x1="1456.605" x2="1755.528" xlink:href="#lg2" y1="-4815.667" y2="-4815.667"/><linearGradient id="SVGID_7_" gradientTransform="matrix(.707 .707 .707 -.707 2524.53 -4271.454)" gradientUnits="userSpaceOnUse" x1="1638.87" x2="1551.933" xlink:href="#lg2" y1="-4777.004" y2="-4863.941"/><linearGradient id="SVGID_8_" gradientTransform="matrix(1 0 0 -1 352.764 -3637.483)" gradientUnits="userSpaceOnUse" x1="-101.442" x2="-70.367" y1="-3653.376" y2="-3653.376"><stop offset="0" stop-color="#2f73a0"/><stop offset="1" stop-color="#174461"/></linearGradient><linearGradient id="SVGID_9_" gradientUnits="userSpaceOnUse" x1="227.157" x2="298.164" y1="395.07" y2="491.796"><stop offset="0" stop-color="#45a2e0"/><stop offset="1" stop-color="#2f73a0"/></linearGradient><linearGradient id="lg3"><stop offset="0" stop-color="#c7e9ff"/><stop offset="1" stop-color="#7acbff"/></linearGradient><linearGradient id="SVGID_10_" gradientUnits="userSpaceOnUse" x1="255" x2="255" xlink:href="#lg3" y1="400.929" y2="429.062"/><linearGradient id="SVGID_11_" gradientUnits="userSpaceOnUse" x1="255" x2="255" xlink:href="#lg3" y1="443.98" y2="472.113"/><linearGradient id="SVGID_12_" gradientTransform="matrix(0 1 -1 0 -42.386 -3744.386)" gradientUnits="userSpaceOnUse" x1="3982.351" x2="3963.59" y1="-507.47" y2="-507.47"><stop offset="0" stop-color="#6fa953"/><stop offset="1" stop-color="#43765a"/></linearGradient><linearGradient id="SVGID_13_" gradientTransform="matrix(0 1 -1 0 -42.386 -3744.386)" gradientUnits="userSpaceOnUse" x1="3982.351" x2="3963.59" y1="-87.302" y2="-87.302"><stop offset="0" stop-color="#ff755c"/><stop offset="1" stop-color="#ff4181"/></linearGradient><linearGradient id="SVGID_14_" gradientTransform="matrix(.707 .707 -.707 .707 -796.681 -1863.415)" gradientUnits="userSpaceOnUse" x1="2230.532" x2="2211.771" y1="529.796" y2="529.796"><stop offset="0" stop-color="#7acbff"/><stop offset="1" stop-color="#45a2e0"/></linearGradient><linearGradient id="SVGID_15_" gradientTransform="matrix(.707 .707 -.707 .707 -796.681 -1863.415)" gradientUnits="userSpaceOnUse" x1="2230.532" x2="2211.771" y1="949.964" y2="949.964"><stop offset="0" stop-color="#ff9356"/><stop offset="1" stop-color="#ff755c"/></linearGradient><linearGradient id="SVGID_16_" gradientTransform="matrix(-.707 .707 -.707 -.707 1821.029 -4541.067)" gradientUnits="userSpaceOnUse" x1="4487.617" x2="4468.856" xlink:href="#lg2" y1="-2479.651" y2="-2479.651"/><linearGradient id="SVGID_17_" gradientTransform="matrix(-.707 .707 -.707 -.707 1821.029 -4541.067)" gradientUnits="userSpaceOnUse" x1="4487.617" x2="4468.856" y1="-2059.483" y2="-2059.483"><stop offset="0" stop-color="#ff4181"/><stop offset="1" stop-color="#843561"/></linearGradient><g><g><g><g><path d="m408.977 232.49c0-85.138-69.099-154.137-154.274-153.976-84.965.161-154.171 69.929-153.676 154.892.285 48.982 23.442 92.544 59.33 120.548 9.362 7.305 14.845 18.507 14.845 30.381 0 25.593 20.747 46.34 46.34 46.34h66.918c25.593 0 46.34-20.747 46.34-46.34v-.003c0-11.864 5.468-23.065 14.823-30.362 36.124-28.177 59.354-72.115 59.354-121.48z" fill="url(#SVGID_1_)"/><path d="m126.551 317.409c9.231 13.935 20.659 26.287 33.805 36.545 9.362 7.305 14.845 18.507 14.845 30.381 0 25.593 20.747 46.34 46.34 46.34h66.918c25.593 0 46.34-20.747 46.34-46.34v-.003c0-11.864 5.468-23.065 14.823-30.361 13.155-10.261 24.589-22.62 33.825-36.562z" fill="url(#SVGID_2_)"/><circle cx="255" cy="234.614" fill="url(#SVGID_3_)" r="141.359"/></g></g><path d="m285.648 81.566v349.109h2.811c25.593 0 46.34-20.747 46.34-46.34v-.003c0-11.864 5.468-23.065 14.823-30.362 36.124-28.178 59.355-72.116 59.355-121.48 0-74.544-52.974-136.715-123.329-150.924z" fill="url(#SVGID_4_)"/><g><g><path d="m194.105 118.922 54.316-114.758c2.628-5.552 10.528-5.552 13.156 0l54.317 114.757c.001 33.732-121.789 33.732-121.789.001z" fill="url(#SVGID_5_)"/><path d="m315.904 412.979-.011-294.059c-4.557 1.223-9.647 1.245-14.704-.189-6.891-1.978-12.481-10.258-15.826-16.515-.734-1.356-2.234-1.767-3.456-1.323-.745.256-1.4.822-1.734 1.689.011.011 0 .022 0 .022-.345.878-.733 1.734-1.156 2.556-.211.389-.422.778-.633 1.167-.011.033-.022.044-.044.067-.711 1.222-1.5 2.367-2.389 3.456-.289.356-.6.711-.9 1.056-.509.564-1.041 1.107-1.595 1.626-3.879 3.636-8.838 6.14-14.342 6.976-1.345.211-2.712.311-4.112.311s-2.767-.1-4.112-.311c-6.29-.956-11.87-4.09-15.937-8.602-.3-.345-.611-.7-.9-1.056-.889-1.089-1.689-2.245-2.389-3.456-.022-.022-.033-.033-.044-.067-.211-.389-.422-.778-.634-1.167-.222-.422-.422-.844-.611-1.278-.189-.411-.367-.834-.534-1.267-.011-.011-.011-.011-.011-.033-.333-.867-.989-1.434-1.734-1.689-1.223-.445-2.723-.033-3.456 1.323-3.345 6.257-8.924 14.526-15.815 16.504-5.068 1.445-10.147 1.434-14.715.2l-.011 294.06c.011 9.191 7.457 16.637 16.637 16.637h17.36 53.813 17.36c9.177-.001 16.623-7.447 16.635-16.638z" fill="url(#SVGID_6_)"/><path d="m281.907 429.617v-328.724c-.745.256-1.4.822-1.734 1.689.011.011 0 .022 0 .022-.345.878-3.334 6.179-4.223 7.246-.289.378-.589.722-.9 1.056-4.068 4.512-9.647 7.646-15.937 8.602-1.345.211-2.712.311-4.112.311s-2.767-.1-4.112-.311c-6.29-.956-11.87-4.09-15.937-8.602-.311-.333-.611-.678-.9-1.056-.889-1.067-1.689-2.223-2.389-3.456-.022-.022-.033-.033-.044-.067-.222-.378-1.611-3.279-1.778-3.712-.011-.011-.011-.011-.011-.033-.333-.867-.989-1.434-1.734-1.689v328.724z" fill="url(#SVGID_7_)"/><path d="m255 31.715c-6.398 0-12.541-1.009-18.274-2.841l11.696-24.709c2.628-5.552 10.528-5.552 13.156 0l11.695 24.71c-5.733 1.831-11.875 2.84-18.273 2.84z" fill="url(#SVGID_8_)"/></g></g><g><path d="m255 510c-44.072 0-79.799-35.727-79.799-79.799v-20.561h159.598v20.561c0 44.072-35.727 79.799-79.799 79.799z" fill="url(#SVGID_9_)"/><path d="m169.454 402.142v17.707c0 4.051 4.196 7.502 9.934 8.2 22.271 2.708 48.085 4.257 75.611 4.257s53.34-1.549 75.611-4.257c5.738-.698 9.934-4.149 9.934-8.2v-17.707c0-5.125-6.596-9.035-13.87-8.209-21.355 2.423-45.752 3.799-71.676 3.799s-50.321-1.376-71.676-3.799c-7.271-.825-13.868 3.084-13.868 8.209z" fill="url(#SVGID_10_)"/><path d="m169.454 445.194v17.707c0 4.051 4.196 7.502 9.934 8.2 22.271 2.708 48.085 4.257 75.611 4.257s53.34-1.549 75.611-4.257c5.738-.698 9.934-4.149 9.934-8.2v-17.707c0-5.125-6.596-9.035-13.87-8.209-21.355 2.423-45.752 3.799-71.676 3.799s-50.321-1.376-71.676-3.799c-7.271-.826-13.868 3.083-13.868 8.209z" fill="url(#SVGID_11_)"/></g></g><g><g><path d="m420.168 234.614c0-10.531 8.537-19.068 19.068-19.068h51.695c10.531 0 19.068 8.537 19.068 19.068 0 10.531-8.537 19.068-19.068 19.068h-51.695c-10.531 0-19.068-8.537-19.068-19.068z" fill="url(#SVGID_12_)"/><path d="m0 234.614c0-10.531 8.537-19.068 19.068-19.068h51.695c10.531 0 19.068 8.537 19.068 19.068 0 10.531-8.537 19.068-19.068 19.068h-51.695c-10.531 0-19.068-8.537-19.068-19.068z" fill="url(#SVGID_13_)"/></g><g><path d="m371.792 117.822c-7.447-7.447-7.447-19.52 0-26.967l36.554-36.554c7.447-7.447 19.52-7.447 26.967 0 7.447 7.447 7.447 19.52 0 26.967l-36.554 36.554c-7.447 7.447-19.521 7.447-26.967 0z" fill="url(#SVGID_14_)"/><path d="m74.688 414.926c-7.447-7.447-7.447-19.52 0-26.967l36.554-36.554c7.447-7.447 19.52-7.447 26.967 0 7.447 7.447 7.447 19.52 0 26.967l-36.554 36.554c-7.447 7.447-19.521 7.447-26.967 0z" fill="url(#SVGID_15_)"/></g><g><path d="m371.792 351.405c7.447-7.447 19.52-7.447 26.967 0l36.554 36.554c7.447 7.447 7.447 19.52 0 26.967-7.447 7.447-19.52 7.447-26.967 0l-36.554-36.554c-7.447-7.446-7.447-19.52 0-26.967z" fill="url(#SVGID_16_)"/><path d="m74.688 54.302c7.447-7.447 19.52-7.447 26.967 0l36.554 36.554c7.447 7.447 7.447 19.52 0 26.967-7.447 7.447-19.52 7.447-26.967 0l-36.554-36.555c-7.447-7.446-7.447-19.52 0-26.966z" fill="url(#SVGID_17_)"/></g></g></g></svg>