<svg id="Capa_1" enable-background="new 0 0 510 510" height="512" viewBox="0 0 510 510" width="512" xmlns="http://www.w3.org/2000/svg" xmlns:xlink="http://www.w3.org/1999/xlink"><linearGradient id="SVGID_1_" gradientUnits="userSpaceOnUse" x1="273.688" x2="331.928" y1="40.774" y2="221.789"><stop offset="0" stop-color="#edf5ff"/><stop offset="1" stop-color="#c7e9ff"/></linearGradient><linearGradient id="lg1"><stop offset="0" stop-color="#7acbff" stop-opacity="0"/><stop offset="1" stop-color="#2f73a0"/></linearGradient><linearGradient id="SVGID_2_" gradientUnits="userSpaceOnUse" x1="376.535" x2="-22.177" xlink:href="#lg1" y1="212.053" y2="-186.659"/><linearGradient id="SVGID_3_" gradientUnits="userSpaceOnUse" x1="298.923" x2="289.828" xlink:href="#lg1" y1="268.218" y2="167.474"/><linearGradient id="SVGID_4_" gradientUnits="userSpaceOnUse" x1="270.958" x2="400.28" y1="106.476" y2="235.797"><stop offset="0" stop-color="#ff4181"/><stop offset="1" stop-color="#843561"/></linearGradient><linearGradient id="SVGID_5_" gradientUnits="userSpaceOnUse" x1="302.12" x2="308.941" y1="204.227" y2="97.711"><stop offset="0" stop-color="#843561" stop-opacity="0"/><stop offset=".1204" stop-color="#71335c" stop-opacity=".12"/><stop offset=".3118" stop-color="#593155" stop-opacity=".312"/><stop offset=".5144" stop-color="#473051" stop-opacity=".514"/><stop offset=".7338" stop-color="#3d2f4e" stop-opacity=".734"/><stop offset="1" stop-color="#3a2f4d"/></linearGradient><linearGradient id="SVGID_6_" gradientUnits="userSpaceOnUse" x1="266.086" x2="266.086" y1="299.522" y2="130.553"><stop offset="0" stop-color="#fff" stop-opacity="0"/><stop offset="1" stop-color="#fff"/></linearGradient><linearGradient id="lg2"><stop offset="0" stop-color="#dfdfdf"/><stop offset="1" stop-color="#9da6ac"/></linearGradient><linearGradient id="SVGID_7_" gradientTransform="matrix(.992 .992 -.707 .707 -2762.286 -2268.387)" gradientUnits="userSpaceOnUse" x1="2783.478" x2="2804.033" xlink:href="#lg2" y1="-183.638" y2="-183.638"/><linearGradient id="SVGID_8_" gradientTransform="matrix(.707 .707 -.707 .707 -2118.76 -1624.861)" gradientUnits="userSpaceOnUse" x1="2946.053" x2="3095.56" xlink:href="#lg2" y1="-426.621" y2="-277.114"/><linearGradient id="SVGID_9_" gradientTransform="matrix(-.707 -.707 .707 -.707 3882.3 -5350.889)" gradientUnits="userSpaceOnUse" x1="-1448.548" x2="-1320.387" xlink:href="#lg2" y1="-6562.647" y2="-6434.485"/><linearGradient id="SVGID_10_" gradientUnits="userSpaceOnUse" x1="56.852" x2="82.333" y1="420.239" y2="445.72"><stop offset="0" stop-color="#9da6ac"/><stop offset="1" stop-color="#5a7587"/></linearGradient><g><g><g><path d="m306.15 2.608c-77.937 0-148.044 44.751-196.751 116.065-9.466 13.86-9.466 32.128 0 45.988 48.707 71.314 118.814 116.065 196.751 116.065s148.043-44.751 196.75-116.064c9.466-13.86 9.466-32.128 0-45.988-48.707-71.315-118.814-116.066-196.75-116.066z" fill="url(#SVGID_1_)"/><circle cx="306.15" cy="141.667" fill="url(#SVGID_2_)" r="122.439"/><path d="m306.15 280.727c59.555 0 114.536-26.133 158.892-70.279l-84.044-84.044c-63.464-63.464-163.214-60.314-226.678 3.15-14.674 14.674-26.998 30.41-34.886 48.326 48.236 64.813 112.914 102.847 186.716 102.847z" fill="url(#SVGID_3_)"/><circle cx="306.15" cy="141.667" fill="url(#SVGID_4_)" r="99.855"/></g></g><path d="m405.569 150.975-24.571-24.571c-43.716-43.716-104.65-55.821-159.082-38.38-9.888 15.495-15.62 33.899-15.62 53.643 0 55.148 44.706 99.855 99.855 99.855 52.008 0 94.723-39.764 99.418-90.547z" fill="url(#SVGID_5_)"/><g><circle cx="266.086" cy="241.301" fill="url(#SVGID_6_)" r="120.184"/><g><g><path d="m125.696 408.302-26.609-26.609 48.409-48.41 26.609 26.61z" fill="url(#SVGID_7_)"/><g><path d="m380.997 126.404c-63.464-63.464-166.364-63.464-229.828 0s-63.464 166.364 0 229.828 166.352 63.451 229.815-.013c63.464-63.463 63.477-166.351.013-229.815zm-192.982 192.983c-43.123-43.123-43.11-113.027 0-156.137 43.123-43.123 113.014-43.123 156.137 0 43.11 43.11 43.123 113.014 0 156.137-43.11 43.109-113.027 43.11-156.137 0z" fill="url(#SVGID_8_)"/><path d="m167.573 339.803c54.406 54.406 142.614 54.406 197.021 0s54.394-142.601-.013-197.008c-54.394-54.394-142.589-54.407-196.995 0s-54.407 142.614-.013 197.008zm176.579-176.579c43.123 43.123 43.11 113.027 0 156.137-43.123 43.123-113.014 43.123-156.137 0-43.11-43.11-43.123-113.014 0-156.137 43.11-43.11 113.027-43.11 156.137 0z" fill="url(#SVGID_9_)"/></g></g><path d="m7.013 478.812 21.566 21.566c9.351 9.351 24.512 9.351 33.864 0l3.814-3.814c8.064-8.064 14.879-17.285 20.222-27.36 5.343-10.075 12.159-19.296 20.222-27.36l25.638-25.638c7.979-7.979 7.979-20.915 0-28.894l-12.261-12.261c-7.979-7.979-20.915-7.979-28.894 0l-25.637 25.639c-8.064 8.064-17.285 14.879-27.36 20.222-10.075 5.343-19.296 12.159-27.36 20.222l-3.814 3.814c-9.351 9.352-9.351 24.513 0 33.864z" fill="url(#SVGID_10_)"/></g></g></g></svg>