<svg version="1.0" xmlns="http://www.w3.org/2000/svg"
 width="360.000000pt" height="360.000000pt" viewBox="0 0 360.000000 360.000000"
 preserveAspectRatio="xMidYMid meet">
<g transform="translate(0.000000,360.000000) scale(0.100000,-0.100000)"
fill="#009400" stroke="none">
<path d="M1650 3516 c-80 -45 -217 -125 -305 -176 -88 -51 -195 -113 -238
-137 -43 -24 -108 -61 -144 -83 -36 -22 -67 -40 -69 -40 -2 0 -27 -14 -56 -31
-29 -18 -158 -92 -286 -165 -128 -74 -250 -145 -272 -159 l-40 -25 0 -904 c0
-711 3 -906 13 -914 11 -9 323 -192 427 -250 25 -13 81 -46 125 -72 44 -25
127 -74 185 -107 58 -33 164 -94 235 -135 72 -42 207 -119 300 -173 94 -53
187 -108 207 -121 58 -37 97 -32 192 25 44 27 97 58 116 68 19 11 123 71 230
133 107 62 211 122 230 133 32 18 130 74 485 280 66 38 175 101 243 139 67 39
129 80 137 91 22 32 22 1772 0 1804 -8 11 -61 47 -117 79 -57 32 -150 85 -208
119 -90 53 -453 263 -545 315 -50 28 -279 161 -460 265 -198 115 -217 125
-230 125 -5 0 -75 -38 -155 -84z m-380 -845 c84 -44 31 15 625 -696 198 -236
369 -440 380 -452 l20 -22 -3 472 c-2 260 0 500 3 534 8 74 40 129 98 167 34
22 52 26 109 26 40 0 81 -6 97 -14 42 -22 99 -91 106 -128 3 -18 5 -369 3
-779 l-3 -745 -26 -40 c-40 -59 -115 -97 -198 -97 -127 -1 -228 50 -318 162
-26 33 -232 280 -458 549 l-410 490 -5 -531 -5 -532 -23 -38 c-90 -143 -289
-137 -364 12 l-28 55 0 725 c0 476 4 739 11 764 13 49 63 105 114 129 59 28
212 21 275 -11z"/>
</g>
</svg>
