<svg version="1.0" xmlns="http://www.w3.org/2000/svg"
 width="512.000000pt" height="512.000000pt" viewBox="0 0 512.000000 512.000000"
 preserveAspectRatio="xMidYMid meet">
<g transform="translate(0.000000,512.000000) scale(0.100000,-0.100000)"
fill="#5d71b6" stroke="none">
<path d="M0 2560 l0 -2560 2560 0 2560 0 0 2560 0 2560 -2560 0 -2560 0 0
-2560z m2555 968 c-4 -24 -20 -115 -36 -204 -16 -89 -29 -164 -29 -168 0 -3
57 -6 128 -6 402 0 556 -80 570 -294 4 -69 -1 -110 -48 -371 -19 -108 -76
-428 -87 -492 l-6 -33 -158 0 c-186 0 -170 -18 -138 155 32 174 67 379 91 520
20 122 20 132 5 168 -24 56 -60 67 -243 74 l-153 6 -9 -24 c-5 -13 -15 -55
-21 -94 -7 -38 -19 -104 -26 -145 -8 -41 -28 -156 -45 -255 -17 -99 -38 -214
-45 -255 -7 -41 -16 -92 -20 -112 l-6 -38 -160 0 -161 0 6 28 c3 15 12 65 20
112 8 47 38 213 66 370 28 157 61 346 74 420 13 74 46 258 72 408 l48 272 159
0 159 0 -7 -42z m-924 -405 c163 -48 261 -151 299 -312 18 -75 7 -255 -20
-351 -46 -161 -134 -296 -251 -384 -114 -86 -247 -116 -515 -116 -95 0 -175
-4 -178 -8 -3 -5 -17 -76 -31 -158 -14 -82 -30 -173 -36 -201 l-10 -53 -160 0
c-87 0 -159 1 -159 3 0 2 27 156 60 343 34 186 68 377 76 424 18 106 76 433
115 650 16 91 32 171 34 179 4 11 67 12 358 8 313 -4 359 -6 418 -24z m2594 7
c278 -69 392 -315 304 -659 -34 -132 -92 -234 -189 -332 -142 -143 -219 -168
-547 -176 l-212 -5 -5 -27 c-13 -60 -66 -371 -66 -383 0 -5 -73 -8 -161 -8
l-162 0 7 43 c3 23 15 92 26 152 11 61 33 187 50 280 16 94 37 211 45 260 9
50 27 151 40 225 13 74 44 250 69 390 25 140 46 257 46 258 0 10 710 -7 755
-18z"/>
<path d="M1125 2868 c-2 -7 -20 -107 -40 -223 -20 -115 -45 -255 -55 -310 -10
-55 -16 -103 -13 -107 6 -11 153 -9 243 2 97 13 168 34 211 62 101 68 174 383
115 497 -21 39 -59 59 -153 77 -96 18 -302 19 -308 2z"/>
<path d="M3740 2877 c0 -12 -60 -361 -90 -520 -11 -59 -20 -115 -20 -124 0
-14 15 -15 138 -10 130 7 249 28 299 55 81 44 143 192 151 363 4 92 2 110 -16
146 -21 40 -38 51 -117 73 -43 12 -345 27 -345 17z"/>
</g>
</svg>
