<svg version="1.0" xmlns="http://www.w3.org/2000/svg"
 width="400.000000pt" height="400.000000pt" viewBox="0 0 400.000000 400.000000"
 preserveAspectRatio="xMidYMid meet">
<g transform="translate(0.000000,400.000000) scale(0.100000,-0.100000)"
fill="#c3167a" stroke="none">
<path d="M1946 3939 c-33 -8 -152 -66 -181 -89 -5 -5 -39 -25 -75 -45 -36 -21
-80 -46 -97 -56 -18 -11 -48 -27 -65 -38 -18 -10 -57 -32 -86 -50 -29 -17 -55
-31 -58 -31 -2 0 -21 -10 -42 -23 -82 -52 -187 -113 -292 -170 -30 -16 -62
-36 -71 -43 -8 -8 -18 -14 -22 -14 -3 0 -47 -25 -98 -55 -50 -30 -93 -55 -95
-55 -2 0 -27 -14 -56 -31 -68 -40 -91 -54 -213 -123 -114 -65 -146 -92 -183
-156 l-27 -45 0 -915 0 -915 27 -50 c29 -56 56 -84 108 -113 89 -49 306 -175
315 -182 10 -7 64 -38 165 -93 30 -16 62 -36 71 -43 8 -8 18 -14 22 -14 3 0
47 -25 98 -55 50 -30 93 -55 95 -55 3 0 37 -20 77 -43 39 -24 118 -70 175
-103 57 -32 116 -66 130 -75 15 -9 45 -26 67 -39 22 -12 94 -53 161 -91 183
-106 237 -105 423 5 58 34 131 76 161 93 30 17 111 63 180 103 69 40 140 81
158 91 17 11 47 27 65 38 17 10 88 51 157 91 69 39 130 75 135 79 6 5 35 22
65 38 110 60 156 86 182 104 14 11 29 19 32 19 4 0 25 11 47 26 41 25 73 44
162 94 69 38 107 77 134 136 l23 52 -2 913 -3 914 -29 49 c-16 27 -46 60 -65
73 -40 28 -234 142 -326 192 -33 18 -64 36 -70 41 -5 4 -30 19 -55 32 -25 14
-74 42 -110 63 -36 21 -81 46 -100 57 -19 11 -114 66 -210 123 -96 56 -195
113 -220 127 -99 55 -127 72 -185 106 -33 19 -77 46 -97 59 -21 13 -40 23 -42
23 -3 0 -27 13 -54 29 -41 24 -135 54 -160 50 -4 -1 -24 -5 -46 -10z m536
-1376 c-266 -2 -698 -2 -960 0 -262 1 -45 2 483 2 528 0 743 -1 477 -2z m-109
-238 c53 -16 117 -57 161 -104 l30 -31 -49 -50 -49 -50 -45 45 c-53 54 -94 69
-172 63 -115 -8 -189 -93 -189 -216 0 -52 5 -74 26 -109 72 -123 247 -141 324
-33 11 15 20 31 20 34 0 3 -35 6 -77 8 l-78 3 -3 68 -3 67 156 0 155 0 0 -70
c0 -130 -64 -236 -177 -292 -40 -19 -63 -23 -143 -23 -80 0 -103 4 -143 24
-67 33 -139 108 -172 178 -25 50 -28 70 -28 148 0 81 3 96 31 150 30 59 90
125 146 159 71 44 191 58 279 31z m789 -23 c226 -111 270 -411 86 -577 -80
-72 -127 -89 -243 -89 -85 0 -107 3 -148 23 -71 35 -142 104 -174 169 -25 51
-28 68 -28 157 0 86 3 106 24 145 37 70 68 105 125 145 72 49 126 65 216 62
62 -2 87 -8 142 -35z m-2332 -97 l0 -125 115 0 114 0 3 123 3 122 70 0 70 0 3
-342 2 -343 -75 0 -75 0 0 150 0 150 -115 0 -115 0 0 -150 0 -150 -70 0 -70 0
0 345 0 345 70 0 70 0 0 -125z m630 -109 c0 -129 4 -246 9 -259 18 -46 50 -67
103 -67 50 0 90 18 104 48 5 9 11 127 14 262 l5 245 73 3 74 3 -4 -253 c-4
-280 -8 -300 -71 -366 -56 -58 -102 -77 -192 -77 -63 0 -89 5 -121 22 -51 27
-110 94 -126 142 -12 37 -24 490 -14 517 4 10 24 14 76 14 l70 0 0 -234z
m1545 -686 c-82 -4 -532 -7 -1000 -7 -467 0 -917 3 -1000 7 -82 3 368 6 1000
6 633 0 1083 -3 1000 -6z m-1995 -243 c0 -4 -6 -2 -14 5 -8 7 -12 17 -9 22 5
8 23 -12 23 -27z m98 26 c-12 -3 -18 -17 -21 -46 l-4 -42 -1 48 c-2 43 0 47
21 46 16 -1 17 -3 5 -6z m237 -2 c-3 -5 -1 -12 4 -15 5 -4 11 -1 14 6 2 7 2 3
0 -10 -2 -13 2 -25 10 -28 17 -6 18 -31 1 -31 -7 0 -11 3 -9 7 2 4 -1 15 -8
24 -12 17 -14 17 -27 1 -12 -15 -12 -19 5 -31 10 -8 14 -14 8 -14 -6 0 -16 7
-23 15 -10 13 -10 19 4 34 9 10 16 22 15 27 -2 14 0 24 7 24 3 0 3 -4 -1 -9z
m113 -26 c-14 -31 -18 -28 -11 7 3 15 9 25 14 23 4 -3 3 -17 -3 -30z m98 -17
c10 15 11 14 10 -8 -1 -19 4 -25 19 -25 14 0 20 6 19 20 0 13 6 21 17 21 10 0
15 -6 11 -15 -3 -7 3 -20 13 -27 10 -8 14 -14 9 -14 -6 0 -15 5 -22 12 -8 8
-15 8 -26 -2 -10 -7 -23 -9 -33 -5 -10 5 -21 7 -26 7 -4 -1 -10 11 -13 28 -4
16 -10 27 -15 24 -11 -6 -11 -1 -2 23 6 14 9 11 18 -19 9 -33 12 -35 21 -20z
m376 45 c-17 -3 -22 -9 -17 -21 5 -13 3 -14 -6 -5 -16 16 -3 33 24 32 21 -2
21 -2 -1 -6z m387 -48 c0 -5 -6 1 -13 15 l-14 25 -17 -43 c-10 -24 -19 -41
-22 -39 -2 2 6 26 18 53 l21 49 13 -25 c8 -14 14 -29 14 -35z m32 24 c-5 -13
-10 -19 -10 -12 -1 15 10 45 15 40 3 -2 0 -15 -5 -28z m387 24 c-13 -3 -18
-15 -18 -43 0 -28 5 -40 18 -43 13 -4 11 -5 -5 -6 -21 -1 -23 3 -23 49 0 46 2
50 23 49 16 -1 18 -2 5 -6z m-1471 -65 c-2 -13 -4 -5 -4 17 -1 22 1 32 4 23 2
-10 2 -28 0 -40z m714 7 c-9 -30 -9 -30 -10 10 -1 25 2 36 9 29 6 -6 6 -21 1
-39z m96 -7 c-2 -13 -4 -5 -4 17 -1 22 1 32 4 23 2 -10 2 -28 0 -40z m172 12
c0 -10 -3 -8 -9 5 -12 27 -12 43 0 25 5 -8 9 -22 9 -30z m-427 18 c-5 -7 -12
-22 -15 -33 -4 -16 -5 -14 -6 7 -1 22 7 33 28 37 2 1 -1 -5 -7 -11z m997 -32
c-2 -27 -2 -28 -6 -6 -3 14 -10 31 -15 38 -8 9 -7 11 6 6 10 -4 16 -17 15 -38z
m29 24 c-9 -15 -10 -22 -1 -31 16 -16 36 -1 30 22 -3 11 -1 19 5 19 5 0 8 -19
6 -42 -2 -32 -8 -44 -22 -46 -10 -2 -22 0 -27 5 -6 6 -1 9 12 9 12 -1 24 5 27
13 3 8 0 11 -6 7 -30 -18 -56 26 -30 52 18 18 20 15 6 -8z m130 -21 c-3 -20
-5 -19 -9 9 -3 20 -2 29 4 23 5 -5 7 -19 5 -32z m-2007 8 c-10 -9 -11 -8 -5 6
3 10 9 15 12 12 3 -3 0 -11 -7 -18z m172 7 c-4 -11 1 -22 12 -30 10 -8 14 -14
8 -14 -17 0 -36 28 -29 45 3 8 8 15 10 15 3 0 3 -7 -1 -16z m44 -21 c-3 -10
-5 -4 -5 12 0 17 2 24 5 18 2 -7 2 -21 0 -30z m313 16 c0 8 2 12 5 9 3 -3 3
-13 -1 -22 -6 -15 -7 -15 -20 1 -7 10 -14 22 -14 27 0 6 7 1 15 -10 10 -13 14
-15 15 -5z m231 -26 c10 3 17 1 13 -4 -16 -27 -58 10 -45 41 4 10 7 5 9 -13 3
-23 8 -28 23 -24z m219 3 c-7 -9 -17 -16 -23 -16 -6 0 -2 6 8 14 17 12 18 16
5 32 -13 18 -13 18 5 2 15 -14 16 -20 5 -32z m57 31 c-8 -21 9 -41 28 -33 11
4 15 13 12 26 -3 11 -1 20 4 20 5 0 9 -11 9 -24 0 -32 -38 -46 -56 -21 -11 15
-9 45 3 45 3 0 3 -6 0 -13z m100 -24 c-3 -10 -5 -4 -5 12 0 17 2 24 5 18 2 -7
2 -21 0 -30z m26 17 c-4 -14 1 -22 18 -29 16 -6 18 -10 8 -10 -22 -1 -43 25
-35 44 8 22 15 18 9 -5z m357 -5 c11 -29 27 -33 33 -7 4 15 5 15 6 0 1 -22
-17 -32 -34 -18 -9 7 -15 8 -20 0 -3 -5 -11 -10 -18 -10 -6 0 -2 6 8 14 11 8
16 19 12 30 -4 9 -4 16 -1 16 2 0 9 -11 14 -25z m67 -22 c-3 -10 -5 -2 -5 17
0 19 2 27 5 18 2 -10 2 -26 0 -35z m360 10 c-3 -10 -5 -4 -5 12 0 17 2 24 5
18 2 -7 2 -21 0 -30z m30 0 c-3 -10 -5 -4 -5 12 0 17 2 24 5 18 2 -7 2 -21 0
-30z m59 15 c-1 -17 4 -23 21 -22 12 0 20 -3 17 -8 -15 -24 -61 9 -50 37 8 21
13 19 12 -7z m-1976 -23 c0 -5 -5 -3 -10 5 -5 8 -10 20 -10 25 0 6 5 3 10 -5
5 -8 10 -19 10 -25z m817 3 c-3 -7 -5 -2 -5 12 0 14 2 19 5 13 2 -7 2 -19 0
-25z m-597 2 c0 -12 -29 -20 -35 -9 -4 5 -1 8 7 7 7 -2 12 3 10 10 -1 8 2 11
8 7 5 -3 10 -10 10 -15z m1086 -7 c-10 -10 -19 5 -10 18 6 11 8 11 12 0 2 -7
1 -15 -2 -18z m69 -3 c-3 -5 -12 -10 -18 -10 -7 0 -6 4 3 10 19 12 23 12 15 0z
m240 0 c-3 -5 -12 -10 -18 -10 -7 0 -6 4 3 10 19 12 23 12 15 0z"/>
<path d="M2909 2180 c-128 -67 -158 -235 -62 -341 50 -56 81 -69 158 -69 77 0
108 13 158 69 99 109 61 290 -72 347 -48 20 -138 17 -182 -6z"/>
</g>
</svg>
