<svg id="Layer_5" enable-background="new 0 0 64 64" height="512" viewBox="0 0 64 64" width="512" xmlns="http://www.w3.org/2000/svg" xmlns:xlink="http://www.w3.org/1999/xlink"><linearGradient id="SVGID_1_" gradientUnits="userSpaceOnUse" x1="32" x2="32" y1="63" y2="1"><stop offset="0" stop-color="#9f2fff"/><stop offset="1" stop-color="#0bb1d3"/></linearGradient><path d="m47.553 23.658-4.764-2.382c-.362-.18-.767-.276-1.171-.276-1.444 0-2.618 1.175-2.618 2.618v4.764c0 1.443 1.174 2.618 2.618 2.618.404 0 .809-.096 1.171-.276l4.764-2.382c.892-.447 1.447-1.344 1.447-2.342s-.555-1.895-1.447-2.342zm-.895 2.895-4.764 2.382c-.39.198-.894-.117-.894-.553v-4.764c0-.341.277-.618.618-.618.095 0 .191.022.276.065l4.763 2.382c.212.106.343.318.343.553s-.131.447-.342.553zm14.342-5.369v-7.184c0-7.168-5.832-13-13-13h-8c-7.168 0-13 5.832-13 13v7.184c-1.161.414-2 1.514-2 2.816v4 .001c-.388.291-.723.638-1.008 1.021-.912-1.22-2.355-2.022-3.992-2.022h-15v4h-4v28h18.101c.464 2.279 2.485 4 4.899 4s4.435-1.721 4.899-4h18.101v-8h13c1.654 0 3-1.346 3-3s-1.346-3-3-3h-3c-.551 0-1-.448-1-1v-9.142c1.72-.447 3-1.999 3-3.858v-.184c.314.112.648.184 1 .184 1.654 0 3-1.346 3-3v-4c0-1.302-.839-2.402-2-2.816zm-9.943-.752c-1.649-2.086-4.197-3.432-7.057-3.432s-5.408 1.346-7.057 3.432c-.279-1.935-1.932-3.432-3.943-3.432v-3c0-3.859 3.14-7 7-7h8c3.86 0 7 3.141 7 7v3c-2.011 0-3.664 1.497-3.943 3.432zm-7.057 12.568c-3.86 0-7-3.141-7-7s3.14-7 7-7 7 3.141 7 7-3.14 7-7 7zm-13-5v-4-3c0-1.103.897-2 2-2s2 .897 2 2v10c0 1.103-.897 2-2 2s-2-.897-2-2zm-2-14c0-6.065 4.935-11 11-11h8c6.065 0 11 4.935 11 11v7c0-1.474-.81-2.75-2-3.444v-3.556c0-4.963-4.038-9-9-9h-8c-4.962 0-9 4.037-9 9v3.556c-1.19.694-2 1.97-2 3.444zm-2 10c0-.552.449-1 1-1s1 .448 1 1v4c0 .552-.449 1-1 1s-1-.448-1-1zm-1.215 6.005c.549.607 1.334.995 2.215.995.352 0 .686-.072 1-.184v.184c0 2.206 1.794 4 4 4 2.011 0 3.664-1.497 3.943-3.432 1.042 1.318 2.444 2.334 4.057 2.907v18.525h-16v-21c0-.752.297-1.451.785-1.995zm-18.785-1.005h13c1.654 0 3 1.346 3 3v21h-16zm20 28v1c0 1.654-1.346 3-3 3s-3-1.346-3-3v-1h-18v-24h2v22h18 2 18v-20.059c.329.037.662.059 1 .059s.671-.022 1-.059v22.059zm30-10h3c.551 0 1 .448 1 1s-.449 1-1 1h-13v-14.525c1.613-.573 3.015-1.589 4.057-2.907.231 1.601 1.402 2.89 2.943 3.29v9.142c0 1.654 1.346 3 3 3zm0-16c0 1.103-.897 2-2 2s-2-.897-2-2v-10c0-1.103.897-2 2-2s2 .897 2 2v3 4zm4-3c0 .552-.449 1-1 1s-1-.448-1-1v-4c0-.552.449-1 1-1s1 .448 1 1zm-52 5v8h4.838l7.162 2.388v-12.776l-7.162 2.388zm2 2h2v4h-2zm8 5.612-4-1.333v-4.558l4-1.333zm-10 8.388h12v2h-12zm0-4h12v2h-12zm30 6h-12v-2h12zm0-4h-12v-2h12zm0-10h-12v6h12zm-2 4h-8v-2h8zm-19.464-18.535-1.414 1.414c-1.17-1.17-3.073-1.17-4.243 0l-1.414-1.414c1.949-1.949 5.121-1.949 7.071 0zm1.414-1.415c-2.729-2.729-7.17-2.729-9.899 0l-1.414-1.414c3.509-3.51 9.219-3.51 12.728 0zm2.828-2.828c-4.289-4.289-11.268-4.289-15.557 0l-1.414-1.414c5.068-5.068 13.316-5.068 18.385 0z" fill="url(#SVGID_1_)"/></svg>