<svg id="Layer_5" enable-background="new 0 0 64 64" height="512" viewBox="0 0 64 64" width="512" xmlns="http://www.w3.org/2000/svg" xmlns:xlink="http://www.w3.org/1999/xlink"><linearGradient id="SVGID_1_" gradientUnits="userSpaceOnUse" x1="32" x2="32" y1="63" y2="1"><stop offset="0" stop-color="#9f2fff"/><stop offset="1" stop-color="#0bb1d3"/></linearGradient><path d="m23 53h-6c-1.103 0-2 .897-2 2v2c0 1.103.897 2 2 2h6c1.103 0 2-.897 2-2v-2c0-1.103-.897-2-2-2zm-6 4v-2h6l.001 2zm-8-4h-2c-1.103 0-2 .897-2 2v2c0 1.103.897 2 2 2h2c1.103 0 2-.897 2-2v-2c0-1.103-.897-2-2-2zm-2 4v-2h2l.001 2zm26-4h-2c-1.103 0-2 .897-2 2v2c0 1.103.897 2 2 2h2c1.103 0 2-.897 2-2v-2c0-1.103-.897-2-2-2zm-2 4v-2h2l.001 2zm-10-51c0 .552-.448 1-1 1s-1-.448-1-1 .448-1 1-1 1 .448 1 1zm12 0c0-.552.448-1 1-1s1 .448 1 1-.448 1-1 1-1-.448-1-1zm26 7h-17c-1.13 0-2.162.391-3 1.026v-8.026c0-2.757-2.243-5-5-5h-28c-2.757 0-5 2.243-5 5v52c0 2.757 2.243 5 5 5h28c2.757 0 5-2.243 5-5v-9.142c1.72-.447 3-2 3-3.858h3v13c0 2.757 2.243 5 5 5s5-2.243 5-5v-13h8v-28h-4zm-17 2h15v24h-2v-1.236l-2.658-5.316c-.446-.893-1.343-1.448-2.342-1.448s-1.896.555-2.342 1.447l-2.658 5.317v1.236h-6v-21c0-1.654 1.346-3 3-3zm5.618 22 1.829-3.659c.211-.421.895-.421 1.105 0l1.83 3.659zm-.618 2h2v16h-2zm4 0h2v16h-2zm-32-20v-2-2h15c1.654 0 3 1.346 3 3v21h-18zm15 26c0 1.858 1.28 3.411 3 3.858v.142h-34v-38h34v3.026c-.838-.635-1.87-1.026-3-1.026h-17v4h-4v28zm-17-39v-3h6v3c0 1.654-1.346 3-3 3s-3-1.346-3-3zm20 0v3h-13.026c.635-.838 1.026-1.87 1.026-3v-3h9c1.654 0 3 1.346 3 3zm-31-3h9v3c0 1.13.391 2.162 1.026 3h-13.026v-3c0-1.654 1.346-3 3-3zm28 58h-28c-1.654 0-3-1.346-3-3v-7h34v7c0 1.654-1.346 3-3 3zm6-18v2c0 1.103-.897 2-2 2s-2-.897-2-2v-2h-21v-24h2v22h20 2 6v2zm10 18c-1.654 0-3-1.346-3-3v-1h6v1c0 1.654-1.346 3-3 3zm11-42v24h-6v-2h4v-22zm-35.382 8c.404 0 .809-.096 1.171-.276l4.763-2.382c.893-.446 1.448-1.343 1.448-2.342s-.555-1.896-1.447-2.342l-4.764-2.382c-.362-.18-.767-.276-1.171-.276-1.444 0-2.618 1.174-2.618 2.618v4.764c0 1.444 1.174 2.618 2.618 2.618zm-.618-7.382c0-.341.277-.618.618-.618.095 0 .191.022.276.065l4.764 2.382c.211.106.342.317.342.553s-.131.447-.342.553l-4.764 2.382c-.391.195-.894-.117-.894-.553zm1 11.382c-1.302 0-2.402.839-2.816 2h-2.184v2h2.184c.414 1.161 1.514 2 2.816 2s2.402-.839 2.816-2h6.184v-2h-6.184c-.414-1.161-1.514-2-2.816-2zm0 4c-.551 0-1-.449-1-1s.449-1 1-1 1 .449 1 1-.449 1-1 1zm29-18h-14v8h14zm-2 6h-10v-4h10zm-10 6h-2v-2h2zm2-2h10v2h-10zm-40 6h2v2h-2zm0 12h2v2h-2zm0-8h2v2h-2zm0 4h2v2h-2z" fill="url(#SVGID_1_)"/></svg>