<svg id="Layer_5" enable-background="new 0 0 64 64" height="512" viewBox="0 0 64 64" width="512" xmlns="http://www.w3.org/2000/svg" xmlns:xlink="http://www.w3.org/1999/xlink"><linearGradient id="SVGID_1_" gradientUnits="userSpaceOnUse" x1="32" x2="32" y1="63" y2="1"><stop offset="0" stop-color="#9f2fff"/><stop offset="1" stop-color="#0bb1d3"/></linearGradient><path d="m11 45h2v2h-2zm-4 2h2v-2h-2zm8 0h2v-2h-2zm48-33v32c0 2.757-2.243 5-5 5h-17.962c.168 1.595.997 3.041 2.296 4h4.666c1.654 0 3 1.346 3 3v2c0 1.654-1.346 3-3 3h-30c-1.654 0-3-1.346-3-3v-2c0-1.654 1.346-3 3-3h4.666c1.299-.959 2.128-2.405 2.296-4h-17.962c-2.757 0-5-2.243-5-5v-32c0-2.757 2.243-5 5-5h29.056c-.03-.255-.056-.51-.056-.769v-.205c0-2.216 1.18-4.3 3.08-5.44 1.729-1.038 3.709-1.586 5.725-1.586 2.859 0 5.553 1.071 7.625 3.023 2.004.215 3.57 1.916 3.57 3.977v.231c0 .259-.026.514-.056.769h3.056c2.757 0 5 2.243 5 5zm-8.614-3c-.02.042-.044.081-.065.123.418.516.679 1.163.679 1.877 0 1.654-1.346 3-3 3h-1.091c-.232 1.362-.922 2.566-1.909 3.452v1.701l4.301.717c.672.112 1.321.324 1.929.628 2.325 1.162 3.77 3.5 3.77 6.1v12.402h2v-27c0-1.654-1.346-3-3-3zm-8.066 14.906 1.941 1.941.586-4.692-.413-.069zm2.68-10.913v-3.043c-1.466-.153-2.843-.712-4-1.622-1.157.91-2.534 1.469-4 1.622v3.043c0 2.206 1.794 4 4 4s4-1.795 4-4zm-6 5.65v1.024l2 2.667 2-2.667v-1.024c-.627.223-1.298.35-2 .35s-1.373-.128-2-.35zm-1.848 2.512.586 4.692 1.941-1.941-2.115-2.82zm-4.124.687c-.475.08-.934.229-1.363.443-1.644.823-2.665 2.475-2.665 4.312v12.403h24v-12.403c0-1.837-1.021-3.489-2.665-4.311-.43-.215-.888-.364-1.364-.444l-2.15-.358-1.083 8.669-4.738-4.739-4.739 4.739-1.083-8.669zm13.972-9.842h1c.551 0 1-.449 1-1s-.449-1-1-1h-1zm-14-5.769c0 .637.138 1.257.391 1.832.197-.041.4-.063.609-.063h1v-.007h1.171c1.557 0 3.021-.606 4.122-1.707l.707-.707.707.707c1.101 1.101 2.564 1.707 4.122 1.707h1.171v.007h1c.209 0 .412.022.609.063.253-.575.391-1.195.391-1.832v-.231c0-1.103-.897-2-2-2h-.414l-.293-.293c-1.758-1.758-4.05-2.707-6.488-2.707-1.654 0-3.278.45-4.696 1.301-1.301.781-2.109 2.208-2.109 3.725zm2 5.769v-2h-1c-.551 0-1 .449-1 1s.449 1 1 1zm-36 0v27h28v-12.403c0-2.6 1.445-4.938 3.77-6.1.607-.304 1.256-.515 1.928-.627l4.302-.717v-1.701c-.987-.886-1.677-2.09-1.909-3.452h-1.091c-1.654 0-3-1.346-3-3 0-.714.261-1.362.679-1.877-.02-.042-.045-.081-.065-.123h-29.614c-1.654 0-3 1.346-3 3zm44 43h-30c-.551 0-1 .449-1 1v2c0 .551.449 1 1 1h30c.551 0 1-.449 1-1v-2c0-.551-.449-1-1-1zm-8.963-6h-12.074c-.114 1.464-.634 2.845-1.492 4h15.06c-.859-1.155-1.379-2.536-1.494-4zm22.963-5v-3h-58v3c0 1.654 1.346 3 3 3h52c1.654 0 3-1.346 3-3zm-50-21.618v-4.764c0-1.444 1.174-2.618 2.618-2.618.404 0 .809.096 1.171.276l4.764 2.382c.892.446 1.447 1.343 1.447 2.342s-.555 1.896-1.448 2.342l-4.763 2.382c-.362.18-.767.276-1.171.276-1.444 0-2.618-1.174-2.618-2.618zm2 0c0 .436.504.749.895.553l4.764-2.382c.21-.106.341-.317.341-.553s-.131-.447-.341-.553l-4.764-2.382c-.086-.043-.182-.065-.277-.065-.341 0-.618.277-.618.618zm-8 3.618v-12c0-1.654 1.346-3 3-3h16c1.654 0 3 1.346 3 3v12c0 1.654-1.346 3-3 3h-16c-1.654 0-3-1.346-3-3zm2 0c0 .551.449 1 1 1h16c.551 0 1-.449 1-1v-12c0-.551-.449-1-1-1h-16c-.551 0-1 .449-1 1zm0 5h-2v2h2zm2 2h18v-2h-18zm18 2h-22v2h22z" fill="url(#SVGID_1_)"/></svg>