<svg id="Layer_5" enable-background="new 0 0 64 64" height="512" viewBox="0 0 64 64" width="512" xmlns="http://www.w3.org/2000/svg" xmlns:xlink="http://www.w3.org/1999/xlink"><linearGradient id="SVGID_1_" gradientUnits="userSpaceOnUse" x1="32" x2="32" y1="63" y2="1"><stop offset="0" stop-color="#9f2fff"/><stop offset="1" stop-color="#0bb1d3"/></linearGradient><path d="m61.503 36.676-10.286-4.676h-18.217v-12c0-2.757-2.243-5-5-5h-1.096c1.461-.571 2.444-1.056 2.543-1.105l.553-.277v-4.618h2c1.654 0 3-1.346 3-3 1.654 0 3 1.346 3 3v3.184c-1.161.414-2 1.514-2 2.816 0 .68.236 1.301.619 1.805-.977.73-1.619 1.885-1.619 3.195v6h8v-6c0-1.31-.642-2.465-1.619-3.195.383-.504.619-1.125.619-1.805 0-1.302-.839-2.402-2-2.816v-3.184c0-2.757-2.243-5-5-5 0-1.654-1.346-3-3-3h-28c-1.654 0-3 1.346-3 3v2c0 1.654 1.346 3 3 3h2v4.618l.553.276c.099.05 1.082.535 2.543 1.106h-1.096c-2.757 0-5 2.243-5 5v38c0 2.757 2.243 5 5 5h20c2.757 0 5-2.243 5-5v-12h18.217l10.287-4.676c.909-.413 1.496-1.325 1.496-2.324s-.587-1.911-1.497-2.324zm-20.503-12.676h-4v-4c0-1.103.897-2 2-2s2 .897 2 2zm-3-9c0-.551.449-1 1-1s1 .449 1 1-.449 1-1 1-1-.449-1-1zm-27 29h-6v-10h6zm2-2h34.5l1.5 2h-36zm34.697-2h-34.697v-2h34.697l1.5 1zm-.197-4h-34.5v-2h36zm-42.5-4v-7h26v7zm10-12v-3h6v3c0 1.654-1.346 3-3 3s-3-1.346-3-3zm16 0v3h-9.026c.635-.838 1.026-1.87 1.026-3v-3h5c1.654 0 3 1.346 3 3zm-28-14v-2c0-.551.449-1 1-1h28c.551 0 1 .449 1 1v2c0 .551-.449 1-1 1h-28c-.551 0-1-.449-1-1zm5 6.365v-3.365h20v3.365c-1.563.711-6.149 2.635-10 2.635s-8.437-1.924-10-2.635zm0 4.635h5v3c0 1.13.391 2.162 1.026 3h-9.026v-3c0-1.654 1.346-3 3-3zm20 44h-20c-1.654 0-3-1.346-3-3v-3h26v3c0 1.654-1.346 3-3 3zm3-8h-26v-7h26zm29.676-13.496-9.359 4.253-1.883-2.511 3.369-2.246-3.369-2.246 1.883-2.511 9.358 4.253c.198.09.325.287.325.504s-.127.414-.324.504zm-41.676-19.504c0 .552-.448 1-1 1s-1-.448-1-1 .448-1 1-1 1 .448 1 1zm8 0c0-.552.448-1 1-1s1 .448 1 1-.448 1-1 1-1-.448-1-1zm-13 37h8v2h-8zm-7 0h2v2h-2zm20 0h2v2h-2z" fill="url(#SVGID_1_)"/></svg>