<svg id="Layer_5" enable-background="new 0 0 64 64" height="512" viewBox="0 0 64 64" width="512" xmlns="http://www.w3.org/2000/svg" xmlns:xlink="http://www.w3.org/1999/xlink"><linearGradient id="SVGID_1_" gradientUnits="userSpaceOnUse" x1="32" x2="32" y1="63" y2="1"><stop offset="0" stop-color="#9f2fff"/><stop offset="1" stop-color="#0bb1d3"/></linearGradient><path d="m5 29h2v2h-2zm4 2h9v-2h-9zm54-3.368v11.868c0 1.93-1.57 3.5-3.5 3.5-.539 0-1.044-.133-1.5-.351v12.351h-2.867c1.153.93 1.867 2.338 1.867 3.883v4.117h-18-2-16-2-18v-4.528c0-1.906 1.059-3.62 2.764-4.472l1.236-.618v-6.382c0-3.309 2.691-6 6-6s6 2.691 6 6v6.382l1.236.618c.799.4 1.45.994 1.922 1.703.583-.704 1.349-1.26 2.26-1.563l2.171-.724-.143-.286c-.945-1.892-1.446-4.012-1.446-6.13 0-3.309 2.691-6 6-6s6 2.691 6 6c0 2.118-.501 4.238-1.447 6.13l-.143.286 2.171.724c.993.331 1.823.954 2.419 1.751.596-.797 1.426-1.42 2.419-1.751l2.171-.724-.143-.286c-.946-1.892-1.447-4.012-1.447-6.13 0-2.215 1.21-4.149 3-5.188v-6.812h-43v-34h49v.009c2.786.048 5.406 1.106 7.43 3.014 2.004.215 3.57 1.916 3.57 3.977v.231c0 1.011-.237 1.994-.679 2.892.418.516.679 1.163.679 1.877 0 1.654-1.346 3-3 3h-1.091c-.232 1.362-.922 2.566-1.909 3.452v1.728l3.242.648c.762.152 1.476.448 2.122.879 1.651 1.102 2.636 2.942 2.636 4.925zm-8.33-4.478-.088.265c-.516 1.544-1.955 2.581-3.582 2.581s-3.066-1.037-3.581-2.581l-.089-.265-3.833.767c-.16.032-.316.074-.471.125l-3.259 1.086-5.021-4.463-2.609 2.61 3.281 2.953c1.686 1.517 4.087 2.112 6.281 1.563l2.012-.503c-.112-.211-.245-.411-.418-.584l1.414-1.415c.834.833 1.293 1.941 1.293 3.121v8.586h10v-3-5.586c0-1.18.459-2.288 1.293-3.122l1.414 1.415c-.456.456-.707 1.062-.707 1.707v5.586 1h3v-7.368c0-1.313-.652-2.532-1.745-3.261-.428-.285-.901-.481-1.405-.582zm-24.022-1.216 2.601-2.601-2.127-1.89c-.324-.289-.74-.447-1.174-.447h-.181c-.974 0-1.767.793-1.767 1.768 0 .5.213.979.585 1.314zm22.352-1.295c-.627.223-1.298.35-2 .35s-1.373-.128-2-.35v1.194l.316.95c.242.725.918 1.213 1.684 1.213s1.442-.488 1.685-1.214l.315-.949zm2-8.693c-1.466-.153-2.844-.712-4-1.622-1.156.91-2.534 1.468-4 1.622v3.043c0 2.206 1.794 4 4 4s4-1.794 4-4zm4 1.05c0-.551-.448-1-1-1h-1v2h1c.552 0 1-.449 1-1zm-2.702-7.288c-1.763-1.763-4.055-2.712-6.493-2.712-1.653 0-3.276.45-4.695 1.301-1.301.781-2.11 2.208-2.11 3.725v.205c0 .636.138 1.256.391 1.832.197-.041.4-.063.609-.063h1v-.007h1.172c1.557 0 3.021-.606 4.121-1.707l.707-.708.707.708c1.101 1.101 2.564 1.707 4.121 1.707h1.172v.007h1c.209 0 .412.022.609.063.253-.576.391-1.196.391-1.832v-.231c0-1.103-.897-2-2-2h-.41zm-11.298 8.288v-2h-1c-.552 0-1 .449-1 1s.448 1 1 1zm-1 19v-3.719l-1.815.454c-.705.176-1.43.265-2.157.265-2.2 0-4.313-.811-5.948-2.283l-6.833-6.149c-.793-.714-1.247-1.734-1.247-2.8 0-2.078 1.69-3.768 3.768-3.768h.181c.925 0 1.813.338 2.503.953l7.781 6.916 2.161-.721c.232-.078.471-.141.711-.188l3.895-.78v-1.728c-.987-.886-1.677-2.09-1.909-3.452h-1.091c-1.654 0-3-1.346-3-3 0-.714.261-1.362.679-1.877-.442-.898-.679-1.881-.679-2.892v-.205c0-1.972.939-3.835 2.483-5.026h-40.483v30zm-1 14c0 1.809.428 3.619 1.236 5.236l.382.764h4.764l.382-.764c.808-1.617 1.236-3.427 1.236-5.236 0-2.206-1.794-4-4-4s-4 1.794-4 4zm-18 0c0 1.809.428 3.619 1.236 5.236l.382.764h4.764l.382-.764c.808-1.617 1.236-3.427 1.236-5.236 0-2.206-1.794-4-4-4s-4 1.794-4 4zm-18 10h8v-10c0-2.206-1.794-4-4-4s-4 1.794-4 4zm12 1.883v-.411c0-1.144-.636-2.172-1.658-2.683l-.342-.171v3.382h-12v-3.382l-.342.171c-1.022.511-1.658 1.54-1.658 2.683v2.528h16zm18 0c0-1.293-.824-2.437-2.052-2.846l-3.111-1.037h-5.675l-3.111 1.037c-1.227.409-2.051 1.553-2.051 2.846v2.117h16zm18 0c0-1.293-.824-2.437-2.052-2.846l-3.111-1.037h-5.675l-3.111 1.037c-1.227.409-2.051 1.553-2.051 2.846v2.117h16zm1-19.383v-.5h-10v2.09c.326-.055.659-.09 1-.09 3.309 0 6 2.691 6 6 0 2.07-.486 4.14-1.391 6h4.391zm5 0v-2.5h-3v2.5c0 .827.673 1.5 1.5 1.5s1.5-.673 1.5-1.5zm-40-28.5h-2v4h-2v-8h-2v8h-2v-6h-2v6h-2v-4h-2v4h-2v2h18v-2h-2zm-16 10h2v-2h-2zm4 0h10v-2h-10zm12 0h2v-2h-2z" fill="url(#SVGID_1_)"/></svg>