<svg height="25" width="25" class="icon ic-books" xmlns="http://www.w3.org/2000/svg" viewBox="0 0 470 470"><g>	<path d="M415,432.5v-395c0-4.143-3.357-7.5-7.5-7.5s-7.5,3.357-7.5,7.5v395c0,4.143,3.357,7.5,7.5,7.5S415,436.643,415,432.5z"/>	<path d="M377.5,440c4.143,0,7.5-3.357,7.5-7.5v-395c0-4.143-3.357-7.5-7.5-7.5s-7.5,3.357-7.5,7.5v395		C370,436.643,373.357,440,377.5,440z"/>	<path d="M437.5,0h-60c-4.143,0-7.5,3.357-7.5,7.5s3.357,7.5,7.5,7.5H430v440h-75V7.5c0-4.143-3.357-7.5-7.5-7.5h-285		C41.822,0,25,16.822,25,37.5v395c0,20.678,16.822,37.5,37.5,37.5h375c4.143,0,7.5-3.357,7.5-7.5V7.5C445,3.357,441.643,0,437.5,0z		 M40,432.5v-395C40,25.094,50.094,15,62.5,15H125v92.5c0,4.143,3.357,7.5,7.5,7.5s7.5-3.357,7.5-7.5V15h200v440H140V137.5		c0-4.143-3.357-7.5-7.5-7.5s-7.5,3.357-7.5,7.5V455H62.5C50.094,455,40,444.906,40,432.5z"/></g></svg>