<svg id="Capa_1" enable-background="new 0 0 512 512" height="512" viewBox="0 0 512 512" width="512" xmlns="http://www.w3.org/2000/svg"><g><g><path d="m150 151h-90v-75c0-8.284 6.716-15 15-15h60c8.284 0 15 6.716 15 15z" fill="#dfe7f4"/></g><path d="m451 151h-90v-75c0-8.284 6.716-15 15-15h60c8.284 0 15 6.716 15 15z" fill="#c7cfe1"/><path d="m256 151h-226v285c0 8.291 6.709 15 15 15h211 211c8.291 0 15-6.709 15-15v-285z" fill="#ff9f22"/><path d="m482 436v-285h-226v300h211c8.291 0 15-6.709 15-15z" fill="#ff4a4a"/><path d="m497 121h-241-241c-8.291 0-15 6.709-15 15v30c0 8.291 6.709 15 15 15h241 241c8.291 0 15-6.709 15-15v-30c0-8.291-6.709-15-15-15z" fill="#0b799d"/><path d="m512 166v-30c0-8.291-6.709-15-15-15h-241v60h241c8.291 0 15-6.709 15-15z" fill="#07485e"/><path d="m298.759 308.119c-2.739-4.424-7.559-7.119-12.759-7.119h-30-5.728l5.728-11.455 13.418-26.836c3.706-7.412.703-16.421-6.709-20.127-2.17-1.073-4.448-1.426-6.709-1.423-5.493.009-10.783 2.88-13.418 8.132l-30 60c-2.329 4.644-2.08 10.166.659 14.59s7.559 7.119 12.759 7.119h30 5.728l-5.728 11.455-13.418 26.836c-3.706 7.412-.703 16.421 6.709 20.127 2.173 1.08 4.451 1.436 6.709 1.43 5.511-.013 10.8-2.919 13.418-8.139l30-60c2.329-4.644 2.08-10.166-.659-14.59z" fill="#ffda2d"/><g fill="#fdbf00"><path d="m269.418 262.709c3.706-7.412.703-16.421-6.709-20.127-2.17-1.073-4.448-1.426-6.709-1.423v48.386z"/><path d="m269.418 382.709 30-60c2.329-4.644 2.08-10.166-.659-14.59s-7.559-7.119-12.759-7.119h-30v30h5.728l-5.728 11.455v48.393c5.511-.013 10.8-2.919 13.418-8.139z"/></g></g></svg>