<svg id="Capa_1" enable-background="new 0 0 512 512" height="512" viewBox="0 0 512 512" width="512" xmlns="http://www.w3.org/2000/svg"><g><path d="m436 61h-60c-8.291 0-15 6.709-15 15v60h90v-60c0-8.291-6.709-15-15-15z" fill="#07485e"/><path d="m512 136v165l-30 30h-452l-30-30v-165c0-8.401 6.599-15 15-15h81.7l25.8-51.601c2.7-5.099 7.8-8.399 13.5-8.399h120c5.7 0 10.8 3.3 13.5 8.399l25.8 51.601h201.7c8.401 0 15 6.599 15 15z" fill="#ffda2d"/><path d="m512 136v165l-30 30h-286v-270h60c5.7 0 10.8 3.3 13.5 8.399l25.8 51.601h201.7c8.401 0 15 6.599 15 15z" fill="#ff9f22"/><path d="m512 301v135c0 8.399-6.599 15-15 15h-482c-8.401 0-15-6.601-15-15v-135z" fill="#ff9f22"/><path d="m512 301v135c0 8.399-6.599 15-15 15h-301v-150z" fill="#ff4a4a"/><path d="m436 271h-90c-8.291 0-15-6.709-15-15v-60c0-8.291 6.709-15 15-15h90c8.291 0 15 6.709 15 15v60c0 8.291-6.709 15-15 15z" fill="#dfe7f4"/><circle cx="196" cy="286" fill="#0b799d" r="105"/><path d="m301 286c0-57.99-47.01-105-105-105v210c57.99 0 105-47.01 105-105z" fill="#07485e"/><g><circle cx="196" cy="286" fill="#76e2f8" r="75"/><path d="m271 286c0-41.422-33.578-75-75-75v150c41.422 0 75-33.58 75-75z" fill="#4bb9ec"/><circle cx="196" cy="286" fill="#f0f7ff" r="15"/><path d="m211 286c0-8.284-6.716-15-15-15v30c8.284 0 15-6.716 15-15z" fill="#dfe7f4"/></g></g></svg>