<svg id="Capa_1" enable-background="new 0 0 512 512" height="512" viewBox="0 0 512 512" width="512" xmlns="http://www.w3.org/2000/svg"><g><path d="m135 301h-45v-60l-30-30v105c0 8.291 6.709 15 15 15h60c8.291 0 15-6.709 15-15s-6.709-15-15-15z" fill="#0b799d"/><path d="m75 331h60c8.291 0 15-6.709 15-15h-90c0 8.291 6.709 15 15 15z" fill="#07485e"/><path d="m497 211h-76l-30 30h106c8.291 0 15-6.709 15-15s-6.709-15-15-15z" fill="#f0f7ff"/><path d="m497 271h-91v45 75h91c8.291 0 15-6.709 15-15v-60-30c0-8.291-6.709-15-15-15z" fill="#0b799d"/><path d="m497 391c8.291 0 15-6.709 15-15v-60h-106v75z" fill="#07485e"/><path d="m135 211c-8.284 0-15 6.714-15 15v90 90c0 8.284 6.716 15 15 15h271c8.284 0 15-6.716 15-15v-90-105z" fill="#f0f7ff"/><path d="m135 421h271c8.284 0 15-6.716 15-15v-90h-301v90c0 8.284 6.716 15 15 15z" fill="#dfe7f4"/><circle cx="346" cy="286" fill="#ff9f22" r="15"/><circle cx="286" cy="286" fill="#76e2f8" r="15"/><path d="m90 241v-75c0-8.291-6.709-15-15-15h-60v90z" fill="#dfe7f4"/><path d="m15 331c-8.291 0-15-6.709-15-15v-210c0-8.291 6.709-15 15-15s15 6.709 15 15v210c0 8.291-6.709 15-15 15z" fill="#0b799d"/></g></svg>