<svg id="Capa_1" enable-background="new 0 0 512 512" height="512" viewBox="0 0 512 512" width="512" xmlns="http://www.w3.org/2000/svg"><g><path d="m256 30h-226v361h226 226v-361z" fill="#0b799d"/><path d="m256 30h226v361h-226z" fill="#07485e"/><path d="m452 30h-196-196v90l30 15-30 15v271h196 196v-271l-31-15 31-15z" fill="#f0f7ff"/><path d="m452 150-31-15 31-15v-90h-196v391h196z" fill="#dfe7f4"/><path d="m256 120h-196v30h196 196v-30z" fill="#07485e"/><path d="m256 120h196v30h-196z" fill="#03232e"/><path d="m497 361h-241-241c-8.291 0-15 6.709-15 15v121c0 8.291 6.709 15 15 15h241 241c8.291 0 15-6.709 15-15v-121c0-8.291-6.709-15-15-15z" fill="#ff9f22"/><path d="m512 497v-121c0-8.291-6.709-15-15-15h-241v151h241c8.291 0 15-6.709 15-15z" fill="#ff4a4a"/><circle cx="346" cy="436" fill="#dfe7f4" r="15"/><circle cx="406" cy="436" fill="#dfe7f4" r="15"/><path d="m196 451h-91c-8.291 0-15-6.709-15-15s6.709-15 15-15h91c8.291 0 15 6.709 15 15s-6.709 15-15 15z" fill="#f0f7ff"/><path d="m256 240c-8.291 0-15 6.709-15 15v30c0 8.291 6.709 15 15 15s15-6.709 15-15v-30c0-8.291-6.709-15-15-15z" fill="#0b799d"/><path d="m271 285v-30c0-8.291-6.709-15-15-15v60c8.291 0 15-6.709 15-15z" fill="#07485e"/><path d="m256 30h-75v165l26.823 30h48.177 52.412l22.588-30v-165z" fill="#0b799d"/><path d="m331 195v-165h-75v195h52.412z" fill="#07485e"/><path d="m497 0h-241-241c-8.291 0-15 6.709-15 15v30c0 8.291 6.709 15 15 15h241 241c8.291 0 15-6.709 15-15v-30c0-8.291-6.709-15-15-15z" fill="#ff9f22"/><path d="m512 45v-30c0-8.291-6.709-15-15-15h-241v60h241c8.291 0 15-6.709 15-15z" fill="#ff4a4a"/><path d="m256 195h-75c.335 1.69.712 3.587 1.582 6.709l30 60c2.549 5.083 7.734 8.291 13.418 8.291h30 30c5.684 0 10.869-3.208 13.418-8.291l30-60c.811-3.001 1.23-5.023 1.582-6.709z" fill="#ff9f22"/><path d="m299.418 261.709 30-60c.811-3.001 1.23-5.023 1.582-6.709h-75v75h30c5.684 0 10.869-3.208 13.418-8.291z" fill="#ff4a4a"/></g></svg>