<svg id="Capa_1" enable-background="new 0 0 512 512" height="512" viewBox="0 0 512 512" width="512" xmlns="http://www.w3.org/2000/svg"><g><path d="m60 211h392v90h-392z" fill="#07485e"/><path d="m256 211h196v90h-196z" fill="#03232e"/><path d="m467 31h-422c-24.901 0-45 20.099-45 45v120c0 24.899 20.099 45 45 45h422c24.901 0 45-20.101 45-45v-120c0-24.901-20.099-45-45-45z" fill="#0b799d"/><path d="m467 271h-422c-24.901 0-45 20.099-45 45v120c0 24.899 20.099 45 45 45h422c24.901 0 45-20.101 45-45v-120c0-24.901-20.099-45-45-45z" fill="#0b799d"/><path d="m512 76v120c0 24.899-20.099 45-45 45h-211v-210h211c24.901 0 45 20.099 45 45z" fill="#07485e"/><path d="m512 316v120c0 24.899-20.099 45-45 45h-211v-210h211c24.901 0 45 20.099 45 45z" fill="#07485e"/><path d="m196 121h-91c-8.291 0-15-6.709-15-15s6.709-15 15-15h91c8.291 0 15 6.709 15 15s-6.709 15-15 15z" fill="#07485e"/><path d="m196 181h-91c-8.291 0-15-6.709-15-15s6.709-15 15-15h91c8.291 0 15 6.709 15 15s-6.709 15-15 15z" fill="#07485e"/><g fill="#4bb9ec"><circle cx="286" cy="106" r="15"/><circle cx="286" cy="166" r="15"/><circle cx="346" cy="166" r="15"/><circle cx="346" cy="106" r="15"/><circle cx="406" cy="106" r="15"/><circle cx="406" cy="166" r="15"/></g><path d="m196 361h-91c-8.291 0-15-6.709-15-15s6.709-15 15-15h91c8.291 0 15 6.709 15 15s-6.709 15-15 15z" fill="#07485e"/><path d="m196 421h-91c-8.291 0-15-6.709-15-15s6.709-15 15-15h91c8.291 0 15 6.709 15 15s-6.709 15-15 15z" fill="#07485e"/><circle cx="286" cy="346" fill="#4bb9ec" r="15"/><circle cx="286" cy="406" fill="#4bb9ec" r="15"/><circle cx="346" cy="406" fill="#4bb9ec" r="15"/><circle cx="346" cy="346" fill="#4bb9ec" r="15"/><circle cx="406" cy="346" fill="#4bb9ec" r="15"/><circle cx="406" cy="406" fill="#4bb9ec" r="15"/></g></svg>