<svg id="Capa_1" enable-background="new 0 0 512 512" height="512" viewBox="0 0 512 512" width="512" xmlns="http://www.w3.org/2000/svg"><g><path d="m466 482h-60c-8.291 0-15-6.709-15-15s6.709-15 15-15h60c8.291 0 15 6.709 15 15s-6.709 15-15 15z" fill="#dfe7f4"/><path d="m466 422h-60c-8.291 0-15-6.709-15-15s6.709-15 15-15h60c8.291 0 15 6.709 15 15s-6.709 15-15 15z" fill="#dfe7f4"/><path d="m286 422h-30-90c-8.276 0-15-6.724-15-15s6.724-15 15-15h60c11.567 0 22.02-4.508 30-11.704 9.139-8.243 15-20.048 15-33.296v-91c0-8.291-6.709-15-15-15s-15 6.709-15 15v91c0 8.276-6.724 15-15 15h-60c-24.814 0-45 20.186-45 45s20.186 45 45 45h90 30c8.291 0 15-6.709 15-15s-6.709-15-15-15z" fill="#0b799d"/><g fill="#07485e"><path d="m271 347v-91c0-8.291-6.709-15-15-15v139.296c9.139-8.244 15-20.048 15-33.296z"/><path d="m301 437c0-8.291-6.709-15-15-15h-30v30h30c8.291 0 15-6.709 15-15z"/><path d="m331 256v61c0 8.291 6.709 15 15 15h60c8.291 0 15-6.709 15-15v-61z"/></g><path d="m91 256v61c0 8.291 6.709 15 15 15h60c8.291 0 15-6.709 15-15v-61z" fill="#0b799d"/><path d="m121 91h-45c-8.291 0-15-6.709-15-15s6.709-15 15-15h45c8.291 0 15 6.709 15 15s-6.709 15-15 15z" fill="#07485e"/><path d="m436 91h-45c-8.291 0-15-6.709-15-15s6.709-15 15-15h45c8.291 0 15 6.709 15 15s-6.709 15-15 15z" fill="#03232e"/><path d="m396.229 34.072c-5.009-20.053-22.968-34.072-43.652-34.072h-96.577-96.577c-20.684 0-38.643 14.019-43.652 34.087l-24.316 98.28h164.545 164.546z" fill="#ff9f22"/><path d="m396.229 34.072c-5.009-20.053-22.968-34.072-43.652-34.072h-96.577v132.367h164.546z" fill="#ff4a4a"/><path d="m367.138 41.353c-1.685-6.68-7.661-11.353-14.561-11.353h-96.577-96.577c-6.899 0-12.876 4.673-14.561 11.367l-24.316 98.266h135.454 135.454z" fill="#f0f7ff"/><path d="m367.138 41.353c-1.685-6.68-7.661-11.353-14.561-11.353h-96.577v109.633h135.454z" fill="#dfe7f4"/><path d="m481 136c0-8.291-6.709-15-15-15h-105l-30 45h-75-75l-30-45h-105c-8.291 0-15 6.709-15 15v45l30 15-30 15v45c0 8.291 6.709 15 15 15h210 210c8.291 0 15-6.709 15-15v-45l-30-15 30-15z" fill="#ff9f22"/><path d="m481 256v-45l-30-15 30-15v-45c0-8.291-6.709-15-15-15h-105l-30 45h-75v105h210c8.291 0 15-6.709 15-15z" fill="#ff4a4a"/><path d="m406 181c-8.291 0-15 6.709-15 15s6.709 15 15 15h75v-30z" fill="#dfe7f4"/><path d="m121 196c0-8.291-6.709-15-15-15h-75v30h75c8.291 0 15-6.709 15-15z" fill="#f0f7ff"/><path d="m406 512h-60c-41.353 0-75-33.647-75-75s33.647-75 75-75h60c8.291 0 15 6.709 15 15v120c0 8.291-6.709 15-15 15z" fill="#4bb9ec"/><circle cx="346" cy="437" fill="#07485e" r="15"/><path d="m256 121h-105v75c0 8.291 6.709 15 15 15h90 90c8.291 0 15-6.709 15-15v-75z" fill="#ffda2d"/><path d="m361 196v-75h-105v90h90c8.291 0 15-6.709 15-15z" fill="#ff9f22"/></g></svg>