<svg id="Capa_1" enable-background="new 0 0 512 512" height="512" viewBox="0 0 512 512" width="512" xmlns="http://www.w3.org/2000/svg"><g><path d="m76 212h150c11.567 0 22.02-4.508 30-11.704 9.139-8.243 15-20.048 15-33.296v-30c0-8.291-6.709-15-15-15s-15 6.709-15 15v30c0 8.276-6.724 15-15 15h-150c-24.814 0-45 20.186-45 45s20.186 45 45 45h150c8.276 0 15 6.724 15 15v30c0 8.291 6.709 15 15 15s15-6.709 15-15v-30c0-13.248-5.861-25.052-15-33.296-7.98-7.196-18.433-11.704-30-11.704h-150c-8.276 0-15-6.724-15-15s6.724-15 15-15z" fill="#dfe7f4"/><path d="m271 317v-30c0-13.248-5.861-25.052-15-33.296v78.296c8.291 0 15-6.709 15-15z" fill="#c7cfe1"/><path d="m271 167v-30c0-8.291-6.709-15-15-15v78.296c9.139-8.244 15-20.048 15-33.296z" fill="#c7cfe1"/><path d="m466 0h-210-210c-8.291 0-15 6.709-15 15v122c0 8.291 6.709 15 15 15h45l30-46h135 135l30 46h45c8.291 0 15-6.709 15-15v-122c0-8.291-6.709-15-15-15z" fill="#0b799d"/><path d="m421 152h45c8.291 0 15-6.709 15-15v-122c0-8.291-6.709-15-15-15h-210v106h135z" fill="#07485e"/><path d="m376 302h-120-120c-57.891 0-105 47.109-105 105s47.109 105 105 105c40.503 0 77.227-23.716 94.497-60h25.503 25.503c17.271 36.284 53.994 60 94.497 60 57.891 0 105-47.109 105-105s-47.109-105-105-105z" fill="#0b799d"/><path d="m376 512c57.891 0 105-47.109 105-105s-47.109-105-105-105h-120v150h25.503c17.27 36.284 53.994 60 94.497 60z" fill="#07485e"/><path d="m166 392h-15v-15c0-8.291-6.709-15-15-15s-15 6.709-15 15v15h-15c-8.291 0-15 6.709-15 15s6.709 15 15 15h15v15c0 8.291 6.709 15 15 15s15-6.709 15-15v-15h15c8.291 0 15-6.709 15-15s-6.709-15-15-15z" fill="#f0f7ff"/><circle cx="226" cy="377" fill="#76e2f8" r="15"/><circle cx="286" cy="377" fill="#ff4a4a" r="15"/><path d="m406 60h-150-150c-8.291 0-15 6.709-15 15v77h165 165v-77c0-8.291-6.709-15-15-15z" fill="#07485e"/><path d="m421 75c0-8.291-6.709-15-15-15h-150v92h165z" fill="#03232e"/><path d="m406 392h-15v-15c0-8.291-6.709-15-15-15s-15 6.709-15 15v15h-15c-8.291 0-15 6.709-15 15s6.709 15 15 15h15v15c0 8.291 6.709 15 15 15s15-6.709 15-15v-15h15c8.291 0 15-6.709 15-15s-6.709-15-15-15z" fill="#dfe7f4"/></g></svg>