<svg id="Capa_1" enable-background="new 0 0 512 512" height="512" viewBox="0 0 512 512" width="512" xmlns="http://www.w3.org/2000/svg"><g><path d="m497 241h-91c-8.291 0-15-6.709-15-15s6.709-15 15-15h91c8.291 0 15 6.709 15 15s-6.709 15-15 15z" fill="#dfe7f4"/><path d="m106 241h-91c-8.291 0-15-6.709-15-15s6.709-15 15-15h91c8.291 0 15 6.709 15 15s-6.709 15-15 15z" fill="#f0f7ff"/><path d="m497 301h-91c-8.291 0-15-6.709-15-15s6.709-15 15-15h91c8.291 0 15 6.709 15 15s-6.709 15-15 15z" fill="#dfe7f4"/><path d="m106 301h-91c-8.291 0-15-6.709-15-15s6.709-15 15-15h91c8.291 0 15 6.709 15 15s-6.709 15-15 15z" fill="#f0f7ff"/><path d="m286 512c-8.291 0-15-6.709-15-15v-91c0-8.291 6.709-15 15-15s15 6.709 15 15v91c0 8.291-6.709 15-15 15z" fill="#dfe7f4"/><path d="m286 121c-8.291 0-15-6.709-15-15v-91c0-8.291 6.709-15 15-15s15 6.709 15 15v91c0 8.291-6.709 15-15 15z" fill="#dfe7f4"/><g fill="#f0f7ff"><path d="m226 512c-8.291 0-15-6.709-15-15v-91c0-8.291 6.709-15 15-15s15 6.709 15 15v91c0 8.291-6.709 15-15 15z"/><path d="m226 121c-8.291 0-15-6.709-15-15v-91c0-8.291 6.709-15 15-15s15 6.709 15 15v91c0 8.291-6.709 15-15 15z"/><path d="m166 121c-8.291 0-15-6.709-15-15v-45h-45c-8.291 0-15-6.709-15-15v-31c0-8.291 6.709-15 15-15s15 6.709 15 15v16h45c8.291 0 15 6.709 15 15v60c0 8.291-6.709 15-15 15z"/><path d="m106 512c-8.291 0-15-6.709-15-15v-31c0-8.291 6.709-15 15-15h45v-45c0-8.291 6.709-15 15-15s15 6.709 15 15v60c0 8.291-6.709 15-15 15h-45v16c0 8.291-6.709 15-15 15z"/></g><path d="m346 121c-8.291 0-15-6.709-15-15v-60c0-8.291 6.709-15 15-15h45v-16c0-8.291 6.709-15 15-15s15 6.709 15 15v31c0 8.291-6.709 15-15 15h-45v45c0 8.291-6.709 15-15 15z" fill="#dfe7f4"/><path d="m466 181h-60c-8.291 0-15-6.709-15-15s6.709-15 15-15h45v-45c0-8.291 6.709-15 15-15h31c8.291 0 15 6.709 15 15s-6.709 15-15 15h-16v45c0 8.291-6.709 15-15 15z" fill="#dfe7f4"/><path d="m106 181h-60c-8.291 0-15-6.709-15-15v-45h-16c-8.291 0-15-6.709-15-15s6.709-15 15-15h31c8.291 0 15 6.709 15 15v45h45c8.291 0 15 6.709 15 15s-6.709 15-15 15z" fill="#f0f7ff"/><path d="m46 421h-31c-8.291 0-15-6.709-15-15s6.709-15 15-15h16v-45c0-8.291 6.709-15 15-15h60c8.291 0 15 6.709 15 15s-6.709 15-15 15h-45v45c0 8.291-6.709 15-15 15z" fill="#f0f7ff"/><path d="m406 512c-8.291 0-15-6.709-15-15v-16h-45c-8.291 0-15-6.709-15-15v-60c0-8.291 6.709-15 15-15s15 6.709 15 15v45h45c8.291 0 15 6.709 15 15v31c0 8.291-6.709 15-15 15z" fill="#dfe7f4"/><path d="m497 421h-31c-8.291 0-15-6.709-15-15v-45h-45c-8.291 0-15-6.709-15-15s6.709-15 15-15h60c8.291 0 15 6.709 15 15v45h16c8.291 0 15 6.709 15 15s-6.709 15-15 15z" fill="#dfe7f4"/><path d="m406 91h-300c-8.401 0-15 6.599-15 15v300c0 8.399 6.599 15 15 15h300c8.401 0 15-6.601 15-15v-300c0-8.401-6.599-15-15-15z" fill="#90e36a"/><path d="m421 106v300c0 8.399-6.599 15-15 15h-150v-330h150c8.401 0 15 6.599 15 15z" fill="#00aa63"/><path d="m346 151h-180c-8.401 0-15 6.599-15 15v180c0 8.399 6.599 15 15 15h180c8.401 0 15-6.601 15-15v-180c0-8.401-6.599-15-15-15z" fill="#0b799d"/><path d="m361 166v180c0 8.399-6.599 15-15 15h-90v-210h90c8.401 0 15 6.599 15 15z" fill="#07485e"/></g></svg>