<svg id="Capa_1" enable-background="new 0 0 512 512" height="512" viewBox="0 0 512 512" width="512" xmlns="http://www.w3.org/2000/svg"><g><path d="m139.779 270h-61.274c-8.291 0-15-6.709-15-15s6.709-15 15-15h61.274c8.291 0 15 6.709 15 15s-6.709 15-15 15z" fill="#dfe7f4"/><path d="m433.495 270h-61.274c-8.291 0-15-6.709-15-15s6.709-15 15-15h61.274c8.291 0 15 6.709 15 15s-6.709 15-15 15z" fill="#c7cfe1"/><path d="m256 391c-8.291 0-15 6.709-15 15v91c0 8.291 6.709 15 15 15s15-6.709 15-15v-91c0-8.291-6.709-15-15-15z" fill="#dfe7f4"/><path d="m271 497v-91c0-8.291-6.709-15-15-15v121c8.291 0 15-6.709 15-15z" fill="#c7cfe1"/><path d="m361 120-30-15 28.484-15c-7.357-50.75-50.729-90-103.484-90s-96.127 39.25-103.484 90l28.484 15-30 15v30l30 15-30 15v45h105 105v-45l-30-15 30-15z" fill="#f0f7ff"/><path d="m361 180-30-15 30-15v-30l-30-15 28.484-15c-7.357-50.75-50.729-90-103.484-90v225h105z" fill="#dfe7f4"/><path d="m286 150c-8.291 0-15 6.709-15 15s6.709 15 15 15h75v-30z" fill="#c7cfe1"/><path d="m241 105c0-8.291-6.709-15-15-15h-73.484c-.716 4.942-1.516 9.864-1.516 15v15h75c8.291 0 15-6.709 15-15z" fill="#dfe7f4"/><path d="m241 165c0-8.291-6.709-15-15-15h-75v30h75c8.291 0 15-6.709 15-15z" fill="#dfe7f4"/><path d="m271 105c0 8.291 6.709 15 15 15h75v-15c0-5.136-.8-10.058-1.516-15h-73.484c-8.291 0-15 6.709-15 15z" fill="#c7cfe1"/><path d="m376 210h-120-120c-8.291 0-15 6.709-15 15 0 74.443 60.557 136 135 136s135-61.557 135-136c0-8.291-6.709-15-15-15z" fill="#0b799d"/><path d="m391 225c0-8.291-6.709-15-15-15h-120v151c74.443 0 135-61.557 135-136z" fill="#07485e"/><path d="m346 482h-90-90c-8.291 0-15 6.709-15 15s6.709 15 15 15h90 90c8.291 0 15-6.709 15-15s-6.709-15-15-15z" fill="#0b799d"/><path d="m361 497c0-8.291-6.709-15-15-15h-90v30h90c8.291 0 15-6.709 15-15z" fill="#07485e"/><path d="m436 210c-8.291 0-15 6.709-15 15 0 90.981-74.019 166-165 166s-165-75.019-165-166c0-8.291-6.709-15-15-15s-15 6.709-15 15c0 107.52 87.48 196 195 196s195-88.48 195-196c0-8.291-6.709-15-15-15z" fill="#dfe7f4"/><path d="m451 225c0-8.291-6.709-15-15-15s-15 6.709-15 15c0 90.981-74.019 166-165 166v30c107.52 0 195-88.48 195-196z" fill="#c7cfe1"/></g></svg>