<svg id="Capa_1" enable-background="new 0 0 512.004 512.004" height="512" viewBox="0 0 512.004 512.004" width="512" xmlns="http://www.w3.org/2000/svg"><g><g><g id="Nano_robot"><g><path d="m159.294 333.588-60 30c-5.082 2.541-8.292 7.735-8.292 13.417v105h-15c-8.284 0-15 6.716-15 15s6.716 15 15 15h30 30c8.284 0 15-6.716 15-15s-6.716-15-15-15h-15v-95.729l51.708-25.854c7.41-3.705 10.413-12.715 6.708-20.125-3.704-7.41-12.714-10.415-20.124-6.709z" fill="#dfe7f4"/><path d="m436.002 482.004h-15v-105c0-5.682-3.21-10.875-8.292-13.417l-60-30c-7.409-3.705-16.42-.702-20.124 6.708-3.705 7.41-.702 16.419 6.708 20.125l51.708 25.854v95.729h-15c-8.284 0-15 6.716-15 15s6.716 15 15 15h30 30c8.284 0 15-6.716 15-15s-6.716-14.999-15-14.999z" fill="#c7cfe1"/><path d="m286.002 482.004h-15v-135c0-8.284-6.716-15-15-15s-15 6.716-15 15v135h-15c-8.284 0-15 6.716-15 15s6.716 15 15 15h60c8.284 0 15-6.716 15-15s-6.716-15-15-15z" fill="#dfe7f4"/><path d="m286.002 512.004c8.284 0 15-6.716 15-15s-6.716-15-15-15h-15v-135c0-8.284-6.716-15-15-15v180z" fill="#c7cfe1"/><path d="m166.002 212.04h-75v-75.036c0-8.284-6.716-15-15-15s-15 6.716-15 15v90c0 8.284 6.716 15 15 15h90c8.284 0 15-6.716 15-15s-6.716-14.964-15-14.964z" fill="#dfe7f4"/><path d="m436.002 122.004c-8.284 0-15 6.716-15 15v75.036h-75c-8.284 0-15 6.68-15 14.964s6.716 15 15 15h90c8.284 0 15-6.716 15-15v-90c0-8.284-6.716-15-15-15z" fill="#c7cfe1"/></g><g><g><path d="m361.002 287v60c0 8.29-6.72 15-15 15h-180c-8.28 0-15-6.71-15-15v-60l105-45.96z" fill="#ff9f22"/></g></g><g><path d="m346.002 362c8.28 0 15-6.71 15-15v-60l-105-45.96v120.96z" fill="#ff4a4a"/></g></g></g><g><g><path d="m46.002 77c-8.284 0-15-6.716-15-15v-47c0-8.284 6.716-15 15-15s15 6.716 15 15v47c0 8.284-6.716 15-15 15z" fill="#dfe7f4"/></g><g><path d="m106.002 77c-8.284 0-15-6.716-15-15v-47c0-8.284 6.716-15 15-15s15 6.716 15 15v47c0 8.284-6.716 15-15 15z" fill="#dfe7f4"/></g></g><g><g><g><g><path d="m406.002 77c-8.284 0-15-6.716-15-15v-47c0-8.284 6.716-15 15-15s15 6.716 15 15v47c0 8.284-6.716 15-15 15z" fill="#c7cfe1"/></g></g><g><g><path d="m466.002 77c-8.284 0-15-6.716-15-15v-47c0-8.284 6.716-15 15-15s15 6.716 15 15v47c0 8.284-6.716 15-15 15z" fill="#c7cfe1"/></g></g></g></g><g><g><path d="m75.816 152c-11.947-.048-23.174-4.726-31.631-13.184-8.5-8.499-13.183-19.799-13.183-31.816v-44.96h90v44.171c0 24.855-20.332 45.889-45.186 45.789z" fill="#f0f7ff"/></g></g><g><g><path d="m470.238 138.724c-22.392 18.714-49.517 16.629-66.053.092-8.5-8.499-13.183-19.799-13.183-31.816v-44.96h90v53.291c0 7.794-4.783 18.395-10.764 23.393z" fill="#dfe7f4"/></g></g><path d="m361.002 167v120h-210v-120c0-57.89 47.1-105 105-105s105 47.11 105 105z" fill="#f0f7ff"/><path d="m361.002 287v-120c0-57.89-47.1-105-105-105v225z" fill="#dfe7f4"/><g><path d="m256.002 212.004c-24.813 0-45-20.187-45-45s20.187-45 45-45 45 20.187 45 45-20.186 45-45 45z" fill="#76e2f8"/></g><path d="m301.002 167.004c0-24.813-20.187-45-45-45v90c24.814 0 45-20.187 45-45z" fill="#4bb9ec"/></g></svg>