<svg id="Capa_1" enable-background="new 0 0 512 512" height="512" viewBox="0 0 512 512" width="512" xmlns="http://www.w3.org/2000/svg"><g><path d="m346 0h-45l-15 30-15-30h-15-15l-15 30-15-30h-45c-8.291 0-15 6.709-15 15v121h105 105v-121c0-8.291-6.709-15-15-15z" fill="#f0f7ff"/><path d="m361 15c0-8.291-6.709-15-15-15h-45l-15 30-15-30h-15v136h105z" fill="#dfe7f4"/><path d="m376 121h-120-120c-8.291 0-15 6.709-15 15v271c0 24.814 20.186 45 45 45h90 90c24.814 0 45-20.186 45-45v-271c0-8.291-6.709-15-15-15z" fill="#ff9f22"/><path d="m391 407v-271c0-8.291-6.709-15-15-15h-120v331h90c24.814 0 45-20.186 45-45z" fill="#ff4a4a"/><path d="m226 91c8.291 0 15-6.709 15-15v-76h-30v76c0 8.291 6.709 15 15 15z" fill="#dfe7f4"/><path d="m286 91c8.291 0 15-6.709 15-15v-76h-30v76c0 8.291 6.709 15 15 15z" fill="#c7cfe1"/><path d="m256 302c-41.353 0-75 33.647-75 75v120c0 8.291 6.709 15 15 15h60 60c8.291 0 15-6.709 15-15v-120c0-41.353-33.647-75-75-75z" fill="#0b799d"/><path d="m331 497v-120c0-41.353-33.647-75-75-75v210h60c8.291 0 15-6.709 15-15z" fill="#07485e"/><circle cx="256" cy="377" fill="#f0f7ff" r="15"/><path d="m271 377c0-8.284-6.716-15-15-15v30c8.284 0 15-6.716 15-15z" fill="#dfe7f4"/></g></svg>