<svg id="Capa_1" enable-background="new 0 0 512 512" height="512" viewBox="0 0 512 512" width="512" xmlns="http://www.w3.org/2000/svg"><g><path d="m421 31v120h-331v-120c0-8.401 6.599-15 15-15h301c8.401 0 15 6.599 15 15z" fill="#dfe7f4"/><path d="m421 151h-165v-135h150c8.401 0 15 6.599 15 15z" fill="#c7cfe1"/><path d="m512 181v15l-42.299 30h-430.401l-39.3-30v-15c0-24.901 20.099-45 45-45h422c24.901 0 45 20.099 45 45z" fill="#0b799d"/><path d="m512 181v15l-42.299 30h-213.701v-90h211c24.901 0 45 20.099 45 45z" fill="#07485e"/><path d="m512 196v135c0 24.899-20.099 45-45 45h-422c-24.901 0-45-20.101-45-45v-135z" fill="#76e2f8"/><path d="m512 196v135c0 24.899-20.099 45-45 45h-211v-180z" fill="#4bb9ec"/><path d="m406 286h-301c-8.401 0-15 6.599-15 15v180c0 8.399 6.599 15 15 15h301c8.401 0 15-6.601 15-15v-180c0-8.401-6.599-15-15-15z" fill="#f0f7ff"/><g fill="#dfe7f4"><path d="m421 301v180c0 8.399-6.599 15-15 15h-150v-210h150c8.401 0 15 6.599 15 15z"/><path d="m331 361c0 8.399-6.599 15-15 15h-121c-8.401 0-15-6.601-15-15 0-8.401 6.599-15 15-15h121c8.401 0 15 6.599 15 15z"/><path d="m331 421c0 8.399-6.599 15-15 15h-121c-8.401 0-15-6.601-15-15 0-8.401 6.599-15 15-15h121c8.401 0 15 6.599 15 15z"/></g><path d="m331 421c0 8.399-6.599 15-15 15h-60v-30h60c8.401 0 15 6.599 15 15z" fill="#c7cfe1"/><path d="m316 376h-60v-30h60c8.401 0 15 6.599 15 15 0 8.399-6.599 15-15 15z" fill="#c7cfe1"/></g></svg>