<svg id="Capa_1" enable-background="new 0 0 512 512" height="512" viewBox="0 0 512 512" width="512" xmlns="http://www.w3.org/2000/svg"><g><path d="m76 210c-8.291 0-15-6.709-15-15v-180c0-8.291 6.709-15 15-15s15 6.709 15 15v180c0 8.291-6.709 15-15 15z" fill="#dfe7f4"/><path d="m451 135v60c0 8.399-6.599 15-15 15s-15-6.601-15-15v-60c0-8.401-6.599-15-15-15h-240c-8.401 0-15 6.599-15 15v60c0 8.399-6.599 15-15 15s-15-6.601-15-15v-60c0-24.901 20.099-45 45-45h240c24.901 0 45 20.099 45 45z" fill="#0b799d"/><path d="m451 135v60c0 8.399-6.599 15-15 15s-15-6.601-15-15v-60c0-8.401-6.599-15-15-15h-90v-30h90c24.901 0 45 20.099 45 45z" fill="#07485e"/><path d="m497 180h-482c-8.401 0-15 6.599-15 15v302c0 8.399 6.599 15 15 15h482c8.401 0 15-6.601 15-15v-302c0-8.401-6.599-15-15-15z" fill="#ff9f22"/><path d="m512 195v302c0 8.399-6.599 15-15 15h-181v-332h181c8.401 0 15 6.599 15 15z" fill="#ff4a4a"/><path d="m136 451c-24.814 0-45-20.186-45-45s20.186-45 45-45 45 20.186 45 45-20.186 45-45 45z" fill="#f0f7ff"/><path d="m136 331c-24.814 0-45-20.186-45-45s20.186-45 45-45 45 20.186 45 45-20.186 45-45 45z" fill="#f0f7ff"/><g fill="#ff4a4a"><path d="m391 256c0 8.399-6.599 15-15 15h-120c-8.401 0-15-6.601-15-15 0-8.401 6.599-15 15-15h120c8.401 0 15 6.599 15 15z"/><path d="m421 316c0 8.399-6.599 15-15 15h-180c-8.401 0-15-6.601-15-15 0-8.401 6.599-15 15-15h180c8.401 0 15 6.599 15 15z"/><path d="m421 376c0 8.399-6.599 15-15 15h-180c-8.401 0-15-6.601-15-15 0-8.401 6.599-15 15-15h180c8.401 0 15 6.599 15 15z"/><path d="m391 436c0 8.399-6.599 15-15 15h-120c-8.401 0-15-6.601-15-15 0-8.401 6.599-15 15-15h120c8.401 0 15 6.599 15 15z"/></g><path d="m391 436c0 8.399-6.599 15-15 15h-60v-30h60c8.401 0 15 6.599 15 15z" fill="#d10050"/><path d="m376 271h-60v-30h60c8.401 0 15 6.599 15 15 0 8.399-6.599 15-15 15z" fill="#d10050"/><path d="m421 376c0 8.399-6.599 15-15 15h-90v-30h90c8.401 0 15 6.599 15 15z" fill="#d10050"/><path d="m406 331h-90v-30h90c8.401 0 15 6.599 15 15 0 8.399-6.599 15-15 15z" fill="#d10050"/></g></svg>