<svg id="Capa_1" enable-background="new 0 0 512 512" height="512" viewBox="0 0 512 512" width="512" xmlns="http://www.w3.org/2000/svg"><g><path d="m497 211c8.291 0 15-6.709 15-15v-60c0-8.291-6.709-15-15-15h-241-241c-8.291 0-15 6.709-15 15v60c0 8.291 6.709 15 15 15h15v30h-15c-8.291 0-15 6.709-15 15v120c0 8.291 6.709 15 15 15h46l15-30 15 30h45c8.291 0 15-6.709 15-15v-45h30v45c0 8.291 6.709 15 15 15h45l15-30 15 30h30l15-30 15 30h30l15-30 15 30h30l15-30 15 30h46c8.291 0 15-6.709 15-15v-120c0-8.291-6.709-15-15-15h-15v-30z" fill="#90e36a"/><path d="m301 391 15-30 15 30h30l15-30 15 30h30l15-30 15 30h46c8.291 0 15-6.709 15-15v-120c0-8.291-6.709-15-15-15h-15v-30h15c8.291 0 15-6.709 15-15v-60c0-8.291-6.709-15-15-15h-241v240l15 30z" fill="#00aa63"/><path d="m76 301c-8.291 0-15 6.709-15 15v75h30v-75c0-8.291-6.709-15-15-15z" fill="#ffda2d"/><g fill="#fdbf00"><path d="m316 301c-8.291 0-15 6.709-15 15v75h30v-75c0-8.291-6.709-15-15-15z"/><path d="m376 301c-8.291 0-15 6.709-15 15v75h30v-75c0-8.291-6.709-15-15-15z"/><path d="m436 301c-8.291 0-15 6.709-15 15v75h30v-75c0-8.291-6.709-15-15-15z"/></g><path d="m166 271h-60c-8.291 0-15-6.709-15-15v-60c0-8.291 6.709-15 15-15h60c8.291 0 15 6.709 15 15v60c0 8.291-6.709 15-15 15z" fill="#0b799d"/><path d="m406 271h-60c-8.291 0-15-6.709-15-15v-60c0-8.291 6.709-15 15-15h60c8.291 0 15 6.709 15 15v60c0 8.291-6.709 15-15 15z" fill="#07485e"/><g><path d="m256 301c-8.291 0-15 6.709-15 15v75h15 15v-75c0-8.291-6.709-15-15-15z" fill="#ffda2d"/><path d="m271 316c0-8.291-6.709-15-15-15v90h15z" fill="#fdbf00"/><path d="m286 181h-30-30c-8.291 0-15 6.709-15 15v60c0 8.291 6.709 15 15 15h30 30c8.291 0 15-6.709 15-15v-60c0-8.291-6.709-15-15-15z" fill="#0b799d"/><path d="m301 256v-60c0-8.291-6.709-15-15-15h-30v90h30c8.291 0 15-6.709 15-15z" fill="#07485e"/></g></g></svg>