<svg id="Capa_1" enable-background="new 0 0 512 512" height="512" viewBox="0 0 512 512" width="512" xmlns="http://www.w3.org/2000/svg"><g><path d="m421 211v30h15c8.401 0 15 6.599 15 15v241c0 8.399-6.599 15-15 15h-45l-30-15h-210l-30 15h-45c-8.401 0-15-6.601-15-15v-241c0-8.401 6.599-15 15-15h15v-30h-15c-8.401 0-15-6.601-15-15v-91c0-3.9 1.5-7.8 4.501-10.501l90-90c2.699-2.999 6.599-4.499 10.499-4.499h270c8.401 0 15 6.599 15 15v181c0 8.399-6.599 15-15 15z" fill="#0b799d"/><path d="m421 211v30h15c8.401 0 15 6.599 15 15v241c0 8.399-6.599 15-15 15h-45l-30-15h-105v-497h180c8.401 0 15 6.599 15 15v181c0 8.399-6.599 15-15 15z" fill="#07485e"/><path d="m391 316v196h-270v-196c0-8.401 6.599-15 15-15h240c8.401 0 15 6.599 15 15z" fill="#ff9f22"/><path d="m391 316v196h-135v-211h120c8.401 0 15 6.599 15 15z" fill="#ff4a4a"/><path d="m376 151c-8.291 0-15-6.709-15-15v-61c0-8.291 6.709-15 15-15s15 6.709 15 15v61c0 8.291-6.709 15-15 15z" fill="#ff9f22"/><path d="m316 151c-8.291 0-15-6.709-15-15v-61c0-8.291 6.709-15 15-15s15 6.709 15 15v61c0 8.291-6.709 15-15 15z" fill="#ff9f22"/><path d="m271 75v61c0 8.399-6.599 15-15 15s-15-6.601-15-15v-61c0-8.401 6.599-15 15-15s15 6.599 15 15z" fill="#ffda2d"/><path d="m196 151c-8.291 0-15-6.709-15-15v-61c0-8.291 6.709-15 15-15s15 6.709 15 15v61c0 8.291-6.709 15-15 15z" fill="#ffda2d"/><path d="m331 376c0 8.399-6.599 15-15 15h-120c-8.401 0-15-6.601-15-15 0-8.401 6.599-15 15-15h120c8.401 0 15 6.599 15 15z" fill="#ff4a4a"/><path d="m331 436c0 8.399-6.599 15-15 15h-120c-8.401 0-15-6.601-15-15 0-8.401 6.599-15 15-15h120c8.401 0 15 6.599 15 15z" fill="#ff4a4a"/><path d="m256 151v-91c8.401 0 15 6.599 15 15v61c0 8.399-6.599 15-15 15z" fill="#ff9f22"/><g fill="#d10050"><path d="m331 436c0 8.399-6.599 15-15 15h-60v-30h60c8.401 0 15 6.599 15 15z"/><path d="m316 391h-60v-30h60c8.401 0 15 6.599 15 15 0 8.399-6.599 15-15 15z"/></g></g></svg>