<svg id="Capa_1" enable-background="new 0 0 512 512" height="512" viewBox="0 0 512 512" width="512" xmlns="http://www.w3.org/2000/svg"><g><path d="m391 301h-30c-8.291 0-15-6.709-15-15s6.709-15 15-15h30c8.291 0 15 6.709 15 15s-6.709 15-15 15z" fill="#07485e"/><path d="m391 241h-30c-8.291 0-15-6.709-15-15s6.709-15 15-15h30c8.291 0 15 6.709 15 15s-6.709 15-15 15z" fill="#07485e"/><path d="m345.399 132.4h-208.798l30-121c1.499-6.601 7.5-11.4 14.399-11.4h120c6.899 0 12.9 4.799 14.399 11.4z" fill="#4bb9ec"/><path d="m345.399 379.6-30 121c-1.5 6.599-7.5 11.4-14.399 11.4h-120c-6.899 0-12.9-4.801-14.399-11.4l-30-121z" fill="#4bb9ec"/><path d="m241 379.6h104.399l-30 121c-1.5 6.599-7.5 11.4-14.399 11.4h-60z" fill="#0095ff"/><path d="m345.399 132.4h-104.399v-132.4h60c6.899 0 12.9 4.799 14.399 11.4z" fill="#0095ff"/><path d="m361 121h-240c-8.401 0-15 6.599-15 15v240c0 8.399 6.599 15 15 15h240c8.401 0 15-6.601 15-15v-240c0-8.401-6.599-15-15-15z" fill="#0b799d"/><path d="m376 136v240c0 8.399-6.599 15-15 15h-120v-270h120c8.401 0 15 6.599 15 15z" fill="#07485e"/><path d="m136 151h210v210h-210z" fill="#76e2f8"/><path d="m241 151h105v210h-105z" fill="#4bb9ec"/><g fill="#f0f7ff"><circle cx="181" cy="196" r="15"/><circle cx="181" cy="256" r="15"/><circle cx="181" cy="316" r="15"/><circle cx="241" cy="256" r="15"/><circle cx="241" cy="196" r="15"/></g><circle cx="301" cy="196" fill="#dfe7f4" r="15"/><circle cx="301" cy="256" fill="#dfe7f4" r="15"/><circle cx="301" cy="316" fill="#dfe7f4" r="15"/><circle cx="241" cy="316" fill="#f0f7ff" r="15"/><path d="m241 331v-30c8.401 0 15 6.599 15 15 0 8.399-6.599 15-15 15z" fill="#dfe7f4"/><path d="m241 271v-30c8.401 0 15 6.599 15 15 0 8.399-6.599 15-15 15z" fill="#dfe7f4"/><path d="m241 211v-30c8.401 0 15 6.599 15 15 0 8.399-6.599 15-15 15z" fill="#dfe7f4"/></g></svg>