<svg id="Capa_1" enable-background="new 0 0 512.007 512.007" height="512" viewBox="0 0 512.007 512.007" width="512" xmlns="http://www.w3.org/2000/svg"><g><path d="m256.004 19.807-196 171.7v305.5h196 196v-305.5z" fill="#f0f7ff"/><path d="m452.004 191.507-196-171.7v477.2h196z" fill="#dfe7f4"/><path d="m316.004 451.007c-8.291 0-15-6.709-15-15v-30c0-8.291 6.709-15 15-15s15 6.709 15 15v30c0 8.291-6.709 15-15 15z" fill="#07485e"/><path d="m316.004 241.007c-8.291 0-15-6.709-15-15v-30c0-8.291 6.709-15 15-15s15 6.709 15 15v30c0 8.291-6.709 15-15 15z" fill="#07485e"/><path d="m196.004 451.007c-8.291 0-15-6.709-15-15v-30c0-8.291 6.709-15 15-15s15 6.709 15 15v30c0 8.291-6.709 15-15 15z" fill="#0b799d"/><path d="m166.004 391.007h-30c-8.291 0-15-6.709-15-15s6.709-15 15-15h30c8.291 0 15 6.709 15 15s-6.709 15-15 15z" fill="#0b799d"/><path d="m376.004 391.007h-30c-8.291 0-15-6.709-15-15s6.709-15 15-15h30c8.291 0 15 6.709 15 15s-6.709 15-15 15z" fill="#07485e"/><path d="m166.004 331.007h-30c-8.291 0-15-6.709-15-15s6.709-15 15-15h30c8.291 0 15 6.709 15 15s-6.709 15-15 15z" fill="#0b799d"/><path d="m376.004 331.007h-30c-8.291 0-15-6.709-15-15s6.709-15 15-15h30c8.291 0 15 6.709 15 15s-6.709 15-15 15z" fill="#07485e"/><path d="m166.004 271.007h-30c-8.291 0-15-6.709-15-15s6.709-15 15-15h30c8.291 0 15 6.709 15 15s-6.709 15-15 15z" fill="#0b799d"/><path d="m196.004 241.007c-8.291 0-15-6.709-15-15v-30c0-8.291 6.709-15 15-15s15 6.709 15 15v30c0 8.291-6.709 15-15 15z" fill="#0b799d"/><path d="m376.004 271.007h-30c-8.291 0-15-6.709-15-15s6.709-15 15-15h30c8.291 0 15 6.709 15 15s-6.709 15-15 15z" fill="#07485e"/><path d="m506.877 214.713-241-211c-2.827-2.475-6.35-3.713-9.873-3.713s-7.046 1.238-9.873 3.713l-241 211c-6.24 5.464-6.87 14.941-1.421 21.167 5.464 6.226 14.927 6.841 21.167 1.421l231.127-202.357 231.127 202.357c6.194 5.427 15.685 4.845 21.167-1.421 5.449-6.225 4.819-15.703-1.421-21.167z" fill="#ff9f22"/><path d="m508.298 235.88c5.449-6.226 4.819-15.703-1.421-21.167l-241-211c-2.827-2.475-6.35-3.713-9.873-3.713v34.944l231.127 202.357c6.194 5.428 15.684 4.845 21.167-1.421z" fill="#ff4a4a"/><path d="m256.004 391.007c-8.291 0-15 6.709-15 15v30c0 8.291 6.709 15 15 15s15-6.709 15-15v-30c0-8.291-6.709-15-15-15z" fill="#0b799d"/><path d="m271.004 436.007v-30c0-8.291-6.709-15-15-15v60c8.291 0 15-6.709 15-15z" fill="#07485e"/><path d="m256.004 181.007c-8.291 0-15 6.709-15 15v30c0 8.291 6.709 15 15 15s15-6.709 15-15v-30c0-8.291-6.709-15-15-15z" fill="#0b799d"/><path d="m271.004 226.007v-30c0-8.291-6.709-15-15-15v60c8.291 0 15-6.709 15-15z" fill="#07485e"/><path d="m497.004 482.007h-241-241c-8.291 0-15 6.709-15 15s6.709 15 15 15h241 241c8.291 0 15-6.709 15-15s-6.709-15-15-15z" fill="#90e36a"/><path d="m512.004 497.007c0-8.291-6.709-15-15-15h-241v30h241c8.291 0 15-6.709 15-15z" fill="#00aa63"/><path d="m346.004 211.007h-90-90c-8.291 0-15 6.709-15 15v180c0 8.291 6.709 15 15 15h90 90c8.291 0 15-6.709 15-15v-180c0-8.291-6.709-15-15-15z" fill="#90e36a"/><path d="m361.004 406.007v-180c0-8.291-6.709-15-15-15h-90v210h90c8.291 0 15-6.709 15-15z" fill="#00aa63"/><path d="m286.004 271.007h-30-30c-8.291 0-15 6.709-15 15v60c0 8.291 6.709 15 15 15h30 30c8.291 0 15-6.709 15-15v-60c0-8.291-6.709-15-15-15z" fill="#0b799d"/><path d="m301.004 346.007v-60c0-8.291-6.709-15-15-15h-30v90h30c8.291 0 15-6.709 15-15z" fill="#07485e"/></g></svg>