<svg id="Capa_1" enable-background="new 0 0 512 512" height="512" viewBox="0 0 512 512" width="512" xmlns="http://www.w3.org/2000/svg"><g><path d="m392 15v256l-30 30h-212l-30-30v-256c0-8.401 6.599-15 15-15h242c8.401 0 15 6.599 15 15z" fill="#76e2f8"/><path d="m392 15v256l-30 30h-106v-301h121c8.401 0 15 6.599 15 15z" fill="#4bb9ec"/><path d="m392 271v226c0 8.399-6.599 15-15 15h-242c-8.401 0-15-6.601-15-15v-226z" fill="#0b799d"/><g fill="#07485e"><path d="m392 271v226c0 8.399-6.599 15-15 15h-121v-241z"/><circle cx="196" cy="331" r="15"/><circle cx="196" cy="391" r="15"/><circle cx="196" cy="451" r="15"/><circle cx="256" cy="421" r="15"/><circle cx="256" cy="361" r="15"/></g><circle cx="316" cy="331" fill="#03232e" r="15"/><circle cx="316" cy="391" fill="#03232e" r="15"/><circle cx="316" cy="451" fill="#03232e" r="15"/><path d="m413.021 168.032c-4.98-6.621-3.662-16.025 2.959-21.006 3.823-2.885 6.02-7.265 6.02-12.026s-2.183-9.141-6.006-11.997c-6.621-4.966-7.954-14.37-2.988-21.006 4.951-6.606 14.37-7.969 21.006-2.988 11.264 8.452 17.988 21.914 17.988 35.991 0 14.063-6.724 27.524-17.974 35.991-6.677 5.017-16.062 3.608-21.005-2.959z" fill="#fdbf00"/><path d="m77.974 170.991c-11.25-8.467-17.974-21.928-17.974-35.991 0-14.077 6.724-27.539 17.988-35.991 6.65-4.951 16.055-3.618 21.006 2.988 4.966 6.636 3.633 16.04-2.988 21.006-3.823 2.856-6.006 7.236-6.006 11.997s2.197 9.141 6.021 12.026c6.621 4.98 7.939 14.385 2.959 21.006-4.946 6.569-14.332 7.974-21.006 2.959z" fill="#ffda2d"/><path d="m448.997 215.977c-4.98-6.621-3.647-16.025 2.974-20.991 19.087-14.356 30.029-36.226 30.029-59.986s-10.942-45.63-30.029-59.985c-6.621-4.966-7.954-14.37-2.974-20.991 4.966-6.606 14.385-7.969 20.991-2.974 26.704 20.068 42.012 50.669 42.012 83.95s-15.308 63.882-42.012 83.95c-6.563 4.958-15.991 3.693-20.991-2.973z" fill="#fdbf00"/><path d="m42.012 218.95c-26.704-20.068-42.012-50.669-42.012-83.95s15.308-63.882 42.012-83.95c6.621-4.98 16.025-3.633 20.991 2.974 4.98 6.621 3.647 16.025-2.974 20.991-19.087 14.355-30.029 36.225-30.029 59.985s10.942 45.63 30.029 59.985c6.621 4.966 7.954 14.37 2.974 20.991-4.992 6.656-14.416 7.941-20.991 2.974z" fill="#ffda2d"/><g><circle cx="256" cy="135" fill="#0b799d" r="75"/><path d="m331 135c0-41.422-33.578-75-75-75v150c41.422 0 75-33.58 75-75z" fill="#07485e"/><circle cx="256" cy="135" fill="#07485e" r="45"/><path d="m301 135c0-24.814-20.186-45-45-45v90c24.814 0 45-20.186 45-45z" fill="#03232e"/><circle cx="256" cy="135" fill="#0b799d" r="15"/><path d="m271 135c0-8.284-6.716-15-15-15v30c8.284 0 15-6.716 15-15z" fill="#07485e"/></g><path d="m271 421c0 8.399-6.599 15-15 15v-30c8.401 0 15 6.599 15 15z" fill="#03232e"/><path d="m271 361c0 8.399-6.599 15-15 15v-30c8.401 0 15 6.599 15 15z" fill="#03232e"/></g></svg>