<svg id="Capa_1" enable-background="new 0 0 512 512" height="512" viewBox="0 0 512 512" width="512" xmlns="http://www.w3.org/2000/svg"><g><path d="m106 241c-8.291 0-15 6.709-15 15v90c0 8.291 6.709 15 15 15h60v-120z" fill="#0b799d"/><path d="m226 151c-8.291 0-15-6.709-15-15v-121c0-8.291 6.709-15 15-15s15 6.709 15 15v121c0 8.291-6.709 15-15 15z" fill="#dfe7f4"/><path d="m376 121h-90-90c-24.814 0-45 20.186-45 45v301c0 24.814 20.186 45 45 45h90 60c24.814 0 45-20.186 45-45v-117.455l28.418-56.836c1.04-2.08 1.582-4.38 1.582-6.709v-120c0-24.814-20.186-45-45-45z" fill="#ffda2d"/><path d="m391 467v-117.455l28.418-56.836c1.04-2.08 1.582-4.38 1.582-6.709v-120c0-24.814-20.186-45-45-45h-90v391h60c24.814 0 45-20.186 45-45zm15.293-181h-.293z" fill="#ff9f22"/><g fill="#0b799d"><circle cx="226" cy="376" r="15"/><circle cx="226" cy="436" r="15"/><g><path d="m226 211h60 60c8.291 0 15-6.709 15-15s-6.709-15-15-15h-60-60c-8.291 0-15 6.709-15 15s6.709 15 15 15z"/><path d="m346 241h-60-60c-8.291 0-15 6.709-15 15s6.709 15 15 15h60 60c8.291 0 15-6.709 15-15s-6.709-15-15-15z"/></g></g><path d="m361 196c0-8.291-6.709-15-15-15h-60v30h60c8.291 0 15-6.709 15-15z" fill="#07485e"/><path d="m361 256c0-8.291-6.709-15-15-15h-60v30h60c8.291 0 15-6.709 15-15z" fill="#07485e"/></g></svg>