<?xml version="1.0" encoding="utf-8"?>
<!-- Generator: Adobe Illustrator 19.1.0, SVG Export Plug-In . SVG Version: 6.00 Build 0)  -->
<svg version="1.1" id="Layer_1" xmlns="http://www.w3.org/2000/svg" xmlns:xlink="http://www.w3.org/1999/xlink" x="0px" y="0px"
	 viewBox="0 0 64 64" enable-background="new 0 0 64 64" xml:space="preserve">
<g id="Skip-backward">
	<path d="M42.4244003,21.0946999c-0.3496017-0.1660004-0.7657013-0.1112995-1.0644989,0.1368008L31,29.8635006V22
		c0-0.3876991-0.2245998-0.7411995-0.5760994-0.9053001c-0.3487015-0.1639996-0.7646999-0.1112995-1.0645008,0.1368008
		L19.0049,29.8593998V22c0-0.5547009-0.4501991-1.0049-1.0049-1.0049c-0.5545998,0-1.0048008,0.4501991-1.0048008,1.0049v21
		c0,0.5546989,0.450201,1.0049019,1.0048008,1.0049019c0.5547009,0,1.0049-0.4502029,1.0049-1.0049019v-8.8610001
		l10.3544998,8.6296005C29.5429993,42.9208984,29.7705994,43,30,43c0.1445999,0,0.2891006-0.0312004,0.4239006-0.0946999
		C30.7754002,42.7411995,31,42.3876991,31,42v-7.8652l10.3599014,8.6338005C41.5429993,42.9208984,41.7705994,43,42,43
		c0.1441002,0,0.2886009-0.0312004,0.4244003-0.0946999C42.7753983,42.7411995,43,42.3876991,43,42V22
		C43,21.6123009,42.7753983,21.2588005,42.4244003,21.0946999z M29,39.8652l-9.4375-7.8661995L29,24.1348V39.8652z M41,39.8652
		l-9.4375-7.8661995L41,24.1348V39.8652z"/>
	<path d="M32,0C14.3269997,0,0,14.3268995,0,32s14.3269997,32,32,32c17.6730995,0,32-14.3269005,32-32S49.6730995,0,32,0z M32,62
		C15.4580002,62,2,48.542099,2,32C2,15.4580002,15.4580002,2,32,2c16.542099,0,30,13.4580002,30,30C62,48.542099,48.542099,62,32,62
		z"/>
</g>
<g>
</g>
<g>
</g>
<g>
</g>
<g>
</g>
<g>
</g>
<g>
</g>
<g>
</g>
<g>
</g>
<g>
</g>
<g>
</g>
<g>
</g>
<g>
</g>
<g>
</g>
<g>
</g>
<g>
</g>
</svg>
