<?xml version="1.0" encoding="utf-8"?>
<!-- Generator: Adobe Illustrator 19.1.0, SVG Export Plug-In . SVG Version: 6.00 Build 0)  -->
<svg version="1.1" id="Layer_1" xmlns="http://www.w3.org/2000/svg" xmlns:xlink="http://www.w3.org/1999/xlink" x="0px" y="0px"
	 viewBox="0 0 64 64" enable-background="new 0 0 64 64" xml:space="preserve">
<path id="Pin-rotated" d="M54.2244644,13.3899374l-4.0503006-2.3385l-0.0014-0.0012999L35.3172646,2.4729376
	c-0.0005989-0.0002999-0.0013008-0.0002-0.0018997-0.0005999l-4.0499001-2.3382001
	c-0.4775009-0.2764-1.0897999-0.1133-1.3662014,0.3662c-0.2762985,0.4785-0.112299,1.0898001,0.3662014,1.3662l3.3269005,1.9208001
	l-6.1521015,17.0401001c-0.1463985,0.4053001-0.357399,0.7773991-0.6297989,1.1075001l-12.5008001,15.228899l-3.3176003-1.9155006
	c-0.4775-0.2762985-1.0897999-0.1142006-1.3662004,0.3661995c-0.2763996,0.4785995-0.1122999,1.089901,0.3662004,1.3663025
	l4.0503998,2.3384972l6.8686991,3.966301L9.4168644,62.4866371c-0.2832003,0.4736023-0.1289005,1.0879021,0.3446999,1.3721008
	c0.1611996,0.0956993,0.3379002,0.1415977,0.5127001,0.1415977c0.3399,0,0.6718998-0.1737976,0.8593998-0.4862976
	l11.5103006-19.2279015l6.2552986,3.6116028c0.0010014,0.0005989,4.0518017,2.3388977,4.0518017,2.3388977
	c0.1571999,0.0908012,0.3290977,0.1338005,0.4990005,0.1338005c0.3456993,0,0.6816978-0.1786995,0.8671989-0.5
	c0.2764015-0.4785004,0.1123009-1.0898018-0.3661995-1.3661995l-3.3129005-1.9127998l7.0569992-18.4778004
	c0.1319008-0.3437996,0.3174019-0.6602001,0.5527992-0.9424l11.6529999-13.9678001l3.3235016,1.9189997
	c0.157299,0.0908003,0.3291016,0.1337004,0.4990005,0.1337004c0.3457985,0,0.6816978-0.1787004,0.8671989-0.5
	C54.8670654,14.2776375,54.7029648,13.666338,54.2244644,13.3899374z M36.7127647,25.8899384
	c-0.3768997,0.4511986-0.6748009,0.9589996-0.8857002,1.5098l-6.9431,18.1788979l-12.8190002-7.4012985l12.2914009-14.9729004
	c0.4169998-0.5068989,0.7411995-1.0781002,0.9647999-1.6982994l6.0310993-16.7026997l12.790699,7.3849998L36.7127647,25.8899384z"/>
<g>
</g>
<g>
</g>
<g>
</g>
<g>
</g>
<g>
</g>
<g>
</g>
<g>
</g>
<g>
</g>
<g>
</g>
<g>
</g>
<g>
</g>
<g>
</g>
<g>
</g>
<g>
</g>
<g>
</g>
</svg>
