<?xml version="1.0" encoding="utf-8"?>
<!-- Generator: Adobe Illustrator 19.1.0, SVG Export Plug-In . SVG Version: 6.00 Build 0)  -->
<svg version="1.1" id="Layer_1" xmlns="http://www.w3.org/2000/svg" xmlns:xlink="http://www.w3.org/1999/xlink" x="0px" y="0px"
	 viewBox="0 0 64 64" enable-background="new 0 0 64 64" xml:space="preserve">
<g id="Rec">
	<circle cx="44.4173965" cy="16.9990997" r="2.9991"/>
	<path d="M32,0C14.3268995,0,0,14.3268995,0,32s14.3268995,32,32,32c17.6731987,0,32-14.3269005,32-32S49.6731987,0,32,0z M32,62
		C15.4579,62,2,48.542099,2,32C2,15.4580002,15.4579,2,32,2s30,13.4580002,30,30C62,48.542099,48.542099,62,32,62z"/>
	<path d="M32,20c-6.6273994,0-12,5.3726006-12,12c0,6.6274986,5.3726006,12,12,12s12-5.3725014,12-12
		C44,25.3726006,38.6273956,20,32,20z M32,42c-5.5139999,0-10-4.4859009-10-10c0-5.5139999,4.4860001-10,10-10s10,4.4860001,10,10
		C42,37.5140991,37.5139999,42,32,42z"/>
</g>
<g>
</g>
<g>
</g>
<g>
</g>
<g>
</g>
<g>
</g>
<g>
</g>
<g>
</g>
<g>
</g>
<g>
</g>
<g>
</g>
<g>
</g>
<g>
</g>
<g>
</g>
<g>
</g>
<g>
</g>
</svg>
