<?xml version="1.0" encoding="utf-8"?>
<!-- Generator: Adobe Illustrator 19.1.0, SVG Export Plug-In . SVG Version: 6.00 Build 0)  -->
<svg version="1.1" id="Layer_1" xmlns="http://www.w3.org/2000/svg" xmlns:xlink="http://www.w3.org/1999/xlink" x="0px" y="0px"
	 viewBox="0 0 64 64" enable-background="new 0 0 64 64" xml:space="preserve">
<path id="Scissors" d="M52.6288986,53.7900009c-1.1171989-4.1501999-4.1104774-7.0487022-7.0338974-7.0485992
	c-0.3763008,0-0.751503,0.0479965-1.1212006,0.1474991c-1.9318008,0.5200996-3.2761993,2.3335991-3.786499,4.7014008
	l-7.5634003-18.4360008c4.4611969-0.2961998,9.6870995-5.7772007,12.5-13.5782013
	C48.898098,10.4954996,47.6605988,1.7309999,42.8599014,0L31.9731998,30.1921997L21.0865993,0
	c-4.8006992,1.7309999-6.0381765,10.4954996-2.7639999,19.5760994c2.8258228,7.8367004,8.0867004,13.3332024,12.5613003,13.5826988
	L23.3161011,51.605999c-0.5076008-2.3755989-1.8536777-4.1959-3.7898006-4.7170982
	c-0.3698006-0.0995026-0.7450008-0.1474991-1.1212997-0.1474991c-2.9235001,0-5.9167004,2.8983994-7.0339003,7.0485992
	c-1.2608995,4.6842995,0.3458004,9.1893997,3.5888004,10.0624008C15.3297005,63.9519005,15.7049007,64,16.0811005,64
	c2.4517994,0,4.9482002-2.0428009,6.350399-5.1486015c0.0997009-0.0951996,9.5734024-23.0822983,9.5734024-23.0822983
	s9.794899,23.7257004,9.9327965,23.8311005C43.3834229,62.280899,45.6699982,64,47.9188995,64
	c0.3762016,0,0.7514-0.0480995,1.1212006-0.1475983C52.2831001,62.9794006,53.889801,58.4743004,52.6288986,53.7900009z
	 M43.8401985,3.2604001c0.6869011,0.9637001,1.1809006,2.3504999,1.4215012,4.0550995
	c0.4767227,3.3762002-0.0722771,7.4861007-1.5457993,11.5725994c-1.9840012,5.5022011-6.0697021,11.177-9.8834763,12.1275997
	L43.8401985,3.2604001z M20.2306004,18.8880997C18.757,14.8016005,18.2081013,10.6917,18.6847,7.3154998
	c0.2408009-1.7045999,0.7347221-3.0913997,1.4215012-4.0550995l10.0078983,27.7552986
	C26.3003006,30.0650997,22.2145996,24.3903008,20.2306004,18.8880997z M16.0811005,61.9718018
	c-0.2023001,0-0.4020996-0.0262032-0.5939999-0.0778999c-1.2234001-0.3292999-1.8410006-1.5979004-2.1002998-2.3248024
	c-0.5327005-1.4936981-0.5536003-3.4080009-0.0572004-5.2518997c0.934823-3.4724998,3.3146009-5.5475998,5.0754004-5.5475998
	c0.2022991,0,0.4021988,0.0261993,0.594099,0.0778008c1.2234001,0.3292999,1.8409996,1.5979004,2.1002007,2.3247986
	c0.5328007,1.4937019,0.5536003,3.4080009,0.0573006,5.2519989C20.2219009,59.8967018,17.8418999,61.9718018,16.0811005,61.9718018z
	 M50.6132011,59.5690994c-0.2593002,0.726902-0.8767776,1.9955025-2.1002998,2.3248024
	c-0.1919022,0.0516968-0.3917999,0.0778999-0.5940018,0.0778999c-1.7607994,0-4.1407013-2.0750999-5.0754776-5.5477028
	c-0.4963226-1.8438988-0.4755211-3.7581978,0.0572777-5.2518997c0.259201-0.7268982,0.8768005-1.9954987,2.1002998-2.3247986
	c0.1917992-0.0516014,0.3917007-0.0778008,0.5942001-0.0778008c1.7607002,0,4.1404991,2.0750999,5.075222,5.5475998
	C51.1667976,56.1610985,51.1459007,58.0754013,50.6132011,59.5690994z"/>
<g>
</g>
<g>
</g>
<g>
</g>
<g>
</g>
<g>
</g>
<g>
</g>
<g>
</g>
<g>
</g>
<g>
</g>
<g>
</g>
<g>
</g>
<g>
</g>
<g>
</g>
<g>
</g>
<g>
</g>
</svg>
