<?xml version="1.0" encoding="utf-8"?>
<!-- Generator: Adobe Illustrator 19.1.0, SVG Export Plug-In . SVG Version: 6.00 Build 0)  -->
<svg version="1.1" id="Layer_1" xmlns="http://www.w3.org/2000/svg" xmlns:xlink="http://www.w3.org/1999/xlink" x="0px" y="0px"
	 viewBox="0 0 64 64" enable-background="new 0 0 64 64" xml:space="preserve">
<path id="Battery-half-charged" d="M60.125,25.3359509h-1.0879021v-7.4463005c0-2.1436005-1.7372971-3.8867006-3.872097-3.8867006
	H3.8740008c-1.0195,0-2.0174999,0.415-2.7381999,1.1396008c-0.7305,0.7343998-1.1329,1.71-1.1329,2.7470999v28.2207012
	c0,1.0380974,0.4024,2.0136986,1.1319,2.7460976c0.7207,0.7246017,1.7187001,1.1406021,2.7392001,1.1406021h51.2910004
	c2.1348,0,3.872097-1.7432022,3.872097-3.8866997v-7.4463005H60.125c2.1348,0,3.8721008-1.7441025,3.8721008-3.8877029V29.22365
	C63.9971008,27.0800495,62.2598,25.3359509,60.125,25.3359509z M2.5488007,47.4492493
	c-0.3553777-0.3574982-0.5517-0.8330002-0.5517-1.3388977V17.8896503c0-0.5058994,0.1963223-0.9824009,0.5526999-1.3408012
	c0.3486223-0.3505993,0.8311-0.5517988,1.3242002-0.5517988h17.5233002
	c0.0109997,0.0248995,0.0102997,0.0517988,0.0235996,0.0761995L38.837101,48.0029488H3.8740008
	C3.3809006,48.0029488,2.898423,47.8017502,2.5488007,47.4492493z M62.0028992,34.7763481
	c0,1.0440025-0.842701,1.8936005-1.8778992,1.8936005h-2.0849991c-0.5507011,0-0.9970016,0.4463005-0.9970016,0.9970016v8.4434013
	c0,1.0429993-0.8428001,1.8925972-1.8779984,1.8925972H41.1149979l-17.457798-32.0058975h31.5078011
	c1.0351982,0,1.8779984,0.8495989,1.8779984,1.8926001v8.4433994c0,0.5507011,0.4463005,0.9969997,0.9970016,0.9969997H60.125
	c1.0351982,0,1.8778992,0.8495998,1.8778992,1.8936005V34.7763481z"/>
<g>
</g>
<g>
</g>
<g>
</g>
<g>
</g>
<g>
</g>
<g>
</g>
<g>
</g>
<g>
</g>
<g>
</g>
<g>
</g>
<g>
</g>
<g>
</g>
<g>
</g>
<g>
</g>
<g>
</g>
</svg>
