<?xml version="1.0" encoding="utf-8"?>
<!-- Generator: Adobe Illustrator 19.1.0, SVG Export Plug-In . SVG Version: 6.00 Build 0)  -->
<svg version="1.1" id="Layer_1" xmlns="http://www.w3.org/2000/svg" xmlns:xlink="http://www.w3.org/1999/xlink" x="0px" y="0px"
	 viewBox="0 0 64 64" enable-background="new 0 0 64 64" xml:space="preserve">
<path id="Usb" d="M49.0724831,17.7950001l-4.084198-4.2139997c-0.1931992-0.2000999-0.4477997-0.3180008-0.7410011-0.3081007
	c-0.2793007,0.0040007-0.5447998,0.1219006-0.7329979,0.3269005l-3.8792,4.2140007
	c-0.3794022,0.4130993-0.3536034,1.0539989,0.0584984,1.4333992c0.1950989,0.1802998,0.4417992,0.2684002,0.6874008,0.2684002
	c0.2733994,0,0.5467987-0.1098995,0.7458992-0.3269005l2.2219009-2.4139004v14.9577999
	c0,2.3923016-1.9454994,4.337801-4.3378029,4.337801h-5.5798988V3.6238l2.2397003,2.3109
	c0.1991005,0.2049999,0.4636002,0.3080001,0.7280998,0.3080001c0.2545013,0,0.5091019-0.0950999,0.7061996-0.2862
	c0.4022026-0.3892999,0.4121017-1.0321999,0.021801-1.4344001L33.1569824,0.426
	c-0.0171967-0.0186-0.0332985-0.0362-0.0517998-0.0534l-0.0625-0.0645C32.8485832,0.108,32.5711861,0.0407,32.3017845,0
	c-0.2793999,0.004-0.5438995,0.1219-0.7331009,0.3269l-3.8801003,4.2140002
	c-0.3793983,0.4120998-0.3535995,1.0539999,0.0584011,1.4333997c0.4130993,0.3814001,1.0539989,0.3536,1.4333992-0.0584998
	l2.2219009-2.4131v32.5676994h-6.3388004c-1.1173,0-2.2110004-0.4527016-3.0004997-1.2442017
	c-0.7884998-0.7874985-1.2411995-1.8801003-1.2411995-2.9984989v-0.4807987h1.9342995
	c1.1205006,0,2.0287991-0.9083004,2.0287991-2.0287018v-6.0861988c0-1.1203995-0.9082985-2.0286999-2.0287991-2.0286999h-6.0860996
	c-1.1205006,0-2.028801,0.9083004-2.028801,2.0286999v6.0861988c0,1.1204014,0.9083004,2.0287018,2.028801,2.0287018h2.1231003
	v0.4807987c0,1.6532993,0.6695995,3.2698994,1.8355999,4.4329014c1.1658993,1.1688995,2.7824993,1.8384972,4.4347992,1.8384972
	h6.3388004v11.7805023c-3.4396,0.4934998-6.0860004,3.4437981-6.0860004,7.0199013
	C25.3162842,60.8209991,28.495285,64,32.4167862,64s7.1005974-3.1790009,7.1005974-7.1004982
	c0-3.5762024-2.6465988-6.5266037-6.0862999-7.0199013V38.0990982h5.5798988c3.5107002,0,6.3666-2.8558998,6.3666-6.3664989
	V16.8978004l2.2387009,2.3097992c0.3903008,0.4022007,1.0321999,0.4120998,1.4344025,0.021801
	C49.4527855,18.8400993,49.4626846,18.1972008,49.0724831,17.7950001z M16.6699848,23.2320004h6.0860996v6.0861988h-6.0860996
	V23.2320004z M37.4885826,56.8995018c0,2.7965965-2.2751999,5.0717964-5.0717964,5.0717964
	c-2.7966022,0-5.0718021-2.2751999-5.0718021-5.0717964c0-2.7966003,2.2751999-5.0718002,5.0718021-5.0718002
	C35.2133827,51.8277016,37.4885826,54.1029015,37.4885826,56.8995018z"/>
<g>
</g>
<g>
</g>
<g>
</g>
<g>
</g>
<g>
</g>
<g>
</g>
<g>
</g>
<g>
</g>
<g>
</g>
<g>
</g>
<g>
</g>
<g>
</g>
<g>
</g>
<g>
</g>
<g>
</g>
</svg>
