<?xml version="1.0" encoding="utf-8"?>
<!-- Generator: Adobe Illustrator 19.1.0, SVG Export Plug-In . SVG Version: 6.00 Build 0)  -->
<svg version="1.1" id="Layer_1" xmlns="http://www.w3.org/2000/svg" xmlns:xlink="http://www.w3.org/1999/xlink" x="0px" y="0px"
	 viewBox="0 0 64 64" enable-background="new 0 0 64 64" xml:space="preserve">
<g id="Level">
	<path d="M14,46h10V32H14V46z M16.0112,34.0112h5.9777164V43.9888H16.0112V34.0112z"/>
	<path d="M26,46h10V24H26V46z M28.0214005,26.0214005h5.9571991v17.9571991h-5.9571991V26.0214005z"/>
	<path d="M38,46h10V16H38V46z M40.0262985,18.0263004h5.9475021v25.9475002h-5.9475021V18.0263004z"/>
	<path d="M32,0c-17.6730843,0-32,14.3268995-32,32s14.3269148,32,32,32s32-14.3269005,32-32S49.6730995,0,32,0z M32,62
		c-16.5419998,0-30-13.457901-30-30c0-16.5419998,13.4579992-30,30-30c16.542099,0,30,13.4580002,30,30
		C62,48.542099,48.542099,62,32,62z"/>
</g>
<g>
</g>
<g>
</g>
<g>
</g>
<g>
</g>
<g>
</g>
<g>
</g>
<g>
</g>
<g>
</g>
<g>
</g>
<g>
</g>
<g>
</g>
<g>
</g>
<g>
</g>
<g>
</g>
<g>
</g>
</svg>
