<?xml version="1.0" encoding="utf-8"?>
<!-- Generator: Adobe Illustrator 19.1.0, SVG Export Plug-In . SVG Version: 6.00 Build 0)  -->
<svg version="1.1" id="Layer_1" xmlns="http://www.w3.org/2000/svg" xmlns:xlink="http://www.w3.org/1999/xlink" x="0px" y="0px"
	 viewBox="0 0 64 64" enable-background="new 0 0 64 64" xml:space="preserve">
<path id="Webcam-disabled" d="M57.7358665,0.4478199c-0.3740997-0.4062-1.0058975-0.4331-1.4130974-0.0586L48.0715675,7.98032
	C43.859169,3.31352,37.7668686,0.37512,30.9999676,0.37512c-12.6821003,0-23,10.3177996-23,23
	c0,6.0795002,2.3754997,11.6120014,6.2417002,15.7287006l-7.9189,7.2854004
	c-0.4063001,0.3740005-0.4326,1.0063972-0.0585999,1.4130974c0.1973,0.2144012,0.4663,0.3227997,0.7363,0.3227997
	c0.2416997,0,0.4843998-0.0873985,0.6767998-0.2641983l7.9955001-7.355999
	c1.5681992,1.4048004,3.3288994,2.5976982,5.2381001,3.533699l-6.5201998,13.9053001
	c-0.6128006,1.3065987-0.5044003,2.8081017,0.2889996,4.0166016c0.7862005,1.1987,2.1220999,1.9145966,3.5737009,1.9145966
	h25.4931984c1.4517021,0,2.7876015-0.7158966,3.5732994-1.9140968c0.7939034-1.2089996,0.9023018-2.7105026,0.2895012-4.0171013
	L41.0890694,44.03862c7.6380997-3.7445984,12.9109001-11.5988998,12.9109001-20.6634998
	c0-5.1968002-1.7346001-9.9952002-4.6526031-13.8509007L57.677269,1.86092
	C58.0834694,1.48692,58.1098671,0.85452,57.7358665,0.4478199z M9.9999676,23.3751202c0-11.5796003,9.4204006-21,21-21
	c6.1855984,0,11.7376003,2.7043002,15.5842991,6.9735994l-7.1086998,6.54
	c-2.1725006-2.1698999-5.169899-3.5135994-8.4755993-3.5135994c-6.6166992,0-12,5.3832989-12,12
	c0,2.9471989,1.0725002,5.6455002,2.8418007,7.7364979l-6.1179008,5.6287003
	C12.1857681,33.9800186,9.9999676,28.9334202,9.9999676,23.3751202z M35.7101669,19.3526192
	c-0.3495979-0.5829983-0.9813004-0.977499-1.7101974-0.977499c-1.1040001,0-2.0000019,0.8959007-2.0000019,2
	c0,0.6688995,0.3321018,1.2579994,0.8369007,1.6210003l-5.5230999,5.0812988
	c-0.2352009-0.4811993-0.3250008-0.8612995-0.3348007-0.9074001c-0.1128006-0.5380993-0.6401005-0.8866997-1.1791992-0.7748985
	c-0.5410004,0.1107998-0.8901005,0.6385994-0.7797012,1.1800995c0.1086006,0.532299,0.3579006,1.2164001,0.7737999,1.9006996
	l-2.4825993,2.2838993c-1.4419003-1.7333984-2.3113003-3.9589996-2.3113003-6.3846989c0-5.5142002,4.4859009-10,10-10
	c2.7244015,0,5.1950016,1.0978994,7.0002995,2.8708L35.7101669,19.3526192z M27.0890675,30.0020199
	c0.9346008,0.7922001,2.2122002,1.3731003,3.9109001,1.3731003c0.5522995,0,1-0.4477997,1-1c0-0.5522995-0.4477005-1-1-1
	c-1.0503998,0-1.8346996-0.3143005-2.419899-0.7446995l10.7050991-9.8488998
	c1.0820007,1.5974998,1.7148018,3.5229988,1.7148018,5.5935993c0,5.5140991-4.4858017,9.9999981-10.0000019,9.9999981
	c-2.3684006,0-4.5438995-0.8316002-6.2590008-2.2128983L27.0890675,30.0020199z M45.7988663,58.7935181
	c0.315403,0.6724014,0.2587013,1.4458008-0.1513977,2.0703011c-0.4150009,0.6333008-1.1254997,1.0112991-1.9009018,1.0112991
	H18.2533684c-0.775301,0-1.4857998-0.3779984-1.9013004-1.0117989c-0.4097004-0.6240005-0.4663-1.3973999-0.1508999-2.0698013
	l6.5438995-13.9564972c2.5643005,0.9897003,5.3460007,1.5380974,8.2549,1.5380974c2.9089985,0,5.6906986-0.5483971,8.2549-1.5380974
	L45.7988663,58.7935181z M51.9999695,23.3751202c0,11.5795002-9.4204025,20.9999981-21.0000019,20.9999981
	c-5.3015003,0-10.1359997-1.9902992-13.8353996-5.2424965l6.0924988-5.6052017
	c2.0919018,1.7727013,4.7927017,2.8476982,7.7429008,2.8476982c6.6167011,0,12.0000019-5.3832989,12.0000019-11.9999981
	c0-2.5923004-0.8347015-4.9883003-2.2376022-6.9524002l7.0907021-6.5235004
	C50.4457664,14.3924198,51.9999695,18.7002201,51.9999695,23.3751202z"/>
<g>
</g>
<g>
</g>
<g>
</g>
<g>
</g>
<g>
</g>
<g>
</g>
<g>
</g>
<g>
</g>
<g>
</g>
<g>
</g>
<g>
</g>
<g>
</g>
<g>
</g>
<g>
</g>
<g>
</g>
</svg>
