<svg height="25" width="25" class="icon ic-certificate" xmlns="http://www.w3.org/2000/svg" viewBox="0 -56 480 480"><path d="m472 0h-464c-4.417969 0-8 3.582031-8 8v352c0 4.417969 3.582031 8 8 8h464c4.417969 0 8-3.582031 8-8v-352c0-4.417969-3.582031-8-8-8zm-56 16v145.097656l-25.742188-32.363281c-1.519531-1.902344-3.824218-3.011719-6.257812-3.011719s-4.738281 1.109375-6.257812 3.011719l-25.742188 32.363281v-145.097656zm48 336h-448v-336h320v168c.003906 3.398438 2.15625 6.421875 5.363281 7.542969 3.207031 1.121093 6.773438.089843 8.894531-2.566407l33.742188-42.417968 33.742188 42.402344c1.515624 1.914062 3.816406 3.03125 6.257812 3.039062.898438-.003906 1.789062-.15625 2.640625-.449219 3.210937-1.121093 5.359375-4.148437 5.359375-7.550781v-168h32zm0 0"/><path d="m56 208h208c4.417969 0 8-3.582031 8-8v-144c0-4.417969-3.582031-8-8-8h-208c-4.417969 0-8 3.582031-8 8v144c0 4.417969 3.582031 8 8 8zm8-144h192v128h-192zm0 0"/><path d="m424 240h-368c-4.417969 0-8 3.582031-8 8s3.582031 8 8 8h368c4.417969 0 8-3.582031 8-8s-3.582031-8-8-8zm0 0"/><path d="m424 288h-368c-4.417969 0-8 3.582031-8 8s3.582031 8 8 8h368c4.417969 0 8-3.582031 8-8s-3.582031-8-8-8zm0 0"/></svg>