<svg height="25" width="25" class="icon ic-classroom-3" xmlns="http://www.w3.org/2000/svg" viewBox="0 0 512 512"><g>	<g>		<path d="M362.667,0H64C34.559,0.035,10.702,23.893,10.667,53.333v405.333C10.702,488.107,34.559,511.965,64,512h298.667			c29.441-0.035,53.298-23.893,53.333-53.333V53.333C415.965,23.893,392.107,0.035,362.667,0z M394.667,458.667			c0,17.673-14.327,32-32,32H64c-17.673,0-32-14.327-32-32V53.333c0-17.673,14.327-32,32-32h298.667c17.673,0,32,14.327,32,32			V458.667z"/>	</g></g><g>	<g>		<rect x="21.333" y="64" width="384" height="21.333"/>	</g></g><g>	<g>		<rect x="21.333" y="426.667" width="384" height="21.333"/>	</g></g><g>	<g>		<path d="M352,74.667v240.917L283.584,384H74.667V74.667H53.333V384c0,11.782,9.551,21.333,21.333,21.333H288			c2.829-0.001,5.541-1.125,7.541-3.125l74.667-74.667c2.001-2,3.125-4.713,3.125-7.541V74.667H352z"/>	</g></g><g>	<g>		<path d="M298.667,309.333c-11.782,0-21.333,9.551-21.333,21.333v64h21.333v-64h64v-21.333H298.667z"/>	</g></g><g>	<g>		<rect x="448" y="405.333" width="42.667" height="21.333"/>	</g></g><g>	<g>		<path d="M499.541,58.08l-21.333-32c-0.635-0.849-1.388-1.602-2.236-2.237c-4.901-3.666-11.847-2.665-15.513,2.237l-21.333,32			c-1.165,1.755-1.789,3.814-1.792,5.92v405.333c0,5.891,4.776,10.667,10.667,10.667h42.667c5.891,0,10.667-4.776,10.667-10.667V64			C501.33,61.894,500.707,59.835,499.541,58.08z M480,458.667h-21.333V67.2l10.667-16L480,67.2V458.667z"/>	</g></g><g>	<g>		<path d="M309.333,128h-192c-5.891,0-10.667,4.776-10.667,10.667v64c0,5.891,4.776,10.667,10.667,10.667h192			c5.891,0,10.667-4.776,10.667-10.667v-64C320,132.776,315.224,128,309.333,128z M298.667,192H128v-42.667h170.667V192z"/>	</g></g><g>	<g>		<rect x="106.667" y="234.667" width="21.333" height="21.333"/>	</g></g><g>	<g>		<rect x="149.333" y="234.667" width="21.333" height="21.333"/>	</g></g><g>	<g>		<rect x="192" y="234.667" width="128" height="21.333"/>	</g></g><g>	<g>		<rect x="106.667" y="277.333" width="138.667" height="21.333"/>	</g></g><g>	<g>		<rect x="106.667" y="320" width="96" height="21.333"/>	</g></g><g></g><g></g><g></g><g></g><g></g><g></g><g></g><g></g><g></g><g></g><g></g><g></g><g></g><g></g><g></g></svg>