<svg height="25" width="25" class="icon ic-folder" xmlns="http://www.w3.org/2000/svg" viewBox="0 -17 438.98549 438"><path d="m47.21875 358.5h218c15.566406 17.109375 37.535156 32.582031 66.8125 44.195312.121094.050782.242188.09375.367188.136719 2.964843 1.113281 6.230468 1.113281 9.191406 0 .140625-.046875.277344-.101562.417968-.152343 77.609376-31.445313 103.875-89.160157 95.480469-132.414063l-.011719-.050781c-6.175781-30.617188-28.414062-50.398438-56.648437-50.398438-2.28125.007813-4.5625.144532-6.828125.410156v-77.773437c-.035156-26.070313-21.160156-47.191406-47.230469-47.21875h-2.097656v-1.191406c-.027344-26.066407-21.152344-47.195313-47.222656-47.226563h-75.488281c-.859376 0-1.675782-.359375-2.253907-.996094l-27.386719-29.960937c-8.953124-9.777344-21.601562-15.355469-34.859374-15.367187h-90.242188c-26.066406.03125-47.1875 21.152343-47.21875 47.21875v263.570312c.03125 26.066406 21.152344 47.191406 47.21875 47.21875zm376.53125-85.539062c10.101562 52.109374-36.253906 96.097656-86.753906 116.640624l-.019532-.007812c-70.027343-27.867188-94.015624-78.664062-86.722656-116.691406 4.628906-24.40625 20.980469-39.566406 42.671875-39.566406 12.660157 0 26.078125 5.222656 39.886719 15.527343 2.457031 1.832031 5.820312 1.855469 8.300781.050781 13.609375-9.878906 27.347657-15.097656 39.71875-15.097656 21.589844 0 38.035157 15 42.917969 39.144532zm-96.980469-163.726563c18.34375.019531 33.207031 14.878906 33.230469 33.222656v80.886719c-8.121094 2.742188-15.835938 6.558594-22.941406 11.351562-14.894532-10.191406-29.722656-15.355468-44.132813-15.355468-28.40625 0-50.558593 20-56.425781 50.945312-4.382812 22.832032.707031 49.53125 17.617188 74.21875h-169.140626c8.78125-8.824218 13.707032-20.769531 13.703126-33.21875v-168.832031c.019531-18.339844 14.882812-33.199219 33.21875-33.21875zm-312.769531-61.523437c.023438-18.335938 14.882812-33.195313 33.21875-33.21875h90.242188c9.328124.011718 18.222656 3.933593 24.523437 10.8125l27.375 29.945312c3.234375 3.542969 7.804687 5.5625 12.601563 5.5625h75.488281c18.34375.023438 33.203125 14.886719 33.222656 33.230469v1.1875h-178.773437c-26.066407.03125-47.1875 21.15625-47.21875 47.222656v168.828125c-.023438 18.34375-14.890626 33.203125-33.230469 33.21875h-4.230469c-18.335938-.019531-33.195312-14.878906-33.21875-33.21875zm0 0"/></svg>