<svg class="icon ic-logout" height="25" width="25" xmlns="http://www.w3.org/2000/svg" viewBox="0 0 512 512" ><g id="Outline"><path d="m392 16h-272a104.118 104.118 0 0 0 -104 104v272a104.118 104.118 0 0 0 104 104h272a104.118 104.118 0 0 0 104-104v-272a104.118 104.118 0 0 0 -104-104zm88 376a88.1 88.1 0 0 1 -88 88h-272a88.1 88.1 0 0 1 -88-88v-272a88.1 88.1 0 0 1 88-88h272a88.1 88.1 0 0 1 88 88z"/><path d="m287.948 367.732.041 32.268h-175.989v-288h175.99l-.04 32.269 16 .019.05-40.278a8 8 0 0 0 -8-8.01h-192a8 8 0 0 0 -8 8v304a8 8 0 0 0 8 8h192a8 8 0 0 0 8-8.01l-.052-40.279z"/><path d="m333.657 170.343-11.314 11.314 66.344 66.343h-228.687v16h228.687l-66.344 66.343 11.314 11.314 80-80a8 8 0 0 0 0-11.314z"/></g></svg>