<svg xmlns="http://www.w3.org/2000/svg" viewBox="0 0 1000 1000" width="40" height="40" class="icon ic-play-video"><g><path d="M500.5,990.1c-42.8,0-85.6-5.7-127.3-16.9C247,939.4,141.5,858.2,76,744.8C10.5,631.4-7,499.4,26.8,373.2C60.7,246.9,141.7,141.1,255.1,75.8C329.6,32.7,414,9.9,499.2,9.9c42.8,0,85.7,5.7,127.7,16.9C753,60.6,858.5,141.7,924,255.2c65.6,113.4,83,245.4,49.1,371.6c-12,44.6-30.4,87.8-55.1,128.2c-3.3,5.3-8.8,8.3-14.8,8.3c-3.2,0-6.3-0.9-9.1-2.6c-8.1-5-10.7-15.7-5.7-23.9c22.8-37.4,40.1-77.5,51.2-119.1c31.4-117.4,15.3-240.1-45.5-345.4C833.3,167.2,735.2,91.8,617.8,60.3C578.9,49.9,539,44.7,499.3,44.7c-79.1,0-157.4,21.1-226.8,61.2C167.3,166.7,92,264.9,60.5,382.2C29.1,499.4,45.3,622,106,727.4c60.9,105.4,158.9,180.7,276.1,212.2c38.9,10.4,78.7,15.7,118.2,15.7C583,955.3,664.8,932,737,888c2.7-1.6,5.8-2.6,9.1-2.6c6.1,0,11.7,3.2,14.8,8.3c2.4,3.9,3.1,8.6,2,13.1c-1.1,4.6-3.9,8.3-7.9,10.7C677.7,965,589.6,990.1,500.5,990.1L500.5,990.1z M426.6,360.7c-5.6-3.3-12.1-3.3-17.5,0c-5.5,3.3-8.7,8.8-8.7,15.4V621c0,9.9,7.7,17.5,17.5,17.5c3.3,0,6.5-1.1,8.8-2.2l212.1-122.4c5.5-3.3,8.8-8.8,8.8-15.3c0-6.6-3.3-12.1-8.8-15.4L426.6,360.7L426.6,360.7z"/></g></svg>