<svg height="25" width="25" class="icon ic-podcast" xmlns="http://www.w3.org/2000/svg" viewBox="0 0 515.147 515.147" ><g><path d="m345.574 500.147h-6.276v-7.087c0-11.986-9.751-21.737-21.737-21.737h-36.139v-21.402c31.135-8.438 56.085-33.054 64.182-65.558 1.001-4.02-1.445-8.089-5.465-9.091-4.016-1.002-8.089 1.445-9.09 5.465-8.413 33.775-38.627 57.363-73.475 57.363-41.757 0-75.729-33.972-75.729-75.729v-65.645h151.458v53.895c0 4.142 3.357 7.5 7.5 7.5s7.5-3.358 7.5-7.5v-105.869c0-50.028-40.701-90.729-90.729-90.729s-90.729 40.701-90.729 90.729v117.618c0 41.778 28.385 77.044 66.881 87.543v21.41h-36.138c-11.986 0-21.737 9.751-21.737 21.737v7.087h-3.917c-4.142 0-7.5 3.358-7.5 7.5s3.358 7.5 7.5 7.5h173.64c4.143 0 7.5-3.358 7.5-7.5s-3.358-7.5-7.5-7.5zm-88-331.123c41.758 0 75.729 33.972 75.729 75.729v7.599h-93.359c-4.142 0-7.5 3.358-7.5 7.5s3.358 7.5 7.5 7.5h93.359v14.375h-151.458v-14.375h26.137c4.142 0 7.5-3.358 7.5-7.5s-3.358-7.5-7.5-7.5h-26.137v-7.599c0-41.757 33.971-75.729 75.729-75.729zm-8.848 283.644c2.912.283 5.863.432 8.848.432 2.981 0 5.93-.16 8.848-.443v18.666h-17.695v-18.655zm-57.875 40.393c0-3.715 3.022-6.737 6.737-6.737h119.972c3.715 0 6.737 3.022 6.737 6.737v7.087h-133.446z"/><path d="m234.726 340.158v44.249c0 12.874 10.474 23.348 23.348 23.348s23.348-10.474 23.348-23.348v-44.249c0-12.874-10.474-23.347-23.348-23.347s-23.348 10.474-23.348 23.347zm31.695 0v44.249c0 4.603-3.745 8.348-8.348 8.348s-8.348-3.745-8.348-8.348v-44.249c0-4.603 3.745-8.347 8.348-8.347s8.348 3.745 8.348 8.347z"/><path d="m151.081 145.788c-3.168-2.669-7.899-2.265-10.568.901-23.198 27.525-35.973 62.528-35.973 98.56 0 26.334 6.811 52.315 19.695 75.134 1.378 2.442 3.92 3.814 6.538 3.814 1.249 0 2.516-.313 3.681-.971 3.607-2.037 4.88-6.611 2.843-10.218-11.617-20.574-17.757-44.004-17.757-67.759 0-32.5 11.522-64.069 32.443-88.893 2.669-3.167 2.265-7.898-.902-10.568z"/><path d="m380.695 323.227c1.165.658 2.432.971 3.681.971 2.617 0 5.159-1.373 6.538-3.814 12.884-22.82 19.694-48.801 19.694-75.134 0-84.383-68.65-153.034-153.034-153.034-33.822 0-65.886 10.821-92.725 31.293-3.293 2.512-3.927 7.219-1.415 10.512 2.512 3.294 7.219 3.926 10.512 1.415 24.203-18.461 53.121-28.22 83.627-28.22 76.112 0 138.034 61.922 138.034 138.034 0 23.754-6.14 47.185-17.757 67.759-2.035 3.607-.762 8.181 2.845 10.218z"/><path d="m430.991 71.832c-46.322-46.322-107.908-71.832-173.417-71.832s-127.096 25.51-173.417 71.832c-46.322 46.322-71.832 107.909-71.832 173.418 0 42.141 10.871 83.708 31.438 120.208 19.935 35.376 48.634 65.551 82.997 87.261 1.243.786 2.629 1.161 3.999 1.161 2.487 0 4.921-1.237 6.348-3.495 2.212-3.501 1.167-8.134-2.334-10.346-32.27-20.388-59.221-48.724-77.94-81.944-19.303-34.256-29.506-73.277-29.506-112.844 0-61.502 23.95-119.322 67.438-162.811 43.486-43.49 101.307-67.44 162.809-67.44s119.322 23.95 162.811 67.438 67.438 101.309 67.438 162.811c0 39.566-10.203 78.587-29.507 112.844-18.72 33.22-45.671 61.555-77.939 81.944-3.502 2.212-4.547 6.845-2.335 10.346 2.214 3.502 6.847 4.546 10.347 2.334 34.362-21.71 63.062-51.885 82.996-87.261 20.567-36.5 31.438-78.066 31.438-120.208 0-65.507-25.511-127.095-71.832-173.416z"/></g></svg>