<svg id="Layer_5" enable-background="new 0 0 64 64" height="512" viewBox="0 0 64 64" width="512" xmlns="http://www.w3.org/2000/svg" xmlns:xlink="http://www.w3.org/1999/xlink"><linearGradient id="SVGID_1_" gradientUnits="userSpaceOnUse" x1="32" x2="32" y1="63" y2="1"><stop offset="0" stop-color="#9f2fff"/><stop offset="1" stop-color="#0bb1d3"/></linearGradient><path d="m12 57h8v2h-8zm-7 2h2v-2h-2zm20 0h2v-2h-2zm-3-19.414c.645.645 1 1.502 1 2.414s-.355 1.77-1 2.414l-1.392 1.392c-.759.759-1.809 1.194-2.882 1.194-.629 0-1.259-.149-1.822-.43l-1.104-.552c-4.239-2.12-7.603-5.687-9.47-10.044-.219-.51-.33-1.05-.33-1.605 0-1.167.435-2.218 1.194-2.977l1.392-1.392c1.289-1.29 3.539-1.29 4.828 0l1.763 1.763c.531.53.823 1.236.823 1.987v.132c0 1.07-.595 2.033-1.553 2.512-.276.138-.447.416-.447.724v.132c0 .216.084.419.237.572l.94.94c.153.154.356.238.573.238h.132c.309 0 .586-.171.724-.447.479-.958 1.442-1.553 2.512-1.553h.132c.75 0 1.456.292 1.986.823zm-1 2.414c0-.372-.151-.737-.414-1l-1.763-1.763c-.153-.153-.356-.237-.573-.237h-.132c-.309 0-.586.171-.724.447-.479.958-1.442 1.553-2.512 1.553h-.132c-.75 0-1.456-.292-1.986-.823l-.94-.94c-.532-.53-.824-1.236-.824-1.987v-.132c0-1.07.595-2.033 1.553-2.512.276-.138.447-.416.447-.724v-.132c0-.216-.084-.419-.237-.572l-1.763-1.764c-.263-.263-.628-.414-1-.414s-.737.151-1 .414l-1.392 1.392c-.386.386-.608.922-.608 1.468 0 .377.057.653.167.912 1.682 3.923 4.71 7.135 8.527 9.043l1.104.552c.775.388 1.784.224 2.396-.389l1.392-1.392c.263-.263.414-.628.414-1zm31-17.051v4.101c6.149.511 11 5.67 11 11.949 0 6.617-5.383 12-12 12s-12-5.383-12-12c0-6.279 4.851-11.438 11-11.949v-4.101c-5.819-.483-10.466-5.13-10.949-10.949h-4.101c-.261 3.138-1.734 5.93-3.949 7.919v36.081c0 2.757-2.243 5-5 5h-20.001c-2.757 0-5-2.243-5-5v-40c0-2.757 2.243-5 5-5h5c0-6.617 5.383-12 12-12 6.279 0 11.438 4.851 11.949 11h4.101c.512-6.149 5.671-11 11.95-11 6.617 0 12 5.383 12 12 0 6.279-4.851 11.438-11 11.949zm-1-11.949c1.654 0 3-1.346 3-3s-1.346-3-3-3-3 1.346-3 3 1.346 3 3 3zm6.785 7.325c-.76-3.114-3.534-5.325-6.785-5.325s-6.025 2.211-6.785 5.325c1.785 1.654 4.165 2.675 6.785 2.675s5-1.021 6.785-2.675zm-54.785-2.325v3h11.081c-1.485-1.654-2.515-3.716-2.901-6h-5.18c-1.654 0-3 1.346-3 3zm20-5c1.654 0 3-1.346 3-3s-1.346-3-3-3-3 1.346-3 3 1.346 3 3 3zm6.785 7.325c-.76-3.114-3.534-5.325-6.785-5.325s-6.025 2.211-6.785 5.325c1.785 1.654 4.165 2.675 6.785 2.675s5-1.021 6.785-2.675zm-.785 37.675v-3h-26v3c0 1.654 1.346 3 3 3h20c1.654 0 3-1.346 3-3zm0-34.624c-1.768 1.026-3.813 1.624-6 1.624-2.445 0-4.72-.739-6.619-2h-13.381v30h26zm4-10.376c0-5.514-4.486-10-10-10s-10 4.486-10 10c0 2.057.626 3.971 1.695 5.562.923-2.25 2.708-4.005 4.925-4.901-.989-.914-1.62-2.211-1.62-3.661 0-2.757 2.243-5 5-5s5 2.243 5 5c0 1.45-.631 2.747-1.62 3.661 2.217.896 4.002 2.651 4.925 4.901 1.069-1.591 1.695-3.505 1.695-5.562zm8 0c0 2.057.626 3.971 1.695 5.562.923-2.25 2.708-4.005 4.925-4.901-.989-.914-1.62-2.211-1.62-3.661 0-2.757 2.243-5 5-5s5 2.243 5 5c0 1.45-.631 2.747-1.62 3.661 2.217.896 4.002 2.651 4.925 4.901 1.069-1.591 1.695-3.505 1.695-5.562 0-5.514-4.486-10-10-10s-10 4.486-10 10zm10 38c2.62 0 5-1.021 6.785-2.675-.76-3.114-3.534-5.325-6.785-5.325s-6.025 2.211-6.785 5.325c1.785 1.654 4.165 2.675 6.785 2.675zm0-10c1.654 0 3-1.346 3-3s-1.346-3-3-3-3 1.346-3 3 1.346 3 3 3zm0-10c-5.514 0-10 4.486-10 10 0 2.057.626 3.971 1.695 5.562.923-2.25 2.708-4.005 4.925-4.901-.989-.914-1.62-2.211-1.62-3.661 0-2.757 2.243-5 5-5s5 2.243 5 5c0 1.45-.631 2.747-1.62 3.661 2.217.896 4.002 2.651 4.925 4.901 1.069-1.591 1.695-3.505 1.695-5.562 0-5.514-4.486-10-10-10zm-32 0h-2v2h2zm8 0h-2v2h2zm-6 2h2v-2h-2z" fill="url(#SVGID_1_)"/></svg>