<svg id="Layer_5" enable-background="new 0 0 64 64" height="512" viewBox="0 0 64 64" width="512" xmlns="http://www.w3.org/2000/svg" xmlns:xlink="http://www.w3.org/1999/xlink"><linearGradient id="SVGID_1_" gradientUnits="userSpaceOnUse" x1="32" x2="32" y1="63" y2="1"><stop offset="0" stop-color="#9f2fff"/><stop offset="1" stop-color="#0bb1d3"/></linearGradient><path d="m61.504 5.676-10.287-4.676h-43.217c-3.859 0-7 3.14-7 7s3.141 7 7 7h.404c-.894 1.635-1.404 3.509-1.404 5.5v6.871c-1.067.605-3 2.177-3 5.629 0 2.105 1.161 3.866 2.631 5.254-.105.204-.206.443-.299.712-.227.128-.457.249-.673.394-2.917 1.943-4.659 5.198-4.659 8.704v14.936h36v-14.936c0-2.487-.89-4.837-2.441-6.693.284-.716.441-1.504.441-2.371 0-2.314-1.453-3.666-2.62-4.751-.613-.571-1.192-1.11-1.485-1.696-.298-.595-.064-1.399.34-2.664.359-1.121.765-2.391.765-3.889 0-2.673-1.38-4.633-2-5.379v-.121c0-1.991-.51-3.865-1.404-5.5h22.621l10.286-4.676c.909-.413 1.497-1.325 1.497-2.324s-.588-1.911-1.496-2.324zm-13.807 3.324h-28.697v.025c-.167-.007-.331-.025-.5-.025-1.991 0-3.865.51-5.5 1.404v-3.404h34.697l1.5 1zm-19.404 12.707c.012.012.864.897 1.359 2.321-.708-.632-1.631-1.028-2.652-1.028v-2h-4.528c-2.771 0-5.546-.655-8.024-1.895l-.448-.223-.447.224c-1.503.751-2.453 2.23-2.537 3.894h-.016c-.732 0-1.409.212-2 .556v-3.056c0-5.238 4.262-9.5 9.5-9.5s9.5 4.262 9.5 9.5v.914zm-1.293 6.293v-3c1.103 0 2 .897 2 2s-.897 2-2 2h-.069c.041-.328.069-.661.069-1zm-.182 18.232c1.408 1.408 2.182 3.279 2.182 5.268s-.774 3.86-2.182 5.268l-.818.817v3.415h-14v-3.415l-.818-.817c-1.408-1.408-2.182-3.279-2.182-5.268 0-1.574.496-3.076 1.399-4.333.274.356.512.728.653 1.15l.364 1.094 1.031-.516c2.99-1.495 4.382-3.466 5.024-5.141.492.157 1.005.246 1.529.246 2.757 0 5-2.243 5-5v-.087c.455.219.945.375 1.462.449l.538.077v5.976zm-5.473-10.507c.142.521.369 1 .655 1.435v1.84c0 1.654-1.346 3-3 3-.362 0-.715-.072-1.048-.196.034-.308.048-.582.048-.804 0-1.967-.721-3.052-1.557-3.955.225-.432.357-.888.438-1.339.677.186 1.385.294 2.119.294.809 0 1.589-.123 2.325-.347zm-2.345-1.725c-3.309 0-6-2.691-6-6v-4.764c0-.842.395-1.612 1.054-2.1 2.625 1.221 5.523 1.864 8.418 1.864h2.528v5c0 3.309-2.691 6-6 6zm-7.931-5h-.069c-1.103 0-2-.897-2-2s.897-2 2-2v3c0 .339.028.672.069 1zm36.431-24h-34.5v-2h36zm-39.5 8c-2.757 0-5-2.243-5-5s2.243-5 5-5h3v8.801c-.428.37-.829.77-1.199 1.199zm-.277 16.282c.723 1.036 1.92 1.718 3.277 1.718h.589c.668 1.644 1.868 3.013 3.385 3.902-.049.591-.185 1.175-.556 1.581l-.644.707.676.676c.967.966 1.55 1.549 1.55 3.134 0 1.073-.366 3.639-3.547 5.605-.629-1.06-1.543-1.865-2.373-2.595-1.289-1.136-2.08-1.889-2.08-3.01 0-.6.108-1.076.24-1.439 2.103 1.492 4.234 2.309 4.409 2.375l.703-1.873c-2.045-.766-7.352-3.53-7.352-7.063 0-2.181 1.036-3.245 1.723-3.718zm-4.723 18.782c0-2.533 1.13-4.898 3.05-6.496.239 1.752 1.539 2.912 2.709 3.942.077.068.149.135.225.202-1.283 1.652-1.984 3.67-1.984 5.788 0 2.523.982 4.896 2.768 6.683l.232.232v2.585h-7zm32 12.936h-7v-2.585l.232-.232c1.786-1.787 2.768-4.16 2.768-6.683s-.982-4.896-2.768-6.683l-.232-.232v-4.845c1.149.203 2.263.637 3.231 1.283 2.36 1.573 3.769 4.205 3.769 7.041zm-3.982-25.287c1.063.989 1.982 1.844 1.982 3.287 0 .284-.028.55-.07.807-.195-.151-.382-.31-.589-.448-1.291-.861-2.786-1.432-4.324-1.652l-2.271-.324c-1.187-.17-2.156-1.026-2.471-2.183l-.105-.385c1.449-.89 2.595-2.223 3.242-3.814h.588c.723 0 1.393-.208 1.979-.545-.266 1.022-.364 2.011.127 2.992.455.908 1.195 1.598 1.912 2.265zm-6.048-24.713h22.53l1.5 2h-21.801c-.655-.758-1.4-1.434-2.229-2zm35.706-2.497-9.358 4.254-1.883-2.511 3.368-2.246-3.368-2.246 1.883-2.511 9.359 4.254c.196.089.323.287.323.503s-.127.414-.324.503zm-2.676 26.497c1.654 0 3-1.346 3-3v-8c0-1.654-1.346-3-3-3h-5.697l-5.361-3.574c-.419-.279-.905-.426-1.407-.426-1.397 0-2.535 1.137-2.535 2.535v1.465h-1c-1.654 0-3 1.346-3 3v8c0 1.654 1.346 3 3 3zm-17-3v-8c0-.551.448-1 1-1h3v-3.465c0-.401.5-.667.832-.445l5.865 3.91h6.303c.552 0 1 .449 1 1v8c0 .551-.448 1-1 1h-16c-.552 0-1-.449-1-1zm4-5h-2v-2h2zm12 0h-10v-2h10zm0 4h-14v-2h14z" fill="url(#SVGID_1_)"/></svg>