<svg id="Layer_5" enable-background="new 0 0 64 64" height="512" viewBox="0 0 64 64" width="512" xmlns="http://www.w3.org/2000/svg" xmlns:xlink="http://www.w3.org/1999/xlink"><linearGradient id="SVGID_1_" gradientUnits="userSpaceOnUse" x1="32" x2="32" y1="63" y2="1"><stop offset="0" stop-color="#9f2fff"/><stop offset="1" stop-color="#0bb1d3"/></linearGradient><path d="m61.381 42.805c.383-.504.619-1.125.619-1.805 0-1.302-.839-2.402-2-2.816v-9.21c1.207-.914 2-2.348 2-3.974v-.414l-2-2v-7l-4.236-4.236c-.719-2.508-3.028-4.35-5.764-4.35-1.509 0-2.919.567-4.014 1.572l-7.572-7.572h-.414c-2.757 0-5 2.243-5 5v.414l2.586 2.586-4.303 4.303c-1.082-.188-2.181-.303-3.283-.303-.354 0-.699.034-1.048.053-.488-6.726-6.103-12.053-12.952-12.053-7.168 0-13 5.832-13 13 0 5.648 3.595 10.572 8.866 12.329-.562 1.792-.866 3.696-.866 5.671v10.721l3.063 1.021.444 4.892c.331 3.629 3.328 6.366 6.972 6.366h2.521v8h17v-11.649l3.836-4.795c2.685-3.357 4.164-7.573 4.164-11.87l-.001-1.755c.575.063.943.069 1.001.069h.414l5.586-5.586 2.586 2.586h.414c.342 0 .677-.035 1-.101v8.285c-1.161.414-2 1.514-2 2.816 0 .68.236 1.301.619 1.805-.977.73-1.619 1.885-1.619 3.195v8h8v-8c0-1.31-.642-2.465-1.619-3.195zm-3.381-22.219-3.572-3.572c.716-.78 1.208-1.719 1.43-2.742l2.142 2.142zm-8-11.586c2.206 0 4 1.794 4 4 0 .969-.357 1.878-.988 2.598l-5.61-5.61c.72-.631 1.629-.988 2.598-.988zm-16 19c-1.434 0-2.8.617-3.75 1.693l1.5 1.323c.57-.645 1.39-1.016 2.25-1.016 1.654 0 3 1.346 3 3 0 1.151-.653 2.183-1.704 2.69l-.824.398.324.856c.136.358.204.713.204 1.056 0 1.654-1.346 3-3 3s-3-1.346-3-3v-12c0-1.654 1.346-3 3-3 .303 0 .595.059.879.146.58 1.031 1.273 2.074 2.096 3.084-.052.671-.326 1.295-.78 1.789-.066-.002-.128-.019-.195-.019zm-12.195 7.98c.066.003.128.02.195.02 1.434 0 2.8-.617 3.75-1.693l-1.5-1.323c-.57.645-1.39 1.016-2.25 1.016-1.654 0-3-1.346-3-3 0-1.151.653-2.183 1.704-2.69l.824-.398-.324-.856c-.136-.358-.204-.713-.204-1.056 0-1.654 1.346-3 3-3s3 1.346 3 3v12c0 1.654-1.346 3-3 3s-3-1.346-3-3c0-.757.299-1.469.805-2.02zm-10.23-13.487c-.212-.458-.41-.948-.584-1.493h1.546c-.344.482-.664.98-.962 1.493zm2.607-3.493h-3.693c-.25-1.244-.409-2.596-.461-4h7.927c-.011.311-.02.621-.041.927-1.373.865-2.625 1.897-3.732 3.073zm-11.135-4h4.982c.048 1.391.182 2.742.414 4h-4.241c-.623-1.226-1.027-2.576-1.155-4zm10.953-12c1.075 0 2.22 1.527 3.009 4h-6.018c.789-2.473 1.934-4 3.009-4zm3.519 6c.244 1.209.408 2.553.46 4h-7.958c.052-1.447.217-2.791.46-4zm7.426 4h-4.967c-.046-1.419-.184-2.763-.409-4h4.2c.625 1.218 1.037 2.566 1.176 4zm-16.923 0h-4.971c.13-1.43.537-2.779 1.164-4h4.217c-.226 1.237-.365 2.581-.41 4zm14.441-6h-3.358c-.368-1.294-.837-2.421-1.39-3.339 1.866.674 3.504 1.831 4.748 3.339zm-12.177-3.341c-.553.919-1.023 2.046-1.391 3.341h-3.374c1.247-1.507 2.891-2.666 4.765-3.341zm-4.775 17.341h3.406c.365 1.288.825 2.431 1.375 3.354-1.908-.679-3.544-1.852-4.781-3.354zm13.968 32c-2.604 0-4.744-1.955-4.979-4.547l-.563-6.195-2.937-.979v-9.279c0-9.374 7.626-17 17-17 .672 0 1.342.051 2.009.13l.002.012c.025.177.417 2.739 1.799 5.87-1.555.059-2.932.824-3.809 1.992-.914-1.216-2.367-2.004-4.001-2.004-2.757 0-5 2.243-5 5 0 .313.032.629.096.944-1.31.929-2.096 2.418-2.096 4.056 0 1.93 1.111 3.589 2.716 4.422-.463.77-.716 1.658-.716 2.578 0 2.757 2.243 5 5 5 1.127 0 2.163-.381 3-1.012v2.012c0 1.654 1.346 3 3 3h2c.551 0 1 .449 1 1s-.449 1-1 1h-1c-1.654 0-3 1.346-3 3v9h-4v-8zm25.521-18.314c0 3.845-1.323 7.617-3.725 10.62l-4.275 5.343v10.351h-7v-9c0-.551.449-1 1-1h1c1.654 0 3-1.346 3-3s-1.346-3-3-3h-2c-.551 0-1-.449-1-1v-2.012c.837.631 1.873 1.012 3 1.012 2.757 0 5-2.243 5-5 0-.313-.032-.629-.096-.944 1.31-.929 2.096-2.418 2.096-4.056 0-1.93-1.111-3.589-2.716-4.422.116-.192.214-.393.302-.598 2.945 2.82 6.147 4.06 8.413 4.598zm2.608-3.708c-1.361-.11-5.985-.769-9.901-4.685-3.962-3.962-5.303-9.338-5.629-10.956l4.922-4.923 15.586 15.586zm-12.583-25.367c.175-1.344 1.242-2.411 2.586-2.586l22.364 22.364c-.175 1.344-1.242 2.411-2.586 2.586zm22.975 35.389c0-.551.449-1 1-1s1 .449 1 1-.449 1-1 1-1-.449-1-1zm3 11h-4v-6c0-1.103.897-2 2-2s2 .897 2 2z" fill="url(#SVGID_1_)"/></svg>