<svg id="Layer_5" enable-background="new 0 0 64 64" height="512" viewBox="0 0 64 64" width="512" xmlns="http://www.w3.org/2000/svg" xmlns:xlink="http://www.w3.org/1999/xlink"><linearGradient id="SVGID_1_" gradientUnits="userSpaceOnUse" x1="32" x2="32" y1="63" y2="1"><stop offset="0" stop-color="#9f2fff"/><stop offset="1" stop-color="#0bb1d3"/></linearGradient><path d="m61.503 53.676-10.286-4.676h-6.883c-1.299-.959-2.128-2.405-2.296-4h11.962c2.757 0 5-2.243 5-5v-28c0-2.757-2.243-5-5-5h-3v-6h-33v.005c-.348-.001-.696.014-1.045.054-3.437.389-6.337 2.802-7.453 5.991-2.521.255-4.502 2.364-4.502 4.95v28c0 2.757 2.243 5 5 5h11.962c-.168 1.595-.997 3.041-2.296 4h-11.666c-3.86 0-7 3.14-7 7s3.14 7 7 7h43.217l10.287-4.676c.909-.413 1.496-1.325 1.496-2.324s-.587-1.911-1.497-2.324zm-48.503 5.324h34.5l1.5 2h-36zm34.697-2h-34.697v-2h34.697l1.5 1zm-.197-4h-34.5v-2h36zm6.5-44c1.654 0 3 1.346 3 3v23h-6v-26zm-5-6v32h-30v-10.142c1.72-.447 3-2 3-3.858v-1.792c0-.669.33-1.297.862-1.639 2.591-1.665 4.138-4.495 4.138-7.569 0-2.56-1.096-5.007-3.006-6.713-.114-.103-.239-.191-.358-.287zm-29 18c0 1.103-.897 2-2 2s-2-.897-2-2zm-3-11c0-.551.449-1 1-1s1 .449 1 1-.449 1-1 1-1-.449-1-1zm-5.94-.925c.399-3.137 2.974-5.673 6.12-6.029.275-.031.548-.046.82-.046h.019c1.721.003 3.345.619 4.642 1.778 1.487 1.327 2.339 3.231 2.339 5.222 0 2.39-1.204 4.591-3.22 5.887-1.057.679-1.703 1.833-1.768 3.113h-1.012v-6.184c1.161-.414 2-1.514 2-2.816 0-1.654-1.346-3-3-3s-3 1.346-3 3c0 1.302.839 2.402 2 2.816v6.184h-1.015c-.074-1.291-.711-2.439-1.748-3.102-2.309-1.475-3.526-4.089-3.177-6.823zm-2.005.092c-.305 3.382 1.235 6.583 4.104 8.417.519.331.84.97.84 1.667v1.749c0 1.858 1.28 3.411 3 3.858v10.142h-9.999v-23c0-1.322.866-2.435 2.055-2.833zm-2.055 30.833v-3h50v3c0 1.654-1.346 3-3 3h-44c-1.654 0-3-1.346-3-3zm16.963 5h16.075c.114 1.464.634 2.845 1.492 4h-19.06c.858-1.155 1.378-2.536 1.493-4zm-20.963 11c0-2.757 2.243-5 5-5h3v10h-3c-2.757 0-5-2.243-5-5zm57.676.503-9.359 4.254-1.884-2.511 3.37-2.246-3.369-2.246 1.884-2.511 9.358 4.254c.197.089.324.287.324.503s-.127.414-.324.503zm-45.676-17.503h2v2h-2zm-4 0h2v2h-2zm8 0h2v2h-2zm28-32h-18v-2h18zm-2 2h2v2h-2zm-2 2h-14v-2h14zm4 4h-18v-2h18zm-16 18h16v-16h-16zm2-14h12v12h-12zm-12 12h8v2h-8zm0-4h8v2h-8zm2-4h6v2h-6zm1-4h5v2h-5z" fill="url(#SVGID_1_)"/></svg>