<svg id="Layer_5" enable-background="new 0 0 64 64" height="512" viewBox="0 0 64 64" width="512" xmlns="http://www.w3.org/2000/svg" xmlns:xlink="http://www.w3.org/1999/xlink"><linearGradient id="SVGID_1_" gradientUnits="userSpaceOnUse" x1="32" x2="32" y1="63" y2="1"><stop offset="0" stop-color="#9f2fff"/><stop offset="1" stop-color="#0bb1d3"/></linearGradient><path d="m23 22c0 .552-.448 1-1 1s-1-.448-1-1 .448-1 1-1 1 .448 1 1zm-7 1c.552 0 1-.448 1-1s-.448-1-1-1-1 .448-1 1 .448 1 1 1zm3 4c-1.103 0-2-.897-2-2h-2c0 2.206 1.794 4 4 4s4-1.794 4-4h-2c0 1.103-.897 2-2 2zm10 19c0-1.654 1.346-3 3-3s3 1.346 3 3-1.346 3-3 3-3-1.346-3-3zm2 0c0 .552.448 1 1 1s1-.448 1-1-.448-1-1-1-1 .448-1 1zm-30-36v-2c0-1.103.897-2 2-2h32v-2c0-1.654 1.346-3 3-3h20c1.654 0 3 1.346 3 3v20c0 1.654-1.346 3-3 3h-1v1.465c0 1.398-1.138 2.535-2.535 2.535-.502 0-.988-.147-1.406-.426l-5.362-3.574h-9.697c-1.654 0-3-1.346-3-3v-12h-2v3.721l-.684.228c-.066.022-.539.176-1.316.39v7.661c0 2.206-1.794 4-4 4h-.732c-.681 1.715-1.807 3.078-3.268 3.942v1.211l3.869.645c.958.16 1.884.461 2.751.895 1.871.935 3.382 2.452 4.323 4.308h2.057c1.654 0 3 1.346 3 3v18c0 1.654-1.346 3-3 3h-11-1-15v-6.08c-3.386-.489-6-3.402-6-6.921v-6.604c0-3.71 2.062-7.045 5.379-8.703.868-.434 1.794-.734 2.751-.895l3.87-.645v-1.211c-1.461-.865-2.587-2.227-3.268-3.942h-.732c-2.206 0-4-1.794-4-4v-7.662c-.777-.213-1.25-.368-1.316-.39l-.684-.227v-3.721h-2c-1.103 0-2-.897-2-2zm8 6.836v3.721c.591-.345 1.268-.557 2-.557h.01c.029-.932.302-1.834.776-2.62-1.035-.171-1.971-.361-2.786-.544zm2.17 9.164c-.11-.637-.17-1.303-.17-2v-2c-1.103 0-2 .897-2 2s.897 2 2 2zm6.565 11.98-2.17-2.895-.346.058.532 5.317zm-7.735 17.02h5v-4h-3.758c-.526 0-1.042.214-1.414.586l-1.121 1.121-1.414-1.414 1.121-1.121c.179-.18.377-.338.586-.48v-5.692h2v5.024c.081-.005.161-.024.242-.024h4.344l1.14-1.14c.547-.547 1.304-.86 2.077-.86.859 0 1.649.368 2.197.991v-5.891l-2-2.5-4.751 5.939-1.007-10.066-1.783.297c-.761.127-1.496.366-2.187.711-2.634 1.318-4.272 3.967-4.272 6.915v6.604c0 2.757 2.243 5 5 5zm13-1v-2c0-.552-.448-1-1-1h-1.618l-.741-1.481c-.271-.542-1.074-.672-1.501-.244l-1.14 1.139v4.586h5c.552 0 1-.448 1-1zm0-4.816c1.161.414 2 1.514 2 2.816v-10c0-.352.072-.686.184-1h-1.184c-.552 0-1 .448-1 1zm-2.735-11.204 1.567 1.957c.155-.163.325-.311.514-.436l.436-4.358-.346-.058zm-9.265 23.02h10.184c-.112-.314-.184-.648-.184-1v-3h-10zm14 0h.184c-.112-.314-.184-.648-.184-1v-6c0 1.302-.839 2.402-2 2.816v3.184c0 .552.448 1 1 1zm11-20h-8c-.552 0-1 .448-1 1v18c0 .552.448 1 1 1h8c.552 0 1-.448 1-1v-18c0-.552-.448-1-1-1zm-9.46-5.229-1.782-.297-.353 3.526h7.203c-.735-1.059-1.716-1.936-2.882-2.519-.689-.344-1.424-.584-2.186-.71zm-5.54-3.02c-.633.158-1.298.249-2 .249s-1.367-.091-2-.249v.916l2 2.666 2-2.666zm4-11.751c0-.551-.448-1-1-1h-1.758c-2.356 0-4.68-.764-6.588-2.144-.533-.044-1.058-.093-1.565-.152-.676.636-1.089 1.521-1.089 2.458v3.838c0 4.252 2.355 7 6 7s6-2.748 6-7zm4 3c0-1.103-.897-2-2-2v2c0 .697-.06 1.363-.17 2h.17c1.103 0 2-.897 2-2zm0-7.164c-1.992.449-4.73.93-7.79 1.098.343.039.687.066 1.032.066h1.758c1.302 0 2.402.839 2.816 2h.184c.732 0 1.409.212 2 .556zm2-4.836h-24v2.258c1.743.503 6.595 1.742 12 1.742s10.257-1.239 12-1.742zm6-4v2 14c0 .551.448 1 1 1h10.303l5.865 3.91c.331.222.832-.044.832-.445v-3.465h3c.552 0 1-.449 1-1v-20c0-.551-.448-1-1-1h-20c-.552 0-1 .449-1 1zm-34 2h2 28 2v-2h-32zm36 4c0-4.962 4.037-9 9-9s9 4.038 9 9-4.037 9-9 9-9-4.038-9-9zm7.412-3c-.17.61-.297 1.28-.362 2h3.901c-.065-.72-.192-1.39-.362-2zm2.406-2c-.279-.564-.567-1.032-.818-1.395-.251.363-.539.831-.818 1.395zm-2.769 6c.065.72.192 1.39.362 2h3.177c.17-.61.297-1.28.362-2zm1.133 4c.28.564.567 1.032.819 1.395.251-.363.538-.831.818-1.395zm3.038 1.633c1.012-.34 1.923-.902 2.67-1.633h-1.869c-.252.619-.529 1.162-.801 1.633zm4.095-3.633c.297-.622.504-1.294.605-2h-2.958c-.053.712-.164 1.377-.309 2zm.605-4c-.102-.706-.308-1.378-.605-2h-2.662c.145.623.256 1.288.309 2zm-2.031-4c-.747-.731-1.657-1.293-2.67-1.633.273.471.55 1.014.802 1.633zm-7.109-1.633c-1.012.34-1.923.902-2.67 1.633h1.869c.252-.619.529-1.162.801-1.633zm-4.095 3.633c-.297.622-.503 1.294-.605 2h2.958c.053-.712.164-1.377.309-2zm-.605 4c.102.706.308 1.378.605 2h2.662c-.145-.623-.256-1.288-.309-2zm2.031 4c.747.731 1.657 1.293 2.67 1.633-.273-.471-.549-1.014-.801-1.633zm5.889 23h2v-2h-2zm4 0h2v-2h-2zm4 0h2v-2h-2zm6-3v8.586c0 1.331-1.083 2.414-2.414 2.414-.636 0-1.258-.258-1.707-.707l-3.293-3.293h-7.586c-1.654 0-3-1.346-3-3v-4c0-1.654 1.346-3 3-3h12c1.654 0 3 1.346 3 3zm-2 0c0-.552-.448-1-1-1h-12c-.552 0-1 .448-1 1v4c0 .552.448 1 1 1h8.414l3.879 3.879c.237.238.707.045.707-.293z" fill="url(#SVGID_1_)"/></svg>