<svg id="Layer_5" enable-background="new 0 0 64 64" height="512" viewBox="0 0 64 64" width="512" xmlns="http://www.w3.org/2000/svg" xmlns:xlink="http://www.w3.org/1999/xlink"><linearGradient id="SVGID_1_" gradientUnits="userSpaceOnUse" x1="32" x2="32" y1="63" y2="1"><stop offset="0" stop-color="#9f2fff"/><stop offset="1" stop-color="#0bb1d3"/></linearGradient><path d="m61.381 16.805c.383-.504.619-1.125.619-1.805 0-1.302-.839-2.402-2-2.816v-3.184c0-2.757-2.243-5-5-5 0-1.654-1.346-3-3-3h-28c-1.654 0-3 1.346-3 3v2c0 1.654 1.346 3 3 3h2v4.618l.553.276c.096.048 1.017.503 2.403 1.052-.806.364-1.586.782-2.344 1.242l-4.376-2.188h-16.236c-2.757 0-5 2.243-5 5s2.243 5 5 5h6v6c0 .551-.448 1-1 1h-7c-1.654 0-3 1.346-3 3s1.346 3 3 3h7c.552 0 1 .449 1 1v1h-1c-3.859 0-7 3.14-7 7v8c0 4.962 4.037 9 9 9s9-4.038 9-9v-3.911c4.13 4.367 9.927 6.911 16 6.911 12.131 0 22-9.869 22-22 0-2.407-.405-4.751-1.161-7h4.161v-8c0-1.311-.642-2.465-1.619-3.195zm-12.432 19.195h9c-.143 2.867-.884 5.573-2.113 8h-11.531c2.577-1.811 4.345-4.694 4.644-8zm-10.949 19c-1.508 0-3.635-2.828-4.933-9h9.866c-1.298 6.172-3.425 9-4.933 9zm-19.35-14.962c-.342-1.318-.548-2.67-.616-4.038h9.017c.3 3.306 2.067 6.189 4.645 8h-9.99c-.499-1.666-1.604-3.069-3.056-3.962zm8.35-21.038c0 .236-.131.447-.342.553l-3.658 1.829v-4.764l3.658 1.829c.211.106.342.317.342.553zm-6-1h-12v-2h12zm-12 2h12v2h-12zm11.141 6h11.554c-2.577 1.811-4.345 4.694-4.645 8h-9.013c.139-2.807.85-5.519 2.104-8zm17.859 18c-4.963 0-9-4.038-9-9s4.037-9 9-9 9 4.038 9 9-4.037 9-9 9zm-4.93-20c.649-3.085 1.557-5.577 2.612-7.18.777.11 1.556.18 2.318.18s1.541-.07 2.318-.18c1.055 1.602 1.962 4.095 2.612 7.18zm11.899 0c-.627-3.135-1.497-5.71-2.555-7.58.584-.138 1.154-.292 1.702-.456 4.341 1.393 8.05 4.226 10.566 8.036zm13.031-9c0-.551.448-1 1-1s1 .449 1 1-.448 1-1 1-1-.449-1-1zm0-6v3.184c-1.161.414-2 1.514-2 2.816 0 .68.236 1.301.619 1.805-.977.73-1.619 1.884-1.619 3.195v1.067c-2.155-2.631-4.878-4.72-7.975-6.114 1.396-.551 2.326-1.011 2.422-1.059l.553-.276v-4.618h2c1.654 0 3-1.346 3-3 1.654 0 3 1.346 3 3zm-35-3v-2c0-.551.448-1 1-1h28c.552 0 1 .449 1 1v2c0 .551-.448 1-1 1h-28c-.552 0-1-.449-1-1zm5 3h20v3.365c-1.563.711-6.149 2.635-10 2.635s-8.437-1.924-10-2.635zm5.586 7.42c-1.059 1.87-1.928 4.445-2.555 7.58h-8.795l5.316-2.658c.893-.446 1.448-1.344 1.448-2.342 0-.588-.211-1.127-.551-1.574 1.095-.597 2.245-1.083 3.43-1.464.55.165 1.121.319 1.707.458zm-30.586 2.58c0-1.654 1.346-3 3-3h1v6h-1c-1.654 0-3-1.346-3-3zm8 16h-7c-.552 0-1-.449-1-1s.448-1 1-1h7c1.654 0 3-1.346 3-3v-6h4.95c-1.931 3.334-2.95 7.099-2.95 11 0 1.396.14 2.781.399 4.141-.452-.092-.92-.141-1.399-.141h-1v-1c0-1.654-1.346-3-3-3zm1 6h2v5c0 .551-.448 1-1 1s-1-.449-1-1zm-2 .101v4.899c0 1.654 1.346 3 3 3s3-1.346 3-3v-4.899c2.279.465 4 2.484 4 4.899v5h-14v-5c0-2.414 1.721-4.434 4-4.899zm3 19.899c-3.859 0-7-3.14-7-7v-1h14v1c0 3.86-3.141 7-7 7zm9-14.009v-.991h9.029c.764 3.828 1.861 6.765 3.202 8.633-4.837-.936-9.227-3.644-12.231-7.642zm19.77 7.641c1.34-1.868 2.438-4.804 3.201-8.632h9.714c-2.918 4.413-7.535 7.601-12.915 8.632zm16.182-20.632h-9.003c-.3-3.306-2.067-6.189-4.645-8h10.696v2h1.718c.721 1.924 1.132 3.935 1.234 6zm3.048-8h-4v-6c0-1.103.897-2 2-2s2 .897 2 2zm-19.447 6.658-4.764-2.382c-.361-.18-.767-.276-1.171-.276-1.443 0-2.618 1.174-2.618 2.618v4.764c0 1.444 1.175 2.618 2.618 2.618.404 0 .81-.096 1.171-.276l4.764-2.382c.892-.446 1.447-1.344 1.447-2.342s-.555-1.896-1.447-2.342zm-.895 2.895-4.764 2.382c-.386.196-.894-.117-.894-.553v-4.764c0-.341.277-.618.618-.618.096 0 .191.022.276.065l4.764 2.382c.211.106.342.317.342.553s-.131.447-.342.553z" fill="url(#SVGID_1_)"/></svg>