<svg id="Layer_5" enable-background="new 0 0 64 64" height="512" viewBox="0 0 64 64" width="512" xmlns="http://www.w3.org/2000/svg" xmlns:xlink="http://www.w3.org/1999/xlink"><linearGradient id="SVGID_1_" gradientUnits="userSpaceOnUse" x1="32" x2="32" y1="63" y2="1"><stop offset="0" stop-color="#9f2fff"/><stop offset="1" stop-color="#0bb1d3"/></linearGradient><path d="m31 53h-6c-1.103 0-2 .897-2 2v2c0 1.103.897 2 2 2h6c1.103 0 2-.897 2-2v-2c0-1.103-.897-2-2-2zm-6 4v-2h6l.001 2zm-8-4h-2c-1.103 0-2 .897-2 2v2c0 1.103.897 2 2 2h2c1.103 0 2-.897 2-2v-2c0-1.103-.897-2-2-2zm-2 4v-2h2l.001 2zm26-4h-2c-1.103 0-2 .897-2 2v2c0 1.103.897 2 2 2h2c1.103 0 2-.897 2-2v-2c0-1.103-.897-2-2-2zm-2 4v-2h2l.001 2zm-10-51c0 .552-.448 1-1 1s-1-.448-1-1 .448-1 1-1 1 .448 1 1zm12 0c0-.552.448-1 1-1s1 .448 1 1-.448 1-1 1-1-.448-1-1zm-8 26.382c0 1.444 1.175 2.618 2.618 2.618.404 0 .81-.096 1.171-.276l4.764-2.382c.892-.446 1.447-1.344 1.447-2.342s-.555-1.896-1.447-2.342l-4.764-2.382c-.361-.18-.767-.276-1.171-.276-1.443 0-2.618 1.174-2.618 2.618zm2-4.764c0-.341.277-.618.618-.618.096 0 .191.022.276.065l4.764 2.382c.211.106.342.317.342.553s-.131.447-.342.553l-4.764 2.382c-.386.196-.894-.117-.894-.553zm12-21.618c0-2.757-2.243-5-5-5h-28c-2.414 0-4.434 1.721-4.899 4h-.101c-1.654 0-3 1.346-3 3v3.78c-.609.55-1 1.337-1 2.22v1.184c-.314-.112-.648-.184-1-.184-1.654 0-3 1.346-3 3v10c0 1.654 1.346 3 3 3 .352 0 .686-.072 1-.184v4.356c0 1.944.712 3.775 2 5.213v3.615c0 1.302.839 2.402 2 2.816v11.184c0 2.757 2.243 5 5 5h28c2.757 0 5-2.243 5-5v-15h16v-26h-16zm-4 35v-2h2v2zm-33 4c-.552 0-1-.449-1-1v-3h2v3c0 .551-.448 1-1 1zm-3-17v-10-4c0-.551.448-1 1-1h4c.552 0 1 .449 1 1v21.171c0 1.422-.506 2.767-1.434 3.829h-3.132c-.928-1.062-1.434-2.406-1.434-3.829zm38 2c0 3.86-3.141 7-7 7s-7-3.14-7-7 3.141-7 7-7 7 3.14 7 7zm-30.223 7c.142-.593.223-1.204.223-1.829v-12.171h17.356c-2.044 1.651-3.356 4.174-3.356 7s1.312 5.349 3.356 7zm24.223-16v-2h2v2zm-2 0h-2v-2h2zm-4 0h-2v-2h2zm-4 0h-2v-2h2zm-4 0h-2v-2h2zm-4 0h-2v-2h2zm-4 0h-2v-2h2zm-4 19.384c.385-.429.719-.891.996-1.384h3.004v2h-4zm6-1.384h2v2h-2zm4 0h2v2h-2zm4 0h2v2h-2zm4 0h2v2h-2zm4 0h2v2h-2zm4 0h2v2h-2zm8 0h2v2h-2zm4 0h2v2h-2zm4 0h2v2h-2zm-11.356-2c2.044-1.651 3.356-4.174 3.356-7s-1.312-5.349-3.356-7h17.356v14zm11.356-16v-2h2v2zm-2 0h-2v-2h2zm-4 0h-2v-2h2zm-4 0h-2v-2h2zm-30-4v-3c0-.883-.391-1.67-1-2.22v-.78h31v6zm10-11v-3h6v3c0 1.654-1.346 3-3 3s-3-1.346-3-3zm20 0v3h-13.026c.635-.838 1.026-1.87 1.026-3v-3h9c1.654 0 3 1.346 3 3zm-31-3h9v3c0 1.13.391 2.162 1.026 3h-10.026v-1c0-1.593-1.252-2.887-2.821-2.982.409-1.171 1.512-2.018 2.821-2.018zm-6 5c0-.551.448-1 1-1h2c.552 0 1 .449 1 1v3h-4zm-4 21c-.552 0-1-.449-1-1v-10c0-.551.448-1 1-1s1 .449 1 1v10c0 .551-.448 1-1 1zm38 32h-28c-1.654 0-3-1.346-3-3v-7h34v7c0 1.654-1.346 3-3 3zm3-12h-34v-2.184c1.161-.414 2-1.514 2-2.816v-1h32zm14-8v-2h2v2zm2-20h-2v-2h2z" fill="url(#SVGID_1_)"/></svg>