<svg id="Layer_5" enable-background="new 0 0 64 64" height="512" viewBox="0 0 64 64" width="512" xmlns="http://www.w3.org/2000/svg" xmlns:xlink="http://www.w3.org/1999/xlink"><linearGradient id="SVGID_1_" gradientUnits="userSpaceOnUse" x1="32" x2="32" y1="63" y2="1"><stop offset="0" stop-color="#9f2fff"/><stop offset="1" stop-color="#0bb1d3"/></linearGradient><path d="m30 25c4.962 0 9-4.038 9-9s-4.038-9-9-9-9 4.038-9 9 4.038 9 9 9zm0-16c3.86 0 7 3.14 7 7s-3.14 7-7 7-7-3.14-7-7 3.14-7 7-7zm-2.382 12c.404 0 .809-.096 1.171-.276l4.763-2.382c.893-.446 1.448-1.343 1.448-2.342s-.555-1.896-1.447-2.342l-4.764-2.382c-.362-.18-.767-.276-1.171-.276-1.444 0-2.618 1.174-2.618 2.618v4.764c0 1.444 1.174 2.618 2.618 2.618zm-.618-7.382c0-.341.277-.618.618-.618.095 0 .191.022.276.065l4.764 2.382c.211.106.342.317.342.553s-.131.447-.342.553l-4.764 2.382c-.392.197-.894-.117-.894-.553zm-12 27.382h-2v-2h2zm18 0h-16v-2h16zm0 4h-20v-2h20zm19-10h8c1.654 0 3-1.346 3-3s-1.346-3-3-3h-2c-.551 0-1-.449-1-1 0-1.654-1.346-3-3-3h-3v-3c0-2.757-2.243-5-5-5h-3v-16h-26c-2.206 0-4 1.794-4 4v12h-3c-2.757 0-5 2.243-5 5v26c0 1.13.391 2.162 1.026 3h-2.026c-1.654 0-3 1.346-3 3 0 3.859 3.14 7 7 7h35.104c2.002 1.26 4.362 2 6.896 2 7.168 0 13-5.832 13-13 0-6.83-5.299-12.435-12-12.949v-1.051c0-.552.449-1 1-1zm2-8c.551 0 1 .449 1 1 0 1.654 1.346 3 3 3h2c.551 0 1 .449 1 1s-.449 1-1 1h-8c-.352 0-.686.072-1 .184v-6.184zm-8-8c1.654 0 3 1.346 3 3v14 1.051c-.683.052-1.35.158-2 .313v-14.364c0-1.103-.897-2-2-2h-2v-2zm7.009 24h-6.018c.789-2.473 1.935-4 3.009-4s2.22 1.527 3.009 4zm7.94 6h-4.971c-.046-1.419-.184-2.763-.409-4h4.217c.626 1.221 1.034 2.57 1.163 4zm-10.949 12c-1.075 0-2.22-1.527-3.009-4h6.018c-.789 2.473-1.934 4-3.009 4zm-37-28c0 2.206 1.794 4 4 4h26v-4-4-6h2v15.003c-3.794 1.587-6.669 4.926-7.637 8.997h-26.363v-24h2zm28-2v2 2h-24c-1.103 0-2-.897-2-2s.897-2 2-2zm-1.949 18c.13-1.43.537-2.779 1.164-4h4.217c-.225 1.237-.364 2.581-.409 4zm2.47-6c1.246-1.507 2.891-2.666 4.764-3.341-.553.919-1.023 2.046-1.391 3.341zm2.501 8c.046 1.419.184 2.763.409 4h-4.217c-.626-1.221-1.034-2.57-1.164-4zm.873 6c.368 1.295.838 2.422 1.391 3.341-1.874-.675-3.518-1.834-4.764-3.341zm1.586-2c-.244-1.209-.408-2.553-.46-4h7.958c-.052 1.447-.217 2.791-.46 4zm9.497-4h4.971c-.13 1.43-.537 2.779-1.164 4h-4.217c.226-1.237.365-2.581.41-4zm-1.999-2h-7.958c.052-1.447.217-2.791.46-4h7.038c.244 1.209.408 2.553.46 4zm-12.979-20h-22v-26h22zm-24-26v26c-.732 0-1.409.212-2 .556v-24.556c0-1.103.897-2 2-2zm-10 45v-26c0-1.654 1.346-3 3-3h3v2h-2c-1.103 0-2 .897-2 2v24c0 1.103.897 2 2 2h26.051c-.026.331-.051.662-.051 1s.025.669.051 1h-27.051c-1.654 0-3-1.346-3-3zm14 5h14v1c0 .552-.449 1-1 1h-12c-.551 0-1-.448-1-1zm-18 1c0-.552.449-1 1-1h15v1c0 1.654 1.346 3 3 3h12c1.654 0 3-1.346 3-3v-1h.363c.545 2.294 1.694 4.354 3.278 6h-32.641c-2.757 0-5-2.243-5-5zm50.714 6.341c.553-.919 1.023-2.046 1.391-3.341h3.374c-1.247 1.507-2.891 2.666-4.765 3.341zm4.765-17.341h-3.374c-.368-1.295-.838-2.422-1.391-3.341 1.874.675 3.518 1.834 4.765 3.341z" fill="url(#SVGID_1_)"/></svg>