<svg id="Layer_5" enable-background="new 0 0 64 64" height="512" viewBox="0 0 64 64" width="512" xmlns="http://www.w3.org/2000/svg" xmlns:xlink="http://www.w3.org/1999/xlink"><linearGradient id="SVGID_1_" gradientUnits="userSpaceOnUse" x1="32" x2="32" y1="63" y2="1"><stop offset="0" stop-color="#9f2fff"/><stop offset="1" stop-color="#0bb1d3"/></linearGradient><path d="m24 35c-1.654 0-3 1.346-3 3s1.346 3 3 3 3-1.346 3-3-1.346-3-3-3zm0 4c-.552 0-1-.448-1-1s.448-1 1-1 1 .448 1 1-.448 1-1 1zm8-4c-1.654 0-3 1.346-3 3s1.346 3 3 3 3-1.346 3-3-1.346-3-3-3zm0 4c-.552 0-1-.448-1-1s.448-1 1-1 1 .448 1 1-.448 1-1 1zm8-4c-1.654 0-3 1.346-3 3s1.346 3 3 3 3-1.346 3-3-1.346-3-3-3zm0 4c-.552 0-1-.448-1-1s.448-1 1-1 1 .448 1 1-.448 1-1 1zm20-8c-.352 0-.686.072-1 .184v-3.184c0-14.888-12.112-27-27-27s-27 12.112-27 27v3.184c-.314-.112-.648-.184-1-.184-1.654 0-3 1.346-3 3v8c0 1.302.839 2.402 2 2.816v5.184c0 7.168 5.832 13 13 13h15c2.206 0 4-1.794 4-4s-1.794-4-4-4h-6c-1.474 0-2.75.81-3.444 2h-5.556c-3.859 0-7-3.141-7-7v-1.685c.911.434 1.926.685 3 .685h2c1.641 0 3.088-.806 4-2.031.912 1.225 2.359 2.031 4 2.031h.586l3.293 3.293c.449.449 1.071.707 1.707.707 1.331 0 2.414-1.083 2.414-2.414v-1.586h12c1.641 0 3.088-.806 4-2.031.912 1.225 2.359 2.031 4 2.031h2c2.947 0 5.469-1.833 6.5-4.417.443.258.951.417 1.5.417 1.654 0 3-1.346 3-3v-8c0-1.654-1.346-3-3-3zm-37 28c0-1.103.897-2 2-2h6c1.103 0 2 .897 2 2s-.897 2-2 2h-8zm9-56c13.785 0 25 11.215 25 25v1.111c-.576-.589-1.256-1.072-2.008-1.429-.172-12.536-10.416-22.682-22.992-22.682s-22.82 10.146-22.992 22.681c-.752.358-1.432.841-2.008 1.43v-1.111c0-13.785 11.215-25 25-25zm18 24c-1.641 0-3.088.806-4 2.031-.912-1.225-2.359-2.031-4-2.031h-20c-1.641 0-3.088.806-4 2.031-.912-1.225-2.359-2.031-4-2.031h-2c-.324 0-.641.03-.953.073.49-11.148 9.687-20.073 20.953-20.073s20.463 8.925 20.953 20.073c-.312-.043-.629-.073-.953-.073zm-47 7c0-.552.448-1 1-1s1 .448 1 1v8c0 .552-.448 1-1 1s-1-.448-1-1zm13 25h5v2h-5c-6.065 0-11-4.935-11-11v-5.184c.175-.063.341-.14.5-.233.346.867.858 1.65 1.5 2.307v3.11c0 4.963 4.037 9 9 9zm-9-17v-8c0-2.757 2.243-5 5-5h1v18h-1c-2.757 0-5-2.243-5-5zm8 4.816v-17.632c1.161.414 2 1.514 2 2.816v12c0 1.302-.839 2.402-2 2.816zm27 .184h-14v3.586c0 .338-.47.53-.707.293l-3.879-3.879h-1.414c-1.654 0-3-1.346-3-3v-12c0-1.654 1.346-3 3-3h20c1.654 0 3 1.346 3 3v12c0 1.654-1.346 3-3 3zm5-3v-12c0-1.302.839-2.402 2-2.816v17.631c-1.161-.413-2-1.513-2-2.815zm5 3h-1v-18h1c2.757 0 5 2.243 5 5v8c0 2.757-2.243 5-5 5zm9-5c0 .552-.448 1-1 1s-1-.448-1-1v-8c0-.552.448-1 1-1s1 .448 1 1z" fill="url(#SVGID_1_)"/></svg>