<svg id="Layer_5" enable-background="new 0 0 64 64" height="512" viewBox="0 0 64 64" width="512" xmlns="http://www.w3.org/2000/svg" xmlns:xlink="http://www.w3.org/1999/xlink"><linearGradient id="SVGID_1_" gradientUnits="userSpaceOnUse" x1="32" x2="32" y1="63" y2="1"><stop offset="0" stop-color="#9f2fff"/><stop offset="1" stop-color="#0bb1d3"/></linearGradient><path d="m61 53h-25.78l-.462 1.847c-.318 1.268-1.451 2.153-2.758 2.153s-2.44-.885-2.758-2.153l-.462-1.847h-25.78c-1.103 0-2 .897-2 2v2c0 1.103.897 2 2 2h22.384c1.295 2.471 3.817 4 6.616 4s5.32-1.528 6.616-4h22.384c1.103 0 2-.897 2-2v-2c0-1.103-.897-2-2-2zm0 4h-23.618l-.487.975c-.934 1.866-2.809 3.025-4.895 3.025s-3.961-1.159-4.895-3.024l-.487-.976h-23.618v-2h24.22l.083.332c.539 2.16 2.471 3.668 4.697 3.668s4.158-1.508 4.697-3.668l.083-.332 24.22-.001zm-30-3v1h2v-1c0-1.654 1.346-3 3-3h25v-2h-25c-1.13 0-2.162.391-3 1.026v-.026c0-1.654 1.346-3 3-3h25v-2h-10v-39c0-2.757-2.243-5-5-5h-28c-2.757 0-5 2.243-5 5v39h-10v2h25c1.654 0 3 1.346 3 3v.026c-.838-.635-1.87-1.026-3-1.026h-25v2h25c1.654 0 3 1.346 3 3zm1-2.969c-.008-.011-.017-.02-.026-.031h.051c-.008.011-.017.02-.025.031zm17-45.031v3h-13.026c.635-.838 1.026-1.87 1.026-3v-3h9c1.654 0 3 1.346 3 3zm-20 0v-3h6v3c0 1.654-1.346 3-3 3s-3-1.346-3-3zm-11-3h9v3c0 1.13.391 2.162 1.026 3h-13.026v-3c0-1.654 1.346-3 3-3zm10 42h-13v-34h34v34h-13c-1.641 0-3.088.806-4 2.031-.912-1.225-2.359-2.031-4-2.031zm5-39c0 .552-.448 1-1 1s-1-.448-1-1 .448-1 1-1 1 .448 1 1zm12 0c0-.552.448-1 1-1s1 .448 1 1-.448 1-1 1-1-.448-1-1zm0 22c0-7.168-5.832-13-13-13s-13 5.832-13 13 5.832 13 13 13 13-5.832 13-13zm-13 11c-1.075 0-2.22-1.527-3.009-4h6.019c-.79 2.473-1.935 4-3.01 4zm-3.519-6c-.244-1.209-.408-2.553-.46-4h7.958c-.052 1.447-.217 2.791-.46 4zm-7.43-4h4.971c.046 1.419.184 2.763.409 4h-4.216c-.627-1.221-1.035-2.57-1.164-4zm10.949-12c1.075 0 2.22 1.527 3.009 4h-6.019c.79-2.473 1.935-4 3.01-4zm3.519 6c.244 1.209.408 2.553.46 4h-7.958c.052-1.447.217-2.791.46-4zm7.43 4h-4.971c-.046-1.419-.184-2.763-.409-4h4.216c.627 1.221 1.035 2.57 1.164 4zm-16.927 0h-4.971c.13-1.43.537-2.779 1.164-4h4.216c-.225 1.237-.364 2.581-.409 4zm11.956 2h4.971c-.13 1.43-.537 2.779-1.164 4h-4.216c.225-1.237.364-2.581.409-4zm2.501-8h-3.373c-.368-1.295-.837-2.422-1.391-3.341 1.873.676 3.517 1.834 4.764 3.341zm-12.193-3.341c-.553.919-1.023 2.046-1.391 3.341h-3.373c1.246-1.507 2.89-2.665 4.764-3.341zm-4.765 17.341h3.373c.368 1.295.837 2.422 1.391 3.341-1.873-.676-3.517-1.834-4.764-3.341zm12.193 3.341c.553-.919 1.023-2.046 1.391-3.341h3.373c-1.246 1.507-2.89 2.665-4.764 3.341z" fill="url(#SVGID_1_)"/></svg>