<svg id="Layer_5" enable-background="new 0 0 64 64" height="512" viewBox="0 0 64 64" width="512" xmlns="http://www.w3.org/2000/svg" xmlns:xlink="http://www.w3.org/1999/xlink"><linearGradient id="SVGID_1_" gradientUnits="userSpaceOnUse" x1="32" x2="32" y1="63.001" y2="1"><stop offset="0" stop-color="#9f2fff"/><stop offset="1" stop-color="#0bb1d3"/></linearGradient><path d="m16 29c0 .552-.448 1-1 1s-1-.448-1-1 .448-1 1-1 1 .448 1 1zm34-19c-2.757 0-5 2.243-5 5v1h2v-1c0-1.654 1.346-3 3-3s3 1.346 3 3c0 .939-.449 1.836-1.2 2.4l-2.8 2.1v4.5h2v-3.5l2-1.5c1.252-.939 2-2.435 2-4 0-2.757-2.243-5-5-5zm3 19c0 1.654-1.346 3-3 3s-3-1.346-3-3 1.346-3 3-3 3 1.346 3 3zm-2 0c0-.552-.449-1-1-1s-1 .448-1 1 .449 1 1 1 1-.448 1-1zm-13-19c-2.757 0-5 2.243-5 5v1h2v-1c0-1.654 1.346-3 3-3s3 1.346 3 3c0 .939-.449 1.836-1.2 2.4l-2.8 2.1v4.5h2v-3.5l2-1.5c1.252-.939 2-2.435 2-4 0-2.757-2.243-5-5-5zm3 19c0 1.654-1.346 3-3 3s-3-1.346-3-3 1.346-3 3-3 3 1.346 3 3zm-2 0c0-.552-.449-1-1-1s-1 .448-1 1 .449 1 1 1 1-.448 1-1zm24-13c0 2.287-.875 4.479-2.429 6.14 1.188 1.838 1.657 4.02 1.327 6.234-.519 3.468-3.157 6.408-6.566 7.316-1.542.412-3.135.407-4.658-.003-1.436 2.341-3.888 3.913-6.637 4.231l-1.859 2.231c-.45.54-1.111.85-1.814.85-1.304.001-2.364-1.059-2.364-2.361v-2.183c-1.306-.876-2.364-2.074-3.056-3.455-1.294-.009-2.587-.311-3.781-.88-1.635 1.217-3.621 1.88-5.663 1.88-2.073 0-4.039-.669-5.67-1.889l-1.832.611c-.034 1.127-.489 2.183-1.291 2.985-.487.487-1.074.828-1.708 1.043v1.601c1.767.866 3.143 2.27 4.006 3.959l3.594-6.676 8.48 4.712c.978.543 1.478 1.604 1.353 2.654h19.803l9.317 4.658c.893.447 1.448 1.344 1.448 2.342s-.555 1.895-1.447 2.342l-9.317 4.658h-22.236v1c0 1.654-1.344 3-2.996 3l-18.887.001c-1.632 0-3.17-.64-4.332-1.802-1.165-1.165-1.786-2.664-1.786-4.26v-11.878c0-2.879 1.728-5.43 4.4-6.499l.601-.239v-.855l-2.209-1.842c-2.409-2.006-3.791-4.955-3.791-8.092 0-5.808 4.726-10.534 10.534-10.534h1.705c1.221 0 2.3-.777 2.686-1.936l.521-1.563 1.704 1.022c1.028-1.261 2.347-2.259 3.857-2.857.175-4.809 4.142-8.666 8.993-8.666 1.798 0 3.515.525 5 1.525 1.363-.488 2.806-.636 4.228-.441 1.713-1.968 4.148-3.084 6.772-3.084 3.891 0 7.302 2.488 8.523 6.132 4.308.725 7.477 4.425 7.477 8.868zm-56 18.864v-1.036c0-.263-.107-.521-.293-.707l-.828-.828c-.567-.566-.879-1.32-.879-2.121v-.172c0-1.304.836-2.416 2-2.829v-1.171c0-1.654 1.346-3 3-3h6 1.5.669c1.561 0 2.831-1.27 2.831-2.831 0-.988-.527-1.919-1.375-2.428l-2.133-1.28c-.831 1.546-2.452 2.539-4.253 2.539h-1.705c-4.705 0-8.534 3.828-8.534 8.534 0 2.541 1.119 4.931 3.071 6.556zm13 26.136v-4h-12v-7.6c0-2.662-1.285-5.158-3.406-6.713-.383.712-.594 1.524-.594 2.375v11.878c0 1.061.413 2.059 1.163 2.809.821.821 1.857 1.253 2.955 1.253zm8-3c0-.552-.449-1-1-1h-1.618l-.741-1.481c-.271-.544-1.071-.672-1.501-.244l-1.14 1.139v4.586h5.004c.549 0 .996-.448.996-1zm1.816-1h21.184v-2h-23.382l-.03.059c1.041.208 1.878.959 2.228 1.941zm21.184-10h-19.382l-1 2h20.382zm-22.382 6h22.382v-2h-21.382zm32.04-1.553-7.658-3.829v8.764l7.658-3.829c.211-.106.342-.318.342-.553s-.131-.447-.342-.553zm-30.549-7.353-1.284-.714-5.065 9.624c.015 0 .029-.004.043-.004.821 0 1.579.337 2.124.91l4.46-8.92c.163-.325.041-.719-.278-.896zm-7.885-1.544 3.686 2.075 1.166-2.216-3.676-2.043zm-2.354 4.371c.079.479.13.966.13 1.464v6.615h.449l4.529-8.606-3.702-2.084zm-5.666-4.711-2.204 2.204-4.241-4.241-.616.247c-.463.186-.887.433-1.263.731 2.568 1.933 4.12 4.991 4.12 8.249v5.6h8v-6.615c0-2.643-1.477-4.994-3.796-6.175zm4.774-9.924c-.208-3.427-1.846-6.27-2.505-7.286h-.473-6c-.551 0-1 .448-1 1v3h-1c-.551 0-1 .448-1 1v.172c0 .263.107.521.293.707l.828.828c.567.566.879 1.32.879 2.121v4.758l3 3 1-1v-1.586h-2v-2h2.586c.645 0 1.251-.251 1.707-.707s.707-1.063.707-1.707v-1.307zm38.9-10.389.719-.629c1.528-1.333 2.403-3.253 2.403-5.268 0-3.636-2.728-6.631-6.345-6.966l-.704-.065-.173-.686c-.786-3.11-3.573-5.283-6.778-5.283-2.2 0-4.229 1.011-5.569 2.773l-.381.502-.618-.128c-1.392-.288-2.838-.149-4.177.427l-.539.231-.466-.357c-1.234-.947-2.704-1.448-4.25-1.448-3.86 0-7 3.141-7 7 0 .056.004.111.008.166l.043.935-.741.226c-1.333.407-2.513 1.194-3.43 2.236l.774.465c1.448.867 2.346 2.453 2.346 4.141 0 2.459-1.854 4.472-4.233 4.771.895 1.61 2.092 4.341 2.215 7.538 1.295.982 2.863 1.522 4.518 1.522 1.792 0 3.53-.648 4.893-1.825l.536-.463.614.352c1.222.697 2.566 1.013 3.898.914l.729-.053.334.674c.57 1.424 1.636 2.646 2.999 3.439l.497.289v3.311c0 .308.443.47.64.231l2.398-2.878.428-.028c2.503-.166 4.736-1.667 5.828-3.916l.398-.82.853.32c1.394.523 2.829.595 4.271.211 2.65-.706 4.701-2.988 5.103-5.679.294-1.966-.219-3.896-1.445-5.435z" fill="url(#SVGID_1_)"/></svg>