<svg id="Layer_5" enable-background="new 0 0 64 64" height="512" viewBox="0 0 64 64" width="512" xmlns="http://www.w3.org/2000/svg" xmlns:xlink="http://www.w3.org/1999/xlink"><linearGradient id="SVGID_1_" gradientUnits="userSpaceOnUse" x1="32" x2="32" y1="63" y2="1"><stop offset="0" stop-color="#9f2fff"/><stop offset="1" stop-color="#0bb1d3"/></linearGradient><path d="m61 21.184v-7.184c0-7.168-5.832-13-13-13h-8c-6.39 0-11.707 4.64-12.788 10.724-2.732-1.76-5.941-2.724-9.212-2.724-9.374 0-17 7.626-17 17 0 7.994 5.553 14.699 13 16.505v3.495c0 .537.153 1.034.401 1.471-.839.532-1.401 1.464-1.401 2.529v8c0 2.757 2.243 5 5 5s5-2.243 5-5v-8c0-1.065-.562-1.997-1.401-2.529.248-.437.401-.934.401-1.471v-3.488c4.297-1.044 8.073-3.739 10.448-7.568.182.026.363.056.552.056 2.012 0 3.664-1.497 3.943-3.432 1.649 2.086 4.197 3.432 7.057 3.432s5.408-1.346 7.057-3.432c.279 1.935 1.931 3.432 3.943 3.432 2.206 0 4-1.794 4-4v-.184c.314.112.648.184 1 .184 1.654 0 3-1.346 3-3v-4c0-1.302-.839-2.402-2-2.816zm-9.943-.752c-1.649-2.086-4.197-3.432-7.057-3.432s-5.408 1.346-7.057 3.432c-.279-1.935-1.931-3.432-3.943-3.432v-3c0-3.859 3.141-7 7-7h8c3.859 0 7 3.141 7 7v3c-2.012 0-3.664 1.497-3.943 3.432zm-22.057-6.432c0-6.065 4.935-11 11-11h8c6.065 0 11 4.935 11 11v7c0-1.474-.81-2.75-2-3.444v-3.556c0-4.963-4.037-9-9-9h-8c-4.963 0-9 4.037-9 9v3.556c-1.19.694-2 1.97-2 3.444zm-1 9c.552 0 1 .448 1 1v4c0 .552-.448 1-1 1s-1-.448-1-1v-4c0-.552.448-1 1-1zm-1-1.816c-1.161.414-2 1.514-2 2.816v4c0 1.586 1.241 2.875 2.801 2.98-1.848 3.624-5.62 6.02-9.801 6.02-6.065 0-11-4.935-11-11s4.935-11 11-11c3.593 0 6.938 1.755 9 4.693zm-6 36.816c0 1.654-1.346 3-3 3s-3-1.346-3-3v-8c0-.552.448-1 1-1h1 2 1c.552 0 1 .448 1 1zm-1-12c0 .552-.448 1-1 1h-2c-.552 0-1-.448-1-1v-3.128c.657.077 1.322.128 2 .128.674 0 1.34-.047 2-.125zm-2-5c-8.271 0-15-6.729-15-15s6.729-15 15-15c3.292 0 6.39 1.048 9 3.013v2.633c-2.398-2.308-5.601-3.646-9-3.646-7.168 0-13 5.832-13 13s5.832 13 13 13c4.719 0 9.005-2.579 11.284-6.544.269.685.724 1.269 1.299 1.71-2.756 4.238-7.493 6.834-12.583 6.834zm17-10c0 1.103-.897 2-2 2s-2-.897-2-2v-3-4-3c0-1.103.897-2 2-2s2 .897 2 2zm9 2c-3.859 0-7-3.141-7-7s3.141-7 7-7 7 3.141 7 7-3.141 7-7 7zm13-2c0 1.103-.897 2-2 2s-2-.897-2-2v-10c0-1.103.897-2 2-2s2 .897 2 2v3 4zm4-3c0 .552-.448 1-1 1s-1-.448-1-1v-4c0-.552.448-1 1-1s1 .448 1 1zm-14.414 9c-.636 0-1.258.258-1.707.707l-5.293 5.293h-9.586c-2.757 0-5 2.243-5 5v10c0 2.757 2.243 5 5 5h22c2.757 0 5-2.243 5-5v-10c0-2.757-2.243-5-5-5h-3v-3.586c0-1.331-1.083-2.414-2.414-2.414zm5.414 8c1.654 0 3 1.346 3 3v10c0 1.654-1.346 3-3 3h-22c-1.654 0-3-1.346-3-3v-10c0-1.654 1.346-3 3-3h10.414l5.879-5.879c.238-.238.707-.045.707.293v5.586zm-17.7 2-4.239 11.658 1.879.684.851-2.342h6.418l.852 2.342 1.879-.684-4.24-11.658zm-.782 8 2.182-6h.6l2.182 6zm19.482-1h-2v-2h2zm-6-2h2v2h-2zm-4 0h2v2h-2zm-22-27h2v2h-2zm-4 0h2v2h-2zm-4 0h2v2h-2zm-4 0h2v2h-2zm32 2.764c0 .382-.212.725-.553.895l-.895.447.895 1.789.895-.447c1.022-.512 1.658-1.541 1.658-2.684v-.764h2v2c0 .552-.448 1-1 1v2c1.654 0 3-1.346 3-3v-8h-6zm4-4.764v2h-2v-2z" fill="url(#SVGID_1_)"/></svg>