<svg id="Layer_5" enable-background="new 0 0 64 64" height="512" viewBox="0 0 64 64" width="512" xmlns="http://www.w3.org/2000/svg" xmlns:xlink="http://www.w3.org/1999/xlink"><linearGradient id="SVGID_1_" gradientUnits="userSpaceOnUse" x1="32" x2="32" y1="63" y2="1"><stop offset="0" stop-color="#9f2fff"/><stop offset="1" stop-color="#0bb1d3"/></linearGradient><path d="m8 63c.999 0 1.911-.588 2.324-1.496l4.676-10.287v-43.217c0-3.859-3.141-7-7-7s-7 3.141-7 7v43.217l4.676 10.286c.413.909 1.325 1.497 2.324 1.497zm.504-2.323c-.18.393-.828.394-1.008-.001l-4.253-9.358 2.511-1.883 2.246 3.368 2.246-3.368 2.511 1.883zm4.496-11.677-2-1.5v-34.5h2zm-4-1.303-1 1.501-1-1.501v-34.697h2zm-4-.197-2 1.5v-36h2zm3-44.5c2.757 0 5 2.243 5 5v3h-10v-3c0-2.757 2.243-5 5-5zm21.535 60c.502 0 .988-.147 1.406-.426l5.362-3.574h13.697c2.757 0 5-2.243 5-5v-16c0-2.757-2.243-5-5-5h-26c-2.757 0-5 2.243-5 5v16c0 2.757 2.243 5 5 5h3v1.465c0 1.397 1.138 2.535 2.535 2.535zm-5.535-6c-1.654 0-3-1.346-3-3v-16c0-1.654 1.346-3 3-3h26c1.654 0 3 1.346 3 3v16c0 1.654-1.346 3-3 3h-14.303l-5.865 3.91c-.332.221-.832-.044-.832-.445v-3.465zm34-56h-26c-2.757 0-5 2.243-5 5v16c0 2.757 2.243 5 5 5h3v1.465c0 1.397 1.138 2.535 2.535 2.535.502 0 .988-.147 1.406-.426l5.362-3.574h13.697c2.757 0 5-2.243 5-5v-16c0-2.757-2.243-5-5-5zm-5 2h4v4.132l-2-1.334-2 1.334zm8 19c0 1.654-1.346 3-3 3h-14.303l-5.865 3.91c-.332.22-.832-.044-.832-.445v-3.465h-5c-1.654 0-3-1.346-3-3v-16c0-1.654 1.346-3 3-3h19v7.868l4-2.666 4 2.666v-7.684c1.161.414 2 1.514 2 2.816zm-5.65-1.519c-.078.305-.351.519-.665.519-.378 0-.685-.307-.685-.685v-1.315-4c0-2.206-1.794-4-4-4s-4 1.794-4 4v4c0 2.206 1.794 4 4 4 1.004 0 1.911-.384 2.614-.997.493.603 1.233.997 2.071.997 1.234 0 2.306-.836 2.604-2.034l.681-2.724-1.939-.484zm-5.35.519c-1.103 0-2-.897-2-2v-4c0-1.103.897-2 2-2s2 .897 2 2v4c0 1.103-.897 2-2 2zm-13.792-16-4.182 17.771 1.947.459 1.466-6.23h5.121l1.466 6.229 1.947-.459-4.181-17.77zm-.298 10 1.882-8h.416l1.882 8zm15.09 24h-28v-2h28zm-2 2h2v2h-2zm-4 2v-2h2v2zm-2 0h-20v-2h20zm8 4h-28v-2h28zm-26 4h-2v-2h2zm2-2h24v2h-24zm24 6h-28v-2h28z" fill="url(#SVGID_1_)"/></svg>