<svg id="Layer_5" enable-background="new 0 0 64 64" height="512" viewBox="0 0 64 64" width="512" xmlns="http://www.w3.org/2000/svg" xmlns:xlink="http://www.w3.org/1999/xlink"><linearGradient id="SVGID_1_" gradientUnits="userSpaceOnUse" x1="32" x2="32" y1="63" y2="1"><stop offset="0" stop-color="#9f2fff"/><stop offset="1" stop-color="#0bb1d3"/></linearGradient><path d="m22 15c-1.654 0-3 1.346-3 3s1.346 3 3 3 3-1.346 3-3-1.346-3-3-3zm0 4c-.552 0-1-.448-1-1s.448-1 1-1 1 .448 1 1-.448 1-1 1zm0-10c-4.963 0-9 4.037-9 9s4.037 9 9 9 9-4.037 9-9-4.037-9-9-9zm0 16c-3.859 0-7-3.141-7-7s3.141-7 7-7 7 3.141 7 7-3.141 7-7 7zm30-20h-40c-3.859 0-7 3.141-7 7v12c0 3.859 3.141 7 7 7h40c3.859 0 7-3.141 7-7v-12c0-3.859-3.141-7-7-7zm-19 13c0 6.065-4.935 11-11 11s-11-4.935-11-11 4.935-11 11-11 11 4.935 11 11zm-.063-7h9.063c1.654 0 3 1.346 3 3v8c0 1.654-1.346 3-3 3h-9.063c1.3-2.023 2.063-4.422 2.063-7s-.764-4.977-2.063-7zm-20.937 18c-2.757 0-5-2.243-5-5v-12c0-2.757 2.243-5 5-5h3.104c-3.659 2.303-6.104 6.367-6.104 11s2.445 8.697 6.104 11zm45-5c0 2.757-2.243 5-5 5h-23.104c.901-.567 1.728-1.236 2.463-2h10.641c2.757 0 5-2.243 5-5v-8c0-2.757-2.243-5-5-5h-10.641c-.735-.764-1.562-1.433-2.463-2h23.104c2.757 0 5 2.243 5 5zm-5-23h-40c-6.065 0-11 4.935-11 11v12c0 6.065 4.935 11 11 11h3v20.184c-1.161.414-2 1.514-2 2.816v2c0 1.654 1.346 3 3 3h32c1.654 0 3-1.346 3-3v-2c0-1.302-.839-2.402-2-2.816v-20.184h3c6.065 0 11-4.935 11-11v-12c0-6.065-4.935-11-11-11zm-7 54v-3c0-1.654-1.346-3-3-3h-20c-1.654 0-3 1.346-3 3v3h-2v-19.113l3.196 5.113h-1.196v2h6.184c.414 1.161 1.514 2 2.816 2h8c1.302 0 2.402-.839 2.816-2h6.184v-2h-1.196l3.196-5.113v19.113zm-2 0h-22v-3c0-.552.448-1 1-1h20c.552 0 1 .448 1 1zm-16-13c0-.552.448-1 1-1h8c.552 0 1 .448 1 1s-.448 1-1 1h-8c-.552 0-1-.448-1-1zm14.446-1h-2.63c-.414-1.161-1.514-2-2.816-2h-8c-1.302 0-2.402.839-2.816 2h-2.63l-3.75-6h26.392zm7.554 19c0 .552-.448 1-1 1h-32c-.552 0-1-.448-1-1v-2c0-.552.448-1 1-1h32c.552 0 1 .448 1 1zm12-36c0 4.963-4.037 9-9 9h-40c-4.963 0-9-4.037-9-9v-12c0-4.963 4.037-9 9-9h40c4.963 0 9 4.037 9 9zm-18-9h-2v-2h2zm-4 0h-2v-2h2zm0 4h-2v-2h2zm4 0h-2v-2h2zm-4 4h-2v-2h2zm4 0h-2v-2h2zm9-12c-1.654 0-3 1.346-3 3s1.346 3 3 3 3-1.346 3-3-1.346-3-3-3zm0 4c-.552 0-1-.448-1-1s.448-1 1-1 1 .448 1 1-.448 1-1 1zm0 4c-1.654 0-3 1.346-3 3s1.346 3 3 3 3-1.346 3-3-1.346-3-3-3zm0 4c-.552 0-1-.448-1-1s.448-1 1-1 1 .448 1 1-.448 1-1 1z" fill="url(#SVGID_1_)"/></svg>