<svg version="1.0" xmlns="http://www.w3.org/2000/svg"
 width="200.000000pt" height="200.000000pt" viewBox="0 0 200.000000 200.000000"
 preserveAspectRatio="xMidYMid meet">
<g transform="translate(0.000000,200.000000) scale(0.100000,-0.100000)"
fill="#1a496f" stroke="none">
<path d="M280 1000 l0 -990 713 0 712 0 -2 727 -2 727 -61 -1 -61 -1 1 -660 0
-661 -292 -3 c-161 -2 -425 -2 -586 0 l-292 3 2 857 3 857 355 3 355 2 -3 65
-4 65 -419 0 -419 0 0 -990z"/>
<path d="M889 1447 c-197 -56 -310 -282 -279 -557 21 -187 92 -298 230 -364
58 -27 77 -31 175 -34 112 -4 203 11 267 44 26 14 28 18 28 80 0 59 -2 65 -17
59 -115 -50 -271 -69 -360 -44 -92 25 -156 121 -170 251 -4 44 -2 56 10 61 9
3 142 5 297 4 l280 -2 0 85 c0 192 -75 336 -208 397 -65 30 -184 40 -253 20z
m186 -131 c18 -8 44 -29 58 -48 26 -33 57 -130 57 -175 l0 -23 -215 0 c-118 0
-215 2 -215 5 0 23 26 117 40 145 52 102 165 142 275 96z"/>
</g>
</svg>
