<svg height="496pt" viewBox="-24 0 496 496" width="496pt" xmlns="http://www.w3.org/2000/svg" xmlns:xlink="http://www.w3.org/1999/xlink"><linearGradient id="a" gradientUnits="userSpaceOnUse" x1="224" x2="224" y1="496" y2="0"><stop offset="0" stop-color="#9f2fff"/><stop offset="1" stop-color="#0bb1d3"/></linearGradient><path d="m0 168c0-34.230469 24.03125-62.902344 56.097656-70.167969-.007812-.617187-.097656-1.214843-.097656-1.832031 0-44.113281 35.886719-80 80-80 23.0625 0 44.6875 9.921875 59.769531 26.902344 19.007813-26.246094 49.796875-42.902344 84.230469-42.902344 54.800781 0 99.832031 42.59375 103.726562 96.40625 36.082032 3.875 64.273438 34.503906 64.273438 71.59375 0 39.695312-32.296875 72-72 72h-40v-16h40c30.871094 0 56-25.121094 56-56s-25.128906-56-56-56h-8v-8c0-48.519531-39.480469-88-88-88-43.160156 0-79.65625 30.832031-86.785156 73.328125l-15.78125-2.648437c1.742187-10.398438 5.054687-20.160157 9.535156-29.183594-12.082031-15.976563-30.808594-25.496094-50.96875-25.496094-35.289062 0-64 28.710938-64 64 9.328125 0 18.414062 1.761719 27 5.238281l-6 14.832031c-6.671875-2.703124-13.734375-4.070312-21-4.070312-30.871094 0-56 25.121094-56 56s25.128906 56 56 56h40v16h-40c-39.703125 0-72-32.304688-72-72zm64 328v-128h-36.945312l40-80h313.890624l40 80h-36.945312v128zm148.945312-192 24 48h158.109376l-24-48zm-4.945312 176h160v-112h-140.945312l-19.054688-38.113281zm-16-150.113281-19.054688 38.113281h-92.945312v112h112zm-28.945312 22.113281 24-48h-110.109376l-24 48zm92.945312 112h64v-16h-64zm80 0h16v-16h-16zm-80-32h96v-16h-96zm-32-208c13.230469 0 24 10.769531 24 24s-10.769531 24-24 24-24-10.769531-24-24 10.769531-24 24-24zm0 16c-4.414062 0-8 3.59375-8 8s3.585938 8 8 8 8-3.59375 8-8-3.585938-8-8-8zm40 8h16c0-30.878906-25.128906-56-56-56s-56 25.121094-56 56h16c0-22.054688 17.945312-40 40-40s40 17.945312 40 40zm-128 0h16c0-39.695312 32.296875-72 72-72s72 32.304688 72 72h16c0-48.519531-39.480469-88-88-88s-88 39.480469-88 88zm200-144h16c0-39.695312-32.296875-72-72-72v16c30.871094 0 56 25.121094 56 56zm-288 64c0-13.230469 10.769531-24 24-24v-16c-22.054688 0-40 17.945312-40 40zm0 0" fill="url(#a)"/></svg>