<svg height="496pt" viewBox="0 0 496 496" width="496pt" xmlns="http://www.w3.org/2000/svg" xmlns:xlink="http://www.w3.org/1999/xlink"><linearGradient id="a" gradientTransform="matrix(8 0 0 -8 -8 504)" gradientUnits="userSpaceOnUse" x1="32" x2="32" y1="1" y2="63"><stop offset="0" stop-color="#9f2fff"/><stop offset="1" stop-color="#0bb1d3"/></linearGradient><path d="m224 160h-160v-16h160zm-160 192h160v-16h-160zm-32-96h160v-16h-160zm464-232v112c0 13.230469-10.769531 24-24 24h-144c-13.230469 0-24-10.769531-24-24v-40h-8c-4.40625 0-8 3.59375-8 8v304c0 4.40625 3.59375 8 8 8h8v-24c0-13.230469 10.769531-24 24-24h67.054688l9.371093-18.734375c4.085938-8.1875 12.316407-13.265625 21.460938-13.265625h46.113281c13.230469 0 24 10.769531 24 24v112c0 13.230469-10.769531 24-24 24h-144c-13.230469 0-24-10.769531-24-24v-40h-8c-13.230469 0-24-10.769531-24-24v-152h-16v8c0 13.230469-10.769531 24-24 24v16c13.230469 0 24 10.769531 24 24v32c0 13.230469-10.769531 24-24 24h-208c-13.230469 0-24-10.769531-24-24v-32c0-13.230469 10.769531-24 24-24v-16c-13.230469 0-24-10.769531-24-24v-32c0-13.230469 10.769531-24 24-24v-16c-13.230469 0-24-10.769531-24-24v-32c0-13.230469 10.769531-24 24-24h208c13.230469 0 24 10.769531 24 24v32c0 13.230469-10.769531 24-24 24v16c13.230469 0 24 10.769531 24 24v8h16v-136c0-13.230469 10.769531-24 24-24h8v-24c0-13.230469 10.769531-24 24-24h67.054688l9.371093-18.734375c4.085938-8.1875 12.316407-13.265625 21.460938-13.265625h46.113281c13.230469 0 24 10.769531 24 24zm-472 152h208c4.40625 0 8-3.59375 8-8v-32c0-4.40625-3.59375-8-8-8h-208c-4.40625 0-8 3.59375-8 8v32c0 4.40625 3.59375 8 8 8zm16 16v16h176v-16zm192 128h-208c-4.40625 0-8 3.59375-8 8v32c0 4.40625 3.59375 8 8 8h208c4.40625 0 8-3.59375 8-8v-32c0-4.40625-3.59375-8-8-8zm-16-16v-16h-176v16zm24-72c0-4.40625-3.59375-8-8-8h-208c-4.40625 0-8 3.59375-8 8v32c0 4.40625 3.59375 8 8 8h208c4.40625 0 8-3.59375 8-8zm80 168h160v-40c0-4.40625-3.59375-8-8-8h-46.113281c-3.046875 0-5.789063 1.695312-7.152344 4.425781l-13.789063 27.574219h-76.945312c-4.40625 0-8 3.59375-8 8zm0 72c0 4.40625 3.59375 8 8 8h144c4.40625 0 8-3.59375 8-8v-56h-160zm160-392h-160v56c0 4.40625 3.59375 8 8 8h144c4.40625 0 8-3.59375 8-8zm0-56c0-4.40625-3.59375-8-8-8h-46.113281c-3.046875 0-5.789063 1.695312-7.152344 4.425781l-13.789063 27.574219h-76.945312c-4.40625 0-8 3.59375-8 8v8h160zm-432 120h-16v16h16zm-16 208h16v-16h-16zm176-96h16v-16h-16zm0 0" fill="url(#a)"/></svg>