<svg height="496pt" viewBox="0 0 496 496" width="496pt" xmlns="http://www.w3.org/2000/svg" xmlns:xlink="http://www.w3.org/1999/xlink"><linearGradient id="a" gradientTransform="matrix(8 0 0 -8 -8 504)" gradientUnits="userSpaceOnUse" x1="32" x2="32" y1="1" y2="63"><stop offset="0" stop-color="#9f2fff"/><stop offset="1" stop-color="#0bb1d3"/></linearGradient><path d="m0 496h496v-496h-496zm16-480h464v48h-464zm0 64h464v400h-464zm304 64h-32v48h-32v-48h-224v80h16v16h-16v80h16v16h-16v80h224v-48h32v48h32v32h144v-80h-144v32h-16v-112h16v32h144v-80h-144v32h-16v-112h16v32h144v-80h-144zm-272 48h16v-16h-16v-16h192v16h-16v16h16v16h-192zm192 96v16h-64.207031c5.078125-6.703125 8.207031-14.960938 8.207031-24s-3.128906-17.296875-8.207031-24h64.207031v16h-16v16zm-96-32c13.230469 0 24 10.769531 24 24s-10.769531 24-24 24-24-10.769531-24-24 10.769531-24 24-24zm-80-16v-16h160v16zm160 80v16h-160v-16zm-176-32h16v-16h-16v-16h64.207031c-5.078125 6.703125-8.207031 14.960938-8.207031 24s3.128906 17.296875 8.207031 24h-64.207031zm192 80h-16v16h16v16h-192v-16h16v-16h-16v-16h192zm48-16h-32v-16h-16v-16h16v-80h-16v-16h16v-16h32zm48 32h112v48h-112zm0-128h112v48h-112zm0-128h112v48h-112zm16 16h80v16h-80zm0 256h80v16h-80zm64-128h16v16h-16zm-32 0h16v16h-16zm-32 0h16v16h-16zm-320-240h16v16h-16zm32 0h16v16h-16zm32 0h16v16h-16zm0 0" fill="url(#a)"/></svg>