<svg height="496pt" viewBox="0 -1 496 496" width="496pt" xmlns="http://www.w3.org/2000/svg" xmlns:xlink="http://www.w3.org/1999/xlink"><linearGradient id="a" gradientTransform="matrix(8 0 0 -8 -8 504)" gradientUnits="userSpaceOnUse" x1="32" x2="32" y1="1.256" y2="63"><stop offset="0" stop-color="#9f2fff"/><stop offset="1" stop-color="#0bb1d3"/></linearGradient><path d="m0 432h208v-16h-192v-336h464v336h-128v16h144v-432h-496zm16-416h464v48h-464zm16 232c0 83.816406 68.183594 152 152 152h8v-304h-8c-83.816406 0-152 68.183594-152 152zm16.390625 8h56c1.203125 25.359375 7.746094 47.984375 16.714844 67.246094-17.304688 6.714844-28.859375 14.785156-34.5625 19.417968-22.070313-22.710937-36.183594-53.0625-38.152344-86.664062zm50.226563 97.601562c5.460937-4.105468 15.4375-10.554687 29.949218-15.984374 10.847656 19.144531 23.265625 34.183593 33.136719 44.503906-23.664063-3.921875-45.207031-14.03125-63.085937-28.519532zm77.382812 20.085938c-8.871094-9.039062-20.832031-22.984375-31.503906-41.007812 9.238281-2.289063 19.785156-3.902344 31.503906-4.441407zm0-61.441406c-14.894531.609375-28 2.832031-39.328125 5.921875-8.609375-17.855469-15.015625-38.800781-16.265625-62.160157h55.601562zm0-72.246094h-55.601562c1.257812-23.359375 7.65625-44.304688 16.265624-62.167969 11.328126 3.089844 24.433594 5.3125 39.335938 5.921875zm0-72.246094c-11.71875-.539062-22.265625-2.144531-31.503906-4.441406 10.671875-18.023438 22.632812-31.96875 31.503906-41.007812zm-14.296875-53.875c-9.871094 10.328125-22.289063 25.367188-33.136719 44.503906-14.511718-5.429687-24.488281-11.878906-29.949218-15.984374 17.878906-14.488282 39.421874-24.597657 63.085937-28.519532zm-40.597656 58.875c-8.96875 19.253906-15.511719 41.886719-16.714844 67.246094h-56c1.96875-33.601562 16.089844-63.953125 38.144531-86.65625 5.710938 4.625 17.265625 12.695312 34.570313 19.410156zm118.894531 115.246094h16v120h-16.640625l40.640625 58.046875 40.640625-58.046875h-16.640625v-100.28125l48-32v-75.71875h-31.367188l71.367188-101.953125 71.367188 101.953125h-31.367188v104h-16v-120h16.640625l-40.640625-58.046875-40.640625 58.046875h16.640625v100.28125l-48 32v75.71875h31.367188l-71.367188 101.953125-71.367188-101.953125h31.367188zm-208-256h16v16h-16zm32 0h16v16h-16zm32 0h16v16h-16zm336 304h-16v-16h16zm0 32h-16v-16h16zm-16 16h16v16h-16zm-176-128h16v16h-16zm0-32h16v16h-16zm16-16h-16v-16h16zm0 0" fill="url(#a)"/></svg>