<svg height="496pt" viewBox="0 0 496 496" width="496pt" xmlns="http://www.w3.org/2000/svg" xmlns:xlink="http://www.w3.org/1999/xlink"><linearGradient id="a" gradientUnits="userSpaceOnUse" x1="248" x2="248" y1="496" y2="0"><stop offset="0" stop-color="#9f2fff"/><stop offset="1" stop-color="#0bb1d3"/></linearGradient><path d="m448 272v-80l-8-32.984375v-135.015625c0-13.230469-10.769531-24-24-24s-24 10.769531-24 24v135.015625l-7.761719 31.046875-.214843 81.9375h-64.328126c29.257813-21.902344 48.304688-56.71875 48.304688-96 0-66.167969-53.832031-120-120-120s-120 53.832031-120 120c0 39.28125 19.046875 74.097656 48.304688 96h-64.304688v-80l-8-32.984375v-135.015625c0-13.230469-10.769531-24-24-24s-24 10.769531-24 24v135.015625l-7.761719 31.046875-.214843 81.9375h-20.023438l-28 37.335938v117.328124l28 37.335938h13.753906l8 32h76.492188l8-32h227.507812l8 32h76.492188l8-32h13.753906l28-37.335938v-117.328124l-28-37.335938zm-48-79.015625 7.761719-31.046875.238281-137.9375c0-4.414062 3.59375-8 8-8s8 3.585938 8 8v136l8 32.984375v47.015625h-32zm0 63.015625h32v16h-32zm-77.0625-8.070312c-3.777344-3.136719-11.496094-8.769532-23.234375-13.808594 6.304687-14.296875 10.871094-31.058594 11.921875-50.121094h39.96875c-1.898438 24.726562-12.441406 47.039062-28.65625 63.929688zm-12.175781 10.804687c-11.496094 8.746094-24.824219 15.152344-39.347657 18.511719 6.722657-7.324219 14.25-16.941406 21.035157-28.75 8.695312 3.632812 14.789062 7.609375 18.3125 10.238281zm40.832031-90.734375h-39.96875c-1.050781-19.0625-5.625-35.824219-11.921875-50.121094 11.738281-5.039062 19.457031-10.671875 23.234375-13.808594 16.214844 16.890626 26.757812 39.203126 28.65625 63.929688zm-40.832031-74.734375c-3.523438 2.628906-9.617188 6.597656-18.3125 10.238281-6.785157-11.808594-14.3125-21.425781-21.035157-28.75 14.515626 3.359375 27.851563 9.765625 39.347657 18.511719zm-54.761719-11.425781c6.222656 6.359375 13.816406 15.40625 20.734375 26.808594-6.167969 1.503906-13.078125 2.632812-20.734375 3.105468zm0 45.914062c10.734375-.585937 20.191406-2.289062 28.449219-4.578125 5.808593 12.792969 10.09375 27.808594 11.167969 44.824219h-39.617188zm0 56.246094h39.617188c-1.082032 16.992188-5.386719 32.007812-11.226563 44.808594-8.238281-2.28125-17.679687-3.984375-28.390625-4.5625zm0 56.246094c7.632812.472656 14.519531 1.59375 20.671875 3.089844-6.902344 11.359374-14.472656 20.390624-20.671875 26.761718zm-36.734375 3.097656c6.167969-1.503906 13.078125-2.632812 20.734375-3.105469v29.914063c-6.222656-6.351563-13.816406-15.398438-20.734375-26.808594zm5.328125 33.902344c-14.523438-3.359375-27.851562-9.765625-39.347656-18.511719 3.523437-2.628906 9.617187-6.597656 18.3125-10.238281 6.777344 11.808594 14.304687 21.425781 21.035156 28.75zm-13.042969-48.421875c-5.808593-12.792969-10.09375-27.808594-11.167969-44.824219h39.617188v40.246094c-10.734375.578125-20.191406 2.289062-28.449219 4.578125zm-11.167969-60.824219c1.082032-16.992188 5.394532-32.007812 11.226563-44.808594 8.238281 2.28125 17.679687 3.984375 28.390625 4.5625v40.246094zm18.945313-59.335938c6.902344-11.359374 14.472656-20.390624 20.671875-26.761718v29.851562c-7.632812-.472656-14.519531-1.59375-20.671875-3.089844zm5.265625-33.910156c-6.722656 7.324219-14.25 16.941406-21.035156 28.75-8.695313-3.632812-14.789063-7.609375-18.3125-10.238281 11.488281-8.746094 24.824218-15.152344 39.347656-18.511719zm-51.53125 29.316406c3.777344 3.136719 11.496094 8.769532 23.234375 13.808594-6.304687 14.296875-10.871094 31.058594-11.921875 50.121094h-39.96875c1.898438-24.726562 12.441406-47.039062 28.65625-63.929688zm0 143.859376c-16.214844-16.890626-26.757812-39.203126-28.65625-63.929688h39.96875c1.050781 19.0625 5.625 35.824219 11.921875 50.121094-11.738281 5.046875-19.457031 10.671875-23.234375 13.808594zm-109.0625-54.945313 7.761719-31.046875.238281-137.9375c0-4.414062 3.59375-8 8-8s8 3.585938 8 8v136l8 32.984375v47.015625h-32zm0 63.015625h32v16h-32zm49.753906 224h-51.507812l-4-16h59.507812zm222.246094-32h-300l-20-26.664062v-53.335938h320zm97.753906 32h-51.507812l-4-16h59.507812zm46.246094-58.664062-20 26.664062h-108v-80h128zm0-69.335938h-464v-37.335938l20-26.664062h169.273438c13.292968 5.089844 27.664062 8 42.726562 8 15.128906 0 29.542969-2.929688 42.886719-8.054688v.054688h169.113281l20 26.664062zm-32 32h-80v48h80zm-16 32h-48v-16h48zm-240-32h-144v48h144zm-112 32h-16v-16h16zm32 0h-16v-16h16zm32 0h-16v-16h16zm32 0h-16v-16h16zm56 16c13.230469 0 24-10.769531 24-24s-10.769531-24-24-24-24 10.769531-24 24 10.769531 24 24 24zm0-32c4.40625 0 8 3.585938 8 8s-3.59375 8-8 8-8-3.585938-8-8 3.59375-8 8-8zm64 32c13.230469 0 24-10.769531 24-24s-10.769531-24-24-24-24 10.769531-24 24 10.769531 24 24 24zm0-32c4.40625 0 8 3.585938 8 8s-3.59375 8-8 8-8-3.585938-8-8 3.59375-8 8-8zm-248-96h16v16h-16zm32 0h16v16h-16zm32 0h16v16h-16zm32 0h16v16h-16zm0 0" fill="url(#a)"/></svg>