<svg version="1.0" xmlns="http://www.w3.org/2000/svg"
 width="503.000000pt" height="552.000000pt" viewBox="0 0 503.000000 552.000000"
 preserveAspectRatio="xMidYMid meet">
<g transform="translate(0.000000,552.000000) scale(0.100000,-0.100000)"
fill="#333761" stroke="none">
<path d="M1250 4801 l-1245 -716 -3 -1316 -2 -1315 1247 -724 c686 -399 1257
-725 1268 -725 11 0 582 326 1268 725 l1247 724 -2 1315 -3 1316 -1249 717
c-686 395 -1255 718 -1265 717 -9 0 -576 -323 -1261 -718z m2493 -66 l1217
-699 -2 -1269 -3 -1270 -1219 -708 -1219 -708 -36 19 c-20 11 -569 329 -1221
708 l-1185 689 -3 1270 -2 1269 1221 702 c672 386 1225 700 1228 698 3 -1 554
-317 1224 -701z"/>
<path d="M1798 4941 c-389 -224 -716 -415 -727 -422 -18 -13 39 -48 707 -432
400 -230 732 -419 737 -419 18 0 1463 837 1456 844 -11 12 -1436 831 -1451
834 -8 2 -333 -180 -722 -405z"/>
<path d="M1030 3618 l1 -843 731 -420 c402 -231 1058 -608 1457 -838 399 -230
738 -425 754 -433 l27 -15 0 843 0 843 -738 424 c-405 234 -1072 617 -1480
853 -409 235 -746 428 -748 428 -2 0 -4 -379 -4 -842z"/>
<path d="M1795 1453 c-396 -228 -726 -418 -733 -422 -9 -5 241 -155 720 -431
708 -408 734 -422 758 -408 1149 662 1440 831 1438 833 -2 2 -1430 825 -1458
841 -3 1 -330 -184 -725 -413z"/>
</g>
</svg>
