<svg version="1.0" xmlns="http://www.w3.org/2000/svg"
 width="512.000000pt" height="512.000000pt" viewBox="0 0 512.000000 512.000000"
 preserveAspectRatio="xMidYMid meet">
<g transform="translate(0.000000,512.000000) scale(0.100000,-0.100000)"
fill="#293036" stroke="none">
<path d="M2432 5105 c-35 -8 -87 -25 -115 -38 -29 -13 -429 -246 -888 -518
-803 -475 -837 -497 -915 -574 -97 -96 -155 -203 -179 -328 -22 -117 -22
-2057 0 -2174 24 -125 82 -232 179 -328 78 -77 112 -99 916 -574 459 -272 858
-505 886 -518 65 -30 172 -53 244 -53 72 0 179 23 244 53 28 13 427 246 886
518 804 475 838 497 916 574 97 96 155 203 179 328 22 117 22 2057 0 2174 -24
125 -82 232 -179 328 -78 77 -112 99 -915 574 -459 272 -858 505 -887 518
-110 50 -250 64 -372 38z m293 -129 c34 -12 442 -248 907 -525 884 -524 914
-544 974 -646 25 -43 54 -113 69 -165 6 -23 4 -22 -20 8 -50 60 -114 79 -200
57 -41 -11 -154 -75 -418 -238 -1070 -660 -1304 -806 -1357 -849 -32 -26 -76
-75 -99 -109 -81 -121 -76 -48 -76 -1189 0 -949 1 -1018 18 -1065 21 -59 42
-86 86 -113 l33 -20 -40 -7 c-50 -8 -119 1 -198 26 -40 13 -353 193 -910 523
-930 552 -927 550 -998 685 -67 129 -66 95 -66 1211 0 1115 -1 1082 66 1210
71 135 61 129 988 679 466 277 871 512 899 523 111 43 231 44 342 4z m505
-2752 c0 -74 1 -76 23 -70 43 13 122 17 136 7 13 -8 13 -19 -2 -83 -24 -100
-26 -102 -94 -103 -118 -2 -213 -85 -213 -188 0 -62 22 -76 138 -87 93 -9 121
-18 160 -54 33 -29 42 -49 52 -111 20 -125 -36 -292 -139 -407 l-51 -56 0 -75
c0 -56 -4 -80 -16 -92 -18 -18 -88 -55 -104 -55 -6 0 -10 30 -10 76 0 69 -2
75 -17 69 -10 -4 -53 -10 -95 -13 -63 -4 -79 -2 -83 10 -6 15 28 164 39 176 3
3 33 4 66 3 136 -5 250 94 250 217 0 75 -24 92 -144 102 -104 9 -144 25 -180
73 -18 25 -21 42 -21 135 0 103 1 110 37 185 22 45 58 100 88 131 l50 53 0 75
c0 81 6 95 60 132 61 43 70 37 70 -50z m848 -876 l-3 -63 -210 -128 -210 -127
-3 67 c-2 37 1 69 5 71 4 1 96 56 203 122 107 65 201 119 208 119 10 1 12 -15
10 -61z"/>
</g>
</svg>
