<svg id="Capa_1" enable-background="new 0 0 510 510" height="512" viewBox="0 0 510 510" width="512" xmlns="http://www.w3.org/2000/svg" xmlns:xlink="http://www.w3.org/1999/xlink"><linearGradient id="lg1"><stop offset="0" stop-color="#ff755c"/><stop offset="1" stop-color="#ff4181"/></linearGradient><linearGradient id="SVGID_1_" gradientTransform="matrix(.707 .707 -.707 .707 -264.179 6489.967)" gradientUnits="userSpaceOnUse" x1="-4079.901" x2="-4020.602" xlink:href="#lg1" y1="-5016.13" y2="-4956.831"/><linearGradient id="lg2"><stop offset="0" stop-color="#ff9356" stop-opacity="0"/><stop offset="1" stop-color="#ff755c"/></linearGradient><linearGradient id="SVGID_2_" gradientTransform="matrix(.707 .707 -.707 .707 851.542 582.195)" gradientUnits="userSpaceOnUse" x1="-626.715" x2="-692.191" xlink:href="#lg2" y1="-8.224" y2="-40.962"/><linearGradient id="SVGID_3_" gradientTransform="matrix(-.707 -.707 .707 -.707 -516.784 -3625.004)" gradientUnits="userSpaceOnUse" x1="-3327.54" x2="-3268.241" xlink:href="#lg1" y1="-2438.071" y2="-2378.772"/><linearGradient id="SVGID_4_" gradientTransform="matrix(-.707 -.707 .707 -.707 -1632.505 2282.768)" gradientUnits="userSpaceOnUse" x1="125.647" x2="60.171" xlink:href="#lg2" y1="2569.835" y2="2537.097"/><linearGradient id="SVGID_5_" gradientTransform="matrix(-.707 .707 -.707 -.707 -5447.967 1331.821)" gradientUnits="userSpaceOnUse" x1="-4832.263" x2="-4772.964" xlink:href="#lg1" y1="-3511.407" y2="-3452.108"/><linearGradient id="SVGID_6_" gradientTransform="matrix(-.707 .707 -.707 -.707 459.805 2447.543)" gradientUnits="userSpaceOnUse" x1="-1379.076" x2="-1444.552" xlink:href="#lg2" y1="1496.5" y2="1463.762"/><linearGradient id="SVGID_7_" gradientTransform="matrix(.707 -.707 .707 .707 4667.004 1079.216)" gradientUnits="userSpaceOnUse" x1="-2575.178" x2="-2515.879" xlink:href="#lg1" y1="-3942.794" y2="-3883.495"/><linearGradient id="SVGID_8_" gradientTransform="matrix(.707 -.707 .707 .707 -1240.768 -36.505)" gradientUnits="userSpaceOnUse" x1="878.009" x2="812.533" xlink:href="#lg2" y1="1065.112" y2="1032.374"/><linearGradient id="lg3"><stop offset="0" stop-color="#ffce47"/><stop offset="1" stop-color="#ff9356"/></linearGradient><linearGradient id="SVGID_9_" gradientUnits="userSpaceOnUse" x1="150.685" x2="373.478" xlink:href="#lg3" y1="150.685" y2="373.478"/><linearGradient id="SVGID_10_" gradientUnits="userSpaceOnUse" x1="216.771" x2="276.071" xlink:href="#lg3" y1="30.41" y2="89.709"/><linearGradient id="SVGID_11_" gradientUnits="userSpaceOnUse" x1="281.466" x2="215.99" xlink:href="#lg2" y1="71.956" y2="39.218"/><linearGradient id="SVGID_12_" gradientTransform="matrix(-1 0 0 -1 -3942.491 -2007.386)" gradientUnits="userSpaceOnUse" x1="-4235.72" x2="-4176.421" xlink:href="#lg3" y1="-2486.976" y2="-2427.677"/><linearGradient id="SVGID_13_" gradientTransform="matrix(-1 0 0 -1 -554 2958.974)" gradientUnits="userSpaceOnUse" x1="-782.534" x2="-848.01" xlink:href="#lg2" y1="2520.93" y2="2488.192"/><linearGradient id="SVGID_14_" gradientTransform="matrix(0 1 -1 0 -3924.36 4984.491)" gradientUnits="userSpaceOnUse" x1="-4767.72" x2="-4708.421" xlink:href="#lg3" y1="-4403.95" y2="-4344.651"/><linearGradient id="SVGID_15_" gradientTransform="matrix(0 1 -1 0 1042 1596)" gradientUnits="userSpaceOnUse" x1="-1314.534" x2="-1380.01" xlink:href="#lg2" y1="603.956" y2="571.218"/><linearGradient id="SVGID_16_" gradientTransform="matrix(0 -1 1 0 3049.386 -2346.491)" gradientUnits="userSpaceOnUse" x1="-2639.72" x2="-2580.421" xlink:href="#lg3" y1="-3018.976" y2="-2959.677"/><linearGradient id="SVGID_17_" gradientTransform="matrix(0 -1 1 0 -1916.974 1042)" gradientUnits="userSpaceOnUse" x1="813.466" x2="747.99" xlink:href="#lg2" y1="1988.93" y2="1956.192"/><linearGradient id="SVGID_18_" gradientTransform="matrix(-1 0 0 -1 -554 2638)" gradientUnits="userSpaceOnUse" x1="-893.167" x2="-713.405" xlink:href="#lg3" y1="2298.833" y2="2478.596"/><linearGradient id="SVGID_19_" gradientUnits="userSpaceOnUse" x1="392.765" x2="172.249" y1="352.026" y2="163.811"><stop offset="0" stop-color="#843561" stop-opacity="0"/><stop offset="1" stop-color="#3a2f4d"/></linearGradient><linearGradient id="lg4"><stop offset="0" stop-color="#ffdecf"/><stop offset="1" stop-color="#faa68e"/></linearGradient><linearGradient id="SVGID_20_" gradientUnits="userSpaceOnUse" x1="146.499" x2="171.735" xlink:href="#lg4" y1="269.201" y2="325.798"/><linearGradient id="SVGID_21_" gradientUnits="userSpaceOnUse" x1="349.894" x2="375.13" xlink:href="#lg4" y1="269.201" y2="325.798"/><linearGradient id="SVGID_22_" gradientUnits="userSpaceOnUse" x1="248.36" x2="356.534" xlink:href="#lg4" y1="260.007" y2="368.182"/><linearGradient id="lg5"><stop offset="0" stop-color="#ff9356" stop-opacity="0"/><stop offset="1" stop-color="#ff4181"/></linearGradient><linearGradient id="SVGID_23_" gradientUnits="userSpaceOnUse" x1="264.961" x2="241.942" xlink:href="#lg5" y1="300.612" y2="174.89"/><linearGradient id="lg6"><stop offset="0" stop-color="#5a7587"/><stop offset="1" stop-color="#092a40"/></linearGradient><linearGradient id="SVGID_24_" gradientUnits="userSpaceOnUse" x1="238.998" x2="295.441" xlink:href="#lg6" y1="157.802" y2="310.529"/><linearGradient id="lg7"><stop offset="0" stop-color="#092a40" stop-opacity="0"/><stop offset="1" stop-color="#092a40"/></linearGradient><linearGradient id="SVGID_25_" gradientUnits="userSpaceOnUse" x1="181.03" x2="250.089" xlink:href="#lg7" y1="200.045" y2="257.816"/><linearGradient id="SVGID_26_" gradientUnits="userSpaceOnUse" x1="202.302" x2="222.116" xlink:href="#lg6" y1="299.916" y2="319.73"/><linearGradient id="SVGID_27_" gradientUnits="userSpaceOnUse" x1="208.557" x2="229.586" xlink:href="#lg7" y1="311.504" y2="272.394"/><linearGradient id="SVGID_28_" gradientUnits="userSpaceOnUse" x1="296.25" x2="316.064" xlink:href="#lg6" y1="299.916" y2="319.73"/><linearGradient id="SVGID_29_" gradientUnits="userSpaceOnUse" x1="302.505" x2="323.533" xlink:href="#lg7" y1="311.504" y2="272.394"/><linearGradient id="SVGID_30_" gradientUnits="userSpaceOnUse" x1="250.997" x2="266.702" xlink:href="#lg1" y1="350.266" y2="376.965"/><linearGradient id="SVGID_31_" gradientUnits="userSpaceOnUse" x1="255" x2="255" xlink:href="#lg5" y1="330.066" y2="292.541"/><g><g><g><g><path d="m449.977 128.978v-56.638c0-6.802-5.514-12.317-12.317-12.317h-56.638c-9.589 0-14.39 11.593-7.61 18.373l9.153 9.153-34.509 34.509c-3.152 3.152-3.152 8.262 0 11.414l28.472 28.472c3.152 3.152 8.262 3.152 11.414 0l34.509-34.509 9.153 9.153c6.78 6.78 18.373 1.978 18.373-7.61z" fill="url(#SVGID_1_)"/><path d="m376.528 161.944c3.152 3.152 8.262 3.152 11.414 0l34.509-34.509 9.153 9.153c6.78 6.78 18.373 1.978 18.373-7.61v-56.638c0-3.401-1.379-6.48-3.607-8.709l-84.077 84.077z" fill="url(#SVGID_2_)"/></g><g><path d="m60.023 381.022v56.638c0 6.802 5.514 12.317 12.317 12.317h56.638c9.588 0 14.39-11.593 7.61-18.373l-9.153-9.153 34.509-34.509c3.152-3.152 3.152-8.262 0-11.414l-28.472-28.472c-3.152-3.152-8.262-3.152-11.414 0l-34.508 34.509-9.153-9.153c-6.781-6.78-18.374-1.978-18.374 7.61z" fill="url(#SVGID_3_)"/><path d="m133.472 348.056c-3.152-3.152-8.262-3.152-11.414 0l-34.508 34.509-9.153-9.153c-6.78-6.78-18.373-1.978-18.373 7.61v56.638c0 3.401 1.379 6.48 3.607 8.709l84.077-84.077z" fill="url(#SVGID_4_)"/></g></g><g><g><path d="m381.022 449.977h56.638c6.802 0 12.317-5.514 12.317-12.317v-56.638c0-9.589-11.593-14.39-18.373-7.61l-9.153 9.153-34.509-34.509c-3.152-3.152-8.262-3.152-11.414 0l-28.472 28.472c-3.152 3.152-3.152 8.262 0 11.414l34.509 34.509-9.153 9.153c-6.78 6.78-1.978 18.373 7.61 18.373z" fill="url(#SVGID_5_)"/><path d="m348.056 376.528c-3.152 3.152-3.152 8.262 0 11.414l34.509 34.509-9.153 9.153c-6.78 6.78-1.978 18.373 7.61 18.373h56.638c3.401 0 6.48-1.379 8.709-3.607l-84.077-84.077z" fill="url(#SVGID_6_)"/></g><g><path d="m128.978 60.023h-56.638c-6.802 0-12.317 5.514-12.317 12.317v56.638c0 9.588 11.593 14.39 18.373 7.61l9.153-9.153 34.509 34.509c3.152 3.152 8.262 3.152 11.414 0l28.472-28.472c3.152-3.152 3.152-8.262 0-11.414l-34.509-34.508 9.153-9.153c6.78-6.781 1.978-18.374-7.61-18.374z" fill="url(#SVGID_7_)"/><path d="m161.944 133.472c3.152-3.152 3.152-8.262 0-11.414l-34.509-34.508 9.153-9.153c6.78-6.78 1.978-18.373-7.61-18.373h-56.638c-3.401 0-6.48 1.379-8.709 3.607l84.077 84.077z" fill="url(#SVGID_8_)"/></g></g></g><circle cx="255" cy="255" fill="url(#SVGID_9_)" r="180.312"/><g><g><path d="m303.758 43.657-40.049-40.049c-4.81-4.81-12.609-4.81-17.418 0l-40.049 40.049c-6.78 6.78-1.978 18.373 7.61 18.373h12.945v48.803c0 4.457 3.613 8.071 8.071 8.071h40.265c4.457 0 8.071-3.613 8.071-8.071v-48.803h12.945c9.587 0 14.389-11.593 7.609-18.373z" fill="url(#SVGID_10_)"/><path d="m275.132 118.903c4.457 0 8.071-3.613 8.071-8.071v-48.802h12.945c9.588 0 14.39-11.593 7.61-18.373l-40.049-40.049c-2.405-2.405-5.557-3.608-8.709-3.608v118.903z" fill="url(#SVGID_11_)"/></g><g><path d="m206.242 466.343 40.049 40.049c4.81 4.81 12.609 4.81 17.418 0l40.049-40.049c6.78-6.78 1.978-18.373-7.61-18.373h-12.945v-48.803c0-4.457-3.613-8.071-8.071-8.071h-40.265c-4.457 0-8.071 3.613-8.071 8.071v48.803h-12.945c-9.587 0-14.389 11.593-7.609 18.373z" fill="url(#SVGID_12_)"/><path d="m234.868 391.097c-4.457 0-8.071 3.613-8.071 8.071v48.803h-12.945c-9.588 0-14.39 11.593-7.61 18.373l40.049 40.049c2.405 2.405 5.557 3.608 8.709 3.608v-118.904z" fill="url(#SVGID_13_)"/></g></g><g><g><path d="m466.343 303.758 40.049-40.049c4.81-4.81 4.81-12.609 0-17.418l-40.049-40.049c-6.78-6.78-18.373-1.978-18.373 7.61v12.945h-48.803c-4.457 0-8.071 3.613-8.071 8.071v40.265c0 4.457 3.613 8.071 8.071 8.071h48.803v12.945c0 9.587 11.593 14.389 18.373 7.609z" fill="url(#SVGID_14_)"/><path d="m391.097 275.132c0 4.457 3.613 8.071 8.071 8.071h48.803v12.945c0 9.588 11.593 14.39 18.373 7.61l40.049-40.049c2.405-2.405 3.608-5.557 3.608-8.709h-118.904z" fill="url(#SVGID_15_)"/></g><g><path d="m43.657 206.242-40.049 40.049c-4.81 4.81-4.81 12.609 0 17.418l40.049 40.049c6.78 6.78 18.373 1.978 18.373-7.61v-12.945h48.803c4.457 0 8.071-3.613 8.071-8.071v-40.265c0-4.457-3.613-8.071-8.071-8.071h-48.803v-12.945c0-9.587-11.593-14.389-18.373-7.609z" fill="url(#SVGID_16_)"/><path d="m118.903 234.868c0-4.457-3.613-8.071-8.071-8.071h-48.802v-12.945c0-9.588-11.593-14.39-18.373-7.61l-40.049 40.049c-2.405 2.405-3.608 5.557-3.608 8.709h118.903z" fill="url(#SVGID_17_)"/></g></g><circle cx="255" cy="255" fill="url(#SVGID_18_)" r="145.487"/><path d="m506.39 263.71-40.05 40.05c-6.78 6.78-18.37 1.98-18.37-7.61v-12.95h-14.86c-12.09 77-72.91 137.82-149.91 149.91v14.86h12.95c9.59 0 14.39 11.59 7.61 18.37l-9.9 9.9-110.89-110.89c-10.14-9.38-16.67-20.7-22.55-33.39-.15-.2-2.08-.41-2.22-.61-2.33-1.6-16.24-15.51-17.83-17.84-6.02-4.12-8.18-11.04-8.18-18.89v-20.32c0-9.6 5.9-17.82 14.28-21.22-10.41-8.82-17.02-21.98-17.02-36.69v-42.7c0-13.28 4.94-24.86 13.2-33.11 8.26-8.26 19.84-13.2 33.12-13.2 8.35 0 16.21 2.13 23.05 5.88 12.42-9.43 27.91-15.03 44.7-15.03h64.79c21.95 0 41.66 7.79 55.22 22.97l65.12 65.12c1.87 6.68 3.37 13.51 4.46 20.48h14.86v-12.95c0-9.59 11.59-14.39 18.37-7.61l40.05 40.05c4.81 4.81 4.81 12.61 0 17.42z" fill="url(#SVGID_19_)"/><g><g><path d="m130.407 294.623v-20.327c0-12.645 10.25-22.895 22.895-22.895 12.645 0 22.895 10.25 22.895 22.895v20.327c0 12.645-10.25 22.895-22.895 22.895-12.644 0-22.895-10.25-22.895-22.895z" fill="url(#SVGID_20_)"/><path d="m333.802 294.623v-20.327c0-12.645 10.25-22.895 22.895-22.895 12.645 0 22.895 10.25 22.895 22.895v20.327c0 12.645-10.25 22.895-22.895 22.895-12.644 0-22.895-10.25-22.895-22.895z" fill="url(#SVGID_21_)"/></g><path d="m255 393.543c-58.646 0-106.188-47.542-106.188-106.188v-41.415c0-58.646 47.542-106.188 106.188-106.188 58.646 0 106.188 47.542 106.188 106.188v41.415c0 58.646-47.542 106.188-106.188 106.188z" fill="url(#SVGID_22_)"/><path d="m255 139.751c-58.646 0-106.188 47.542-106.188 106.188v10.283l133.711 133.711c45.302-12.125 78.666-53.452 78.666-102.579v-41.414c-.001-58.647-47.543-106.189-106.189-106.189z" fill="url(#SVGID_23_)"/><g><path d="m308.313 116.457h-64.792c-16.794 0-32.279 5.597-44.698 15.022-6.846-3.747-14.7-5.88-23.055-5.88-26.561 0-48.093 21.532-48.093 48.093v42.698c0 26.561 21.532 48.093 48.093 48.093 11.293 0 21.669-3.903 29.875-10.419 11.081 6.615 24.035 10.419 37.878 10.419h64.792c40.876 0 74.013-33.137 74.013-74.013-.001-40.877-33.137-74.013-74.013-74.013z" fill="url(#SVGID_24_)"/><path d="m169.508 190.47c0-24.082 11.505-45.475 29.314-58.991-6.846-3.747-14.7-5.88-23.055-5.88-26.561 0-48.093 21.532-48.093 48.093v42.698c0 26.561 21.532 48.093 48.093 48.093 11.293 0 21.669-3.903 29.875-10.419-21.639-12.918-36.134-36.562-36.134-63.594z" fill="url(#SVGID_25_)"/></g><g><g><g><path d="m223.324 305.64c0 8.449-6.849 15.298-15.298 15.298s-15.298-6.849-15.298-15.298 6.849-15.298 15.298-15.298 15.298 6.849 15.298 15.298z" fill="url(#SVGID_26_)"/><path d="m214.869 291.955c1.032 2.059 1.614 4.383 1.614 6.843 0 8.449-6.849 15.298-15.298 15.298-2.46 0-4.784-.582-6.843-1.613 2.512 5.013 7.696 8.455 13.685 8.455 8.449 0 15.298-6.849 15.298-15.298-.001-5.989-3.442-11.173-8.456-13.685z" fill="url(#SVGID_27_)"/></g></g><g><g><path d="m317.272 305.64c0 8.449-6.849 15.298-15.298 15.298s-15.298-6.849-15.298-15.298 6.849-15.298 15.298-15.298 15.298 6.849 15.298 15.298z" fill="url(#SVGID_28_)"/><path d="m308.817 291.955c1.032 2.059 1.614 4.383 1.614 6.843 0 8.449-6.849 15.298-15.298 15.298-2.46 0-4.784-.582-6.843-1.613 2.512 5.013 7.696 8.455 13.685 8.455 8.449 0 15.298-6.849 15.298-15.298-.001-5.989-3.443-11.173-8.456-13.685z" fill="url(#SVGID_29_)"/></g></g></g><path d="m276.069 350.426c-13.354-6.234-28.783-6.234-42.138 0-3.454 1.612-4.999 5.693-3.445 9.174 3.558 7.966 11.259 20.492 24.514 20.492s20.956-12.526 24.513-20.492c1.555-3.481.01-7.562-3.444-9.174z" fill="url(#SVGID_30_)"/><ellipse cx="255" cy="325.278" fill="url(#SVGID_31_)" rx="13.723" ry="11.817"/></g></g></svg>