<svg id="Capa_1" enable-background="new 0 0 512 512" height="512" viewBox="0 0 512 512" width="512" xmlns="http://www.w3.org/2000/svg" xmlns:xlink="http://www.w3.org/1999/xlink"><linearGradient id="SVGID_1_" gradientUnits="userSpaceOnUse" x1="256" x2="256" y1="512" y2="0"><stop offset="0" stop-color="#fd3a84"/><stop offset="1" stop-color="#ffa68d"/></linearGradient><g><g><path d="m369.32 243.519-180-120c-9.962-6.642-23.32.529-23.32 12.481v240c0 11.98 13.381 19.108 23.32 12.481l180-120c8.913-5.941 8.885-19.039 0-24.962zm-173.32 104.453v-183.944l137.958 91.972zm60-347.972c-141.61 0-256 114.425-256 256 0 141.611 114.426 256 256 256 141.611 0 256-114.426 256-256 0-141.611-114.425-256-256-256zm0 482c-124.617 0-226-101.383-226-226s101.383-226 226-226 226 101.383 226 226-101.383 226-226 226z" fill="url(#SVGID_1_)"/></g></g></svg>