<svg id="Capa_1" enable-background="new 0 0 512 512" height="512" viewBox="0 0 512 512" width="512" xmlns="http://www.w3.org/2000/svg" xmlns:xlink="http://www.w3.org/1999/xlink"><linearGradient id="SVGID_1_" gradientUnits="userSpaceOnUse" x1="256" x2="256" y1="512" y2="0"><stop offset="0" stop-color="#fd3a84"/><stop offset="1" stop-color="#ffa68d"/></linearGradient><g><g><path d="m392 452c33.084 0 60-26.916 60-60s-26.916-60-60-60-60 26.916-60 60 26.916 60 60 60zm0-90c16.542 0 30 13.458 30 30s-13.458 30-30 30-30-13.458-30-30 13.458-30 30-30zm105-90c-11.86 0-447.456 0-452 0-8.271 0-15-6.729-15-15s6.729-15 15-15h285c33.084 0 60-26.916 60-60v-137c0-24.813-20.187-45-45-45h-30c-8.284 0-15 6.716-15 15v60c0 8.284 6.716 15 15 15h30c8.271 0 15 6.729 15 15v77c0 16.542-13.458 30-30 30h-68.072c5.123-8.833 8.072-19.075 8.072-30v-137c0-24.813-20.187-45-45-45h-30c-8.284 0-15 6.716-15 15v60c0 8.284 6.716 15 15 15h30c8.271 0 15 6.729 15 15v77c0 16.542-13.458 30-30 30h-165c-24.813 0-45 20.187-45 45s20.187 45 45 45h75v195c0 8.284 6.716 15 15 15h362c8.284 0 15-6.716 15-15v-210c0-8.284-6.716-15-15-15zm-152-212h-15v-30h15c8.271 0 15 6.729 15 15v17.57c-4.693-1.664-9.743-2.57-15-2.57zm-120 0h-15v-30h15c8.271 0 15 6.729 15 15v17.57c-4.693-1.664-9.743-2.57-15-2.57zm47 422h-122v-180h122zm210 0h-180v-180h180z" fill="url(#SVGID_1_)"/></g></g></svg>