<svg id="Capa_1" enable-background="new 0 0 511 511" height="512" viewBox="0 0 511 511" width="512" xmlns="http://www.w3.org/2000/svg" xmlns:xlink="http://www.w3.org/1999/xlink"><linearGradient id="SVGID_1_" gradientUnits="userSpaceOnUse" x1="255.5" x2="255.5" y1="511" y2="0"><stop offset="0" stop-color="#a93aff"/><stop offset="1" stop-color="#ff81ff"/></linearGradient><g><g><path d="m390 135.599v-120.599c0-8.284-6.716-15-15-15h-120c-8.284 0-15 6.716-15 15 0 24.813-20.187 45-45 45s-45-20.187-45-45c0-8.284-6.716-15-15-15h-120c-8.284 0-15 6.716-15 15v360c0 8.284 6.716 15 15 15h120.599c29.203 70.932 99.059 121 180.401 121 107.523 0 195-87.477 195-195 0-81.342-50.069-151.198-121-180.401zm-263.994 224.401h-96.006v-330h91.507c6.969 34.191 37.274 60 73.493 60s66.524-25.809 73.493-60h91.507v96.006c-14.145-3.274-28.874-5.006-44-5.006-107.523 0-195 87.477-195 195 0 15.126 1.731 29.855 5.006 44zm189.994 121c-90.981 0-165-74.019-165-165s74.019-165 165-165 165 74.019 165 165-74.019 165-165 165zm0-240c-41.355 0-75 33.645-75 75s33.645 75 75 75 75-33.645 75-75-33.645-75-75-75zm0 120c-24.813 0-45-20.187-45-45s20.187-45 45-45 45 20.187 45 45-20.187 45-45 45zm0-60c-8.284 0-15 6.716-15 15s6.716 15 15 15 15-6.716 15-15-6.716-15-15-15z" fill="url(#SVGID_1_)"/></g></g></svg>