<svg id="Capa_1" enable-background="new 0 0 512 512" height="512" viewBox="0 0 512 512" width="512" xmlns="http://www.w3.org/2000/svg" xmlns:xlink="http://www.w3.org/1999/xlink"><linearGradient id="SVGID_1_" gradientUnits="userSpaceOnUse" x1="256" x2="256" y1="436" y2="76"><stop offset="0" stop-color="#fd5900"/><stop offset="1" stop-color="#ffde00"/></linearGradient><g><g><path d="m75 196c-8.284 0-15 6.716-15 15v150c0 8.284 6.716 15 15 15h210c8.284 0 15-6.716 15-15v-150c0-8.284-6.716-15-15-15zm195 150h-180v-120h180zm227-210h-75v-15c0-8.284-6.716-15-15-15s-15 6.716-15 15v15h-97.729l-25.854-51.708c-2.541-5.082-7.735-8.292-13.417-8.292h-150c-5.682 0-10.876 3.21-13.416 8.292l-25.855 51.708h-50.729c-8.284 0-15 6.716-15 15v270c0 8.284 6.716 15 15 15h482c8.284 0 15-6.716 15-15v-270c0-8.284-6.716-15-15-15zm-15 270h-452v-240h45c5.682 0 10.876-3.21 13.416-8.292l25.855-51.708h131.459l25.854 51.708c2.54 5.082 7.734 8.292 13.416 8.292h197zm-75-60c24.813 0 45-20.187 45-45s-20.187-45-45-45-45 20.187-45 45 20.187 45 45 45zm0-60c8.271 0 15 6.729 15 15s-6.729 15-15 15-15-6.729-15-15 6.729-15 15-15zm-30-60c8.284 0 15-6.716 15-15s-6.716-15-15-15-15 6.716-15 15 6.716 15 15 15zm60 0c8.284 0 15-6.716 15-15s-6.716-15-15-15-15 6.716-15 15 6.716 15 15 15zm-287-60h60c8.284 0 15-6.716 15-15s-6.716-15-15-15h-60c-8.284 0-15 6.716-15 15s6.716 15 15 15z" fill="url(#SVGID_1_)"/></g></g></svg>