<svg id="Capa_1" enable-background="new 0 0 512 512" height="512" viewBox="0 0 512 512" width="512" xmlns="http://www.w3.org/2000/svg" xmlns:xlink="http://www.w3.org/1999/xlink"><linearGradient id="SVGID_1_" gradientUnits="userSpaceOnUse" x1="256" x2="256" y1="512" y2="0"><stop offset="0" stop-color="#00b59c"/><stop offset="1" stop-color="#9cffac"/></linearGradient><g><g><path d="m460.231 168.177c-3.641-2.843-8.388-3.848-12.869-2.729l-101.362 25.34v-25.788c0-2.379-.569-4.62-1.554-6.618 19.3-16.52 31.554-41.045 31.554-68.382 0-49.626-40.374-90-90-90-31.271 0-58.863 16.034-75 40.31-16.137-24.276-43.729-40.31-75-40.31-49.626 0-90 40.374-90 90 0 27.337 12.254 51.862 31.554 68.382-.985 1.998-1.554 4.239-1.554 6.618v150c0 8.284 6.716 15 15 15h105v70.787l-85.606 85.606c-5.858 5.858-5.858 15.355 0 21.213 5.857 5.857 15.355 5.858 21.213 0l64.393-64.393v53.787c0 8.284 6.716 15 15 15s15-6.716 15-15v-53.787l64.394 64.394c5.857 5.857 15.355 5.858 21.213 0s5.858-15.355 0-21.213l-85.607-85.607v-70.787h105c8.284 0 15-6.716 15-15v-25.788l101.362 25.34c4.461 1.114 9.211.126 12.869-2.729 3.641-2.843 5.769-7.204 5.769-11.823v-120c0-4.619-2.128-8.98-5.769-11.823zm-249.231-28.487c2.413 3.63 5.081 7.075 7.98 10.31h-15.96c2.899-3.235 5.567-6.68 7.98-10.31zm-135-49.69c0-33.084 26.916-60 60-60s60 26.916 60 60-26.916 60-60 60-60-26.916-60-60zm240 210h-210v-120h210zm-30-150c-33.084 0-60-26.916-60-60s26.916-60 60-60 60 26.916 60 60-26.916 60-60 60zm150 130.788-90-22.5v-36.576l90-22.5zm-285-40.788h60c8.284 0 15-6.716 15-15s-6.716-15-15-15h-60c-8.284 0-15 6.716-15 15s6.716 15 15 15zm0-150c0-8.284-6.716-15-15-15s-15 6.716-15 15 6.716 15 15 15 15-6.716 15-15zm135-15c-8.284 0-15 6.716-15 15s6.716 15 15 15 15-6.716 15-15-6.716-15-15-15z" fill="url(#SVGID_1_)"/></g></g></svg>