<svg id="Capa_1" enable-background="new 0 0 512 512" height="512" viewBox="0 0 512 512" width="512" xmlns="http://www.w3.org/2000/svg" xmlns:xlink="http://www.w3.org/1999/xlink"><linearGradient id="SVGID_1_" gradientUnits="userSpaceOnUse" x1="256" x2="256" y1="512" y2="0"><stop offset="0" stop-color="#fd5900"/><stop offset="1" stop-color="#ffde00"/></linearGradient><g><g><path d="m406 0h-300c-8.284 0-15 6.716-15 15v482c0 8.284 6.716 15 15 15h300c8.284 0 15-6.716 15-15v-482c0-8.284-6.716-15-15-15zm-15 482h-270v-452h270zm-135-212c57.897 0 105-47.103 105-105s-47.103-105-105-105-105 47.103-105 105 47.103 105 105 105zm0-180c41.355 0 75 33.645 75 75s-33.645 75-75 75-75-33.645-75-75 33.645-75 75-75zm0 120c24.813 0 45-20.187 45-45s-20.187-45-45-45-45 20.187-45 45 20.187 45 45 45zm0-60c8.271 0 15 6.729 15 15s-6.729 15-15 15-15-6.729-15-15 6.729-15 15-15zm0 152c-41.355 0-75 33.645-75 75s33.645 75 75 75 75-33.645 75-75-33.645-75-75-75zm0 120c-24.813 0-45-20.187-45-45 0-19.555 12.541-36.228 30-42.42v42.42c0 8.284 6.716 15 15 15s15-6.716 15-15v-42.42c17.459 6.192 30 22.865 30 42.42 0 24.813-20.187 45-45 45z" fill="url(#SVGID_1_)"/></g></g></svg>