<?xml version="1.0" encoding="UTF-8" standalone="no"?>
<svg
   xmlns:dc="http://purl.org/dc/elements/1.1/"
   xmlns:cc="http://creativecommons.org/ns#"
   xmlns:rdf="http://www.w3.org/1999/02/22-rdf-syntax-ns#"
   xmlns:svg="http://www.w3.org/2000/svg"
   xmlns="http://www.w3.org/2000/svg"
   viewBox="0 0 5333.3335 5333.3335"
   height="5333.3335"
   width="5333.3335"
   xml:space="preserve"
   id="svg2"
   version="1.1"><metadata
     id="metadata8"><rdf:RDF><cc:Work
         rdf:about=""><dc:format>image/svg+xml</dc:format><dc:type
           rdf:resource="http://purl.org/dc/dcmitype/StillImage" /><dc:title></dc:title></cc:Work></rdf:RDF></metadata><defs
     id="defs6" /><g
     transform="matrix(1.3333333,0,0,-1.3333333,0,5333.3333)"
     id="g10"><g
       transform="matrix(1.4521404,0,0,1.4521404,-920.67794,-919.52246)"
       id="g740"><g
         transform="scale(0.206135)"
         id="g18"><path
           id="path20"
           style="fill:#371a45;fill-opacity:1;fill-rule:nonzero;stroke:none"
           d="m 12870.6,4224.52 c 1858.6,1125.03 3106.9,3209.2 3106.9,5594.77 0,3579.21 -2809.5,6480.71 -6275.12,6480.71 -3465.64,0 -6275.11,-2901.5 -6275.11,-6480.71 0,-2385.57 1248.28,-4469.74 3106.85,-5594.77 957.96,17.85 2032.74,27.79 3168.26,27.79 1135.52,0 2210.32,-9.94 3168.22,-27.79" /></g><g
         transform="scale(0.173812)"
         id="g22"><path
           id="path24"
           style="fill:#ffffff;fill-opacity:1;fill-rule:nonzero;stroke:none"
           d="m 16065.6,7030.46 c -162.3,429.03 -393.8,837.74 -688.4,1215.51 v 479.02 c 0,239.51 -98.6,467.46 -279,648.05 l 6,50.63 c 22.5,190.32 -36.4,375.35 -166,521.08 -136.3,153.35 -335,241.25 -545.3,241.25 h -20.9 c 17.7,22.6 35,45.4 52,68.3 21.6,24.3 39.4,46 54.3,66.2 222.4,302.1 390.2,633.2 499.4,985.2 213.8,30.7 408.7,133.8 555.7,295.2 167.7,184.3 253.6,422.9 241.8,671.8 l -32.3,686.6 c -11.7,248.9 -119.7,478.4 -303.9,646 -163.6,148.9 -372.9,234.1 -593,242.3 -170.2,397 -409.2,758.3 -711.2,1075.1 -669.6,702.6 -1572.8,1102.2 -2543.1,1125.4 -30.4,0.8 -61.3,1.2 -91.8,1.2 -934.7,0 -1823.31,-356.4 -2502.2,-1003.6 -441.34,-420.7 -769.92,-944.3 -953.68,-1518.2 -218.8,-28.4 -418.49,-132.2 -568.65,-297.2 -167.71,-184.3 -253.61,-422.9 -241.88,-671.8 l 32.34,-686.6 c 22.95,-487.9 415.5,-872.5 899.94,-888.4 122.77,-285.3 280.99,-552.5 472.06,-797.5 h -17.38 c -210.28,0 -409.06,-87.9 -545.36,-241.25 -123.18,-138.65 -182.49,-312.86 -168.63,-493.35 -68.41,-55.28 -128.82,-117.71 -180.13,-186.35 -120.88,-160.69 -184.86,-347.56 -184.86,-540.06 V 8113.35 C 7293.96,7772.81 7096.05,7408.68 6952.85,7030.46 6728.47,6437.46 6718.51,5971.9 6923.22,5646.5 h -68.52 c 282.08,-233.65 580.91,-446.52 894.52,-636.38 1136.11,21.17 2410.78,32.97 3757.48,32.97 1346.7,0 2621.3,-11.8 3757.5,-32.97 313.5,189.86 612.4,402.73 894.4,636.38 h -63.3 c 204.7,325.4 194.7,790.96 -29.7,1383.96" /></g><g
         transform="scale(0.196766)"
         id="g26"><path
           id="path28"
           style="fill:#ffffff;fill-opacity:1;fill-rule:nonzero;stroke:none"
           d="m 14141.8,14050 c 2.8,-365.5 139.3,-716.2 384.3,-987.5 13.2,-14.7 15,-35.8 4.5,-53.8 l -216.3,-370.3 c -58.1,-99.7 -41.8,-226.3 39.8,-307.8 48,-48.1 111.8,-74.5 179.7,-74.5 45,0 89.2,12 128.1,34.7 l 556.7,325 c 6.1,3.6 12.9,5.5 19.6,5.5 3,0 6,-0.4 8.8,-1.1 121.6,-32.7 247.6,-49.9 374.3,-51 h 12.5 c 238.7,0 465,57.5 666.2,158.9 -354.6,949.9 -909.7,1796.7 -1612.2,2484.9 -335.8,-277.2 -549.7,-697.1 -546,-1163" /></g><g
         transform="scale(0.161853)"
         id="g30"><path
           id="path32"
           style="fill:#ffffff;fill-opacity:1;fill-rule:nonzero;stroke:none"
           d="M 16300,9369.69 V 6698.43 c 0,-124.43 -32.1,-242.99 -90,-349.63 -158.2,-293.42 -508.8,-498.54 -913.5,-498.54 H 9315.69 c -340.25,0 -642.25,144.82 -823.9,365.39 -113.06,137.22 -179.61,303.61 -179.61,482.78 v 2671.26 c 0,165.77 57.22,320.78 155.82,451.89 177.88,237.82 491.93,396.32 847.69,396.32 h 5980.81 c 48.3,0 95.5,-2.9 142,-8.8 485.4,-58.5 861.5,-413.71 861.5,-839.41" /></g><g
         transform="scale(0.162745)"
         id="g34"><path
           id="path36"
           style="fill:#371a45;fill-opacity:1;fill-rule:nonzero;stroke:none"
           d="m 9264.59,10072.5 c -315.21,0 -603.64,-133.97 -771.45,-358.31 C 8403.37,9594.8 8356,9457.96 8356,9318.3 V 6661.69 c 0,-151.34 54.68,-297.7 158.22,-423.3 170.63,-207.19 451.13,-330.88 750.37,-330.88 h 5948.01 c 357.1,0 682.8,176.17 829.9,448.86 52.3,96.35 78.8,198.96 78.8,305.32 V 9318.3 c 0,371.8 -334.6,692.6 -778.2,746.1 -42.8,5.4 -86.6,8.1 -130.5,8.1 H 9264.59 M 15212.6,5728.76 H 9264.59 c -352.02,0 -684.13,148.03 -888.38,395.96 -130.2,157.98 -199.02,343.67 -199.02,536.97 V 9318.3 c 0,178.74 59.79,352.7 172.91,503.18 201.29,269.02 543.18,429.72 914.49,429.72 h 5948.01 c 51.2,0 102.5,-3.2 152.3,-9.4 532.9,-64.3 935.1,-461.31 935.1,-923.5 V 6661.69 c 0,-136.47 -33.7,-267.84 -100.3,-390.42 -177.7,-329.47 -565.2,-542.51 -987.1,-542.51" /></g><g
         transform="scale(0.175122)"
         id="g38"><path
           id="path40"
           style="fill:#ffffff;fill-opacity:1;fill-rule:nonzero;stroke:none"
           d="M 11444,10130 C 13332.6,9817.67 15094,8670.41 15760.9,6908.04 16300,5483.72 15321,5406.97 15321,5406.97 h -3915.8 35.9 -3915.72 c 0,0 -979.03,76.75 -439.98,1501.07 666.96,1762.37 2428.36,2909.63 4316.9,3221.96 h 41.7" /></g><g
         transform="scale(0.170149)"
         id="g42"><path
           id="path44"
           style="fill:#b9afbe;fill-opacity:1;fill-rule:nonzero;stroke:none"
           d="m 15764.8,5650.46 h -487 c 128.6,110.25 210.1,273.82 210.1,456.13 v 111.72 h -259.8 c 18.1,10.7 35.6,22.16 51.9,35.44 27.5,19.51 52.4,42.61 75.8,66.94 43,44.96 77.5,98.86 96.1,160.8 l 77,-150.51 c 85.6,-167.5 243.4,-245.9 400,-245.9 143.2,0 285.4,65.41 371.1,188.12 -8.3,-138.05 -42.4,-256 -102.4,-351.51 -147.3,-234.27 -402.3,-268 -432.8,-271.23 m -7537.72,0 h -477.7 c -31.91,3.41 -285.98,37.49 -432.91,271.29 -60.54,96.27 -94.74,215.51 -102.62,355.1 85.4,-121.07 226.74,-185.43 369.09,-185.43 158.15,0 317.43,79.4 402.59,248.84 l 70.76,140.88 c 18.69,-61.77 53.07,-115.6 95.97,-160.45 23.39,-24.33 48.31,-47.43 75.82,-66.94 16.34,-13.28 33.91,-24.74 51.89,-35.44 h -263.06 v -111.72 c 0,-182.31 81.58,-345.88 210.17,-456.13" /></g><g
         transform="scale(0.105976)"
         id="g46"><path
           id="path48"
           style="fill:#ffffff;fill-opacity:1;fill-rule:nonzero;stroke:none"
           d="m 11908.2,10344.1 c 0,0 616.2,1858.3 2275.8,1863.6 1531.2,4.9 2116,-758.9 1757.2,-1807.8 -178.5,-521.92 -2085.9,-1015.33 -2978.6,61.4 l -1054.4,-117.2" /></g><path
         id="path50"
         style="fill:#b9afbe;fill-opacity:1;fill-rule:nonzero;stroke:none;stroke-width:0.1"
         d="m 1462.41,1066.39 c -11.53,3.82 -22.58,8.8 -32.58,15.42 -2.04,1.3 -4.09,2.57 -6.2,3.76 -2.12,1.17 -4.02,2.65 -6.11,3.86 -2,1.34 -4.15,2.49 -6.21,3.77 -1.99,1.37 -4.01,2.71 -6.11,3.98 -4.34,2.38 -8.29,5.26 -12.99,7.55 -4.63,2.37 -9.06,5.08 -14.75,7.01 l -0.54,0.19 c -0.55,0.18 -1.13,0.28 -1.72,0.28 -0.41,0 -0.83,-0.04 -1.24,-0.14 1.7,12.85 12.84,21.52 24.82,21.52 4.65,0 9.43,-1.31 13.84,-4.18 14.07,-9.18 29.2,-16.21 44.87,-21.4 l 4.92,-41.62" /><g
         transform="scale(0.105305)"
         id="g52"><path
           id="path54"
           style="fill:#371a45;fill-opacity:1;fill-rule:nonzero;stroke:none"
           d="m 11940.4,10424.6 c 3.3,219.6 78.3,416.9 175.7,601 95.5,185.7 220.4,355.8 359.7,512.8 140.7,155.7 290.4,305.6 461.1,432.4 170.2,126.8 357.8,233.2 558,309.7 200,77.3 412.2,122.9 625.2,137.3 l 159.8,5.8 c 51.7,-0.9 103.4,-0.8 155.1,-2.4 103.7,-4.2 207.4,-10.3 311.3,-22.7 207.5,-24 415.8,-65.6 617.7,-140.3 201.3,-73.4 397.6,-182.9 559.6,-340.1 162.8,-155.8 279.8,-365.7 327.6,-586.1 48.8,-220.7 38.6,-446.3 -7.4,-656.1 -10.2,-53.1 -25.3,-104.4 -39.1,-156.2 l -24.2,-76.1 -6,-19.1 c -2.1,-6.5 -6.5,-16.2 -9.8,-24 l -22.3,-49.3 c -69.6,-119.5 -162.3,-194.9 -254.8,-258.9 -187.4,-125.24 -388.9,-199.03 -593.2,-254.77 -409.1,-104.74 -838.8,-124.59 -1256.4,-37.03 -52.1,11.2 -104,23.16 -155.3,38.83 -51.7,13.3 -102.1,32.1 -152.8,49.57 -50.8,17.29 -100.1,39.22 -150.7,58.03 -48.8,23.26 -99.7,42.63 -146.9,69.77 -47.5,26.6 -95,53.4 -137.6,88 -44.4,31.5 -84.7,68.8 -122.5,108.1 -75.4,78.8 -134.5,174.8 -162.4,285.8 -6.8,27.2 9.6,54.8 36.9,61.7 9.9,2.5 19.8,1.9 28.9,-1.2 l 5.1,-1.8 c 54,-18.3 96.1,-44 140.1,-66.5 44.6,-21.8 82.1,-49.1 123.3,-71.7 19.9,-12.1 39.1,-24.8 58,-37.8 19.6,-12.2 40,-23.1 59,-35.8 19.8,-11.5 37.9,-25.6 58,-36.7 20.1,-11.3 39.5,-23.3 58.9,-35.7 153.9,-101.9 334.1,-162.8 517.4,-202.3 368.4,-77.91 761.6,-60.4 1128.7,34 181.9,49 362,117.4 508.5,216.2 72.3,48.4 135.7,107.5 167.2,162.6 2.5,6.6 5.3,13.1 8.3,19.3 1.5,3.7 3.1,5.2 4.8,10.7 l 5.4,16.8 21.3,67.2 c 11.9,45.2 25.5,90.2 33.9,135.7 40.1,181.3 46.1,366.3 8.1,537.8 -37.7,171.7 -124.1,327.3 -251.2,449.4 -126.4,122.8 -287.3,214.9 -462.2,278.6 -174.7,64.8 -362.5,103 -553.3,124.8 -95.4,11.6 -192,17.2 -288.9,21.1 l -145.6,2.3 -141,-5.1 c -187.3,-12.7 -371.7,-52.4 -546.1,-119.8 -348.8,-134.3 -659.9,-370.1 -899.6,-668.3 -59.4,-75 -116.3,-152.1 -169.8,-231.7 -54.7,-78.9 -107.5,-159.2 -159.4,-240.5 -102.8,-163.4 -204.5,-328.3 -336.7,-486.3 l -2.2,-2.7 c -17.1,-20.4 -47.5,-23.1 -67.9,-6 -11.5,9.6 -17.4,23.7 -17.3,37.7" /></g><g
         transform="scale(0.167969)"
         id="g56"><path
           id="path58"
           style="fill:#ffffff;fill-opacity:1;fill-rule:nonzero;stroke:none"
           d="m 16300,6526.37 c 0,0 -388.8,1172.42 -1435.9,1175.75 -966.1,3.1 -1335,-478.78 -1108.7,-1140.57 112.7,-329.28 1316.1,-640.59 1879.3,38.76 l 665.3,-73.94" /></g><g
         transform="scale(0.167969)"
         id="g60"><path
           id="path62"
           style="fill:#ffffff;fill-opacity:1;fill-rule:nonzero;stroke:none"
           d="m 16300,6526.37 c 0,0 -388.8,1172.42 -1435.9,1175.75 -966.1,3.1 -1335,-478.78 -1108.7,-1140.57 112.7,-329.28 1316.1,-640.59 1879.3,38.76 l 665.3,-73.94" /></g><g
         transform="scale(0.161099)"
         id="g64"><path
           id="path66"
           style="fill:#b9afbe;fill-opacity:1;fill-rule:nonzero;stroke:none"
           d="m 15751.7,6619.7 30.5,258.35 c 97.1,32.16 190.7,75.79 277.9,132.59 27.3,17.82 57,25.95 85.8,25.95 74.5,0 143.5,-53.82 154.1,-133.58 -2.5,0.62 -5,0.93 -7.6,0.93 -3.6,0 -7.2,-0.62 -10.7,-1.8 l -3.4,-1.18 c -35.3,-11.98 -62.8,-28.8 -91.6,-43.52 -29.2,-14.21 -53.7,-32.09 -80.6,-46.86 -13.1,-7.88 -25.6,-16.2 -37.9,-24.71 -12.8,-7.94 -26.1,-15.08 -38.6,-23.4 -13,-7.51 -24.8,-16.69 -37.9,-23.96 -13.1,-7.39 -25.8,-15.27 -38.5,-23.34 -61.8,-40.91 -130.2,-71.76 -201.5,-95.47" /></g><g
         transform="scale(0.168254)"
         id="g68"><path
           id="path70"
           style="fill:#371a45;fill-opacity:1;fill-rule:nonzero;stroke:none"
           d="m 16245.1,6506.29 c -82.8,98.9 -146.5,202.08 -210.7,304.36 -32.6,50.88 -65.6,101.16 -99.8,150.49 -33.5,49.87 -69.1,98.07 -106.3,145.02 -150,186.62 -344.7,334.2 -563,418.3 -109.2,42.2 -224.6,67.04 -341.8,74.94 l -88.3,3.21 -91.1,-1.42 c -60.6,-2.44 -121.1,-5.95 -180.8,-13.2 -119.4,-13.67 -237,-37.56 -346.3,-78.15 -109.5,-39.82 -210.2,-97.47 -289.2,-174.32 -79.6,-76.43 -133.7,-173.85 -157.3,-281.3 -23.8,-107.34 -20,-223.12 5,-336.58 5.4,-28.47 13.8,-56.64 21.3,-84.93 l 13.3,-42.08 3.4,-10.52 c 1.1,-3.45 2,-4.34 3,-6.65 1.9,-3.93 3.6,-7.97 5.2,-12.13 19.8,-34.47 59.4,-71.44 104.7,-101.75 91.7,-61.81 204.3,-104.66 318.3,-135.33 229.6,-59.08 475.8,-70.02 706.3,-21.28 114.7,24.73 227.5,62.88 323.8,126.65 12.2,7.73 24.3,15.28 36.9,22.35 12.6,6.96 23.9,15.75 36.3,22.94 11.9,7.97 24.7,14.8 36.9,22.41 11.8,8.14 23.8,16.11 36.3,23.65 25.8,14.15 49.3,31.27 77.2,44.88 27.5,14.08 53.9,30.19 87.7,41.66 l 3.2,1.13 c 16.7,5.65 34.8,-3.27 40.4,-19.91 2.1,-6.06 2.2,-12.25 0.8,-18.01 -17.5,-69.48 -54.5,-129.51 -101.7,-178.84 -23.7,-24.6 -48.9,-47.96 -76.7,-67.69 -26.6,-21.64 -56.4,-38.4 -86.1,-55.04 -29.5,-17 -61.4,-29.12 -91.9,-43.68 -31.7,-11.77 -62.6,-25.5 -94.3,-36.32 -31.8,-10.93 -63.3,-22.7 -95.7,-31.02 -32.1,-9.81 -64.5,-17.3 -97.2,-24.31 -261.4,-54.79 -530.3,-42.37 -786.3,23.18 -127.9,34.89 -253.9,81.07 -371.3,159.46 -57.9,40.06 -115.9,87.25 -159.4,162.02 l -14,30.84 c -2,4.94 -4.8,11 -6.1,15.04 l -3.8,11.95 -15.1,47.66 c -8.6,32.4 -18.1,64.49 -24.5,97.71 -28.8,131.35 -35.2,272.51 -4.6,410.63 29.9,137.95 103.1,269.36 205,366.83 101.4,98.42 224.2,166.95 350.3,212.89 126.3,46.78 256.7,72.81 386.5,87.79 65,7.78 130,11.59 194.8,14.2 32.4,1.01 64.8,0.95 97.1,1.54 l 100,-3.62 c 133.3,-9.04 266.2,-37.56 391.3,-85.94 125.3,-47.91 242.8,-114.47 349.3,-193.87 106.8,-79.35 200.5,-173.14 288.6,-270.61 87.2,-98.24 165.3,-204.75 225.1,-320.94 60.9,-115.24 107.9,-238.69 110,-376.16 0.2,-16.7 -13.1,-30.37 -29.8,-30.61 -9.3,-0.18 -17.8,3.99 -23.4,10.64 l -1.5,1.84" /></g><g
         transform="scale(0.172558)"
         id="g72"><path
           id="path74"
           style="fill:#371a45;fill-opacity:1;fill-rule:nonzero;stroke:none"
           d="m 11611.1,5571.57 h 3933.6 c 30.1,3.18 281.5,36.45 426.8,267.44 153.9,244.85 134.8,639.67 -55.2,1141.82 -623.3,1646.86 -2277.1,2879.32 -4316,3216.47 -2.5,0.4 -5,0.9 -7.4,1.5 -2.4,-0.6 -4.9,-1.1 -7.4,-1.5 C 9546.51,9860.15 7892.75,8627.69 7269.49,6980.83 7079.46,6478.68 7060.4,6083.86 7214.32,5839.07 c 144.88,-230.53 395.4,-264.14 426.87,-267.5 h 3969.91 m 3940.8,-168.58 -7921.32,0.29 c -14.6,1.1 -359.47,31.52 -557.37,343.47 -187.48,295.44 -174.5,730.71 38.59,1293.71 644.42,1702.91 2348.14,2976.24 4446.2,3323.14 12,2 23.8,1.4 34.9,-1.5 11.1,2.9 22.9,3.5 34.9,1.5 2098.1,-346.9 3801.8,-1620.23 4446.2,-3323.14 213.1,-563 226,-998.27 38.6,-1293.76 -197.9,-311.9 -542.8,-342.32 -557.4,-343.42 l -3.3,-0.29" /></g><g
         transform="scale(0.166303)"
         id="g76"><path
           id="path78"
           style="fill:#ffffff;fill-opacity:1;fill-rule:nonzero;stroke:none"
           d="m 15549.7,12014.6 c -40.3,-2 -74.6,29.3 -76.4,69.6 l -99.1,2104.3 c -2,40.3 29.2,74.6 69.5,76.5 423.4,19.9 782.6,-307.1 802.5,-730.4 l 33.9,-717.5 c 19.9,-423.3 -307.1,-782.6 -730.4,-802.5" /></g><g
         transform="scale(0.16636)"
         id="g80"><path
           id="path82"
           style="fill:#371a45;fill-opacity:1;fill-rule:nonzero;stroke:none"
           d="m 15474.9,14245.2 c -11.8,0 -23.7,-0.3 -35.7,-0.8 -31.6,-1.5 -56.1,-28.4 -54.6,-60 l 99,-2103.6 c 1.5,-31.6 28.5,-55.9 60.1,-54.7 413.8,19.5 734.6,372.1 715.1,785.9 l -33.8,717.3 c -19,401.8 -351.9,715.9 -750.1,715.9 m 66,-2250.6 c -47,0 -86.4,37.2 -88.6,84.7 l -99.1,2103.6 c -2.3,48.9 35.6,90.6 84.5,92.9 431.4,20.4 798.4,-313.9 818.7,-745 l 33.7,-717.4 c 9.9,-208.8 -62.2,-409 -202.9,-563.6 -140.7,-154.7 -333.2,-245.2 -542.1,-255 -1.3,-0.1 -2.8,-0.2 -4.2,-0.2" /></g><g
         transform="scale(0.165378)"
         id="g84"><path
           id="path86"
           style="fill:#b9afbe;fill-opacity:1;fill-rule:nonzero;stroke:none"
           d="m 15695.1,12175.4 c 29.1,130.1 50.4,262.1 63.5,395.6 5.2,39.9 9.8,80 13.7,120.4 214.2,44.1 394.5,176.4 503.3,355.9 l 7.6,-162.6 c 16.8,-355.5 -242.3,-661.2 -588.1,-709.3" /></g><g
         transform="scale(0.167217)"
         id="g88"><path
           id="path90"
           style="fill:#371a45;fill-opacity:1;fill-rule:nonzero;stroke:none"
           d="m 15377.7,14100.6 97.1,-2064 c 365.6,24.8 646.7,338.7 629.3,706.4 l -33.6,713.6 c -17.2,367.6 -327.2,653.9 -692.8,644 m 83.5,-2238.8 c -84.6,0 -155.4,66.8 -159.4,152.2 l -98.6,2092.9 c -4.2,87.9 64.1,162.9 152,167 467.9,22.1 867.1,-340.9 889.2,-809.1 l 33.6,-713.7 c 22,-468.2 -340.9,-867 -809.2,-889.1 v 0 c -2.5,-0.1 -5.1,-0.2 -7.6,-0.2" /></g><g
         transform="scale(0.142222)"
         id="g92"><path
           id="path94"
           style="fill:#ffffff;fill-opacity:1;fill-rule:nonzero;stroke:none"
           d="m 9936.78,16297.8 c 47.18,2.2 87.22,-34.2 89.42,-81.4 l 115.9,-2460.6 c 2.2,-47.2 -34.2,-87.2 -81.4,-89.4 -494.96,-23.4 -915.07,359 -938.35,853.9 l -39.51,839.1 c -23.35,495 359.01,915.1 853.94,938.4" /></g><g
         transform="scale(0.142387)"
         id="g96"><path
           id="path98"
           style="fill:#371a45;fill-opacity:1;fill-rule:nonzero;stroke:none"
           d="m 9926.11,16260.6 c -483.47,-22.8 -858.29,-434.7 -835.47,-918.1 l 39.47,-838.1 c 22.75,-483.5 434.38,-858 918.09,-835.5 36.9,1.7 65.6,33.2 63.8,70.1 l -115.73,2457.8 c -1.76,36.9 -33.92,65.9 -70.16,63.8 m 80.39,-2629.5 c -484.78,0 -890.08,382.4 -913.05,871.5 l -39.47,838.2 c -11.52,244 72.69,477.8 237.1,658.5 164.41,180.7 389.29,286.4 633.34,298 57.38,2.7 105.88,-41.7 108.48,-98.8 l 115.8,-2457.8 c 2.7,-57.2 -41.6,-105.8 -98.8,-108.5 -14.5,-0.7 -29.1,-1.1 -43.4,-1.1" /></g><g
         transform="scale(0.128325)"
         id="g100"><path
           id="path102"
           style="fill:#b9afbe;fill-opacity:1;fill-rule:nonzero;stroke:none"
           d="m 11078.7,15259 c -455.9,12.6 -833.4,376.2 -855.2,839.2 l -9.5,201.8 c 166.9,-199.7 410.5,-332.2 682.9,-354.1 43.7,-235.3 104.7,-464.8 181.8,-686.9" /></g><g
         transform="scale(0.143134)"
         id="g104"><path
           id="path106"
           style="fill:#371a45;fill-opacity:1;fill-rule:nonzero;stroke:none"
           d="m 9861.69,16091.5 c -427.02,-29 -755.45,-395.6 -735.19,-825.1 l 39.26,-833.7 c 20.19,-429.6 381.81,-763.7 809.46,-752.5 l -113.53,2411.3 m 92.5,-2614.8 c -526.37,0 -966.44,415.2 -991.52,946.4 l -39.27,833.7 c -25.71,547 398.3,1012.9 945.34,1038.7 v 0 c 102.84,4.5 190.36,-74.8 195.16,-177.6 l 115.2,-2445 c 4.8,-102.7 -74.9,-190.3 -177.6,-195.1 -15.8,-0.8 -31.66,-1.1 -47.31,-1.1" /></g><g
         transform="scale(0.169491)"
         id="g108"><path
           id="path110"
           style="fill:#ffffff;fill-opacity:1;fill-rule:nonzero;stroke:none"
           d="m 15319.4,12647.8 c -46.5,-1944.7 -1660.8,-3483.56 -3605.6,-3437.01 -1944.81,46.55 -3483.65,1660.81 -3437.1,3605.61 46.55,1944.8 1660.85,3483.6 3605.7,3437.1 1944.7,-46.5 3483.6,-1660.8 3437,-3605.7" /></g><g
         transform="scale(0.1694)"
         id="g112"><path
           id="path114"
           style="fill:#371a45;fill-opacity:1;fill-rule:nonzero;stroke:none"
           d="m 11802.2,16247.9 c -905.3,0 -1761.2,-342.2 -2418.79,-969.2 C 8705.02,14632.1 8319.07,13759.9 8296.64,12823 8250.36,10888.7 9786.3,9277.45 11720.5,9231.17 c 1933.8,-46.34 3545.4,1489.63 3591.8,3423.93 l 15.4,-0.4 -15.4,0.4 c 22.4,936.9 -321.4,1826.5 -968.1,2504.9 -646.7,678.4 -1518.8,1064.4 -2455.8,1086.8 -28.7,0.7 -57.5,1.1 -86.2,1.1 m 3.5,-7048.61 c -28.7,0 -57.1,0.36 -86,1.07 -1951.16,46.69 -3500.63,1672.14 -3453.94,3623.34 22.61,945.2 411.99,1825.1 1096.34,2477.4 684.4,652.4 1581.8,998.9 2527,976.6 945.3,-22.6 1825.1,-412 2477.4,-1096.4 652.4,-684.3 999.3,-1581.8 976.6,-2527 -46,-1922.4 -1624.8,-3455.01 -3537.4,-3455.01" /></g><g
         transform="scale(0.170393)"
         id="g116"><path
           id="path118"
           style="fill:#371a45;fill-opacity:1;fill-rule:nonzero;stroke:none"
           d="m 15238.4,12580.9 h 0.3 -0.3 m -3504.9,3502.2 c -881.9,0 -1715.8,-333.3 -2356.45,-944 -660.89,-630 -1036.9,-1479.7 -1058.73,-2392.5 -45.13,-1884.3 1451.23,-3454.06 3335.58,-3499.19 1883.8,-45.25 3454,1451.19 3499.2,3335.59 45,1884.4 -1451.3,3454.1 -3335.6,3499.2 -28,0.7 -56.1,0.9 -84,0.9 m 3.4,-7007.41 c -29.1,0 -57.9,0.35 -87.1,1.05 -1978.43,47.3 -3549.57,1695.46 -3502.2,3673.96 47.36,1978.5 1694.37,3549.3 3673.9,3502.2 958.5,-23 1850.6,-417.8 2512,-1111.7 661.5,-693.9 1013.2,-1603.9 990.2,-2562.3 -46.6,-1949.2 -1647.5,-3503.21 -3586.8,-3503.21" /></g><g
         transform="scale(0.159323)"
         id="g120"><path
           id="path122"
           style="fill:#371a45;fill-opacity:1;fill-rule:nonzero;stroke:none"
           d="m 16282.9,13359.2 c -6.4,-733.3 -250.5,-1411.9 -662.5,-1971.6 -309,-419.5 -1570,-1147.4 -3119.2,-1147.7 -1436.6,-0.2 -2736.68,777.1 -3038.14,1202.1 -402.08,566.8 -634.12,1249.7 -627.6,1982.9 17.08,1940.3 1691.24,2730 3747.94,2711.8 2056.6,-18.1 3716.6,-837.2 3699.5,-2777.5" /></g><g
         transform="scale(0.16013)"
         id="g124"><path
           id="path126"
           style="fill:#371a45;fill-opacity:1;fill-rule:nonzero;stroke:none"
           d="m 16200.8,13291.8 h 0.3 -0.3 m -3749.5,2673.1 c -1028.9,0 -1894.8,-208.5 -2507.57,-604.2 -696.94,-450.1 -1054.27,-1124.4 -1062.01,-2004.3 -6.06,-686.8 204.08,-1350.6 607.75,-1919.6 286.64,-404 1551.83,-1157.7 2948.03,-1157.7 h 0.6 c 1547.6,0.3 2755.6,731.9 3030.4,1105 413.6,561.7 635.4,1221.7 641.5,1908.5 21,2382.8 -2504.2,2662.4 -3590.9,2672 -22.6,0.2 -45.3,0.3 -67.8,0.3 m -13.8,-5867.5 c -1478.6,0 -2781.91,791.2 -3096.22,1234.3 -425.9,600.3 -647.6,1301 -641.23,2026.3 8.37,944.9 393.62,1670 1145.13,2155.4 656.12,423.6 1581.32,643.1 2675.62,632.8 1094.2,-9.6 2015.4,-244.8 2663.9,-680 742.9,-498.4 1115.3,-1230.3 1106.9,-2175.2 -6.3,-725.2 -240.4,-1421.9 -676.9,-2014.6 -302.5,-411 -1544.9,-1178.7 -3176.6,-1179 h -0.6" /></g><g
         transform="scale(0.152114)"
         id="g128"><path
           id="path130"
           style="fill:#c3bac7;fill-opacity:1;fill-rule:nonzero;stroke:none"
           d="m 15728.9,13590.7 c -23.1,0 -46.3,2.1 -69.4,6.5 -273,52 -436.3,399.6 -364.5,776.4 65.6,345 305.3,594.8 554.9,594.8 23.1,0 46.3,-2.1 69.3,-6.5 220.7,-42 369.6,-277.2 380.8,-564.7 -31,-169.6 -71.7,-336.1 -121.6,-498.8 -108.8,-188.1 -276.8,-307.7 -449.5,-307.7" /></g><g
         transform="scale(0.144428)"
         id="g132"><path
           id="path134"
           style="fill:#c3bac7;fill-opacity:1;fill-rule:nonzero;stroke:none"
           d="m 15940.4,13264.9 c -27,0 -54,4.3 -80.6,13.3 -150.7,51 -224.6,234.9 -165.1,410.5 49,144.7 173.5,238.8 300,238.8 27,0 54.2,-4.3 80.6,-13.3 150.8,-51.1 224.7,-234.8 165.2,-410.5 -49.1,-144.7 -173.4,-238.8 -300.1,-238.8" /></g><g
         transform="scale(0.158327)"
         id="g136"><path
           id="path138"
           style="fill:#2a1a3b;fill-opacity:1;fill-rule:nonzero;stroke:none"
           d="m 15073.7,11055.9 h -1723.3 c 769.9,308.6 1323.5,704.9 1533.3,989.9 290.2,394.1 515.1,834.4 659.9,1307.2 46.5,80.3 81.8,173.8 101.2,275.8 13.2,69.4 18.2,137.8 15.6,203.4 43.5,237.9 67.2,482.2 69.3,731.5 1.9,194.7 -9.8,380.7 -33.8,558 365.5,-393 604.1,-934 597.5,-1677.7 -6.1,-694.6 -230.4,-1362.1 -648.8,-1930.2 -92.7,-126 -290.4,-292.2 -570.9,-457.9" /></g><g
         transform="scale(0.159221)"
         id="g140"><path
           id="path142"
           style="fill:#2a1a3b;fill-opacity:1;fill-rule:nonzero;stroke:none"
           d="M 15163.3,10993.8 H 14989 c 278.9,164.7 475.6,330 567.8,455.3 415.9,564.9 639,1228.6 645.1,1919.4 6.5,739.5 -230.7,1277.5 -594.1,1668.3 -6.8,50.2 -14.6,99.7 -23.3,148.6 451.7,-438.7 715.5,-1037.8 708.7,-1817.6 -6.5,-733.9 -250.8,-1412.9 -662.8,-1972.9 -86.3,-117.2 -246.8,-258.4 -467.1,-401.1" /></g><g
         transform="scale(0.152139)"
         id="g144"><path
           id="path146"
           style="fill:#858290;fill-opacity:1;fill-rule:nonzero;stroke:none"
           d="m 16175.8,13896.1 c 49.8,162.7 90.5,329.2 121.5,498.7 2.7,-68.3 -2.4,-139.4 -16.2,-211.7 -20.2,-106.2 -56.9,-203.4 -105.3,-287" /></g><g
         transform="scale(0.162571)"
         id="g148"><path
           id="path150"
           style="fill:#371a45;fill-opacity:1;fill-rule:nonzero;stroke:none"
           d="m 15658.1,14673.2 c -19.9,0 -39.9,6.7 -56.5,20.4 l -9.4,7.7 -7.5,10.4 c -611.8,873.9 -1803.9,1382.5 -3270.6,1395.5 -1473.8,13.8 -2674.84,-490.7 -3291.92,-1381.8 l -4.56,-6 c -31.37,-38.2 -88.02,-43.9 -126.16,-12.4 -37.03,30.5 -43.42,84.3 -15.01,122.3 651.78,939.5 1906.35,1470.7 3439.15,1456.9 1524.4,-13.5 2768.7,-549.3 3414.4,-1470 23.9,-32.3 23.9,-77.9 -2.7,-110.3 -17.7,-21.5 -43.4,-32.7 -69.2,-32.7" /></g><g
         transform="scale(0.152725)"
         id="g152"><path
           id="path154"
           style="fill:#c3bac7;fill-opacity:1;fill-rule:nonzero;stroke:none"
           d="m 10078.9,12792.9 c 0,0 -609.34,2002.4 473.8,2788.7 786.8,571 1818.7,718.4 2310.6,718.4 185.4,0 294,-20.9 283.8,-48 0,0 -1717.7,-399.9 -2400.3,-1749 -526.4,-1040.4 -667.9,-1710.1 -667.9,-1710.1" /></g><g
         transform="scale(0.194731)"
         id="g156"><path
           id="path158"
           style="fill:#371a45;fill-opacity:1;fill-rule:nonzero;stroke:none"
           d="m 4264.22,4282.17 c 250.27,39.59 500.53,49.09 750.8,53.97 125.11,2.67 250.25,3.19 375.4,2.52 125.15,0.2 250.24,-1.64 375.39,-2.93 250.24,-2.36 500.54,-2.93 750.78,-2.57 h 750.83 3003.18 3003.2 1501.6 l 375.4,0.16 187.7,1.85 187.7,3.18 c 250.3,0.87 500.5,-1.44 750.8,-56.18 14.1,-3.08 23,-17 19.9,-31.12 -2.2,-10.27 -10.3,-17.77 -19.9,-19.92 -250.3,-54.8 -500.5,-57.06 -750.8,-56.18 l -187.7,3.18 -187.7,1.85 -375.4,0.1 H 13273.8 10270.6 7267.42 6516.59 c -250.24,0.41 -500.54,-0.2 -750.78,-2.52 -125.15,-1.28 -250.24,-3.13 -375.39,-2.92 -125.15,-0.67 -250.29,-0.16 -375.4,2.51 -250.27,4.88 -500.53,14.38 -750.8,53.98 -14.09,2.2 -23.71,15.45 -21.47,29.57 1.78,11.3 10.72,19.72 21.47,21.47" /></g><g
         transform="scale(0.183878)"
         id="g160"><path
           id="path162"
           style="fill:#f92323;fill-opacity:1;fill-rule:nonzero;stroke:none"
           d="M 16000,4539.75 H 5753.55 c -165.66,0 -299.99,134.27 -299.99,299.98 v 9.74 c 0,165.71 134.33,300.03 299.99,300.03 H 16000 c 165.7,0 300,-134.32 300,-300.03 v -9.74 c 0,-165.71 -134.3,-299.98 -300,-299.98" /></g><g
         transform="scale(0.184007)"
         id="g164"><path
           id="path166"
           style="fill:#371a45;fill-opacity:1;fill-rule:nonzero;stroke:none"
           d="m 5749.52,5134.49 c -159.02,0 -288.36,-129.4 -288.36,-288.36 v -9.79 c 0,-159.01 129.34,-288.41 288.36,-288.41 H 15988.8 c 159,0 288.4,129.4 288.4,288.41 v 9.79 c 0,158.96 -129.4,288.36 -288.4,288.36 H 5749.52 M 15988.8,4525.11 H 5749.52 c -171.57,0 -311.19,139.61 -311.19,311.23 v 9.79 c 0,171.57 139.62,311.18 311.19,311.18 H 15988.8 c 171.6,0 311.2,-139.61 311.2,-311.18 v -9.79 c 0,-171.62 -139.6,-311.23 -311.2,-311.23" /></g><g
         transform="scale(0.184771)"
         id="g168"><path
           id="path170"
           style="fill:#371a45;fill-opacity:1;fill-rule:nonzero;stroke:none"
           d="m 5725.75,5045.88 c -121.18,0 -219.84,-98.61 -219.84,-219.79 v -9.74 c 0,-121.23 98.66,-219.84 219.84,-219.84 H 15922.7 c 121.2,0 219.8,98.61 219.8,219.84 v 9.74 c 0,121.18 -98.6,219.79 -219.8,219.79 H 5725.75 M 15922.7,4439.07 H 5725.75 c -208.04,0 -377.27,169.24 -377.27,377.28 v 9.74 c 0,207.99 169.23,377.23 377.27,377.23 H 15922.7 c 208,0 377.3,-169.24 377.3,-377.23 v -9.74 c 0,-208.04 -169.3,-377.28 -377.3,-377.28" /></g><g
         transform="scale(0.132322)"
         id="g172"><path
           id="path174"
           style="fill:#fc9191;fill-opacity:1;fill-rule:nonzero;stroke:none"
           d="m 7869.51,6460.98 c -99.83,46.93 -169.59,150.69 -169.59,271.23 0,164.37 129.54,298.14 288.69,298.14 h 1355.56 996.33 5959.5 c -92.3,-32.5 -208,-68.78 -351.3,-107.01 h -5595.2 c -63.2,-72.4 -267.8,-125.53 -511.23,-125.53 -243.34,0 -448,53.13 -511.25,125.53 H 8110.21 c -159.23,0 -288.69,-133.77 -288.69,-298.14 0,-60.69 17.69,-117.14 47.99,-164.22" /></g><g
         transform="scale(0.16078)"
         id="g176"><path
           id="path178"
           style="fill:#c5d3e2;fill-opacity:1;fill-rule:nonzero;stroke:none"
           d="M 15754.8,5917.16 H 9119.74 c -301.09,0 -545.21,244.13 -545.21,545.22 v 27.86 H 16300 v -27.86 c 0,-301.09 -244.1,-545.22 -545.2,-545.22" /></g><g
         transform="scale(0.159652)"
         id="g180"><path
           id="path182"
           style="fill:#9392ab;fill-opacity:1;fill-rule:nonzero;stroke:none"
           d="m 15866.1,6050.09 h -194.8 c 32.3,29.88 61.3,62.95 86.6,98.78 h 108.2 c 176.3,0 333.4,83.3 433.9,212.71 -61.2,-180.89 -232.6,-311.49 -433.9,-311.49 m -6482.89,0 h -199.06 c -201.31,0 -372.68,130.6 -433.88,311.55 7.33,-9.46 14.91,-18.66 22.87,-27.62 52.99,-123.83 158.09,-218.72 286.43,-254.99 -41.96,33.32 -78.04,74.16 -106.23,120.64 70.22,-32.64 148.45,-50.8 230.94,-50.8 h 112.24 c 25.31,-35.83 54.37,-68.9 86.69,-98.78" /></g><g
         transform="scale(0.161672)"
         id="g184"><path
           id="path186"
           style="fill:#371a45;fill-opacity:1;fill-rule:nonzero;stroke:none"
           d="m 8621.51,6364.41 c 30.43,-219.95 219.7,-389.92 447.88,-389.92 h 6598.41 c 228.2,0 417.5,169.97 447.9,389.92 H 8621.51 M 15667.8,5794.56 H 9069.39 c -348.55,0 -632.14,283.6 -632.14,632.2 v 117.59 H 16300 v -117.59 c 0,-348.6 -283.6,-632.2 -632.2,-632.2" /></g><path
         id="path188"
         style="fill:#e8edf3;fill-opacity:1;fill-rule:nonzero;stroke:none;stroke-width:0.1"
         d="m 1429.42,989.79 c -11.02,5.12 -20.81,12.46 -28.77,21.45 -2.12,4.95 -3.72,10.19 -4.72,15.65 h 71.15 l 0.13,-1.07 c 0.46,-3.88 1.14,-7.68 2.05,-11.39 h -34.66 c -7.71,0 -12.99,-8.19 -9.88,-15.48 1.36,-3.18 2.93,-6.24 4.7,-9.16" /><path
         id="path190"
         style="fill:#d4d3dd;fill-opacity:1;fill-rule:nonzero;stroke:none;stroke-width:0.1"
         d="m 1446.38,970.53 c -20.49,5.79 -37.27,20.94 -45.73,40.71 7.96,-8.99 17.75,-16.33 28.77,-21.45 4.5,-7.42 10.26,-13.94 16.96,-19.26" /><g
         transform="scale(0.159718)"
         id="g192"><path
           id="path194"
           style="fill:#e8edf3;fill-opacity:1;fill-rule:nonzero;stroke:none"
           d="m 16278.3,6351.39 h -433.2 c 5.7,23.23 9.9,47.02 12.8,71.32 l 0.8,6.69 h 441.3 c -4.9,-26.98 -12.3,-53.03 -21.7,-78.01" /></g><g
         transform="scale(0.159319)"
         id="g196"><path
           id="path198"
           style="fill:#3aaaff;fill-opacity:1;fill-rule:nonzero;stroke:none"
           d="M 15246.3,5977.44 H 9860.59 c -287.47,0 -528.93,203.3 -560.7,472.01 l -455.87,3856.95 c -37.16,314.4 224.39,589.3 560.7,589.3 h 6297.48 c 336.2,0 597.8,-274.9 560.6,-589.3 L 15807,6449.45 c -31.8,-268.71 -273.3,-472.01 -560.7,-472.01" /></g><g
         transform="scale(0.127007)"
         id="g200"><path
           id="path202"
           style="fill:#b0ddff;fill-opacity:1;fill-rule:nonzero;stroke:none"
           d="m 15750.8,9695.74 c -226.1,0 -444.4,123.3 -554.3,332.96 -169.7,323.9 -27.3,718 302.1,862.1 81.3,35.5 166.1,52.3 249.5,52.3 44.4,0 88.3,-4.7 131.1,-13.9 40.7,-8.7 46.6,-64.4 8.5,-81 l -1.3,-0.6 c -227.3,-99.4 -324.9,-372 -206.4,-595.1 75.9,-142.7 225.5,-226.4 380.1,-226.4 53.4,0 107.3,10 159,31 1.5,0.5 2.8,1.1 4.1,1.7 6.3,2.6 12.6,3.8 18.5,3.8 33.4,0 58.3,-37.6 38.2,-70.19 -67.6,-110.31 -170.2,-200.69 -300.4,-252.74 -74.5,-29.76 -152.1,-43.93 -228.7,-43.93" /></g><g
         transform="scale(0.149929)"
         id="g204"><path
           id="path206"
           style="fill:#371a45;fill-opacity:1;fill-rule:nonzero;stroke:none"
           d="m 16183.7,10382.2 c -71.8,69.4 -141.8,136.9 -211.9,204.8 -0.2,1.8 0,3.9 0,5.8 69.4,2.2 139,4.1 209.4,6.2 9.9,-74.6 9.2,-144.4 2.5,-216.8 m -19.5,-115.1 c -22.7,-88.9 -57.8,-172 -114.5,-245 -43.8,-56.01 -96,-103.57 -151.8,-147.19 -151.5,-118.45 -319.2,-209.63 -492.5,-291.47 -8.4,-3.87 -13.9,-4.27 -21,3 -15.3,16.08 -32.1,31.28 -48.2,47.03 -1.1,0.86 -1.6,2.46 -3.4,5.46 4.1,4.41 8.6,8.88 13,13.48 91.5,95.04 183.6,189.95 275.1,285.26 26.5,27.22 21.9,66.43 -9.2,84.73 -21.7,13 -47.2,8.9 -67,-11.2 -55.1,-56.92 -110,-113.88 -165,-170.97 -41,-42.42 -81.7,-84.64 -124.3,-128.8 -19.8,19.08 -38.7,36.42 -56.2,54.96 -3,3.34 -1.9,13.08 0.7,18.21 42.8,90.65 85,181.69 130.3,271.3 44.7,88.9 98.1,172.8 158.9,251.7 56.9,74.4 120.5,142 202.7,189.1 52.7,30.2 108.2,53.7 166.9,69.1 5.2,1.6 13.9,-2.7 18.5,-7.1 72.4,-69.3 144.2,-138.7 216.2,-208.4 21.5,-20.6 42.9,-41.9 65,-62.2 6.5,-6.1 8.1,-12 5.8,-21 m -316,-659.78 c -10.2,-66.1 -40.3,-123.19 -79.9,-176.02 -49.3,-65.1 -110.3,-117.19 -177.2,-166.54 -17.9,88.71 -35.6,175.55 -52.9,260.52 103.6,59.43 204.9,117.39 306.7,175.68 8.6,-29.14 8.3,-61.49 3.3,-93.64 m -714.9,301.34 c -81.7,13.61 -166.3,27.75 -253.3,42.22 72,103.92 150.6,197.12 267.6,249.02 50.5,22.4 111.7,30.4 149.9,21.2 -54.3,-103.5 -108.7,-207.1 -164.2,-312.44 m 1161.6,605.34 c -2,53.6 -3,107.8 -21.4,159.8 -5.5,5.1 -10.7,10.4 -16.1,15.6 -16.1,3.1 -32,8 -48.4,9.6 -116,12 -230.9,6.4 -344.3,-20.8 -148,-35.5 -278.6,-102.5 -382.5,-215.6 -37.7,-40.8 -70.9,-85.6 -105.2,-129.2 -9.2,-11.9 -16.8,-17.3 -32.8,-12.7 -37.9,10.7 -77.1,12.2 -116.2,8.2 -104.6,-10.9 -192.3,-58.5 -270.6,-125.8 -84.8,-73.1 -148.4,-163.4 -206.1,-258.56 -24.5,-40.28 -6.8,-78.5 40,-86.77 29.5,-4.94 59,-9.74 88.6,-14.67 70.7,-11.68 141.2,-23.15 211.7,-34.82 0.2,-2.13 0.5,-3.2 0.4,-4.27 -0.4,-1.4 -0.8,-3 -1.5,-4.4 -22.6,-40.29 -10.7,-72.63 23.5,-99.51 3.7,-3.01 7.1,-6.74 10.4,-10.07 18.6,-18.01 37.5,-36.22 57.1,-54.96 -19.8,-20.68 -39.6,-38.69 -56.3,-59.37 -8.6,-10.47 -15.2,-24.74 -17,-38.21 -3.2,-21.75 10.8,-41.36 30.9,-49.49 21.4,-8.81 41.6,-5.27 57.8,10.6 20.7,20.01 40.1,41.22 61,62.76 26.7,-26.01 52,-50.55 77.2,-74.76 29,-27.55 46.5,-30.42 82.6,-14.35 6.5,3.21 13,5.67 20.8,8.88 1.8,-7.94 3.4,-14.34 4.6,-20.35 19.4,-96.51 38.6,-193.15 58.5,-289.33 9.4,-45.56 49,-61.83 87.5,-35.89 34.8,23.35 69.5,47.76 103.2,73.17 77.8,58.9 146.3,126.93 196.6,211.23 62.7,106.05 89.4,217.91 50.7,339.5 -1.6,4.8 1.2,13.8 5.1,17.01 34.1,30.01 69.5,58.62 103.6,88.9 77.1,68.57 134.8,151.23 175.5,245.83 55.3,128.5 76.2,263.5 71.1,402.8" /></g><g
         transform="scale(0.148702)"
         id="g208"><path
           id="path210"
           style="fill:#ffffff;fill-opacity:1;fill-rule:nonzero;stroke:none"
           d="m 16126.8,10224.6 c -70.8,-72.1 -185.9,-74.5 -257.7,-4.8 -72.2,69.5 -73.9,184.6 -4.1,257.5 68.6,71.5 183.9,73.1 256.3,3.5 71.6,-69.1 74.3,-185.8 5.5,-256.2 m 165,148.4 c -22.3,20.6 -43.9,41.9 -65.6,62.8 -72.5,70.2 -144.9,140.2 -217.9,210.1 -4.7,4.4 -13.4,8.7 -18.7,7.1 -59.2,-15.5 -115.2,-39.2 -168.3,-69.7 -82.8,-47.4 -147,-115.6 -204.3,-190.6 -61.4,-79.5 -115.2,-164.2 -160.2,-253.8 -45.7,-90.3 -88.3,-182.13 -131.4,-273.52 -2.7,-5.18 -3.7,-15 -0.7,-18.36 17.6,-18.69 36.7,-36.18 56.7,-55.41 42.9,44.51 83.9,87.08 125.3,129.85 55.4,57.57 110.8,115.04 166.3,172.34 20,20.3 45.7,24.4 67.6,11.4 31.4,-18.5 36,-58 9.3,-85.5 -92.3,-96.08 -185.2,-191.78 -277.5,-287.61 -4.4,-4.64 -8.9,-9.14 -13,-13.58 1.8,-3.03 2.3,-4.64 3.4,-5.52 16.2,-15.87 33.2,-31.2 48.6,-47.41 7.2,-7.33 12.7,-6.92 21.2,-3.02 174.7,82.51 343.8,174.44 496.5,293.87 56.3,43.97 108.9,91.97 153.1,148.47 57.2,73.6 92.5,157.3 115.4,247 2.4,9 0.8,15 -5.8,21.1" /></g><g
         transform="scale(0.148928)"
         id="g212"><path
           id="path214"
           style="fill:#db2c2c;fill-opacity:1;fill-rule:nonzero;stroke:none"
           d="m 16292.5,10452 c -72.3,69.8 -142.8,137.9 -213.4,206.2 -0.1,1.8 0.1,3.8 0,5.9 70,2 140.1,4 211,6.1 9.9,-75 9.1,-145.3 2.4,-218.2" /></g><g
         transform="scale(0.140709)"
         id="g216"><path
           id="path218"
           style="fill:#db2c2c;fill-opacity:1;fill-rule:nonzero;stroke:none"
           d="m 16300,10890.9 c -57.9,-110.2 -115.9,-220.7 -174.9,-333 -87.2,14.7 -177.4,29.7 -270,45 76.8,110.9 160.5,210.2 285.2,265.4 53.8,24 118.9,32.5 159.7,22.6" /></g><g
         transform="scale(0.145823)"
         id="g220"><path
           id="path222"
           style="fill:#db2c2c;fill-opacity:1;fill-rule:nonzero;stroke:none"
           d="m 16212.2,9696.8 c -50.7,-66.86 -113.3,-120.55 -182.2,-171.16 -18.4,91.2 -36.5,180.42 -54.3,267.86 106.5,61.03 210.6,120.62 315.4,180.69 8.9,-30.03 8.4,-63.22 3.4,-96.41 -10.5,-67.96 -41.4,-126.67 -82.3,-180.98" /></g><g
         transform="scale(0.147749)"
         id="g224"><path
           id="path226"
           style="fill:#371a45;fill-opacity:1;fill-rule:nonzero;stroke:none"
           d="m 16166.6,10349.2 c -36.1,-37 -97.1,-37.9 -134.9,-2 -39.1,37 -39.5,99.9 -0.9,138.7 36,36.5 98.3,36.9 135.1,0.7 38.3,-37.7 38.5,-98.7 0.7,-137.4 z m 58.6,199.2 c -72.8,70 -188.8,68.4 -257.9,-3.6 -70.3,-73.3 -68.5,-189.1 4.1,-259.1 72.3,-70.1 188.2,-67.8 259.4,4.9 69.2,70.8 66.5,188.2 -5.6,257.8" /></g><g
         transform="scale(0.146883)"
         id="g228"><path
           id="path230"
           style="fill:#22a7f0;fill-opacity:1;fill-rule:nonzero;stroke:none"
           d="m 16261.8,10410.2 c -36.3,-37.1 -97.6,-38.1 -135.7,-1.9 -39.2,37.1 -39.6,100.4 -0.9,139.3 36.4,36.8 98.9,37.2 135.9,0.8 38.6,-37.9 38.9,-99.3 0.7,-138.2" /></g><g
         transform="scale(0.156534)"
         id="g232"><path
           id="path234"
           style="fill:#3978be;fill-opacity:1;fill-rule:nonzero;stroke:none"
           d="M 15375.8,6185.38 H 10036 c -156.34,0 -295.16,72.95 -375.91,185.45 40.69,-27.66 86.37,-49.38 135.43,-63.88 -35.52,53.28 -59.28,114.28 -67.07,180.21 l -3.2,27.03 c 2714.65,108.6 4245.35,1254.3 5102.95,2364.92 6.4,-31.56 12.9,-63.12 19.4,-94.61 6.1,-29.52 25.4,-46.19 48.7,-46.19 11.1,-0.07 23.2,3.77 35.1,11.82 33.4,22.35 66.5,45.74 98.8,70.08 74.5,56.41 140.2,121.57 188.3,202.32 60.1,101.57 85.7,208.71 48.6,325.17 -1.5,4.6 1.2,13.22 4.9,16.29 32.7,28.75 66.5,56.15 99.2,85.16 73.8,65.67 129.2,144.89 168.1,235.47 53,123.04 73,252.41 68.1,385.78 -1.6,40.9 -2.5,82.2 -11.7,122.6 130.7,307 206.8,555.4 249.4,700.6 h 190.8 c 60.8,-26.7 114.9,-66.2 158.1,-116.6 72.8,-85 106,-190.9 93.3,-298.2 l -464.1,-3925.58 c -24.7,-209.67 -217.1,-367.84 -447.4,-367.84 m -442.5,2688.49 c 0,0.07 0,0.07 0,0.07 10.5,7.72 20.9,15.58 31.1,23.5 -10.2,-7.92 -20.6,-15.78 -31.1,-23.57 m 104.6,86.69 c 23.4,22.55 45.2,46.57 65,72.76 6.2,8.12 12,16.3 17.6,24.66 -5.5,-8.36 -11.4,-16.54 -17.4,-24.59 -19.9,-26.26 -41.7,-50.28 -65.2,-72.83 m 47.3,278.85 v 0.07 c 21.4,12.26 42.8,24.53 64.3,36.86 -21.5,-12.33 -42.9,-24.6 -64.3,-36.93 m 415.7,704.71 c -4.1,3.96 -8.1,7.86 -12.2,11.75 v 0.07 c 4.1,-3.96 8.1,-7.86 12.2,-11.76 1.3,14.89 2.5,29.65 3.3,44.34 v 0.06 c -0.8,-14.75 -1.9,-29.58 -3.3,-44.46" /></g><g
         transform="scale(0.149929)"
         id="g236"><path
           id="path238"
           style="fill:#371a45;fill-opacity:1;fill-rule:nonzero;stroke:none"
           d="m 15552.4,9123.23 c -24.3,0 -44.4,17.4 -50.8,48.22 -6.8,32.88 -13.5,65.83 -20.2,98.78 29.3,37.95 57.8,75.77 85.5,113.52 8,-39.29 16,-78.9 24.1,-118.99 0,0.07 0,0.07 0.1,0.07 0,0 0,0 0,-0.07 11,8.14 21.8,16.34 32.5,24.61 26.9,20.94 52.6,42.69 76.7,65.9 24.5,23.54 47.3,48.62 68,76.03 6.4,8.41 12.5,16.95 18.3,25.68 30.5,45.62 53.1,94.71 61.7,150.27 4.8,32.28 5.3,64.57 -3.4,93.78 -9.3,-5.34 -18.7,-10.74 -28.1,-16.07 -22.4,-12.88 -44.7,-25.68 -67.1,-38.49 49,74.57 95.2,148.27 138.8,221.17 3.2,2.4 6.2,4.8 9.4,7.27 55.8,43.62 108,91.18 151.8,147.19 56.7,73 91.8,156.1 114.5,245 0.7,2.5 1,4.8 1,6.9 0.1,5.4 -2.1,9.7 -6.8,14.1 -9,8.3 -17.9,16.7 -26.8,25.3 13.5,27.3 26.6,54.3 39.4,81 4.2,-4 8.4,-8.1 12.7,-12.2 1.4,15.5 2.6,31 3.4,46.4 34.6,73.6 66.3,144.8 95.6,213.4 9.6,-42.1 10.6,-85.3 12.2,-128 5.1,-139.3 -15.8,-274.3 -71.1,-402.8 -40.7,-94.6 -98.4,-177.26 -175.5,-245.83 -34.1,-30.28 -69.5,-58.89 -103.6,-88.9 -3.9,-3.21 -6.7,-12.21 -5.1,-17.01 38.7,-121.59 12,-233.45 -50.7,-339.5 -50.3,-84.3 -118.8,-152.33 -196.6,-211.23 -33.7,-25.41 -68.4,-49.82 -103.2,-73.17 -12.4,-8.4 -25,-12.4 -36.7,-12.33" /></g><g
         transform="scale(0.14869)"
         id="g240"><path
           id="path242"
           style="fill:#b9afbe;fill-opacity:1;fill-rule:nonzero;stroke:none"
           d="m 16021,9949.88 c 93,155.32 174.2,306.12 245,449.42 9,-8.6 18,-17 27.1,-25.4 4.7,-4.5 6.9,-8.8 6.8,-14.2 0,-2.2 -0.3,-4.5 -1,-7 -22.9,-89.7 -58.2,-173.4 -115.4,-247.1 -44.2,-56.4 -96.8,-104.4 -153.1,-148.38 -3.2,-2.5 -6.3,-4.91 -9.4,-7.34" /></g><g
         transform="scale(0.148891)"
         id="g244"><path
           id="path246"
           style="fill:#a22635;fill-opacity:1;fill-rule:nonzero;stroke:none"
           d="m 16296.5,10454.6 c -4.3,4.1 -8.5,8.2 -12.8,12.4 5.5,11.4 10.9,22.9 16.3,34.2 -0.9,-15.4 -2.1,-31 -3.5,-46.6" /></g><g
         transform="scale(0.145823)"
         id="g248"><path
           id="path250"
           style="fill:#a22635;fill-opacity:1;fill-rule:nonzero;stroke:none"
           d="m 16030,9525.64 c -8.3,41.21 -16.5,81.95 -24.7,122.34 66.6,90.66 129.2,180.77 187.9,270.05 23,13.24 46,26.4 69,39.64 9.6,5.48 19.3,11.04 28.9,16.52 8.9,-30.03 8.4,-63.22 3.4,-96.41 -8.8,-57.13 -32,-107.6 -63.4,-154.51 -6.1,-8.98 -12.3,-17.76 -18.9,-26.47 -21.2,-28.11 -44.7,-53.9 -69.8,-78.1 -24.7,-23.87 -51.2,-46.23 -78.9,-67.76 -10.9,-8.5 -22.1,-16.94 -33.4,-25.23 -0.1,0 -0.1,0 -0.1,-0.07" /></g><g
         transform="scale(0.156409)"
         id="g252"><path
           id="path254"
           style="fill:#b0ddff;fill-opacity:1;fill-rule:nonzero;stroke:none"
           d="m 9667.78,6375.9 c -15.15,10.3 -29.66,21.42 -43.41,33.32 -31.14,51.34 -51.72,109.2 -59.08,171.21 l -464.42,3928.67 c -14.26,121.2 23.85,239.7 107.35,333.7 91.87,103.4 227.29,162.7 371.46,162.7 h 6414.62 c 97,0 189.9,-26.9 268.4,-75.9 2.1,-2.3 4.1,-4.7 6.2,-7 11.3,-13.3 21.6,-27.3 31.1,-41.5 -46.1,13.6 -94.6,21.2 -144.5,21.2 h -106.8 c -55.3,24.4 -116,38.4 -179.1,40.5 l 0.2,0.9 c -3.7,-12.6 -7.7,-26.5 -12,-41.4 H 9740.86 c -145.26,0 -280.29,-60.4 -370.5,-165.6 -76.98,-89.8 -112.02,-201.9 -98.53,-315.6 L 9733,6519.37 c -42.59,-1.66 -85.74,-3.13 -128.96,-4.34 12.02,-50.64 33.89,-97.57 63.74,-139.13" /></g><g
         transform="scale(0.153998)"
         id="g256"><path
           id="path258"
           style="fill:#b0c9e5;fill-opacity:1;fill-rule:nonzero;stroke:none"
           d="m 9956.85,6410.82 c -49.87,14.74 -96.3,36.81 -137.67,64.93 -30.32,42.21 -52.53,89.88 -64.74,141.3 43.9,1.24 87.73,2.73 130.98,4.42 l 3.24,-27.47 c 7.93,-67.01 32.08,-129.03 68.19,-183.18 M 16300,11073 h -193.9 c 4.4,15.2 8.5,29.3 12.3,42.1 l -0.3,-0.9 c 64.1,-2.2 125.8,-16.4 181.9,-41.2" /></g><g
         transform="scale(0.16004)"
         id="g260"><path
           id="path262"
           style="fill:#371a45;fill-opacity:1;fill-rule:nonzero;stroke:none"
           d="m 9362.32,10755.8 c -140.9,0 -273.25,-58 -363.04,-159 -81.6,-91.9 -118.84,-207.7 -104.91,-326.2 l 453.89,-3839.48 c 26.24,-222.19 227.38,-389.71 467.88,-389.71 h 5361.36 c 240.5,0 441.7,167.52 467.9,389.71 l 453.9,3839.48 c 13.9,118.5 -23.2,234.3 -104.9,326.2 -89.9,101 -222.1,159 -363,159 H 9362.32 M 15177.5,5859.64 H 9816.14 c -332.6,0 -611.34,236.5 -648.4,550.11 l -453.88,3839.55 c -20.19,170.7 32.93,337 149.52,468.2 124.28,139.8 306.17,220 498.94,220 h 6269.08 c 192.7,0 374.5,-80.2 498.9,-220 116.6,-131.2 169.7,-297.5 149.5,-468.2 l -453.9,-3839.55 c -37,-313.61 -315.8,-550.11 -648.4,-550.11" /></g><g
         transform="scale(0.182985)"
         id="g264"><path
           id="path266"
           style="fill:#b5202f;fill-opacity:1;fill-rule:nonzero;stroke:none"
           d="M 16078,4641.36 H 5781.61 c -35.46,0 -69.07,8.36 -98.86,23.28 549.34,-15.69 1051.45,-22.68 1512.26,-22.68 2492.87,0.05 3744.19,205.86 4337.99,364.51 h 4637.8 c 30.7,0 59.8,-7.11 86.1,-19.46 -37.4,58.26 -101.4,96.84 -174,96.84 H 11787 c 10.9,3.83 21.4,7.6 31.4,11.26 H 16078 c 122.4,0 222,-99.57 222,-221.93 v -9.84 c 0,-122.41 -99.6,-221.98 -222,-221.98" /></g><g
         transform="scale(0.183878)"
         id="g268"><path
           id="path270"
           style="fill:#371a45;fill-opacity:1;fill-rule:nonzero;stroke:none"
           d="M 16004.8,4539.75 H 5912.4 l -305.75,103.66 c 16.05,-0.49 32.47,-0.98 48.52,-1.42 29.64,-14.84 63.08,-23.16 98.38,-23.16 H 16000 c 121.8,0 220.9,99.08 220.9,220.9 v 9.79 c 0,121.77 -99.1,220.86 -220.9,220.86 h -4239 c 23.4,8.59 44.4,16.75 63.2,24.41 h 1951.5 c 86.1,0 167.6,19.64 240.4,54.71 h 1988.7 c 163,0 295.2,-136.5 295.2,-304.87 0,-168.43 -132.2,-304.88 -295.2,-304.88" /></g><g
         transform="scale(0.182502)"
         id="g272"><path
           id="path274"
           style="fill:#b76776;fill-opacity:1;fill-rule:nonzero;stroke:none"
           d="m 16300,5000.22 c -26.4,12.39 -55.6,19.51 -86.4,19.51 h -4650 c 103.8,27.73 187.7,54.03 254.6,77.59 h 4307.3 c 72.8,0 137,-38.69 174.5,-97.1" /></g><g
         transform="scale(0.158114)"
         id="g276"><path
           id="path278"
           style="fill:#371a45;fill-opacity:1;fill-rule:nonzero;stroke:none"
           d="m 16020.4,5924.96 h -2269.5 c 5.1,2.02 9.9,4.05 14.7,6.07 h 1596.8 c 98.7,0 192.6,20.49 277.1,57.56 h 660.5 c -84.7,-40.8 -179.5,-63.63 -279.6,-63.63" /></g><g
         transform="scale(0.151707)"
         id="g280"><path
           id="path282"
           style="fill:#371a45;fill-opacity:1;fill-rule:nonzero;stroke:none"
           d="M 16011.2,6181.51 H 14347 c 63,26.3 103.5,47.06 126.3,59.98 H 16300 c -88.1,-38.63 -185.9,-59.98 -288.8,-59.98" /></g><g
         transform="scale(0.104385)"
         id="g284"><path
           id="path286"
           style="fill:#57b7ff;fill-opacity:1;fill-rule:nonzero;stroke:none"
           d="m 15951.7,12834.2 h -536.1 c -192.4,0 -348.3,155.9 -348.3,348.3 v 1769.9 c 0,192.4 155.9,348.3 348.3,348.3 h 536.1 c 192.3,0 348.3,-155.9 348.3,-348.3 v -1769.9 c 0,-192.4 -156,-348.3 -348.3,-348.3" /></g><g
         transform="scale(0.127648)"
         id="g288"><path
           id="path290"
           style="fill:#371a45;fill-opacity:1;fill-rule:nonzero;stroke:none"
           d="m 16216,10084.9 c 1.4,0.5 2.8,1.1 4.1,1.7 41.4,17.2 79.9,-27.8 56.4,-66 -67.3,-109.79 -169.4,-199.72 -298.9,-251.5 -292.9,-116.97 -632.8,8.22 -779.1,287.6 -168.8,322.2 -27.1,714.4 300.6,857.7 123.9,54.2 255.9,64.7 378.7,38.3 40.5,-8.8 46.4,-64.1 8.4,-80.7 l -1.2,-0.5 c -226.2,-98.9 -323.4,-370.2 -205.4,-592.2 101.6,-191 336,-275.7 536.4,-194.4" /></g><g
         transform="scale(0.204667)"
         id="g292"><path
           id="path294"
           style="fill:#f92323;fill-opacity:1;fill-rule:nonzero;stroke:none"
           d="m 13972.8,11954 c -19,0 -37.8,7.4 -51.9,21.5 -23.5,23.6 -28.2,60 -11.4,88.8 l 207.8,356 c 47.7,81.7 37.6,183.1 -25,252.5 -207.4,229.8 -323,526.7 -325.4,836.2 -5.4,689 550.4,1260.4 1239,1273.7 8.4,0.2 16.6,0.3 24.9,0.3 341.4,0 661.3,-134.1 900.8,-377.4 239.5,-243.3 368.4,-565.5 363,-907.1 -10.9,-685.6 -577.9,-1243.5 -1263.9,-1243.5 h -10.9 c -107.4,1 -214,15.5 -317,43.1 -17.2,4.6 -35,7 -52.8,7 -36.7,0 -73.1,-9.9 -105.1,-28.6 l -535.2,-312.5 c -11.5,-6.7 -24.2,-10 -36.9,-10" /></g><g
         transform="scale(0.205591)"
         id="g296"><path
           id="path298"
           style="fill:#371a45;fill-opacity:1;fill-rule:nonzero;stroke:none"
           d="m 14963.2,14789.4 c -8.7,0 -17.4,0 -26.2,-0.2 -725.2,-14 -1310.7,-615.8 -1305,-1341.6 2.5,-325.9 124.3,-638.6 342.7,-880.7 41,-45.4 47.5,-112 16.2,-165.6 l -207,-354.5 c -33.4,-57.2 -24,-129.9 22.8,-176.8 28.2,-28.1 65.5,-42.7 103.3,-42.7 25.2,0 50.6,6.5 73.5,19.9 l 532.7,311 c 20.8,12.2 44.2,18.6 67.9,18.6 11.4,0 22.7,-1.5 33.6,-4.5 108.5,-29.1 220.9,-44.3 333.9,-45.3 h 11.5 c 722.6,0 1319.7,587.5 1331.2,1309.7 5.7,359.8 -130.1,699.1 -382.3,955.3 -252.3,256.3 -589.2,397.4 -948.8,397.4 m 0,-145.9 c 661,0 1195.7,-541.1 1185.2,-1204.5 -10.2,-644.3 -542.2,-1166.1 -1185.3,-1166.1 -3.4,0 -6.8,0 -10.2,0 -102.8,0.9 -202.4,14.9 -297.3,40.4 -23.6,6.3 -47.5,9.4 -71.5,9.4 -49.2,0 -98.1,-13.1 -141.4,-38.4 l -532.8,-311.1 207,354.5 c 62.9,107.8 49.8,244.3 -33.9,337 -187.6,207.9 -302.8,482.5 -305.1,784.1 -5,645.8 516.2,1182.1 1161.9,1194.5 7.9,0.2 15.6,0.2 23.4,0.2" /></g><g
         transform="scale(0.203683)"
         id="g300"><path
           id="path302"
           style="fill:#ca2432;fill-opacity:1;fill-rule:nonzero;stroke:none"
           d="m 14040.3,12085.4 208.9,357.8 c 35.5,60.8 46.9,130.6 35.5,196.7 -4.7,27.4 -13.4,54.1 -25.9,79.3 -11.5,22.9 -26,44.5 -43.8,64.2 -2.9,3.2 -5.8,6.4 -8.6,9.7 135.9,-116 326.2,-191.8 598.2,-191.8 126.9,0 271.5,16.5 436.7,53.1 523.4,120.8 920.9,587.9 929.7,1146.4 2.6,165.1 -28.4,322.5 -86.2,466.2 1.7,-2.1 3.4,-4.2 5.2,-6.3 31.9,-46.3 60.5,-95.1 85.7,-145.9 0.5,-0.9 1,-1.8 1.4,-2.7 5.9,-11.9 11.5,-24.1 17,-36.2 1.6,-3.5 3.2,-7.1 4.7,-10.6 5.2,-11.6 10.2,-23.4 14.9,-35.2 1.3,-3 2.4,-6.1 3.6,-9.1 8.4,-21.4 16.1,-43.1 23.3,-65.1 1.9,-5.6 3.8,-11.2 5.5,-16.8 3,-9.5 5.7,-19 8.4,-28.6 2.3,-8.1 4.6,-16.2 6.7,-24.4 2.3,-8.8 4.5,-17.6 6.5,-26.5 2.4,-10 4.6,-20.1 6.7,-30.2 1.5,-7.4 3.2,-14.8 4.6,-22.2 3.2,-17.1 6.1,-34.4 8.6,-51.7 0.8,-5.6 1.4,-11.3 2.1,-17 1.7,-13 3.2,-26.1 4.5,-39.3 0.6,-6.6 1.2,-13.3 1.7,-20 1,-13 1.8,-26.1 2.4,-39.2 0.3,-6 0.6,-11.9 0.8,-17.9 0.6,-19 0.9,-38 0.6,-57.2 -0.3,-20.2 -1.2,-40.1 -2.5,-60 -0.4,-6.8 -1.2,-13.4 -1.8,-20.2 -1.1,-13 -2.1,-26.1 -3.6,-39.1 -0.9,-8 -2.3,-15.9 -3.3,-23.8 -1.7,-11.6 -3.1,-23.2 -5,-34.6 -1.4,-8.4 -3.2,-16.7 -4.8,-25.1 -2.1,-10.8 -4,-21.7 -6.3,-32.4 -2,-8.6 -4.2,-17.1 -6.3,-25.6 -2.5,-10.3 -4.8,-20.6 -7.6,-30.8 -2.4,-8.7 -5,-17.3 -7.6,-25.9 -2.9,-9.9 -5.7,-19.7 -8.9,-29.4 -2.8,-8.8 -6,-17.4 -9,-26 -3.3,-9.4 -6.5,-18.9 -10.1,-28.3 -3.3,-8.6 -6.9,-17.2 -10.3,-25.8 -3.7,-9.1 -7.4,-18.2 -11.3,-27.2 -3.7,-8.6 -7.7,-17 -11.7,-25.5 -4,-8.7 -8,-17.5 -12.3,-26.2 -4.2,-8.5 -8.6,-16.9 -13,-25.3 -4.4,-8.3 -8.7,-16.7 -13.3,-24.9 -4.7,-8.4 -9.6,-16.7 -14.4,-25 -4.7,-8 -9.4,-16 -14.2,-23.9 -5.2,-8.3 -10.5,-16.4 -15.8,-24.6 -4.9,-7.7 -9.9,-15.2 -15,-22.7 -5.6,-8.2 -11.4,-16.2 -17.1,-24.2 -5.3,-7.2 -10.5,-14.5 -15.9,-21.6 -6,-8 -12.2,-15.9 -18.4,-23.7 -5.5,-6.8 -10.9,-13.6 -16.5,-20.3 -6.5,-7.9 -13.1,-15.6 -19.8,-23.2 -5.6,-6.5 -11.3,-12.9 -17.1,-19.2 -7,-7.6 -14,-15.2 -21.2,-22.6 -5.8,-6.1 -11.6,-12.1 -17.6,-18 -7.4,-7.4 -14.9,-14.7 -22.5,-21.9 -6,-5.7 -12,-11.3 -18.1,-16.8 -7.8,-7.2 -15.8,-14.3 -23.9,-21.2 -6,-5.3 -12.2,-10.5 -18.4,-15.6 -8.3,-6.9 -16.7,-13.7 -25.3,-20.4 -6.1,-4.9 -12.3,-9.6 -18.6,-14.4 -8.8,-6.6 -17.7,-13.2 -26.7,-19.6 -6.2,-4.4 -12.6,-8.8 -18.9,-13.1 -9.2,-6.3 -18.6,-12.6 -28,-18.7 -6.3,-4 -12.6,-8 -19,-11.9 -9.7,-6 -19.5,-11.9 -29.4,-17.7 -6.3,-3.6 -12.7,-7.1 -19,-10.7 -10.2,-5.6 -20.4,-11.2 -30.8,-16.6 -6.3,-3.3 -12.6,-6.3 -18.9,-9.5 -10.7,-5.3 -21.5,-10.5 -32.3,-15.5 -6.2,-2.9 -12.4,-5.5 -18.7,-8.3 -11.2,-4.9 -22.4,-9.7 -33.8,-14.3 -6,-2.4 -12.1,-4.7 -18.2,-7 -11.8,-4.5 -23.5,-8.9 -35.4,-13.1 -5.9,-2 -11.9,-3.8 -17.7,-5.8 -12.4,-4.1 -24.6,-8.1 -37.1,-11.7 -5.6,-1.7 -11.4,-3.1 -17,-4.7 -12.9,-3.6 -25.8,-7.1 -38.8,-10.3 -5.3,-1.2 -10.6,-2.3 -15.9,-3.5 -13.6,-3.1 -27.2,-6.1 -40.9,-8.7 -4.8,-0.9 -9.6,-1.6 -14.3,-2.5 -14.4,-2.5 -28.9,-5 -43.5,-7 -3.9,-0.6 -7.8,-0.9 -11.8,-1.4 -15.5,-2 -31,-3.9 -46.7,-5.3 -2.6,-0.2 -5.2,-0.3 -7.8,-0.5 -17.1,-1.4 -34.2,-2.6 -51.6,-3.2 -15.7,-0.7 -31.6,-1 -47.5,-1 -0.9,0 -1.7,0 -2.6,0 -2,0 -4,0 -5.9,0 -35.7,0.3 -71,2.2 -105.9,5.6 -66.5,6.4 -131.4,18.3 -194.2,35.2 -23.8,6.3 -48,9.5 -72.1,9.5 -49.8,0 -99.1,-13.3 -142.8,-38.8 l -537.7,-314 m 166.1,707.7 v 0 c -17.2,19.4 -33.7,39.3 -49.5,59.8 -0.1,0 -0.1,0.1 -0.1,0.1 15.9,-20.5 32.4,-40.5 49.6,-59.9 m -49.6,59.9 c -8.8,11.4 -17.5,23 -25.9,34.7 8.4,-11.7 17,-23.2 25.9,-34.6 0,0 0,-0.1 0,-0.1 m -7.7,18.2 c -35.5,57.5 -66.3,118.2 -91.8,181.5 9.5,-11.3 19.1,-22.4 29,-33.4 0.7,-0.8 39.2,-92.3 62.8,-148.1" /></g><g
         transform="scale(0.188674)"
         id="g304"><path
           id="path306"
           style="fill:#2f1d4e;fill-opacity:1;fill-rule:nonzero;stroke:none"
           d="m 16300,13373.4 c -2.1,0 -4.2,0 -6.4,0 -38.5,0.3 -76.6,2.3 -114.2,6 37.6,-3.7 75.7,-5.7 114.2,-6 2.2,0 4.3,0 6.4,0 m -878.9,272.1 c -5.1,29.5 -14.5,58.3 -28,85.5 13.5,-27.2 22.9,-56 28,-85.5 m -84.6,165.3 c -14.7,12.5 -28.8,25.5 -42.4,38.9 -0.2,0.2 -4.5,10.2 -11,25.6 17.1,-22.1 34.9,-43.6 53.4,-64.5" /></g><g
         transform="scale(0.197563)"
         id="g308"><path
           id="path310"
           style="fill:#fc9191;fill-opacity:1;fill-rule:nonzero;stroke:none"
           d="m 15637.6,13372.4 c -37.5,0 -72.8,14.7 -99.3,41.1 l -415.8,415.9 c -147.3,147.3 -147.3,387.1 0.1,534.5 65.1,65.2 151.5,100.2 245.1,100.2 8.5,0 17.2,-0.3 25.9,-0.9 89.4,-6.1 175.1,-42.7 244,-103.5 78,68.8 174.6,103.8 268.6,103.8 91.1,0 179.8,-32.9 246.5,-99.6 147.3,-147.3 147.3,-387.2 0,-534.5 l -415.9,-415.9 c -26.5,-26.4 -61.7,-41.1 -99.2,-41.1" /></g><g
         transform="scale(0.20107)"
         id="g312"><path
           id="path314"
           style="fill:#fc9191;fill-opacity:1;fill-rule:nonzero;stroke:none"
           d="m 14363.1,12992 c -7.5,9.3 -15.1,18.6 -22.4,28.1 -2.3,5.5 -4.9,11.7 -7.8,18.4 9.8,-15.7 19.8,-31.2 30.2,-46.5 m -48.5,63.2 c -128.2,178.4 -209.1,393 -224.3,625.6 0,0 0,0 0,0 0,0.5 -0.1,1 -0.1,1.5 0,0.1 0,0.2 0,0.2 0,0.5 -0.1,0.9 -0.1,1.4 0,0.1 0,0.2 0,0.3 0,0.4 -0.1,0.9 -0.1,1.3 0,0.2 0,0.3 0,0.5 0,0.4 -0.1,0.8 -0.1,1.2 0,0.2 0,0.3 0,0.5 -0.1,0.4 -0.1,0.8 -0.1,1.2 0,0.2 0,0.4 0,0.6 -0.1,0.4 -0.1,0.7 -0.1,1.1 0,0.2 0,0.4 0,0.7 -0.1,0.3 -0.1,0.6 -0.1,1 0,0.2 0,0.5 0,0.8 -0.1,0.2 -0.1,0.5 -0.1,0.8 0,0.3 0,0.7 0,1 -0.1,0.2 -0.1,0.5 -0.1,0.7 0,0.4 0,0.8 0,1.1 0,0.3 -0.1,0.5 -0.1,0.7 0,0.5 0,1 0,1.5 0,0 -0.1,0.1 -0.1,0.2 0,1.2 -0.1,2.4 -0.1,3.5 0,0.1 0,0.2 0,0.3 -0.1,0.4 -0.1,1 -0.1,1.5 0,0.1 0,0.2 0,0.3 -0.1,0.5 -0.1,1 -0.1,1.5 0,0.1 0,0.2 0,0.3 0,0.5 -0.1,0.9 -0.1,1.4 0,0.1 0,0.3 0,0.4 0,0.4 0,0.9 0,1.4 -0.1,0.1 -0.1,0.3 -0.1,0.4 0,0.5 0,0.9 0,1.3 0,0.2 0,0.3 0,0.4 -0.1,0.5 -0.1,1 -0.1,1.4 0,0.1 0,0.2 0,0.3 0,0.6 0,1 -0.1,1.6 0,0 0,0.1 0,0.2 0,0.5 0,1 0,1.6 0,0 0,0.1 0,0.2 -0.1,0.6 -0.1,1.1 -0.1,1.7 v 0 c -0.1,4.2 -0.3,8.4 -0.4,12.5 0,0.1 0,0.1 0,0.1 0,0.6 0,1.2 0,1.7 0,0.1 0,0.1 0,0.2 0,0.5 0,1 0,1.6 0,0.1 0,0.2 0,0.3 -0.1,0.5 -0.1,1 -0.1,1.5 0,0.1 0,0.2 0,0.3 0,0.4 0,0.9 0,1.4 0,0.1 0,0.3 0,0.4 0,0.5 0,0.9 0,1.4 0,0.1 0,0.2 0,0.3 -0.1,0.5 -0.1,1 -0.1,1.4 0,0.2 0,0.3 0,0.4 0,0.5 0,1 0,1.4 0,0.2 0,0.3 0,0.4 0,0.5 0,1 0,1.4 0,0.2 0,0.3 0,0.4 0,0.5 0,1 0,1.5 0,0.1 0,0.2 0,0.3 0,0.5 -0.1,1 -0.1,1.5 0,0.1 0,0.2 0,0.2 0,0.6 0,1.2 0,1.8 0,3.2 0,6.5 0,9.7 0.1,655.9 531.1,1199 1188.1,1211.7 8,0.1 15.9,0.2 23.9,0.2 415.4,0 782,-209.2 1000.3,-527.9 -0.3,0.4 -0.6,0.8 -0.9,1.1 -2.2,3.2 -4.4,6.4 -6.6,9.5 0.4,-1 0.8,-2 1.3,-3.1 -222.4,265.1 -555.9,433.5 -928.9,433.5 -8,0 -16,-0.1 -24,-0.2 -660.1,-12.7 -1193.1,-561.1 -1188,-1221.4 1.2,-156.2 32,-305.2 87.1,-441.9 -22.3,26.6 -43.4,54.3 -63.4,82.8 v -0.1 c 4.5,-11.2 9.3,-22.2 14.2,-33.2 l -0.3,0.3 c 34,-76.8 75.6,-149.5 124.1,-217" /></g><g
         transform="scale(0.173812)"
         id="g316"><path
           id="path318"
           style="fill:#9b8da2;fill-opacity:1;fill-rule:nonzero;stroke:none"
           d="m 16300,15826.2 v 0.1 c 0,-0.1 0,-0.1 0,-0.1 m -0.1,1.8 c 0,0.1 -0.1,0.2 -0.1,0.2 0,0 0.1,-0.1 0.1,-0.2 m -0.1,1.9 c -0.1,0.1 -0.1,0.2 -0.1,0.3 0,-0.1 0,-0.2 0.1,-0.3 m -0.1,1.8 c -0.1,0.2 -0.1,0.4 -0.1,0.6 0,-0.2 0,-0.4 0.1,-0.6 m -0.2,1.9 c 0,0.3 0,0.5 0,0.7 0,-0.3 0,-0.4 0,-0.7 m -0.1,2 c 0,0.2 0,0.5 0,0.7 0,-0.2 0,-0.5 0,-0.7 m -0.1,1.9 c 0,0.3 0,0.6 0,0.9 0,-0.3 0,-0.6 0,-0.9 m -0.1,2 c -0.1,0.3 -0.1,0.6 -0.1,1 0,-0.4 0,-0.7 0.1,-1 m -0.1,2 c -0.1,0.3 -0.1,0.7 -0.1,1.1 0,-0.4 0,-0.8 0.1,-1.1 m -0.1,1.9 c 0,0.5 -0.1,0.9 -0.1,1.3 0,-0.4 0.1,-0.8 0.1,-1.3 m -0.2,2 c 0,0.6 0,1.2 0,1.8 0,-0.6 0,-1.2 0,-1.8 m -0.1,2 c 0,1.4 -0.1,2.7 -0.1,4.1 0,-1.4 0.1,-2.7 0.1,-4.1 m -0.1,4.4 c -0.1,0.5 -0.1,1.2 -0.2,1.7 0.1,-0.5 0.1,-1.2 0.2,-1.7 m -0.2,2.1 c 0,0.6 0,1.1 0,1.7 0,-0.6 0,-1.1 0,-1.7 m -0.1,2.1 c 0,0.5 0,1.1 0,1.6 0,-0.5 0,-1.1 0,-1.6 m 0,2 c -0.1,0.5 -0.1,1.1 -0.1,1.6 0,-0.5 0,-1.1 0.1,-1.6 m -0.1,2.1 c 0,0.6 0,1.1 -0.1,1.6 0.1,-0.6 0.1,-1 0.1,-1.6 m -0.1,2 c -0.1,0.6 -0.1,1.2 -0.1,1.7 0,-0.5 0,-1.1 0.1,-1.7 m -0.1,2 c 0,0.6 0,1.2 -0.1,1.8 0.1,-0.6 0.1,-1.1 0.1,-1.8 m -0.1,2 c 0,0.7 0,1.2 0,1.9 0,-0.7 0,-1.3 0,-1.9 m 0,2.1 c -0.1,0.7 -0.1,1.3 -0.1,2 0,-0.7 0,-1.3 0.1,-2 m -0.1,2 c -0.2,4.9 -0.3,9.7 -0.4,14.5 0.1,-4.8 0.2,-9.6 0.4,-14.5 m -0.4,14.6 c 0,0.7 0,1.4 -0.1,2 0.1,-0.6 0.1,-1.3 0.1,-2 m -0.1,2.2 c 0,0.6 0,1.2 0,1.8 0,-0.6 0,-1.2 0,-1.8 m 0,2.2 c -0.1,0.5 -0.1,1.1 -0.1,1.7 0,-0.6 0,-1.2 0.1,-1.7 m -0.1,2 c 0,0.5 0,1.1 0,1.6 0,-0.5 0,-1.1 0,-1.6 m 0,2.2 c 0,0.5 0,1 0,1.6 0,-0.6 0,-1.1 0,-1.6 m 0,2 c -0.1,0.5 -0.1,1.1 -0.1,1.6 0,-0.5 0,-1.1 0.1,-1.6 m -0.1,2 c 0,0.6 0,1.1 0,1.7 0,-0.6 0,-1.1 0,-1.7 m 0,2.1 c 0,0.5 0,1 0,1.6 0,-0.5 0,-1.1 0,-1.6 m 0,2 c 0,0.6 0,1.2 0,1.8 0,-0.6 0,-1.1 0,-1.8 m 0,2.1 c 0,0.6 -0.1,1.3 -0.1,1.8 0,-0.5 0.1,-1.2 0.1,-1.8 m -0.1,2.1 c 0,0.7 0,1.3 0,2 0,3.7 0,7.5 0,11.2 0,-3.7 0,-7.5 0,-11.2 0,-0.7 0,-1.3 0,-2" /></g><g
         transform="scale(0.201059)"
         id="g320"><path
           id="path322"
           style="fill:#e59299;fill-opacity:1;fill-rule:nonzero;stroke:none"
           d="m 14341.5,13020.8 c -8.9,11.5 -17.6,23.2 -26.1,35.1 -48.5,67.5 -90.2,140.2 -124.1,217.1 l 0.3,-0.3 c -4.9,11 -9.7,22 -14.2,33.2 v 0 c 20,-28.5 41.1,-56.2 63.4,-82.8 25.8,-64.2 56.9,-125.7 92.9,-183.9 2.8,-6.7 5.5,-12.9 7.8,-18.4 m 1958.5,1426 c -1.8,2.1 -3.5,4.3 -5.3,6.4 -0.5,1.1 -0.9,2.1 -1.3,3.1 2.2,-3.1 4.4,-6.3 6.6,-9.5" /></g><g
         transform="scale(0.196027)"
         id="g324"><path
           id="path326"
           style="fill:#ffffff;fill-opacity:1;fill-rule:nonzero;stroke:none"
           d="m 15213.6,14503.9 v 0 c 127,127 332.9,104.3 459.9,-22.7 l 19.8,-19.8 19.7,19.8 c 127.1,127 333,149.7 460,22.7 v 0 c 127,-127 127,-332.9 0,-459.9 l -19.8,-19.8 -399.3,-399.3 c -33.5,-33.5 -87.7,-33.5 -121.3,0 l -399.2,399.3 -19.8,19.8 c -127.1,127 -127.1,332.9 0,459.9" /></g><g
         transform="scale(0.196698)"
         id="g328"><path
           id="path330"
           style="fill:#371a45;fill-opacity:1;fill-rule:nonzero;stroke:none"
           d="m 15161.7,14454.5 h 0.3 z m 208.4,33.1 c -64.3,0 -126.1,-22.8 -172.5,-69.1 -51.6,-51.6 -80,-120.2 -80,-193.2 0,-73 28.4,-141.6 80,-193.2 l 417.7,-417.7 c 13.5,-13.5 35.4,-13.5 49,0 l 417.6,417.7 c 106.6,106.5 106.6,279.9 0,386.4 -100.3,100.3 -273.7,90.2 -386.5,-22.6 l -19.7,-19.7 c -19.8,-19.9 -52,-19.9 -71.8,0 l -19.8,19.7 c -60.7,60.7 -139,91.7 -214,91.7 z m 269.7,-984.9 c -34.9,0 -69.8,13.2 -96.4,39.8 l -417.6,417.7 c -70.9,70.8 -109.9,164.9 -109.9,265.1 0,100.1 39,194.3 109.9,265.1 135,135.1 361.3,130.3 514,-7.2 152.6,137.5 379,142.3 514,7.2 146.2,-146.1 146.2,-384 0,-530.2 l -417.7,-417.7 c -26.5,-26.5 -61.4,-39.8 -96.3,-39.8" /></g><g
         transform="scale(0.202454)"
         id="g332"><path
           id="path334"
           style="fill:#c3bac7;fill-opacity:1;fill-rule:nonzero;stroke:none"
           d="m 9841.74,3449.97 c -3566.73,0 -6458.26,203.06 -6458.26,453.29 0,70.29 228.65,137.12 636.9,196.44 h 60.8 c -0.11,-0.5 -0.21,-1.04 -0.29,-1.54 -2.15,-13.58 7.1,-26.32 20.66,-28.44 240.72,-38.09 481.43,-47.22 722.15,-51.92 89.31,-1.92 178.62,-2.67 267.93,-2.67 31.07,0 62.09,0.05 93.15,0.25 6.13,0 12.25,0 18.43,0 114.2,0 228.44,1.63 342.64,2.82 196.94,1.83 393.82,2.52 590.8,2.52 43.77,0 87.58,0 131.34,-0.1 h 722.19 2888.61 2888.61 1444.3 l 361.1,-0.1 180.5,-1.78 180.6,-3.06 c 20.5,-0.05 41.1,-0.1 61.6,-0.1 220.2,0 440.4,5.98 660.6,54.14 9.2,2.07 16.9,9.28 19.1,19.16 0.7,3.06 0.8,6.08 0.3,8.99 400.5,-58.88 624.5,-125.02 624.5,-194.61 0,-250.23 -2891.5,-453.29 -6458.26,-453.29" /></g><g
         transform="scale(0.194703)"
         id="g336"><path
           id="path338"
           style="fill:#371a45;fill-opacity:1;fill-rule:nonzero;stroke:none"
           d="m 5294.32,4174.97 c -92.86,0 -185.73,0.77 -278.59,2.78 -250.31,4.88 -500.6,14.38 -750.9,53.98 -14.1,2.2 -23.71,15.45 -21.48,29.58 0.08,0.51 0.18,1.08 0.3,1.59 h 1007.17 c 53.56,-31.94 116.12,-50.28 182.84,-50.28 h 9676.74 c 66.8,0 129.3,18.34 182.8,50.28 h 993.4 c 4.4,-0.61 8.7,-1.23 12.9,-1.9 0.5,-3.03 0.4,-6.16 -0.3,-9.35 -2.2,-10.27 -10.3,-17.77 -19.9,-19.92 -229,-50.08 -457.9,-56.3 -686.9,-56.3 -21.3,0 -42.7,0.06 -64,0.11 l -187.8,3.18 -187.7,1.85 -375.4,0.1 H 13275.7 10272.1 7268.45 6517.51 c -45.5,0.11 -91.06,0.11 -136.56,0.11 -204.83,0 -409.55,-0.72 -614.32,-2.62 -118.75,-1.23 -237.54,-2.93 -356.29,-2.93 -6.42,0 -12.79,0 -19.16,0 -32.3,-0.21 -64.56,-0.26 -96.86,-0.26" /></g><g
         transform="scale(0.182677)"
         id="g340"><path
           id="path342"
           style="fill:#371a45;fill-opacity:1;fill-rule:nonzero;stroke:none"
           d="M 16105.1,4489.94 H 5791.36 c -71.11,0 -137.78,19.54 -194.88,53.59 H 16300 c -57,-34.05 -123.7,-53.59 -194.9,-53.59" /></g><g
         transform="scale(0.113012)"
         id="g344"><path
           id="path346"
           style="fill:#fff2bd;fill-opacity:1;fill-rule:nonzero;stroke:none"
           d="m 10901.7,15819.8 -311.3,-48.1 c -62.3,-9.6 -111.2,-58.5 -120.9,-120.9 l -48,-311.2 -48.1,311.2 c -9.6,62.4 -58.5,111.3 -120.9,120.9 l -311.23,48.1 311.23,48 c 62.4,9.7 111.3,58.6 120.9,121 l 48.1,311.2 48,-311.2 c 9.7,-62.4 58.6,-111.3 120.9,-121 l 311.3,-48" /></g><path
         id="path348"
         style="fill:#fff2bd;fill-opacity:1;fill-rule:nonzero;stroke:none;stroke-width:0.1"
         d="m 1092.41,1555.92 -33.01,-5.1 c -6.61,-1.02 -11.8,-6.21 -12.82,-12.82 l -5.09,-33 -5.1,33 c -1.02,6.61 -6.21,11.8 -12.82,12.82 l -33.003,5.1 33.003,5.1 c 6.61,1.02 11.8,6.2 12.82,12.82 l 5.1,33 5.09,-33 c 1.02,-6.62 6.21,-11.8 12.82,-12.82 l 33.01,-5.1" /><g
         transform="scale(0.122474)"
         id="g350"><path
           id="path352"
           style="fill:#fff2bd;fill-opacity:1;fill-rule:nonzero;stroke:none"
           d="m 8008.8,15990 -200.95,-31.1 c -40.26,-6.2 -71.85,-37.8 -78.07,-78.1 l -31.02,-200.9 -31.03,200.9 c -6.22,40.3 -37.82,71.9 -78.08,78.1 l -200.95,31.1 200.95,31 c 40.26,6.2 71.86,37.8 78.08,78.1 l 31.03,200.9 31.02,-200.9 c 6.22,-40.3 37.81,-71.9 78.07,-78.1 l 200.95,-31" /></g><g
         transform="scale(0.194546)"
         id="g354"><path
           id="path356"
           style="fill:#fff2bd;fill-opacity:1;fill-rule:nonzero;stroke:none"
           d="m 15726.8,9659.1 185.7,-28.68 c 37.2,-5.76 66.5,-34.95 72.2,-72.17 l 28.7,-185.76 28.7,185.76 c 5.7,37.22 34.9,66.41 72.1,72.17 l 185.8,28.68 -185.8,28.69 c -37.2,5.75 -66.4,34.95 -72.1,72.16 l -28.7,185.72 -28.7,-185.72 c -5.7,-37.21 -35,-66.41 -72.2,-72.16 l -185.7,-28.69" /></g><g
         transform="scale(0.180787)"
         id="g358"><path
           id="path360"
           style="fill:#fff2bd;fill-opacity:1;fill-rule:nonzero;stroke:none"
           d="m 15721.3,9108.12 187.5,-28.99 c 37.6,-5.81 67.1,-35.29 72.9,-72.85 l 29,-187.51 28.9,187.51 c 5.8,37.56 35.3,67.04 72.8,72.85 l 187.6,28.99 -187.6,28.93 c -37.5,5.8 -67,35.29 -72.8,72.9 l -28.9,187.51 -29,-187.51 c -5.8,-37.61 -35.3,-67.1 -72.9,-72.9 l -187.5,-28.93" /></g><g
         transform="scale(0.183911)"
         id="g362"><path
           id="path364"
           style="fill:#fff2bd;fill-opacity:1;fill-rule:nonzero;stroke:none"
           d="m 15875.8,11288 137.5,-21.2 c 27.5,-4.3 49.1,-25.9 53.4,-53.4 l 21.2,-137.5 21.2,137.5 c 4.3,27.5 25.9,49.1 53.4,53.4 l 137.5,21.2 -137.5,21.2 c -27.5,4.3 -49.1,25.9 -53.4,53.5 l -21.2,137.4 -21.2,-137.4 c -4.3,-27.6 -25.9,-49.2 -53.4,-53.5 l -137.5,-21.2" /></g><g
         transform="scale(0.17227)"
         id="g366"><path
           id="path368"
           style="fill:#fff2bd;fill-opacity:1;fill-rule:nonzero;stroke:none"
           d="m 7930.75,16053.2 -159.98,-24.7 c -32.04,-4.9 -57.18,-30.1 -62.11,-62.1 l -24.73,-160 -24.67,160 c -4.99,32 -30.13,57.2 -62.17,62.1 l -159.92,24.7 159.92,24.7 c 32.04,4.9 57.18,30.1 62.17,62.1 l 24.67,160 24.73,-160 c 4.93,-32 30.07,-57.2 62.11,-62.1 l 159.98,-24.7" /></g><g
         transform="scale(0.158765)"
         id="g370"><path
           id="path372"
           style="fill:#fff2bd;fill-opacity:1;fill-rule:nonzero;stroke:none"
           d="m 7368.88,16022 -180.08,-27.7 c -36.09,-5.6 -64.44,-33.9 -70.04,-70 l -27.78,-180.2 -27.84,180.2 c -5.54,36.1 -33.88,64.4 -69.98,70 l -180.14,27.7 180.14,27.9 c 36.1,5.5 64.44,33.9 69.98,70 l 27.84,180.1 27.78,-180.1 c 5.6,-36.1 33.95,-64.5 70.04,-70 l 180.08,-27.9" /></g><g
         transform="scale(0.182699)"
         id="g374"><path
           id="path376"
           style="fill:#fff2bd;fill-opacity:1;fill-rule:nonzero;stroke:none"
           d="m 13473.9,16067.3 150.8,-23.3 c 30.2,-4.6 53.9,-28.3 58.6,-58.6 l 23.3,-150.8 23.3,150.8 c 4.6,30.3 28.4,54 58.6,58.6 l 150.8,23.3 -150.8,23.3 c -30.2,4.6 -54,28.3 -58.6,58.6 l -23.3,150.8 -23.3,-150.8 c -4.7,-30.3 -28.4,-54 -58.6,-58.6 l -150.8,-23.3" /></g></g></g></svg>