<?xml version="1.0" encoding="UTF-8" standalone="no"?>
<svg
   xmlns:dc="http://purl.org/dc/elements/1.1/"
   xmlns:cc="http://creativecommons.org/ns#"
   xmlns:rdf="http://www.w3.org/1999/02/22-rdf-syntax-ns#"
   xmlns:svg="http://www.w3.org/2000/svg"
   xmlns="http://www.w3.org/2000/svg"
   viewBox="0 0 5333.3335 5333.3335"
   height="5333.3335"
   width="5333.3335"
   xml:space="preserve"
   id="svg2"
   version="1.1"><metadata
     id="metadata8"><rdf:RDF><cc:Work
         rdf:about=""><dc:format>image/svg+xml</dc:format><dc:type
           rdf:resource="http://purl.org/dc/dcmitype/StillImage" /><dc:title></dc:title></cc:Work></rdf:RDF></metadata><defs
     id="defs6" /><g
     transform="matrix(1.3333333,0,0,-1.3333333,0,5333.3333)"
     id="g10"><g
       transform="matrix(0.97607252,-1.3313156,1.3313156,0.97607252,-2433.1293,2557.0264)"
       id="g828"><g
         transform="scale(0.149714)"
         id="g18"><path
           id="path20"
           style="fill:#ffffff;fill-opacity:1;fill-rule:nonzero;stroke:none"
           d="m 12382.9,14781 c -46.1,-782.6 -305.9,-1596.8 -1164,-1710.1 -1708.87,-225.2 -1567.53,1932.6 -1567.53,1932.6 0,0 -411.26,92 -590.06,410.1 -72.61,129.4 -120.83,252.6 -152.36,363.9 -87.17,306.8 -48.23,522.5 -48.23,522.5 h 3403.48 c 0,0 164.2,-743.9 118.7,-1519" /></g><g
         transform="scale(0.150806)"
         id="g22"><path
           id="path24"
           style="fill:#371a45;fill-opacity:1;fill-rule:nonzero;stroke:none"
           d="m 8906.4,16063.7 c -1.33,-137 22.94,-403.1 192.23,-703.9 148.87,-264.7 505.35,-348.9 508.94,-349.8 56.56,-12.9 95.62,-65.1 91.84,-123 -0.67,-10.3 -60.61,-1047.3 470.89,-1544.2 233.2,-218.1 553.3,-302 951.8,-249.4 312.7,41.3 550.1,183.2 725.6,433.8 517,737.9 299.7,2160.8 230.5,2536.5 H 8906.4 m 1991.3,-3222 c -357.3,0 -655.7,110.2 -889.4,329 -516.64,483.8 -551.59,1348.7 -547.88,1636.9 -145.68,50.3 -421.07,175.5 -567.81,436.3 -288.78,513.3 -215.64,941.1 -212.39,959 10.21,56.2 59.14,97.1 116.24,97.1 h 3378.94 c 55.4,0 103.4,-38.5 115.3,-92.7 16.9,-76.3 405.5,-1880.9 -249.4,-2815.7 -212.7,-303.7 -511.6,-482.8 -888.3,-532.5 -88.2,-11.6 -173.3,-17.4 -255.3,-17.4" /></g><g
         transform="scale(0.171598)"
         id="g26"><path
           id="path28"
           style="fill:#ffffff;fill-opacity:1;fill-rule:nonzero;stroke:none"
           d="m 14893,13124 c 4.7,24.9 323,839.4 275.2,1289.9 -41.7,392.8 -662.6,1331.1 -1504.1,1608.1 -844.4,278 -1172.7,-1677.3 -1172.7,-1677.3 L 14893,13124" /></g><g
         transform="scale(0.170342)"
         id="g30"><path
           id="path32"
           style="fill:#ffffff;fill-opacity:1;fill-rule:nonzero;stroke:none"
           d="m 15076.8,13435.5 c -41.3,-124.2 -72.4,-207.1 -74,-214.7 l -2419.3,1229.7 c 0,0 61.2,363 197.9,755.3 182,521.5 498.2,1094.2 983.6,934.4 847.6,-279 1472.9,-1224.4 1515,-1620.1 33.2,-314.4 -110.4,-804.5 -203.2,-1084.6" /></g><g
         transform="scale(0.158016)"
         id="g34"><path
           id="path36"
           style="fill:#b9afbe;fill-opacity:1;fill-rule:nonzero;stroke:none"
           d="m 16194.2,14671.6 c -41.1,46.4 -89.8,106.3 -135.2,162.3 -32.3,39.7 -66.8,82.3 -103.8,126.9 6,2.1 11.8,4.4 17.5,7 25.9,11.4 49.4,27.6 69.8,49.2 73.6,-112.2 128.9,-216.6 163.5,-306.7 -3.8,-12.7 -7.8,-25.7 -11.8,-38.7 m -1144.6,1136 c -199.9,133.3 -427.8,253.8 -688.2,347 49.8,43.1 96.7,91.9 140.2,145.4 210,-88.5 407.8,-201.2 589.8,-327.4 -1.8,-5.5 -3.5,-11 -5.1,-16.7 -14.8,-49.3 -27,-99.5 -36.7,-148.3" /></g><g
         transform="scale(0.170315)"
         id="g38"><path
           id="path40"
           style="fill:#371a45;fill-opacity:1;fill-rule:nonzero;stroke:none"
           d="m 12702.4,14510.7 2243.3,-1140.2 c 222.9,645.1 250.2,976.1 232.7,1141 -35.4,334.4 -617.8,1259.8 -1444,1531.9 -117,38.5 -224.7,26.4 -329.4,-36.7 -386,-233 -624.8,-1097 -702.6,-1496 m 2405.6,-1307.3 -0.3,-1.6 c 0.1,0.6 0.2,1.2 0.3,1.6 m -26,-136.9 -2612.4,1327.8 12.8,75.7 c 9.3,55.7 235.3,1366.1 814.3,1715.7 157.9,95.4 327.2,114.3 503.1,56.4 889.2,-292.7 1542,-1286.5 1586.7,-1708.5 29.7,-279.8 -60.4,-717.9 -267.8,-1302.3 -5.5,-15.5 -9.6,-26.7 -11.7,-33.2 l -25,-131.6" /></g><g
         transform="scale(0.158785)"
         id="g42"><path
           id="path44"
           style="fill:#ffffff;fill-opacity:1;fill-rule:nonzero;stroke:none"
           d="m 14948.5,15494.1 c 6.1,256.4 132.7,805.9 410.9,778 278.3,-28 840.2,-426.8 677.6,-1178 -126,-582.7 -1094.6,143.6 -1088.5,400" /></g><g
         transform="scale(0.156225)"
         id="g46"><path
           id="path48"
           style="fill:#b9afbe;fill-opacity:1;fill-rule:nonzero;stroke:none"
           d="m 16226.4,15189.2 v 0 c 33.5,35.6 58.9,85.4 73.3,152.2 0.2,0.4 0.2,0.8 0.3,1.2 -0.1,-0.4 -0.1,-0.8 -0.3,-1.2 -14.4,-66.8 -39.8,-116.7 -73.3,-152.2" /></g><g
         transform="scale(0.15552)"
         id="g50"><path
           id="path52"
           style="fill:#8c7b94;fill-opacity:1;fill-rule:nonzero;stroke:none"
           d="m 16229.1,15208 c 26.3,11.7 50.2,28.2 70.9,50.1 v 0 c -20.7,-22 -44.6,-38.4 -70.9,-50.1 m -937.8,853.3 h -0.1 c 9.8,49.6 22.2,100.6 37.2,150.7 -15,-50.1 -27.4,-101.1 -37.1,-150.7" /></g><g
         transform="scale(0.156379)"
         id="g54"><path
           id="path56"
           style="fill:#b9afbe;fill-opacity:1;fill-rule:nonzero;stroke:none"
           d="m 16122.2,15117.5 c -4.4,5.4 -8.9,10.8 -13.5,16.3 6.2,138.3 -2.6,269.1 -25.5,383.6 74.4,-40.7 147.7,-75.2 216.8,-100.7 -4.2,-29 -9.5,-58.8 -16,-89.1 0,-0.4 -0.1,-0.9 -0.2,-1.3 -14.4,-66.7 -39.8,-116.5 -73.3,-152 -20.6,-21.8 -44.3,-38.2 -70.6,-49.8 -5.7,-2.5 -11.7,-4.9 -17.7,-7 m -864.5,821.3 c -16.6,11.5 -33.4,22.9 -50.4,34.3 9.7,49.3 22,100.1 36.9,149.9 11.4,38 24.3,75.5 38.8,111.3 26.5,-64.5 83.4,-142.5 159.9,-224.9 -69.8,-14.7 -133.2,-41.2 -185.2,-70.6" /></g><g
         transform="scale(0.159689)"
         id="g58"><path
           id="path60"
           style="fill:#371a45;fill-opacity:1;fill-rule:nonzero;stroke:none"
           d="m 14975.4,15403.7 z m 0,0.3 c 4.6,-100.3 401.4,-477.4 692.6,-502.2 99.4,-8.5 147,28.1 169.1,130.4 76.6,354.1 -29.7,596.8 -132.4,738 -146.3,201.2 -345.3,288.9 -443.4,298.7 -16.8,1.7 -43.4,0.4 -78.5,-30.7 -126.4,-111.6 -202.9,-445.6 -207.4,-634.2 z m 718,-726.5 c -20.4,0 -41.4,1.3 -63.1,3.9 -358.8,42.7 -883.9,477.9 -878,727.6 v 0 c 5.1,216 86.5,623.2 282.7,796.6 73.4,64.8 159.4,94.4 248.6,85.4 170.9,-17.2 423.2,-144.2 601.6,-389.5 129.5,-178.1 264.1,-481.6 170.1,-916.4 -42.9,-198.1 -173.2,-307.6 -361.9,-307.6" /></g><g
         transform="scale(0.157839)"
         id="g62"><path
           id="path64"
           style="fill:#371a45;fill-opacity:1;fill-rule:nonzero;stroke:none"
           d="m 15613.7,16223.4 c -15.1,-70.6 -28.2,-143.6 -39.2,-215.7 -11,-72.2 -19.9,-144.6 -25.3,-216.3 -5.4,-71.4 -7.6,-142.8 -2.2,-209.1 2.7,-32.8 7.6,-64.7 15.3,-90.6 6.8,-26 20.6,-44.2 22,-41.7 44.1,-44.1 44.1,-115.6 0,-159.6 -44.1,-44.1 -115.6,-44.1 -159.7,0 -24.3,27.5 -41.5,57.5 -50.4,83.5 -10.5,26.9 -15.4,51.3 -19.2,74.9 -7.1,47 -7.2,89.7 -5.6,131.2 4,82.5 16.7,159.5 32.1,235.3 15.5,75.7 34.3,149.5 55.1,222.6 20.9,73.2 43.3,144.6 68.7,217.1 10.4,29.5 42.7,45 72.1,34.7 27.1,-9.6 42.5,-37.7 36.6,-65.2 l -0.3,-1.1" /></g><g
         transform="scale(0.178404)"
         id="g66"><path
           id="path68"
           style="fill:#ffffff;fill-opacity:1;fill-rule:nonzero;stroke:none"
           d="m 16247.3,12644.4 c -18.7,-75.9 -55.9,-139.9 -104.4,-188.3 -217.9,-217.5 -586,-29 -660.9,13 -8.8,4.7 -13.5,7.7 -13.5,7.7 0,0 -15,-88.1 -54,-222.4 -48.4,-166.1 -133.3,-403.3 -271.6,-632.8 -574.1,-951.4 -1630.1,-124.3 -1630.1,-124.3 l -3103.3,322.3 -687.2,71.4 c 0,0 -582.05,226.5 -604.53,1657.3 -14.23,904.4 1921.73,893.4 2831.63,821.5 1778.6,-140.8 2320,-1734.2 2489.5,-1524.1 131.2,162.5 163.3,725 337.9,906.4 158,164.3 609,102.6 1046.8,-264.2 385,-323.1 476.4,-630.5 423.7,-843.5" /></g><g
         transform="scale(0.176406)"
         id="g70"><path
           id="path72"
           style="fill:#b9afbe;fill-opacity:1;fill-rule:nonzero;stroke:none"
           d="m 16054.3,12593.8 c -172.7,0 -354.7,108.5 -358.1,110.5 l -47.5,29.1 c -20.7,221.9 -59.6,419.7 6.4,425.5 0.6,0 1.2,0 1.8,0 40.7,0 82.8,-113.9 156.3,-227.9 73.4,-113.9 178.3,-227.9 344.7,-227.9 43.1,0 90.2,7.6 142.1,24.9 -12.6,-21.8 -27.8,-41.7 -45.4,-59.3 -55.6,-55.4 -127.1,-74.9 -200.3,-74.9" /></g><g
         transform="scale(0.166192)"
         id="g74"><path
           id="path76"
           style="fill:#b9afbe;fill-opacity:1;fill-rule:nonzero;stroke:none"
           d="m 15538.4,12095.6 c -298,329.9 -635.6,612.3 -1001.7,844.3 78.6,62.5 151.1,133.4 216.7,211.9 226.6,-227.7 465.9,-451.9 755.9,-635.2 89.6,-56.6 175.4,-80.7 256.4,-80.7 217.6,0 401.2,173.5 534.3,356.3 -38.5,-85.6 -83.6,-174.1 -136.2,-261.3 -145.5,-240.9 -333.9,-384.3 -560,-426.1 -21.8,-4 -43.5,-7 -65.4,-9.2 m -1833.5,1266.2 c -90.3,35.5 -181.7,68.3 -273.9,98.3 60.3,160.7 102.1,324.4 130.9,480.3 v 0 c 0,0 0.1,0.2 0.1,0.2 11.6,63.1 21.1,125 28.8,184.8 180.7,-88.9 341.8,-200.8 493,-326.3 -106.3,-191.2 -257.7,-339.1 -378.9,-437.3" /></g><g
         transform="scale(0.179139)"
         id="g78"><path
           id="path80"
           style="fill:#371a45;fill-opacity:1;fill-rule:nonzero;stroke:none"
           d="m 9710.19,11939.4 3786.01,-393.4 22.5,-17.7 c 4.9,-3.8 498,-383.2 957.3,-298.3 209.8,38.8 384.7,171.8 519.6,395.3 236.2,391.5 310.5,812.8 311.3,817 l 24.9,144.6 124.9,-76.4 c 4.8,-2.9 366.2,-218.2 549.9,-35.1 61,60.9 92.2,149.7 87.9,250.2 -8.5,197.7 -150.5,421.6 -399.8,630.6 -400.2,335.6 -797.9,383.7 -906.8,270.6 -76.2,-79.2 -127,-282.7 -171.8,-462.2 -46,-184.2 -85.7,-343.2 -159,-434 -29.1,-36.1 -69.2,-55.9 -112.9,-56 h -0.2 c -101.8,0 -179,95.2 -333,284.7 -328.9,405.2 -941.2,1159.2 -2118.3,1252.4 -966.3,76.4 -2146.11,19.8 -2559.65,-368.3 -105.28,-98.9 -155.41,-213 -153.23,-349 19.26,-1221.8 458.97,-1515.4 530.37,-1555 m 4626.41,-920.8 c -426.9,0 -817.1,262.7 -916.8,335.3 l -3760.97,390.8 -12.45,4.9 c -26.23,10.2 -642.24,266.7 -665.46,1741.7 -3.07,192.5 69.61,359.7 215.98,497.1 564.09,529.5 2084.1,471.2 2711.5,421.6 1262.2,-99.9 1909.3,-897 2257.1,-1325.2 57.2,-70.5 120.2,-148.2 161.4,-188.2 35.6,73.8 67.4,201.2 96.2,316.2 53.3,213.7 108.4,434.5 221.5,552 218.4,227 735.9,114.5 1177.9,-256.1 375,-314.4 463,-594.7 470.7,-774.5 6.8,-157 -45.1,-298.9 -146.1,-399.7 -207.5,-206.8 -506.5,-125.4 -672.3,-54.8 -41.3,-165.7 -133,-465.7 -308.9,-757.2 -165.8,-274.7 -386.1,-439 -654.7,-488.3 -58.4,-10.8 -116.8,-15.6 -174.6,-15.6" /></g><g
         transform="scale(0.170439)"
         id="g82"><path
           id="path84"
           style="fill:#371a45;fill-opacity:1;fill-rule:nonzero;stroke:none"
           d="m 16255.1,13623.8 c 8.1,-48.2 14.6,-94.8 20.3,-142.5 5.7,-47.4 10.4,-95.1 14.2,-143.2 7.3,-96 10.4,-193.1 5.1,-293.4 v -0.3 c -3.1,-58 -52.6,-102.4 -110.5,-99.4 -57.9,3.1 -102.3,52.5 -99.3,110.4 0.4,6.5 1.4,13.4 2.9,19.5 20.7,84.9 35,174.6 44.9,265.5 5,45.4 9,91.2 12.1,137.2 3,45.7 5.2,92.5 6.1,137.5 v 1.2 c 0.7,28.9 24.6,51.9 53.6,51.3 25.6,-0.5 46.6,-19.4 50.6,-43.8" /></g><g
         transform="scale(0.160709)"
         id="g86"><path
           id="path88"
           style="fill:#371a45;fill-opacity:1;fill-rule:nonzero;stroke:none"
           d="m 15933.1,14414.3 c 36.3,-44.8 68.4,-87.6 101.1,-132.4 32.2,-44.5 63.5,-89.6 93.6,-135.7 59.9,-92.4 116.3,-187.8 160.3,-292.1 11.9,-28.3 -1.4,-60.9 -29.6,-72.8 -25.3,-10.7 -54,-1.3 -68.3,21.1 l -0.8,1.2 c -54.8,85 -122,164.4 -192.7,240.3 -35.5,37.9 -72.2,75 -109.5,111.2 -37.1,35.9 -76,72.5 -113.4,104.9 -46.5,40.2 -51.5,110.5 -11.3,157 40.3,46.4 110.6,51.5 157.1,11.2 4.8,-4.1 9.5,-9.2 13.5,-13.9" /></g><g
         transform="scale(0.154088)"
         id="g90"><path
           id="path92"
           style="fill:#ffffff;fill-opacity:1;fill-rule:nonzero;stroke:none"
           d="m 16122.8,14794.7 c -145.4,-416.9 -443.8,-816.5 -957.5,-985.9 l -542.4,351 c 0,0 479,263.1 707.1,742.8 28.4,59.8 53.3,117.6 74.3,173.4 223,586 76.4,958.1 76.4,958.1 0,0 328.1,262.8 604.8,-25.4 164.2,-171.2 214.5,-705.5 37.3,-1214" /></g><g
         transform="scale(0.151182)"
         id="g94"><path
           id="path96"
           style="fill:#b9afbe;fill-opacity:1;fill-rule:nonzero;stroke:none"
           d="m 15763.3,14355 c -148,84.3 -299.4,161.2 -454.2,230.9 147.9,134.1 311.2,319.2 422.2,552.5 19.5,40.8 37.3,80.9 53.6,120.2 73.8,-81.6 162.9,-149.6 266.3,-175.3 69.1,-17.4 135.6,-24.7 198.7,-24.7 17,0 33.6,0.5 50.1,1.5 -90.2,-233.6 -251.2,-509.9 -536.7,-705.1" /></g><g
         transform="scale(0.155073)"
         id="g98"><path
           id="path100"
           style="fill:#371a45;fill-opacity:1;fill-rule:nonzero;stroke:none"
           d="m 15069,13606.3 c -48.2,0 -93.1,30.6 -109.1,78.9 -19.8,60.3 12.9,125.3 73.2,145.2 626.2,206.4 849.9,760.4 927.4,1072.3 111.2,446.7 36.4,824.2 -60.2,924.9 -140.4,146.4 -298.6,98.8 -384.5,54 38.6,-174.2 79.3,-580.4 -179.2,-1123.1 -240.1,-504.2 -730.6,-777.9 -751.3,-789.3 -55.6,-30.5 -125.5,-10.2 -156.1,45.4 -30.5,55.6 -10.2,125.5 45.3,156 7.4,4.1 447.8,252.5 654.6,686.7 295.7,620.8 147.5,1029.7 146,1033.8 l -29.4,78.1 64.8,52.9 c 141.2,113 480.8,251 755.6,-35.4 184.5,-192.3 233.9,-671.5 117.4,-1139.5 -151.4,-608.9 -544.5,-1059.1 -1078.4,-1235.1 -12,-3.9 -24.1,-5.8 -36.1,-5.8" /></g><g
         transform="scale(0.172702)"
         id="g102"><path
           id="path104"
           style="fill:#ffa726;fill-opacity:1;fill-rule:nonzero;stroke:none"
           d="M 13673.2,4479.55 C 11459.7,3249.63 8668.44,4046.84 7438.52,6260.36 c -213.26,383.73 -365.55,784.65 -459.98,1191.88 -41.23,177.18 -71.52,355.64 -90.91,534.1 -194.91,1779.3 668.6,3584.46 2331.46,4508.46 781.01,433.9 1633.71,615.6 2464.61,571.7 1524.2,-80.3 2974,-919.7 3770.1,-2352.2 250.6,-450.9 417,-925.79 504.5,-1406.67 341.7,-1879.36 -522.7,-3848.76 -2285.1,-4828.08" /></g><g
         transform="scale(0.169607)"
         id="g106"><path
           id="path108"
           style="fill:#b97631;fill-opacity:1;fill-rule:nonzero;stroke:none"
           d="m 11686.1,4087.75 c -420.3,0 -843.3,58.72 -1258.5,177.29 -1170.78,334.42 -2141.31,1104.73 -2732.74,2169.08 -226,406.7 -382.95,833.51 -474.75,1266.63 871.19,-966.29 2063.78,-1549.99 3318.29,-1677.17 l -21.3,22.46 c -36.1,144.93 -32.4,298.05 18.7,444.8 112.4,322.98 338.2,570.43 732.8,570.43 127.3,0 272.1,-25.7 436.4,-82.95 384.1,-133.78 635.7,-465.25 654.6,-813.94 411.6,107.54 816.4,268.15 1205.5,484.41 20.5,11.44 40.8,22.88 61,34.55 -68.2,270.57 6.4,594.79 223.3,854.39 203.4,243.27 484.8,373.45 748.4,373.45 136.9,0 269.1,-35.08 383.1,-107.72 523,610.65 890.5,1330.32 1084.1,2095.09 232.6,-810.35 235,-1671.4 -2.3,-2502.21 -334.4,-1170.76 -1104.7,-2141.3 -2169,-2732.67 -686.9,-381.71 -1442.9,-575.98 -2207.6,-575.92" /></g><g
         transform="scale(0.163429)"
         id="g110"><path
           id="path112"
           style="fill:#ffca7d;fill-opacity:1;fill-rule:nonzero;stroke:none"
           d="m 7390.99,8959.07 c -2.88,1666.43 875.24,3286.23 2432.12,4151.43 243.39,135.2 493.69,246.6 748.09,335 56.2,0.4 112.2,2.3 168.2,5.3 99.8,5.8 199.2,15.6 297.6,30 0.8,-23.1 1.9,-45.5 3.6,-67.3 32.4,-465.8 242.6,-645.7 433.4,-766.8 18.6,-11.8 43,-24.3 72.4,-37 -61.9,-27.3 -128.5,-50.3 -198.6,-68 -100.9,-25.3 -200.4,-37.3 -294.5,-37.3 -134.9,-0.1 -258.9,24.6 -360.6,69.9 -0.1,3 -0.2,6 -0.5,9 2.5,6.8 3.3,14.4 2,22.1 -3,17.3 -9.1,33.8 -16.4,49.7 -8,15.4 -17.5,30.1 -28.2,43.5 -21.6,26.5 -47.9,47.7 -75.1,65.7 -41,25.5 -85.3,42.6 -130.4,53.3 -3.9,10.7 -7.3,21.8 -10.1,33.1 -3.3,13.1 -5.9,26.3 -7.6,39.6 -45.8,-18.7 -91.5,-38.1 -137,-58.2 -86.7,-3.2 -171.5,-24.3 -249.4,-57.4 -110.11,-46.8 -208.69,-118.7 -285.17,-210.5 -4.53,-5.6 -9,-11.2 -13.4,-16.9 C 8406.78,11745.5 7581.59,10403.2 7390.99,8959.07 M 16300,11192.6 c -701.5,981.5 -1715.1,1640.7 -2826.4,1916.2 16.8,26.3 32.8,53 48.1,79.8 48.9,85.5 90.8,173.4 126.4,261.8 1071.5,-365 2016.4,-1112.4 2608.2,-2177.4 14.8,-26.6 29.4,-53.5 43.7,-80.4" /></g><g
         transform="scale(0.172986)"
         id="g114"><path
           id="path116"
           style="fill:#371a45;fill-opacity:1;fill-rule:nonzero;stroke:none"
           d="m 11443.8,12948.1 c -734,0 -1477.55,-180.9 -2163.39,-561.9 C 7126.25,11189.1 6347.51,8462.66 7544.55,6308.43 8124.42,5264.88 9076,4509.62 10223.9,4181.73 c 1147.9,-327.77 2354.8,-189.03 3398.4,390.84 1043.5,579.82 1798.8,1531.4 2126.7,2679.29 327.8,1147.96 189.1,2354.88 -390.9,3398.34 -815.9,1468.5 -2342.7,2297.9 -3914.3,2297.9 m 14.4,-9156 c -432.1,0 -866.6,60.35 -1293.5,182.33 C 8961.37,4318.1 7963.94,5109.78 7356.09,6203.69 6101.31,8461.85 6917.56,11319.8 9175.72,12574.7 11433.8,13829.4 14291.8,13013.2 15546.6,10755 16154.5,9661.14 16300,8396 15956.3,7192.67 15612.7,5989.33 14820.9,4991.91 13727,4384.06 13021.2,3991.89 12243.9,3792.16 11458.2,3792.1" /></g><g
         transform="scale(0.129377)"
         id="g118"><path
           id="path120"
           style="fill:#371a45;fill-opacity:1;fill-rule:nonzero;stroke:none"
           d="m 16183.8,8471.58 c 30,-60.6 56.1,-124.06 74.8,-190.22 18.2,-66.24 30.7,-134.65 35.9,-204.13 5.5,-69.49 2.8,-139.75 -5.9,-209.47 -9.2,-68.17 -21.4,-134.72 -39.5,-201.42 -35.7,-132.87 -91.2,-264.42 -173.2,-383.45 -82.4,-118.34 -193.1,-221.22 -320.7,-294.57 -127.7,-73.58 -269.8,-116.33 -410.3,-135.42 -141.1,-20.4 -281.1,-17.93 -417.9,-5.1 -68.5,8.12 -134.7,17.78 -203.1,31.54 -69.6,13.44 -138,33 -205,56.42 -67.1,23.19 -132.5,51.71 -195.5,84.95 -63.2,33 -124.3,70.26 -181.3,113.54 -114.4,85.56 -217.2,187.82 -300.3,305.46 -83.7,116.95 -149.2,248.73 -185.9,389.64 -77.5,280.57 -40.8,592.07 103.3,841.72 140.6,252.75 378.2,435.24 636.7,529.08 259.8,93.44 543.3,102.87 799.7,32.3 23,-6.33 36.5,-30.06 30.2,-53.02 -5.7,-20.64 -25.6,-33.62 -46.2,-31.38 -248.5,26.51 -498.9,-10.9 -715,-114.16 -216.3,-101.18 -395.8,-269.83 -495.5,-474.04 -98.9,-204.13 -119,-442.35 -51.2,-655.68 65.5,-214.26 208.1,-405.56 394,-538.66 93.2,-65.85 194.2,-122.35 303,-160.54 54.2,-19.48 109.6,-35.94 166.3,-47.38 57.6,-12.13 118.7,-21.64 177.8,-29.14 118.7,-14.45 237.6,-20.48 352,-7.34 114.5,11.83 223.6,42.36 322.7,90.82 197.5,98.4 342.4,288.85 421.9,514.7 19.9,56.11 37.9,114.85 51.8,173.21 13.7,56.89 21.7,115.4 24.5,174.53 6.3,118.26 -10.4,239.3 -46.7,356.55 l -0.3,1.16 c -8.7,28.14 7,58.12 35.2,66.78 25.5,7.89 52.3,-4.17 63.7,-27.28" /></g><g
         transform="scale(0.138198)"
         id="g122"><path
           id="path124"
           style="fill:#ffca7d;fill-opacity:1;fill-rule:nonzero;stroke:none"
           d="m 15295.3,10831.8 c -156.4,0 -309.9,41.8 -444.1,119.8 6.2,-2 12.2,-3.9 18.5,-5.8 0,0 0.1,0 0.2,-0.1 0.2,-0.1 0.4,-0.1 0.6,-0.1 73.5,-22.3 150.8,-34 229.7,-34 64.4,0 129.8,7.8 195,24.1 214.6,54 386.9,190 491.7,366.3 104.2,175.1 141.9,389.9 88.3,603.1 -74.7,297.4 -307.1,513.5 -585.6,581.5 -61,14.9 -124.2,22.7 -188.5,22.7 -64.4,0 -129.8,-7.8 -195.1,-24.2 -9.9,-2.5 -19.7,-5.2 -29.4,-8 -14.8,-4.3 -29.4,-9.1 -43.7,-14.1 23.5,14.4 47.6,27.7 72.7,40.1 125.2,61.6 258,90.8 388.7,90.8 325,0 637.5,-180.5 790.7,-491.8 215,-436.8 35.3,-964.6 -401.2,-1179.5 -125.1,-61.6 -257.8,-90.8 -388.5,-90.8" /></g><g
         transform="scale(0.106525)"
         id="g126"><path
           id="path128"
           style="fill:#b97631;fill-opacity:1;fill-rule:nonzero;stroke:none"
           d="m 14540.3,12132.2 c -575.1,0 -1117.1,320.1 -1388,844.5 -38.3,84.4 -69.7,173.5 -93,266.7 -210.4,837.2 297.8,1686.5 1135.1,1896.9 127.8,32.1 256,47.5 382.1,47.5 579.6,0 1116.1,-324.7 1384.5,-839.5 21,-45.7 39.8,-92.7 56.5,-141 282.5,-815.9 -149.8,-1706.1 -965.7,-1988.6 -169.3,-58.6 -341.8,-86.5 -511.5,-86.5" /></g><g
         transform="scale(0.111701)"
         id="g130"><path
           id="path132"
           style="fill:#ffca7d;fill-opacity:1;fill-rule:nonzero;stroke:none"
           d="m 14248.3,11165.1 c -755.3,0 -1461.2,473 -1722.2,1226.6 -6.5,19 -12.6,37.7 -18.4,56.6 11.1,-24.8 22.8,-49.1 35.1,-72.9 241.8,-533.1 776.2,-873.6 1356,-873.6 120.2,0 242.4,14.7 364.3,45.3 798.5,200.7 1283.2,1010.6 1082.6,1809.1 -29.2,116.1 -71.3,225.5 -124.3,327.2 -246.2,537.8 -783.2,869 -1354.7,869 -161.7,0 -326.3,-26.6 -487.8,-82.5 -212.1,-73.5 -396.9,-190.1 -548.4,-336.6 207.1,257.3 486.5,461.2 821.7,577.2 197.4,68.4 398.5,100.8 596.3,100.8 755.1,0 1461.2,-473.1 1722.2,-1226.9 329.3,-951.1 -174.8,-1989.2 -1125.9,-2318.5 -197.4,-68.3 -398.7,-100.8 -596.5,-100.8" /></g><g
         transform="scale(0.106536)"
         id="g134"><path
           id="path136"
           style="fill:#d5ad83;fill-opacity:1;fill-rule:nonzero;stroke:none"
           d="m 14572.6,12059.5 c -607.9,0 -1168.1,356.9 -1421.7,915.9 270.9,-524.4 812.8,-844.4 1387.9,-844.4 169.7,0 342.2,27.9 511.5,86.4 815.8,282.5 1248,1172.6 965.6,1988.4 -16.7,48.3 -35.6,95.3 -56.5,141 55.5,-106.7 99.6,-221.4 130.2,-343.1 210.4,-837.2 -297.8,-1686.4 -1135,-1896.7 -127.8,-32.1 -255.9,-47.5 -382,-47.5" /></g><g
         transform="scale(0.10711)"
         id="g138"><path
           id="path140"
           style="fill:#371a45;fill-opacity:1;fill-rule:nonzero;stroke:none"
           d="m 13313.2,14757.1 c 244.8,278.1 596.8,467.5 973.4,525.3 377.4,62.1 777.3,-13.3 1116,-202.9 169.1,-95.7 321.4,-221.1 450.6,-367.4 l 47.6,-55.6 23.7,-28 21.2,-29.9 c 27.9,-40.2 56.7,-79.8 83.5,-120.7 l 71.8,-128.2 c 23.7,-42.9 40.9,-89 60.7,-133.8 71.5,-182.2 118.4,-374.6 129,-571 9.3,-196.1 -10.6,-394.1 -65.2,-582.8 -52.7,-189.2 -139.7,-368.2 -252.1,-528.3 -112,-160.5 -249.6,-303.2 -407.7,-418.5 -158.6,-114.7 -336.7,-200.4 -521.9,-258 -46.8,-12.5 -92.6,-29.3 -140.4,-37.8 l -143.2,-25 c -96.5,-8.6 -193.1,-17.9 -289.8,-11.5 -192.6,8 -384.5,44.1 -562.6,115.3 -177.6,71.7 -343,170.4 -487,293.2 -291.4,243.4 -483.4,590.1 -551.7,949.6 -5.5,28.2 13.1,55.5 41.3,60.8 25.7,4.8 50.6,-10.1 58.8,-34.1 l 0.5,-1.4 c 112,-325.2 312,-614.3 585.7,-804.7 134.7,-96.3 282.6,-172.3 438.5,-222.4 156.4,-48.2 318.9,-71.9 480.4,-69.7 81.1,-1.5 161.2,11.2 240.8,21.9 l 117.8,26.8 c 39.4,8.1 76.8,23.9 115.2,35.2 151.4,52.9 294.8,127.6 421,225.2 248.5,197.9 442.7,469.4 523.1,777.6 40.5,153.1 60.4,311.5 53.6,470 -7.1,158.5 -44.7,315.2 -101.1,463.3 -108.9,299.8 -329.7,551.3 -598.6,726 -136.3,85.8 -287.6,147.4 -444.7,186.3 -157,39.1 -322,56.5 -485.5,39.9 -329.3,-21 -651.5,-156.7 -912.5,-376.7 -27.2,-23 -68,-19.7 -91.1,7.6 -20.9,24.7 -19.8,60.8 0.9,84.4" /></g><g
         transform="scale(0.160365)"
         id="g142"><path
           id="path144"
           style="fill:#371a45;fill-opacity:1;fill-rule:nonzero;stroke:none"
           d="m 15599.9,8382.38 c 51.8,-5.55 103.8,-15.16 154.5,-30.75 50.7,-15.96 100.1,-37.16 147.1,-63.66 94.3,-52.88 176.5,-128.4 240.5,-217.88 63.3,-89.98 107.6,-193.44 131.6,-300.88 23.8,-107.63 26.4,-219 11.6,-327 -13.9,-108.32 -45.1,-213.7 -89.5,-312.72 -45.9,-98.4 -103.8,-190.63 -171.7,-275.06 -70.8,-81.82 -149.7,-156.27 -237.5,-220.38 -89,-62.04 -184.9,-115.3 -287.9,-152.65 -103.2,-36.92 -212.2,-58.61 -322.8,-64.04 -110.5,-4.93 -224,6.17 -331,43.46 -107,35.92 -207.6,93.6 -291.8,169.31 -84.4,75.14 -152,169.29 -196,272.06 -88.9,206.53 -86.6,436.57 -23.8,637.67 32.8,100.65 78.2,195.8 135.4,282.42 58.7,85.8 128.5,162.13 204.9,229.35 14.4,12.72 36.3,11.29 49,-3.05 11.4,-12.97 11.4,-32.05 0.8,-44.96 l -0.8,-1 c -61.1,-74.58 -114.1,-153.72 -157.5,-237.08 -40.8,-84.69 -73.1,-172.36 -91.6,-262.35 -38.2,-179.4 -19.4,-366.35 57,-520 78.8,-152.52 218.1,-265.89 380.1,-312.85 162.7,-47.33 344.1,-32.73 508.4,28.25 81.8,32.37 160.7,73.02 233.9,123.41 72.2,51.88 137.9,112.87 197.2,179.59 57.4,68.16 108,141.86 148.5,221.12 39,79.88 66.7,164.56 84.2,250.99 3.2,21.7 8.5,43.46 10.2,65.29 l 5,65.79 -1.4,65.72 c -0.2,22.01 -5.1,43.28 -6.7,65.16 -11.8,86.43 -39.4,170.49 -83.4,246.07 -84.8,154.65 -240.8,266.89 -421.6,315.97 l -0.8,0.18 c -23,6.24 -36.5,29.93 -30.3,52.94 5.6,20.77 25.5,33.8 46.2,31.56" /></g><g
         transform="scale(0.135049)"
         id="g146"><path
           id="path148"
           style="fill:#b97631;fill-opacity:1;fill-rule:nonzero;stroke:none"
           d="m 15452.1,11166 c -80.7,0 -159.7,12 -235,34.7 -0.1,0.1 -0.3,0.1 -0.6,0.2 0,0.1 -0.1,0.1 -0.2,0.1 -6.3,1.9 -12.6,3.9 -18.9,6 v 0 c -257.1,84.7 -466.5,295.3 -537.4,577.3 -103.6,412.3 126,830.1 518.7,969.2 -0.1,-0.1 -0.2,-0.1 -0.4,-0.2 14.9,5.2 29.9,10.2 45.1,14.7 10,2.8 19.9,5.6 30.1,8.1 66.9,16.8 133.9,24.9 199.8,24.9 65.7,0 130.4,-8 192.8,-23.3 284.9,-69.7 522.7,-290.9 599.1,-595 54.8,-218.2 16.4,-438 -90.3,-617.2 -107.3,-180.3 -283.5,-319.5 -503.1,-374.7 -66.8,-16.8 -133.8,-24.8 -199.7,-24.8" /></g><g
         transform="scale(0.13505)"
         id="g150"><path
           id="path152"
           style="fill:#b98d69;fill-opacity:1;fill-rule:nonzero;stroke:none"
           d="m 15217,11200.6 c -0.2,0.1 -0.4,0.1 -0.6,0.2 0.2,-0.1 0.4,-0.1 0.6,-0.2 m -0.8,0.3 c -6.4,1.9 -12.6,3.9 -18.9,6 h -0.1 c 6.3,-2.1 12.6,-4.1 19,-6 m 938.6,364.5 c 106.6,179.2 145.1,399 90.3,617.2 -76.5,304.1 -314.3,525.3 -599.2,595 285,-69.6 522.8,-290.8 599.2,-595.1 54.9,-218.1 16.3,-437.9 -90.3,-617.1 m -976.6,1187.8 c 0.1,0 0.2,0.1 0.4,0.2 14.6,5.2 29.6,10.1 44.7,14.4 -15.3,-4.4 -30.2,-9.4 -45.1,-14.6" /></g><g
         transform="scale(0.135784)"
         id="g154"><path
           id="path156"
           style="fill:#371a45;fill-opacity:1;fill-rule:nonzero;stroke:none"
           d="m 14677.1,11413.2 c -118.8,142.5 -183,334.6 -179.1,528 0.9,97.2 21.2,194.5 55.1,286.8 35.1,92.1 85.7,178.8 149.3,255.4 128.1,152 310.1,263.2 509.4,300.9 99.1,18.2 201.2,23.9 301.9,9.3 100.3,-15.1 198.5,-45.3 288.6,-91.8 181.5,-91.3 326.6,-247.5 411.2,-430 41.9,-91.7 66.6,-190.6 75.8,-289.7 10.7,-99.2 0.9,-199.7 -23.3,-295.5 -24.5,-95.6 -62.6,-187.8 -117.4,-268.7 -55,-80.6 -121.6,-152.3 -198.1,-210 -152.2,-117.2 -344.2,-173.5 -526.3,-164.6 -22.7,1.1 -40.1,20.4 -39,43.1 0.8,19.4 15.1,35 33.4,38.4 l 1.5,0.3 c 162.1,30.3 310.8,101.3 419.2,212.9 54.6,54.6 101.1,116.2 135.8,183.4 33.9,67.6 57.9,139 69.7,212.2 7.2,36.3 7.7,73.5 9.3,110.1 l -2.7,55 c -0.4,18.4 -4.7,36.4 -6.6,54.6 -11.8,72 -33.3,141.9 -65.9,206.4 -67.2,127.2 -172,235.3 -300.8,298.1 -64.2,31.3 -132.5,53.7 -203.1,64.5 -70.6,10.5 -143.3,8.7 -213.9,-2.9 -142.5,-21.2 -274,-95 -378.4,-197.5 -51.6,-52.3 -93.7,-114 -126.8,-180.5 -33.4,-66.3 -58.1,-138.7 -67.3,-214.3 -25.1,-151.3 2.2,-312 73.5,-458.2 l 0.3,-0.5 c 12.4,-25.5 1.9,-56 -23.6,-68.5 -21.5,-10.4 -46.9,-4.4 -61.7,13.3" /></g><g
         transform="scale(0.157626)"
         id="g158"><path
           id="path160"
           style="fill:#ffc268;fill-opacity:1;fill-rule:nonzero;stroke:none"
           d="m 16152.2,10612.3 c -20.6,0 -41.8,2.3 -63.2,6.8 36.5,4.2 71.1,15.9 102.8,34.8 15.4,-2.3 30.8,-3.4 46,-3.4 21.1,0 41.9,2.2 62.2,6.8 -43.8,-29.8 -94.1,-45 -147.8,-45 m -396.5,1033 c 8.8,8.1 18,15.4 27.4,22 -3.6,-5 -7.1,-10.2 -10.6,-15.5 -5.7,-2 -11.3,-4.1 -16.8,-6.5" /></g><g
         transform="scale(0.158294)"
         id="g162"><path
           id="path164"
           style="fill:#c37c2f;fill-opacity:1;fill-rule:nonzero;stroke:none"
           d="m 16084.6,10541.3 c -51.3,0 -105.4,12.8 -159.8,38.8 l -98.2,46.9 14.4,-3 c 49.3,-25.2 99.9,-38.5 148.6,-38.5 39.6,0 78,8.8 113.6,27.1 6.8,-1.4 13.5,-2.6 20.3,-3.6 -31.5,-18.9 -66,-30.5 -102.3,-34.7 21.3,-4.5 42.3,-6.7 62.9,-6.7 53.5,0 103.6,15.1 147.2,44.8 23.7,5.3 46.7,13.7 68.7,25.6 -58.2,-63.9 -133.3,-96.7 -215.4,-96.7 m -521.6,926.4 51.4,79.7 c 7.6,11.9 15.8,23 24.9,34.1 36.4,43.9 79.8,74.9 128.6,92.3 -19.1,-16.2 -36.3,-34.9 -51.3,-55.7 -9.4,-6.6 -18.6,-13.9 -27.4,-21.9 5.5,2.4 11.2,4.5 16.8,6.5 -0.9,-1.6 -1.9,-3.1 -2.9,-4.6 17.2,3.6 34.8,5.4 52.6,5.4 5.7,0 11.4,-0.2 17.2,-0.6 -42.3,-3 -82.9,-16.3 -119.9,-41 -33.4,-22.4 -61.3,-52.5 -83.5,-88.3 l -6.5,-5.9" /></g><g
         transform="scale(0.158165)"
         id="g166"><path
           id="path168"
           style="fill:#b97631;fill-opacity:1;fill-rule:nonzero;stroke:none"
           d="m 16002.6,10607.1 c -18.5,0 -37.4,2.1 -56.6,6.1 l -92.1,19.4 c -95.8,48.8 -187.1,142.3 -251.7,269.4 -104.8,206.3 -107.8,438.9 -20,580.9 l 64.4,57.1 c 8.8,7.8 17.4,14.5 26.4,20.5 39.2,26.3 83.7,39.5 131.2,39.5 23.1,0 47,-3.1 71.2,-9.4 7.2,-1.9 14.4,-4.1 21.5,-6.5 103.2,-45.5 202.9,-142.9 272,-279 131.1,-258.3 102.8,-557.8 -63.5,-669.2 -4.7,-3.1 -9.2,-5.9 -13.9,-8.5 1.6,-0.5 3.1,-0.9 4.7,-1.3 -29.2,-12.6 -60.7,-19 -93.6,-19" /></g><g
         transform="scale(0.156382)"
         id="g170"><path
           id="path172"
           style="fill:#925a37;fill-opacity:1;fill-rule:nonzero;stroke:none"
           d="m 16185.1,10714.9 c -49.4,0 -100.5,13.5 -150.4,38.9 l 93.1,-19.6 c 19.4,-4.1 38.6,-6.1 57.2,-6.1 33.3,0 65.1,6.4 94.7,19.2 6.7,-1.9 13.5,-3.5 20.3,-5 -36,-18.5 -74.9,-27.4 -114.9,-27.4 m -425.3,899 c 22.5,36.2 50.7,66.6 84.6,89.3 37.4,25.1 78.5,38.5 121.3,41.5 37.1,-2.3 75.1,-12 112.5,-28.5 -7.3,2.4 -14.5,4.6 -21.8,6.5 -24.5,6.4 -48.6,9.6 -72,9.6 -48.1,0 -93.1,-13.4 -132.7,-40 -9.1,-6.1 -17.8,-12.8 -26.7,-20.7 l -65.2,-57.7" /></g><g
         transform="scale(0.160626)"
         id="g174"><path
           id="path176"
           style="fill:#ffca7d;fill-opacity:1;fill-rule:nonzero;stroke:none"
           d="m 16063.4,10483.6 c 3.5,3.8 7,7.9 10.5,12 150,181 125.4,534 -54.7,787 -104.1,146.2 -239.8,232.8 -372.5,237.7 -3.8,0.1 -7.5,0.2 -11.2,0.2 -34.1,0 -66.3,-5.5 -96.5,-16.2 8.3,7 16.8,13.5 25.8,19.5 46.5,31 98.1,45.7 151.9,45.7 157.4,0 331.9,-126.4 439.3,-337.9 144,-283.4 112.6,-612.1 -69.7,-734.3 -7.5,-5 -15.2,-9.6 -22.9,-13.7" /></g><g
         transform="scale(0.159613)"
         id="g178"><path
           id="path180"
           style="fill:#ffdaa4;fill-opacity:1;fill-rule:nonzero;stroke:none"
           d="m 16035.7,10517.9 c -15,0 -30.2,1.2 -45.4,3.4 3.9,2.4 7.7,4.8 11.5,7.3 169.8,113.6 200,418.6 67.3,679.9 -79,155.5 -202.8,268.3 -331.1,301.8 -26.4,6.9 -52.2,10.3 -77.3,10.3 -29.3,0 -57.6,-4.6 -84.5,-13.8 3.4,5.2 6.9,10.3 10.5,15.3 43.1,30.2 92.8,45.7 147.8,45.7 3.5,0 7,-0.1 10.5,-0.2 125.5,-4.6 254.8,-87.8 354.9,-228.4 174.9,-245.7 200.1,-586.9 56.1,-760.5 -17.8,-21.5 -37.5,-39.6 -58.9,-54 -20,-4.6 -40.6,-6.8 -61.4,-6.8" /></g><g
         transform="scale(0.159875)"
         id="g182"><path
           id="path184"
           style="fill:#dbb082;fill-opacity:1;fill-rule:nonzero;stroke:none"
           d="m 15964,10504.1 c -6.7,1 -13.4,2.1 -20.2,3.5 8.4,4.3 16.6,9.2 24.6,14.5 164.5,110.1 192.7,406.6 62.8,662.1 -96.7,190.6 -254,304.6 -396.1,304.6 -6.1,0 -12.2,-0.2 -18.3,-0.7 -5.6,0.4 -11.3,0.6 -17,0.6 -17.6,0 -35,-1.8 -52,-5.3 0.9,1.5 1.9,3 2.9,4.5 26.8,9.2 55,13.8 84.3,13.8 25.1,0 50.8,-3.4 77.1,-10.3 128.1,-33.4 251.7,-146.1 330.6,-301.3 132.5,-260.8 102.4,-565.3 -67.2,-678.8 -3.8,-2.5 -7.6,-4.9 -11.5,-7.2 m 106.7,3.3 c 21.3,14.4 41,32.4 58.8,53.9 143.7,173.4 118.6,514 -56.1,759.3 -99.8,140.3 -228.9,223.4 -354.2,228 -3.5,0.1 -7,0.2 -10.5,0.2 -55,0 -104.6,-15.5 -147.6,-45.6 14.9,20.6 31.9,39.1 50.8,55.1 30.3,10.8 62.7,16.3 97,16.3 3.7,0 7.5,-0.1 11.2,-0.2 133.3,-5 269.7,-92 374.3,-238.8 181,-254.2 205.6,-608.9 54.9,-790.8 -3.5,-4.1 -7,-8.2 -10.6,-12 -21.7,-11.8 -44.5,-20.2 -68,-25.4" /></g><g
         transform="scale(0.15837)"
         id="g186"><path
           id="path188"
           style="fill:#d5ad83;fill-opacity:1;fill-rule:nonzero;stroke:none"
           d="m 16075.3,10612.4 c -1.5,0.3 -3.1,0.8 -4.6,1.2 4.6,2.6 9.1,5.5 13.9,8.6 166.1,111.2 194.3,410.3 63.4,668.3 -69.1,135.9 -168.6,233.2 -271.6,278.6 114.5,-38.4 223.8,-143 295.6,-284.4 128,-252 101.5,-544.4 -59,-651.9 -12.1,-8.1 -24.7,-14.9 -37.7,-20.4" /></g><g
         transform="scale(0.158513)"
         id="g190"><path
           id="path192"
           style="fill:#be9c87;fill-opacity:1;fill-rule:nonzero;stroke:none"
           d="m 16080.9,10597.9 c -6.7,1.5 -13.4,3.1 -20.1,4.9 13,5.5 25.6,12.4 37.6,20.4 160.4,107.4 186.9,399.6 59,651.3 -71.8,141.3 -180.9,245.8 -295.3,284.2 -37,16.3 -74.4,25.9 -111,28.2 6.1,0.4 12.3,0.7 18.4,0.7 143.3,0 301.9,-115 399.5,-307.3 131,-257.7 102.6,-556.7 -63.4,-667.8 -8,-5.3 -16.3,-10.2 -24.7,-14.6" /></g><g
         transform="scale(0.159017)"
         id="g194"><path
           id="path196"
           style="fill:#371a45;fill-opacity:1;fill-rule:nonzero;stroke:none"
           d="m 15598.9,10657.2 c -80.1,66.6 -140.4,156 -181.9,253.6 -41.4,97.9 -63.4,207.4 -54.1,321.6 4.4,57 16.9,115.4 43,172.5 25.6,56.6 65.6,112.5 122.1,154.7 56.5,42 127.8,66.9 197.7,68.6 70,2.2 135.7,-15.1 191.6,-42.2 112.4,-54.6 193.8,-140.1 253.2,-233.6 60.1,-93.9 96.6,-198.2 113.9,-305.4 15.6,-107.5 8.9,-220 -31.1,-324.8 -20.8,-51.7 -49.8,-102.1 -91.8,-142.1 -41,-40.2 -94.5,-69.4 -149.7,-77.4 -19.4,-2.8 -37.3,10.6 -40.1,30 -2.2,14.8 5.3,28.9 17.6,35.8 l 1.6,0.9 c 73,41.2 110.1,114.6 122.3,194.3 6.3,39.8 7.8,80.9 4.2,121.9 -4,41.1 -12,82 -23.2,121.8 -23.2,79.8 -60.1,155.9 -107.6,220.6 -47.2,64.6 -107.1,118.3 -168.2,146.2 -62,28.1 -114.5,26.4 -156.2,-1.4 -43,-26.9 -79.5,-91.4 -93.8,-167.4 -15.4,-75.8 -12.7,-161 4.2,-245 15.2,-85.2 47.9,-167.5 92.1,-246.6 l 0.8,-1.3 c 11.8,-21.2 4.3,-48 -16.9,-59.8 -16.4,-9.1 -36.1,-6.7 -49.7,4.5" /></g><g
         transform="scale(0.132143)"
         id="g198"><path
           id="path200"
           style="fill:#ffca7d;fill-opacity:1;fill-rule:nonzero;stroke:none"
           d="m 15492.2,14509.1 c -23.2,0 -46.2,1.1 -69.1,3.3 1.3,0 2.7,0 4.1,0 132.1,0 269.1,43 381,126.1 63,46.1 118.1,103.9 163.8,169.2 45.7,65.6 78.1,140.6 99.2,218.8 20.3,78.6 28.6,161.1 20.5,242.6 -7,81.6 -26.8,163.1 -61,238.9 -10.4,22.5 -21.8,44.6 -34.3,66 27.6,12.9 54.8,26.8 81.3,41.6 18.2,-26.8 34.8,-55.3 49.5,-85.1 172.8,-351.2 28.3,-775.6 -322.6,-948.5 -100.7,-49.5 -207.4,-72.9 -312.4,-72.9 m -133.3,12.6 c -78.7,15.1 -154.5,43.4 -223.9,83.7 4.7,-1.6 9.4,-3 14.1,-4.5 59.6,-18.1 122.2,-27.7 186.2,-27.7 2.9,0 5.8,0 8.7,0 -1.8,-4.1 -2.9,-8.6 -3.3,-13.3 -1.2,-15.6 6.2,-29.9 18.2,-38.2" /></g><g
         transform="scale(0.128577)"
         id="g202"><path
           id="path204"
           style="fill:#b97631;fill-opacity:1;fill-rule:nonzero;stroke:none"
           d="m 15760.4,14977.4 c -65.6,0 -129.9,9.8 -191.1,28.5 -4.9,1.5 -9.7,3 -14.5,4.6 v 0 c -115,37.9 -218.1,106.9 -297.1,199.7 22.8,13.9 32.2,42.8 21.3,67.9 l -0.5,1.2 c -52.1,119.1 -69.8,245.8 -46.7,363.4 8.4,58.8 29,114.6 56.1,165.2 11.2,21.4 23.7,41.9 37.4,61.6 103.2,-12 211.5,-19 321.6,-19 122.3,0 246.8,8.7 369.2,28.8 50.6,8.3 100.8,18.5 150.4,30.9 23.1,-28.1 43.6,-58.5 61,-90.5 49.1,-97.7 72.5,-213.6 54.5,-326.5 -27.6,-228.5 -219.5,-437.6 -480.1,-490 l -0.8,-0.1 c -14.1,-2.9 -25.8,-12.5 -31.4,-25.7 -3.2,0 -6.2,0 -9.3,0" /></g><g
         transform="scale(0.122813)"
         id="g206"><path
           id="path208"
           style="fill:#b98d69;fill-opacity:1;fill-rule:nonzero;stroke:none"
           d="m 16300,15710.2 c -5,1.5 -10.2,3.1 -15.2,4.8 v 0 c 5,-1.7 10.1,-3.3 15.2,-4.8" /></g><g
         transform="scale(0.13052)"
         id="g210"><path
           id="path212"
           style="fill:#371a45;fill-opacity:1;fill-rule:nonzero;stroke:none"
           d="m 14962.6,14993.8 c -100.8,113.5 -156.6,271 -156,430.8 0.2,160.5 58.8,323.7 164.4,451.6 106,127 257.2,220.8 423.5,252.8 82.8,15.5 168,20.4 252.1,8.2 83.8,-12.5 166,-37.6 241.1,-76.7 151.6,-76.5 272.5,-207.2 342.3,-359.7 34.6,-76.7 54.7,-159.2 61.8,-241.8 8.2,-82.6 -0.2,-166.1 -20.8,-245.7 -21.3,-79.2 -54.1,-155.1 -100.4,-221.5 -46.3,-66.1 -102.1,-124.7 -165.9,-171.3 -127,-94.4 -285.8,-137.6 -433.8,-125.8 -23.7,1.9 -41.3,22.6 -39.4,46.2 1.6,19.6 16,35 34.3,38.8 l 0.8,0.1 c 256.7,51.6 445.8,257.6 472.9,482.7 17.8,111.2 -5.3,225.4 -53.6,321.6 -51.7,95.1 -130.7,175.8 -227.3,222.6 -48.3,23.2 -99.3,40.2 -152.2,48.3 -52.9,7.9 -107.5,6.9 -160.6,-1.5 -107,-15.1 -206.6,-69.3 -286.6,-145.8 -39.2,-39.4 -72.7,-85 -98.9,-135.2 -26.8,-49.9 -47.1,-104.8 -55.3,-162.7 -22.7,-115.8 -5.3,-240.7 46,-358 l 0.5,-1.2 c 11.8,-27 -0.5,-58.5 -27.5,-70.3 -21.8,-9.5 -46.5,-3.3 -61.4,13.5" /></g><g
         transform="scale(0.128272)"
         id="g214"><path
           id="path216"
           style="fill:#ffa726;fill-opacity:1;fill-rule:nonzero;stroke:none"
           d="m 12342.3,15574.7 c -29.4,172.9 189.7,467.9 529.8,596.6 340.1,128.7 639.5,34.4 701.8,-130.4 l -1231.6,-466.2" /></g><g
         transform="scale(0.128779)"
         id="g218"><path
           id="path220"
           style="fill:#371a45;fill-opacity:1;fill-rule:nonzero;stroke:none"
           d="m 12244.8,15505.1 c -15,41.7 -16.7,85.6 -12,126.2 4,41.1 15.7,79.4 29.1,116.3 28.2,73.3 69.7,138.4 117.6,197.2 97.1,116.6 222.2,207.7 362,267.2 139.1,59 295.4,88 451.8,65.9 77.9,-11.2 155.9,-35.3 226.4,-79.2 34.6,-22.8 68,-49.7 95.4,-83.4 13.6,-17 25.6,-35.5 35.8,-55.1 9.2,-20.2 17,-41.1 20.8,-63 5.2,-30.1 -14.9,-58.7 -45,-63.9 -19.9,-3.5 -39,4.1 -51.3,18.3 l -5.8,6.9 c -32.7,38 -77.9,61.5 -129.5,75.7 -51.4,14.3 -107.2,20 -163.7,18.9 -113.1,-2.7 -228,-30.2 -337.5,-74.5 -108.9,-44.7 -212.2,-107.1 -302.8,-184.4 -45.1,-38.5 -86.9,-81 -122,-126.9 -35.3,-45.8 -62.6,-95.6 -71.2,-145.4 l -1.5,-8.4 c -4.7,-27.2 -30.7,-45.5 -58,-40.7 -18.3,3.1 -32.6,16 -38.6,32.3" /></g><g
         transform="scale(0.126091)"
         id="g222"><path
           id="path224"
           style="fill:#b97631;fill-opacity:1;fill-rule:nonzero;stroke:none"
           d="m 12837.5,15627.5 c -156.4,0 -275.6,47.2 -318.2,140.5 -10.8,23.8 -16.1,49.3 -16.4,76.1 0.9,-2.8 1.8,-5.7 2.9,-8.5 6.1,-16.8 20.7,-29.8 39.4,-33.1 3,-0.6 5.9,-0.8 8.9,-0.8 24.4,0 46,17.5 50.3,42.4 l 1.5,8.6 c 0.7,3.7 1.4,7.5 2.3,11.3 l 1148.4,434.6 v 0 l 6,-7 c 10.4,-12.1 26,-19.6 42.6,-19.6 3.3,0 6.5,0.2 9.8,0.9 17,2.9 30.9,13.2 39,27.1 1.7,-0.8 3.3,-1.5 4.9,-2.2 3.3,-175.2 -212.3,-406.2 -530.4,-551.3 -174.4,-79.6 -348.2,-119 -491,-119" /></g><g
         transform="scale(0.126164)"
         id="g226"><path
           id="path228"
           style="fill:#b98d69;fill-opacity:1;fill-rule:nonzero;stroke:none"
           d="m 13851,16288.4 c -1.6,0.7 -3.3,1.5 -5,2.2 1.8,3 3.3,6.2 4.4,9.4 0.3,-3.9 0.5,-7.7 0.6,-11.6" /></g><g
         transform="scale(0.126828)"
         id="g230"><path
           id="path232"
           style="fill:#b97631;fill-opacity:1;fill-rule:nonzero;stroke:none"
           d="m 12534.9,15771.8 c 10.7,46.8 36.9,93.4 70.1,136.4 35.6,46.6 78.1,89.8 123.9,128.9 92,78.5 196.9,141.9 307.5,187.2 111.1,45 227.8,72.9 342.6,75.6 4.9,0.1 9.6,0.1 14.3,0.1 52.4,0 104.1,-5.9 152,-19.2 52.3,-14.4 98.3,-38.3 131.4,-76.9 l -1141.8,-432.1" /></g><g
         transform="scale(0.127734)"
         id="g234"><path
           id="path236"
           style="fill:#371a45;fill-opacity:1;fill-rule:nonzero;stroke:none"
           d="m 12392.6,15598.5 c -2.9,0 -5.8,0.2 -8.8,0.8 -18.4,3.2 -32.9,16.1 -38.9,32.6 -1,2.8 -1.9,5.6 -2.8,8.5 -1.6,172.7 210.8,399.4 523.6,542.1 172.2,78.6 343.7,117.5 484.7,117.5 154.3,0 272.1,-46.6 314.1,-138.7 8.9,-19.4 14,-40.1 15.6,-61.7 -1.1,-3.2 -2.6,-6.4 -4.3,-9.3 -8,-13.7 -21.7,-23.8 -38.5,-26.7 -3.2,-0.7 -6.4,-0.9 -9.6,-0.9 -16.5,0 -31.8,7.4 -42.2,19.3 l -5.8,6.9 v 0 c -32.9,38.4 -78.6,62.1 -130.5,76.4 -47.6,13.2 -98.8,19.1 -150.9,19.1 -4.7,0 -9.4,0 -14.2,-0.1 -114,-2.7 -229.9,-30.5 -340.2,-75.1 -109.8,-45 -214,-107.9 -305.3,-185.8 -45.5,-38.9 -87.6,-81.8 -123,-128 -33,-42.7 -59,-89.1 -69.6,-135.5 -0.9,-3.7 -1.6,-7.4 -2.2,-11.1 l -1.5,-8.4 c -4.3,-24.6 -25.6,-41.9 -49.7,-41.9" /></g><g
         transform="scale(0.113032)"
         id="g238"><path
           id="path240"
           style="fill:#be8534;fill-opacity:1;fill-rule:nonzero;stroke:none"
           d="m 12417.1,16179.5 c 12.7,17.3 25.3,34.6 38.2,51.8 -12.8,-17.3 -25.5,-34.5 -38.2,-51.8 m 38.2,51.8 c 17.2,23 34.6,45.9 52.5,68.7 -17.7,-22.8 -35.2,-45.7 -52.5,-68.7" /></g><g
         transform="scale(0.135091)"
         id="g242"><path
           id="path244"
           style="fill:#b97631;fill-opacity:1;fill-rule:nonzero;stroke:none"
           d="m 14350.3,15141.8 c -156.5,31.8 -289.5,73.2 -381.8,113.1 168.3,74.3 308.7,175.3 408,288.9 67.3,-25.3 147.2,-49.8 236,-70.5 -55.5,-37.9 -105.5,-83.3 -148,-134.2 -48.9,-59.3 -87.4,-126.4 -114.2,-197.3 m 1376.6,133 c -53.7,79.5 -122.1,144.8 -199.5,194.2 180.3,49 350.5,135.5 489.8,274.8 47.8,47.8 92.6,97.8 134.5,149.7 49.6,-11 99.1,-22.6 148.3,-34.8 -42.9,-67.6 -89.8,-133.7 -141.1,-197.3 -69.9,-87.1 -148,-170.2 -235.1,-247.3 -60.8,-54.1 -126.9,-100.3 -196.9,-139.3" /></g><g
         transform="scale(0.144648)"
         id="g246"><path
           id="path248"
           style="fill:#b9afbe;fill-opacity:1;fill-rule:nonzero;stroke:none"
           d="m 11359.8,15234 c -14.2,2.1 -28.4,4.4 -42.5,6.7 -165.4,27.1 -330.4,65.3 -493.6,115.5 -189.7,57.6 -376.7,131.2 -560.6,221.1 -60.7,30.2 -120.4,61 -178.6,93.7 -119.47,66.5 -234.1,138.8 -344.02,216.5 -111.3,78.5 -217.42,162.4 -318.08,251.2 -25.44,55.7 -46.25,109.6 -63.33,161.3 58.7,-46.8 118.77,-91.9 180.17,-135.2 114.62,-80.8 234.15,-156 355,-223.3 55.51,-31 115.76,-62.6 184.76,-96.8 186.6,-91.4 381.3,-168.2 578.2,-228.3 165.2,-50.7 336.7,-90.8 509.8,-119.2 42.2,-7 84.7,-13.3 127.4,-18.9 26.7,-85.7 55.6,-163.9 85.6,-235.1 -6.7,-3.1 -13.5,-6.1 -20.2,-9.2" /></g><g
         transform="scale(0.145885)"
         id="g250"><path
           id="path252"
           style="fill:#371a45;fill-opacity:1;fill-rule:nonzero;stroke:none"
           d="m 9342.52,16001.9 c -69.23,61 -135.86,124.3 -199.75,189.7 -10.69,37.5 -19.54,73.7 -26.8,108.4 53.26,-47.6 107.89,-93.6 163.76,-138.2 16.93,-51.3 37.56,-104.7 62.79,-159.9" /></g><g
         transform="scale(0.137131)"
         id="g254"><path
           id="path256"
           style="fill:#b9afbe;fill-opacity:1;fill-rule:nonzero;stroke:none"
           d="m 12243.1,16181.2 c -15.8,37.3 -31.4,76.9 -46.4,118.8 78.4,-4.7 157,-7.1 235.7,-7.3 38.5,0 77.3,0.6 116,1.6 -102.3,-34.7 -204.2,-72.4 -305.3,-113.1" /></g><g
         transform="scale(0.137356)"
         id="g258"><path
           id="path260"
           style="fill:#371a45;fill-opacity:1;fill-rule:nonzero;stroke:none"
           d="m 11984.1,16052.4 c -31.6,74.9 -62,157.3 -90.2,247.6 93.6,-12.2 188,-21 282.8,-26.7 15,-41.9 30.5,-81.3 46.3,-118.6 -80.1,-32.3 -159.6,-66.3 -238.9,-102.3" /></g><g
         transform="scale(0.13684)"
         id="g262"><path
           id="path264"
           style="fill:#b98d69;fill-opacity:1;fill-rule:nonzero;stroke:none"
           d="m 13789.9,15059.8 c -35.1,15.2 -64.3,30.1 -86.5,44.2 -227.9,144.6 -478.9,359.4 -517.6,915.7 -2,26.1 -3.3,52.8 -4.2,80.4 -117.6,-17.2 -236.4,-28.9 -355.6,-35.8 -66.8,-3.6 -133.7,-5.8 -200.8,-6.3 309.2,107.3 623.5,186.2 939.7,237.5 6.7,-78.4 17.3,-149.6 31.2,-214.7 0,-0.2 0.1,-0.4 0.2,-0.6 0,-0.3 0,-0.6 0.1,-0.9 0.2,-0.5 0.2,-1 0.4,-1.5 v 0 c 10.1,-46.9 21.8,-90.4 35.1,-131.1 0,0 0,-0.2 0,-0.3 0.1,-0.1 0.2,-0.3 0.3,-0.5 89.4,-273.9 244.5,-413 389.2,-516.3 20.7,-14.9 48.4,-30.6 82,-46.7 26.3,-12.6 56.2,-25.3 89.3,-37.8 -98,-112.2 -236.7,-211.9 -402.8,-285.3 m 2301.7,596.1 c -48.6,12.1 -97.4,23.5 -146.4,34.3 102.1,126.2 187.2,263.3 257.9,405.8 32.3,-10.4 64.7,-21.2 96.9,-32.1 -42.6,-105.7 -92.6,-210.6 -151.1,-312.7 -18.2,-32 -37.3,-63.9 -57.3,-95.3" /></g><g
         transform="scale(0.138306)"
         id="g266"><path
           id="path268"
           style="fill:#371a45;fill-opacity:1;fill-rule:nonzero;stroke:none"
           d="m 12462.7,15887.7 c -193.6,0.6 -388,15.1 -582,44.8 7,3.2 14.1,6.4 21.1,9.7 78.7,35.8 157.7,69.5 237.3,101.6 100.2,40.3 201.3,77.7 302.7,112.1 39.9,1.1 79.7,2.7 119.3,4.8 291.4,16.5 576.7,63.7 852,139.3 0.5,-62.8 3.3,-121.8 8.1,-177.1 -312.9,-50.9 -623.9,-128.9 -929.8,-235.1 -9.5,-0.1 -19.1,-0.1 -28.7,-0.1 m 3664.6,6 c -31.8,10.8 -63.9,21.4 -95.9,31.7 34.1,68.8 64.9,138.9 92.6,209.5 10.4,-3.4 20.8,-6.9 31.2,-10.5 h 0.4 c 16.1,-5.4 31.9,-10.9 48,-16.7 -22.3,-71.2 -47.6,-142.8 -76.3,-214" /></g><g
         transform="scale(0.130341)"
         id="g270"><path
           id="path272"
           style="fill:#b98d69;fill-opacity:1;fill-rule:nonzero;stroke:none"
           d="m 16217.5,15789.3 c -50.6,87 -118.4,164.4 -199,225.3 25.1,5.4 50,11.4 74.7,18.1 80.3,-51.2 151.1,-118.9 206.8,-201.2 -26.9,-15.1 -54.5,-29.1 -82.5,-42.2" /></g><g
         transform="scale(0.127523)"
         id="g274"><path
           id="path276"
           style="fill:#8c5638;fill-opacity:1;fill-rule:nonzero;stroke:none"
           d="m 15776.2,15981.5 c -111.1,0 -220.3,7 -324.4,19.1 19.1,27.3 40.4,52.8 63.6,76.2 82,78.4 183.9,133.8 293.4,149.3 29.2,4.7 58.8,7 88.4,7 25.5,0 50.9,-1.8 76,-5.5 54.1,-8.3 106.3,-25.7 155.7,-49.4 66.1,-32.1 124.1,-79.5 171.1,-136.6 -50,-12.5 -100.6,-22.7 -151.6,-31.1 -123.4,-20.3 -249,-29 -372.2,-29" /></g><g
         transform="scale(0.129682)"
         id="g278"><path
           id="path280"
           style="fill:#371a45;fill-opacity:1;fill-rule:nonzero;stroke:none"
           d="m 15194.7,15734.3 c -86.2,10 -168.7,23.5 -245.9,39.1 28,73.9 68.1,143.7 119,205.5 44.3,53.1 96.4,100.3 154.2,139.8 151.7,-35.3 327.9,-59.8 509.9,-59.8 75.4,0 151.7,4.2 227.7,13.5 47,5.8 93.9,13.6 140.4,23.6 80.9,-61.2 149.1,-139 200,-226.4 -86.5,-40.3 -177.7,-71.5 -271.3,-95 -46.2,56.2 -103.2,102.8 -168.2,134.4 -48.6,23.3 -99.9,40.4 -153.2,48.5 -24.6,3.7 -49.6,5.4 -74.7,5.4 -29.1,0 -58.2,-2.3 -86.9,-6.9 -107.7,-15.2 -207.9,-69.7 -288.5,-146.7 -22.8,-23.1 -43.8,-48.2 -62.5,-75" /></g><g
         transform="scale(0.20532)"
         id="g282"><path
           id="path284"
           style="fill:#ffffff;fill-opacity:1;fill-rule:nonzero;stroke:none"
           d="m 5906.24,12484.6 c 191.66,-401.9 484.47,-757.7 864.17,-1025.6 77.44,-54.6 158.19,-105.6 242.5,-152.5 40.91,-22.9 83.04,-44.8 125.85,-66 129.31,-63.3 261.2,-115.1 394.75,-155.8 114.99,-35.3 231.3,-62.2 347.75,-81.3 140.61,-23.2 281.8,-34.5 422.12,-34.9 51.19,0.1 102.23,1.5 153.08,4.2 930.94,52.4 1806.94,592.3 2245.84,1489.4 646.8,1321.4 99.8,2916.8 -1221.39,3563.6 -254.53,124.4 -519.39,205 -785.56,243.6 -31.07,4.9 -62.39,8.8 -93.75,12.1 -83.82,9.3 -167.59,14.5 -251.12,15.8 -193.21,2.8 -385.21,-15.7 -572.28,-54 -187.07,-38.2 -369.76,-96.4 -544.13,-173.4 -55.47,-24.4 -110.12,-50.7 -163.93,-79 -80.71,-42.5 -159.32,-88.8 -235.69,-139.8 -380.87,-252.5 -701.73,-606.7 -917.1,-1046.9 -372.1,-760.1 -349.02,-1610.7 -11.11,-2319.5" /></g><g
         transform="scale(0.205426)"
         id="g286"><path
           id="path288"
           style="fill:#371a45;fill-opacity:1;fill-rule:nonzero;stroke:none"
           d="m 8307.9,16280.4 c -178.07,0 -356.77,-18.2 -532.02,-54.1 -185.96,-38 -368.31,-96.1 -542.04,-172.7 -55.84,-24.6 -110.8,-51.1 -163.32,-78.7 -81.93,-43.2 -160.94,-90 -234.78,-139.3 -390.61,-259 -706.53,-619.6 -913.66,-1043 -358.23,-731.8 -362.27,-1574 -11.05,-2310.7 194.66,-408.4 492.39,-761.7 860.84,-1021.7 77.99,-55 159.23,-106.1 241.6,-151.9 37.72,-21.1 78.76,-42.7 125.44,-65.8 126.91,-62.1 259.22,-114.4 393.23,-155.2 112.16,-34.5 228.7,-61.7 346.45,-81.1 137.77,-22.6 279.23,-34.3 420.54,-34.7 50.68,0.1 101.99,1.5 152.47,4.2 958.69,54 1816,622.5 2237.4,1483.8 643.3,1314.2 97.4,2906.7 -1216.79,3550.1 -249.39,121.9 -512.69,203.5 -782.57,242.7 -29.45,4.6 -60.85,8.6 -93.37,12 -83.09,9.2 -167.31,14.5 -250.26,15.8 -12.7,0.2 -25.41,0.3 -38.11,0.3 m -8.77,-5326.2 c -142.29,0.3 -284.67,12.1 -423.36,34.9 -118.49,19.4 -235.8,46.9 -348.69,81.6 -134.89,41.1 -268.08,93.7 -395.81,156.2 -47.07,23.4 -88.3,45 -126.27,66.3 -82.86,46.1 -164.64,97.5 -243.11,152.8 -370.94,261.8 -670.56,617.4 -866.49,1028.4 -353.56,741.5 -349.52,1589.2 11.1,2325.8 208.44,426.1 526.47,789.2 919.6,1049.8 74.33,49.6 153.83,96.8 236.34,140.2 52.91,27.8 108.21,54.5 164.39,79.2 174.85,77.2 358.42,135.7 545.59,173.9 188.93,38.7 382.04,56.7 573.84,54.1 83.53,-1.2 168.28,-6.6 251.86,-15.9 32.76,-3.4 64.45,-7.4 94.1,-12 271.58,-39.4 536.59,-121.7 787.58,-244.3 1322.8,-647.6 1872.3,-2250.6 1224.8,-3573.3 -424.2,-867 -1287.06,-1439.2 -2252.03,-1493.5 -50.82,-2.7 -102.47,-4.2 -153.44,-4.2" /></g><g
         transform="scale(0.158591)"
         id="g290"><path
           id="path292"
           style="fill:#b9afbe;fill-opacity:1;fill-rule:nonzero;stroke:none"
           d="m 11139.9,14335.1 c 197.8,49.2 389.9,115 573.6,196.8 -2.4,-21.3 -4.5,-43.3 -6.4,-66.2 -0.4,-4.8 -0.8,-9.7 -1.2,-14.5 -183.5,-54.6 -372.8,-93.7 -566,-116.1 m -881.1,68.5 c -111.3,0 -223.2,5.2 -335.38,15.8 -46.28,12 -92.12,24.9 -137.46,38.9 -168.42,51.3 -334.75,117 -493.84,194.9 -59.02,29.2 -110.73,56.4 -158.27,83 -16.84,9.4 -33.61,18.9 -50.32,28.5 383.63,-138.1 782.77,-208.5 1178.77,-208.5 425.9,0 848.2,81.6 1243.3,248.3 119.9,50.6 234.6,107.8 343.8,171.3 -38.8,-62 -72,-137 -97.3,-232 -452.6,-223 -965.6,-340.2 -1493.3,-340.2 m 2661.6,1686.4 c 35.9,68.3 69.2,138.3 99.8,210 31.3,-45.7 65.3,-88.7 101.8,-128.6 -67.5,-19.1 -135.6,-46.1 -201.6,-81.4" /></g><g
         transform="scale(0.206063)"
         id="g294"><path
           id="path296"
           style="fill:#371a45;fill-opacity:1;fill-rule:nonzero;stroke:none"
           d="m 8282.24,16180 c -174.12,0 -348.97,-17.7 -520.27,-52.9 -181.99,-37.1 -360.33,-93.9 -530.28,-168.9 -54.6,-24.1 -108.37,-50 -159.71,-77 -80.17,-42.2 -157.38,-88 -229.59,-136.1 -382.12,-253.4 -691.05,-606.1 -893.61,-1020.2 -350.43,-715.8 -354.36,-1539.5 -10.83,-2260 190.38,-399.4 481.51,-744.9 841.89,-999.3 76.24,-53.7 155.77,-103.7 236.28,-148.5 36.98,-20.7 77.17,-41.8 123.03,-64.5 123.84,-60.7 253.27,-111.7 384.3,-151.6 109.82,-33.8 223.76,-60.5 338.92,-79.4 134.72,-22.2 273.07,-33.6 411.24,-33.9 49.5,0 99.77,1.4 149.22,4.1 937.58,52.8 1776.07,608.8 2188.17,1451.2 629.2,1285.4 95.3,2842.9 -1190.07,3472.2 -243.91,119.2 -501.4,199.1 -765.3,237.4 -29.02,4.5 -59.45,8.4 -91.09,11.7 -81.63,9.1 -163.93,14.3 -245.07,15.5 -12.43,0.1 -24.8,0.2 -37.23,0.2 m -8.73,-5309.7 c -144.62,0.4 -289.28,12.3 -430.16,35.5 -120.35,19.7 -239.54,47.6 -354.26,82.9 -136.86,41.7 -272.11,95.1 -401.87,158.6 -47.85,23.7 -89.73,45.7 -128.26,67.3 -84.06,46.7 -167.14,99 -246.77,155.2 -376.83,265.8 -681.16,627 -880.22,1044.5 -359.02,753.1 -354.94,1614.1 11.35,2362.2 211.74,432.8 534.7,801.5 934.04,1066.3 75.46,50.3 156.22,98.2 239.93,142.3 53.82,28.3 109.97,55.4 167.03,80.5 177.57,78.4 364.02,137.8 554.11,176.5 191.78,39.4 387.94,57.9 582.78,55.1 84.88,-1.3 170.97,-6.7 255.85,-16.2 33.19,-3.4 65.61,-7.6 95.94,-12.3 275.45,-40 544.64,-123.5 799.56,-248 1343.44,-657.8 1901.54,-2285.8 1243.94,-3629.3 -430.8,-880.5 -1307.17,-1461.7 -2287.21,-1516.8 -51.64,-2.8 -104.05,-4.3 -155.78,-4.3" /></g><g
         transform="scale(0.206414)"
         id="g298"><path
           id="path300"
           style="fill:#371a45;fill-opacity:1;fill-rule:nonzero;stroke:none"
           d="m 8268.13,16124.7 c -171.93,0 -344.65,-17.5 -513.82,-52.2 -179.74,-36.7 -355.88,-92.8 -523.7,-166.8 -54.02,-23.8 -107.07,-49.4 -157.79,-76.1 -79.17,-41.6 -155.42,-86.9 -226.68,-134.4 -377.45,-250.3 -682.56,-598.6 -882.6,-1007.5 -346.1,-707 -349.97,-1520.5 -10.65,-2232.1 188.01,-394.4 475.54,-735.7 831.38,-986.8 75.29,-53.1 153.87,-102.5 233.42,-146.8 36.52,-20.4 76.25,-41.2 121.6,-63.7 122.23,-59.8 250.03,-110.3 379.43,-149.8 108.47,-33.3 221.01,-59.6 334.76,-78.3 133.03,-21.9 269.65,-33.1 406.13,-33.5 48.78,0.1 98.49,1.4 147.37,4 925.9,52.2 1754.02,601.4 2161.02,1433.3 621.4,1269.4 94.2,2807.7 -1175.28,3429.2 -240.93,117.7 -495.22,196.6 -755.86,234.5 -28.73,4.4 -58.62,8.2 -89.77,11.5 -80.76,8.9 -162.06,14.1 -242.23,15.3 -12.21,0.1 -24.47,0.2 -36.73,0.2 m -8.67,-5300.6 c -145.97,0.3 -291.89,12.4 -434.03,35.8 -121.31,19.9 -241.5,48 -357.24,83.5 -137.98,42.1 -274.4,96 -405.21,160 -48.35,24 -90.54,46.1 -129.45,67.9 -84.68,47.1 -168.44,99.8 -248.77,156.4 -380.01,268.2 -687.01,632.5 -887.73,1053.6 -362.13,759.4 -357.97,1627.7 11.44,2382.2 213.5,436.5 539.25,808.4 942.03,1075.4 76.02,50.7 157.45,99.1 241.94,143.5 54.27,28.6 110.95,55.9 168.5,81.2 179.01,79.1 367.03,139 558.78,178.1 193.4,39.6 390.91,58.3 587.7,55.4 85.65,-1.3 172.47,-6.7 258.12,-16.3 33.38,-3.4 66.18,-7.6 96.95,-12.4 277.54,-40.3 549.04,-124.5 806.04,-250.1 1355.07,-663.4 1917.77,-2305.3 1254.57,-3660.2 -434.4,-888 -1318.27,-1474.1 -2306.63,-1529.7 -52.12,-2.8 -104.88,-4.3 -157.01,-4.3" /></g><g
         transform="scale(0.198791)"
         id="g302"><path
           id="path304"
           style="fill:#371a45;fill-opacity:1;fill-rule:nonzero;stroke:none"
           d="m 6482.75,12302.4 c 1551.73,-1207.7 3782.75,-518.6 3998.25,1417 146.7,1316.9 -1029.41,2477.2 -2303.21,2537 -927.05,43.6 -1851.19,-319.4 -2312.18,-1739.8 0,0 -106.94,-660.3 50.26,-1111.6 157.2,-451.4 386.28,-863.8 386.28,-863.8 l 180.6,-238.8" /></g><g
         transform="scale(0.183342)"
         id="g306"><path
           id="path308"
           style="fill:#2a1a3b;fill-opacity:1;fill-rule:nonzero;stroke:none"
           d="m 8876.67,12785.4 c -618.35,0.1 -1247.55,213.2 -1777.93,622.6 l -183.81,242.9 c -7.03,12.9 -25.47,47 -51.54,97.4 521.87,-349 1100.46,-513.8 1656.52,-513.8 1222.41,0.1 2334.99,797 2489.69,2186.3 33.9,304.1 2.6,600.4 -80.8,879.2 142.1,-226 242.7,-467.1 298.8,-714.9 -117.6,-205.2 -186.8,-461.2 -184.2,-735.1 1.8,-187.5 36.1,-365.4 98.7,-522.5 -212.9,-609.8 -654.9,-1085 -1265.27,-1342.5 -317.61,-134 -657.19,-199.6 -1000.16,-199.6" /></g><g
         transform="scale(0.202802)"
         id="g310"><path
           id="path312"
           style="fill:#371a45;fill-opacity:1;fill-rule:nonzero;stroke:none"
           d="m 7641.88,11289.6 c 713.45,-97.6 1426.07,82.6 1956.14,494.7 506.18,393.6 813.78,960.7 889.48,1639.9 69.2,621.4 -135.1,1247.8 -575.43,1763.8 -482.1,565 -1191.31,922.1 -1897.17,955.2 -394.52,18.6 -752.46,-34.1 -1063.65,-156.6 -384.02,-256.1 -694.71,-611.8 -898.75,-1028.9 -354.88,-724.8 -358.83,-1558.9 -10.95,-2288.6 192.8,-404.3 487.57,-754.2 852.51,-1011.7 77.16,-54.5 157.69,-105.1 239.24,-150.5 37.48,-21 78.16,-42.3 124.61,-65.4 123.76,-60.5 253,-111.7 383.97,-151.9 m 380.27,-163.2 c -134.12,0 -269.38,9.2 -404.58,28 l -10.56,2.3 c -139.64,42.5 -277.56,97 -409.8,161.7 -48.82,24.2 -91.47,46.6 -130.82,68.6 -85.65,47.7 -170.31,100.9 -251.48,158.1 -384.11,271.1 -694.37,639.4 -897.32,1065 -365.98,767.6 -361.78,1645.3 11.58,2407.9 215.83,441.2 545.07,817.1 952.21,1087 l 5.92,4 6.66,2.6 c 330.96,131.6 710.24,188.4 1127.4,168.8 743.04,-35 1488.89,-410 1995.14,-1003.2 465.2,-545.2 681,-1208.7 607.5,-1868.3 -79.9,-716.8 -405.6,-1316.1 -941.71,-1732.9 -459.66,-357.5 -1048.56,-549.6 -1660.14,-549.6" /></g><g
         transform="scale(0.200033)"
         id="g314"><path
           id="path316"
           style="fill:#371a45;fill-opacity:1;fill-rule:nonzero;stroke:none"
           d="m 6506.42,12289.2 c 755.72,-583.3 1730.26,-732 2546.28,-387.7 720.58,304.1 1185.2,939.2 1274.7,1742.6 61.6,553 -120.5,1110.7 -512.78,1570.3 -430.08,504 -1062.52,822.5 -1691.77,852.1 -1088.07,51.2 -1830.29,-507.6 -2206.73,-1660.7 -10.15,-68.1 -91.74,-656.1 47.09,-1054.8 142.33,-408.5 347.84,-789.9 374.74,-839.2 l 168.47,-222.6 m 1629.78,-748.7 c -609.55,0 -1228.6,210.6 -1748.41,615.2 l -9.3,7.2 -193.37,257.1 c -9.45,17 -233.16,421.8 -390.13,872.4 -161.77,464.6 -58.24,1120.6 -53.74,1148.3 l 3.2,13.3 c 403.63,1243.5 1206.45,1846 2386.75,1790.4 677.54,-31.8 1357.53,-373.6 1818.95,-914.3 424.55,-497.5 621.35,-1103.3 554.35,-1705.8 -96.9,-869.3 -600.79,-1557.1 -1382.56,-1886.9 -313.25,-132.2 -648.1,-196.9 -985.74,-196.9" /></g><g
         transform="scale(0.179584)"
         id="g318"><path
           id="path320"
           style="fill:#ffffff;fill-opacity:1;fill-rule:nonzero;stroke:none"
           d="m 11373.8,15161.9 c 0,-4.4 0,-9 0.3,-13.3 10.9,-594.3 368.2,-1054.2 802.3,-1029.8 437.4,24.4 787.1,531.6 781.4,1132.4 -4.6,463.4 -219.7,847.6 -518.9,987.2 -88.2,41.5 -184,61.6 -283.7,55.9 -437.3,-24.7 -787.3,-531.9 -781.4,-1132.4" /></g><g
         transform="scale(0.165938)"
         id="g322"><path
           id="path324"
           style="fill:#b9afbe;fill-opacity:1;fill-rule:nonzero;stroke:none"
           d="m 13142,15386.2 c -22.3,0 -44.5,1.3 -66.4,4.2 -54.1,55.4 -142.2,88.4 -247,96.8 -28.9,19.8 -57.1,42.5 -84.3,67.9 -174.2,163.1 -289.3,423.2 -319.8,713.8 31.1,-19.5 65.3,-30.9 103,-30.9 82.8,0 151.4,26 206.9,62 1.4,-45 5.2,-89.4 11.4,-133.1 5,-57.9 14.7,-115.4 29.4,-171.4 69.6,-266.4 246,-457.7 452.1,-519.1 51.9,-18.9 105.6,-29.7 159.7,-32.4 -68.1,-33.1 -140.4,-52.8 -215.5,-57.1 -9.8,-0.5 -19.7,-0.7 -29.5,-0.7" /></g><g
         transform="scale(0.180735)"
         id="g326"><path
           id="path328"
           style="fill:#371a45;fill-opacity:1;fill-rule:nonzero;stroke:none"
           d="m 12110.4,16092.7 c -9,0 -18,-0.2 -27.1,-0.7 -382.1,-21.6 -688.7,-481.7 -683.4,-1025.9 3.1,-317.7 115.6,-611 301,-784.5 116.3,-108.9 251.4,-162.3 392.3,-154.4 382.1,21.6 688.7,481.8 683.4,1025.8 -3.1,317.7 -115.6,611 -301,784.6 -108.9,101.8 -234.6,155.1 -365.2,155.1 m -45.2,-2163.5 c -181.1,0 -352.8,71.6 -499,208.5 -227.3,212.7 -359.8,550.4 -363.4,926.6 -6.3,647.8 383.7,1197.1 869.4,1224.5 195.3,11.2 381.5,-60.6 538.1,-207.2 227.3,-212.8 359.8,-550.6 363.4,-926.7 6.4,-647.8 -383.7,-1197.2 -869.5,-1224.6 -13,-0.7 -26,-1.1 -39,-1.1" /></g><g
         transform="scale(0.177298)"
         id="g330"><path
           id="path332"
           style="fill:#ffffff;fill-opacity:1;fill-rule:nonzero;stroke:none"
           d="m 13184.5,15021.1 c -142.2,-445.1 -527,-669.7 -859.3,-501.4 -332.4,168.2 -486.4,665.4 -344.2,1110.6 142.3,445.2 527,669.7 859.3,501.5 332.4,-168.2 486.5,-665.5 344.2,-1110.7" /></g><g
         transform="scale(0.176388)"
         id="g334"><path
           id="path336"
           style="fill:#371a45;fill-opacity:1;fill-rule:nonzero;stroke:none"
           d="m 12676.3,16261.1 c -66.2,0 -133,-13.8 -198.7,-41.3 -191.6,-80.3 -346.5,-266.9 -424.9,-512.1 -141.2,-442.1 11.6,-937.3 340.7,-1103.8 135.7,-68.7 282.4,-73.6 424.3,-14.2 191.7,80.3 346.6,267 425,512.1 141.2,442.1 -11.7,937.3 -340.8,1103.9 -72.8,36.9 -148.8,55.4 -225.6,55.4 m -56.8,-1732.8 c -80.6,0 -160.6,19 -235.4,57 -337.9,170.9 -495.4,677.4 -351.2,1128.8 80.2,251 239.3,442.3 436.6,524.9 145.7,61 302.5,55.7 441.8,-14.7 337.9,-171 495.4,-677.4 351.1,-1128.8 -80.1,-251 -239.3,-442.3 -436.6,-525 -67.2,-28.2 -137,-42.2 -206.3,-42.2" /></g><g
         transform="scale(0.164583)"
         id="g338"><path
           id="path340"
           style="fill:#8c7b94;fill-opacity:1;fill-rule:nonzero;stroke:none"
           d="m 13336.2,15603.8 c -207.8,61.9 -385.7,254.7 -455.9,523.3 -14.8,56.5 -24.5,114.4 -29.6,172.9 42.5,-295.7 193.7,-553.3 421.7,-668.6 20.9,-10.6 42.1,-19.8 63.8,-27.6" /></g><g
         transform="scale(0.171229)"
         id="g342"><path
           id="path344"
           style="fill:#b9afbe;fill-opacity:1;fill-rule:nonzero;stroke:none"
           d="m 12999.3,14986.8 c -79.1,0 -157.4,19 -232.5,57 -293.3,148.5 -450.7,550.5 -393.5,951.1 1.3,6.4 2.7,12.9 4.2,19.3 92.5,-261.4 288.8,-412.3 507.6,-412.3 91.3,0 186.5,26.3 279.8,81.8 204.8,121.6 352.7,356.1 412.5,616.3 8.4,-23.3 15.8,-47.8 22.4,-73 110.5,-423.2 -46.9,-975.4 -383.7,-1175.7 -45.2,-26.9 -91.3,-46.1 -137.5,-58.1 -26.5,-4.2 -52.9,-6.4 -79.3,-6.4" /></g><g
         transform="scale(0.168024)"
         id="g346"><path
           id="path348"
           style="fill:#371a45;fill-opacity:1;fill-rule:nonzero;stroke:none"
           d="m 13204.7,15263.3 c -48.1,0 -95.6,7.2 -141.6,20.9 -21.2,7.7 -42,16.7 -62.5,27.1 -223.3,113 -371.4,365.3 -413,654.9 -9.5,111.3 -1.5,224.5 21.7,333.8 -58.2,-408.2 102.2,-817.9 401.1,-969.1 76.5,-38.8 156.3,-58.1 236.9,-58.1 26.9,0 53.8,2.1 80.8,6.5 -41.2,-10.8 -82.5,-16 -123.4,-16" /></g><g
         transform="scale(0.177777)"
         id="g350"><path
           id="path352"
           style="fill:#371a45;fill-opacity:1;fill-rule:nonzero;stroke:none"
           d="m 12572.3,16091.1 c -6.5,0 -13.2,-0.2 -20,-0.7 -276.2,-17.7 -507.4,-399.7 -504.9,-834.1 1.6,-271 90.9,-515.2 238.8,-653 55.6,-51.8 146,-112.4 263.7,-104.5 276.2,17.7 507.4,399.7 504.9,834 v 0.1 c -1.6,271 -90.8,515.1 -238.7,653 -52.4,48.9 -136.2,105.2 -243.8,105.2 z m -43,-1793.5 c -137.1,0 -267.8,54.6 -379.8,159 -187.6,174.8 -300.6,473.4 -302.6,798.6 -3.2,555.3 301,1010.1 692.6,1035.3 148.9,9.5 292.1,-45 413.3,-158 187.5,-174.8 300.6,-473.3 302.4,-798.5 3.3,-555.3 -300.9,-1010.1 -692.5,-1035.3 -11.2,-0.7 -22.3,-1.1 -33.4,-1.1" /></g><g
         transform="scale(0.191451)"
         id="g354"><path
           id="path356"
           style="fill:#c3bac7;fill-opacity:1;fill-rule:nonzero;stroke:none"
           d="m 6802,13575.8 c -354.56,486.5 -489.95,992.3 -318.26,1654.5 85.61,330.1 243.25,622.3 451.66,864.2 49.1,57 114.65,97.3 186.89,118.3 60.12,17.5 121.28,32.1 183.18,43.8 61.37,11.6 186.26,26.1 186.26,26.1 l 70.3,5 c 0,0 47.43,12.3 71.2,12.3 10.5,0 16.34,-2.4 11.49,-9.3 C 7067.6,15476.3 6945.95,15006 6870.47,14618.5 6735.56,13925.6 6802,13575.8 6802,13575.8" /></g><g
         transform="scale(0.179282)"
         id="g358"><path
           id="path360"
           style="fill:#c3bac7;fill-opacity:1;fill-rule:nonzero;stroke:none"
           d="m 10393.9,15350.4 c -9.1,0 -18.2,0.3 -27.3,1 -224.5,17.3 -390.26,243.5 -370.07,505.2 19.37,250.9 202.67,443.4 415.77,443.4 9.1,0 18.2,-0.3 27.3,-1.1 224.6,-17.3 390.3,-243.4 370.1,-505.1 -19.4,-250.9 -202.7,-443.4 -415.8,-443.4" /></g><g
         transform="scale(0.165198)"
         id="g362"><path
           id="path364"
           style="fill:#c3bac7;fill-opacity:1;fill-rule:nonzero;stroke:none"
           d="m 11298.3,15875.5 c -8.4,0 -17,0.7 -25.6,2.1 -99.5,16.2 -165,123.4 -146.1,239.5 17.3,106.1 99.1,182.9 189.1,182.9 8.4,0 17,-0.7 25.6,-2.1 99.5,-16.2 165,-123.4 146,-239.5 -17.2,-106.1 -99,-182.9 -189,-182.9" /></g><g
         transform="scale(0.158846)"
         id="g366"><path
           id="path368"
           style="fill:#ffffff;fill-opacity:1;fill-rule:nonzero;stroke:none"
           d="m 12832.7,14746.6 c 1053.3,282.2 975.8,1127.6 848.1,1305.5 -178,247.9 -921,152 -1191.2,-411.2 -264.5,-551.7 -732.9,-354.8 -801.3,-1198.4 -61.3,-756.4 177.8,-998.5 390.6,-1150.4 192.7,-137.7 1073.9,-371.7 1543,97.2 751.3,751.2 621.2,2140 621.2,2140 l -1410.4,-782.7" /></g><g
         transform="scale(0.148115)"
         id="g370"><path
           id="path372"
           style="fill:#b9afbe;fill-opacity:1;fill-rule:nonzero;stroke:none"
           d="m 14498.4,16223.4 c 33.7,41.6 51.7,70.6 55,75.9 0.1,0.2 0.3,0.5 0.5,0.7 -0.4,-2.3 -4,-20.9 -10.2,-51.5 l -45.3,-25.1" /></g><g
         transform="scale(0.148117)"
         id="g374"><path
           id="path376"
           style="fill:#b9afbe;fill-opacity:1;fill-rule:nonzero;stroke:none"
           d="m 14130.5,15343.5 c -234.9,0 -284.8,469.3 -284.8,469.3 348.4,83.7 559.9,295.5 652.5,410.4 l 45.3,25.1 c -40.7,-198 -199,-896.5 -405.9,-904.6 -2.4,-0.2 -4.8,-0.2 -7.1,-0.2 m 422.7,955.6 c 0.3,0.6 0.5,0.9 0.5,0.9 0,0 0,-0.1 0,-0.2 -0.2,-0.2 -0.4,-0.5 -0.5,-0.7" /></g><g
         transform="scale(0.128824)"
         id="g378"><path
           id="path380"
           style="fill:#8c5638;fill-opacity:1;fill-rule:nonzero;stroke:none"
           d="m 15323.3,16226 c -93.1,21.7 -176.9,47.4 -247.5,74 v 0 c 70.6,-26.6 154.5,-52.3 247.5,-74 v 0" /></g><g
         transform="scale(0.129141)"
         id="g382"><path
           id="path384"
           style="fill:#8c655c;fill-opacity:1;fill-rule:nonzero;stroke:none"
           d="m 15038.8,16260 c -35,13.2 -66.7,26.7 -94.6,40 27.9,-13.3 59.6,-26.8 94.6,-40 v 0" /></g><g
         transform="scale(0.128239)"
         id="g386"><path
           id="path388"
           style="fill:#371a45;fill-opacity:1;fill-rule:nonzero;stroke:none"
           d="m 15908.9,16239.5 c -184.1,0 -362.3,24.8 -515.7,60.5 v 0 c 153.5,-35.7 331.8,-60.4 515.7,-60.4 76.2,0 153.3,4.2 230.2,13.6 -76.9,-9.4 -154.1,-13.7 -230.2,-13.7" /></g><g
         transform="scale(0.135001)"
         id="g390"><path
           id="path392"
           style="fill:#8c655c;fill-opacity:1;fill-rule:nonzero;stroke:none"
           d="m 13817.9,16163.3 c 0,0.1 -0.1,0.3 -0.2,0.5 0.1,-0.2 0.2,-0.3 0.2,-0.5 m -0.3,0.8 c -13.4,41.2 -25.3,85.3 -35.5,132.8 10.2,-47.5 22.1,-91.6 35.5,-132.8 m -35.5,132.8 c -0.2,0.5 -0.2,1 -0.4,1.5 0.2,-0.5 0.2,-1 0.4,-1.5 m -0.5,2.4 c -0.1,0.3 -0.2,0.5 -0.2,0.7 0,-0.2 0.1,-0.4 0.2,-0.7" /></g><g
         transform="scale(0.142134)"
         id="g394"><path
           id="path396"
           style="fill:#8c7b94;fill-opacity:1;fill-rule:nonzero;stroke:none"
           d="m 15857.4,16299.9 c 0,0.1 0,0 0,0 v 0" /></g><g
         transform="scale(0.151334)"
         id="g398"><path
           id="path400"
           style="fill:#b9afbe;fill-opacity:1;fill-rule:nonzero;stroke:none"
           d="m 14925.1,15512.2 v 0 c 56.6,438.8 25.8,779.8 25,787.7 l 0.1,0.1 c 0,0 32.2,-343.8 -25.1,-787.8" /></g><g
         transform="scale(0.14402)"
         id="g402"><path
           id="path404"
           style="fill:#8c7b94;fill-opacity:1;fill-rule:nonzero;stroke:none"
           d="m 15649.8,16086.8 c 13.4,72.9 24.4,144.2 33.3,213.2 v 0 c -8.9,-69 -19.9,-140.4 -33.3,-213.2" /></g><g
         transform="scale(0.151334)"
         id="g406"><path
           id="path408"
           style="fill:#b9afbe;fill-opacity:1;fill-rule:nonzero;stroke:none"
           d="m 13481.1,13761.3 c -155.9,0 -306.9,21 -437,51.2 -79.2,18.5 -150.6,40.3 -210.7,63 -29.8,11.3 -56.9,22.8 -80.7,34.2 -30.3,14.4 -55.3,28.7 -74,42.2 -130.9,93.4 -271.2,219.2 -352.1,466.9 -0.1,0.2 -0.1,0.3 -0.2,0.5 0,0.1 0,0.2 -0.1,0.2 -11.9,36.8 -22.6,76.1 -31.7,118.5 v 0 c -0.1,0.5 -0.2,0.9 -0.3,1.4 -0.1,0.3 -0.2,0.5 -0.2,0.8 0,0.2 -0.1,0.4 -0.1,0.6 -34,159.3 -46.4,360.4 -25.4,618.5 1.8,23.6 4.1,46.3 6.7,68.4 55.1,-408.1 236.7,-579.3 403.4,-698.3 111.7,-79.9 444.2,-190.6 802.4,-190.6 289.9,0 596.7,72.5 816.9,292.8 468,468 610.5,1171.8 648.8,1666.4 l 3.4,2 c 0.7,-7.9 31.5,-348.9 -25,-787.7 -8.5,-65.7 -18.9,-133.6 -31.7,-203 -0.1,0 -0.1,-0.1 -0.1,-0.2 0,-0.1 0,0 0,0 -78.7,-426.6 -246.6,-906.4 -595.4,-1255.1 -171.1,-171.1 -394.7,-253.1 -621.9,-281.1 -65.1,-8 -130.4,-11.6 -195,-11.6" /></g><g
         transform="scale(0.158783)"
         id="g410"><path
           id="path412"
           style="fill:#371a45;fill-opacity:1;fill-rule:nonzero;stroke:none"
           d="m 12828.1,14788.5 c 180.4,109.6 351.5,199.9 493.3,321.3 69.9,60.9 132,128.3 182.6,202.8 49.9,74.9 90.1,156.5 113.7,243.9 24.5,86.9 33,179.4 24.4,268.1 -4.2,44.1 -13.3,87.7 -26.3,124.7 -6.5,17.4 -14.7,35.4 -20.4,43 -8.1,9.4 -16.1,19.9 -29.5,28.6 -24.5,18.5 -60.5,33.2 -100.2,41.9 -39.7,9 -83.2,12.6 -127.5,11.9 -88.8,-1 -180.2,-21.1 -266.6,-52.1 -173.1,-63.8 -326.1,-180.6 -424.7,-333.3 -11.6,-19.5 -24.4,-38.4 -34.4,-58.8 l -15.8,-30.3 -20.3,-37.4 c -13.9,-25.2 -26.9,-50.8 -42,-75.4 l -49.8,-71.7 c -70.3,-93.3 -159,-172.1 -245.7,-236.2 -86.8,-64.7 -167.9,-118.9 -229.2,-182.5 -62,-62.8 -105.7,-137 -138.2,-221.7 -13.4,-44 -29.4,-86.6 -37,-134.3 -4.6,-23.3 -10.2,-46.2 -14.1,-69.9 l -8.5,-72.5 c -2.5,-24.3 -6.6,-47.9 -7.9,-72.9 l -4.4,-74.6 c -4.2,-49.9 -2.7,-99.1 -3.8,-148.6 2,-196.1 28.7,-391.9 112.4,-550.8 40.8,-80 98.3,-146.9 167.5,-206.7 18.3,-14.4 35.7,-29.2 55.4,-43.2 9.7,-7.2 19.9,-14.9 26,-18.5 6.5,-4.6 16.6,-9.7 25,-14.6 37.8,-19.6 82,-37.4 126.9,-52.7 181.9,-60.8 380.3,-91.1 572.4,-87.5 192.3,3.6 382.1,46.1 535.7,142 38.1,24.3 74.5,50.9 107.2,81.7 l 24.7,22.9 24.6,26.4 c 16.2,17.9 33.9,34.2 48.8,53.4 63.9,72.3 118.8,152.8 169.3,236.1 50.5,83.5 93.9,171.9 131.4,263.2 37.6,91.2 70.4,184.9 97.2,280.8 26.8,95.9 49,193.4 66.6,292.1 17.8,98.6 26.2,198.9 33.3,299.1 17.2,200.6 25.1,399.2 91.3,605.6 l 0.3,1.1 c 6.8,21.1 29.5,32.8 50.6,26 10.6,-3.4 18.9,-10.9 23.6,-20.1 26.5,-51.9 41.8,-103.8 55,-156.6 12.6,-52.7 20.4,-105.9 24.7,-159.1 7.5,-106.5 5.4,-213.5 -7.1,-319.5 -12.4,-106 -31.7,-211.1 -50.6,-316.2 -19.2,-105.2 -42.7,-209.8 -71.7,-313.4 -29,-103.5 -64.5,-205.7 -105.9,-305.9 -41.2,-100.2 -89.3,-198.3 -145.9,-292.1 -56.7,-93.6 -119.1,-184.7 -192.3,-267.9 -17.1,-21.6 -37.3,-40.8 -55.9,-61.3 l -28.4,-30.2 -32.1,-30.1 c -43,-40.1 -90.4,-74.9 -139.6,-106.2 -99.3,-61.4 -207.3,-105.8 -317.4,-132.9 -110,-28.2 -221.7,-40.9 -332.4,-43.3 -221.8,-3.6 -438.8,29.3 -649.8,99.5 -53,18.2 -105.4,38.6 -159.5,66.8 -14,7.9 -27.2,14.5 -42,24.6 -15.8,10 -26.2,18.1 -37.4,26.3 -22.5,16 -44.7,34.6 -66.9,52.4 -87.8,74.8 -167.5,168.1 -221,272.9 -54.9,104.3 -88.4,215.4 -109.2,325.4 -21.7,110.4 -26.7,220 -29.3,328.7 1.2,53.9 -0.2,108.4 4.1,161.8 l 4.8,80.4 c 1.5,26.7 5.9,54.3 8.7,81.5 l 9.8,81.7 c 4.5,27.4 11,54.9 16.4,82.3 9.1,54.9 28.4,109.9 45.9,164.7 40.7,108.8 104.1,216.2 188.2,300.8 83.3,85.3 176.4,145.9 255.1,205.2 79.5,59 146.4,119.7 201.2,191.8 l 38.8,55.8 c 11.9,19.6 22.1,40.3 33.4,60.4 l 16.9,30.7 20,38.7 c 13,25.9 29,50.3 44.1,75.1 126.8,196.1 320.2,342.5 535.4,421.7 108.1,38.8 221.8,64.1 340.4,65.8 59.2,0.9 119.5,-3.7 180.9,-17.4 61,-13.9 124.1,-36.6 183.1,-79.8 29.6,-20.4 56.8,-48.8 80.3,-80.2 24.2,-34.9 36.1,-65.1 48,-96 21.5,-60.6 32.5,-119.4 38.8,-178.1 12,-117.4 3.8,-234.4 -23.1,-348.1 -26.3,-113.8 -73.4,-223 -137.2,-321.2 -64.9,-97.3 -146.8,-182.1 -238.3,-250.5 -182.6,-138.7 -401.8,-211.5 -619.5,-211.5 -21.4,0 -38.7,17.3 -38.7,38.7 0,14 7.4,26.3 18.5,33.1 l 0.8,0.4" /></g><g
         transform="scale(0.145674)"
         id="g414"><path
           id="path416"
           style="fill:#371a45;fill-opacity:1;fill-rule:nonzero;stroke:none"
           d="m 14437.1,16198.5 c 5.6,-48.3 2.4,-99.4 -0.5,-148.7 -3.2,-49.6 -10.6,-99.1 -16,-148.6 -5,-49.4 -9.5,-98.5 -11.1,-147.5 -1.3,-49.2 -0.8,-96.6 17.3,-143 l 1.4,-3.3 c 2.7,-7 -0.8,-14.9 -7.8,-17.6 -4.3,-1.7 -9,-1 -12.6,1.4 -11.6,7.9 -25.8,16.3 -36.6,27 -10,10.6 -21,22.2 -29.6,34.4 -8.3,12 -16.4,24.7 -24,37.7 -6.4,12.8 -13.1,25.8 -19.3,39.1 -22.7,53 -38.6,107.7 -49.7,162.2 -10.7,54.5 -19,109.2 -19.7,163.7 -0.1,54.8 2.6,107.7 18.1,163.1 14.3,51.5 67.7,81.6 119.3,67.3 39,-10.9 65.8,-44.2 70.2,-82.1 l 0.6,-5.1" /></g><g
         transform="scale(0.138935)"
         id="g418"><path
           id="path420"
           style="fill:#371a45;fill-opacity:1;fill-rule:nonzero;stroke:none"
           d="m 10417.2,16294.5 c 36.6,-10 77.4,-19.5 116.4,-28.1 39.5,-8.7 79.3,-16.7 118.9,-23.5 79.2,-13.5 159.4,-23.9 234.8,-22.9 h 3.3 c 35.6,0.5 64.8,-28 65.2,-63.6 0.5,-29.9 -19.7,-55.3 -47.2,-62.9 -89.2,-24.6 -176.4,-35.1 -263.4,-42.8 -43.5,-3.8 -86.8,-6.2 -130.2,-8 -43.8,-1.7 -85.9,-2.9 -131.9,-2.4 h -1.7 c -71.5,0.8 -128.8,59.4 -128,130.9 0.8,71.4 59.3,128.8 130.9,128 11.1,-0.1 22.6,-1.9 32.9,-4.7" /></g></g></g></svg>