<?xml version="1.0" encoding="utf-8"?>
<!-- Generator: Adobe Illustrator 19.1.0, SVG Export Plug-In . SVG Version: 6.00 Build 0)  -->
<svg version="1.1" id="Layer_1" xmlns="http://www.w3.org/2000/svg" xmlns:xlink="http://www.w3.org/1999/xlink" x="0px" y="0px"
	 viewBox="0 0 64 64" enable-background="new 0 0 64 64" xml:space="preserve">
<g id="Block">
	<path d="M32,0c-17.6730995,0-32,14.3268995-32,32s14.3268995,32,32,32s32-14.3269005,32-32S49.6730995,0,32,0z M32,62
		c-16.542099,0-30-13.457901-30-30c0-16.5419998,13.4578991-30,30-30c16.5419998,0,30,13.4580002,30,30
		C62,48.542099,48.5419998,62,32,62z"/>
	<path d="M46,26H18c-1.104599,0-2,0.8953991-2,2v8c0,1.104599,0.895401,2,2,2h28c1.1044998,0,2-0.895401,2-2v-8
		C48,26.8953991,47.1044998,26,46,26z M46,36H18v-8h28V36z"/>
</g>
<g>
</g>
<g>
</g>
<g>
</g>
<g>
</g>
<g>
</g>
<g>
</g>
<g>
</g>
<g>
</g>
<g>
</g>
<g>
</g>
<g>
</g>
<g>
</g>
<g>
</g>
<g>
</g>
<g>
</g>
</svg>
