<?xml version="1.0" encoding="utf-8"?>
<!-- Generator: Adobe Illustrator 19.1.0, SVG Export Plug-In . SVG Version: 6.00 Build 0)  -->
<svg version="1.1" id="Layer_1" xmlns="http://www.w3.org/2000/svg" xmlns:xlink="http://www.w3.org/1999/xlink" x="0px" y="0px"
	 viewBox="0 0 64 64" enable-background="new 0 0 64 64" xml:space="preserve">
<g id="Skip-forward">
	<path d="M21,22v20c0,0.3876991,0.2245998,0.7411995,0.5757008,0.9053001C21.7113991,42.9687996,21.8558998,43,22,43
		c0.2294998,0,0.4570007-0.0791016,0.6401005-0.2313995L33,34.1348V42c0,0.3876991,0.2246017,0.7411995,0.5761986,0.9053001
		C33.7108994,42.9687996,33.8554993,43,34,43c0.2294998,0,0.4570007-0.0791016,0.6405983-0.2313995l10.3544998-8.6296005V43
		c0,0.5546989,0.4502029,1.0049019,1.0049019,1.0049019S47.0049019,43.5546989,47.0049019,43V22
		c0-0.5547009-0.4502029-1.0049-1.0049019-1.0049S44.9950981,21.4452991,44.9950981,22v7.8593998l-10.3544998-8.6278992
		c-0.2997971-0.2481003-0.7157974-0.3008003-1.0643997-0.1368008C33.2246017,21.2588005,33,21.6123009,33,22v7.8635006
		l-10.3598995-8.632c-0.2988014-0.2481003-0.7147999-0.3028011-1.0643997-0.1368008C21.2245998,21.2588005,21,21.6123009,21,22z
		 M35,24.1348l9.4375,7.8642006L35,39.8652V24.1348z M23,24.1348l9.4375,7.8642006L23,39.8652V24.1348z"/>
	<path d="M0,32c0,17.6730995,14.3268995,32,32,32s32-14.3269005,32-32S49.6730995,0,32,0S0,14.3268995,0,32z M2,32
		C2,15.4580002,15.4579,2,32,2c16.5419998,0,30,13.4580002,30,30c0,16.542099-13.4580002,30-30,30C15.4579,62,2,48.542099,2,32z"/>
</g>
<g>
</g>
<g>
</g>
<g>
</g>
<g>
</g>
<g>
</g>
<g>
</g>
<g>
</g>
<g>
</g>
<g>
</g>
<g>
</g>
<g>
</g>
<g>
</g>
<g>
</g>
<g>
</g>
<g>
</g>
</svg>
