<svg  height="25" width="25" class="icon ic-mute" viewBox="0 0 64 64" ><path id="Microphone-disabled" d="M32,40c6.0653992,0,11-5.0653992,11-11.2919998V17.2388L57.6772003,3.7358999	c0.4062996-0.3739998,0.4326973-1.0063999,0.0585976-1.4131C57.3618011,1.9165,56.7304993,1.8902,56.3227997,2.2642L43,14.5209999	v-3.2290001C43,5.0654998,38.0653992,0,32,0S21,5.0654998,21,11.2919998v17.4160004	c0,1.7950001,0.4208012,3.4870987,1.1497002,4.9953995l-4.9078999,4.5153999C15.8229008,35.6833992,15,32.7570992,15,29.6333008V26	c0-0.5522003-0.4477997-1-1-1c-0.5521994,0-0.999999,0.4477997-0.999999,1v3.6333008	c0,3.649498,1.0119991,7.0524979,2.7416048,9.9655991l-9.4188051,8.6652985	c-0.4063001,0.3740005-0.4327002,1.0063019-0.0585999,1.4131012C6.4614005,49.8916016,6.7305007,50,7.0005007,50	c0.2417002,0,0.4843998-0.0873985,0.6767001-0.2640991l9.1839008-8.4490013	C20.1452999,45.6963005,25.2313995,48.6402016,31,48.9482994V62H21c-0.5522003,0-1,0.4477997-1,1c0,0.5522995,0.4477997,1,1,1h22	c0.5522003,0,1-0.4477005,1-1c0-0.5522003-0.4477997-1-1-1H33V48.9482994c10.0106049-0.5349007,18-8.9801979,18-19.3149986V26	c0-0.5522003-0.4477997-1-1-1s-1,0.4477997-1,1v3.6333008C49,39.2094994,41.3740005,47,32,47	c-5.6002007,0-10.5613937-2.7927017-13.6604996-7.0733986l4.8607006-4.4717026C25.2080994,38.2075996,28.3999004,40,32,40z	 M41,28.7080002C41,33.8316002,36.9623985,38,32,38c-3.0174999,0-5.6865005-1.546299-7.3202991-3.9065018L41,19.0788994V28.7080002z	 M23,28.7080002V11.2919998C23,6.1684999,27.0376053,2,32,2s9,4.1684999,9,9.2919998v5.0690994L23.6946068,32.282299	C23.2483006,31.1812,23,29.9741993,23,28.7080002z"/><g></svg>