<?xml version="1.0" encoding="utf-8"?>
<!-- Generator: Adobe Illustrator 19.1.0, SVG Export Plug-In . SVG Version: 6.00 Build 0)  -->
<svg version="1.1" id="Layer_1" xmlns="http://www.w3.org/2000/svg" xmlns:xlink="http://www.w3.org/1999/xlink" x="0px" y="0px"
	 viewBox="0 0 64 64" enable-background="new 0 0 64 64" xml:space="preserve">
<g id="Sound-Disable">
	<path d="M55.0953751,31.0069008l4.2929001-4.2929001c0.3905983-0.3907013,0.3905983-1.0235004,0-1.4141006
		s-1.0233994-0.3906002-1.4140015,0l-4.2929993,4.2929993l-4.2929993-4.2929993
		c-0.3905983-0.3906002-1.0233994-0.3906002-1.4140015,0c-0.3906975,0.3906002-0.3906975,1.0233994,0,1.4141006l4.2929001,4.2929001
		l-4.2929001,4.2929993c-0.3906975,0.3905983-0.3906975,1.0233994,0,1.4141006
		c0.1953011,0.1953011,0.4511032,0.2929001,0.7070007,0.2929001c0.2559013,0,0.5116997-0.097599,0.7070007-0.2929001
		l4.2929993-4.2929993l4.2929993,4.2929993c0.1953011,0.1953011,0.4511032,0.2929001,0.7070007,0.2929001
		c0.2559013,0,0.5116997-0.097599,0.7070007-0.2929001c0.3905983-0.3907013,0.3905983-1.0235023,0-1.4141006L55.0953751,31.0069008z
		"/>
	<path d="M40.9559746,10.0068998c-0.2562981,0-0.518898,0.0480003-0.7775002,0.1513004l-23.2776985,9.3035002v0.0133991
		c-3.9111013,0.1193008-7.1570005,2.8481998-8.0629005,6.5083008C6.2279749,26.7413998,4.3187752,29.1457005,4.3187752,32
		c0,2.8544006,1.9092999,5.2587013,4.5191994,6.0167007c0.9058008,3.660099,4.1517,6.3889999,8.0628014,6.5083008v0.0133972
		l23.2776985,9.3034019c0.2584991,0.1032982,0.5212021,0.1512985,0.7775002,0.1512985
		c1.1044006,0,2.0877991-0.8918991,2.0877991-2.0918007v-39.802597
		C43.0437737,10.8990002,42.060276,10.0068998,40.9559746,10.0068998z M8.5771751,35.6632004
		C7.2855749,34.9513016,6.4084749,33.5760994,6.4084749,32c0-1.5760002,0.8771-2.9512997,2.1687002-3.6630993V35.6632004z
		 M16.9007759,42.4432983c-3.181201-0.1279984-5.7749004-2.5558968-6.1744013-5.6611977
		c-0.0279999-0.2750015-0.0594997-0.549202-0.0594997-0.8316994v-7.9007015c0-0.2826004,0.0314999-0.5569,0.0594997-0.8318996
		c0.3995008-3.1051006,2.9932003-5.5331001,6.1744013-5.6611004V42.4432983z M40.9540749,51.9012985l-21.9634991-8.7781982
		V20.8770008l21.9634991-8.7778006V51.9012985z"/>
</g>
<g>
</g>
<g>
</g>
<g>
</g>
<g>
</g>
<g>
</g>
<g>
</g>
<g>
</g>
<g>
</g>
<g>
</g>
<g>
</g>
<g>
</g>
<g>
</g>
<g>
</g>
<g>
</g>
<g>
</g>
</svg>
