<?xml version="1.0" encoding="utf-8"?>
<!-- Generator: Adobe Illustrator 19.1.0, SVG Export Plug-In . SVG Version: 6.00 Build 0)  -->
<svg version="1.1" id="Layer_1" xmlns="http://www.w3.org/2000/svg" xmlns:xlink="http://www.w3.org/1999/xlink" x="0px" y="0px"
	 viewBox="0 0 64 64" enable-background="new 0 0 64 64" xml:space="preserve">
<g id="Switch-to-unlock">
	<path d="M47.2276001,25.0926991c-0.3906021-0.3905983-1.0235023-0.3905983-1.4141006,0
		c-0.3905983,0.3906002-0.3905983,1.0235004,0,1.4141006l3.7539101,3.7539005H35.0997009c-0.5527992,0-1,0.4473-1,1s0.4472008,1,1,1
		h14.4678993l-3.7541008,3.7548981c-0.3905983,0.3906021-0.3905983,1.0234032,0,1.4140015
		C46.0088005,37.625,46.264698,37.722599,46.5205994,37.722599c0.2558098,0,0.5116997-0.097599,0.7070007-0.2929993
		l5.4608994-5.4619007c0.3905983-0.3905983,0.3905983-1.0233994,0-1.4139996L47.2276001,25.0926991z"/>
	<path d="M47.5,15.5h-31c-9.0975914,0-16.5,7.4022999-16.5,16.5c0,9.097599,7.4024081,16.5,16.5,16.5h31
		C56.5976982,48.5,64,41.097599,64,32C64,22.9022999,56.5976982,15.5,47.5,15.5z M47.5,46.5h-31
		c-7.9950991,0-14.499999-6.5049019-14.499999-14.5c0-7.9951992,6.5049-14.5,14.499999-14.5h31C55.4952011,17.5,62,24.0048008,62,32
		C62,39.9950981,55.4952011,46.5,47.5,46.5z"/>
	<path d="M18.0498009,21.7000999c-5.6796007,0-10.2998009,4.6201992-10.2998009,10.2999001
		c0,5.6795998,4.6201997,10.2998009,10.2998009,10.2998009c5.6796989,0,10.2999001-4.6202011,10.2999001-10.2998009
		C28.3497009,26.3202991,23.7294998,21.7000999,18.0498009,21.7000999z M18.0498009,40.2998009
		c-4.5761003,0-8.2997999-3.7237015-8.2997999-8.2998009c0-4.5762005,3.7236996-8.2999001,8.2997999-8.2999001
		c4.5761986,0,8.2999001,3.7236996,8.2999001,8.2999001C26.3497009,36.5760994,22.6259995,40.2998009,18.0498009,40.2998009z"/>
</g>
<g>
</g>
<g>
</g>
<g>
</g>
<g>
</g>
<g>
</g>
<g>
</g>
<g>
</g>
<g>
</g>
<g>
</g>
<g>
</g>
<g>
</g>
<g>
</g>
<g>
</g>
<g>
</g>
<g>
</g>
</svg>
