<?xml version="1.0" encoding="utf-8"?>
<!-- Generator: Adobe Illustrator 19.1.0, SVG Export Plug-In . SVG Version: 6.00 Build 0)  -->
<svg version="1.1" id="Layer_1" xmlns="http://www.w3.org/2000/svg" xmlns:xlink="http://www.w3.org/1999/xlink" x="0px" y="0px"
	 viewBox="0 0 64 64" enable-background="new 0 0 64 64" xml:space="preserve">
<g id="Upload">
	<path d="M19.6592007,13.6996374L31.0156002,3.2167375v40.1773033h1.9688015V3.2167375l11.3563995,10.4828997
		c0.1875,0.1718998,0.4228973,0.2579002,0.6591988,0.2579002c0.2616997,0,0.5224991-0.1055002,0.7139015-0.3125
		c0.3641968-0.3945999,0.3387985-1.0088005-0.0547028-1.3731003l-13-12c-0.3731003-0.3437-0.9452991-0.3437-1.3183994,0l-13,12
		c-0.3934994,0.3642998-0.4188995,0.9785004-0.0546989,1.3731003C18.6504002,14.038537,19.2637005,14.0629377,19.6592007,13.6996374
		z"/>
	<path d="M55,23.9858379H40.9413986v2H54v36H10v-36h12.3174v-2H9c-0.5527,0-1,0.4471989-1,1v38c0,0.5527,0.4473,1,1,1h46
		c0.5527,0,1-0.4473,1-1v-38C56,24.4330368,55.5527,23.9858379,55,23.9858379z"/>
</g>
<g>
</g>
<g>
</g>
<g>
</g>
<g>
</g>
<g>
</g>
<g>
</g>
<g>
</g>
<g>
</g>
<g>
</g>
<g>
</g>
<g>
</g>
<g>
</g>
<g>
</g>
<g>
</g>
<g>
</g>
</svg>
