<?xml version="1.0" encoding="utf-8"?>
<!-- Generator: Adobe Illustrator 19.1.0, SVG Export Plug-In . SVG Version: 6.00 Build 0)  -->
<svg version="1.1" id="Layer_1" xmlns="http://www.w3.org/2000/svg" xmlns:xlink="http://www.w3.org/1999/xlink" x="0px" y="0px"
	 viewBox="0 0 64 64" enable-background="new 0 0 64 64" xml:space="preserve">
<g id="Signal">
	<path d="M31.8924999,31c-3.4521008,0-6.7392998,1.4902-9.0175991,4.0889015
		C22.5107002,35.5038986,22.5527,36.1357994,22.967701,36.5c0.4130993,0.3623009,1.0468998,0.3232994,1.4110985-0.0928001
		C26.2772999,34.2421989,29.015501,33,31.8924999,33c2.9922009,0,5.8018017,1.3251991,7.7090015,3.6366997
		C39.7997017,36.8759995,40.0848999,37,40.3739014,37c0.2236977,0,0.4492989-0.0751991,0.6357994-0.2285004
		c0.4258003-0.3516006,0.4862976-0.982399,0.1348-1.4081993C38.8554001,32.5908012,35.4832993,31,31.8924999,31z"/>
	<path d="M31.8397999,25c-5.0361996,0-9.8300991,2.1737995-13.1553001,5.9648991
		c-0.3642998,0.4150009-0.3223,1.0468006,0.0928001,1.4111004c0.4139996,0.3633003,1.0459003,0.3232002,1.4111004-0.0928001
		C23.1327,28.9258003,27.3798008,27,31.8397999,27c4.6396008,0,8.9960995,2.0547009,11.9521008,5.6366997
		C43.9902,32.8759995,44.2752991,33,44.5643997,33c0.2235985,0,0.4491997-0.0751991,0.6357117-0.2285004
		c0.4257889-0.3516006,0.48629-0.982399,0.1347885-1.4081993C41.9980011,27.3192997,37.0789986,25,31.8397999,25z"/>
	<path d="M31.7861118,19c-6.6192112,0-12.9199982,2.8565006-17.2872124,7.8369007
		c-0.3641996,0.4151001-0.3221998,1.0468998,0.0928001,1.4111996c0.4140997,0.362299,1.0458994,0.3232002,1.4112005-0.0928001
		C19.9902,23.6084003,25.7431126,21,31.7861118,21c6.2860889,0,12.1883869,2.7831993,16.1913891,7.6366997
		C48.1757011,28.8759995,48.4608994,29,48.7499008,29c0.2236977,0,0.4492111-0.0751991,0.6357994-0.2285004
		c0.4257011-0.3515987,0.4862976-0.9814987,0.1347008-1.4081993C45.1357002,22.0487995,38.6717987,19,31.7861118,19z"/>
	<path d="M32,0c-17.6730995,0-32,14.3268995-32,32s14.3268995,32,32,32s32-14.3269005,32-32S49.673111,0,32,0z M32,62
		c-16.542099,0-30-13.457901-30-30c0-16.5419998,13.4578991-30,30-30c16.5419998,0,30,13.4580002,30,30
		C62,48.542099,48.5419998,62,32,62z"/>
	<path d="M32,37.232399c-2.7614002,0-5,2.2386017-5,5c0,2.7614021,2.2385998,5,5,5s5-2.2385979,5-5
		C37,39.4710007,34.7613983,37.232399,32,37.232399z M32,45.232399c-1.6543007,0-3-1.3456993-3-3c0-1.6540985,1.3456993-3,3-3
		c1.6542015,0,3,1.3459015,3,3C35,43.8866997,33.6542015,45.232399,32,45.232399z"/>
</g>
<g>
</g>
<g>
</g>
<g>
</g>
<g>
</g>
<g>
</g>
<g>
</g>
<g>
</g>
<g>
</g>
<g>
</g>
<g>
</g>
<g>
</g>
<g>
</g>
<g>
</g>
<g>
</g>
<g>
</g>
</svg>
