<svg id="Capa_1" enable-background="new 0 0 512 512" height="512" viewBox="0 0 512 512" width="512" xmlns="http://www.w3.org/2000/svg" xmlns:xlink="http://www.w3.org/1999/xlink"><linearGradient id="SVGID_1_" gradientUnits="userSpaceOnUse" x1="256" x2="256" y1="512" y2="0"><stop offset="0" stop-color="#5558ff"/><stop offset="1" stop-color="#00c0ff"/></linearGradient><g><g><path d="m226 151h-60c-8.284 0-15 6.716-15 15v180c0 8.284 6.716 15 15 15h60c8.284 0 15-6.716 15-15v-180c0-8.284-6.716-15-15-15zm-15 180h-30v-150h30zm135-180h-60c-8.284 0-15 6.716-15 15v180c0 8.284 6.716 15 15 15h60c8.284 0 15-6.716 15-15v-180c0-8.284-6.716-15-15-15zm-15 180h-30v-150h30zm-75-331c-141.61 0-256 114.425-256 256 0 141.611 114.426 256 256 256 141.611 0 256-114.426 256-256 0-141.611-114.425-256-256-256zm0 482c-124.617 0-226-101.383-226-226s101.383-226 226-226 226 101.383 226 226-101.383 226-226 226z" fill="url(#SVGID_1_)"/></g></g></svg>