<svg id="Capa_1" enable-background="new 0 0 511.873 511.873" height="512" viewBox="0 0 511.873 511.873" width="512" xmlns="http://www.w3.org/2000/svg" xmlns:xlink="http://www.w3.org/1999/xlink"><linearGradient id="SVGID_1_" gradientUnits="userSpaceOnUse" x1="10.559" x2="487.25" y1="486.27" y2="9.579"><stop offset="0" stop-color="#fd5900"/><stop offset="1" stop-color="#ffde00"/></linearGradient><g><g><path d="m490.658 14.839c-1.522-3.992-4.676-7.145-8.668-8.668-6.646-2.535-40.688-14.285-58.38 3.408l-159.099 159.099-10.607-10.607c-5.854-5.854-15.356-5.857-21.213 0l-33.64 33.64c-20.668 20.668-32.683 47.683-34.224 76.65l-59.416 59.416c-8.5 8.5-13.18 19.8-13.18 31.82 0 6.829 1.515 13.425 4.379 19.408l-70.839 70.839c-9.138 9.138-12.604 20.629-9.757 32.356 2.055 8.464 7.208 16.733 15.754 25.28 5.857 5.857 15.354 5.859 21.213 0 5.858-5.858 5.858-15.355 0-21.213-6.09-6.09-7.494-9.822-7.814-11.143-.216-.89-.439-1.811 1.817-4.067l70.839-70.839c5.983 2.864 12.578 4.379 19.408 4.379 12.02 0 23.32-4.681 31.819-13.18l59.416-59.416c28.967-1.541 55.982-13.556 76.651-34.224l33.64-33.64c5.854-5.853 5.858-15.356 0-21.213l-10.607-10.607 74.243-74.243c.001-.001.003-.002.004-.003s.002-.003.003-.004l84.849-84.849c17.693-17.692 5.944-51.734 3.409-58.379zm-206.753 261.725c-16.514 16.513-38.468 25.607-61.82 25.607-3.978 0-7.793 1.58-10.606 4.393l-63.64 63.64c-5.861 5.862-15.349 5.863-21.213 0-5.861-5.861-5.863-15.35 0-21.213l63.64-63.64c2.813-2.813 4.394-6.628 4.394-10.607 0-23.352 9.094-45.307 25.606-61.82l23.033-23.033c8.165 8.165 54.316 54.315 63.64 63.64zm23.032-65.46-21.213-21.213 63.64-63.64 21.213 21.213zm84.853-84.853-21.213-21.213 21.213-21.213 21.213 21.214zm74.184-74.183-31.758 31.757-21.213-21.214 31.757-31.757c2.312-1.538 10.983-1.095 19.948 1.259 2.21 8.492 2.922 17.471 1.266 19.955z" fill="url(#SVGID_1_)"/></g></g></svg>