<svg id="Capa_1" enable-background="new 0 0 512 512" height="512" viewBox="0 0 512 512" width="512" xmlns="http://www.w3.org/2000/svg" xmlns:xlink="http://www.w3.org/1999/xlink"><linearGradient id="SVGID_1_" gradientUnits="userSpaceOnUse" x1="256" x2="256" y1="391" y2="121"><stop offset="0" stop-color="#00b59c"/><stop offset="1" stop-color="#9cffac"/></linearGradient><g><g><path d="m256 181c-41.355 0-75 33.645-75 75s33.645 75 75 75 75-33.645 75-75-33.645-75-75-75zm0 120c-24.813 0-45-20.187-45-45s20.187-45 45-45 45 20.187 45 45-20.187 45-45 45zm241-150h-156.251c-23.186-18.751-52.676-30-84.749-30s-61.563 11.249-84.749 30h-156.251c-8.284 0-15 6.716-15 15v180c0 8.284 6.716 15 15 15h45v15c0 8.284 6.716 15 15 15s15-6.716 15-15v-15h81.251c23.186 18.751 52.676 30 84.749 30s61.563-11.249 84.749-30h81.251v15c0 8.284 6.716 15 15 15s15-6.716 15-15v-15h45c8.284 0 15-6.716 15-15v-180c0-8.284-6.716-15-15-15zm-353.194 180h-113.806v-150h113.806c-14.397 21.466-22.806 47.268-22.806 75s8.409 53.534 22.806 75zm112.194 30c-57.897 0-105-47.103-105-105s47.103-105 105-105 105 47.103 105 105-47.103 105-105 105zm226-30h-113.806c14.397-21.466 22.806-47.268 22.806-75s-8.409-53.534-22.806-75h113.806zm-45-90c8.284 0 15-6.716 15-15s-6.716-15-15-15-15 6.716-15 15 6.716 15 15 15z" fill="url(#SVGID_1_)"/></g></g></svg>