<svg id="Capa_1" enable-background="new 0 0 512 512" height="512" viewBox="0 0 512 512" width="512" xmlns="http://www.w3.org/2000/svg" xmlns:xlink="http://www.w3.org/1999/xlink"><linearGradient id="SVGID_1_" gradientUnits="userSpaceOnUse" x1="256" x2="256" y1="376" y2="136"><stop offset="0" stop-color="#5558ff"/><stop offset="1" stop-color="#00c0ff"/></linearGradient><g><g><path d="m497 136h-482c-8.284 0-15 6.716-15 15v210c0 8.284 6.716 15 15 15h211c5.682 0 10.875-3.21 13.417-8.292l16.583-33.167 16.583 33.167c2.542 5.082 7.735 8.292 13.417 8.292h211c8.284 0 15-6.716 15-15v-210c0-8.284-6.716-15-15-15zm-15 210h-186.729l-25.854-51.708c-2.542-5.082-7.735-8.292-13.417-8.292s-10.875 3.21-13.417 8.292l-25.854 51.708h-186.729v-180h452zm-407-30h113.925c6.078 0 11.554-3.667 13.869-9.287l37.075-90c4.063-9.862-3.201-20.713-13.869-20.713h-151c-8.284 0-15 6.716-15 15v90c0 8.284 6.716 15 15 15zm15-90h113.598l-24.717 60h-88.881zm219.206 80.713c2.314 5.619 7.792 9.287 13.869 9.287h113.925c8.284 0 15-6.716 15-15v-90c0-8.284-6.716-15-15-15h-151c-10.667 0-17.933 10.849-13.869 20.713zm112.794-80.713v60h-88.881l-24.717-60z" fill="url(#SVGID_1_)"/></g></g></svg>