<svg id="Capa_1" enable-background="new 0 0 512 512" height="512" viewBox="0 0 512 512" width="512" xmlns="http://www.w3.org/2000/svg" xmlns:xlink="http://www.w3.org/1999/xlink"><linearGradient id="SVGID_1_" gradientUnits="userSpaceOnUse" x1="256" x2="256" y1="481" y2="31"><stop offset="0" stop-color="#fd5900"/><stop offset="1" stop-color="#ffde00"/></linearGradient><g><g><path d="m91 301c0 66.168 53.832 120 120 120h90c66.168 0 120-53.832 120-120s-53.832-120-120-120h-90c-66.168 0-120 53.832-120 120zm120-90h90c49.626 0 90 40.374 90 90s-40.374 90-90 90h-90c-49.626 0-90-40.374-90-90s40.374-90 90-90zm22.717 147.862 75-45c4.518-2.711 7.283-7.593 7.283-12.862s-2.765-10.151-7.283-12.862l-75-45c-4.633-2.78-10.404-2.854-15.108-.191-4.702 2.662-7.609 7.649-7.609 13.053v90c0 11.646 12.734 18.852 22.717 12.862zm7.283-76.369 30.845 18.507-30.845 18.507zm256-221.493h-310.189l-6.581-19.743c-2.042-6.126-7.773-10.257-14.23-10.257h-151c-8.284 0-15 6.716-15 15v420c0 8.284 6.716 15 15 15h482c8.284 0 15-6.716 15-15v-390c0-8.284-6.716-15-15-15zm-15 390h-452v-390h125.188c2.86 8.58 22.464 67.391 26.582 79.743 2.042 6.126 7.773 10.257 14.23 10.257h286zm0-330h-275.188l-10-30h285.188z" fill="url(#SVGID_1_)"/></g></g></svg>