<svg id="Capa_1" enable-background="new 0 0 512 512" height="512" viewBox="0 0 512 512" width="512" xmlns="http://www.w3.org/2000/svg" xmlns:xlink="http://www.w3.org/1999/xlink"><linearGradient id="SVGID_1_" gradientUnits="userSpaceOnUse" x1="256" x2="256" y1="512" y2="0"><stop offset="0" stop-color="#5558ff"/><stop offset="1" stop-color="#00c0ff"/></linearGradient><g><g><path d="m497 90h-212c-8.278 0-15 6.716-15 15v45h-46.109c-3.994-6.889-8.656-13.342-13.891-19.279v-115.721c0-8.284-6.716-15-15-15h-150c-8.284 0-15 6.716-15 15v115.721c-18.66 21.158-30 48.917-30 79.279s11.34 58.121 30 79.279v207.721c0 8.284 6.716 15 15 15h150c8.284 0 15-6.716 15-15v-207.721c5.236-5.937 9.898-12.39 13.891-19.279h46.109v45c0 8.284 6.716 15 15 15h212c8.284 0 15-6.716 15-15v-210c0-8.284-6.716-15-15-15zm-437-60h120v76.109c-17.661-10.24-38.157-16.109-60-16.109s-42.339 5.869-60 16.109zm120 452h-120v-168.109c17.661 10.24 38.157 16.109 60 16.109s42.339-5.869 60-16.109zm-60-182c-49.626 0-90-40.374-90-90s40.374-90 90-90 90 40.374 90 90-40.374 90-90 90zm150-60h-33.797c2.478-9.592 3.797-19.645 3.797-30s-1.319-20.408-3.797-30h33.797zm212 60h-182v-180h182zm-75-90h30c8.284 0 15-6.716 15-15s-6.716-15-15-15h-30c-8.284 0-15 6.716-15 15s6.716 15 15 15zm-287-60c-33.084 0-60 26.916-60 60s26.916 60 60 60 60-26.916 60-60-26.916-60-60-60zm0 90c-16.542 0-30-13.458-30-30s13.458-30 30-30 30 13.458 30 30-13.458 30-30 30z" fill="url(#SVGID_1_)"/></g></g></svg>