<svg id="Capa_1" enable-background="new 0 0 512 512" height="512" viewBox="0 0 512 512" width="512" xmlns="http://www.w3.org/2000/svg" xmlns:xlink="http://www.w3.org/1999/xlink"><linearGradient id="SVGID_1_" gradientUnits="userSpaceOnUse" x1="256" x2="256" y1="466" y2="46"><stop offset="0" stop-color="#00b59c"/><stop offset="1" stop-color="#9cffac"/></linearGradient><g><g><path d="m497 376h-15v-315c0-8.284-6.716-15-15-15h-422c-8.284 0-15 6.716-15 15v315h-15c-8.284 0-15 6.716-15 15 0 41.355 33.645 75 75 75h362c41.355 0 75-33.645 75-75 0-8.284-6.716-15-15-15zm-437-300h392v300h-392zm377 360h-362c-19.557 0-36.239-12.539-42.43-30h446.86c-6.191 17.461-22.873 30-42.43 30zm-136-330h-90c-66.168 0-120 53.832-120 120s53.832 120 120 120h90c66.168 0 120-53.832 120-120s-53.832-120-120-120zm0 210h-90c-49.626 0-90-40.374-90-90s40.374-90 90-90h90c49.626 0 90 40.374 90 90s-40.374 90-90 90zm7.718-102.862-75-45c-4.636-2.78-10.406-2.853-15.108-.191-4.703 2.662-7.61 7.649-7.61 13.053v90c0 11.708 12.787 18.821 22.718 12.862l75-45c4.517-2.711 7.282-7.593 7.282-12.862s-2.765-10.151-7.282-12.862zm-67.718 31.369v-37.015l30.846 18.508z" fill="url(#SVGID_1_)"/></g></g></svg>