<svg id="Capa_1" enable-background="new 0 0 512 512" height="512" viewBox="0 0 512 512" width="512" xmlns="http://www.w3.org/2000/svg" xmlns:xlink="http://www.w3.org/1999/xlink"><linearGradient id="SVGID_1_" gradientUnits="userSpaceOnUse" x1="256" x2="256" y1="512" y2="0"><stop offset="0" stop-color="#a93aff"/><stop offset="1" stop-color="#ff81ff"/></linearGradient><g><g><path d="m421 255c0-8.284-6.716-15-15-15s-15 6.716-15 15c0 74.439-60.561 135-135 135s-135-60.561-135-135c0-8.284-6.716-15-15-15s-15 6.716-15 15c0 85.925 66.023 156.707 150 164.311v62.689h-75c-8.284 0-15 6.716-15 15s6.716 15 15 15h180c8.284 0 15-6.716 15-15s-6.716-15-15-15h-75v-62.689c83.977-7.604 150-78.386 150-164.311zm-165 105c57.897 0 105-47.103 105-105v-150c0-57.897-47.103-105-105-105s-105 47.103-105 105v150c0 57.897 47.103 105 105 105zm0-30c-36.219 0-66.522-25.808-73.491-60h146.982c-6.969 34.192-37.272 60-73.491 60zm-75-225c0-41.355 33.645-75 75-75s75 33.645 75 75v135h-150zm45 75c-8.284 0-15 6.716-15 15s6.716 15 15 15 15-6.716 15-15-6.716-15-15-15zm60 0c-8.284 0-15 6.716-15 15s6.716 15 15 15 15-6.716 15-15-6.716-15-15-15zm0-60c-8.284 0-15 6.716-15 15s6.716 15 15 15 15-6.716 15-15-6.716-15-15-15zm-60 0c-8.284 0-15 6.716-15 15s6.716 15 15 15 15-6.716 15-15-6.716-15-15-15zm60-60c-8.284 0-15 6.716-15 15s6.716 15 15 15 15-6.716 15-15-6.716-15-15-15zm-60 0c-8.284 0-15 6.716-15 15s6.716 15 15 15 15-6.716 15-15-6.716-15-15-15z" fill="url(#SVGID_1_)"/></g></g></svg>