<svg id="Capa_1" enable-background="new 0 0 512 512" height="512" viewBox="0 0 512 512" width="512" xmlns="http://www.w3.org/2000/svg" xmlns:xlink="http://www.w3.org/1999/xlink"><linearGradient id="SVGID_1_" gradientUnits="userSpaceOnUse" x1="256" x2="256" y1="466" y2="46"><stop offset="0" stop-color="#fd3a84"/><stop offset="1" stop-color="#ffa68d"/></linearGradient><g><g><path d="m497 196h-46v-45c0-41.355-33.645-75-75-75h-270c-8.271 0-15-6.729-15-15 0-8.284-6.716-15-15-15s-15 6.716-15 15c0 24.813 20.187 45 45 45h270c24.813 0 45 20.187 45 45v45h-30v-45c0-8.284-6.716-15-15-15h-240c-8.284 0-15 6.716-15 15v45h-106c-8.284 0-15 6.716-15 15v240c0 8.284 6.716 15 15 15h482c8.284 0 15-6.716 15-15v-240c0-8.284-6.716-15-15-15zm-346-30h210v90h-210zm270 270h-30v-45c0-8.284-6.716-15-15-15s-15 6.716-15 15v45h-30v-45c0-8.284-6.716-15-15-15s-15 6.716-15 15v45h-30v-45c0-8.284-6.716-15-15-15s-15 6.716-15 15v45h-30v-45c0-8.284-6.716-15-15-15s-15 6.716-15 15v45h-30v-45c0-8.284-6.716-15-15-15s-15 6.716-15 15v45h-30v-90h330zm61 0h-31v-105c0-8.284-6.716-15-15-15h-360c-8.284 0-15 6.716-15 15v105h-31v-210h91v45c0 8.284 6.716 15 15 15h240c8.284 0 15-6.716 15-15v-45h91zm-226-240c-8.284 0-15 6.716-15 15s6.716 15 15 15 15-6.716 15-15-6.716-15-15-15zm60 0c-8.284 0-15 6.716-15 15s6.716 15 15 15 15-6.716 15-15-6.716-15-15-15zm-120 0c-8.284 0-15 6.716-15 15s6.716 15 15 15 15-6.716 15-15-6.716-15-15-15z" fill="url(#SVGID_1_)"/></g></g></svg>