<svg id="Capa_1" enable-background="new 0 0 512 512" height="512" viewBox="0 0 512 512" width="512" xmlns="http://www.w3.org/2000/svg" xmlns:xlink="http://www.w3.org/1999/xlink"><linearGradient id="SVGID_1_" gradientUnits="userSpaceOnUse" x1="256" x2="256" y1="512" y2="0"><stop offset="0" stop-color="#fd5900"/><stop offset="1" stop-color="#ffde00"/></linearGradient><g><g><path d="m436 0h-360c-41.906 0-76 34.093-76 76v360c0 41.907 34.094 76 76 76h360c41.906 0 76-34.093 76-76v-360c0-41.907-34.094-76-76-76zm46 436c0 25.364-20.636 46-46 46h-360c-25.364 0-46-20.636-46-46v-360c0-25.364 20.636-46 46-46h360c25.364 0 46 20.636 46 46zm-228.03-315.961c-71.135 0-134.97 55.284-134.97 134.971 0 74.495 60.385 134.99 134.989 134.99 78.793 0 134.971-62.939 134.971-134.97.001-74.884-60.788-134.991-134.99-134.991zm.151 239.935c-58.166 0-105.095-46.915-105.095-105.095 0-58.074 45.674-104.814 104.815-104.814 58.166 0 105.094 46.918 105.094 105.095 0 61.244-48.507 104.814-104.814 104.814zm195.879-254.974c0-24.813-20.187-45-45-45-12.229 0-23.658 4.815-32.198 13.563l-15.594 15.593c-30.816-19.113-65.895-29.156-102.208-29.156s-71.392 10.043-102.208 29.157l-15.594-15.593c-8.54-8.749-19.969-13.564-32.198-13.564-24.813 0-45 20.187-45 45 0 12.229 4.815 23.658 13.563 32.199l15.593 15.593c-19.113 30.817-29.156 65.896-29.156 102.208s10.043 71.391 29.156 102.208l-15.593 15.593c-8.748 8.541-13.563 19.97-13.563 32.199 0 24.813 20.187 45 45 45 12.229 0 23.658-4.815 32.198-13.563l15.594-15.593c30.816 19.113 65.896 29.156 102.208 29.156s71.392-10.043 102.208-29.157l15.594 15.593c8.54 8.749 19.969 13.564 32.198 13.564 24.813 0 45-20.187 45-45 0-12.229-4.815-23.658-13.563-32.199l-15.593-15.593c19.113-30.815 29.156-65.894 29.156-102.208s-10.043-71.393-29.156-102.208l15.593-15.593c8.748-8.541 13.563-19.97 13.563-32.199zm-60.662 54.574c20.059 28.146 30.662 61.144 30.662 95.426s-10.603 67.28-30.662 95.426c-4.252 5.967-3.571 14.131 1.609 19.312 0 0 24.449 24.448 24.501 24.499 2.936 2.851 4.552 6.674 4.552 10.763 0 8.271-6.729 15-15 15-4.09 0-7.912-1.616-10.763-4.552-.051-.052-24.499-24.501-24.499-24.501-5.203-5.204-13.373-5.841-19.312-1.609-28.148 20.059-61.146 30.662-95.426 30.662s-67.278-10.603-95.427-30.662c-5.966-4.253-14.131-3.571-19.312 1.609 0 0-24.448 24.449-24.499 24.501-2.85 2.936-6.672 4.552-10.762 4.552-8.271 0-15-6.729-15-15 0-4.089 1.616-7.912 4.552-10.763.052-.051 24.501-24.499 24.501-24.499 5.181-5.18 5.861-13.345 1.609-19.312-20.059-28.148-30.662-61.146-30.662-95.426s10.603-67.278 30.662-95.427c4.252-5.966 3.571-14.131-1.609-19.312 0 0-24.449-24.448-24.501-24.499-2.936-2.85-4.552-6.673-4.552-10.762 0-8.271 6.729-15 15-15 4.09 0 7.912 1.616 10.763 4.552.051.052 24.499 24.501 24.499 24.501 5.179 5.181 13.345 5.862 19.312 1.609 28.148-20.059 61.146-30.662 95.426-30.662s67.278 10.603 95.427 30.662c5.967 4.253 14.132 3.572 19.312-1.609 0 0 24.448-24.449 24.499-24.501 2.85-2.936 6.672-4.552 10.762-4.552 8.271 0 15 6.729 15 15 0 4.089-1.616 7.912-4.552 10.763-.052.051-24.501 24.499-24.501 24.499-5.18 5.18-5.861 13.345-1.609 19.312zm-134.338 50.426c-24.813 0-45 20.187-45 45s20.187 45 45 45 45-20.187 45-45-20.187-45-45-45zm0 60c-8.271 0-15-6.729-15-15s6.729-15 15-15 15 6.729 15 15-6.729 15-15 15z" fill="url(#SVGID_1_)"/></g></g></svg>