<svg id="Capa_1" enable-background="new 0 0 514 514" height="512" viewBox="0 0 514 514" width="512" xmlns="http://www.w3.org/2000/svg" xmlns:xlink="http://www.w3.org/1999/xlink"><linearGradient id="SVGID_1_" gradientUnits="userSpaceOnUse" x1="257" x2="257" y1="513.001" y2="1"><stop offset="0" stop-color="#00b59c"/><stop offset="1" stop-color="#9cffac"/></linearGradient><g><g><path d="m499 31h-227v-15c0-8.284-6.716-15-15-15s-15 6.716-15 15v15h-227c-8.284 0-15 6.715-15 15s6.716 15 15 15h15v255c0 8.284 6.716 15 15 15h197v98.972l-83.32 55.547c-6.894 4.596-8.756 13.909-4.16 20.801 4.617 6.926 13.94 8.735 20.801 4.161l81.679-54.454 81.68 54.453c6.882 4.586 16.198 2.745 20.801-4.161 4.596-6.893 2.733-16.206-4.16-20.801l-83.321-55.546v-98.972h197c8.284 0 15-6.716 15-15v-255h15c8.284 0 15-6.716 15-15s-6.716-15-15-15zm-45 270h-394v-240h394zm-249.886-62.241c4.431 2.738 9.953 2.977 14.594.657l90-45c5.082-2.541 8.292-7.735 8.292-13.416s-3.21-10.875-8.292-13.417l-90-45c-4.651-2.326-10.174-2.076-14.594.657-4.423 2.733-7.114 7.561-7.114 12.76v90c0 5.198 2.691 10.026 7.114 12.759zm22.886-78.489 41.459 20.73-41.459 20.729z" fill="url(#SVGID_1_)"/></g></g></svg>