<svg id="Layer_5" enable-background="new 0 0 64 64" height="512" viewBox="0 0 64 64" width="512" xmlns="http://www.w3.org/2000/svg" xmlns:xlink="http://www.w3.org/1999/xlink"><linearGradient id="SVGID_1_" gradientUnits="userSpaceOnUse" x1="32" x2="32" y1="63" y2="1"><stop offset="0" stop-color="#9f2fff"/><stop offset="1" stop-color="#0bb1d3"/></linearGradient><path d="m47 24.999c0 .552-.448 1-1 1s-1-.448-1-1 .448-1 1-1 1 .448 1 1zm10.399 32.001h5.601v6h-62v-6h13.48c-.296-.542-.48-1.154-.48-1.813v-3.12l-1.967-14.749c-.022-.167-.033-.336-.033-.505 0-2.102 1.711-3.813 3.813-3.813h3.033l3 18h12.148.005.382l.188-.376c.502-1.002 1.509-1.624 2.628-1.624.773 0 1.53.313 2.077.86l1.14 1.14h.586v-6.615c0-3.452 1.941-6.535 5-8.035v-1.601c-.633-.214-1.22-.556-1.707-1.042-.802-.802-1.257-1.858-1.291-2.986l-3.002-1.001v-.72c0-3.421 1.29-6.363 2.233-8.06-2.38-.299-4.233-2.312-4.233-4.771 0-1.688.899-3.275 2.347-4.143l4.207-2.525.521 1.563c.387 1.158 1.466 1.936 2.686 1.936h1.705c5.808 0 10.534 4.726 10.534 10.534 0 3.136-1.382 6.085-3.79 8.093l-2.21 1.842v.854l.6.24c2.673 1.069 4.4 3.62 4.4 6.5l.001 11.877c0 1.521-.571 2.952-1.602 4.06zm-4.399-11.6v7.6h-12v4h11.884c1.097 0 2.133-.432 2.917-1.215.787-.787 1.2-1.785 1.2-2.846l-.001-11.877c0-.851-.211-1.662-.595-2.375-2.12 1.554-3.405 4.05-3.405 6.713zm-10.169-26.4h.669 7.5c1.654 0 3 1.346 3 3v1.171c1.164.413 2 1.525 2 2.829v.171c0 .801-.313 1.555-.879 2.121l-.828.829c-.187.186-.293.443-.293.707v1.037l.929-.774c1.952-1.627 3.071-4.016 3.071-6.557 0-4.705-3.828-8.534-8.534-8.534h-1.705c-1.801 0-3.421-.993-4.253-2.539l-2.133 1.28c-.849.509-1.375 1.439-1.375 2.428 0 1.561 1.27 2.831 2.831 2.831zm2.876 13.292c.456.456 1.063.708 1.707.708h2.586v2h-2v1.586l1 1 3-3v-4.758c0-.801.312-1.555.879-2.121l.828-.829c.189-.189.293-.44.293-.707v-.171c0-.551-.448-1-1-1h-1v-3c0-.551-.448-1-1-1h-6-.472c-.659 1.02-2.298 3.874-2.506 7.286l2.978.993v1.306c0 .645.251 1.251.707 1.707zm-2.707 18.708h8v-5.6c0-3.259 1.552-6.317 4.12-8.25-.376-.298-.8-.546-1.263-.731l-.617-.247-4.24 4.242-2.204-2.204c-2.319 1.181-3.796 3.531-3.796 6.175zm-8 2h-1.002c-.551.001-.998.449-.998 1v2c0 .551.446 1 .995 1h5.005v-4.586l-1.14-1.14c-.427-.426-1.231-.296-1.501.244l-.741 1.482zm-21-16.187c0 .08.005.159.016.238l1.859 13.949h3.944l-2.666-16h-1.34c-1 0-1.813.813-1.813 1.813zm3.813 20.187h13.371c-.112-.314-.184-.648-.184-1v-2c0-.352.072-.685.184-1h-15.184v2.187c0 1 .813 1.813 1.813 1.813zm43.187 2h-26-17.187-14.813v2h58zm-38-54h-18v2h18zm-2 6h2v-2h-2zm-2-2h-14v2h14zm4 4h-18v2h18zm-22 3v-12c0-1.654 1.346-3 3-3h20c1.654 0 3 1.346 3 3v12c0 1.654-1.346 3-3 3h-1v1.465c0 1.398-1.138 2.535-2.535 2.535-.502 0-.988-.147-1.406-.426l-5.362-3.574h-9.697c-1.654 0-3-1.346-3-3zm2 0c0 .551.448 1 1 1h10.303l5.865 3.91c.331.221.832-.044.832-.445v-3.465h3c.552 0 1-.449 1-1v-12c0-.551-.448-1-1-1h-20c-.552 0-1 .449-1 1zm31 13h-8v2h8zm-9-4h10c1.654 0 3 1.346 3 3v4c0 1.654-1.346 3-3 3h-3.586l-3.293 3.293c-.448.449-1.07.707-1.707.707-1.331 0-2.414-1.083-2.414-2.414v-1.757c-1.164-.413-2-1.525-2-2.829v-4c0-1.654 1.346-3 3-3zm10 2h-10c-.552 0-1 .449-1 1v4c0 .551.448 1 1 1h1v3.586c-.001.338.47.53.706.293l3.88-3.879h4.414c.552 0 1-.449 1-1v-4c0-.551-.448-1-1-1z" fill="url(#SVGID_1_)"/></svg>