<svg id="Layer_5" enable-background="new 0 0 64 64" height="512" viewBox="0 0 64 64" width="512" xmlns="http://www.w3.org/2000/svg" xmlns:xlink="http://www.w3.org/1999/xlink"><linearGradient id="SVGID_1_" gradientUnits="userSpaceOnUse" x1="32" x2="32" y1="63" y2="1"><stop offset="0" stop-color="#9f2fff"/><stop offset="1" stop-color="#0bb1d3"/></linearGradient><path d="m9 27h8v-8h-8zm2-6h4v4h-4zm-2 8h8v2h-8zm0 4h8v2h-8zm0 4h8v2h-8zm52.504-26.676c.909-.413 1.496-1.325 1.496-2.324s-.587-1.911-1.497-2.324l-10.286-4.676h-43.217c-3.86 0-7 3.141-7 7 0 3.772 3.001 6.849 6.741 6.987-1.676 1.467-2.741 3.616-2.741 6.013v34h-1c-1.654 0-3 1.346-3 3v2c0 1.654 1.346 3 3 3h56c1.654 0 3-1.346 3-3v-2c0-1.654-1.346-3-3-3h-12.024c.442-.584.772-1.257.923-2h14.101v-24h-4v-4h-10v-4c0-2.39-1.059-4.533-2.726-6h4.943zm-13.807-1.324h-34.697v-2h34.697l1.5 1zm-.197-4h-34.5v-2h36zm13.5 3c0 .217-.127.414-.324.504l-9.359 4.253-1.883-2.511 3.369-2.246-3.369-2.246 1.883-2.511 9.358 4.253c.198.09.325.287.325.504zm-58 0c0-2.757 2.243-5 5-5h3v10h-3c-2.757 0-5-2.243-5-5zm30 13v4h-2.556c.344-.591.556-1.268.556-2 0-2.206-1.794-4-4-4s-4 1.794-4 4 1.794 4 4 4c.732 0 1.409-.212 2-.556v2.556h-4v24h8v2h-12v-34c0-3.309 2.691-6 6-6s6 2.691 6 6zm-.726-6h3.453c-.69.607-1.278 1.326-1.726 2.136-.45-.81-1.037-1.529-1.727-2.136zm8.726 10c-1.103 0-2-.897-2-2s.897-2 2-2 2 .897 2 2-.897 2-2 2zm-1 2c1.654 0 3 1.346 3 3v17h-12v-20zm-13-2c-1.103 0-2-.897-2-2s.897-2 2-2 2 .897 2 2-.897 2-2 2zm12.101 28c.151.743.481 1.416.923 2h-5.024v-2zm-19.101-35.864c-.449-.809-1.036-1.529-1.726-2.136h3.453c-.691.607-1.278 1.326-1.727 2.136zm-13 3.864c0-3.309 2.691-6 6-6s6 2.691 6 6v34h-12zm54 37v2c0 .552-.449 1-1 1h-56c-.551 0-1-.448-1-1v-2c0-.552.449-1 1-1h56c.551 0 1 .448 1 1zm0-27v20h-14v1c0 1.654-1.346 3-3 3s-3-1.346-3-3v-1h-14v-20h2v18h14 2 14v-18zm-4 16h-12v-17c0-1.654 1.346-3 3-3h9zm-10-26v4.101c-1.226.25-2.278.96-3 1.93-.208-.28-.446-.533-.707-.763 1.029-.725 1.707-1.916 1.707-3.268 0-2.206-1.794-4-4-4s-4 1.794-4 4c0 .732.212 1.409.556 2h-2.556v-4c0-3.309 2.691-6 6-6s6 2.691 6 6zm-34-8v-2h34.5l1.5 2zm28 16h-8v6h8zm-2 4h-4v-2h4zm8 2h8v-6h-8zm2-4h4v2h-4zm-8 8h-8v-2h8zm0 4h-8v-2h8zm6 2h8v-8h-8zm2-6h4v4h-4z" fill="url(#SVGID_1_)"/></svg>