<svg id="Layer_5" enable-background="new 0 0 64 64" height="512" viewBox="0 0 64 64" width="512" xmlns="http://www.w3.org/2000/svg" xmlns:xlink="http://www.w3.org/1999/xlink"><linearGradient id="SVGID_1_" gradientUnits="userSpaceOnUse" x1="32" x2="32" y1="63" y2="1"><stop offset="0" stop-color="#9f2fff"/><stop offset="1" stop-color="#0bb1d3"/></linearGradient><path d="m61 12.783-4.676-10.287c-.413-.909-1.325-1.496-2.324-1.496s-1.911.587-2.324 1.497l-4.676 10.286v2.217h-16.051c.026-.331.051-.662.051-1 0-7.168-5.832-13-13-13s-13 5.832-13 13c0 .37.025.733.056 1.096-2.306.443-4.056 2.471-4.056 4.904v26c0 2.757 2.243 5 5 5h13.963c-.168 1.595-.997 3.041-2.296 4h-.667c-2.757 0-5 2.243-5 5 0 1.654 1.346 3 3 3h26c1.654 0 3-1.346 3-3 0-2.757-2.243-5-5-5h-.666c-1.299-.959-2.128-2.405-2.296-4h8.962v3c0 4.963 4.038 9 9 9s9-4.037 9-9v-8c0-1.902-.765-3.627-2-4.889zm0 38.217h-14v-5c0-2.414 1.721-4.434 4-4.899v4.899c0 1.654 1.346 3 3 3s3-1.346 3-3v-4.899c2.279.465 4 2.484 4 4.899zm-8-37v25h-1c-1.075 0-2.089.251-3 .685v-25.685zm6 25.685c-.911-.434-1.925-.685-3-.685h-1v-25h4zm-6 1.315h2v5c0 .552-.449 1-1 1s-1-.448-1-1zm.497-37.676c.18-.395.827-.394 1.007 0l3.943 8.676h-8.894zm-35.497-.324c1.075 0 2.22 1.527 3.009 4h-6.018c.789-2.473 1.934-4 3.009-4zm3.519 6c.244 1.209.408 2.553.46 4h-7.958c.052-1.447.217-2.791.46-4zm7.43 4h-4.971c-.046-1.419-.184-2.763-.409-4h4.217c.626 1.221 1.034 2.57 1.163 4zm-6.97 2c-.052 1.447-.217 2.791-.46 4h-7.038c-.244-1.209-.408-2.553-.46-4zm-9.957-2h-4.971c.13-1.43.537-2.779 1.164-4h4.217c-.226 1.237-.365 2.581-.41 4zm0 2c.046 1.419.184 2.763.409 4h-4.217c-.626-1.221-1.034-2.57-1.164-4zm.873 6c.368 1.295.838 2.422 1.391 3.341-1.874-.675-3.518-1.834-4.764-3.341zm2.096 0h6.018c-.789 2.473-1.935 4-3.009 4s-2.22-1.527-3.009-4zm8.114 0h3.374c-1.246 1.507-2.891 2.666-4.764 3.341.552-.919 1.022-2.046 1.39-3.341zm4.681-2h-4.217c.225-1.237.364-2.581.409-4h4.971c-.129 1.43-.537 2.779-1.163 4zm-1.307-12h-3.374c-.368-1.295-.838-2.422-1.391-3.341 1.874.675 3.518 1.834 4.765 3.341zm-12.193-3.341c-.553.919-1.023 2.046-1.391 3.341h-3.374c1.247-1.507 2.891-2.666 4.765-3.341zm-8.906 13.407c1.384 5.691 6.509 9.934 12.62 9.934 6.134 0 11.277-4.276 12.637-10h16.363v24h-44v-21c0-1.442 1.023-2.648 2.38-2.934zm36.62 42.934c0 .552-.449 1-1 1h-26c-.551 0-1-.448-1-1 0-1.654 1.346-3 3-3h22c1.654 0 3 1.346 3 3zm-6.471-5h-15.058c.858-1.155 1.378-2.536 1.492-4h12.075c.114 1.464.634 2.845 1.491 4zm-29.529-6c-1.654 0-3-1.346-3-3v-3h42.685c-.434.911-.685 1.926-.685 3v3zm48 12c-3.86 0-7-3.141-7-7v-1h14v1c0 3.859-3.14 7-7 7zm-39-16h2v2h-2zm-4 0h2v2h-2zm-4 0h2v2h-2zm38-24h-13v-2h13zm0 4h-13v-2h13zm0 4h-13v-2h13zm0 4h-13v-2h13zm0 4h-13v-2h13zm-34 2h10v-8h-6v-4h-10v8h6zm8-6v4h-6v-2h2v-2zm-12-4h6v4h-6z" fill="url(#SVGID_1_)"/></svg>