<svg id="Layer_5" enable-background="new 0 0 64 64" height="512" viewBox="0 0 64 64" width="512" xmlns="http://www.w3.org/2000/svg" xmlns:xlink="http://www.w3.org/1999/xlink"><linearGradient id="SVGID_1_" gradientUnits="userSpaceOnUse" x1="32" x2="32" y1="63" y2="1"><stop offset="0" stop-color="#9f2fff"/><stop offset="1" stop-color="#0bb1d3"/></linearGradient><path d="m41 59h-2v-2h2zm-6 0h2v-2h-2zm0-8h2v-2h-2zm6-2h-2v2h2zm19.969-3c1.225.912 2.031 2.359 2.031 4s-.806 3.088-2.031 4c1.225.912 2.031 2.359 2.031 4 0 2.757-2.243 5-5 5h-18-2-10v-2c1.654 0 3-1.346 3-3s-1.346-3-3-3v-2c1.302 0 2.402-.839 2.816-2h-21.816-2-6v-11.61c0-2.453.955-4.76 2.69-6.494 1.177-1.178 2.652-2.013 4.267-2.416l5.219-1.304.599-2.396c-1.715-1.073-2.991-2.773-3.511-4.78h-.264c-2.206 0-4-1.794-4-4-1.247-.938-2-2.417-2-4 0-1.629.783-3.118 2.088-4.048-.06-.327-.088-.639-.088-.952 0-3.309 2.691-6 6-6 .61 0 1.214.098 1.805.292.905-1.418 2.463-2.292 4.195-2.292s3.29.874 4.195 2.292c.591-.194 1.195-.292 1.805-.292 3.309 0 6 2.691 6 6 0 .313-.028.625-.088.952 1.305.93 2.088 2.419 2.088 4.048 0 1.583-.753 3.063-2 4 0 2.206-1.794 4-4 4h-.263c-.52 2.007-1.796 3.708-3.511 4.78l.599 2.396 5.219 1.305c1.614.402 3.09 1.237 4.267 2.415 1.145 1.145 1.931 2.557 2.347 4.104h3.342 1.781c-.836-.604-1.603-1.327-2.265-2.18-2.098-2.699-2.919-6.199-2.252-9.605.658-3.359 2.467-5.965 5.094-7.336 1.523-.792 3.353-.527 4.583.656-.372-5.078-2.595-9.535-4.941-9.535v-2c1.964 0 3.62 1.489 4.831 3.707 1.183-2.21 3.51-3.707 6.169-3.707h7v1c0 3.859-3.141 7-7 7h-4.584c.273 1.169.456 2.39.535 3.618.015-.013.035-.018.049-.032l.004-.004c1.197-1.2 2.988-1.518 4.455-.795 3.47 1.708 5.541 5.526 5.541 10.213 0 3.055-1.223 5.894-3.443 7.993-.394.372-.815.701-1.249 1.007h5.692c2.757 0 5 2.243 5 5 0 1.641-.806 3.088-2.031 4zm-14.869-33h4.9c2.415 0 4.435-1.721 4.899-4h-4.899c-2.404 0-4.436 1.708-4.9 4zm-.621 23.985c2.514.136 4.887-.729 6.703-2.445 1.817-1.718 2.818-4.04 2.818-6.54 0-3.907-1.654-7.055-4.425-8.419-.688-.339-1.574-.169-2.157.415l-.004.004c-1.289 1.289-3.539 1.289-4.828 0-.378-.377-.876-.574-1.384-.574-.313 0-.627.074-.919.227-2.077 1.084-3.518 3.196-4.057 5.947-.556 2.838.125 5.751 1.867 7.993 1.592 2.046 3.86 3.251 6.386 3.392zm-7.479 2.015h-6.026c.635.838 1.026 1.87 1.026 3s-.391 2.162-1.026 3h6.026 2c1.654 0 3-1.346 3-3s-1.346-3-3-3zm-10.18-6.495-.901 7.204-2.919 1.168 1.122 4.489-4.36 3.634h10.053c-.414-1.161-1.514-2-2.816-2v-2c1.654 0 3-1.346 3-3s-1.346-3-3-3v-2h4.584c-.354-1.007-.922-1.924-1.689-2.69-.854-.856-1.916-1.469-3.074-1.805zm-17.688-.508.787 6.294 1.992.796-2.628-7.128zm6.663 3.892.74 1.111h.929l.741-1.111-1.205-.723zm8.922-3.929-2.628 7.127 1.992-.796.786-6.293zm-9.428 10.509 1.711 4.64 1.711-4.64-1.388-3.469h-.646zm3.943 4.37 2.646-2.205-.741-2.964zm1.373-9.509-.683-.41-.798 1.198.62 1.549zm-7.21 0 .862 2.337.62-1.549-.798-1.198zm-1.273 7.304 2.646 2.205-1.906-5.169zm9.185-13.527-2.694 2.694 2.697 1.618 1.455-3.948zm-1.307-16.107h1 2v-.556c-.591.344-1.268.556-2 .556-1.474 0-2.75-.81-3.444-2h-.466c-1.477 0-2.853-.536-3.922-1.463-1.311.675-2.129 1.991-2.162 3.463h2.994c.737 0 1.375.405 1.722 1h2.557c.346-.595.984-1 1.721-1zm-9 4h3.002l-.002-2h-3zm9 0h3v-2h-3zm7-1c0-1.103-.897-2-2-2v1 2 1c1.103 0 2-.897 2-2zm-21.348-2.176c.714-1.095 1.945-1.824 3.348-1.824h.11c.306-1.676 1.306-3.134 2.784-4.027-.056-.097-.12-.188-.17-.289l-.618-1.236 1.789-.895.618 1.236c.668 1.337 2 2.172 3.487 2.205v-1.994h2v2c0 1.103.897 2 2 2s2-.897 2-2-.897-2-2-2v-2c2.206 0 4 1.794 4 4v3c1.403 0 2.634.729 3.349 1.825.401-.519.651-1.148.651-1.825 0-1.137-.643-2.162-1.677-2.676l-.756-.375.242-.808c.13-.433.191-.795.191-1.141 0-2.206-1.794-4-4-4-.612 0-1.224.155-1.816.46l-.992.511-.4-1.041c-.45-1.172-1.546-1.93-2.792-1.93s-2.342.758-2.792 1.93l-.399 1.041-.993-.511c-.592-.305-1.204-.46-1.816-.46-2.206 0-4 1.794-4 4 0 .346.061.708.19 1.142l.242.808-.756.375c-1.033.513-1.676 1.538-1.676 2.675 0 .676.25 1.305.652 1.824zm3.348 4.176v-1-2-1c-1.103 0-2 .897-2 2s.897 2 2 2zm8 6c2.967 0 5.431-2.167 5.91-5h-2.91c-1.103 0-2-.897-2-2v-1h-2v1c0 1.103-.897 2-2 2h-2.91c.479 2.833 2.943 5 5.91 5zm-2.38 1.638-.513 2.054 2.893 2.894 2.893-2.893-.513-2.055c-.752.235-1.552.362-2.38.362s-1.628-.127-2.38-.362zm-3.385 3.834 1.456 3.948 2.697-1.618-2.694-2.694zm-3.235 10.528v7h6.238l-4.36-3.634 1.122-4.489-2.919-1.168-.901-7.205c-1.158.337-2.22.949-3.076 1.805-1.357 1.358-2.104 3.162-2.104 5.081v9.61h4v-7zm22.974 11h6.026 2c1.654 0 3-1.346 3-3s-1.346-3-3-3h-2-6.026c.635.838 1.026 1.87 1.026 3s-.391 2.162-1.026 3zm8.026 8c1.654 0 3-1.346 3-3s-1.346-3-3-3h-2-6.026c.635.838 1.026 1.87 1.026 3s-.391 2.162-1.026 3h6.026zm18-6h-14.026c.635.838 1.026 1.87 1.026 3s-.391 2.162-1.026 3h14.026c1.654 0 3-1.346 3-3s-1.346-3-3-3zm0-8h-14.026c.635.838 1.026 1.87 1.026 3s-.391 2.162-1.026 3h14.026c1.654 0 3-1.346 3-3s-1.346-3-3-3zm3-5c0-1.654-1.346-3-3-3h-14.026c.635.838 1.026 1.87 1.026 3s-.391 2.162-1.026 3h14.026c1.654 0 3-1.346 3-3zm-24-1h-2v2h2zm4 0h-2v2h2zm5-8c-2.757 0-5-2.243-5-5h-2c0 3.859 3.141 7 7 7z" fill="url(#SVGID_1_)"/></svg>