<svg id="Layer_5" enable-background="new 0 0 64 64" height="512" viewBox="0 0 64 64" width="512" xmlns="http://www.w3.org/2000/svg" xmlns:xlink="http://www.w3.org/1999/xlink"><linearGradient id="SVGID_1_" gradientUnits="userSpaceOnUse" x1="32" x2="32" y1="63" y2="1"><stop offset="0" stop-color="#9f2fff"/><stop offset="1" stop-color="#0bb1d3"/></linearGradient><path d="m9 15h-2c-1.103 0-2 .897-2 2v6c0 1.103.897 2 2 2h2c1.103 0 2-.897 2-2v-6c0-1.103-.897-2-2-2zm0 8-2 .001v-6.001h2zm0-18h-2c-1.103 0-2 .897-2 2v2c0 1.103.897 2 2 2h2c1.103 0 2-.897 2-2v-2c0-1.103-.897-2-2-2zm0 4-2 .001v-2.001h2zm0 20h-2c-1.103 0-2 .897-2 2v2c0 1.103.897 2 2 2h2c1.103 0 2-.897 2-2v-2c0-1.103-.897-2-2-2zm0 4-2 .002v-2.002h2zm49-14c.552 0 1 .448 1 1s-.448 1-1 1-1-.448-1-1 .448-1 1-1zm1 15c0 .552-.448 1-1 1s-1-.448-1-1 .448-1 1-1 1 .448 1 1zm-1-33h-52c-2.757 0-5 2.243-5 5v28c0 2.757 2.243 5 5 5h3.165c-1.368 2.357-2.165 5.084-2.165 8 0 8.822 7.178 16 16 16s16-7.178 16-16c0-2.916-.797-5.643-2.165-8h21.165c2.757 0 5-2.243 5-5v-28c0-2.757-2.243-5-5-5zm3 5v9h-3c-1.13 0-2.162.391-3 1.026v-13.026h3c1.654 0 3 1.346 3 3zm0 11v6h-3c-1.654 0-3-1.346-3-3s1.346-3 3-3zm-55 20c-1.654 0-3-1.346-3-3v-28c0-1.654 1.346-3 3-3h7v31.53c-.911.732-1.738 1.56-2.47 2.47zm17 24c-7.72 0-14-6.28-14-14s6.28-14 14-14 14 6.28 14 14-6.28 14-14 14zm7.729-28h7.456c.414 1.161 1.514 2 2.816 2s2.402-.839 2.816-2h7.183v-2h-7.184c-.414-1.161-1.514-2-2.816-2s-2.402.839-2.816 2h-15.184c-2.916 0-5.643.797-8 2.165v-30.165h38v34h-17.53c-1.303-1.621-2.911-2.985-4.741-4zm9.271-1c0-.551.448-1 1-1s1 .449 1 1-.448 1-1 1-1-.449-1-1zm18 5h-3v-13.026c.838.635 1.87 1.026 3 1.026h3v9c0 1.654-1.346 3-3 3zm-26.516 7.684-14.793-6.473c-.322-.14-.662-.211-1.011-.211-1.478 0-2.68 1.202-2.68 2.68v12.64c0 1.478 1.202 2.68 2.68 2.68.35 0 .689-.071 1.014-.212l14.791-6.472c.92-.402 1.515-1.311 1.515-2.316s-.595-1.914-1.516-2.316zm-.8 2.8-14.789 6.471c-.422.182-.895-.187-.895-.635v-12.64c0-.375.305-.68.68-.68.072 0 .146.016.213.044l14.791 6.472c.192.084.316.274.316.484s-.124.4-.316.484zm.693-33.821c.991-.914 1.623-2.212 1.623-3.663 0-2.757-2.243-5-5-5s-5 2.243-5 5c0 1.451.632 2.749 1.623 3.663-3.293 1.339-5.623 4.569-5.623 8.337v5h18v-5c0-3.768-2.33-6.998-5.623-8.337zm-6.377-3.663c0-1.654 1.346-3 3-3s3 1.346 3 3-1.346 3-3 3-3-1.346-3-3zm10 15h-14v-3c0-3.86 3.141-7 7-7s7 3.14 7 7zm4-20v10h12v-10zm10 8h-8v-6h8zm-10 14h12v-10h-12zm2-8h8v6h-8z" fill="url(#SVGID_1_)"/></svg>