<svg id="Layer_5" enable-background="new 0 0 64 64" height="512" viewBox="0 0 64 64" width="512" xmlns="http://www.w3.org/2000/svg" xmlns:xlink="http://www.w3.org/1999/xlink"><linearGradient id="SVGID_1_" gradientUnits="userSpaceOnUse" x1="32" x2="32" y1="63" y2="1"><stop offset="0" stop-color="#9f2fff"/><stop offset="1" stop-color="#0bb1d3"/></linearGradient><path d="m11 43h-2v-2h2zm4-2h-2v2h2zm4 0h-2v2h2zm16 0h-2v2h2zm-28 0h-2v2h2zm32 0h-2v2h2zm-12 0h-2v2h2zm4 0h-2v2h2zm-8 0h-2v2h2zm4 4h-2v2h2zm8 0h-2v2h2zm-20 0h-2v2h2zm-4 0h-2v2h2zm12 0h-2v2h2zm-16 0h-2v2h2zm24 0h-2v2h2zm-12 0h-2v2h2zm20 0h-2v2h2zm-28 4h-2v2h2zm12 0h-2v2h2zm-16 2v-2h-2v2zm28-2h-2v2h2zm-4 0h-2v2h2zm-16 0h-2v2h2zm4 0h-2v2h2zm20 0h-2v2h2zm-12 0h-2v2h2zm22 2h-8v-10h8zm-6-8v2h4v-2zm4 6v-2h-4v2zm16-39v10c0 1.654-1.346 3-3 3h-7v7h7c1.654 0 3 1.346 3 3s-1.346 3-3 3h-2c-.551 0-1 .448-1 1v10h1c2.757 0 5 2.243 5 5v4c0 3.859-3.14 7-7 7-2.785 0-5.189-1.639-6.315-4h-43.685c-2.757 0-5-2.243-5-5v-38c0-2.757 2.243-5 5-5h9.184c.121-.339.301-.647.528-.917-.465-.885-.712-1.862-.712-2.872 0-3.425 2.786-6.211 6.211-6.211h7.578c3.425 0 6.211 2.786 6.211 6.211 0 1.01-.247 1.987-.712 2.872.227.271.407.578.528.917h4.184v-1c0-1.654 1.346-3 3-3h1.08c.488-3.386 3.401-6 6.92-6s6.432 2.614 6.92 6h3.08c1.654 0 3 1.346 3 3zm-18-2c0 1.075.355 2.141 1 2.999l1.5 2.001h1.5v-2.184c-1.161-.414-2-1.514-2-2.816 0-1.654 1.346-3 3-3s3 1.346 3 3c0 1.302-.839 2.402-2 2.816v2.184h1.5l1.5-2c.646-.859 1-1.925 1-3 0-2.757-2.243-5-5-5s-5 2.243-5 5zm3 8c0 .552.449 1 1 1h2c.551 0 1-.448 1-1v-1h-4zm2-7c.551 0 1-.448 1-1s-.449-1-1-1-1 .448-1 1 .449 1 1 1zm-7 15.586v-1.586h-1c-1.654 0-3-1.346-3-3v-3h-8.816c-.317.545-.718 1.034-1.184 1.453v1.701l4.301.717c.669.11 1.319.322 1.929.627 2.325 1.162 3.77 3.499 3.77 6.1v5.402h8v-6.608c-.438.383-1.003.608-1.586.608-1.331 0-2.414-1.083-2.414-2.414zm-9 2.414v6h3v-5.403c0-1.838-1.021-3.489-2.665-4.311-.431-.216-.889-.365-1.362-.443l-4.446-.741c-.778 1.18-2.086 1.898-3.527 1.898s-2.749-.718-3.528-1.898l-4.445.741c-.474.078-.932.228-1.363.443-1.643.821-2.664 2.473-2.664 4.311v5.403h3v-6h2v6h14v-6zm-17-15c0 .552.449 1 1 1h1v-2h-1c-.551 0-1 .448-1 1zm2.816 5h-12.816v16h4v-5.403c0-2.601 1.445-4.938 3.77-6.1.61-.305 1.259-.517 1.93-.627l4.3-.717v-1.701c-.466-.418-.867-.907-1.184-1.452zm7.184 2.643c-.627.223-1.298.35-2 .35s-1.373-.128-2-.35v1.121c.381.762 1.147 1.236 2 1.236s1.619-.474 2-1.236zm2-5.65v-3.043c-1.466-.153-2.843-.712-4-1.622-1.157.91-2.534 1.469-4 1.622v3.043c0 2.206 1.794 4 4 4s4-1.794 4-4zm2-.993h1c.551 0 1-.448 1-1s-.449-1-1-1h-1zm8 0h-4.184c-.414 1.161-1.514 2-2.816 2h7zm-22-5.789c0 .646.152 1.272.435 1.846.183-.035.371-.057.565-.057h1v-.007h1.171c1.557 0 3.021-.606 4.122-1.707l.707-.707.707.707c1.101 1.101 2.565 1.707 4.122 1.707h1.171v.007h1c.194 0 .382.022.565.057.283-.574.435-1.2.435-1.846 0-2.322-1.889-4.211-4.211-4.211h-7.578c-2.322 0-4.211 1.889-4.211 4.211zm38 42.789c0 .552.449 1 1 1s1-.448 1-1v-1h-2zm-4-11h-48v14h46v-1c0-1.627.793-3.061 2-3.974zm-1.92 18c-.047-.328-.08-.66-.08-1v-1h-45.816c.414 1.161 1.514 2 2.816 2zm11.819 0h-9.798c.465 2.279 2.484 4 4.899 4s4.434-1.721 4.899-4zm-1.899-7.816v.816c0 1.654-1.346 3-3 3s-3-1.346-3-3v-.816c-1.161.414-2 1.514-2 2.816v3h10v-3c0-1.302-.839-2.402-2-2.816zm-6-17.184v15.101c.323-.066.658-.101 1-.101h1v-10c0-1.654 1.346-3 3-3h2c.551 0 1-.448 1-1s-.449-1-1-1zm-2-9h-.586l-1.414 1.414v8.586c0 1.103-.897 2-2 2h-40c-1.103 0-2-.897-2-2v-16c0-1.103.897-2 2-2h11c-1.302 0-2.402-.839-2.816-2h-9.184c-1.654 0-3 1.346-3 3v21h48zm10-13c0-.552-.449-1-1-1h-3.082c-.169 1.155-.617 2.265-1.319 3.2l-1.599 2.133v1.667c0 1.654-1.346 3-3 3h-2c-1.654 0-3-1.346-3-3v-1.667l-1.6-2.134c-.701-.934-1.149-2.044-1.318-3.199h-1.082c-.551 0-1 .448-1 1v10c0 .552.449 1 1 1h3v3.586c0 .337.467.533.708.292l3.878-3.878h10.414c.551 0 1-.448 1-1z" fill="url(#SVGID_1_)"/></svg>