<svg id="Capa_1" enable-background="new 0 0 510 510" height="512" viewBox="0 0 510 510" width="512" xmlns="http://www.w3.org/2000/svg" xmlns:xlink="http://www.w3.org/1999/xlink"><linearGradient id="lg1"><stop offset="0" stop-color="#ffdecf"/><stop offset="1" stop-color="#faa68e"/></linearGradient><linearGradient id="SVGID_1_" gradientUnits="userSpaceOnUse" x1="122.706" x2="153.476" xlink:href="#lg1" y1="358.391" y2="427.399"/><linearGradient id="SVGID_2_" gradientUnits="userSpaceOnUse" x1="370.703" x2="401.472" xlink:href="#lg1" y1="358.391" y2="427.399"/><linearGradient id="SVGID_3_" gradientUnits="userSpaceOnUse" x1="246.904" x2="378.799" xlink:href="#lg1" y1="347.181" y2="479.077"/><linearGradient id="lg2"><stop offset="0" stop-color="#ff9356" stop-opacity="0"/><stop offset="1" stop-color="#ff4181"/></linearGradient><linearGradient id="SVGID_4_" gradientUnits="userSpaceOnUse" x1="267.146" x2="239.078" xlink:href="#lg2" y1="396.691" y2="243.399"/><linearGradient id="lg3"><stop offset="0" stop-color="#5a7587"/><stop offset="1" stop-color="#092a40"/></linearGradient><linearGradient id="SVGID_5_" gradientUnits="userSpaceOnUse" x1="235.489" x2="304.309" xlink:href="#lg3" y1="222.564" y2="408.782"/><linearGradient id="lg4"><stop offset="0" stop-color="#092a40" stop-opacity="0"/><stop offset="1" stop-color="#092a40"/></linearGradient><linearGradient id="SVGID_6_" gradientUnits="userSpaceOnUse" x1="164.81" x2="249.012" xlink:href="#lg4" y1="274.071" y2="344.509"/><linearGradient id="SVGID_7_" gradientUnits="userSpaceOnUse" x1="190.746" x2="214.905" xlink:href="#lg3" y1="395.842" y2="420.001"/><linearGradient id="SVGID_8_" gradientUnits="userSpaceOnUse" x1="198.373" x2="224.013" xlink:href="#lg4" y1="409.97" y2="362.284"/><linearGradient id="SVGID_9_" gradientUnits="userSpaceOnUse" x1="305.295" x2="329.454" xlink:href="#lg3" y1="395.842" y2="420.001"/><linearGradient id="SVGID_10_" gradientUnits="userSpaceOnUse" x1="312.922" x2="338.562" xlink:href="#lg4" y1="409.97" y2="362.284"/><linearGradient id="lg5"><stop offset="0" stop-color="#ff755c"/><stop offset="1" stop-color="#ff4181"/></linearGradient><linearGradient id="SVGID_11_" gradientUnits="userSpaceOnUse" x1="250.119" x2="269.269" xlink:href="#lg5" y1="457.233" y2="489.786"/><linearGradient id="SVGID_12_" gradientUnits="userSpaceOnUse" x1="255" x2="255" xlink:href="#lg2" y1="432.603" y2="386.849"/><linearGradient id="SVGID_13_" gradientUnits="userSpaceOnUse" x1="363.062" x2="255.785" xlink:href="#lg4" y1="297.096" y2="200.749"/><linearGradient id="SVGID_14_" gradientUnits="userSpaceOnUse" x1="219.329" x2="298.714" y1="123.523" y2="202.908"><stop offset="0" stop-color="#ffebb4"/><stop offset="1" stop-color="#ffce47"/></linearGradient><linearGradient id="SVGID_15_" gradientUnits="userSpaceOnUse" x1="254.999" x2="254.999" y1="209.094" y2="247.962"><stop offset="0" stop-color="#ff9356" stop-opacity="0"/><stop offset="1" stop-color="#ff755c"/></linearGradient><linearGradient id="SVGID_16_" gradientUnits="userSpaceOnUse" x1="262.778" x2="225.088" y1="167.178" y2="91.253"><stop offset="0" stop-color="#ffebb4" stop-opacity="0"/><stop offset="1" stop-color="#fff5d9"/></linearGradient><linearGradient id="SVGID_17_" gradientUnits="userSpaceOnUse" x1="240.16" x2="278.007" y1="237.033" y2="288.589"><stop offset="0" stop-color="#45a2e0"/><stop offset="1" stop-color="#2f73a0"/></linearGradient><linearGradient id="lg6"><stop offset="0" stop-color="#c7e9ff"/><stop offset="1" stop-color="#7acbff"/></linearGradient><linearGradient id="SVGID_18_" gradientUnits="userSpaceOnUse" x1="255" x2="255" xlink:href="#lg6" y1="240.156" y2="255.151"/><linearGradient id="SVGID_19_" gradientUnits="userSpaceOnUse" x1="255" x2="255" xlink:href="#lg6" y1="263.103" y2="278.098"/><linearGradient id="SVGID_20_" gradientTransform="matrix(0 1 -1 0 489.614 -1084.386)" gradientUnits="userSpaceOnUse" x1="1237.892" x2="1226.716" y1="109.458" y2="109.458"><stop offset="0" stop-color="#6fa953"/><stop offset="1" stop-color="#43765a"/></linearGradient><linearGradient id="SVGID_21_" gradientTransform="matrix(0 1 -1 0 489.614 -1084.386)" gradientUnits="userSpaceOnUse" x1="1237.892" x2="1226.716" xlink:href="#lg5" y1="359.77" y2="359.77"/><linearGradient id="SVGID_22_" gradientTransform="matrix(.707 .707 -.707 .707 20.223 -643.595)" gradientUnits="userSpaceOnUse" x1="730.233" x2="719.056" y1="271.056" y2="271.056"><stop offset="0" stop-color="#7acbff"/><stop offset="1" stop-color="#45a2e0"/></linearGradient><linearGradient id="SVGID_23_" gradientTransform="matrix(-.707 .707 -.707 -.707 1133.209 -1064.163)" gradientUnits="userSpaceOnUse" x1="1482.595" x2="1471.418" y1="-113.467" y2="-113.467"><stop offset="0" stop-color="#ff4181"/><stop offset="1" stop-color="#843561"/></linearGradient><linearGradient id="SVGID_24_" gradientTransform="matrix(-1 0 0 -1 2307.594 760.187)" gradientUnits="userSpaceOnUse" x1="2054.59" x2="2043.414" y1="733.429" y2="733.429"><stop offset="0" stop-color="#ffce47"/><stop offset="1" stop-color="#ff9356"/></linearGradient><g><g><g><g><path d="m103.086 389.388v-24.784c0-15.417 12.498-27.916 27.916-27.916 15.417 0 27.916 12.498 27.916 27.916v24.784c0 15.417-12.498 27.916-27.916 27.916-15.418 0-27.916-12.499-27.916-27.916z" fill="url(#SVGID_1_)"/><path d="m351.083 389.388v-24.784c0-15.417 12.498-27.916 27.916-27.916 15.417 0 27.916 12.498 27.916 27.916v24.784c0 15.417-12.498 27.916-27.916 27.916-15.418 0-27.916-12.499-27.916-27.916z" fill="url(#SVGID_2_)"/></g><path d="m255 510c-71.507 0-129.474-57.967-129.474-129.474v-50.497c0-71.506 57.967-129.474 129.474-129.474 71.506 0 129.474 57.967 129.474 129.474v50.497c0 71.507-57.967 129.474-129.474 129.474z" fill="url(#SVGID_3_)"/><path d="m255 200.555c-71.507 0-129.474 57.967-129.474 129.474v12.538l163.032 163.032c55.237-14.784 95.916-65.174 95.916-125.073v-50.497c0-71.506-57.967-129.474-129.474-129.474z" fill="url(#SVGID_4_)"/><g><path d="m320.003 172.152h-79c-20.477 0-39.357 6.824-54.5 18.316-8.347-4.568-17.924-7.169-28.11-7.169-32.385 0-58.639 26.254-58.639 58.639v52.061c0 32.385 26.254 58.639 58.639 58.639 13.77 0 26.42-4.758 36.426-12.704 13.511 8.065 29.305 12.704 46.184 12.704h79c49.84 0 90.243-40.403 90.243-90.243 0-49.84-40.403-90.243-90.243-90.243z" fill="url(#SVGID_5_)"/><path d="m150.76 262.395c0-29.363 14.027-55.447 35.743-71.927-8.347-4.568-17.924-7.169-28.11-7.169-32.385 0-58.639 26.254-58.639 58.639v52.061c0 32.385 26.254 58.639 58.639 58.639 13.77 0 26.42-4.758 36.426-12.704-26.385-15.749-44.059-44.578-44.059-77.539z" fill="url(#SVGID_6_)"/></g><g><g><g><path d="m216.378 402.821c0 10.302-8.351 18.653-18.653 18.653s-18.653-8.351-18.653-18.653 8.351-18.653 18.653-18.653 18.653 8.352 18.653 18.653z" fill="url(#SVGID_7_)"/><path d="m206.069 386.135c1.258 2.511 1.967 5.344 1.967 8.344 0 10.302-8.351 18.653-18.653 18.653-3 0-5.833-.709-8.344-1.967 3.062 6.112 9.384 10.309 16.686 10.309 10.302 0 18.653-8.351 18.653-18.653 0-7.302-4.196-13.623-10.309-16.686z" fill="url(#SVGID_8_)"/></g></g><g><g><path d="m330.928 402.821c0 10.302-8.351 18.653-18.653 18.653s-18.653-8.351-18.653-18.653 8.351-18.653 18.653-18.653c10.301 0 18.653 8.352 18.653 18.653z" fill="url(#SVGID_9_)"/><path d="m320.618 386.135c1.258 2.511 1.967 5.344 1.967 8.344 0 10.302-8.351 18.653-18.653 18.653-3 0-5.833-.709-8.344-1.967 3.062 6.112 9.384 10.309 16.686 10.309 10.302 0 18.653-8.351 18.653-18.653.001-7.302-4.196-13.623-10.309-16.686z" fill="url(#SVGID_10_)"/></g></g></g><path d="m280.689 457.427c-16.283-7.601-35.095-7.601-51.378 0-4.212 1.966-6.095 6.942-4.2 11.186 4.338 9.713 13.728 24.986 29.889 24.986s25.551-15.273 29.889-24.986c1.895-4.244.011-9.22-4.2-11.186z" fill="url(#SVGID_11_)"/><ellipse cx="255" cy="426.766" fill="url(#SVGID_12_)" rx="16.733" ry="14.408"/></g><path d="m320.003 172.152h-79c-2.067 0-4.113.088-6.145.225v120.85l59.41 59.41h25.735c49.84 0 90.243-40.403 90.243-90.243 0-49.839-40.403-90.242-90.243-90.242z" fill="url(#SVGID_13_)"/><g><g><g><path d="m337.07 150.378c0-45.379-36.83-82.156-82.229-82.07-45.286.086-82.174 37.272-81.91 82.558.152 26.108 12.494 49.326 31.623 64.252 4.99 3.894 7.912 9.864 7.912 16.193 0 13.641 11.058 24.699 24.699 24.699h35.668c13.641 0 24.699-11.058 24.699-24.699v-.002c0-6.324 2.915-12.294 7.901-16.183 19.255-15.018 31.637-38.437 31.637-64.748z" fill="url(#SVGID_14_)"/><path d="m186.536 195.64c4.92 7.427 11.011 14.011 18.018 19.479 4.99 3.894 7.912 9.864 7.912 16.193 0 13.641 11.058 24.699 24.699 24.699h35.668c13.641 0 24.699-11.058 24.699-24.699v-.002c0-6.324 2.915-12.294 7.901-16.183 7.012-5.469 13.106-12.056 18.029-19.488h-136.926z" fill="url(#SVGID_15_)"/><circle cx="255" cy="151.51" fill="url(#SVGID_16_)" r="75.345"/></g></g><g><path d="m255 298.291c-23.49 0-42.533-19.043-42.533-42.533v-10.959h85.066v10.959c0 23.491-19.043 42.533-42.533 42.533z" fill="url(#SVGID_17_)"/><path d="m209.404 240.803v9.438c0 2.159 2.237 3.999 5.295 4.371 11.871 1.443 25.629 2.269 40.301 2.269s28.43-.826 40.301-2.269c3.059-.372 5.295-2.211 5.295-4.371v-9.438c0-2.732-3.516-4.816-7.393-4.376-11.382 1.291-24.386 2.025-38.203 2.025s-26.821-.734-38.203-2.025c-3.877-.44-7.393 1.644-7.393 4.376z" fill="url(#SVGID_18_)"/><path d="m209.404 263.75v9.438c0 2.159 2.237 3.999 5.295 4.371 11.871 1.443 25.629 2.269 40.301 2.269s28.43-.826 40.301-2.269c3.059-.372 5.295-2.211 5.295-4.371v-9.438c0-2.732-3.516-4.816-7.393-4.376-11.382 1.291-24.386 2.025-38.203 2.025s-26.821-.734-38.203-2.025c-3.877-.44-7.393 1.644-7.393 4.376z" fill="url(#SVGID_19_)"/></g></g></g><g><g><g><path d="m353.397 151.51c0-6.274 5.086-11.36 11.36-11.36h30.797c6.274 0 11.36 5.086 11.36 11.36 0 6.274-5.086 11.36-11.36 11.36h-30.797c-6.274 0-11.36-5.086-11.36-11.36z" fill="url(#SVGID_20_)"/><path d="m103.086 151.51c0-6.274 5.086-11.36 11.36-11.36h30.797c6.274 0 11.36 5.086 11.36 11.36 0 6.274-5.086 11.36-11.36 11.36h-30.797c-6.274 0-11.36-5.086-11.36-11.36z" fill="url(#SVGID_21_)"/></g><g><path d="m324.577 81.932c-4.436-4.436-4.436-11.629 0-16.065l21.777-21.777c4.436-4.436 11.629-4.436 16.065 0 4.436 4.436 4.436 11.629 0 16.065l-21.777 21.777c-4.436 4.437-11.628 4.437-16.065 0z" fill="url(#SVGID_22_)"/></g><g><path d="m147.581 44.09c4.436-4.436 11.629-4.436 16.065 0l21.777 21.777c4.436 4.436 4.436 11.629 0 16.065-4.436 4.436-11.629 4.436-16.065 0l-21.777-21.777c-4.437-4.436-4.437-11.628 0-16.065z" fill="url(#SVGID_23_)"/></g></g><path d="m255 0c6.274 0 11.36 5.086 11.36 11.36v30.797c0 6.274-5.086 11.36-11.36 11.36-6.274 0-11.36-5.086-11.36-11.36v-30.797c0-6.274 5.086-11.36 11.36-11.36z" fill="url(#SVGID_24_)"/></g></g></svg>