<svg id="Capa_1" enable-background="new 0 0 510 510" height="512" viewBox="0 0 510 510" width="512" xmlns="http://www.w3.org/2000/svg" xmlns:xlink="http://www.w3.org/1999/xlink"><linearGradient id="SVGID_1_" gradientUnits="userSpaceOnUse" x1="134.15" x2="392.569" y1="229.384" y2="352.774"><stop offset="0" stop-color="#ffdecf"/><stop offset="1" stop-color="#faa68e"/></linearGradient><linearGradient id="lg1"><stop offset="0" stop-color="#ff9356" stop-opacity="0"/><stop offset="1" stop-color="#ff4181"/></linearGradient><linearGradient id="SVGID_2_" gradientUnits="userSpaceOnUse" x1="221.606" x2="-90.699" xlink:href="#lg1" y1="274.061" y2="92.723"/><linearGradient id="SVGID_3_" gradientUnits="userSpaceOnUse" x1="159.543" x2="177.543" xlink:href="#lg1" y1="424.005" y2="565.005"/><linearGradient id="SVGID_4_" gradientUnits="userSpaceOnUse" x1="200.726" x2="-72.972" xlink:href="#lg1" y1="326.386" y2="167.465"/><linearGradient id="SVGID_5_" gradientUnits="userSpaceOnUse" x1="335.409" x2="248.909" xlink:href="#lg1" y1="306.91" y2="263.91"/><linearGradient id="SVGID_6_" gradientUnits="userSpaceOnUse" x1="399.246" x2="343.912" xlink:href="#lg1" y1="205.937" y2="177.27"/><linearGradient id="SVGID_7_" gradientUnits="userSpaceOnUse" x1="406.081" x2="470.71" y1="273" y2="273"><stop offset="0" stop-color="#ff755c"/><stop offset="1" stop-color="#ff4181"/></linearGradient><linearGradient id="SVGID_8_" gradientUnits="userSpaceOnUse" x1="339.081" x2="390.325" y1="273" y2="273"><stop offset="0" stop-color="#ffce47"/><stop offset="1" stop-color="#ff9356"/></linearGradient><linearGradient id="SVGID_9_" gradientUnits="userSpaceOnUse" x1="250.081" x2="310.214" y1="273" y2="273"><stop offset="0" stop-color="#e4e08e"/><stop offset="1" stop-color="#6fa953"/></linearGradient><g><g><path d="m208.043 0c-95.188 0-172.353 77.165-172.353 172.352v217.678c0 66.258 53.713 119.97 119.97 119.97 66.258 0 119.97-53.712 119.97-119.97 0-32.049 14.275-62.634 39.391-82.542 39.827-31.569 65.374-80.367 65.374-135.136 0-95.187-77.165-172.352-172.352-172.352z" fill="url(#SVGID_1_)"/><path d="m326.018 168.868c1.08 37.572-15.37 72.761-44.745 96.05-37.864 30.013-59.697 75.229-59.972 124.182-.204 36.221-29.061 66.38-65.282 66.576-36.361.196-66.001-29.323-66.001-65.639v-33.402c0-22.699 18.401-41.101 41.101-41.101 11.346 0 21.621-4.594 29.056-12.045 8.052-8.036 12.768-19.389 11.954-31.827-1.423-21.726-20.059-38.33-41.831-38.33-22.246 0-40.279-18.034-40.279-40.279v-20.705c0-64.418 51.869-116.944 116.038-118.009 64.23-1.065 118.114 50.315 119.961 114.529z" fill="url(#SVGID_2_)"/><path d="m35.69 389.49v.539c0 66.259 53.713 119.971 119.97 119.971 66.258 0 119.97-53.712 119.97-119.97 0-.18.007-.359.008-.539h-239.948z" fill="url(#SVGID_3_)"/><path d="m281.562 264.689c16.459-13.131 16.999-38.06 1.425-52.23-27.384-24.916-63.772-40.106-103.712-40.106-32.972 0-63.522 10.356-88.587 27.984 3.43 18.767 19.853 32.996 39.61 32.996 21.772 0 40.408 16.605 41.831 38.33.815 12.438-3.901 23.791-11.954 31.827-7.499 7.515-17.888 12.124-29.351 12.044-22.585-.158-40.806 18.517-40.806 41.102v33.402c0 36.316 29.64 65.835 66.001 65.639 36.221-.196 65.079-30.355 65.282-66.576.275-48.952 22.109-94.168 59.972-124.181.096-.078.192-.155.289-.231z" fill="url(#SVGID_4_)"/></g><path d="m315.021 307.488c12.874-10.205 24.245-22.219 33.754-35.644l-53.126-53.126c-9.495-10.023-24.318-9.452-34.341.044-10.024 9.494-10.453 24.317-.957 34.342 5.107 5.392 7.92 12.458 7.92 19.897s-2.813 14.506-7.92 19.897c-4.58 4.834-6.851 11.017-6.851 17.188 0 6.625 1.618 13.237 6.807 18.153l22.7 22.7c6.61-16.863 17.496-31.943 32.014-43.451z" fill="url(#SVGID_5_)"/><path d="m349.77 164.027c22.573 28.857 25.925 42.827 26.423 46.246 1.244-5.538 2.227-11.174 2.924-16.899z" fill="url(#SVGID_6_)"/><g><path d="m406.349 107.305c-9.696-9.83-25.524-9.939-35.354-.243-9.829 9.696-9.938 25.525-.243 35.354 34.537 35.016 53.558 81.391 53.558 130.584s-19.021 95.568-53.559 130.584c-4.805 4.871-7.201 11.214-7.201 17.555 0 6.455 2.485 12.908 7.444 17.8 9.83 9.695 25.658 9.587 35.354-.243 43.826-44.432 67.962-103.277 67.962-165.696 0-62.418-24.136-121.264-67.961-165.695z" fill="url(#SVGID_7_)"/><path d="m349.77 164.027c-9.656-9.869-25.484-10.042-35.353-.386-5.006 4.897-7.517 11.381-7.517 17.871 0 6.306 2.372 12.618 7.13 17.482 19.456 19.885 30.17 46.168 30.17 74.006 0 27.839-10.715 54.121-30.171 74.007-9.655 9.869-9.482 25.696.387 35.354 9.869 9.655 25.697 9.482 35.353-.387 28.651-29.284 44.431-67.985 44.431-108.974 0-40.987-15.779-79.688-44.43-108.973z" fill="url(#SVGID_8_)"/><path d="m295.649 218.718c-9.495-10.023-25.318-10.452-35.342-.956-10.024 9.494-10.453 25.317-.957 35.342 5.107 5.392 7.92 12.458 7.92 19.897s-2.813 14.506-7.92 19.897c-4.58 4.834-6.851 11.017-6.851 17.188 0 6.625 2.618 13.237 7.808 18.153 10.023 9.495 25.847 9.067 35.342-.957 13.942-14.718 21.621-33.996 21.621-54.282s-7.679-39.564-21.621-54.282z" fill="url(#SVGID_9_)"/></g></g></svg>