<svg id="Capa_1" enable-background="new 0 0 510 510" height="512" viewBox="0 0 510 510" width="512" xmlns="http://www.w3.org/2000/svg" xmlns:xlink="http://www.w3.org/1999/xlink"><linearGradient id="lg1"><stop offset="0" stop-color="#ffce47"/><stop offset="1" stop-color="#ff9356"/></linearGradient><linearGradient id="SVGID_1_" gradientUnits="userSpaceOnUse" x1="123.785" x2="514.188" xlink:href="#lg1" y1="121.318" y2="511.721"/><linearGradient id="SVGID_2_" gradientTransform="matrix(-1 0 0 -1 3700 -581.898)" gradientUnits="userSpaceOnUse" x1="3322.561" x2="3686.853" xlink:href="#lg1" y1="-956.869" y2="-592.578"/><linearGradient id="SVGID_3_" gradientUnits="userSpaceOnUse" x1="255" x2="255" y1="337.83" y2="435.832"><stop offset="0" stop-color="#ff9356" stop-opacity="0"/><stop offset="1" stop-color="#ff4181"/></linearGradient><linearGradient id="SVGID_4_" gradientUnits="userSpaceOnUse" x1="182.267" x2="394.514" y1="179.799" y2="392.047"><stop offset="0" stop-color="#2f73a0"/><stop offset="1" stop-color="#174461"/></linearGradient><linearGradient id="SVGID_5_" gradientUnits="userSpaceOnUse" x1="274.998" x2="178.759" y1="347.185" y2="198.962"><stop offset="0" stop-color="#174461" stop-opacity="0"/><stop offset="1" stop-color="#174461"/></linearGradient><linearGradient id="lg2"><stop offset="0" stop-color="#fff5d9"/><stop offset="1" stop-color="#ffce47"/></linearGradient><linearGradient id="SVGID_6_" gradientUnits="userSpaceOnUse" x1="154.505" x2="227.259" xlink:href="#lg2" y1="140.329" y2="213.083"/><linearGradient id="lg3"><stop offset="0" stop-color="#6fa953"/><stop offset="1" stop-color="#43765a"/></linearGradient><linearGradient id="SVGID_7_" gradientUnits="userSpaceOnUse" x1="70.396" x2="102.961" xlink:href="#lg3" y1="213.515" y2="246.08"/><linearGradient id="lg4"><stop offset="0" stop-color="#e4e08e"/><stop offset="1" stop-color="#6fa953"/></linearGradient><linearGradient id="SVGID_8_" gradientUnits="userSpaceOnUse" x1="123.505" x2="166.301" xlink:href="#lg4" y1="156.578" y2="199.375"/><linearGradient id="SVGID_9_" gradientUnits="userSpaceOnUse" x1="201.557" x2="271.017" xlink:href="#lg1" y1="187.381" y2="256.841"/><linearGradient id="lg5"><stop offset="0" stop-color="#ff9356"/><stop offset="1" stop-color="#ff755c"/></linearGradient><linearGradient id="SVGID_10_" gradientUnits="userSpaceOnUse" x1="216.988" x2="257.255" xlink:href="#lg5" y1="250.061" y2="290.329"/><linearGradient id="lg6"><stop offset="0" stop-color="#7acbff"/><stop offset="1" stop-color="#45a2e0"/></linearGradient><linearGradient id="SVGID_11_" gradientUnits="userSpaceOnUse" x1="64.594" x2="111.976" xlink:href="#lg6" y1="254.963" y2="302.345"/><linearGradient id="lg7"><stop offset="0" stop-color="#ff755c"/><stop offset="1" stop-color="#ff4181"/></linearGradient><linearGradient id="SVGID_12_" gradientUnits="userSpaceOnUse" x1="166.339" x2="206.089" xlink:href="#lg7" y1="309.459" y2="349.209"/><linearGradient id="lg8"><stop offset="0" stop-color="#ff4181"/><stop offset="1" stop-color="#843561"/></linearGradient><linearGradient id="SVGID_13_" gradientUnits="userSpaceOnUse" x1="98.487" x2="194.606" xlink:href="#lg8" y1="288.856" y2="384.975"/><linearGradient id="SVGID_14_" gradientUnits="userSpaceOnUse" x1="160.334" x2="215.523" xlink:href="#lg2" y1="164.944" y2="220.132"/><linearGradient id="SVGID_15_" gradientUnits="userSpaceOnUse" x1="121.887" x2="66.39" xlink:href="#lg3" y1="251.722" y2="196.225"/><linearGradient id="SVGID_16_" gradientUnits="userSpaceOnUse" x1="160.701" x2="111.311" xlink:href="#lg4" y1="207.059" y2="157.67"/><linearGradient id="SVGID_17_" gradientUnits="userSpaceOnUse" x1="249.367" x2="197.228" xlink:href="#lg1" y1="253.976" y2="201.837"/><linearGradient id="SVGID_18_" gradientUnits="userSpaceOnUse" x1="245.773" x2="210.939" xlink:href="#lg5" y1="292.131" y2="257.298"/><linearGradient id="SVGID_19_" gradientUnits="userSpaceOnUse" x1="135.573" x2="71.26" xlink:href="#lg6" y1="307.157" y2="242.844"/><linearGradient id="SVGID_20_" gradientUnits="userSpaceOnUse" x1="205.895" x2="159.02" xlink:href="#lg7" y1="335.731" y2="288.855"/><linearGradient id="SVGID_21_" gradientUnits="userSpaceOnUse" x1="167.475" x2="110.267" xlink:href="#lg8" y1="339.059" y2="281.851"/><linearGradient id="SVGID_22_" gradientUnits="userSpaceOnUse" x1="238.289" x2="218.529" y1="224.113" y2="204.353"><stop offset="0" stop-color="#ff9356" stop-opacity="0"/><stop offset="1" stop-color="#ff755c"/></linearGradient><linearGradient id="SVGID_23_" gradientUnits="userSpaceOnUse" x1="154.79" x2="221.041" xlink:href="#lg2" y1="141.722" y2="207.973"/><linearGradient id="SVGID_24_" gradientUnits="userSpaceOnUse" x1="256.054" x2="256.054" xlink:href="#lg1" y1="391.219" y2="421.022"/><g><g><path d="m490.733 421.782h-471.466c-10.641 0-19.267-8.626-19.267-19.267v-299.965c0-10.641 8.626-19.267 19.267-19.267h471.465c10.641 0 19.267 8.626 19.267 19.267v299.965c.001 10.641-8.625 19.267-19.266 19.267z" fill="url(#SVGID_1_)"/><path d="m32.684 96.934h444.632c9.903 0 17.932 8.028 17.932 17.932v275.334c0 9.903-8.028 17.932-17.932 17.932h-444.632c-9.903 0-17.932-8.028-17.932-17.932v-275.335c0-9.903 8.028-17.931 17.932-17.931z" fill="url(#SVGID_2_)"/><path d="m0 305.165v97.35c0 10.641 8.626 19.267 19.267 19.267h471.465c10.641 0 19.267-8.626 19.267-19.267v-97.35z" fill="url(#SVGID_3_)"/><path d="m461.331 392.204h-412.662c-9.033 0-16.357-7.323-16.357-16.357v-246.63c0-9.033 7.323-16.357 16.357-16.357h412.663c9.033 0 16.357 7.323 16.357 16.357v246.63c-.001 9.034-7.324 16.357-16.358 16.357z" fill="url(#SVGID_4_)"/></g><path d="m501.095 418.741c-64.154-64.33-248.897-249.573-249.616-250.21-24.198-21.443-55.417-35.139-89.768-37.214-4.949-.299-9.139 3.606-9.139 8.564v5.45c-24.853 3.119-47.131 14.523-63.97 31.367-19.918 19.912-32.232 47.428-32.232 77.814s12.314 57.902 32.232 77.814l89.537 89.455h312.593c3.819.001 7.369-1.124 10.363-3.04z" fill="url(#SVGID_5_)"/><g><g><path d="m244.231 176.699-43.227 43.227c-8.853-8.853-21.082-14.329-34.587-14.329v-61.13c30.386 0 57.902 12.314 77.814 32.232z" fill="url(#SVGID_6_)"/><path d="m131.829 219.926c-8.853 8.853-14.329 21.082-14.329 34.587h-61.13c0-30.387 12.314-57.902 32.232-77.814z" fill="url(#SVGID_7_)"/><path d="m166.417 144.467v61.13c-13.505 0-25.734 5.477-34.587 14.329l-43.227-43.227c19.911-19.918 47.427-32.232 77.814-32.232z" fill="url(#SVGID_8_)"/><path d="m276.463 254.513h-61.13c0-13.505-5.477-25.734-14.329-34.587l43.227-43.227c19.917 19.912 32.232 47.428 32.232 77.814z" fill="url(#SVGID_9_)"/><path d="m276.463 254.513c0 30.387-12.314 57.902-32.232 77.814l-43.227-43.227c8.853-8.853 14.329-21.082 14.329-34.587z" fill="url(#SVGID_10_)"/><path d="m131.829 289.1-43.227 43.227c-19.918-19.912-32.232-47.428-32.232-77.814h61.13c0 13.505 5.477 25.735 14.329 34.587z" fill="url(#SVGID_11_)"/><path d="m244.231 332.328c-19.912 19.918-47.428 32.232-77.814 32.232v-61.13c13.505 0 25.734-5.477 34.587-14.329z" fill="url(#SVGID_12_)"/><path d="m166.417 303.43v61.13c-30.387 0-57.902-12.314-77.814-32.232l43.227-43.227c8.852 8.852 21.081 14.329 34.587 14.329z" fill="url(#SVGID_13_)"/></g><g><path d="m225.446 195.484-24.442 24.442c-8.853-8.853-21.082-14.329-34.587-14.329v-34.561c23.054 0 43.918 9.342 59.029 24.448z" fill="url(#SVGID_14_)"/><path d="m131.829 219.926c-8.853 8.853-14.329 21.082-14.329 34.587h-34.56c0-23.055 9.342-43.918 24.448-59.029z" fill="url(#SVGID_15_)"/><path d="m166.417 171.036v34.561c-13.505 0-25.734 5.477-34.587 14.329l-24.442-24.442c15.11-15.106 35.974-24.448 59.029-24.448z" fill="url(#SVGID_16_)"/><path d="m249.894 254.513h-34.561c0-13.505-5.477-25.734-14.329-34.587l24.442-24.442c15.106 15.111 24.448 35.975 24.448 59.029z" fill="url(#SVGID_17_)"/><path d="m249.894 254.513c0 23.055-9.342 43.918-24.448 59.029l-24.442-24.442c8.853-8.853 14.329-21.082 14.329-34.587z" fill="url(#SVGID_18_)"/><path d="m131.829 289.1-24.442 24.442c-15.106-15.111-24.448-35.975-24.448-59.029h34.561c0 13.505 5.477 25.735 14.329 34.587z" fill="url(#SVGID_19_)"/><path d="m225.446 313.543c-15.111 15.106-35.975 24.448-59.029 24.448v-34.561c13.505 0 25.734-5.477 34.587-14.329z" fill="url(#SVGID_20_)"/><path d="m166.417 303.43v34.561c-23.055 0-43.918-9.342-59.029-24.448l24.442-24.442c8.852 8.852 21.081 14.329 34.587 14.329z" fill="url(#SVGID_21_)"/></g><path d="m276.463 254.513h-61.13c0-13.505-5.477-25.734-14.329-34.587l43.227-43.227c19.917 19.912 32.232 47.428 32.232 77.814z" fill="url(#SVGID_22_)"/><path d="m251.823 180.995-46.638 46.638c-3.099 3.099-8.013 3.336-11.447.613-9.461-7.501-21.016-12.475-33.643-13.901-4.302-.486-7.522-4.185-7.522-8.515v-65.949c0-4.958 4.19-8.863 9.139-8.564 34.351 2.075 65.57 15.771 89.768 37.214 3.685 3.267 3.826 8.981.343 12.464z" fill="url(#SVGID_23_)"/></g><g><g><g fill="#c7e9ff"><path d="m342.539 199.625h-47.515c-3.482 0-6.305-2.823-6.305-6.305v-12.609c0-3.482 2.823-6.305 6.305-6.305h47.515c3.482 0 6.305 2.823 6.305 6.305v12.609c-.001 3.482-2.823 6.305-6.305 6.305z"/><path d="m452.306 199.625h-82.955c-3.482 0-6.305-2.823-6.305-6.305v-12.609c0-3.482 2.823-6.305 6.305-6.305h82.955c3.482 0 6.305 2.823 6.305 6.305v12.609c-.001 3.482-2.823 6.305-6.305 6.305z"/></g><g fill="#c7e9ff"><path d="m404.791 237.608h47.515c3.482 0 6.305-2.823 6.305-6.305v-12.609c0-3.482-2.823-6.305-6.305-6.305h-47.515c-3.482 0-6.305 2.823-6.305 6.305v12.609c0 3.482 2.823 6.305 6.305 6.305z"/><path d="m295.024 237.608h82.955c3.482 0 6.305-2.823 6.305-6.305v-12.609c0-3.482-2.823-6.305-6.305-6.305h-82.955c-3.482 0-6.305 2.823-6.305 6.305v12.609c0 3.482 2.823 6.305 6.305 6.305z"/></g><g><path d="m342.539 275.591h-47.515c-3.482 0-6.305-2.823-6.305-6.305v-12.609c0-3.482 2.823-6.305 6.305-6.305h47.515c3.482 0 6.305 2.823 6.305 6.305v12.609c-.001 3.482-2.823 6.305-6.305 6.305z" fill="#c7e9ff"/></g></g></g><path d="m432.891 426.717h-353.675c-13.488 0-24.423-10.934-24.423-24.423v-2.768c0-4.044 3.278-7.322 7.322-7.322h387.876c4.044 0 7.322 3.278 7.322 7.322v2.768c.001 13.489-10.933 24.423-24.422 24.423z" fill="url(#SVGID_24_)"/></g></svg>