<svg id="Capa_1" enable-background="new 0 0 510 510" height="512" viewBox="0 0 510 510" width="512" xmlns="http://www.w3.org/2000/svg" xmlns:xlink="http://www.w3.org/1999/xlink"><linearGradient id="SVGID_1_" gradientUnits="userSpaceOnUse" x1="231.68" x2="374.112" y1="-8.102" y2="134.331"><stop offset="0" stop-color="#fff5d9"/><stop offset="1" stop-color="#ffce47"/></linearGradient><linearGradient id="SVGID_2_" gradientUnits="userSpaceOnUse" x1="67.017" x2="130.77" y1="135.177" y2="198.931"><stop offset="0" stop-color="#6fa953"/><stop offset="1" stop-color="#43765a"/></linearGradient><linearGradient id="SVGID_3_" gradientUnits="userSpaceOnUse" x1="170.99" x2="254.774" y1="23.71" y2="107.494"><stop offset="0" stop-color="#e4e08e"/><stop offset="1" stop-color="#6fa953"/></linearGradient><linearGradient id="SVGID_4_" gradientUnits="userSpaceOnUse" x1="323.796" x2="459.779" y1="84.014" y2="219.998"><stop offset="0" stop-color="#ffce47"/><stop offset="1" stop-color="#ff9356"/></linearGradient><linearGradient id="SVGID_5_" gradientUnits="userSpaceOnUse" x1="354.005" x2="432.837" y1="206.725" y2="285.558"><stop offset="0" stop-color="#ff9356"/><stop offset="1" stop-color="#ff755c"/></linearGradient><linearGradient id="SVGID_6_" gradientUnits="userSpaceOnUse" x1="445.137" x2="393.253" y1="294.162" y2="272.97"><stop offset="0" stop-color="#ff755c" stop-opacity="0"/><stop offset="1" stop-color="#ff4181"/></linearGradient><linearGradient id="SVGID_7_" gradientUnits="userSpaceOnUse" x1="55.658" x2="148.419" y1="216.321" y2="309.082"><stop offset="0" stop-color="#7acbff"/><stop offset="1" stop-color="#45a2e0"/></linearGradient><linearGradient id="SVGID_8_" gradientUnits="userSpaceOnUse" x1="254.849" x2="332.668" y1="323.01" y2="400.829"><stop offset="0" stop-color="#ff755c"/><stop offset="1" stop-color="#ff4181"/></linearGradient><linearGradient id="SVGID_9_" gradientUnits="userSpaceOnUse" x1="341.881" x2="311.376" y1="410.041" y2="379.537"><stop offset="0" stop-color="#843561" stop-opacity="0"/><stop offset="1" stop-color="#843561"/></linearGradient><linearGradient id="SVGID_10_" gradientUnits="userSpaceOnUse" x1="122.012" x2="310.187" y1="282.675" y2="470.85"><stop offset="0" stop-color="#ff4181"/><stop offset="1" stop-color="#843561"/></linearGradient><linearGradient id="lg1"><stop offset="0" stop-color="#ff9356" stop-opacity="0"/><stop offset="1" stop-color="#ff755c"/></linearGradient><linearGradient id="SVGID_11_" gradientUnits="userSpaceOnUse" x1="478.453" x2="400.992" xlink:href="#lg1" y1="142.683" y2="161.683"/><linearGradient id="SVGID_12_" gradientUnits="userSpaceOnUse" x1="183.415" x2="342.724" y1="159.277" y2="318.586"><stop offset="0" stop-color="#ffebb4"/><stop offset="1" stop-color="#ffce47"/></linearGradient><linearGradient id="SVGID_13_" gradientUnits="userSpaceOnUse" x1="254.999" x2="254.999" xlink:href="#lg1" y1="331" y2="409"/><linearGradient id="SVGID_14_" gradientUnits="userSpaceOnUse" x1="270.608" x2="194.973" y1="246.883" y2="94.518"><stop offset="0" stop-color="#ffebb4" stop-opacity="0"/><stop offset="1" stop-color="#fff5d9"/></linearGradient><linearGradient id="SVGID_15_" gradientUnits="userSpaceOnUse" x1="225.219" x2="301.169" y1="387.068" y2="490.529"><stop offset="0" stop-color="#45a2e0"/><stop offset="1" stop-color="#2f73a0"/></linearGradient><linearGradient id="lg2"><stop offset="0" stop-color="#c7e9ff"/><stop offset="1" stop-color="#7acbff"/></linearGradient><linearGradient id="SVGID_16_" gradientUnits="userSpaceOnUse" x1="255" x2="255" xlink:href="#lg2" y1="393.335" y2="423.427"/><linearGradient id="SVGID_17_" gradientUnits="userSpaceOnUse" x1="255" x2="255" xlink:href="#lg2" y1="439.384" y2="469.476"/><g><g><path d="m407.34 63.101-84.627 84.627c-17.331-17.331-41.273-28.053-67.712-28.053v-119.675c59.488 0 113.356 24.108 152.339 63.101z" fill="url(#SVGID_1_)"/><path d="m187.288 147.728c-17.331 17.331-28.053 41.273-28.053 67.712h-119.676c0-59.489 24.108-113.357 63.101-152.34z" fill="url(#SVGID_2_)"/><path d="m255 0v119.675c-26.44 0-50.381 10.722-67.712 28.053l-84.628-84.627c38.983-38.993 92.851-63.101 152.34-63.101z" fill="url(#SVGID_3_)"/><path d="m470.441 215.441h-119.676c0-26.44-10.722-50.381-28.053-67.712l84.627-84.627c38.994 38.982 63.102 92.85 63.102 152.339z" fill="url(#SVGID_4_)"/><path d="m470.441 215.441c0 59.489-24.108 113.357-63.101 152.34l-84.627-84.627c17.331-17.331 28.053-41.273 28.053-67.712h119.675z" fill="url(#SVGID_5_)"/><path d="m470.441 215.441c0 59.489-24.108 113.357-63.101 152.34l-84.627-84.627c17.331-17.331 28.053-41.273 28.053-67.712h119.675z" fill="url(#SVGID_6_)"/><path d="m187.288 283.153-84.628 84.627c-38.993-38.983-63.101-92.851-63.101-152.34h119.675c.001 26.44 10.722 50.382 28.054 67.713z" fill="url(#SVGID_7_)"/><path d="m407.34 367.78c-38.983 38.993-92.851 63.101-152.34 63.101v-119.675c26.44 0 50.381-10.722 67.712-28.053z" fill="url(#SVGID_8_)"/><path d="m407.34 367.78c-38.983 38.993-92.851 63.101-152.34 63.101v-119.675c26.44 0 50.381-10.722 67.712-28.053z" fill="url(#SVGID_9_)"/><path d="m255 311.206v119.675c-59.489 0-113.357-24.108-152.34-63.101l84.627-84.627c17.332 17.331 41.273 28.053 67.713 28.053z" fill="url(#SVGID_10_)"/></g><path d="m322.712 147.728c17.332 17.331 28.053 41.273 28.053 67.712h119.675c0-6.99-.345-13.9-.996-20.72l-96.862-96.862z" fill="url(#SVGID_11_)"/><g><g><path d="m419.697 213.169c0-91.066-73.909-164.869-165.015-164.697-90.88.172-164.905 74.797-164.376 165.676.305 52.392 25.074 98.987 63.461 128.941 10.013 7.814 15.878 19.795 15.878 32.497 0 27.375 22.192 49.566 49.566 49.566h71.577c27.375 0 49.566-22.191 49.566-49.566v-.003c0-12.69 5.849-24.671 15.855-32.475 38.641-30.14 63.488-77.138 63.488-129.939z" fill="url(#SVGID_12_)"/><path d="m117.608 304c9.874 14.905 22.098 28.117 36.159 39.089 10.013 7.814 15.878 19.795 15.878 32.497 0 27.375 22.192 49.566 49.566 49.566h71.577c27.375 0 49.566-22.192 49.566-49.566v-.003c0-12.69 5.849-24.671 15.855-32.475 14.071-10.975 26.301-24.195 36.18-39.107h-274.781z" fill="url(#SVGID_13_)"/><circle cx="255" cy="215.441" fill="url(#SVGID_14_)" r="151.201"/></g></g><g><path d="m255 510c-47.14 0-85.355-38.215-85.355-85.355v-21.993h170.71v21.993c0 47.14-38.215 85.355-85.355 85.355z" fill="url(#SVGID_15_)"/><path d="m163.499 394.633v18.939c0 4.333 4.488 8.024 10.626 8.771 23.822 2.897 51.433 4.554 80.875 4.554 29.443 0 57.053-1.657 80.875-4.554 6.138-.746 10.626-4.438 10.626-8.771v-18.939c0-5.482-7.055-9.664-14.836-8.781-22.841 2.592-48.937 4.064-76.666 4.064s-53.824-1.472-76.666-4.064c-7.779-.883-14.834 3.299-14.834 8.781z" fill="url(#SVGID_16_)"/><path d="m163.499 440.682v18.939c0 4.333 4.488 8.024 10.626 8.771 23.822 2.897 51.433 4.554 80.875 4.554 29.443 0 57.053-1.657 80.875-4.554 6.138-.746 10.626-4.438 10.626-8.771v-18.939c0-5.482-7.055-9.664-14.836-8.781-22.841 2.592-48.937 4.064-76.666 4.064s-53.824-1.472-76.666-4.064c-7.779-.883-14.834 3.299-14.834 8.781z" fill="url(#SVGID_17_)"/></g></g></svg>