<svg id="Capa_1" enable-background="new 0 0 510 510" height="512" viewBox="0 0 510 510" width="512" xmlns="http://www.w3.org/2000/svg" xmlns:xlink="http://www.w3.org/1999/xlink"><linearGradient id="lg1"><stop offset="0" stop-color="#edf5ff"/><stop offset="1" stop-color="#c7e9ff"/></linearGradient><linearGradient id="SVGID_1_" gradientUnits="userSpaceOnUse" x1="74.807" x2="314.791" xlink:href="#lg1" y1="98.749" y2="427.734"/><linearGradient id="lg2"><stop offset="0" stop-color="#7acbff" stop-opacity="0"/><stop offset="1" stop-color="#2f73a0"/></linearGradient><linearGradient id="SVGID_2_" gradientUnits="userSpaceOnUse" x1="192.927" x2="2.465" xlink:href="#lg2" y1="93.155" y2="-97.308"/><linearGradient id="SVGID_3_" gradientUnits="userSpaceOnUse" x1="252.426" x2="126.756" xlink:href="#lg2" y1="234.523" y2="108.852"/><linearGradient id="SVGID_4_" gradientUnits="userSpaceOnUse" x1="40.729" x2="98.908" xlink:href="#lg1" y1="38.133" y2="96.312"/><linearGradient id="SVGID_5_" gradientUnits="userSpaceOnUse" x1="150.59" x2="150.59" xlink:href="#lg2" y1="377.5" y2="436.01"/><linearGradient id="SVGID_6_" gradientUnits="userSpaceOnUse" x1="119.853" x2="188.031" y1="101.949" y2="170.127"><stop offset="0" stop-color="#e4e08e"/><stop offset="1" stop-color="#6fa953"/></linearGradient><linearGradient id="SVGID_7_" gradientUnits="userSpaceOnUse" x1="283.628" x2="523.612" xlink:href="#lg1" y1="203.477" y2="532.462"/><linearGradient id="SVGID_8_" gradientUnits="userSpaceOnUse" x1="401.748" x2="211.286" xlink:href="#lg2" y1="197.883" y2="7.421"/><linearGradient id="SVGID_9_" gradientUnits="userSpaceOnUse" x1="461.247" x2="335.577" xlink:href="#lg2" y1="339.251" y2="213.581"/><linearGradient id="SVGID_10_" gradientUnits="userSpaceOnUse" x1="249.55" x2="307.729" xlink:href="#lg1" y1="142.862" y2="201.04"/><linearGradient id="SVGID_11_" gradientUnits="userSpaceOnUse" x1="359.411" x2="359.411" xlink:href="#lg2" y1="482.228" y2="540.739"/><linearGradient id="SVGID_12_" gradientUnits="userSpaceOnUse" x1="328.674" x2="396.852" y1="206.678" y2="274.856"><stop offset="0" stop-color="#ff755c"/><stop offset="1" stop-color="#ff4181"/></linearGradient><g><g><path d="m273.721 0h-178.308c-7.777 0-15.236 3.089-20.735 8.589l-63.964 63.964c-5.499 5.499-8.589 12.958-8.589 20.735v286.65c0 13.933 11.4 25.333 25.333 25.333h246.27c13.929 0 25.325-11.396 25.325-25.325v-354.613c.001-13.933-11.399-25.333-25.332-25.333z" fill="url(#SVGID_1_)"/><g><g><g fill="#45a2e0"><g><path d="m159.251 266.489h-59.405c-4.353 0-7.882-3.529-7.882-7.882v-15.764c0-4.353 3.529-7.882 7.882-7.882h59.405c4.353 0 7.882 3.529 7.882 7.882v15.764c0 4.353-3.529 7.882-7.882 7.882z"/><path d="m248.909 266.489h-56.137c-4.353 0-7.882-3.529-7.882-7.882v-15.764c0-4.353 3.529-7.882 7.882-7.882h56.137c4.353 0 7.882 3.529 7.882 7.882v15.764c.001 4.353-3.528 7.882-7.882 7.882z"/></g><g><path d="m218.412 313.977h30.498c4.353 0 7.882-3.529 7.882-7.882v-15.765c0-4.353-3.529-7.882-7.882-7.882h-30.498c-4.353 0-7.882 3.529-7.882 7.882v15.764c0 4.354 3.529 7.883 7.882 7.883z"/><path d="m99.846 313.977h85.045c4.353 0 7.882-3.529 7.882-7.882v-15.765c0-4.353-3.529-7.882-7.882-7.882h-85.045c-4.353 0-7.882 3.529-7.882 7.882v15.764c-.001 4.354 3.528 7.883 7.882 7.883z"/></g><g><path d="m159.251 361.464h-59.405c-4.353 0-7.882-3.529-7.882-7.882v-15.764c0-4.353 3.529-7.882 7.882-7.882h59.405c4.353 0 7.882 3.529 7.882 7.882v15.764c0 4.353-3.529 7.882-7.882 7.882z"/><path d="m248.909 361.464h-56.137c-4.353 0-7.882-3.529-7.882-7.882v-15.764c0-4.353 3.529-7.882 7.882-7.882h56.137c4.353 0 7.882 3.529 7.882 7.882v15.764c.001 4.353-3.528 7.882-7.882 7.882z"/></g></g></g><g fill="#45a2e0"><circle cx="60.352" cy="250.924" r="15.964"/><circle cx="60.352" cy="298.212" r="15.964"/><circle cx="60.352" cy="345.5" r="15.964"/></g></g><path d="m299.054 379.946v-354.613c0-13.933-11.4-25.333-25.333-25.333h-178.308c-7.777 0-15.236 3.09-20.735 8.589l-63.964 63.964c-4.08 4.08-6.83 9.24-7.979 14.807l296.072 296.072c.158-1.141.247-2.304.247-3.486z" fill="url(#SVGID_2_)"/><path d="m204.187 85.096c-13.132-14.779-32.272-20.552-53.598-20.552-39.594 0-68.142 28.549-68.142 68.142 0 21.326 5.773 40.465 20.552 53.598l195.939 195.939c.068-.751.116-1.508.116-2.277v-199.984z" fill="url(#SVGID_3_)"/><path d="m2.994 86.174c-.094.407-.18.804-.259 1.186h77.595c5.494 0 9.949-4.454 9.949-9.949v-76.949c-.606.108-1.244.235-1.901.38-5.784 1.279-11.058 4.253-15.247 8.442l-61.709 61.709c-4.172 4.172-7.102 9.432-8.428 15.181z" fill="url(#SVGID_4_)"/><path d="m2.125 355.368v24.57c0 13.933 11.4 25.333 25.333 25.333h246.27c13.929 0 25.326-11.396 25.326-25.325v-24.578z" fill="url(#SVGID_5_)"/><g><circle cx="150.59" cy="132.686" fill="url(#SVGID_6_)" r="71.691"/><path d="m138.893 166.743c-6.22 0-12.068-2.422-16.466-6.82l-19.802-19.802c-4.141-4.14-4.141-10.854 0-14.994 4.14-4.141 10.854-4.141 14.994 0l19.802 19.802c.504.504 1.078.61 1.472.61.393 0 .967-.106 1.471-.61l43.195-43.195c4.141-4.141 10.854-4.141 14.994 0 4.14 4.14 4.14 10.854 0 14.994l-43.195 43.195c-4.397 4.398-10.245 6.82-16.465 6.82z" fill="#fff"/></g></g><g><path d="m482.542 104.729h-178.308c-7.777 0-15.236 3.089-20.735 8.589l-63.964 63.964c-5.499 5.499-8.589 12.958-8.589 20.735v286.65c0 13.933 11.4 25.333 25.333 25.333h246.27c13.929 0 25.325-11.396 25.325-25.325v-354.613c.001-13.933-11.399-25.333-25.332-25.333z" fill="url(#SVGID_7_)"/><g><g><g fill="#45a2e0"><g><path d="m368.072 371.218h-59.405c-4.353 0-7.882-3.529-7.882-7.882v-15.764c0-4.353 3.529-7.882 7.882-7.882h59.405c4.353 0 7.882 3.529 7.882 7.882v15.764c0 4.353-3.529 7.882-7.882 7.882z"/><path d="m457.73 371.218h-56.137c-4.353 0-7.882-3.529-7.882-7.882v-15.764c0-4.353 3.529-7.882 7.882-7.882h56.137c4.353 0 7.882 3.529 7.882 7.882v15.764c.001 4.353-3.528 7.882-7.882 7.882z"/></g><g><path d="m427.233 418.706h30.498c4.353 0 7.882-3.529 7.882-7.882v-15.764c0-4.353-3.529-7.882-7.882-7.882h-30.498c-4.353 0-7.882 3.529-7.882 7.882v15.764c0 4.353 3.529 7.882 7.882 7.882z"/><path d="m308.667 418.706h85.045c4.353 0 7.882-3.529 7.882-7.882v-15.764c0-4.353-3.529-7.882-7.882-7.882h-85.045c-4.353 0-7.882 3.529-7.882 7.882v15.764c-.001 4.353 3.528 7.882 7.882 7.882z"/></g><g><path d="m368.072 466.193h-59.405c-4.353 0-7.882-3.529-7.882-7.882v-15.764c0-4.353 3.529-7.882 7.882-7.882h59.405c4.353 0 7.882 3.529 7.882 7.882v15.764c0 4.353-3.529 7.882-7.882 7.882z"/><path d="m457.73 466.193h-56.137c-4.353 0-7.882-3.529-7.882-7.882v-15.764c0-4.353 3.529-7.882 7.882-7.882h56.137c4.353 0 7.882 3.529 7.882 7.882v15.764c.001 4.353-3.528 7.882-7.882 7.882z"/></g></g></g><g fill="#45a2e0"><circle cx="269.172" cy="355.653" r="15.964"/><circle cx="269.172" cy="402.941" r="15.964"/><circle cx="269.172" cy="450.229" r="15.964"/></g></g><path d="m507.875 484.675v-354.613c0-13.933-11.4-25.333-25.333-25.333h-178.308c-7.777 0-15.236 3.09-20.735 8.589l-63.964 63.964c-4.08 4.08-6.83 9.24-7.979 14.807l296.071 296.071c.159-1.14.248-2.303.248-3.485z" fill="url(#SVGID_8_)"/><path d="m413.008 189.824c-13.132-14.779-32.272-20.552-53.598-20.552-39.594 0-68.142 28.549-68.142 68.142 0 21.326 5.773 40.465 20.552 53.598l195.939 195.939c.068-.751.116-1.508.116-2.277v-199.983z" fill="url(#SVGID_9_)"/><path d="m211.815 190.903c-.094.407-.18.804-.259 1.186h77.596c5.495 0 9.949-4.454 9.949-9.949v-76.95c-.606.108-1.244.235-1.901.38-5.785 1.279-11.058 4.253-15.248 8.443l-61.709 61.709c-4.172 4.171-7.102 9.431-8.428 15.181z" fill="url(#SVGID_10_)"/><path d="m210.946 460.096v24.57c0 13.933 11.4 25.333 25.333 25.333h246.27c13.929 0 25.326-11.397 25.326-25.325v-24.578z" fill="url(#SVGID_11_)"/><g><circle cx="359.41" cy="237.414" fill="url(#SVGID_12_)" r="71.691"/></g><path d="m394.333 202.492c-4.045-4.045-10.602-4.045-14.647 0l-20.275 20.275-20.275-20.275c-4.045-4.045-10.602-4.045-14.647 0-4.045 4.045-4.045 10.602 0 14.647l20.275 20.275-20.275 20.275c-4.045 4.045-4.045 10.602 0 14.647 4.045 4.045 10.602 4.045 14.647 0l20.275-20.275 20.275 20.275c4.045 4.045 10.602 4.045 14.647 0 4.045-4.045 4.045-10.602 0-14.647l-20.275-20.275 20.275-20.275c4.044-4.044 4.044-10.602 0-14.647z" fill="#fff"/></g></g></svg>