<svg id="Capa_1" enable-background="new 0 0 510 510" height="512" viewBox="0 0 510 510" width="512" xmlns="http://www.w3.org/2000/svg" xmlns:xlink="http://www.w3.org/1999/xlink"><linearGradient id="lg1"><stop offset="0" stop-color="#2f73a0"/><stop offset="1" stop-color="#43765a"/></linearGradient><linearGradient id="SVGID_1_" gradientUnits="userSpaceOnUse" x1="124.929" x2="428.24" xlink:href="#lg1" y1="23.017" y2="326.328"/><linearGradient id="SVGID_2_" gradientUnits="userSpaceOnUse" x1="172.921" x2="476.232" xlink:href="#lg1" y1="-24.975" y2="278.336"/><linearGradient id="SVGID_3_" gradientUnits="userSpaceOnUse" x1="220.913" x2="524.224" xlink:href="#lg1" y1="-72.967" y2="230.344"/><linearGradient id="SVGID_4_" gradientUnits="userSpaceOnUse" x1="268.905" x2="572.216" xlink:href="#lg1" y1="-120.959" y2="182.353"/><linearGradient id="SVGID_5_" gradientUnits="userSpaceOnUse" x1="74.251" x2="377.563" xlink:href="#lg1" y1="73.695" y2="377.006"/><linearGradient id="SVGID_6_" gradientUnits="userSpaceOnUse" x1="-120.959" x2="182.353" xlink:href="#lg1" y1="268.905" y2="572.216"/><linearGradient id="SVGID_7_" gradientUnits="userSpaceOnUse" x1="-72.967" x2="230.344" xlink:href="#lg1" y1="220.913" y2="524.224"/><linearGradient id="SVGID_8_" gradientUnits="userSpaceOnUse" x1="-24.975" x2="278.336" xlink:href="#lg1" y1="172.921" y2="476.232"/><linearGradient id="SVGID_9_" gradientUnits="userSpaceOnUse" x1="23.017" x2="326.328" xlink:href="#lg1" y1="124.929" y2="428.24"/><linearGradient id="SVGID_10_" gradientUnits="userSpaceOnUse" x1="-164.986" x2="138.326" xlink:href="#lg1" y1="312.931" y2="616.242"/><linearGradient id="SVGID_15_" gradientUnits="userSpaceOnUse" x1="73.694" x2="377.006" xlink:href="#lg1" y1="74.251" y2="377.563"/><linearGradient id="SVGID_20_" gradientUnits="userSpaceOnUse" x1="312.931" x2="616.242" xlink:href="#lg1" y1="-164.986" y2="138.326"/><linearGradient id="SVGID_21_" gradientUnits="userSpaceOnUse" x1="151.197" x2="406.663" xlink:href="#lg1" y1="151.197" y2="406.663"/><linearGradient id="lg2"><stop offset="0" stop-color="#1b444f" stop-opacity="0"/><stop offset="1" stop-color="#1b444f"/></linearGradient><linearGradient id="SVGID_22_" gradientUnits="userSpaceOnUse" x1="410.91" x2="393.587" xlink:href="#lg2" y1="165.113" y2="124.512"/><linearGradient id="SVGID_23_" gradientUnits="userSpaceOnUse" x1="157.529" x2="130.1" xlink:href="#lg2" y1="417.821" y2="395.264"/><linearGradient id="SVGID_24_" gradientUnits="userSpaceOnUse" x1="161.995" x2="78.984" xlink:href="#lg2" y1="161.778" y2="78.767"/><linearGradient id="SVGID_25_" gradientUnits="userSpaceOnUse" x1="163.498" x2="388.69" y1="163.498" y2="388.69"><stop offset="0" stop-color="#fff5d9"/><stop offset="1" stop-color="#ffce47"/></linearGradient><linearGradient id="SVGID_26_" gradientUnits="userSpaceOnUse" x1="255" x2="255" y1="338" y2="437"><stop offset="0" stop-color="#ff9356" stop-opacity="0"/><stop offset="1" stop-color="#ff755c"/></linearGradient><linearGradient id="SVGID_27_" gradientUnits="userSpaceOnUse" x1="142.756" x2="138.255" y1="410.191" y2="380.572"><stop offset="0" stop-color="#ffce47" stop-opacity="0"/><stop offset="1" stop-color="#ff9356"/></linearGradient><linearGradient id="lg3"><stop offset="0" stop-color="#ffebb4" stop-opacity="0"/><stop offset="1" stop-color="#ffce47"/></linearGradient><linearGradient id="SVGID_28_" gradientUnits="userSpaceOnUse" x1="219.612" x2="91.618" xlink:href="#lg3" y1="219.396" y2="91.402"/><linearGradient id="SVGID_29_" gradientUnits="userSpaceOnUse" x1="412.078" x2="390.125" xlink:href="#lg3" y1="153.974" y2="135.315"/><linearGradient id="lg4"><stop offset="0" stop-color="#c7e9ff"/><stop offset="1" stop-color="#7acbff"/></linearGradient><linearGradient id="SVGID_30_" gradientUnits="userSpaceOnUse" x1="95.825" x2="130.505" xlink:href="#lg4" y1="95.825" y2="130.505"/><linearGradient id="SVGID_31_" gradientTransform="matrix(-1 0 0 -1 -2816 -1751)" gradientUnits="userSpaceOnUse" x1="-2933.94" x2="-2914.192" xlink:href="#lg4" y1="-1868.941" y2="-1849.192"/><linearGradient id="SVGID_32_" gradientUnits="userSpaceOnUse" x1="385.992" x2="420.672" xlink:href="#lg4" y1="95.825" y2="130.505"/><linearGradient id="SVGID_33_" gradientTransform="matrix(-1 0 0 -1 -2816 -1751)" gradientUnits="userSpaceOnUse" x1="-3224.108" x2="-3204.36" xlink:href="#lg4" y1="-1868.941" y2="-1849.192"/><linearGradient id="SVGID_34_" gradientUnits="userSpaceOnUse" x1="95.825" x2="130.505" xlink:href="#lg4" y1="385.992" y2="420.672"/><linearGradient id="SVGID_35_" gradientTransform="matrix(-1 0 0 -1 -2816 -1751)" gradientUnits="userSpaceOnUse" x1="-2933.94" x2="-2914.192" xlink:href="#lg4" y1="-2159.108" y2="-2139.36"/><linearGradient id="SVGID_36_" gradientUnits="userSpaceOnUse" x1="385.992" x2="420.672" xlink:href="#lg4" y1="385.992" y2="420.672"/><linearGradient id="SVGID_37_" gradientTransform="matrix(-1 0 0 -1 -2816 -1751)" gradientUnits="userSpaceOnUse" x1="-3224.108" x2="-3204.36" xlink:href="#lg4" y1="-2159.108" y2="-2139.36"/><linearGradient id="SVGID_38_" gradientUnits="userSpaceOnUse" x1="250.686" x2="261.303" xlink:href="#lg1" y1="250.686" y2="261.303"/><linearGradient id="SVGID_39_" gradientTransform="matrix(-.707 .707 -.707 -.707 -1953.099 -809)" gradientUnits="userSpaceOnUse" x1="-833.831" x2="-795.314" xlink:href="#lg4" y1="-2609.825" y2="-2571.308"/><linearGradient id="lg5"><stop offset="0" stop-color="#7acbff" stop-opacity="0"/><stop offset="1" stop-color="#2f73a0"/></linearGradient><linearGradient id="SVGID_40_" gradientTransform="matrix(-.707 .707 -.707 -.707 -1953.099 -809)" gradientUnits="userSpaceOnUse" x1="-796.856" x2="-842.735" xlink:href="#lg5" y1="-2585.28" y2="-2609.294"/><linearGradient id="SVGID_41_" gradientTransform="matrix(.707 -.707 .707 .707 -364.084 -444.183)" gradientUnits="userSpaceOnUse" x1="-81.47" x2="-42.952" xlink:href="#lg4" y1="636.054" y2="674.571"/><linearGradient id="SVGID_42_" gradientTransform="matrix(.707 -.707 .707 .707 -364.084 -444.183)" gradientUnits="userSpaceOnUse" x1="-44.495" x2="-90.374" xlink:href="#lg5" y1="660.599" y2="636.584"/><linearGradient id="SVGID_43_" gradientTransform="matrix(-.707 -.707 .707 -.707 -1341 -1421.099)" gradientUnits="userSpaceOnUse" x1="-2338.555" x2="-2300.037" xlink:href="#lg4" y1="-352.74" y2="-314.223"/><linearGradient id="SVGID_44_" gradientTransform="matrix(-.707 -.707 .707 -.707 -1341 -1421.099)" gradientUnits="userSpaceOnUse" x1="-2301.58" x2="-2347.458" xlink:href="#lg5" y1="-328.195" y2="-352.21"/><linearGradient id="SVGID_45_" gradientTransform="matrix(.707 .707 -.707 .707 -1705.817 167.916)" gradientUnits="userSpaceOnUse" x1="1423.253" x2="1461.771" xlink:href="#lg4" y1="-1621.031" y2="-1582.514"/><linearGradient id="SVGID_46_" gradientTransform="matrix(.707 .707 -.707 .707 -1705.817 167.916)" gradientUnits="userSpaceOnUse" x1="1460.228" x2="1414.35" xlink:href="#lg5" y1="-1596.486" y2="-1620.501"/><g><g><path d="m500.888 371.639c-5.033 0-9.112 4.079-9.112 9.112v36.449c0 5.032 4.079 9.112 9.112 9.112 5.032 0 9.112-4.08 9.112-9.112v-36.448c0-5.033-4.08-9.113-9.112-9.113z" fill="url(#SVGID_1_)"/><path d="m500.888 275.656c-5.033 0-9.112 4.08-9.112 9.112v36.448c0 5.032 4.079 9.112 9.112 9.112 5.032 0 9.112-4.08 9.112-9.112v-36.448c0-5.033-4.08-9.112-9.112-9.112z" fill="url(#SVGID_2_)"/><path d="m500.888 179.672c-5.033 0-9.112 4.08-9.112 9.112v36.448c0 5.033 4.079 9.112 9.112 9.112 5.032 0 9.112-4.08 9.112-9.112v-36.448c0-5.033-4.08-9.112-9.112-9.112z" fill="url(#SVGID_3_)"/><path d="m500.888 83.688c-5.033 0-9.112 4.08-9.112 9.112v36.448c0 5.033 4.079 9.112 9.112 9.112 5.032 0 9.112-4.079 9.112-9.112v-36.448c0-5.032-4.08-9.112-9.112-9.112z" fill="url(#SVGID_4_)"/><path d="m500.607 464.444c-4.987.15-8.832 4.501-8.832 9.49v17.842h-16.729c-4.989 0-9.34 3.845-9.49 8.832-.155 5.16 3.982 9.392 9.108 9.392h25.35c5.515 0 9.985-4.471 9.985-9.985v-26.463c.001-5.126-4.231-9.263-9.392-9.108z" fill="url(#SVGID_5_)"/><path d="m129.249 491.776h-36.449c-5.033 0-9.112 4.079-9.112 9.112 0 5.032 4.08 9.112 9.112 9.112h36.448c5.033 0 9.112-4.08 9.112-9.112.001-5.033-4.079-9.112-9.111-9.112z" fill="url(#SVGID_6_)"/><path d="m225.232 491.776h-36.448c-5.033 0-9.112 4.079-9.112 9.112 0 5.032 4.08 9.112 9.112 9.112h36.448c5.033 0 9.112-4.08 9.112-9.112 0-5.033-4.079-9.112-9.112-9.112z" fill="url(#SVGID_7_)"/><path d="m321.216 491.776h-36.448c-5.033 0-9.112 4.079-9.112 9.112 0 5.032 4.08 9.112 9.112 9.112h36.448c5.033 0 9.112-4.08 9.112-9.112 0-5.033-4.079-9.112-9.112-9.112z" fill="url(#SVGID_8_)"/><path d="m417.2 491.776h-36.448c-5.033 0-9.112 4.079-9.112 9.112 0 5.032 4.08 9.112 9.112 9.112h36.448c5.033 0 9.112-4.08 9.112-9.112 0-5.033-4.079-9.112-9.112-9.112z" fill="url(#SVGID_9_)"/><path d="m36.066 491.776h-17.842v-16.729c0-4.989-3.845-9.34-8.832-9.49-5.16-.155-9.392 3.982-9.392 9.108v25.35c0 5.514 4.471 9.985 9.986 9.985h26.463c5.126 0 9.263-4.232 9.108-9.393-.15-4.987-4.501-8.831-9.491-8.831z" fill="url(#SVGID_10_)"/><path d="m9.112 138.361c5.033 0 9.112-4.079 9.112-9.112v-36.449c0-5.032-4.079-9.112-9.112-9.112-5.032 0-9.112 4.08-9.112 9.112v36.448c0 5.033 4.08 9.113 9.112 9.113z" fill="url(#SVGID_9_)"/><path d="m9.112 234.344c5.033 0 9.112-4.08 9.112-9.112v-36.448c0-5.032-4.079-9.112-9.112-9.112-5.032 0-9.112 4.08-9.112 9.112v36.448c0 5.033 4.08 9.112 9.112 9.112z" fill="url(#SVGID_8_)"/><path d="m9.112 330.328c5.033 0 9.112-4.08 9.112-9.112v-36.448c0-5.033-4.079-9.112-9.112-9.112-5.032 0-9.112 4.08-9.112 9.112v36.448c0 5.033 4.08 9.112 9.112 9.112z" fill="url(#SVGID_7_)"/><path d="m9.112 426.312c5.033 0 9.112-4.08 9.112-9.112v-36.448c0-5.033-4.079-9.112-9.112-9.112-5.032 0-9.112 4.079-9.112 9.112v36.448c0 5.032 4.08 9.112 9.112 9.112z" fill="url(#SVGID_6_)"/><path d="m9.393 45.556c4.987-.15 8.832-4.501 8.832-9.49v-17.842h16.729c4.989 0 9.34-3.845 9.49-8.832.154-5.16-3.983-9.392-9.109-9.392h-25.349c-5.515 0-9.986 4.471-9.986 9.985v26.463c0 5.126 4.232 9.263 9.393 9.108z" fill="url(#SVGID_15_)"/><path d="m380.751 18.224h36.449c5.033 0 9.112-4.079 9.112-9.112 0-5.032-4.08-9.112-9.112-9.112h-36.448c-5.033 0-9.112 4.08-9.112 9.112-.001 5.033 4.079 9.112 9.111 9.112z" fill="url(#SVGID_4_)"/><path d="m284.768 18.224h36.448c5.033 0 9.112-4.079 9.112-9.112 0-5.032-4.08-9.112-9.112-9.112h-36.448c-5.033 0-9.112 4.08-9.112 9.112 0 5.033 4.079 9.112 9.112 9.112z" fill="url(#SVGID_3_)"/><path d="m188.784 18.224h36.448c5.033 0 9.112-4.079 9.112-9.112 0-5.032-4.08-9.112-9.112-9.112h-36.448c-5.033 0-9.112 4.08-9.112 9.112 0 5.033 4.079 9.112 9.112 9.112z" fill="url(#SVGID_2_)"/><path d="m92.8 18.224h36.448c5.033 0 9.112-4.079 9.112-9.112 0-5.032-4.08-9.112-9.112-9.112h-36.448c-5.033 0-9.112 4.08-9.112 9.112 0 5.033 4.079 9.112 9.112 9.112z" fill="url(#SVGID_1_)"/><path d="m500.014 0h-26.463c-5.126 0-9.263 4.232-9.108 9.392.15 4.987 4.501 8.832 9.49 8.832h17.842v16.729c0 4.989 3.845 9.34 8.832 9.49 5.16.155 9.392-3.982 9.392-9.108v-25.35c.001-5.514-4.47-9.985-9.985-9.985z" fill="url(#SVGID_20_)"/></g><g><path d="m95.119 95.119h319.762v319.762h-319.762z" fill="url(#SVGID_21_)"/><path d="m414.881 131.348h-36.754l36.754 36.755z" fill="url(#SVGID_22_)"/><path d="m132.047 378.849v36.032h36.032z" fill="url(#SVGID_23_)"/><path d="m414.874 374.077v40.797h-40.364l-279.384-279.384v-40.364h40.775z" fill="url(#SVGID_24_)"/><path d="m114.066 114.066h281.868v281.868h-281.868z" fill="url(#SVGID_25_)"/><path d="m114.066 311.301h281.868v84.633h-281.868z" fill="url(#SVGID_26_)"/><path d="m132.047 378.849v17.085h17.085z" fill="url(#SVGID_27_)"/><path d="m114.066 154.43 241.504 241.504h40.364v-40.795l-241.091-241.073h-40.777z" fill="url(#SVGID_28_)"/><path d="m395.934 131.348h-17.807l17.807 17.808z" fill="url(#SVGID_29_)"/><g><g><path d="m121.285 135.901h-22.737c-8.073 0-14.617-6.544-14.617-14.617v-22.736c0-8.073 6.544-14.617 14.617-14.617h22.737c8.073 0 14.617 6.544 14.617 14.617v22.737c-.001 8.072-6.545 14.616-14.617 14.616z" fill="url(#SVGID_30_)"/><path d="m103.442 95.119h12.947c4.597 0 8.323 3.726 8.323 8.323v12.947c0 4.597-3.726 8.323-8.323 8.323h-12.947c-4.597 0-8.323-3.726-8.323-8.323v-12.947c0-4.596 3.727-8.323 8.323-8.323z" fill="url(#SVGID_31_)"/></g><g><path d="m411.452 135.901h-22.737c-8.073 0-14.617-6.544-14.617-14.617v-22.736c0-8.073 6.544-14.617 14.617-14.617h22.737c8.073 0 14.617 6.544 14.617 14.617v22.737c0 8.072-6.544 14.616-14.617 14.616z" fill="url(#SVGID_32_)"/><path d="m393.61 95.119h12.947c4.597 0 8.323 3.726 8.323 8.323v12.947c0 4.597-3.727 8.323-8.323 8.323h-12.947c-4.597 0-8.323-3.726-8.323-8.323v-12.947c0-4.596 3.726-8.323 8.323-8.323z" fill="url(#SVGID_33_)"/></g><g><path d="m121.285 426.069h-22.737c-8.073 0-14.617-6.544-14.617-14.617v-22.737c0-8.073 6.544-14.617 14.617-14.617h22.737c8.073 0 14.617 6.544 14.617 14.617v22.737c-.001 8.073-6.545 14.617-14.617 14.617z" fill="url(#SVGID_34_)"/><path d="m103.442 385.287h12.947c4.597 0 8.323 3.727 8.323 8.323v12.947c0 4.597-3.726 8.323-8.323 8.323h-12.947c-4.597 0-8.323-3.727-8.323-8.323v-12.947c0-4.597 3.727-8.323 8.323-8.323z" fill="url(#SVGID_35_)"/></g><g><path d="m411.452 426.069h-22.737c-8.073 0-14.617-6.544-14.617-14.617v-22.737c0-8.073 6.544-14.617 14.617-14.617h22.737c8.073 0 14.617 6.544 14.617 14.617v22.737c0 8.073-6.544 14.617-14.617 14.617z" fill="url(#SVGID_36_)"/><path d="m393.61 385.287h12.947c4.597 0 8.323 3.727 8.323 8.323v12.947c0 4.597-3.727 8.323-8.323 8.323h-12.947c-4.597 0-8.323-3.727-8.323-8.323v-12.947c0-4.597 3.726-8.323 8.323-8.323z" fill="url(#SVGID_37_)"/></g></g><path d="m258.519 262.94h-7.038c-2.442 0-4.421-1.979-4.421-4.421v-7.038c0-2.442 1.979-4.421 4.421-4.421h7.038c2.442 0 4.421 1.979 4.421 4.421v7.038c0 2.442-1.979 4.421-4.421 4.421z" fill="url(#SVGID_38_)"/></g><g><g><path d="m434.796 480.686h37.693c4.527 0 8.197-3.67 8.197-8.197v-37.693c0-6.381-7.715-9.577-12.227-5.065l-6.092 6.092-21.301-21.301c-2.098-2.098-5.498-2.098-7.596 0l-18.948 18.948c-2.098 2.098-2.098 5.498 0 7.596l21.301 21.301-6.092 6.092c-4.512 4.512-1.316 12.227 5.065 12.227z" fill="url(#SVGID_39_)"/><path d="m414.522 433.47c-2.098 2.098-2.098 5.498 0 7.596l21.301 21.301-6.092 6.092c-4.512 4.512-1.316 12.227 5.065 12.227h37.693c2.264 0 4.313-.917 5.796-2.401l-54.289-54.289z" fill="url(#SVGID_40_)"/></g><g><path d="m75.204 29.314h-37.693c-4.527 0-8.197 3.67-8.197 8.197v37.693c0 6.381 7.715 9.577 12.227 5.065l6.092-6.092 21.301 21.301c2.098 2.098 5.498 2.098 7.596 0l18.948-18.948c2.098-2.098 2.098-5.498 0-7.596l-21.301-21.301 6.092-6.092c4.512-4.512 1.316-12.227-5.065-12.227z" fill="url(#SVGID_41_)"/><path d="m95.478 76.53c2.098-2.098 2.098-5.498 0-7.596l-21.301-21.301 6.092-6.092c4.512-4.512 1.316-12.227-5.065-12.227h-37.693c-2.264 0-4.313.917-5.796 2.401l54.289 54.289z" fill="url(#SVGID_42_)"/></g><g><path d="m29.314 434.796v37.693c0 4.527 3.67 8.197 8.197 8.197h37.693c6.381 0 9.577-7.715 5.065-12.227l-6.092-6.092 21.301-21.301c2.098-2.098 2.098-5.498 0-7.596l-18.948-18.948c-2.098-2.098-5.498-2.098-7.596 0l-21.301 21.301-6.092-6.092c-4.512-4.512-12.227-1.316-12.227 5.065z" fill="url(#SVGID_43_)"/><path d="m76.53 414.522c-2.098-2.098-5.498-2.098-7.596 0l-21.301 21.301-6.092-6.092c-4.512-4.512-12.227-1.316-12.227 5.065v37.693c0 2.264.917 4.313 2.401 5.796l54.289-54.289z" fill="url(#SVGID_44_)"/></g><g><path d="m480.686 75.204v-37.693c0-4.527-3.67-8.197-8.197-8.197h-37.693c-6.381 0-9.577 7.715-5.065 12.227l6.092 6.092-21.301 21.301c-2.098 2.098-2.098 5.498 0 7.596l18.948 18.948c2.098 2.098 5.498 2.098 7.596 0l21.301-21.301 6.092 6.092c4.512 4.512 12.227 1.316 12.227-5.065z" fill="url(#SVGID_45_)"/><path d="m433.47 95.478c2.098 2.098 5.498 2.098 7.596 0l21.301-21.301 6.092 6.092c4.512 4.512 12.227 1.316 12.227-5.065v-37.693c0-2.264-.917-4.313-2.401-5.796l-54.289 54.289z" fill="url(#SVGID_46_)"/></g></g></g></svg>