<svg id="Capa_1" enable-background="new 0 0 510 510" height="512" viewBox="0 0 510 510" width="512" xmlns="http://www.w3.org/2000/svg" xmlns:xlink="http://www.w3.org/1999/xlink"><linearGradient id="lg1"><stop offset="0" stop-color="#edf5ff"/><stop offset="1" stop-color="#c7e9ff"/></linearGradient><linearGradient id="SVGID_1_" gradientUnits="userSpaceOnUse" x1="255" x2="255" xlink:href="#lg1" y1="167.719" y2="395.235"/><linearGradient id="lg2"><stop offset="0" stop-color="#2f73a0"/><stop offset="1" stop-color="#174461"/></linearGradient><linearGradient id="SVGID_2_" gradientUnits="userSpaceOnUse" x1="255" x2="255" xlink:href="#lg2" y1="52.834" y2="87.529"/><linearGradient id="SVGID_3_" gradientUnits="userSpaceOnUse" x1="255" x2="255" y1="186" y2="79.323"><stop offset="0" stop-color="#7acbff" stop-opacity="0"/><stop offset="1" stop-color="#2f73a0"/></linearGradient><linearGradient id="SVGID_4_" gradientUnits="userSpaceOnUse" x1="255" x2="255" xlink:href="#lg1" y1="36.953" y2="113.044"/><linearGradient id="SVGID_5_" gradientUnits="userSpaceOnUse" x1="255" x2="255" xlink:href="#lg2" y1="430.547" y2="465.241"/><linearGradient id="SVGID_6_" gradientUnits="userSpaceOnUse" x1="255" x2="255" xlink:href="#lg1" y1="433" y2="489.009"/><linearGradient id="SVGID_7_" gradientUnits="userSpaceOnUse" x1="90.228" x2="119.366" y1="303.682" y2="332.82"><stop offset="0" stop-color="#ff755c"/><stop offset="1" stop-color="#ff4181"/></linearGradient><linearGradient id="lg3"><stop offset="0" stop-color="#2f73a0"/><stop offset="1" stop-color="#43765a"/></linearGradient><linearGradient id="SVGID_8_" gradientUnits="userSpaceOnUse" x1="101.055" x2="210.655" xlink:href="#lg3" y1="232.755" y2="232.755"/><linearGradient id="SVGID_9_" gradientUnits="userSpaceOnUse" x1="241.021" x2="268.184" y1="176.751" y2="203.914"><stop offset="0" stop-color="#e4e08e"/><stop offset="1" stop-color="#6fa953"/></linearGradient><linearGradient id="SVGID_10_" gradientUnits="userSpaceOnUse" x1="227.943" x2="257.057" y1="321.986" y2="351.101"><stop offset="0" stop-color="#7acbff"/><stop offset="1" stop-color="#45a2e0"/></linearGradient><linearGradient id="SVGID_11_" gradientUnits="userSpaceOnUse" x1="240.411" x2="253.015" xlink:href="#lg3" y1="260.36" y2="260.36"/><g><path d="m60.457 83.283h389.085v343.434h-389.085z" fill="url(#SVGID_1_)"/><g><g><path d="m483.814 92.329h-457.628c-14.462 0-26.186-11.723-26.186-26.185 0-14.462 11.724-26.186 26.186-26.186h457.629c14.462 0 26.186 11.724 26.186 26.186-.001 14.462-11.725 26.185-26.187 26.185z" fill="url(#SVGID_2_)"/><path d="m359.919 426.717h89.624v-343.434h-389.086v43.973z" fill="url(#SVGID_3_)"/><path d="m453.226 123.573h-396.452c-12.181 0-22.056-9.875-22.056-22.056v-70.746c0-12.181 9.875-22.056 22.056-22.056h396.451c12.181 0 22.056 9.875 22.056 22.056v70.746c.001 12.181-9.874 22.056-22.055 22.056z" fill="url(#SVGID_4_)"/></g><g><path d="m483.814 470.042h-457.628c-14.462 0-26.186-11.724-26.186-26.186 0-14.462 11.724-26.186 26.186-26.186h457.629c14.462 0 26.186 11.724 26.186 26.186-.001 14.462-11.725 26.186-26.187 26.186z" fill="url(#SVGID_5_)"/><path d="m453.226 501.286h-396.452c-12.181 0-22.056-9.875-22.056-22.056v-70.746c0-12.181 9.875-22.056 22.056-22.056h396.451c12.181 0 22.056 9.875 22.056 22.056v70.746c.001 12.181-9.874 22.056-22.055 22.056z" fill="url(#SVGID_6_)"/></g></g><g><path d="m110.489 294.507-3.132 3.132-3.132-3.132c-6.399-6.399-16.773-6.399-23.172 0s-6.399 16.773 0 23.172l3.132 3.132-3.132 3.132c-6.399 6.399-6.399 16.773 0 23.172s16.773 6.399 23.172 0l3.132-3.132 3.132 3.132c6.399 6.399 16.773 6.399 23.172 0s6.399-16.773 0-23.172l-3.132-3.132 3.132-3.132c6.399-6.399 6.399-16.773 0-23.172-6.398-6.399-16.773-6.399-23.172 0z" fill="url(#SVGID_7_)"/><path d="m107.357 286.529c-3.48 0-6.302-2.822-6.302-6.302 0-9.006 1.184-17.941 3.52-26.556.911-3.359 4.37-5.344 7.731-4.434 3.359.911 5.344 4.372 4.434 7.731-2.044 7.54-3.081 15.365-3.081 23.258 0 3.481-2.821 6.303-6.302 6.303zm20.134-58.474c-1.358 0-2.727-.437-3.88-1.34-2.741-2.145-3.223-6.106-1.078-8.847 5.527-7.061 11.968-13.365 19.144-18.737 2.787-2.087 6.737-1.518 8.822 1.268 2.086 2.786 1.518 6.736-1.268 8.822-6.288 4.707-11.931 10.231-16.773 16.417-1.243 1.587-3.095 2.417-4.967 2.417zm51.882-33.683c-2.829 0-5.401-1.918-6.112-4.787-.837-3.378 1.222-6.796 4.601-7.633 7.95-1.971 16.171-2.97 24.434-2.97h.005 2.052c3.48 0 6.302 2.822 6.302 6.302s-2.822 6.302-6.302 6.302h-2.053c-.001 0-.004 0-.005 0-7.242 0-14.441.875-21.401 2.6-.509.126-1.019.186-1.521.186z" fill="url(#SVGID_8_)"/><circle cx="246.713" cy="182.443" fill="url(#SVGID_9_)" r="24.358"/><path d="m273.978 338.223-18.649-24.852c-4.739-6.315-12.494-6.315-17.233 0l-18.649 24.852c-3.791 5.053-1.106 13.692 4.256 13.692h46.02c5.362 0 8.047-8.639 4.255-13.692z" fill="url(#SVGID_10_)"/><path d="m246.713 304.289c-3.48 0-6.302-2.822-6.302-6.302v-25.208c0-3.48 2.822-6.302 6.302-6.302s6.302 2.822 6.302 6.302v25.208c0 3.481-2.822 6.302-6.302 6.302zm0-63.02c-3.48 0-6.302-2.822-6.302-6.302v-12.233c0-3.48 2.822-6.302 6.302-6.302s6.302 2.822 6.302 6.302v12.233c0 3.48-2.822 6.302-6.302 6.302z" fill="url(#SVGID_11_)"/></g><g><g><g fill="#45a2e0"><path d="m337.041 229.626h-38.046c-3.159 0-5.72-2.561-5.72-5.72v-13.779c0-3.159 2.561-5.72 5.72-5.72h38.046c3.159 0 5.72 2.561 5.72 5.72v13.779c-.001 3.159-2.561 5.72-5.72 5.72z"/><path d="m427.385 229.626h-67.215c-3.159 0-5.72-2.561-5.72-5.72v-13.779c0-3.159 2.561-5.72 5.72-5.72h67.215c3.159 0 5.72 2.561 5.72 5.72v13.779c-.001 3.159-2.562 5.72-5.72 5.72z"/></g><g fill="#45a2e0"><path d="m389.338 267.609h38.046c3.159 0 5.72-2.561 5.72-5.72v-13.779c0-3.159-2.561-5.72-5.72-5.72h-38.046c-3.159 0-5.72 2.561-5.72 5.72v13.779c.001 3.159 2.562 5.72 5.72 5.72z"/><path d="m298.995 267.609h67.215c3.159 0 5.72-2.561 5.72-5.72v-13.779c0-3.159-2.561-5.72-5.72-5.72h-67.215c-3.159 0-5.72 2.561-5.72 5.72v13.779c0 3.159 2.561 5.72 5.72 5.72z"/></g><g><path d="m337.041 305.592h-38.046c-3.159 0-5.72-2.561-5.72-5.72v-13.779c0-3.159 2.561-5.72 5.72-5.72h38.046c3.159 0 5.72 2.561 5.72 5.72v13.779c-.001 3.159-2.561 5.72-5.72 5.72z" fill="#45a2e0"/></g></g></g></g></svg>