<svg id="Capa_1" enable-background="new 0 0 510 510" height="512" viewBox="0 0 510 510" width="512" xmlns="http://www.w3.org/2000/svg" xmlns:xlink="http://www.w3.org/1999/xlink"><linearGradient id="lg1"><stop offset="0" stop-color="#7acbff"/><stop offset="1" stop-color="#45a2e0"/></linearGradient><linearGradient id="SVGID_1_" gradientUnits="userSpaceOnUse" x1="222.952" x2="266.755" xlink:href="#lg1" y1="129.224" y2="228.564"/><linearGradient id="SVGID_2_" gradientUnits="userSpaceOnUse" x1="138.794" x2="343.875" y1="244.271" y2="449.352"><stop offset="0" stop-color="#edf5ff"/><stop offset="1" stop-color="#c7e9ff"/></linearGradient><linearGradient id="lg2"><stop offset="0" stop-color="#7acbff" stop-opacity="0"/><stop offset="1" stop-color="#2f73a0"/></linearGradient><linearGradient id="SVGID_3_" gradientUnits="userSpaceOnUse" x1="255" x2="255" xlink:href="#lg2" y1="351.627" y2="238.996"/><linearGradient id="SVGID_4_" gradientUnits="userSpaceOnUse" x1="248.632" x2="263.425" xlink:href="#lg1" y1="197.226" y2="272.173"/><linearGradient id="SVGID_5_" gradientUnits="userSpaceOnUse" x1="255" x2="255" y1="169.65" y2="137.852"><stop offset="0" stop-color="#2f73a0"/><stop offset="1" stop-color="#174461"/></linearGradient><linearGradient id="lg3"><stop offset="0" stop-color="#fff5d9"/><stop offset="1" stop-color="#ffce47"/></linearGradient><linearGradient id="SVGID_6_" gradientUnits="userSpaceOnUse" x1="219.766" x2="337.935" xlink:href="#lg3" y1="35.26" y2="197.253"/><linearGradient id="SVGID_7_" gradientUnits="userSpaceOnUse" x1="264.39" x2="164.296" y1="47.159" y2="-52.935"><stop offset="0" stop-color="#ff9356" stop-opacity="0"/><stop offset="1" stop-color="#ff755c"/></linearGradient><linearGradient id="SVGID_8_" gradientUnits="userSpaceOnUse" x1="173.347" x2="216.588" xlink:href="#lg3" y1="28.342" y2="71.583"/><linearGradient id="SVGID_9_" gradientUnits="userSpaceOnUse" x1="255" x2="255" xlink:href="#lg2" y1="464.258" y2="526.079"/><g><path d="m371.349 117.627h-232.698c-10.451 0-20.533 3.866-28.305 10.854l-49.346 44.371c-7.548 6.787-11.858 16.459-11.858 26.609v12.428h411.716v-12.428c0-10.15-4.31-19.823-11.858-26.609l-49.346-44.37c-7.772-6.988-17.853-10.855-28.305-10.855z" fill="url(#SVGID_1_)"/><path d="m396.937 509.998h-283.874c-23.346 0-42.271-18.925-42.271-42.271v-232.011h368.416v232.011c0 23.346-18.925 42.271-42.271 42.271z" fill="url(#SVGID_2_)"/><path d="m439.208 235.718v232.008c0 23.349-18.925 42.274-42.274 42.274h-94.615l-231.527-231.539v-42.743z" fill="url(#SVGID_3_)"/><path d="m442.212 275.462h-374.424c-10.298 0-18.646-8.348-18.646-18.646v-54.656c0-10.298 8.348-18.646 18.646-18.646h374.424c10.298 0 18.646 8.348 18.646 18.646v54.656c0 10.298-8.348 18.646-18.646 18.646z" fill="url(#SVGID_4_)"/><path d="m365.29 167.3h-220.58c-6.264 0-11.342-5.078-11.342-11.342 0-6.264 5.078-11.342 11.342-11.342h220.58c6.264 0 11.342 5.078 11.342 11.342 0 6.264-5.078 11.342-11.342 11.342z" fill="url(#SVGID_5_)"/><g><path d="m365.344 154.397v-135.568c0-10.356-8.472-18.829-18.828-18.829h-132.525c-5.78 0-11.324 2.296-15.411 6.384l-47.541 47.541c-4.087 4.087-6.384 9.631-6.384 15.411v85.062h220.689z" fill="url(#SVGID_6_)"/><path d="m365.344 154.397v-135.568c0-10.356-8.472-18.829-18.828-18.829h-132.525c-5.78 0-11.324 2.296-15.411 6.384l-47.541 47.541c-3.033 3.032-5.076 6.867-5.931 11.005l89.468 89.468h130.768z" fill="url(#SVGID_7_)"/><path d="m145.301 64.048c-.07.303-.134.597-.193.881h57.672c4.084 0 7.394-3.311 7.394-7.394v-57.192c-.451.08-.924.174-1.413.282-4.299.951-8.219 3.161-11.333 6.275l-45.864 45.864c-3.099 3.101-5.277 7.011-6.263 11.284z" fill="url(#SVGID_8_)"/></g><path d="m70.792 401.578v66.149c0 23.346 18.925 42.271 42.271 42.271h283.874c23.346 0 42.271-18.925 42.271-42.271v-66.149z" fill="url(#SVGID_9_)"/></g></svg>