<svg id="Capa_1" enable-background="new 0 0 510 510" height="512" viewBox="0 0 510 510" width="512" xmlns="http://www.w3.org/2000/svg" xmlns:xlink="http://www.w3.org/1999/xlink"><linearGradient id="lg1"><stop offset="0" stop-color="#ffce47"/><stop offset="1" stop-color="#ff9356"/></linearGradient><linearGradient id="SVGID_1_" gradientUnits="userSpaceOnUse" x1="177.266" x2="477.986" xlink:href="#lg1" y1="177.266" y2="477.986"/><linearGradient id="SVGID_2_" gradientTransform="matrix(-1 0 0 -1 -1618 510)" gradientUnits="userSpaceOnUse" x1="-1941.936" x2="-1675.251" xlink:href="#lg1" y1="186.064" y2="452.75"/><linearGradient id="SVGID_3_" gradientUnits="userSpaceOnUse" x1="196.755" x2="422.081" y1="196.755" y2="422.081"><stop offset="0" stop-color="#edf5ff"/><stop offset="1" stop-color="#c7e9ff"/></linearGradient><linearGradient id="SVGID_4_" gradientUnits="userSpaceOnUse" x1="379.744" x2="207.509" y1="385.256" y2="213.021"><stop offset="0" stop-color="#7acbff" stop-opacity="0"/><stop offset="1" stop-color="#2f73a0"/></linearGradient><linearGradient id="lg2"><stop offset="0" stop-color="#2f73a0"/><stop offset="1" stop-color="#43765a"/></linearGradient><linearGradient id="SVGID_5_" gradientUnits="userSpaceOnUse" x1="250.122" x2="260.545" xlink:href="#lg2" y1="87.015" y2="97.438"/><linearGradient id="SVGID_6_" gradientUnits="userSpaceOnUse" x1="250.122" x2="260.545" xlink:href="#lg2" y1="413.228" y2="423.65"/><linearGradient id="SVGID_7_" gradientTransform="matrix(0 1 -1 0 -1618 -1064)" gradientUnits="userSpaceOnUse" x1="1314.121" x2="1324.544" xlink:href="#lg2" y1="-2040.984" y2="-2030.562"/><linearGradient id="SVGID_8_" gradientTransform="matrix(0 1 -1 0 -1618 -1064)" gradientUnits="userSpaceOnUse" x1="1314.121" x2="1324.544" xlink:href="#lg2" y1="-1714.772" y2="-1704.349"/><linearGradient id="SVGID_9_" gradientTransform="matrix(.868 .496 -.496 .868 -702.109 -39.35)" gradientUnits="userSpaceOnUse" x1="972.115" x2="982.537" xlink:href="#lg2" y1="-387.494" y2="-377.071"/><linearGradient id="SVGID_10_" gradientTransform="matrix(.868 .496 -.496 .868 -702.109 -39.35)" gradientUnits="userSpaceOnUse" x1="972.115" x2="982.537" xlink:href="#lg2" y1="-61.281" y2="-50.859"/><linearGradient id="SVGID_11_" gradientTransform="matrix(-.496 .868 -.868 -.496 -1578.65 -1766.109)" gradientUnits="userSpaceOnUse" x1="839.612" x2="850.035" xlink:href="#lg2" y1="-2762.977" y2="-2752.554"/><linearGradient id="SVGID_12_" gradientTransform="matrix(-.496 .868 -.868 -.496 -1578.65 -1766.109)" gradientUnits="userSpaceOnUse" x1="839.612" x2="850.035" xlink:href="#lg2" y1="-2436.764" y2="-2426.342"/><linearGradient id="SVGID_13_" gradientTransform="matrix(-.868 .496 .496 .868 148.109 -39.35)" gradientUnits="userSpaceOnUse" x1="48.421" x2="58.844" xlink:href="#lg2" y1="140.604" y2="151.026"/><linearGradient id="SVGID_14_" gradientTransform="matrix(-.868 .496 .496 .868 148.109 -39.35)" gradientUnits="userSpaceOnUse" x1="48.421" x2="58.844" xlink:href="#lg2" y1="466.816" y2="477.239"/><linearGradient id="SVGID_15_" gradientTransform="matrix(.496 .868 .868 -.496 1024.65 -1766.109)" gradientUnits="userSpaceOnUse" x1="1367.71" x2="1378.133" xlink:href="#lg2" y1="-1839.283" y2="-1828.861"/><linearGradient id="SVGID_16_" gradientTransform="matrix(.496 .868 .868 -.496 1024.65 -1766.109)" gradientUnits="userSpaceOnUse" x1="1367.71" x2="1378.133" xlink:href="#lg2" y1="-1513.071" y2="-1502.649"/><linearGradient id="lg3"><stop offset="0" stop-color="#ff755c"/><stop offset="1" stop-color="#ff4181"/></linearGradient><linearGradient id="SVGID_17_" gradientUnits="userSpaceOnUse" x1="276.555" x2="375.555" xlink:href="#lg3" y1="66.521" y2="237.521"/><linearGradient id="lg4"><stop offset="0" stop-color="#843561" stop-opacity="0"/><stop offset="1" stop-color="#3a2f4d"/></linearGradient><linearGradient id="SVGID_18_" gradientUnits="userSpaceOnUse" x1="305.663" x2="652.146" xlink:href="#lg4" y1="215.155" y2="338.149"/><linearGradient id="SVGID_19_" gradientUnits="userSpaceOnUse" x1="360" x2="215.986" xlink:href="#lg4" y1="221.883" y2="221.883"/><linearGradient id="SVGID_20_" gradientUnits="userSpaceOnUse" x1="421.569" x2="378.352" xlink:href="#lg4" y1="397.681" y2="354.465"/><linearGradient id="lg5"><stop offset="0" stop-color="#ffe0ea"/><stop offset="1" stop-color="#ffc0d5"/></linearGradient><linearGradient id="SVGID_21_" gradientTransform="matrix(-.707 .707 .707 .707 -2314.239 79.514)" gradientUnits="userSpaceOnUse" x1="-1726.439" x2="-1658.872" xlink:href="#lg5" y1="2125.26" y2="2125.26"/><linearGradient id="SVGID_22_" gradientTransform="matrix(-1 0 0 1 -1612.03 0)" gradientUnits="userSpaceOnUse" x1="-2004.7" x2="-1838.864" xlink:href="#lg1" y1="309.752" y2="309.752"/><linearGradient id="SVGID_23_" gradientTransform="matrix(-1 0 0 1 -1612.03 0)" gradientUnits="userSpaceOnUse" x1="-1903.583" x2="-1951.814" xlink:href="#lg1" y1="331.201" y2="282.97"/><linearGradient id="lg6"><stop offset="0" stop-color="#2f73a0"/><stop offset="1" stop-color="#174461"/></linearGradient><linearGradient id="SVGID_24_" gradientTransform="matrix(-.707 .707 .707 .707 -2314.239 79.514)" gradientUnits="userSpaceOnUse" x1="-1694.695" x2="-1677.455" xlink:href="#lg6" y1="2158.926" y2="2158.926"/><linearGradient id="SVGID_25_" gradientTransform="matrix(1 0 0 -1 198.007 1604.552)" gradientUnits="userSpaceOnUse" x1="23.21" x2="90.777" xlink:href="#lg5" y1="1532.232" y2="1532.232"/><linearGradient id="SVGID_26_" gradientTransform="matrix(.707 .707 .707 -.707 -354.755 1164.239)" gradientUnits="userSpaceOnUse" x1="-349.083" x2="-183.246" xlink:href="#lg1" y1="1128.488" y2="1128.488"/><linearGradient id="SVGID_27_" gradientTransform="matrix(.707 .707 .707 -.707 -354.755 1164.239)" gradientUnits="userSpaceOnUse" x1="-247.966" x2="-296.197" xlink:href="#lg1" y1="1149.937" y2="1101.706"/><linearGradient id="SVGID_28_" gradientTransform="matrix(1 0 0 -1 198.007 1604.552)" gradientUnits="userSpaceOnUse" x1="54.954" x2="72.194" xlink:href="#lg6" y1="1567.155" y2="1567.155"/><linearGradient id="SVGID_29_" gradientUnits="userSpaceOnUse" x1="242.314" x2="291.39" xlink:href="#lg3" y1="242.314" y2="291.39"/><g><circle cx="255" cy="255" fill="url(#SVGID_1_)" r="255"/><circle cx="255" cy="255" fill="url(#SVGID_2_)" r="226.141"/><circle cx="255" cy="255" fill="url(#SVGID_3_)" r="191.069"/><path d="m226.834 285.633 176.672 176.672c20.523-14.728 38.761-32.431 54.101-52.473l-174.72-174.719z" fill="url(#SVGID_4_)"/><g><g><g><circle cx="255" cy="91.893" fill="url(#SVGID_5_)" r="12.424"/><circle cx="255" cy="418.105" fill="url(#SVGID_6_)" r="12.424"/></g><g><circle cx="418.106" cy="254.999" fill="url(#SVGID_7_)" r="12.424"/><circle cx="91.894" cy="254.999" fill="url(#SVGID_8_)" r="12.424"/></g></g><g><g><circle cx="335.955" cy="113.402" fill="url(#SVGID_9_)" r="12.424"/><circle cx="174.045" cy="396.597" fill="url(#SVGID_10_)" r="12.424"/></g><g><circle cx="396.598" cy="335.954" fill="url(#SVGID_11_)" r="12.424"/><circle cx="113.402" cy="174.045" fill="url(#SVGID_12_)" r="12.424"/></g></g><g><g><circle cx="174.045" cy="113.402" fill="url(#SVGID_13_)" r="12.424"/><circle cx="335.955" cy="396.597" fill="url(#SVGID_14_)" r="12.424"/></g><g><circle cx="113.402" cy="335.954" fill="url(#SVGID_15_)" r="12.424"/><circle cx="396.598" cy="174.045" fill="url(#SVGID_16_)" r="12.424"/></g></g></g><g><path d="m255 28.859v226.141l159.906 159.906c40.923-40.923 66.235-97.459 66.235-159.906 0-124.894-101.247-226.141-226.141-226.141z" fill="url(#SVGID_17_)"/></g><path d="m255 63.931v191.069l135.106 135.106c34.577-34.577 55.963-82.344 55.963-135.106 0-105.525-85.544-191.069-191.069-191.069z" fill="url(#SVGID_18_)"/><path d="m256.519 28.879c-.507-.003-1.011-.019-1.519-.019v226.14l159.906 159.906c40.923-40.923 66.235-97.459 66.235-159.906 0-.508-.016-1.012-.019-1.519z" fill="url(#SVGID_19_)"/><path d="m392.671 344.896 22.079 69.854.156.156c7.987-7.987 15.37-16.576 22.095-25.68z" fill="url(#SVGID_20_)"/><g><g><path d="m392.671 344.894 18.605 52.045.772 14.294c1.147 3.209-15.109.043-15.109.043l-52.045-18.605c-13.232-13.233 34.545-61.01 47.777-47.777z" fill="url(#SVGID_21_)"/><path d="m229.535 277.319 115.361 115.352c1.308-2.267 3.296-4.273 5.842-5.694 3.479-1.927 8.92-.872 12.687.27.82.244 1.57-.183 1.875-.837.192-.392.227-.872.017-1.343-.009 0-.009-.009-.009-.009-.209-.48-.392-.968-.549-1.456-.07-.235-.139-.471-.209-.706-.009-.017-.009-.026-.009-.044-.201-.759-.34-1.517-.419-2.293-.026-.253-.044-.514-.061-.767-.022-.421-.026-.843-.012-1.264.095-2.948 1.059-5.876 2.89-8.363.445-.61.942-1.186 1.491-1.735s1.125-1.046 1.735-1.491c2.843-2.093 6.261-3.052 9.627-2.877.253.017.515.035.767.061.776.078 1.543.218 2.293.419.017 0 .026 0 .044.009.235.07.471.139.706.209.253.079.497.166.741.262.235.087.471.183.706.288.009 0 .009 0 .017.009.471.209.95.174 1.343-.017.654-.305 1.081-1.055.837-1.875-1.142-3.767-2.197-9.199-.27-12.678 1.421-2.555 3.418-4.543 5.694-5.851l-115.351-115.363c-3.61-3.601-9.452-3.601-13.053 0l-6.81 6.81-21.11 21.11-6.81 6.81c-3.602 3.602-3.602 9.444-.001 13.054z" fill="url(#SVGID_22_)"/><path d="m236.345 257.455 128.955 128.955c.192-.392.227-.872.017-1.343-.009 0-.009-.009-.009-.009-.209-.48-1.116-3.732-1.186-4.499-.035-.262-.052-.514-.061-.767-.174-3.366.785-6.784 2.878-9.626.445-.61.942-1.186 1.491-1.735s1.125-1.046 1.735-1.491c2.843-2.093 6.261-3.052 9.627-2.877.253.009.506.026.767.061.767.07 1.535.209 2.293.419.017 0 .026 0 .044.009.235.061 1.918.654 2.154.759.009 0 .009 0 .017.009.471.209.95.174 1.343-.017l-128.955-128.958z" fill="url(#SVGID_23_)"/><path d="m402.993 402.993c2.51-2.51 5.315-4.524 8.283-6.054l5.105 14.281c1.147 3.209-1.952 6.308-5.161 5.161l-14.281-5.105c1.53-2.968 3.544-5.773 6.054-8.283z" fill="url(#SVGID_24_)"/></g></g><g><g><path d="m221.216 94.59 23.645-49.957s8.68-11.131 10.138-8.051l10.138 8.05 23.645 49.957c.001 18.714-67.566 18.714-67.566.001z" fill="url(#SVGID_25_)"/><path d="m288.788 257.727-.006-163.139c-2.528.678-5.352.691-8.157-.105-3.823-1.098-6.924-5.691-8.78-9.162-.407-.752-1.239-.98-1.918-.734-.413.142-.777.456-.962.937.006.006 0 .012 0 .012-.191.487-.407.962-.641 1.418-.117.216-.234.432-.351.647-.006.018-.012.025-.025.037-.395.678-.832 1.313-1.326 1.918-.16.197-.333.395-.499.586-.282.313-.578.614-.885.902-2.152 2.017-4.903 3.406-7.957 3.87-.746.117-1.504.173-2.281.173s-1.535-.056-2.281-.173c-3.49-.53-6.585-2.269-8.842-4.772-.167-.191-.339-.388-.499-.586-.493-.604-.937-1.245-1.326-1.918-.012-.012-.019-.019-.025-.037-.117-.216-.234-.432-.351-.647-.123-.234-.234-.468-.339-.709-.105-.228-.203-.462-.296-.703-.006-.006-.006-.006-.006-.019-.185-.481-.549-.795-.962-.937-.678-.247-1.511-.018-1.918.734-1.856 3.471-4.951 8.059-8.774 9.156-2.812.801-5.629.795-8.163.111l-.006 163.139c.006 5.099 4.137 9.23 9.23 9.23h9.631 29.854 9.631c5.093.001 9.224-4.13 9.23-9.229z" fill="url(#SVGID_26_)"/><path d="m269.927 266.957v-182.369c-.413.142-.777.456-.962.937.006.006 0 .012 0 .012-.191.487-1.85 3.428-2.343 4.02-.16.21-.327.401-.499.586-2.257 2.503-5.352 4.242-8.842 4.772-.746.117-1.504.173-2.281.173s-1.535-.056-2.281-.173c-3.49-.53-6.585-2.269-8.842-4.772-.173-.185-.339-.376-.499-.586-.493-.592-.937-1.233-1.326-1.918-.012-.012-.019-.019-.025-.037-.123-.21-.894-1.819-.987-2.059-.006-.006-.006-.006-.006-.019-.185-.481-.549-.795-.962-.937v182.37z" fill="url(#SVGID_27_)"/><path d="m255 46.209c-3.55 0-6.957-.56-10.138-1.576l6.488-13.708c1.458-3.08 5.841-3.08 7.299 0l6.488 13.708c-3.18 1.016-6.588 1.576-10.137 1.576z" fill="url(#SVGID_28_)"/></g></g><circle cx="255" cy="255" fill="url(#SVGID_29_)" r="41.615"/></g></svg>