<svg height="496pt" viewBox="0 0 496 496" width="496pt" xmlns="http://www.w3.org/2000/svg" xmlns:xlink="http://www.w3.org/1999/xlink"><linearGradient id="a" gradientUnits="userSpaceOnUse" x1="248" x2="248" y1="496" y2="0"><stop offset="0" stop-color="#9f2fff"/><stop offset="1" stop-color="#0bb1d3"/></linearGradient><path d="m400 208h-144v-16h48v-96h-112v96h48v16h-144v32h-48v96h112v-96h-48v-16h128v16h-48v96h112v-96h-48v-16h128v16h-48v96h112v-96h-48zm-256 48v64h-80v-64zm144 0v64h-80v-64zm-80-80v-64h80v64zm224 80v64h-80v-64zm-169.59375-194.289062-11.191406-11.429688c12.03125-11.785156 27.9375-18.28125 44.785156-18.28125s32.753906 6.496094 44.785156 18.28125l-11.191406 11.429688c-9.027344-8.847657-20.953125-13.710938-33.59375-13.710938s-24.566406 4.863281-33.59375 13.710938zm137.59375 98.289062v-16c8.824219 0 16-7.175781 16-16s-7.175781-16-16-16v-16c17.648438 0 32 14.351562 32 32s-14.351562 32-32 32zm-304-16v16c-17.648438 0-32-14.351562-32-32h16c0 8.824219 7.175781 16 16 16zm360-48h-.65625c-11.085938-19.097656-31.71875-32-55.34375-32-4.382812 0-8.761719.464844-13.089844 1.382812-13.007812-38.886718-49.285156-65.382812-90.910156-65.382812-26.871094 0-51.816406 11.046875-69.65625 29.910156-13.449219-18.605468-35.070312-29.910156-58.34375-29.910156-37 0-67.542969 28.0625-71.527344 64.023438-.160156 0-.3125-.023438-.472656-.023438-23.625 0-44.257812 12.902344-55.34375 32h-.65625c-22.054688 0-40 17.945312-40 40v240c0 22.054688 17.945312 40 40 40h132.894531l-10.664062 32h-26.230469c-13.230469 0-24 10.769531-24 24v24h272v-24c0-13.230469-10.769531-24-24-24h-26.230469l-10.664062-32h132.894531c22.054688 0 40-17.945312 40-40v-240c0-22.054688-17.945312-40-40-40zm-96 368c4.40625 0 8 3.59375 8 8v8h-240v-8c0-4.40625 3.59375-8 8-8h160v-16h-116.894531l10.664062-32h116.460938l16 48zm120-88c0 13.230469-10.769531 24-24 24h-416c-13.230469 0-24-10.769531-24-24v-8h464zm0-24h-464v-216c0-11.105469 7.617188-20.382812 17.878906-23.113281-1.183594 4.855469-1.878906 9.898437-1.878906 15.113281 0 35.289062 28.710938 64 64 64h80v-16h-80c-26.472656 0-48-21.527344-48-48s21.527344-48 48-48c13.007812 0 25.183594 5.121094 34.289062 14.40625l11.429688-11.191406c-8.222656-8.390625-18.351562-14.160156-29.40625-17.054688 2.925781-28.144531 26.785156-50.160156 55.6875-50.160156 19.65625 0 37.769531 10.390625 47.886719 27.152344-1.941407 2.953125-3.78125 6-5.421875 9.199218l14.246094 7.28125c13.769531-26.914062 41.082031-43.632812 71.289062-43.632812 37 0 68.929688 25.128906 77.65625 61.105469l2.078125 8.589843 8.34375-2.933593c5.226563-1.832031 10.578125-2.761719 15.921875-2.761719 26.472656 0 48 21.527344 48 48s-21.527344 48-48 48h-80v16h80c35.289062 0 64-28.710938 64-64 0-5.214844-.695312-10.257812-1.878906-15.113281 10.261718 2.730469 17.878906 12.007812 17.878906 23.113281zm0 0" fill="url(#a)"/></svg>