<svg height="497pt" viewBox="0 0 497.888 497" width="497pt" xmlns="http://www.w3.org/2000/svg" xmlns:xlink="http://www.w3.org/1999/xlink"><linearGradient id="a" gradientUnits="userSpaceOnUse" x1="248.9456" x2="248.9456" y1="496.444" y2=".444"><stop offset="0" stop-color="#9f2fff"/><stop offset="1" stop-color="#0bb1d3"/></linearGradient><path d="m344 368.445312c13.230469 0 24-10.769531 24-24 0-13.234374-10.769531-24-24-24s-24 10.765626-24 24c0 13.230469 10.769531 24 24 24zm0-32c4.414062 0 8 3.589844 8 8 0 4.40625-3.585938 8-8 8s-8-3.59375-8-8c0-4.410156 3.585938-8 8-8zm153.886719-280-105.886719-52.945312v28.945312h-56v-32h-267.3125l-68.6875 68.6875v331.3125h202.824219c22.359375 56.152344 77.152343 96 141.175781 96 83.816406 0 152-68.183593 152-152 0-83.816406-68.183594-152-152-152-2.703125 0-5.335938.261719-8 .40625v-32.40625h32v-16h-128v19.054688l-54.113281-27.054688 54.113281-27.058593v19.058593h128v-16h-32v-32h56v28.941407zm-433.886719-28.6875v36.6875h-36.6875zm128.40625 324.6875h-144.40625v-80h162.183594c-11.582032 21.445313-18.183594 45.957032-18.183594 72 0 2.703126.265625 5.335938.40625 8zm44.898438 76.070313 57.4375-57.449219c5.1875 9.554688 13.074218 17.441406 22.625 22.625l-57.4375 57.441406c-8.402344-6.632812-15.984376-14.21875-22.625-22.617187zm66.695312-84.070313c0-22.058593 17.945312-40 40-40s40 17.941407 40 40c0 22.054688-17.945312 40-40 40s-40-17.945312-40-40zm155.953125-70.707031c12.632813 20.632813 20.046875 44.792969 20.046875 70.707031 0 74.992188-61.007812 136-136 136-25.910156 0-50.070312-7.417968-70.703125-20.050781l60.871094-60.871093c3.199219.570312 6.472656.921874 9.832031.921874 30.871094 0 56-25.121093 56-56 0-3.359374-.351562-6.632812-.921875-9.824218zm-9.257813-13.367187-57.4375 57.449218c-5.1875-9.550781-13.074218-17.441406-22.625-22.625l57.4375-57.4375c8.402344 6.628907 15.984376 14.214844 22.625 22.613282zm-106.695312-51.925782c25.910156 0 50.070312 7.414063 70.703125 20.046876l-60.871094 60.871093c-3.199219-.566406-6.472656-.917969-9.832031-.917969-30.871094 0-56 25.117188-56 56 0 3.359376.351562 6.628907.921875 9.824219l-60.875 60.878907c-12.632813-20.632813-20.046875-44.792969-20.046875-70.703126 0-74.992187 61.007812-136 136-136zm-56-144v16h32v32h-64v-28.945312l-105.886719 52.945312 105.886719 52.941407v-28.941407h64v34.085938c-41.007812 6.554688-76.542969 29.457031-99.703125 61.914062h-188.296875v112h162.089844c.871094 5.4375 2 10.765626 3.429687 16h-181.519531v-304h16v96h136v-16h-120v-80h32v-32h192v-16h-192v-16h240v16h-32v16h120v-19.058593l54.113281 27.058593-54.113281 27.054688v-19.054688zm-256 128h168v16h-168zm0 32h168v16h-168zm297.136719 17.046876-2.265625-15.832032c5.632812-.808594 11.402344-1.214844 17.128906-1.214844v16c-4.976562 0-9.976562.351563-14.863281 1.046876zm-105.136719 102.953124c0-52.707031 35.246094-100.007812 85.71875-115.035156l4.5625 15.335938c-43.738281 13.019531-74.28125 54.019531-74.28125 99.699218zm0 0" fill="url(#a)"/></svg>