<svg height="496pt" viewBox="-24 0 496 496" width="496pt" xmlns="http://www.w3.org/2000/svg" xmlns:xlink="http://www.w3.org/1999/xlink"><linearGradient id="a" gradientUnits="userSpaceOnUse" x1="224" x2="224" y1="496" y2="0"><stop offset="0" stop-color="#9f2fff"/><stop offset="1" stop-color="#0bb1d3"/></linearGradient><path d="m160 464h128c13.230469 0 24-10.769531 24-24v-128c0-10.414062-6.710938-19.214844-16-22.527344v-41.472656c0-39.695312-32.304688-72-72-72s-72 32.304688-72 72v41.472656c-9.289062 3.3125-16 12.113282-16 22.527344v128c0 13.230469 10.769531 24 24 24zm8-216c0-30.878906 25.121094-56 56-56s56 25.121094 56 56v40h-16v-40c0-22.054688-17.945312-40-40-40s-40 17.945312-40 40v40h-16zm80 0v40h-48v-40c0-13.230469 10.769531-24 24-24s24 10.769531 24 24zm-96 64c0-4.40625 3.59375-8 8-8h128c4.40625 0 8 3.59375 8 8v128c0 4.40625-3.59375 8-8 8h-128c-4.40625 0-8-3.59375-8-8zm48 79.832031v40.167969h48v-40.167969c9.96875-7.511719 16-19.328125 16-31.832031 0-22.054688-17.945312-40-40-40s-40 17.945312-40 40c0 12.503906 6.03125 24.328125 16 31.832031zm24-55.832031c13.230469 0 24 10.769531 24 24 0 8.542969-4.496094 16.265625-12.023438 20.648438l-3.976562 2.3125v33.039062h-16v-33.039062l-3.976562-2.3125c-7.527344-4.382813-12.023438-12.105469-12.023438-20.648438 0-13.230469 10.769531-24 24-24zm-152-96h16v256h272v-256h16c39.695312 0 72-32.304688 72-72 0-37.089844-28.191406-67.71875-64.273438-71.59375-3.894531-53.8125-48.933593-96.40625-103.726562-96.40625-34.433594 0-65.230469 16.65625-84.230469 42.902344-15.082031-16.980469-36.707031-26.902344-59.769531-26.902344-44.113281 0-80 35.886719-80 80 0 .617188.089844 1.214844.105469 1.832031-32.066407 7.265625-56.105469 35.9375-56.105469 70.167969 0 39.695312 32.304688 72 72 72zm272 240h-240v-320h240zm-272-368c7.265625 0 14.335938 1.367188 21 4.0625l6.007812-14.832031c-8.59375-3.46875-17.671874-5.230469-27.007812-5.230469 0-35.289062 28.710938-64 64-64 20.152344 0 38.886719 9.519531 50.976562 25.496094-4.480468 9.015625-7.792968 18.785156-9.535156 29.183594l15.78125 2.648437c7.121094-42.496094 43.617188-73.328125 86.777344-73.328125 48.519531 0 88 39.480469 88 88v8h8c30.878906 0 56 25.121094 56 56s-25.121094 56-56 56h-16v-80h-272v80h-16c-30.878906 0-56-25.121094-56-56s25.121094-56 56-56zm208-64v-16c39.695312 0 72 32.304688 72 72h-16c0-30.878906-25.121094-56-56-56zm-232 120h-16c0-22.054688 17.945312-40 40-40v16c-13.230469 0-24 10.769531-24 24zm184-40h-16v-16h16zm32 0h-16v-16h16zm32 0h-16v-16h16zm-96 0h-16v-16h16zm-32 0h-16v-16h16zm0 0" fill="url(#a)"/></svg>