<svg version="1.0" xmlns="http://www.w3.org/2000/svg"
 width="512.000000pt" height="512.000000pt" viewBox="0 0 512.000000 512.000000"
 preserveAspectRatio="xMidYMid meet">
<g transform="translate(0.000000,512.000000) scale(0.100000,-0.100000)"
fill="#00427e" stroke="none">
<path d="M2494 4789 c-46 -13 -1853 -1026 -1888 -1058 -16 -14 -37 -44 -47
-66 -18 -38 -19 -90 -19 -1104 0 -1046 0 -1065 20 -1106 11 -23 30 -51 43 -62
19 -18 1721 -979 1845 -1042 54 -27 117 -36 167 -22 45 12 1867 1031 1902
1064 13 11 32 40 44 63 20 43 20 51 21 1103 l1 1059 -24 48 c-13 26 -40 60
-59 75 -43 34 -1821 1028 -1870 1045 -41 15 -92 16 -136 3z m207 -739 c276
-28 548 -134 761 -296 131 -100 280 -261 361 -391 l27 -42 -68 -39 c-259 -151
-584 -334 -586 -331 -2 2 -27 33 -55 69 -338 425 -1016 351 -1247 -135 -57
-119 -77 -220 -71 -354 9 -234 108 -428 284 -561 136 -103 279 -151 453 -151
236 0 450 104 585 283 27 35 52 67 56 72 5 6 622 -322 658 -350 8 -6 -110
-173 -177 -249 -210 -242 -503 -412 -832 -482 -121 -26 -459 -26 -580 0 -578
123 -1028 555 -1165 1117 -193 801 304 1612 1107 1805 172 41 319 52 489 35z"/>
</g>
</svg>
