<svg id="Capa_1" enable-background="new 0 0 510 510" height="512" viewBox="0 0 510 510" width="512" xmlns="http://www.w3.org/2000/svg" xmlns:xlink="http://www.w3.org/1999/xlink"><linearGradient id="lg1"><stop offset="0" stop-color="#ffdecf"/><stop offset="1" stop-color="#faa68e"/></linearGradient><linearGradient id="SVGID_1_" gradientTransform="matrix(.253 -.967 .967 .253 -524.253 92.337)" gradientUnits="userSpaceOnUse" x1="-83.339" x2="-90.342" xlink:href="#lg1" y1="854.065" y2="889.905"/><linearGradient id="SVGID_2_" gradientTransform="matrix(.034 -.999 .999 .034 -647.767 374.867)" gradientUnits="userSpaceOnUse" x1="38.426" x2="11.021" xlink:href="#lg1" y1="954.58" y2="981.985"/><linearGradient id="SVGID_3_" gradientTransform="matrix(.253 -.967 .967 .253 -524.253 92.337)" gradientUnits="userSpaceOnUse" x1="-42.229" x2="-77.329" xlink:href="#lg1" y1="897.531" y2="932.631"/><linearGradient id="SVGID_4_" gradientUnits="userSpaceOnUse" x1="250.74" x2="271.785" xlink:href="#lg1" y1="376.613" y2="554.227"/><linearGradient id="lg2"><stop offset="0" stop-color="#ffdecf" stop-opacity="0"/><stop offset="1" stop-color="#fff"/></linearGradient><linearGradient id="SVGID_5_" gradientUnits="userSpaceOnUse" x1="241.893" x2="173.775" xlink:href="#lg2" y1="380.768" y2="200.804"/><linearGradient id="SVGID_6_" gradientUnits="userSpaceOnUse" x1="192.363" x2="222.104" xlink:href="#lg2" y1="412.051" y2="490.208"/><linearGradient id="SVGID_7_" gradientUnits="userSpaceOnUse" x1="180.614" x2="342.219" y1="91.794" y2="253.399"><stop offset="0" stop-color="#ff755c"/><stop offset="1" stop-color="#ff4181"/></linearGradient><linearGradient id="SVGID_8_" gradientUnits="userSpaceOnUse" x1="254.998" x2="254.998" y1="258.327" y2="390.309"><stop offset="0" stop-color="#843561" stop-opacity="0"/><stop offset="1" stop-color="#3a2f4d"/></linearGradient><g><g><g><path d="m310.361 359.909c-4.193 1.715-7.455 4.865-8.777 9.013l-10.747 33.697c-3.954 12.387-11.66 23.312-22.2 31.844 20.367 6.203 41.607-1.258 49.034-17.323 1.889-4.086 3.543-8.283 4.953-12.577l9.464-28.865c1.714-5.227-.069-10.806-4.143-14.956-1.061-.517-2.172-.959-3.346-1.31-5.004-1.518-10.083-1.223-14.238.477z" fill="url(#SVGID_1_)"/><path d="m374.486 360.06-24.606 40.272c-3.663 5.992-7.596 11.777-11.783 17.342-16.459 21.878-46.886 27.619-70.282 13.401 17.187-9.98 31.781-24.199 42.203-41.508l28.339-47.089c3.487-5.798 9.026-9.638 15.138-11.129 6.055-1.478 12.688-.652 18.439 2.831 1.352.809 2.583 1.738 3.718 2.765 3.42 7.141 3.29 15.822-1.166 23.115z" fill="url(#SVGID_2_)"/><path d="m419.43 368.379-42.098 43.372c-6.266 6.452-12.812 12.571-19.612 18.342-26.732 22.69-66.364 21.281-91.583-3.08 24.287-7.621 46.529-21.269 64.43-39.953l48.685-50.836c5.992-6.259 13.994-9.495 22.05-9.634 7.982-.138 16.035 2.763 22.238 8.737 1.461 1.393 2.736 2.9 3.865 4.503 2.26 9.886-.351 20.694-7.975 28.549z" fill="url(#SVGID_3_)"/><path d="m473.514 380.537-39.909 41.145c-48.603 50.09-115.212 78.917-185.152 80.121l-74.884 1.299c-31.411.546-62.752 2.732-93.89 6.551-27.378 3.357-51.51-18.024-51.51-45.607v-58.899c0-17.97 10.474-34.291 26.811-41.776l.004-.002c16.11-7.385 33.373-11.03 50.572-11.03 23.034 0 45.963 6.547 65.886 19.431 30.282 19.577 65.739 29.696 101.846 29.078l18.216-.314c15.063-.262 27.486 11.543 28.02 26.47 24.605-6.966 47.147-20.342 65.111-39.102l46.162-48.184c11.334-11.836 30.188-12.224 41.993-.859 11.764 11.311 12.089 29.967.724 41.678z" fill="url(#SVGID_4_)"/><path d="m461.416 367.045-39.909 41.145c-48.603 50.09-115.212 78.917-185.152 80.121l-74.894 1.299c-27.578.478-55.105 2.225-82.488 5.227-27.136 2.975-50.803-18.394-50.803-45.692v-44.003c0-17.967 10.472-34.287 26.805-41.774 15.471-7.081 31.99-10.737 48.488-11.019 23.736-.408 47.451 6.138 67.981 19.41 30.282 19.577 65.75 29.717 101.846 29.088l18.216-.314c5.017-.084 9.741 1.163 13.827 3.425 3.404 1.875 6.348 4.441 8.663 7.521 3.3 4.337 5.321 9.7 5.531 15.524 24.605-6.976 47.147-20.352 65.111-39.092l46.162-48.194c9.668-10.108 24.825-11.868 36.389-5.08 4.743 10.642 2.847 23.525-5.773 32.408z" fill="url(#SVGID_5_)"/><path d="m319.523 427.004c-.531-14.924-12.959-26.737-28.02-26.476l-18.217.315c-36.1.625-71.562-9.501-101.839-29.077-34.802-22.503-78.764-25.671-116.464-8.393l-3.558 1.631 73.022 70.537 36.779 8.671c36.394 8.58 73.715 12.593 111.101 11.946l19.666-.34c15.21-.263 27.809-12.815 27.546-28.025-.006-.171-.016-.789-.016-.789z" fill="url(#SVGID_6_)"/></g></g><path d="m467.214 166.18c0-91.778-95.011-166.18-212.213-166.18-117.549 0-212.216 74.131-212.215 166.181 0 90.18 91.731 163.583 206.112 166.112 3.395.075 6.103 2.241 6.103 4.901v22.597c0 7.859 12.133 11.794 19.229 6.237l41.942-32.844c9.015-7.059 19.45-12.923 30.932-17.261 71.071-26.852 120.11-83.809 120.11-149.743z" fill="url(#SVGID_7_)"/><g><g><g fill="#843561"><path d="m206.884 131.888h-73.452c-5.383 0-9.746-4.363-9.746-9.746v-19.492c0-5.383 4.363-9.746 9.746-9.746h73.452c5.383 0 9.746 4.363 9.746 9.746v19.492c0 5.382-4.364 9.746-9.746 9.746z"/><path d="m376.568 131.888h-128.236c-5.383 0-9.746-4.363-9.746-9.746v-19.492c0-5.383 4.363-9.746 9.746-9.746h128.236c5.383 0 9.746 4.363 9.746 9.746v19.492c0 5.382-4.363 9.746-9.746 9.746z"/></g><g fill="#843561"><path d="m303.116 190.604h73.452c5.383 0 9.746-4.363 9.746-9.746v-19.492c0-5.383-4.363-9.746-9.746-9.746h-73.452c-5.383 0-9.746 4.363-9.746 9.746v19.492c0 5.383 4.364 9.746 9.746 9.746z"/><path d="m133.432 190.604h128.236c5.383 0 9.746-4.363 9.746-9.746v-19.492c0-5.383-4.363-9.746-9.746-9.746h-128.236c-5.383 0-9.746 4.363-9.746 9.746v19.492c0 5.383 4.363 9.746 9.746 9.746z"/></g><g><path d="m206.884 249.32h-73.452c-5.383 0-9.746-4.363-9.746-9.746v-19.492c0-5.383 4.363-9.746 9.746-9.746h73.452c5.383 0 9.746 4.363 9.746 9.746v19.492c0 5.383-4.364 9.746-9.746 9.746z" fill="#843561"/></g></g></g><path d="m67.937 244.71c34.891 50.858 102.608 85.851 180.96 87.583 3.395.075 6.103 2.242 6.103 4.902v22.597c0 7.859 12.133 11.794 19.229 6.237l41.942-32.844c9.015-7.059 19.45-12.923 30.932-17.261 40.451-15.284 73.757-40.323 94.955-71.215h-374.121z" fill="url(#SVGID_8_)"/></g></svg>