<svg id="Capa_1" enable-background="new 0 0 510 510" height="512" viewBox="0 0 510 510" width="512" xmlns="http://www.w3.org/2000/svg" xmlns:xlink="http://www.w3.org/1999/xlink"><linearGradient id="lg1"><stop offset="0" stop-color="#ffe0ea"/><stop offset="1" stop-color="#ff80ab"/></linearGradient><linearGradient id="SVGID_1_" gradientUnits="userSpaceOnUse" x1="177.527" x2="352.609" xlink:href="#lg1" y1="119.147" y2="396.062"/><linearGradient id="lg2"><stop offset="0" stop-color="#ff4181" stop-opacity="0"/><stop offset="1" stop-color="#ff4181"/></linearGradient><linearGradient id="SVGID_2_" gradientUnits="userSpaceOnUse" x1="228.769" x2="384.795" xlink:href="#lg2" y1="108.661" y2="-99.771"/><linearGradient id="SVGID_3_" gradientUnits="userSpaceOnUse" x1="211.541" x2="-45.722" xlink:href="#lg2" y1="311.149" y2="661.314"/><linearGradient id="SVGID_4_" gradientUnits="userSpaceOnUse" x1="319.444" x2="171.756" xlink:href="#lg2" y1="356.154" y2="293.824"/><linearGradient id="SVGID_5_" gradientUnits="userSpaceOnUse" x1="366.482" x2="209.496" xlink:href="#lg2" y1="320.313" y2="180.511"/><linearGradient id="SVGID_6_" gradientUnits="userSpaceOnUse" x1="141.726" x2="-156.958" xlink:href="#lg2" y1="158.565" y2="183.555"/><linearGradient id="SVGID_7_" gradientUnits="userSpaceOnUse" x1="209.819" x2="163.321" y1="170.947" y2="64.453"><stop offset="0" stop-color="#ffe0ea" stop-opacity="0"/><stop offset="1" stop-color="#fff"/></linearGradient><linearGradient id="SVGID_8_" gradientUnits="userSpaceOnUse" x1="412.132" x2="488.359" xlink:href="#lg2" y1="268.098" y2="414.992"/><linearGradient id="lg3"><stop offset="0" stop-color="#fff5d9"/><stop offset="1" stop-color="#ffce47"/></linearGradient><linearGradient id="SVGID_9_" gradientUnits="userSpaceOnUse" x1="146.232" x2="233.933" xlink:href="#lg3" y1="323.401" y2="411.102"/><linearGradient id="lg4"><stop offset="0" stop-color="#ffebb4" stop-opacity="0"/><stop offset="1" stop-color="#ffce47"/></linearGradient><linearGradient id="SVGID_10_" gradientUnits="userSpaceOnUse" x1="228.203" x2="68.979" xlink:href="#lg4" y1="383.528" y2="317.249"/><linearGradient id="SVGID_11_" gradientUnits="userSpaceOnUse" x1="278.362" x2="324.781" xlink:href="#lg3" y1="232.573" y2="278.993"/><linearGradient id="SVGID_12_" gradientUnits="userSpaceOnUse" x1="321.748" x2="237.472" xlink:href="#lg4" y1="264.398" y2="229.317"/><linearGradient id="SVGID_13_" gradientUnits="userSpaceOnUse" x1="244.971" x2="420.053" xlink:href="#lg1" y1="76.505" y2="353.42"/><g><path d="m506.724 266.747c0-24.847-9.525-47.456-25.106-64.417-2.695-2.933-3.596-7.047-2.536-10.886 1.758-6.364 2.701-13.066 2.701-19.989 0-36.196-25.635-66.396-59.739-73.457-4.168-.863-7.485-4.068-8.549-8.189-8.346-32.333-37.703-56.219-72.643-56.219-5.936 0-11.706.7-17.241 2.009-4.158.983-8.503-.332-11.339-3.528-17.454-19.669-42.913-32.071-71.278-32.071-40.228 0-74.613 24.936-88.59 60.188-2.203 5.556-7.525 9.159-13.501 9.152-.035 0-.07 0-.105 0-52.628 0-95.292 42.664-95.292 95.292 0 .331.002.661.005.991.139 13.304-5.029 26.005-14.174 35.668-16.49 17.426-26.473 41.069-26.048 67.054.806 49.156 39.518 90.084 88.564 93.463 14.617 1.007 28.579-1.304 41.234-6.234 5.873-2.288 12.552-1.049 17.008 3.409 25.355 25.362 60.384 41.053 99.081 41.053 24.01 0 46.609-6.041 66.361-16.685 9.948-5.361 22.344-1.226 26.968 9.085l22.059 49.188c8.434 18.806 30.516 27.214 49.323 18.78 18.806-8.434 27.214-30.516 18.78-49.323l-22.003-49.062c.257.002.51.019.767.019 52.629.001 95.293-42.662 95.293-95.291z" fill="url(#SVGID_1_)"/><path d="m299.007 170.895c-16.067 12.339-36.184 19.688-58.015 19.688-52.632 0-95.295-42.663-95.295-95.295 0-52.62 42.663-95.283 95.295-95.283 30.919 0 58.385 14.721 75.797 37.529-29.633 10.029-50.964 38.065-50.964 71.081 0 25.942 13.161 48.809 33.182 62.28z" fill="url(#SVGID_2_)"/><circle cx="249.176" cy="259.925" fill="url(#SVGID_3_)" r="140.112"/><path d="m432.209 442.595-210.366-210.367c-3.94-7.409-13.138-8.071-18.497.497l-79.958 125.453c4.139-1.002 5.791-1.082 9.7-2.605 5.873-2.288 12.552-1.049 17.008 3.409 25.355 25.362 60.384 41.053 99.081 41.053 24.01 0 46.609-6.041 66.361-16.685 9.948-5.36 22.344-1.226 26.968 9.085l22.059 49.188c8.434 18.806 30.516 27.214 49.323 18.78 8.343-3.74 14.634-10.172 18.321-17.808z" fill="url(#SVGID_4_)"/><path d="m410.665 362.02c.257.002.51.019.767.019 23.474 0 44.951-8.504 61.558-22.577l-154.24-154.239c-.897-2.66-3.512-4.278-6.154-4.27l.002-.008h-63.422v33.064l25.402 25.402-12.203 18.318c-1.988 3.179-1.354 7.191 2.045 8.026l25.407 26.382-3.828 32.092c-.386 3.357.438 5.813 3.001 6.723l127.918 127.918c16.652-9.348 23.715-30.026 15.75-47.787z" fill="url(#SVGID_5_)"/><path d="m234.084 164.63c0 33.278-17.056 62.565-42.901 79.609-10.112-41.77-47.737-72.784-92.615-72.784-12.858 0-25.117 2.544-36.304 7.158-8.792 3.625-18.555-2.601-18.739-12.109-.006-.295-.01-.589-.013-.885-.526-51.566 40.77-94.668 92.315-96.238 53.976-1.644 98.257 41.629 98.257 95.249z" fill="url(#SVGID_6_)"/><circle cx="203.636" cy="156.787" fill="url(#SVGID_7_)" r="81.291"/><circle cx="411.432" cy="266.747" fill="url(#SVGID_8_)" r="95.292"/><g><path d="m259.161 349.447h-37.385c-6.043 0-10.738-5.265-10.047-11.269l11.374-98.894c1.464-12.73-15.345-18.614-22.14-7.75l-87.186 139.392c-4.213 6.736.629 15.476 8.574 15.476h37.386c6.043 0 10.738 5.265 10.047 11.269l-11.374 98.895c-1.464 12.73 15.345 18.614 22.14 7.75l87.186-139.393c4.213-6.735-.63-15.476-8.575-15.476z" fill="url(#SVGID_9_)"/><path d="m259.161 349.447h-37.385c-6.043 0-10.738-5.265-10.047-11.269l11.374-98.894c.643-5.593-2.243-9.861-6.256-11.971l-47.776 109.027c-6.526 14.893 4.384 31.585 20.644 31.585 15.976 0 26.881 16.162 20.9 30.976l-44.513 110.265c4.922 1.857 10.983.69 14.447-4.85l87.186-139.392c4.214-6.736-.629-15.477-8.574-15.477z" fill="url(#SVGID_10_)"/></g><g><path d="m338.135 246.359h-19.788c-3.199 0-5.683-2.787-5.318-5.965l6.02-52.344c.775-6.738-8.122-9.853-11.719-4.102l-46.147 73.78c-2.23 3.565.333 8.192 4.538 8.192h19.788c3.199 0 5.683 2.787 5.318 5.965l-6.02 52.345c-.775 6.738 8.122 9.853 11.719 4.102l46.147-73.78c2.23-3.566-.333-8.193-4.538-8.193z" fill="url(#SVGID_11_)"/><path d="m338.135 246.359h-19.788c-3.199 0-5.683-2.787-5.318-5.965l6.02-52.344c.34-2.96-1.187-5.219-3.311-6.336l-25.288 57.708c-3.454 7.883 2.32 16.718 10.927 16.718 8.456 0 14.228 8.554 11.062 16.396l-23.561 58.363c2.605.983 5.813.365 7.647-2.567l46.147-73.78c2.231-3.566-.332-8.193-4.537-8.193z" fill="url(#SVGID_12_)"/></g><ellipse cx="305.004" cy="171.455" fill="url(#SVGID_13_)" rx="81.18" ry="58.616"/></g></svg>