<svg id="Capa_1" enable-background="new 0 0 512 512" height="512" viewBox="0 0 512 512" width="512" xmlns="http://www.w3.org/2000/svg"><g><path d="m331 15v60h-150v-60c0-8.401 6.599-15 15-15h120c8.401 0 15 6.599 15 15z" fill="#0b799d"/><path d="m331 15v60h-75v-75h60c8.401 0 15 6.599 15 15z" fill="#07485e"/><path d="m376 60h-240c-8.401 0-15 6.599-15 15v422c0 8.401 6.599 15 15 15h240c8.401 0 15-6.599 15-15v-422c0-8.401-6.599-15-15-15z" fill="#dfe7f4"/><path d="m391 75v422c0 8.401-6.599 15-15 15h-120v-452h120c8.401 0 15 6.599 15 15z" fill="#c7cfe1"/><path d="m331 135v196l-30 30h-90l-30-30v-196c0-8.401 6.599-15 15-15h120c8.401 0 15 6.599 15 15z" fill="#f0f7ff"/><path d="m331 331v60l-30 30h-90l-30-30v-60z" fill="#ffda2d"/><path d="m331 135v196l-30 30h-45v-241h60c8.401 0 15 6.599 15 15z" fill="#dfe7f4"/><path d="m331 331v60l-30 30h-45v-90z" fill="#ff9f22"/><path d="m331 391v45c0 8.401-6.599 15-15 15h-120c-8.401 0-15-6.599-15-15v-45z" fill="#ff9f22"/><path d="m256 391h75v45c0 8.401-6.599 15-15 15h-60z" fill="#ff4a4a"/></g></svg>