<svg id="Capa_1" enable-background="new 0 0 512 512" height="512" viewBox="0 0 512 512" width="512" xmlns="http://www.w3.org/2000/svg"><g><path d="m75 151c-8.291 0-15-6.709-15-15v-89c0-8.291 6.709-15 15-15s15 6.709 15 15v89c0 8.291-6.709 15-15 15z" fill="#0b799d"/><path d="m482 46v420c0 8.399-6.599 15-15 15s-15-6.601-15-15v-420c0-8.401 6.599-15 15-15s15 6.599 15 15z" fill="#dfe7f4"/><path d="m482 256v210c0 8.399-6.599 15-15 15s-15-6.601-15-15v-210z" fill="#c7cfe1"/><g fill="#76e2f8"><path d="m362.216 144.511c-3.267-7.603.264-16.421 7.881-19.688l31-12.861c7.544-3.296 16.421.22 19.688 7.881 3.267 7.603-.264 16.421-7.881 19.688l-30 12.861c-7.442 3.237-17.39-.153-20.688-7.881z"/><path d="m271.216 183.08c-3.267-7.603.264-16.421 7.881-19.688l31-12.861c7.544-3.296 16.421.234 19.688 7.881 3.267 7.603-.264 16.421-7.881 19.688l-31 12.861c-7.442 3.238-16.39-.152-19.688-7.881z"/><path d="m238.784 184.981c-3.267-7.646-12.129-11.191-19.688-7.881l-9.097 3.9-30 15.937 30 16.693 20.903-8.961c7.619-3.267 11.149-12.085 7.882-19.688z"/></g><path d="m310.097 374.336-31-12.861c-7.617-3.267-11.147-12.085-7.881-19.688 3.252-7.632 12.144-11.147 19.688-7.881l31 12.861c7.617 3.267 11.147 12.085 7.881 19.688-3.297 7.725-12.244 11.12-19.688 7.881z" fill="#4bb9ec"/><path d="m401.097 412.905-31-12.861c-7.617-3.267-11.147-12.085-7.881-19.688 3.267-7.632 13.144-11.147 20.688-7.881l30 12.861c7.617 3.267 11.147 12.085 7.881 19.688-3.297 7.726-12.244 11.12-19.688 7.881z" fill="#4bb9ec"/><path d="m230.903 307.331-20.903-8.962-30 14.818 30 17.811 9.097 3.9c7.443 3.239 16.392-.156 19.688-7.881 3.266-7.601-.264-16.42-7.882-19.686z" fill="#4bb9ec"/><path d="m120 181h90v150h-90z" fill="#0b799d"/><path d="m120 256h90v75h-90z" fill="#07485e"/><path d="m135 121h-120c-8.401 0-15 6.599-15 15v240c0 8.399 6.599 15 15 15h120c8.401 0 15-6.601 15-15v-240c0-8.401-6.599-15-15-15z" fill="#f0f7ff"/><path d="m150 256v120c0 8.399-6.599 15-15 15h-120c-8.401 0-15-6.601-15-15v-120z" fill="#dfe7f4"/><path d="m497 481h-60c-8.291 0-15-6.709-15-15s6.709-15 15-15h60c8.291 0 15 6.709 15 15s-6.709 15-15 15z" fill="#dfe7f4"/><path d="m497 61h-60c-8.291 0-15-6.709-15-15s6.709-15 15-15h60c8.291 0 15 6.709 15 15s-6.709 15-15 15z" fill="#f0f7ff"/><circle cx="75" cy="286" fill="#ff4a4a" r="15"/><circle cx="75" cy="226" fill="#76e2f8" r="15"/><path d="m105 61h-60c-8.291 0-15-6.709-15-15s6.709-15 15-15h60c8.291 0 15 6.709 15 15s-6.709 15-15 15z" fill="#f0f7ff"/></g></svg>