<svg id="Capa_1" enable-background="new 0 0 512 512" height="512" viewBox="0 0 512 512" width="512" xmlns="http://www.w3.org/2000/svg"><g><path d="m76.015 466c-5.508 0-10.796-3.032-13.433-8.291-3.706-7.412-.703-16.421 6.709-20.127 31.89-15.952 51.709-48.003 51.709-83.657v-22.925c0-8.291 6.709-15 15-15s15 6.709 15 15v22.925c0 47.095-26.162 89.429-68.291 110.493-2.153 1.069-4.438 1.582-6.694 1.582z" fill="#76e2f8"/><path d="m435.985 466c-2.256 0-4.541-.513-6.694-1.582-42.129-21.064-68.291-63.398-68.291-110.493v-22.925c0-8.291 6.709-15 15-15s15 6.709 15 15v22.925c0 35.654 19.819 67.705 51.709 83.657 7.412 3.706 10.415 12.715 6.709 20.127-2.637 5.259-7.925 8.291-13.433 8.291z" fill="#4bb9ec"/><path d="m271 331v120c0 8.399-6.599 15-15 15s-15-6.601-15-15v-120c0-8.401 6.599-15 15-15s15 6.599 15 15z" fill="#76e2f8"/><path d="m316 466c-8.291 0-15-6.709-15-15v-120c0-8.291 6.709-15 15-15s15 6.709 15 15v120c0 8.291-6.709 15-15 15z" fill="#4bb9ec"/><path d="m196 466c-8.291 0-15-6.709-15-15v-120c0-8.291 6.709-15 15-15s15 6.709 15 15v120c0 8.291-6.709 15-15 15z" fill="#76e2f8"/><path d="m271 331v120c0 8.399-6.599 15-15 15v-150c8.401 0 15 6.599 15 15z" fill="#4bb9ec"/><path d="m467 46h-422c-24.901 0-45 20.099-45 45v150c0 24.899 20.099 45 45 45h422c24.901 0 45-20.101 45-45v-150c0-24.901-20.099-45-45-45z" fill="#f0f7ff"/><path d="m512 91v150c0 24.899-20.099 45-45 45h-211v-240h211c24.901 0 45 20.099 45 45z" fill="#dfe7f4"/><circle cx="377" cy="151" fill="#4bb9ec" r="15"/><circle cx="437" cy="151" fill="#ff4a4a" r="15"/><path d="m452 211c0 8.399-6.599 15-15 15h-362c-8.401 0-15-6.601-15-15 0-8.401 6.599-15 15-15h362c8.401 0 15 6.599 15 15z" fill="#dfe7f4"/><path d="m452 211c0 8.399-6.599 15-15 15h-181v-30h181c8.401 0 15 6.599 15 15z" fill="#c7cfe1"/></g></svg>