<svg id="Capa_1" enable-background="new 0 0 511.998 511.998" height="512" viewBox="0 0 511.998 511.998" width="512" xmlns="http://www.w3.org/2000/svg"><g><path d="m285 330.999h-105v-90h120v75c0 8.284-6.716 15-15 15z" fill="#ff9f22"/><path d="m120 255.999v180c0 8.284 6.716 15 15 15h75v-195z" fill="#03232e"/><path d="m225 420.999h-45l30 30h15c8.291 0 15-6.709 15-15s-6.709-15-15-15z" fill="#03232e"/><path d="m508.821 96.77c-2.842-3.647-7.207-5.771-11.821-5.771h-89.154l-15 75-15 75h89.154c6.885 0 12.876-4.688 14.546-11.367l15.908-63.633 14.092-56.367c1.128-4.483.117-9.229-2.725-12.862z" fill="#ffda2d"/><path d="m467 240.999c6.885 0 12.876-4.688 14.546-11.367l15.908-63.633h-104.608l-15 75z" fill="#ff9f22"/><path d="m427.167 66.77c-2.842-3.647-7.207-5.771-11.821-5.771h-310.346c-57.891 0-105 47.109-105 105s47.109 105 105 105h265.346c6.885 0 12.876-4.688 14.546-11.367l23.408-93.633 21.592-86.367c1.128-4.483.117-9.229-2.725-12.862z" fill="#0b799d"/><path d="m105 270.999h265.346c6.885 0 12.876-4.688 14.546-11.367l23.408-93.633h-408.3c0 57.891 47.109 105 105 105z" fill="#07485e"/><g fill="#07485e"><path d="m135 120.999c-8.291 0-15 6.709-15 15v30 30c0 8.291 6.709 15 15 15s15-6.709 15-15v-30-30c0-8.291-6.709-15-15-15z"/><path d="m195 120.999c-8.291 0-15 6.709-15 15v30 30c0 8.291 6.709 15 15 15s15-6.709 15-15v-30-30c0-8.291-6.709-15-15-15z"/><path d="m255 120.999c-8.291 0-15 6.709-15 15v30 30c0 8.291 6.709 15 15 15s15-6.709 15-15v-30-30c0-8.291-6.709-15-15-15z"/></g><g fill="#03232e"><path d="m135 210.999c8.291 0 15-6.709 15-15v-30h-30v30c0 8.291 6.709 15 15 15z"/><path d="m195 210.999c8.291 0 15-6.709 15-15v-30h-30v30c0 8.291 6.709 15 15 15z"/><path d="m255 210.999c8.291 0 15-6.709 15-15v-30h-30v30c0 8.291 6.709 15 15 15z"/></g></g></svg>