<svg id="Capa_1" enable-background="new 0 0 512 512" height="512" viewBox="0 0 512 512" width="512" xmlns="http://www.w3.org/2000/svg"><g><path d="m105 451c-8.291 0-15-6.709-15-15v-60c0-8.291 6.709-15 15-15s15 6.709 15 15v60c0 8.291-6.709 15-15 15z" fill="#07485e"/><path d="m407 451c-8.291 0-15-6.709-15-15v-60c0-8.291 6.709-15 15-15s15 6.709 15 15v60c0 8.291-6.709 15-15 15z" fill="#03232e"/><path d="m362 76v60h-212v-60c0-8.401 6.599-15 15-15h182c8.401 0 15 6.599 15 15z" fill="#07485e"/><path d="m362 76v60h-106v-75h91c8.401 0 15 6.599 15 15z" fill="#03232e"/><path d="m467 121h-422c-24.901 0-45 20.099-45 45v180c0 24.901 20.099 45 45 45h422c24.901 0 45-20.099 45-45v-180c0-24.901-20.099-45-45-45z" fill="#90e36a"/><path d="m512 166v180c0 24.901-20.099 45-45 45h-211v-270h211c24.901 0 45 20.099 45 45z" fill="#00aa63"/><path d="m135 451h-60c-8.291 0-15-6.709-15-15s6.709-15 15-15h60c8.291 0 15 6.709 15 15s-6.709 15-15 15z" fill="#0b799d"/><path d="m437 451h-60c-8.291 0-15-6.709-15-15s6.709-15 15-15h60c8.291 0 15 6.709 15 15s-6.709 15-15 15z" fill="#07485e"/><path d="m467 151h-422c-8.401 0-15 6.599-15 15v180c0 8.401 6.599 15 15 15h422c8.401 0 15-6.599 15-15v-180c0-8.401-6.599-15-15-15z" fill="#0b799d"/><path d="m482 166v180c0 8.401-6.599 15-15 15h-211v-210h211c8.401 0 15 6.599 15 15z" fill="#07485e"/><path d="m195 331h-120c-8.291 0-15-6.709-15-15v-120c0-8.291 6.709-15 15-15h120c8.291 0 15 6.709 15 15v120c0 8.291-6.709 15-15 15z" fill="#f0f7ff"/><path d="m437 331h-120c-8.291 0-15-6.709-15-15v-120c0-8.291 6.709-15 15-15h120c8.291 0 15 6.709 15 15v120c0 8.291-6.709 15-15 15z" fill="#dfe7f4"/><circle cx="256" cy="226" fill="#f0f7ff" r="15"/><circle cx="256" cy="286" fill="#f0f7ff" r="15"/><path d="m90 211h30v90h-30z" fill="#0b799d"/><path d="m150 211h30v90h-30z" fill="#0b799d"/><path d="m332 211h30v90h-30z" fill="#07485e"/><path d="m392 211h30v90h-30z" fill="#07485e"/><g fill="#dfe7f4"><path d="m271 286c0 8.401-6.599 15-15 15v-30c8.401 0 15 6.599 15 15z"/><path d="m271 226c0 8.401-6.599 15-15 15v-30c8.401 0 15 6.599 15 15z"/></g></g></svg>