<svg id="Capa_1" enable-background="new 0 0 512 512" height="512" viewBox="0 0 512 512" width="512" xmlns="http://www.w3.org/2000/svg"><g><path d="m512 317v150c0 24.899-20.099 45-45 45h-422c-24.901 0-45-20.101-45-45v-150c0-24.901 20.099-45 45-45l31-30h360l31 30c24.901 0 45 20.099 45 45z" fill="#dfe7f4"/><path d="m512 317v150c0 24.899-20.099 45-45 45h-211v-270h180l31 30c24.901 0 45 20.099 45 45z" fill="#c7cfe1"/><path d="m436 317h-360c-8.401 0-15 6.599-15 15v120c0 8.399 6.599 15 15 15h360c8.401 0 15-6.601 15-15v-120c0-8.401-6.599-15-15-15z" fill="#0b799d"/><path d="m451 332v120c0 8.399-6.599 15-15 15h-180v-150h180c8.401 0 15 6.599 15 15z" fill="#07485e"/><path d="m467 0h-422c-24.901 0-45 20.099-45 45v182c0 24.899 20.099 45 45 45h422c24.901 0 45-20.101 45-45v-182c0-24.901-20.099-45-45-45z" fill="#0b799d"/><path d="m512 45v182c0 24.899-20.099 45-45 45h-211v-272h211c24.901 0 45 20.099 45 45z" fill="#07485e"/><path d="m391 347h30v30h-30z" fill="#dfe7f4"/><path d="m271 347h30v30h-30z" fill="#dfe7f4"/><path d="m211 347h30v30h-30z" fill="#f0f7ff"/><path d="m151 347h30v30h-30z" fill="#f0f7ff"/><path d="m151 407h210v30h-210z" fill="#76e2f8"/><path d="m331 347h30v30h-30z" fill="#dfe7f4"/><path d="m91 347h30v30h-30z" fill="#f0f7ff"/><path d="m91 407h30v30h-30z" fill="#76e2f8"/><path d="m391 407h30v30h-30z" fill="#4bb9ec"/><path d="m256 407h105v30h-105z" fill="#4bb9ec"/><path d="m482 45v182c0 8.399-6.599 15-15 15h-422c-8.401 0-15-6.601-15-15v-182c0-8.401 6.599-15 15-15h422c8.401 0 15 6.599 15 15z" fill="#76e2f8"/><path d="m482 45v182c0 8.399-6.599 15-15 15h-211v-212h211c8.401 0 15 6.599 15 15z" fill="#4bb9ec"/></g></svg>