<svg id="Capa_1" enable-background="new 0 0 512 512" height="512" viewBox="0 0 512 512" width="512" xmlns="http://www.w3.org/2000/svg"><g><path d="m377 466h-60c-8.291 0-15-6.709-15-15s6.709-15 15-15h60c24.814 0 45-20.186 45-45v-60c0-8.291 6.709-15 15-15s15 6.709 15 15v60c0 41.353-33.647 75-75 75z" fill="#c7cfe1"/><path d="m317 466h-61c-8.291 0-15-6.709-15-15s6.709-15 15-15h61c24.814 0 45-20.186 45-45v-180c0-8.291 6.709-15 15-15s15 6.709 15 15v180c0 41.353-33.647 75-75 75z" fill="#dfe7f4"/><path d="m165 466h-90c-41.353 0-75-33.647-75-75s33.647-75 75-75h60c8.291 0 15 6.709 15 15s-6.709 15-15 15h-60c-24.814 0-45 20.186-45 45s20.186 45 45 45h90c8.291 0 16 6.709 16 15s-7.709 15-16 15z" fill="#f0f7ff"/><path d="m332 76v90l-30 30h-152l-30-30v-90l30-30h152z" fill="#90e36a"/><path d="m332 76v90l-30 30h-76v-150h76z" fill="#00aa63"/><path d="m150 46h152v150h-152z" fill="#0b799d"/><path d="m226 46h76v150h-76z" fill="#07485e"/><path d="m332 31v45h-212v-45c0-8.401 6.599-15 15-15h182c8.401 0 15 6.599 15 15z" fill="#90e36a"/><path d="m332 166v195c0 8.401-6.599 15-15 15h-182c-8.401 0-15-6.599-15-15v-195z" fill="#90e36a"/><g fill="#00aa63"><path d="m332 31v45h-106v-60h91c8.401 0 15 6.599 15 15z"/><path d="m332 166v195c0 8.401-6.599 15-15 15h-91v-210z"/><path d="m437 256h-30c-24.814 0-45-20.186-45-45s20.186-45 45-45h30c8.291 0 15 6.709 15 15v60c0 8.291-6.709 15-15 15z"/></g><path d="m497 376h-30c-24.814 0-45-20.186-45-45s20.186-45 45-45h30c8.291 0 15 6.709 15 15v60c0 8.291-6.709 15-15 15z" fill="#00cc71"/><path d="m226 226c-24.901 0-45 20.099-45 45s20.099 45 45 45 45-20.099 45-45-20.099-45-45-45z" fill="#f0f7ff"/><path d="m271 271c0 24.901-20.099 45-45 45v-90c24.901 0 45 20.099 45 45z" fill="#dfe7f4"/><path d="m256 406h-91c-8.401 0-15 6.599-15 15v60c0 8.401 6.599 15 15 15h91c8.401 0 15-6.599 15-15v-60c0-8.401-6.599-15-15-15z" fill="#90e36a"/><path d="m271 421v60c0 8.401-6.599 15-15 15h-30v-90h30c8.401 0 15 6.599 15 15z" fill="#00aa63"/></g></svg>