<svg id="Capa_1" enable-background="new 0 0 512 512" height="512" viewBox="0 0 512 512" width="512" xmlns="http://www.w3.org/2000/svg"><g><path d="m377 181h-60c-8.291 0-16-6.709-16-15s7.709-15 16-15h60c8.291 0 15 6.709 15 15s-6.709 15-15 15z" fill="#07485e"/><path d="m195 181h-60c-8.291 0-15-6.709-15-15s6.709-15 15-15h60c8.291 0 16 6.709 16 15s-7.709 15-16 15z" fill="#0b799d"/><path d="m256 0c-8.291 0-15 6.709-15 15v60c0 8.291 6.709 15 15 15s15-6.709 15-15v-60c0-8.291-6.709-15-15-15z" fill="#0b799d"/><path d="m271 75v-60c0-8.291-6.709-15-15-15v90c8.291 0 15-6.709 15-15z" fill="#07485e"/><path d="m256 242c-8.291 0-15 6.709-15 15v60c0 8.291 6.709 15 15 15s15-6.709 15-15v-60c0-8.291-6.709-15-15-15z" fill="#0b799d"/><path d="m271 317v-60c0-8.291-6.709-15-15-15v90c8.291 0 15-6.709 15-15z" fill="#07485e"/><path d="m135 272h-120c-8.291 0-15-6.709-15-15v-212c0-8.291 6.709-15 15-15h120c8.291 0 15 6.709 15 15v212c0 8.291-6.709 15-15 15z" fill="#f0f7ff"/><path d="m30 60h30v182h-30z" fill="#76e2f8"/><path d="m90 60h30v182h-30z" fill="#76e2f8"/><path d="m497 272h-120c-8.291 0-15-6.709-15-15v-212c0-8.291 6.709-15 15-15h120c8.291 0 15 6.709 15 15v212c0 8.291-6.709 15-15 15z" fill="#dfe7f4"/><path d="m392 60h30v182h-30z" fill="#4bb9ec"/><path d="m452 60h30v182h-30z" fill="#4bb9ec"/><g fill="#76e2f8"><path d="m256 452c28.022 0 54.374-10.942 74.209-30.791 5.859-5.859 5.859-15.366 0-21.211-5.859-5.859-15.352-5.859-21.211 0-14.18 14.194-33.589 21.292-52.998 21.292s-38.818-7.097-52.998-21.292c-5.859-5.859-15.352-5.859-21.211 0-5.859 5.845-5.859 15.352 0 21.211 19.833 19.849 46.187 30.791 74.209 30.791z"/><path d="m372.616 442.405c-5.859-5.859-15.352-5.859-21.211 0-25.517 25.533-59.399 39.595-95.405 39.595s-69.888-14.063-95.405-39.595c-5.859-5.859-15.352-5.859-21.211 0s-5.859 15.352 0 21.211c31.186 31.201 72.597 48.384 116.616 48.384s85.43-17.183 116.616-48.384c5.86-5.859 5.86-15.351 0-21.211z"/></g><path d="m372.616 442.405c-5.859-5.859-15.352-5.859-21.211 0-25.517 25.533-59.399 39.595-95.405 39.595v30c44.019 0 85.43-17.183 116.616-48.384 5.86-5.859 5.86-15.351 0-21.211z" fill="#4bb9ec"/><path d="m330.209 399.998c-5.859-5.859-15.352-5.859-21.211 0-14.18 14.194-33.589 21.292-52.998 21.292v30.71c28.022 0 54.374-10.942 74.209-30.791 5.859-5.859 5.859-15.366 0-21.211z" fill="#4bb9ec"/><circle cx="256" cy="347" fill="#76e2f8" r="45"/><path d="m301 347c0-24.814-20.186-45-45-45v90c24.814 0 45-20.186 45-45z" fill="#4bb9ec"/><path d="m256 60c-41.353 0-76 33.647-76 75v122c0 8.291 6.709 15 15 15h61 61c8.291 0 15-6.709 15-15v-122c0-41.353-34.647-75-76-75z" fill="#f0f7ff"/><path d="m332 257v-122c0-41.353-34.647-75-76-75v212h61c8.291 0 15-6.709 15-15z" fill="#c7cfe1"/></g></svg>