<svg id="Capa_1" enable-background="new 0 0 512 512" height="512" viewBox="0 0 512 512" width="512" xmlns="http://www.w3.org/2000/svg"><g><path d="m406 331v136c0 8.399-6.599 15-15 15h-75v-128.5l30-22.5z" fill="#f0f7ff"/><path d="m406 331v136c0 8.399-6.599 15-15 15h-15v-151z" fill="#dfe7f4"/><path d="m316 361v121h-120v-121l30-30h60z" fill="#f0f7ff"/><path d="m316 361v121h-60v-151h30z" fill="#dfe7f4"/><path d="m196 352.899v129.101h-75c-8.401 0-15-6.601-15-15v-136h60z" fill="#f0f7ff"/><path d="m196 352.899v129.101h-60v-151h30z" fill="#dfe7f4"/><path d="m226 331v166c0 8.399-6.599 15-15 15h-30c-8.401 0-15-6.601-15-15v-166z" fill="#f0f7ff"/><path d="m226 331v166c0 8.399-6.599 15-15 15h-15v-181z" fill="#dfe7f4"/><path d="m346 331v166c0 8.399-6.599 15-15 15h-30c-8.401 0-15-6.601-15-15v-166z" fill="#f0f7ff"/><path d="m346 331v166c0 8.399-6.599 15-15 15h-15v-181z" fill="#dfe7f4"/><path d="m512 166v150c0 24.899-20.099 45-45 45h-422c-24.901 0-45-20.101-45-45v-150c0-24.901 20.099-45 45-45h422c24.901 0 45 20.099 45 45z" fill="#ff9f22"/><path d="m512 166v150c0 24.899-20.099 45-45 45h-211v-240h211c24.901 0 45 20.099 45 45z" fill="#ff4a4a"/><path d="m406 0h-300c-8.401 0-15 6.599-15 15v181c0 8.399 6.599 15 15 15h300c8.401 0 15-6.601 15-15v-181c0-8.401-6.599-15-15-15z" fill="#f0f7ff"/><g fill="#dfe7f4"><path d="m421 15v181c0 8.399-6.599 15-15 15h-150v-211h150c8.401 0 15 6.599 15 15z"/><path d="m331 136c0 8.399-6.599 15-15 15h-120c-8.401 0-15-6.601-15-15 0-8.401 6.599-15 15-15h120c8.401 0 15 6.599 15 15z"/><path d="m331 76c0 8.399-6.599 15-15 15h-120c-8.401 0-15-6.601-15-15 0-8.401 6.599-15 15-15h120c8.401 0 15 6.599 15 15z"/><circle cx="346" cy="256" r="15"/><circle cx="406" cy="256" r="15"/></g><path d="m331 136c0 8.399-6.599 15-15 15h-60v-30h60c8.401 0 15 6.599 15 15z" fill="#c7cfe1"/><path d="m316 91h-60v-30h60c8.401 0 15 6.599 15 15 0 8.399-6.599 15-15 15z" fill="#c7cfe1"/></g></svg>