<svg id="Capa_1" enable-background="new 0 0 512 512" height="512" viewBox="0 0 512 512" width="512" xmlns="http://www.w3.org/2000/svg"><g><path d="m421 0h-150v512h150c24.814 0 45-20.186 45-45v-422c0-24.814-20.186-45-45-45z" fill="#dfe7f4"/><path d="m271 0h-180c-24.901 0-45 20.099-45 45v422c0 24.899 20.099 45 45 45h180c24.901 0 45-20.101 45-45v-422c0-24.901-20.099-45-45-45z" fill="#07485e"/><path d="m316 45v422c0 24.899-20.099 45-45 45h-90v-512h90c24.901 0 45 20.099 45 45z" fill="#03232e"/><path d="m286 45v422c0 8.399-6.599 15-15 15h-180c-8.401 0-15-6.601-15-15v-422c0-8.401 6.599-15 15-15h180c8.401 0 15 6.599 15 15z" fill="#76e2f8"/><path d="m286 45v422c0 8.399-6.599 15-15 15h-90v-452h90c8.401 0 15 6.599 15 15z" fill="#4bb9ec"/><circle cx="391" cy="135" fill="#07485e" r="15"/><circle cx="181" cy="437" fill="#f0f7ff" r="15"/><circle cx="391" cy="75" fill="#07485e" r="15"/><path d="m226 75c0 8.399-6.599 15-15 15h-60c-8.401 0-15-6.601-15-15 0-8.401 6.599-15 15-15h60c8.401 0 15 6.599 15 15z" fill="#f0f7ff"/><g fill="#dfe7f4"><path d="m196 437c0 8.399-6.599 15-15 15v-30c8.401 0 15 6.599 15 15z"/><path d="m226 75c0 8.399-6.599 15-15 15h-30v-30h30c8.401 0 15 6.599 15 15z"/></g></g></svg>