<svg id="Capa_1" enable-background="new 0 0 512 512" height="512" viewBox="0 0 512 512" width="512" xmlns="http://www.w3.org/2000/svg"><g><path d="m315 422h-120-150c-8.276 0-15-6.724-15-15s6.724-15 15-15h90c8.291 0 15-6.709 15-15s-6.709-15-15-15h-90c-24.814 0-45 20.186-45 45s20.186 45 45 45h150 120c8.291 0 15-6.709 15-15s-6.709-15-15-15z" fill="#0b799d"/><path d="m330 437c0-8.291-6.709-15-15-15h-120v30h120c8.291 0 15-6.709 15-15z" fill="#07485e"/><path d="m269.224 372.254-30-90h-44.224-44.224l-30 90c-1.538 4.57-.762 9.609 2.051 13.521 2.827 3.911 7.354 6.225 12.173 6.225h60 60c4.819 0 9.346-2.314 12.173-6.226 2.812-3.911 3.589-8.95 2.051-13.52z" fill="#dfe7f4"/><path d="m267.173 385.774c2.813-3.911 3.589-8.95 2.051-13.521l-30-90h-44.224v109.747h60c4.819 0 9.346-2.314 12.173-6.226z" fill="#c7cfe1"/><path d="m375 0h-180-180c-8.291 0-15 6.709-15 15v272c0 8.291 6.709 15 15 15h180 180c8.291 0 15-6.709 15-15v-272c0-8.291-6.709-15-15-15z" fill="#f0f7ff"/><g fill="#dfe7f4"><path d="m390 287v-272c0-8.291-6.709-15-15-15h-180v302h180c8.291 0 15-6.709 15-15z"/><path d="m497 482h-61c-8.291 0-16-6.709-16-15s7.709-15 16-15h61c8.291 0 15 6.709 15 15s-6.709 15-15 15z"/><path d="m497 422h-61c-8.291 0-16-6.709-16-15s7.709-15 16-15h61c8.291 0 15 6.709 15 15s-6.709 15-15 15z"/></g><path d="m30 30h60v61h-60z" fill="#76e2f8"/><path d="m120 30h60v61h-60z" fill="#76e2f8"/><path d="m210 30h60v61h-60z" fill="#4bb9ec"/><path d="m300 30h60v61h-60z" fill="#4bb9ec"/><path d="m30 121h60v60h-60z" fill="#76e2f8"/><path d="m120 121h60v60h-60z" fill="#76e2f8"/><path d="m210 121h60v60h-60z" fill="#4bb9ec"/><path d="m300 121h60v60h-60z" fill="#4bb9ec"/><path d="m30 211h60v61h-60z" fill="#76e2f8"/><path d="m120 211h60v61h-60z" fill="#76e2f8"/><path d="m210 211h60v61h-60z" fill="#4bb9ec"/><path d="m300 211h60v61h-60z" fill="#4bb9ec"/><path d="m436 512h-61c-41.353 0-75-33.647-75-75s33.647-75 75-75h61c8.291 0 15 6.709 15 15v120c0 8.291-6.709 15-15 15z" fill="#4bb9ec"/><circle cx="375" cy="437" fill="#07485e" r="15"/></g></svg>