<svg id="Capa_1" enable-background="new 0 0 512 512" height="512" viewBox="0 0 512 512" width="512" xmlns="http://www.w3.org/2000/svg"><g><path d="m512 166v300c0 8.399-6.599 15-15 15h-482c-8.401 0-15-6.601-15-15v-45l15-30v-150l-15-30v-45c0-8.401 6.599-15 15-15h482c8.401 0 15 6.599 15 15z" fill="#dfe7f4"/><path d="m512 316v150c0 8.399-6.599 15-15 15h-482c-8.401 0-15-6.601-15-15v-45l15-30v-75z" fill="#c7cfe1"/><path d="m30 181h452v270h-452z" fill="#0b799d"/><path d="m30 316h452v135h-452z" fill="#07485e"/><path d="m90 226v180c0 8.399-6.599 15-15 15h-75v-210h75c8.401 0 15 6.599 15 15z" fill="#dfe7f4"/><path d="m90 316v90c0 8.399-6.599 15-15 15h-75v-105z" fill="#c7cfe1"/><g><path d="m446.605 65.395c-21.855-21.856-52.119-34.395-83.027-34.395h-2.578l-30 30v15 15l30 30h2.578c30.908 0 61.172-12.539 83.027-34.395 2.93-2.929 4.395-6.767 4.395-10.605s-1.465-7.676-4.395-10.605z" fill="#0b799d"/><path d="m361 121h2.578c30.908 0 61.172-12.539 83.027-34.395 2.93-2.929 4.395-6.767 4.395-10.605h-120v15z" fill="#07485e"/><path d="m241 31h-135c-24.814 0-45 20.186-45 45s20.186 45 45 45h135l30-30v-15-15z" fill="#0b799d"/><path d="m106 121h135l30-30v-15h-210c0 24.814 20.186 45 45 45z" fill="#07485e"/></g><path d="m241 31v45 45h120v-45-45z" fill="#76e2f8"/><path d="m241 76h120v45h-120z" fill="#4bb9ec"/></g></svg>