<svg id="Capa_1" enable-background="new 0 0 512 512" height="512" viewBox="0 0 512 512" width="512" xmlns="http://www.w3.org/2000/svg"><g><g><g><path d="m181 512c-41.421 0-75-33.579-75-75v-219.03c9.078 5.253 19.452 8.03 30 8.03s20.922-2.777 30-8.03v219.03c0 8.284 6.716 15 15 15h150c8.284 0 15-6.716 15-15v-219.03c9.078 5.253 19.452 8.03 30 8.03s20.922-2.777 30-8.03v219.03c0 41.421-33.579 75-75 75z" fill="#0b799d"/></g></g><g><g><path d="m181 512c-41.421 0-75-33.579-75-75v-219.03c9.078 5.253 19.452 8.03 30 8.03s20.922-2.777 30-8.03v219.03c0 8.284 6.716 15 15 15h150c8.284 0 15-6.716 15-15v-219.03c9.078 5.253 19.452 8.03 30 8.03s20.922-2.777 30-8.03v219.03c0 41.421-33.579 75-75 75z" fill="#0b799d"/></g></g><path d="m384.033 490.033c13.572-13.572 21.967-32.322 21.967-53.033v-109.515-109.515c-4.539 2.627-9.402 4.634-14.448 5.985-5.047 1.351-10.278 2.045-15.552 2.045s-10.505-.694-15.552-2.045-9.91-3.358-14.448-5.985v109.515 109.515c0 4.142-1.679 7.892-4.393 10.607-2.715 2.714-6.465 4.393-10.607 4.393h-75v60h75c20.711 0 39.461-8.395 53.033-21.967z" fill="#07485e"/><g><path d="m421 15v75h-90v-75c0-8.401 6.599-15 15-15h60c8.401 0 15 6.599 15 15z" fill="#dfe7f4"/><path d="m421 15v75h-45v-90h30c8.401 0 15 6.599 15 15z" fill="#c7cfe1"/><path d="m181 15v75h-90v-75c0-8.401 6.599-15 15-15h60c8.401 0 15 6.599 15 15z" fill="#f0f7ff"/><path d="m181 15v75h-45v-90h30c8.401 0 15 6.599 15 15z" fill="#dfe7f4"/><path d="m196 60h-120c-8.401 0-15 6.599-15 15v90c0 41.4 33.6 75 75 75s75-33.6 75-75v-90c0-8.401-6.599-15-15-15z" fill="#76e2f8"/><path d="m211 75v90c0 41.4-33.6 75-75 75v-180h60c8.401 0 15 6.599 15 15z" fill="#4bb9ec"/><path d="m436 60h-120c-8.401 0-15 6.599-15 15v90c0 41.4 33.6 75 75 75s75-33.6 75-75v-90c0-8.401-6.599-15-15-15z" fill="#ff9f22"/><path d="m451 75v90c0 41.4-33.6 75-75 75v-180h60c8.401 0 15 6.599 15 15z" fill="#ff4a4a"/></g></g></svg>