<svg height="496pt" viewBox="0 0 496 496" width="496pt" xmlns="http://www.w3.org/2000/svg" xmlns:xlink="http://www.w3.org/1999/xlink"><linearGradient id="a" gradientUnits="userSpaceOnUse" x1="248" x2="248" y1="496" y2="0"><stop offset="0" stop-color="#9f2fff"/><stop offset="1" stop-color="#0bb1d3"/></linearGradient><path d="m192 32v16c-30.878906 0-56 25.121094-56 56h-16c0-39.695312 32.304688-72 72-72zm232 136h16c0-22.054688-17.945312-40-40-40v16c13.230469 0 24 10.769531 24 24zm-104 296h-144v-48h144zm-112-32h-16v16h16zm32 0h-16v16h16zm32 0h-16v16h16zm32 0h-16v16h16zm-32-64h-48v-48h48zm-16-32h-16v16h16zm80 32h-48v-48h48zm-16-32h-16v16h16zm-96-112h48v48h-48zm16 32h16v-16h-16zm-64 64h-16v48h16zm32 0h-16v48h16zm80-48h16v-48h-16zm32 0h16v-48h-16zm-288 64h16v-48h-16zm32 0h16v-48h-16zm32 0h16v-48h-16zm-64 48h80v80h-80zm16 64h48v-48h-48zm448-168v192c0 13.230469-10.769531 24-24 24h-448c-13.230469 0-24-10.769531-24-24v-192c0-13.230469 10.769531-24 24-24h104v-16h-32c-39.695312 0-72-32.304688-72-72 0-37.089844 28.191406-67.71875 64.273438-71.59375 3.894531-53.8125 48.933593-96.40625 103.726562-96.40625 34.433594 0 65.230469 16.65625 84.230469 42.902344 15.082031-16.980469 36.707031-26.902344 59.769531-26.902344 44.113281 0 80 35.886719 80 80 0 .617188-.089844 1.214844-.105469 1.832031 32.066407 7.265625 56.105469 35.9375 56.105469 70.167969 0 39.695312-32.304688 72-72 72h-32v16h104c13.230469 0 24 10.769531 24 24zm-480 72h112v-80h-104c-4.40625 0-8 3.59375-8 8zm113.472656 128c-.898437-2.511719-1.472656-5.183594-1.472656-8v-104h-112v104c0 4.40625 3.59375 8 8 8zm222.527344-80h-208v72c0 4.40625 3.59375 8 8 8h192c4.40625 0 8-3.59375 8-8zm0-96h-208v80h208zm0-88c0-4.40625-3.59375-8-8-8h-192c-4.40625 0-8 3.59375-8 8v72h208zm16 0v8h32c30.878906 0 56-25.121094 56-56s-25.121094-56-56-56c-7.265625 0-14.335938 1.367188-21 4.0625l-6.007812-14.832031c8.59375-3.46875 17.671874-5.230469 27.007812-5.230469 0-35.289062-28.710938-64-64-64-20.152344 0-38.886719 9.519531-50.976562 25.496094 4.480468 9.015625 7.792968 18.785156 9.535156 29.183594l-15.78125 2.648437c-7.121094-42.496094-43.617188-73.328125-86.777344-73.328125-48.519531 0-88 39.480469-88 88v8h-8c-30.878906 0-56 25.121094-56 56s25.121094 56 56 56h32v-8c0-13.230469 10.769531-24 24-24h192c13.230469 0 24 10.769531 24 24zm112 152h-112v104c0 2.816406-.574219 5.488281-1.472656 8h105.472656c4.40625 0 8-3.59375 8-8zm0-88c0-4.40625-3.59375-8-8-8h-104v80h112zm-32 56h16v-48h-16zm-32 0h16v-48h-16zm-32 0h16v-48h-16zm80 128h-80v-80h80zm-16-64h-48v48h48zm0 0" fill="url(#a)"/></svg>