<svg height="496pt" viewBox="0 0 496 496" width="496pt" xmlns="http://www.w3.org/2000/svg" xmlns:xlink="http://www.w3.org/1999/xlink"><linearGradient id="a" gradientTransform="matrix(8 0 0 -8 -8 504)" gradientUnits="userSpaceOnUse" x1="32" x2="32" y1="1" y2="63"><stop offset="0" stop-color="#9f2fff"/><stop offset="1" stop-color="#0bb1d3"/></linearGradient><path d="m384 0c-39.710938 0-74.566406 20.832031-94.464844 52.078125-31.648437-33.148437-75.550781-52.078125-121.535156-52.078125-92.632812 0-168 75.359375-168 168v208c0 22.054688 17.945312 40 40 40h132.902344l-10.664063 32h-26.238281c-13.230469 0-24 10.769531-24 24v24h272v-24c0-13.230469-10.769531-24-24-24h-26.230469l-10.671875-32h132.902344c22.054688 0 40-17.945312 40-40v-272h-.40625c-4.128906-58.023438-52.539062-104-111.59375-104zm-102.472656 66.976562c-6.085938 13.792969-9.527344 29.007813-9.527344 45.023438 0 17.191406 4.007812 33.425781 10.960938 48h-27.144532c-1.144531-30.175781-8.601562-56.199219-18.664062-77.929688 18.046875-8.070312 29.832031-17.71875 35.976562-23.636718 2.871094 2.75 5.726563 5.542968 8.398438 8.542968zm-53.863282 204.65625c2.207032-.257812 4.328126-.722656 6.375-1.402343 12.90625 6.257812 21.863282 13.242187 26.839844 17.824219-19.917968 15.402343-43.605468 25.929687-69.207031 29.992187 10.65625-10.527344 24.089844-26.054687 35.992187-46.414063zm-19.664062-31.632812c0-8.824219 7.175781-16 16-16s16 7.175781 16 16-7.175781 16-16 16-16-7.175781-16-16zm40.855469 19.902344c4.402343-5.488282 7.144531-12.34375 7.144531-19.902344 0-7.433594-2.65625-14.191406-6.921875-19.632812 3.851563-14.421876 6.058594-29.289063 6.640625-44.367188h36.496094c6.679687 9.550781 14.832031 17.960938 24.089844 25.015625-6.648438 29.984375-22.007813 56.367187-43.167969 76.601563-4.679688-4.503907-12.6875-11.167969-24.28125-17.714844zm12.105469-211.957032c-5.433594 5.078126-15.609376 13.101563-31.089844 19.894532-12.277344-21.96875-26.632813-38.582032-37.933594-49.71875 25.175781 4.023437 48.886719 14.238281 69.023438 29.824218zm-84.960938-22.738281c10.367188 9.703125 25.367188 26.007813 38.265625 48.304688-10.882813 3.25-23.601563 5.578125-38.265625 6.222656zm0 70.519531c17.710938-.71875 32.960938-3.703124 45.855469-7.855468 9.550781 20.144531 16.578125 44.328125 17.769531 72.128906h-63.625zm0 80.273438h63.71875c-.488281 11.550781-1.984375 22.96875-4.542969 34.121094-3.496093-1.304688-7.230469-2.121094-11.175781-2.121094-17.648438 0-32 14.351562-32 32 0 .59375.144531 1.136719.175781 1.71875-5.296875-.679688-10.6875-1.109375-16.175781-1.335938zm0 80.382812c7.617188.34375 15.054688 1.089844 22.207031 2.394532 3.191407 4.367187 7.441407 7.886718 12.394531 10.191406-11.96875 19.046875-25.1875 33.121094-34.601562 41.878906zm-16-231.246093v54.511719c-6.0625-.273438-11.992188-.824219-17.777344-1.703126-2.335937-6.984374-6.902344-12.914062-12.992187-16.824218 10.875-16.058594 22.355469-28.152344 30.769531-35.984375zm-38.265625 237.351562c10.882813-3.25 23.601563-5.578125 38.265625-6.222656v54.527344c-10.367188-9.703125-25.367188-26.007813-38.265625-48.304688zm22.378906 55.449219c-25.730469-4.089844-49.296875-14.59375-69.035156-29.914062 5.441406-5.078126 15.601563-13.078126 31.050781-19.855469 12.296875 22 26.671875 38.632812 37.984375 49.769531zm-29.96875-69.808594c-9.550781-20.144531-16.578125-44.328125-17.769531-72.128906h63.625v64.273438c-17.710938.71875-32.960938 3.703124-45.855469 7.855468zm-17.855469-88.128906c.589844-14.136719 2.734376-28.046875 6.4375-41.527344 2.953126.894532 6.027344 1.527344 9.273438 1.527344 15.511719 0 28.464844-11.105469 31.367188-25.769531 5.449218.722656 10.984374 1.195312 16.632812 1.425781v64.34375zm-.289062-72c0-8.824219 7.175781-16 16-16s16 7.175781 16 16-7.175781 16-16 16-16-7.175781-16-16zm48.246094-69.953125c-9.148438 9.050781-20.335938 21.777344-30.871094 38.097656-.464844-.023437-.902344-.144531-1.375-.144531-6.679688 0-12.878906 2.070312-18.015625 5.585938-8.71875-5.042969-14.976563-10.066407-18.855469-13.640626 19.765625-15.328124 43.359375-25.824218 69.117188-29.898437zm-81.335938 40.394531c4.1875 4.007813 10.9375 9.726563 20.472656 15.519532-2.09375 4.253906-3.382812 8.984374-3.382812 14.039062 0 8.425781 3.335938 16.039062 8.671875 21.761719l-.191406-.058594c-4.871094 16.25-7.535157 33.144531-8.199219 50.296875h-63.882812c2.097656-39.832031 19.472656-75.617188 46.511718-101.558594zm17.273438 117.558594c1.144531 30.175781 8.601562 56.199219 18.664062 77.929688-18.023437 8.0625-29.808594 17.6875-35.953125 23.613281-27.03125-25.941407-44.40625-61.71875-46.496093-101.550781zm279.816406 288c4.414062 0 8 3.59375 8 8v8h-240v-8c0-4.40625 3.585938-8 8-8h160v-16h-116.902344l10.664063-32h116.46875l16 48zm120-88c0 13.230469-10.769531 24-24 24h-416c-13.230469 0-24-10.769531-24-24v-8h464zm0-24h-464v-112.910156c26.839844 57.148437 84.792969 96.910156 152 96.910156 76.558594 0 143.390625-52.359375 162.457031-125.65625 4.335938 2.367188 8.886719 4.359375 13.542969 6.144531v23.511719h-16v16h16v40c0 22.054688 17.945312 40 40 40s40-17.945312 40-40v-40h16v-16h-16v-23.511719c23.519531-9.03125 43.183594-25.746093 56-47.097656zm-72-96v40c0 13.230469-10.769531 24-24 24s-24-10.769531-24-24v-40zm-48-16v-18.65625c7.742188 1.695312 15.761719 2.65625 24 2.65625s16.257812-.960938 24-2.65625v18.65625zm24-32c-52.9375 0-96-43.0625-96-96s43.0625-96 96-96 96 43.0625 96 96-43.0625 96-96 96zm0-176c-44.113281 0-80 35.886719-80 80s35.886719 80 80 80 80-35.886719 80-80-35.886719-80-80-80zm0 144c-35.289062 0-64-28.710938-64-64s28.710938-64 64-64 64 28.710938 64 64-28.710938 64-64 64zm0 0" fill="url(#a)"/></svg>