<svg height="496pt" viewBox="-32 0 496 496" width="496pt" xmlns="http://www.w3.org/2000/svg" xmlns:xlink="http://www.w3.org/1999/xlink"><linearGradient id="a" gradientUnits="userSpaceOnUse" x1="216" x2="216" y1="496" y2="0"><stop offset="0" stop-color="#9f2fff"/><stop offset="1" stop-color="#0bb1d3"/></linearGradient><path d="m216 0c-48.519531 0-88 39.480469-88 88v16h-43.9375l-84.0625 109.28125v282.71875h432v-282.71875l-84.0625-109.28125h-43.9375v-16c0-48.519531-39.480469-88-88-88zm0 192c-26.472656 0-48-21.527344-48-48v-32.457031c14.414062-1.472657 28.382812-6.832031 40-15.542969l8-6 8 6c11.617188 8.710938 25.585938 14.070312 40 15.535156v32.464844c0 26.472656-21.527344 48-48 48zm16 13.894531v2.105469c0 8.824219-7.175781 16-16 16s-16-7.175781-16-16v-2.105469c5.128906 1.328125 10.464844 2.105469 16 2.105469s10.871094-.777344 16-2.105469zm-16 34.105469c14.335938 0 26.359375-9.542969 30.414062-22.558594l44.699219 8.933594c14.039063 2.808594 25.574219 12.992188 30.101563 26.578125l6.625 19.878906-49.945313 34.574219c-12.542969-21.148438-35.558593-35.40625-61.894531-35.40625s-49.351562 14.257812-61.902344 35.414062l-49.945312-34.574218 6.625-19.886719c4.527344-13.585937 16.0625-23.769531 30.101562-26.578125l44.695313-8.933594c4.066406 13.015625 16.089843 22.558594 30.425781 22.558594zm64.566406-32.046875-32.566406-6.511719v-2.105468c14.800781-8.59375 25.824219-22.929688 30.046875-39.953126 4.210937-.808593 8.128906-2.429687 11.578125-4.726562 3.414062 15.375 12.160156 28.976562 24.871094 38.398438-8.070313 6.28125-21.238282 14.65625-33.929688 14.898437zm-.566406-66.175781v-27.554688c4.761719 2.777344 8 7.882813 8 13.777344s-3.238281 11-8 13.777344zm-136-53.777344c0-39.695312 32.304688-72 72-72s72 32.304688 72 72v12.449219c-4.726562-2.753907-10.144531-4.449219-16-4.449219-13.753906 0-27.390625-4.542969-38.398438-12.800781l-17.601562-13.199219-17.601562 13.199219c-11.007813 8.257812-24.644532 12.800781-38.398438 12.800781-5.855469 0-11.273438 1.695312-16 4.449219zm8 26.222656v27.554688c-4.761719-2.777344-8-7.882813-8-13.777344s3.238281-11 8-13.777344zm-9.625 40.441406c3.449219 2.289063 7.367188 3.910157 11.578125 4.726563 4.222656 17.023437 15.246094 31.363281 30.046875 39.953125v2.105469l-32.566406 6.511719c-12.691406-.25-25.847656-8.625-33.929688-14.890626 12.703125-9.429687 21.457032-23.03125 24.871094-38.40625zm-50.4375-34.664062h36.0625v20.222656c0 19.015625-10.566406 36.121094-27.574219 44.625l-9.929687 4.96875 7.847656 7.847656c.664062.671876 10.808594 10.671876 24.855469 18.160157-12.855469 6.609375-22.917969 18.023437-27.597657 32.078125l-5.152343 15.457031-70.976563-49.144531zm-75.9375 111.273438 131.382812 90.957031c-2.183593 6.875-3.382812 14.183593-3.382812 21.769531v22.382812l-128 104.730469zm14.414062 248.726562 114.425782-93.617188c5.054687 34.785157 34.992187 61.617188 71.160156 61.617188v-16c-30.878906 0-56-25.128906-56-56v-32c0-30.871094 25.121094-56 56-56s56 25.128906 56 56v72c0 4.414062-3.59375 8-8 8s-8-3.585938-8-8v-72c0-22.054688-17.945312-40-40-40s-40 17.945312-40 40v32c0 22.054688 17.945312 40 40 40 9.039062 0 17.296875-3.128906 24-8.207031v8.207031c0 13.230469 10.769531 24 24 24s24-10.769531 24-24v-28.9375l113.585938 92.9375zm209.585938-136v32c0 13.230469-10.769531 24-24 24s-24-10.769531-24-24v-32c0-13.230469 10.769531-24 24-24s24 10.769531 24 24zm176 127.113281-128-104.730469v-22.382812c0-7.585938-1.199219-14.894531-3.382812-21.769531l131.382812-90.957031zm-75.9375-351.113281 72.464844 94.207031-70.976563 49.144531-5.152343-15.457031c-4.679688-14.046875-14.742188-25.46875-27.597657-32.078125 14.054688-7.480468 24.191407-17.488281 24.855469-18.160156l7.847656-7.847656-9.929687-4.96875c-17.007813-8.503906-27.574219-25.601563-27.574219-44.617188v-20.222656zm0 0" fill="url(#a)"/></svg>