<svg height="496pt" viewBox="0 0 496 496.16" width="496pt" xmlns="http://www.w3.org/2000/svg" xmlns:xlink="http://www.w3.org/1999/xlink"><linearGradient id="a" gradientUnits="userSpaceOnUse" x1="248.08" x2="248.08" y1="496.156" y2="0"><stop offset="0" stop-color="#9f2fff"/><stop offset="1" stop-color="#0bb1d3"/></linearGradient><path d="m416.078125 178v-178h-416v400h251.449219c19.367187 48.089844 61.824218 85.214844 114.984375 95.839844l1.566406.320312 1.570313-.3125c73.261718-14.65625 126.429687-79.511718 126.429687-154.222656v-149.625h-8c-24.972656 0-49.300781-4.785156-72-14zm-80-162h64v48h-64zm-40 112v-48h64v32h16v-32h24v48zm104 16v26.550781c-8.070313-4.183593-15.917969-8.894531-23.429687-14.261719l-8.570313-6.121093-8.566406 6.128906c-7.511719 5.359375-15.359375 10.070313-23.433594 14.261719v-26.558594zm-80 0v34c-20.253906 8.222656-41.839844 12.777344-64 13.6875v-47.6875zm-64-128h64v48h-64zm-80 0h64v48h-64zm-40 240v-32h-16v32h-64v-48h144v48zm24 16v48h-64v-48zm-64-128h64v48h-64zm-40-16v-48h64v48zm120 144h64v48h-64zm40-16v-48h24v48zm-40-64v-48h64v48zm24-64h-64v-48h64zm-184-112h64v32h16v-32h64v48h-144zm0 64h24v48h-24zm0 64h64v48h-64zm0 64h24v48h-24zm0 64h64v48h-64zm24 112h-24v-48h24zm80 0h-64v-48h64zm80 0h-64v-48h64zm16 0v-48h24v5.625c0 14.605469 2.097656 28.816406 5.914063 42.375zm0-256v-48h64v48zm264 213.625c0 66.574219-47 124.445312-112 138.207031-65-13.769531-112-71.632812-112-138.207031v-133.777344c40.363281-1.519531 78.90625-14.589844 112-38.015625 33.097656 23.433594 71.640625 36.496094 112 38.015625zm-116.148437-149.945312c-26.160157 15.871093-54.738282 26.039062-84.945313 30.199218l-6.90625.960938v118.785156c0 57.160156 38.65625 107.039062 94 121.3125l2 .511719 2-.503907c55.347656-14.28125 94-64.160156 94-121.320312v-118.785156l-6.902344-.953125c-30.214843-4.167969-58.800781-14.335938-84.945312-30.199219l-4.152344-2.519531zm84.148437 45v104.945312c0 49.167969-32.789063 92.167969-80 105.277344-47.207031-13.117188-80-56.117188-80-105.277344v-104.945312c28.257813-4.734376 55.121094-14.421876 80-28.855469 24.867187 14.433593 51.730469 24.121093 80 28.855469zm0 0" fill="url(#a)"/></svg>