<svg height="496pt" viewBox="0 0 496 496" width="496pt" xmlns="http://www.w3.org/2000/svg" xmlns:xlink="http://www.w3.org/1999/xlink"><linearGradient id="a" gradientUnits="userSpaceOnUse" x1="248" x2="248" y1="496" y2="0"><stop offset="0" stop-color="#9f2fff"/><stop offset="1" stop-color="#0bb1d3"/></linearGradient><path d="m0 432h240v64h192v-64h64v-432h-496zm352 48h-32v-56h32zm64-136v136h-48v-56h16v-16h-96v16h16v56h-48v-136h-.089844l80.089844-69.414062 80.089844 69.414062zm8-14.320312-16-13.863282v-19.816406h16zm-408-313.679688h464v48h-464zm0 64h464v336h-48v-58.207031l18.761719 16.253906 10.484375-12.09375-21.246094-18.410156v-63.542969h-48v21.945312l-56-48.53125-125.238281 108.539063 10.484375 12.09375 18.753906-16.253906v58.207031h-224zm128 64c-35.289062 0-64 28.710938-64 64s28.710938 64 64 64 64-28.710938 64-64-28.710938-64-64-64zm0 112c-26.472656 0-48-21.527344-48-48s21.527344-48 48-48 48 21.527344 48 48-21.527344 48-48 48zm85.070312-3.671875c2.578126-4.953125 4.730469-10.144531 6.425782-15.511719l20.503906-7.128906v-43.382812l-20.503906-7.128907c-1.695313-5.367187-3.839844-10.558593-6.425782-15.511719l9.464844-19.527343-30.671875-30.671875-19.519531 9.457031c-4.960938-2.585937-10.160156-4.730469-15.519531-6.417969l-7.128907-20.503906h-43.390624l-7.121094 20.511719c-5.367188 1.679687-10.558594 3.832031-15.519532 6.417969l-19.519531-9.457032-30.671875 30.671875 9.464844 19.527344c-2.578125 4.953125-4.730469 10.144531-6.425781 15.511719l-20.511719 7.128906v43.382812l20.503906 7.128907c1.695313 5.367187 3.839844 10.558593 6.425782 15.511719l-9.464844 19.527343 30.671875 30.671875 19.519531-9.464844c4.960938 2.578126 10.160156 4.730469 15.519531 6.425782l7.136719 20.503906h43.375l7.128906-20.503906c5.367188-1.695313 10.558594-3.839844 15.519532-6.425782l19.519531 9.464844 30.671875-30.671875zm-7.839843-23.777344c-1.832031 6.882813-4.550781 13.457031-8.085938 19.527344l-2.136719 3.675781 8.160157 16.832032-14.574219 14.574218-16.832031-8.160156-3.683594 2.136719c-6.078125 3.527343-12.644531 6.246093-19.535156 8.085937l-4.101563 1.089844-6.128906 17.6875h-20.625l-6.136719-17.679688-4.101562-1.089843c-6.890625-1.832031-13.464844-4.550781-19.539063-8.085938l-3.679687-2.136719-16.832031 8.160157-14.574219-14.574219 8.160156-16.832031-2.136719-3.671875c-3.527344-6.074219-6.246094-12.648438-8.085937-19.53125l-1.097657-4.101563-17.664062-6.144531v-20.617188l17.671875-6.144531 1.097656-4.101562c1.832031-6.882813 4.550781-13.457031 8.085938-19.527344l2.136719-3.675781-8.160157-16.832032 14.574219-14.574218 16.832031 8.160156 3.671875-2.136719c6.082032-3.527343 12.648438-6.246093 19.53125-8.070312l4.109375-1.089844 6.144531-17.703125h20.609376l6.144531 17.679688 4.109375 1.089843c6.882812 1.832031 13.457031 4.542969 19.53125 8.070313l3.671875 2.136718 16.832031-8.160156 14.574219 14.574219-8.160157 16.832031 2.136719 3.671875c3.527344 6.074219 6.246094 12.648438 8.085938 19.53125l1.097656 4.101563 17.671875 6.160156v20.617188l-17.671875 6.144531zm-45.230469-20.550781h-16c0-8.824219-7.175781-16-16-16s-16 7.175781-16 16 7.175781 16 16 16v16c-17.648438 0-32-14.351562-32-32s14.351562-32 32-32 32 14.351562 32 32zm128 184h64v-64h-64zm16-48h32v32h-32zm144-232h-192v-16h192zm-176 32h-16v-16h16zm16-16h160v16h-160zm160 48h-192v-16h192zm0 32h-192v-16h192zm-16 16h16v16h-16zm-16 16h-160v-16h160zm-400-208h16v16h-16zm32 0h16v16h-16zm32 0h16v16h-16zm0 0" fill="url(#a)"/></svg>