<svg height="496pt" viewBox="-24 0 496 496" width="496pt" xmlns="http://www.w3.org/2000/svg" xmlns:xlink="http://www.w3.org/1999/xlink"><linearGradient id="a" gradientUnits="userSpaceOnUse" x1="224" x2="224" y1="496" y2="0"><stop offset="0" stop-color="#9f2fff"/><stop offset="1" stop-color="#0bb1d3"/></linearGradient><path d="m56.105469 97.832031c-.015625-.617187-.105469-1.214843-.105469-1.832031 0-44.113281 35.886719-80 80-80 23.097656 0 44.753906 9.945312 59.839844 26.976562 19.128906-26.359374 50.046875-42.976562 84.160156-42.976562 54.792969 0 99.832031 42.59375 103.726562 96.414062 36.082032 3.867188 64.273438 34.488282 64.273438 71.585938 0 39.703125-32.304688 72-72 72h-48v-16h48c30.878906 0 56-25.128906 56-56s-25.121094-56-56-56h-8v-8c0-48.519531-39.480469-88-88-88-40.175781 0-75.222656 27.144531-85.230469 65.992188l-15.496093-3.984376c1.855468-7.199218 4.511718-14.015624 7.726562-20.464843-12.078125-16.007813-30.824219-25.542969-51-25.542969-35.289062 0-64 28.710938-64 64 9.351562 0 18.441406 1.769531 27.007812 5.238281l-6.015624 14.832031c-6.65625-2.703124-13.710938-4.070312-20.992188-4.070312-30.878906 0-56 25.128906-56 56s25.121094 56 56 56h32v16h-32c-39.695312 0-72-32.296875-72-72 0-34.230469 24.039062-62.902344 56.105469-70.167969zm-8.105469 70.167969c0-13.230469 10.769531-24 24-24v-16c-22.054688 0-40 17.945312-40 40zm384 158.535156v-38.535156h-16v25.464844l-35.441406 7.183594-1.191406 4.953124c-3.886719 16.117188-10.261719 31.476563-18.933594 45.65625l-2.664063 4.34375 19.992188 30.167969-36 36-30.160157-19.992187-4.34375 2.65625c-14.203124 8.6875-29.5625 15.054687-45.664062 18.933594l-4.953125 1.183593-7.175781 35.449219h-50.921875l-7.183594-35.449219-4.960937-1.183593c-16.09375-3.878907-31.460938-10.246094-45.664063-18.933594l-4.34375-2.65625-30.160156 19.992187-36-36 19.992187-30.167969-2.664062-4.34375c-8.671875-14.179687-15.039063-29.539062-18.933594-45.65625l-1.191406-4.953124-35.433594-7.183594v-25.464844h-16v38.535156l38.351562 7.785156c3.894532 14.289063 9.578126 28 16.953126 40.863282l-21.632813 32.640625 54.503906 54.496093 32.640625-21.632812c12.886719 7.375 26.589844 13.066406 40.871094 16.945312l7.777344 38.367188h77.078125l7.777343-38.359375c14.28125-3.878906 27.984376-9.570313 40.871094-16.945313l32.640625 21.632813 54.503907-54.496094-21.632813-32.640625c7.367187-12.863281 13.058594-26.574218 16.953125-40.863281zm-352-38.535156c0 79.398438 64.601562 144 144 144s144-64.601562 144-144h-16c0 70.574219-57.425781 128-128 128s-128-57.425781-128-128zm184-196.535156v57.4375l32-10.664063v-46.773437l11.367188 5.277344c22.257812 10.335937 36.632812 32.554687 36.632812 56.59375 0 22.328124-12.398438 43.089843-32 54.207031v128.457031c0 17.648438-14.351562 32-32 32s-32-14.351562-32-32v-128.457031c-19.601562-11.128907-32-31.878907-32-54.207031 0-24.039063 14.375-46.257813 36.632812-56.59375zm-16 79.640625v-52.457031c-9.992188 8.742187-16 21.34375-16 34.6875 0 17.832031 10.742188 34.359374 27.367188 42.078124l4.632812 2.152344v138.433594c0 8.824219 7.175781 16 16 16s16-7.175781 16-16v-138.433594l4.632812-2.160156c16.632813-7.71875 27.367188-24.238281 27.367188-42.078125 0-13.34375-6.007812-25.945313-16-34.6875v31.121094zm-112 39.949219v-6.109376l-16-8v-52.945312c0-22.054688 17.945312-40 40-40s40 17.945312 40 40v52.945312l-16 8v6.109376l16 8v44.945312h-16v82.425781l-24 36-24-36v-82.425781h-16v-44.945312zm32 52.945312h-16v77.574219l8 12 8-12zm-32-76.945312 16 8v12.945312h16v-12.945312l16-8v-43.054688c0-13.230469-10.769531-24-24-24s-24 10.769531-24 24zm0 41.890624v19.054688h48v-19.054688l-9.886719-4.945312h-28.21875zm0 0" fill="url(#a)"/></svg>