<svg height="496pt" viewBox="0 0 496 496" width="496pt" xmlns="http://www.w3.org/2000/svg" xmlns:xlink="http://www.w3.org/1999/xlink"><linearGradient id="a" gradientUnits="userSpaceOnUse" x1="248" x2="248" y1="496" y2="0"><stop offset="0" stop-color="#9f2fff"/><stop offset="1" stop-color="#0bb1d3"/></linearGradient><path d="m472 32h-24v-32h-48v32h-32v-32h-48v32h-144v-32h-48v32h-32v-32h-48v32h-24c-13.230469 0-24 10.769531-24 24v352c0 13.230469 10.769531 24 24 24h184v24c0 22.054688 17.945312 40 40 40s40-17.945312 40-40v-24h184c13.230469 0 24-10.769531 24-24v-352c0-13.230469-10.769531-24-24-24zm-56-16h16v48h-16zm-80 0h16v48h-16zm-192 0h16v48h-16zm-80 0h16v48h-16zm208 440c0 13.230469-10.769531 24-24 24s-24-10.769531-24-24v-8h48zm13.414062-153.472656c-8.773437 10.59375-13.414062 22.6875-13.414062 34.992187v94.480469h-48v-94.480469c0-12.304687-4.640625-24.40625-13.414062-34.992187-6.921876-8.359375-10.585938-18.449219-10.585938-29.191406 0-13.34375 6.007812-25.945313 16-34.6875v37.632812l32 21.335938 32-21.335938v-37.632812c9.992188 8.742187 16 21.34375 16 34.6875 0 10.742187-3.664062 20.832031-10.585938 29.191406zm194.585938 105.472656c0 4.414062-3.59375 8-8 8h-184v-78.480469c0-10.777343 5.296875-19.429687 9.734375-24.792969 9.203125-11.09375 14.265625-25.085937 14.265625-39.390624 0-24.039063-14.375-46.257813-36.632812-56.59375l-11.367188-5.277344v56.253906l-16 10.664062-16-10.664062v-56.253906l-11.367188 5.277344c-22.257812 10.335937-36.632812 32.554687-36.632812 56.59375 0 14.304687 5.0625 28.296874 14.265625 39.398437 4.4375 5.363281 9.734375 14.019531 9.734375 24.785156v78.480469h-184c-4.40625 0-8-3.585938-8-8v-296h464zm0-312h-464v-40c0-4.414062 3.59375-8 8-8h24v32h48v-32h32v32h48v-32h144v32h48v-32h32v32h48v-32h24c4.40625 0 8 3.585938 8 8zm-352.457031 219.265625-23.542969-4.714844v-77.109375l23.542969-4.714844c1.359375-3.765624 2.945312-7.527343 4.722656-11.269531l-13.34375-20.015625 54.527344-54.539062 20.023437 13.355468c3.75-1.777343 7.511719-3.355468 11.261719-4.714843l4.707031-23.542969h77.117188l4.714844 23.542969c3.75 1.359375 7.511718 2.9375 11.261718 4.714843l20.023438-13.355468 54.53125 54.539062-13.347656 20.015625c1.777343 3.742188 3.355468 7.503907 4.722656 11.269531l23.535156 4.722657v77.109375l-23.542969 4.714844c-1.359375 3.765624-2.945312 7.527343-4.722656 11.269531l13.34375 20.015625-53.574219 53.585937-22.398437-8.679687 5.78125-14.921875 12.679687 4.914062 36.929688-36.929687-11.265625-16.886719 2.175781-4.191406c3.019531-5.816407 5.488281-11.714844 7.335938-17.527344l1.433593-4.496094 19.824219-3.976562v-50.890625l-19.824219-3.957032-1.433593-4.496093c-1.847657-5.824219-4.316407-11.722657-7.335938-17.53125l-2.175781-4.191407 11.265625-16.886718-35.984375-35.976563-16.878907 11.257813-4.191406-2.167969c-5.839844-3.023437-11.746094-5.496094-17.539062-7.328125l-4.496094-1.425781-3.964844-19.855469h-50.882812l-3.964844 19.832031-4.496094 1.425781c-5.792968 1.832032-11.691406 4.300782-17.539062 7.328126l-4.191406 2.167968-16.878907-11.257812-35.984375 35.976562 11.265625 16.886719-2.175781 4.191406c-3.019531 5.816407-5.488281 11.714844-7.335938 17.527344l-1.433593 4.496094-19.824219 3.976562v50.890625l19.824219 3.957032 1.433593 4.496093c1.847657 5.824219 4.316407 11.722657 7.335938 17.53125l2.175781 4.191407-11.265625 16.886718 36.929688 36.929688 12.679687-4.914063 5.78125 14.921875-22.398437 8.679688-53.574219-53.585938 13.34375-20.015625c-1.777344-3.71875-3.363281-7.488281-4.722656-11.253906zm190.273437 22.621094-11.632812-10.984375c14.074218-14.894532 21.816406-34.398438 21.816406-54.902344 0-44.113281-35.886719-80-80-80s-80 35.886719-80 80c0 20.503906 7.742188 40.007812 21.816406 54.902344l-11.632812 10.984375c-16.886719-17.878907-26.183594-41.277344-26.183594-65.886719 0-52.9375 43.0625-96 96-96s96 43.0625 96 96c0 24.609375-9.296875 48.007812-26.183594 65.886719zm-77.816406-9.886719h16v88h-16zm0 0" fill="url(#a)"/></svg>