<svg height="496pt" viewBox="0 0 496 496.216" width="496pt" xmlns="http://www.w3.org/2000/svg" xmlns:xlink="http://www.w3.org/1999/xlink"><linearGradient id="a" gradientUnits="userSpaceOnUse" x1="248.108" x2="248.108" y1="496.2184" y2="0"><stop offset="0" stop-color="#9f2fff"/><stop offset="1" stop-color="#0bb1d3"/></linearGradient><path d="m80.109375 336c0 35.289062 28.710937 64 64 64 35.285156 0 64-28.710938 64-64s-28.714844-64-64-64c-35.289063 0-64 28.710938-64 64zm64-48c26.46875 0 48 21.527344 48 48s-21.53125 48-48 48c-26.472656 0-48-21.527344-48-48s21.527344-48 48-48zm-28.816406-43.496094c-5.367188 1.695313-10.5625 3.839844-15.511719 6.425782l-19.527344-9.464844-30.675781 30.671875 9.457031 19.519531c-2.582031 4.960938-4.726562 10.160156-6.414062 15.519531l-20.511719 7.128907v43.390624l20.511719 7.121094c1.679687 5.367188 3.832031 10.558594 6.414062 15.519532l-9.457031 19.519531 30.675781 30.671875 19.527344-9.464844c4.949219 2.578125 10.144531 4.730469 15.511719 6.425781l7.128906 20.511719h43.382813l7.128906-20.503906c5.367187-1.695313 10.558594-3.839844 15.511718-6.425782l19.527344 9.464844 30.671875-30.671875-9.457031-19.519531c2.585938-4.960938 4.726562-10.160156 6.417969-15.519531l20.503906-7.128907v-43.390624l-20.511719-7.121094c-1.683594-5.367188-3.832031-10.558594-6.417968-15.519532l9.457031-19.519531-30.671875-30.671875-19.527344 9.464844c-4.953125-2.578125-10.144531-4.730469-15.511719-6.425781l-7.128906-20.511719h-43.386719zm12.367187 13.167969 6.136719-17.671875h20.613281l6.144532 17.671875 4.105468 1.097656c6.878906 1.832031 13.457032 4.550781 19.527344 8.085938l3.671875 2.136719 16.832031-8.160157 14.578125 14.574219-8.160156 16.832031 2.132813 3.671875c3.53125 6.082032 6.25 12.648438 8.074218 19.53125l1.085938 4.109375 17.707031 6.144531v20.609376l-17.679687 6.144531-1.089844 4.109375c-1.832032 6.882812-4.542969 13.457031-8.070313 19.53125l-2.136719 3.671875 8.160157 16.832031-14.578125 14.574219-16.832032-8.160157-3.671874 2.136719c-6.070313 3.527344-12.648438 6.246094-19.527344 8.085938l-4.105469 1.097656-6.15625 17.671875h-20.617187l-6.144532-17.671875-4.105468-1.097656c-6.878907-1.832031-13.453126-4.550781-19.527344-8.085938l-3.671875-2.136719-16.832031 8.160157-14.574219-14.574219 8.160156-16.832031-2.136719-3.671875c-3.527344-6.082032-6.25-12.648438-8.074218-19.53125l-1.109376-4.109375-17.679687-6.144531v-20.609376l17.679687-6.144531 1.085938-4.109375c1.832031-6.882812 4.546875-13.457031 8.074219-19.53125l2.136719-3.671875-8.160157-16.832031 14.574219-14.574219 16.832031 8.160157 3.671875-2.136719c6.070313-3.527344 12.648438-6.246094 19.527344-8.085938zm-15.550781 78.328125c0-17.648438 14.351563-32 32-32s32 14.351562 32 32h-16c0-8.824219-7.175781-16-16-16s-16 7.175781-16 16 7.175781 16 16 16v16c-17.648437 0-32-14.351562-32-32zm200-336c-100.984375 0-183.203125 81.777344-183.96875 182.585938-37.527344 16.613281-78.609375 25.414062-120.03125 25.414062h-8v108.289062c0 85.992188 58.460937 159.808594 142.167969 179.503907l1.832031.421875 1.832031-.429688c67.207032-15.816406 118.070313-66.554687 135.535156-130.441406 10.054688 1.695312 20.335938 2.65625 30.632813 2.65625 101.453125 0 184-82.535156 184-184s-82.546875-184-184-184zm-21.816406 17.585938c-12.199219 12.597656-28.992188 32.300781-43.546875 57.6875-20.503906-8.433594-33.734375-18.648438-38.710938-22.90625 23.25-18.421876 51.441406-30.757813 82.257813-34.78125zm-94.425781 45.40625c4.359374 4.015624 19.089843 16.40625 43.265624 26.582031-12.191406 24.746093-21.488281 53.90625-22.824218 86.425781h-70.3125l-1.449219-.726562c2.28125-44.027344 21.457031-83.585938 51.320313-112.28125zm76.242187 253.296874c0 77.894532-52.539063 144.855469-128 163.488282-75.464844-18.625-128-85.59375-128-163.488282v-92.386718c44.191406-1.09375 88.207031-11.742188 128-30.992188 39.671875 19.195313 83.558594 29.84375 128 30.984375zm32 35.351563c-6.417969-.304687-12.785156-.914063-19.074219-1.929687 1.976563-10.871094 3.074219-22.03125 3.074219-33.421876v-34.585937c5.328125-.6875 10.65625-1.144531 16-1.375zm0-87.3125c-5.34375.207031-10.664063.632813-16 1.265625v-49.59375l-.449219-8h-8c-32.382812 0-64.769531-5.542969-95.441406-16h119.890625zm0-88.328125h-71.792969c1.382813-30.207031 10.441406-57.535156 22.167969-80.785156 14.175781 4.496094 30.769531 7.761718 49.625 8.511718zm0-88.273438c-15.65625-.695312-29.601563-3.335937-41.738281-6.957031 14.320312-24.273437 30.648437-42.929687 41.738281-54.242187zm115.589844-32.597656c-8.015625 5.40625-22.367188 13.96875-41.726563 21.039063-14.664062-25.816407-31.703125-45.839844-44.046875-58.582031 32.367188 4.222656 61.886719 17.566406 85.773438 37.542968zm-99.589844-28.632812c11.160156 11.359375 27.621094 30.167968 42.007813 54.65625-12.585938 3.441406-26.679688 5.902344-42.007813 6.566406zm0 77.238281c18.429687-.726563 35.175781-3.824219 49.871094-8.101563 11.609375 23.144532 20.542969 50.320313 21.917969 80.367188h-71.789063zm0 88.265625h71.789063c-1.382813 30.207031-10.4375 57.535156-22.167969 80.785156-14.175781-4.496094-30.765625-7.761718-49.621094-8.511718zm0 88.273438c15.65625.695312 29.597656 3.335937 41.734375 6.957031-14.320312 24.273437-30.648438 42.929687-41.734375 54.242187zm13.816406 70.140624c12.199219-12.597656 28.988281-32.300781 43.542969-57.6875 20.503906 8.433594 33.734375 18.648438 38.710938 22.90625-23.246094 18.421876-51.441407 30.757813-82.253907 34.78125zm94.421875-45.40625c-4.359375-4.015624-19.085937-16.40625-43.261718-26.582031 12.199218-24.746093 21.492187-53.90625 22.820312-86.425781h71.800781c-2.101562 44.320312-21.335937 84.160156-51.359375 113.007812zm-20.441406-129.007812c-1.316406-32.128906-10.40625-60.960938-22.382812-85.511719 22.382812-8.417969 38.402343-18.617187 46.25-24.214843 28.09375 28.550781 45.910156 67.085937 47.933593 109.71875h-71.800781zm0 0" fill="url(#a)"/></svg>