<svg height="496pt" viewBox="-80 0 496 496" width="496pt" xmlns="http://www.w3.org/2000/svg" xmlns:xlink="http://www.w3.org/1999/xlink"><linearGradient id="a" gradientUnits="userSpaceOnUse" x1="168" x2="168" y1="496" y2="0"><stop offset="0" stop-color="#9f2fff"/><stop offset="1" stop-color="#0bb1d3"/></linearGradient><path d="m25.753906 496h284.492188l8.25-33.007812c10.0625-2.847657 17.503906-12.023438 17.503906-22.992188v-416c0-13.230469-10.769531-24-24-24h-288c-13.230469 0-24 10.769531-24 24v416c0 10.96875 7.441406 20.144531 17.503906 22.992188zm272-16h-259.507812l-4.007813-16h267.515625zm-25.753906-464h16v16h-16zm-32 0h16v16h-16zm-32 0h16v16h-16zm-32 0h16v16h-16zm-160 8c0-4.414062 3.585938-8 8-8h136v32h144v-32h8c4.414062 0 8 3.585938 8 8v416c0 4.414062-3.585938 8-8 8h-288c-4.414062 0-8-3.585938-8-8zm32 344h240v64h16v-368h-272v368h16zm0-288h240v80h-240zm0 96h240v80h-240zm0 96h240v80h-240zm16-128h112v-48h-112zm80-32h16v16h-16zm-32 0h16v16h-16zm-32 0h16v16h-16zm80 128h112v-48h-112zm80-32h16v16h-16zm-32 0h16v16h-16zm-32 0h16v16h-16zm-112 128h208v-48h-208zm16-32h176v16h-176zm-16 128h208v-48h-208zm16-32h176v16h-176zm-32-352h-16v-16h16zm32 0h-16v-16h16zm32 0h-16v-16h16zm144 64h16v16h-16zm-32 0h16v16h-16zm-32 0h16v16h-16zm-64 96h16v16h-16zm-32 0h16v16h-16zm-32 0h16v16h-16zm0 0" fill="url(#a)"/></svg>