<svg height="496pt" viewBox="0 0 496 496" width="496pt" xmlns="http://www.w3.org/2000/svg" xmlns:xlink="http://www.w3.org/1999/xlink"><linearGradient id="a" gradientTransform="matrix(8 0 0 -8 -8 504)" gradientUnits="userSpaceOnUse" x1="32" x2="32" y1="1" y2="63"><stop offset="0" stop-color="#9f2fff"/><stop offset="1" stop-color="#0bb1d3"/></linearGradient><path d="m400 144v-16c22.054688 0 40 17.945312 40 40h-16c0-13.230469-10.769531-24-24-24zm-328 24h-16c0 22.054688 17.945312 40 40 40v-16c-13.230469 0-24-10.769531-24-24zm169-91.121094 14-7.757812c-12.703125-22.898438-36.839844-37.121094-63-37.121094v16c20.34375 0 39.128906 11.0625 49 28.878906zm69.527344 355.121094h185.472656v16h-184v16h184v16h-185.472656c-3.3125 9.289062-12.113282 16-22.527344 16h-80c-10.414062 0-19.214844-6.710938-22.527344-16h-185.472656v-16h184v-16h-184v-16h185.472656c3.3125-9.289062 12.113282-16 22.527344-16h8v-32h-72c-13.230469 0-24-10.769531-24-24v-32c0-13.230469 10.769531-24 24-24v-16c-13.230469 0-24-10.769531-24-24v-24h-24c-39.703125 0-72-32.304688-72-72 0-37.089844 28.191406-67.71875 64.273438-71.59375 3.894531-53.8125 48.925781-96.40625 103.726562-96.40625 34.433594 0 65.222656 16.65625 84.230469 42.902344 15.082031-16.980469 36.707031-26.902344 59.769531-26.902344 44.113281 0 80 35.886719 80 80 0 .617188-.089844 1.214844-.097656 1.832031 32.066406 7.265625 56.097656 35.9375 56.097656 70.167969 0 39.695312-32.296875 72-72 72h-24v24c0 13.230469-10.769531 24-24 24v16c13.230469 0 24 10.769531 24 24v32c0 13.230469-10.769531 24-24 24h-72v32h8c10.414062 0 19.214844 6.710938 22.527344 16zm49.472656-200c0-4.40625-3.585938-8-8-8h-40v48h40c4.414062 0 8-3.59375 8-8zm-200 56v16h176v-16zm0-80h176v-16h-176zm24-32v-48h-40c-4.414062 0-8 3.59375-8 8v32c0 4.40625 3.585938 8 8 8zm168 0c4.414062 0 8-3.59375 8-8v-32c0-4.40625-3.585938-8-8-8h-152v48zm-208 32v-16c-13.230469 0-24-10.769531-24-24v-32c0-13.230469 10.769531-24 24-24h208c13.230469 0 24 10.769531 24 24v32c0 13.230469-10.769531 24-24 24v16c10.414062 0 19.214844 6.710938 22.527344 16h25.472656c30.871094 0 56-25.121094 56-56s-25.128906-56-56-56c-7.265625 0-14.328125 1.367188-21 4.0625l-6-14.832031c8.585938-3.46875 17.671875-5.230469 27-5.230469 0-35.289062-28.710938-64-64-64-20.160156 0-38.886719 9.519531-50.976562 25.496094 4.480468 9.015625 7.792968 18.785156 9.535156 29.183594l-15.78125 2.648437c-7.121094-42.496094-43.617188-73.328125-86.777344-73.328125-48.519531 0-88 39.480469-88 88v8h-8c-30.871094 0-56 25.121094-56 56s25.128906 56 56 56h25.472656c3.3125-9.289062 12.113282-16 22.527344-16zm0 64h152v-48h-152c-4.414062 0-8 3.59375-8 8v32c0 4.40625 3.585938 8 8 8zm40 48h-40c-4.414062 0-8 3.59375-8 8v32c0 4.40625 3.585938 8 8 8h40zm168 48c4.414062 0 8-3.59375 8-8v-32c0-4.40625-3.585938-8-8-8h-152v48zm-120 16v32h32v-32zm64 56c0-4.40625-3.585938-8-8-8h-80c-4.414062 0-8 3.59375-8 8v32c0 4.40625 3.585938 8 8 8h80c4.414062 0 8-3.59375 8-8zm-80-280h128v-16h-128zm0 192h128v-16h-128zm64-112h-128v16h128zm48 16h16v-16h-16zm-160 80h-16v16h16zm-16-176h16v-16h-16zm0 0" fill="url(#a)"/></svg>