<svg height="496pt" viewBox="0 0 496 496" width="496pt" xmlns="http://www.w3.org/2000/svg" xmlns:xlink="http://www.w3.org/1999/xlink"><linearGradient id="a" gradientUnits="userSpaceOnUse" x1="248" x2="248" y1="496" y2="0"><stop offset="0" stop-color="#9f2fff"/><stop offset="1" stop-color="#0bb1d3"/></linearGradient><path d="m400 40c0-22.054688-17.945312-40-40-40s-40 17.945312-40 40v24h-320v432h496v-432h-96zm-64 0c0-13.230469 10.769531-24 24-24s24 10.769531 24 24v40h-48zm0 56h48v16h-48zm0 32h16v16h16v-16h16v200h-16v-168h-16v168h-16zm43.863281 216-16.078125 37.503906c-1.296875 3.03125-6.273437 3.039063-7.585937-.007812l-16.070313-37.496094zm-363.863281-264h304v48h-304zm464 400h-464v-336h304v193.640625l19.871094 46.359375h-51.871094v16h144v-16h-51.871094l19.871094-46.359375v-193.640625h80zm0-400v48h-80v-48zm-32 256h-32v-16h48v144h-208v-144h48v16h-32v112h176zm-16 96h-16v-16h16zm-144-16h112v16h-112zm-144-208c-35.289062 0-64 28.710938-64 64s28.710938 64 64 64 64-28.710938 64-64-28.710938-64-64-64zm0 112c-26.472656 0-48-21.527344-48-48s21.527344-48 48-48 48 21.527344 48 48-21.527344 48-48 48zm91.496094-19.183594 20.503906-7.128906v-43.375l-20.503906-7.128906c-1.695313-5.367188-3.839844-10.558594-6.425782-15.519532l9.464844-19.519531-30.671875-30.671875-19.519531 9.464844c-4.960938-2.578125-10.160156-4.730469-15.519531-6.425781l-7.136719-20.511719h-43.375l-7.128906 20.503906c-5.367188 1.695313-10.558594 3.839844-15.519532 6.425782l-19.519531-9.464844-30.671875 30.671875 9.464844 19.519531c-2.578125 4.960938-4.730469 10.160156-6.425781 15.519531l-20.511719 7.136719v43.375l20.503906 7.128906c1.695313 5.367188 3.839844 10.558594 6.425782 15.519532l-9.464844 19.519531 30.671875 30.671875 19.519531-9.464844c4.960938 2.578125 10.160156 4.730469 15.519531 6.425781l7.136719 20.511719h43.375l7.128906-20.503906c5.367188-1.695313 10.558594-3.839844 15.519532-6.425782l19.519531 9.464844 30.671875-30.671875-9.464844-19.519531c2.585938-4.96875 4.738281-10.167969 6.433594-15.527344zm-14.265625-8.273437c-1.832031 6.890625-4.550781 13.464843-8.085938 19.535156l-2.136719 3.683594 8.160157 16.832031-14.574219 14.574219-16.832031-8.160157-3.683594 2.136719c-6.078125 3.527344-12.644531 6.246094-19.535156 8.085938l-4.101563 1.089843-6.128906 17.679688h-20.625l-6.136719-17.679688-4.101562-1.089843c-6.890625-1.832031-13.464844-4.550781-19.539063-8.085938l-3.679687-2.136719-16.832031 8.160157-14.574219-14.574219 8.160156-16.832031-2.136719-3.683594c-3.527344-6.078125-6.246094-12.644531-8.085937-19.535156l-1.082031-4.09375-17.679688-6.136719v-20.625l17.679688-6.136719 1.089843-4.101562c1.832031-6.890625 4.550781-13.464844 8.085938-19.539063l2.136719-3.679687-8.160157-16.832031 14.574219-14.574219 16.832031 8.160156 3.683594-2.136719c6.078125-3.527344 12.644531-6.246094 19.535156-8.085937l4.101563-1.089844 6.128906-17.671875h20.625l6.136719 17.679688 4.101562 1.089843c6.890625 1.832031 13.464844 4.550781 19.539063 8.085938l3.679687 2.136719 16.832031-8.160157 14.574219 14.574219-8.160156 16.832031 2.136719 3.683594c3.527344 6.078125 6.246094 12.644531 8.085937 19.535156l1.089844 4.101563 17.671875 6.128906v20.625l-17.679688 6.136719zm-45.230469-20.542969c0 17.648438-14.351562 32-32 32s-32-14.351562-32-32h16c0 8.824219 7.175781 16 16 16s16-7.175781 16-16-7.175781-16-16-16v-16c17.648438 0 32 14.351562 32 32zm-144-176h16v16h-16zm32 0h16v16h-16zm32 0h16v16h-16zm0 0" fill="url(#a)"/></svg>