<svg height="496pt" viewBox="0 0 496 496" width="496pt" xmlns="http://www.w3.org/2000/svg" xmlns:xlink="http://www.w3.org/1999/xlink"><linearGradient id="a" gradientUnits="userSpaceOnUse" x1="248" x2="248" y1="496" y2="0"><stop offset="0" stop-color="#9f2fff"/><stop offset="1" stop-color="#0bb1d3"/></linearGradient><path d="m148.839844 450.503906 5.425781 5.574219c25.023437 25.753906 58.308594 39.921875 93.734375 39.921875s68.710938-14.167969 93.734375-39.910156l5.425781-5.578125-99.160156-101.992188zm59.160156 22.207032c-13.34375-5.023438-25.761719-12.535157-36.664062-22.382813l36.664062-37.710937zm32 6.921874c-5.414062-.375-10.753906-1.144531-16-2.273437v-81.199219l16-16.457031zm48-67.015624 36.664062 37.710937c-10.902343 9.847656-23.320312 17.359375-36.664062 22.382813zm-32-32.914063 16 16.457031v81.199219c-5.246094 1.128906-10.585938 1.898437-16 2.273437zm-144-67.703125c0 38.097656 13.878906 71.398438 40.152344 96.3125l5.664062 5.367188 90.191406-90.359376 90.265626 90.265626 5.65625-5.363282c26.582031-25.230468 40.070312-57.597656 40.070312-96.222656 0-74.992188-61.007812-136-136-136-8.199219 0-16.191406.855469-24 2.246094v-82.246094h-192v112h128.542969c-29.640625 24.96875-48.542969 62.304688-48.542969 104zm144-119.59375c62.441406 4.144531 112 56.121094 112 119.59375 0 31.28125-9.953125 57.832031-29.609375 79.078125l-82.390625-82.390625zm-208-.40625v-80h160v70.023438c-8.375 2.585937-16.398438 5.96875-24 10.039062v-.0625zm192 .40625v116.28125l-82.320312 82.472656c-19.703126-21.28125-29.679688-47.863281-29.679688-79.160156 0-63.472656 49.558594-115.449219 112-119.59375zm-240 239.59375h120v-16h-104v-336h464v336h-104v16h120v-432h-496zm16-416h464v48h-464zm176 128h-128v-16h128zm-128 16h96v16h-96zm128 16h-16v-16h16zm272-80h-80v48h80zm-16 32h-48v-16h48zm-64 80h80v-48h-80zm16-32h48v16h-48zm-16 96h80v-48h-80zm16-32h48v16h-48zm-88 0h-40v-16h40zm0 32h-40v-16h40zm32 32h-72v-16h72zm-120-64h-40v-16h40zm0 32h-40v-16h40zm-72 32v-16h72v16zm-120-272h16v16h-16zm32 0h16v16h-16zm32 0h16v16h-16zm0 0" fill="url(#a)"/></svg>