<svg id="Capa_1" enable-background="new 0 0 512 512" height="512" viewBox="0 0 512 512" width="512" xmlns="http://www.w3.org/2000/svg"><g><path d="m347 151c-19.501 0-37.301 12.599-43.299 30h-95.402c-5.999-17.401-23.798-30-43.299-30h-105v210h105c19.501 0 37.301-12.601 43.299-30h95.402c5.999 17.399 23.798 30 43.299 30h105v-210z" fill="#76e2f8"/><path d="m452 151v210h-105c-19.501 0-37.301-12.601-43.299-30h-47.701v-150h47.701c5.999-17.401 23.798-30 43.299-30z" fill="#4bb9ec"/><path d="m362 256c0 8.399-6.599 15-15 15h-182c-8.401 0-15-6.601-15-15 0-8.401 6.599-15 15-15h182c8.401 0 15 6.599 15 15z" fill="#4bb9ec"/><path d="m467 121h-30c-24.901 0-45 20.099-45 45v180c0 24.899 20.099 45 45 45h30c24.901 0 45-20.101 45-45v-180c0-24.901-20.099-45-45-45z" fill="#07485e"/><path d="m512 166v180c0 24.899-20.099 45-45 45h-15v-270h15c24.901 0 45 20.099 45 45z" fill="#03232e"/><path d="m75 121h-30c-24.901 0-45 20.099-45 45v180c0 24.899 20.099 45 45 45h30c24.901 0 45-20.101 45-45v-180c0-24.901-20.099-45-45-45z" fill="#0b799d"/><path d="m120 166v180c0 24.899-20.099 45-45 45h-15v-270h15c24.901 0 45 20.099 45 45z" fill="#07485e"/><path d="m362 256c0 8.399-6.599 15-15 15h-91v-30h91c8.401 0 15 6.599 15 15z" fill="#0095ff"/></g></svg>