<svg id="Capa_1" enable-background="new 0 0 512 512" height="512" viewBox="0 0 512 512" width="512" xmlns="http://www.w3.org/2000/svg"><g><g><g><path d="m285 242h-70.1c-5.145 0-9.931-2.637-12.68-6.986s-3.077-9.803-.869-14.45c5.739-12.081 8.649-25.056 8.649-38.564 0-13.49-2.911-26.467-8.652-38.572-2.204-4.647-1.874-10.099.876-14.446 2.749-4.347 7.533-6.982 12.677-6.982h70.099c8.284 0 15 6.716 15 15v90c0 8.284-6.716 15-15 15z" fill="#07485e"/></g></g><g><g><g><path d="m135 482 30 17.92c26.88-15.58 45-44.67 45-77.92v-166.51c0-6.09-3.69-11.58-9.33-13.89-5.64-2.3-12.12-.96-16.38 3.39-17.07 17.42-39.9 27.01-64.29 27.01s-47.22-9.59-64.29-27.01c-4.26-4.35-10.74-5.69-16.38-3.39-5.64 2.31-9.33 7.8-9.33 13.89v166.51c0 24.03 9.36 46.63 26.36 63.65 5.65 5.64 11.91 10.44 18.64 14.33l22-17.98z" fill="#0b799d"/></g></g><g><g><path d="m195.003 123.521c-3.956 0-7.841-1.566-10.719-4.505-17.063-17.422-39.893-27.016-64.284-27.016s-47.221 9.594-64.284 27.016c-4.266 4.355-10.743 5.694-16.384 3.392-5.644-2.304-9.332-7.793-9.332-13.888v-63.52c0-24.813 20.187-45 45-45h90c24.813 0 45 20.187 45 45v63.52c0 6.095-3.688 11.584-9.332 13.888-1.835.749-3.759 1.113-5.665 1.113z" fill="#0b799d"/></g></g></g><g><g><g><path d="m497 272h-212c-8.284 0-15-6.716-15-15v-150c0-8.284 6.716-15 15-15h212c8.284 0 15 6.716 15 15v150c0 8.284-6.716 15-15 15z" fill="#c7cfe1"/></g></g></g><g fill="#07485e"><path d="m195.003 123.521c1.906 0 3.83-.364 5.665-1.113 5.644-2.303 9.332-7.793 9.332-13.888v-63.52c0-24.813-20.187-45-45-45h-45v92c24.391 0 47.221 9.594 64.284 27.016 2.878 2.939 6.763 4.505 10.719 4.505z"/><path d="m135 482 30 17.92c26.88-15.58 45-44.67 45-77.92v-166.51c0-6.09-3.69-11.58-9.33-13.89-5.64-2.3-12.12-.96-16.38 3.39-17.07 17.42-39.9 27.01-64.29 27.01v210z"/></g><g><g><path d="m120 302c-32.516 0-62.956-12.789-85.713-36.011-22.11-22.562-34.287-52.39-34.287-83.989 0-31.593 12.177-61.417 34.287-83.979 22.749-23.227 53.191-36.021 85.713-36.021s62.964 12.794 85.716 36.024c9.353 9.549 16.999 20.493 22.729 32.529 7.67 16.172 11.555 33.475 11.555 51.447 0 17.996-3.886 35.302-11.551 51.436-5.715 12.031-13.363 22.983-22.732 32.549-22.761 23.226-53.201 36.015-85.717 36.015z" fill="#f0f7ff"/></g></g><path d="m205.717 265.986c9.369-9.567 17.018-20.518 22.732-32.549 7.665-16.135 11.551-33.441 11.551-51.437 0-17.972-3.885-35.275-11.556-51.447-5.729-12.036-13.376-22.98-22.729-32.529-22.751-23.23-53.193-36.024-85.715-36.024v240c32.516 0 62.956-12.789 85.717-36.014z" fill="#c7cfe1"/><g><path d="m120 242.004c-33.084 0-60-26.916-60-60s26.916-60 60-60 60 26.916 60 60-26.916 60-60 60z" fill="#76e2f8"/></g><path d="m180 182.004c0-33.084-26.916-60-60-60v120c33.084 0 60-26.916 60-60z" fill="#4bb9ec"/><path d="m165 482v17.92c-13.24 7.68-28.62 12.08-45 12.08-16.06 0-31.47-4.18-45-12.02v-17.98c0-24.85 20.15-45 45-45s45 20.15 45 45z" fill="#76e2f8"/><path d="m165 482c0-24.85-20.15-45-45-45v75c16.38 0 31.76-4.4 45-12.08z" fill="#4bb9ec"/><g><circle cx="120" cy="377.004" fill="#ff9f22" r="15"/></g><path d="m135 377.004c0-8.284-6.716-15-15-15v30c8.284 0 15-6.715 15-15z" fill="#ff4a4a"/></g></svg>