<svg id="Capa_1" enable-background="new 0 0 512 512" height="512" viewBox="0 0 512 512" width="512" xmlns="http://www.w3.org/2000/svg"><g><path d="m422 226h-166-166l-60 30v165c0 24.853 20.147 45 45 45h181 181c24.853 0 45-20.147 45-45v-165z" fill="#07485e"/><path d="m482 421v-165l-60-30h-166v240h181c24.853 0 45-20.147 45-45z" fill="#03232e"/><path d="m256 256h-196v165c0 8.284 6.716 15 15 15h181 181c8.284 0 15-6.716 15-15v-165z" fill="#76e2f8"/><path d="m452 421v-165h-196v180h181c8.284 0 15-6.716 15-15z" fill="#4bb9ec"/><path d="m392 301c0 8.29-6.71 15-15 15h-242c-8.29 0-15-6.71-15-15s6.71-15 15-15h242c8.29 0 15 6.71 15 15z" fill="#f0f7ff"/><g fill="#76e2f8"><path d="m370.17 91.967c-30.908-29.649-71.455-45.967-114.17-45.967s-83.262 16.318-114.17 45.967c-5.977 5.742-6.167 15.234-.439 21.211 5.728 5.991 15.22 6.152 21.211.439 25.283-24.258 58.461-37.617 93.398-37.617s68.115 13.359 93.398 37.617c6.033 5.76 15.493 5.506 21.211-.439 5.728-5.977 5.537-15.469-.439-21.211z"/><path d="m256 106.959c-26.455 0-52.91 9.397-72.539 28.191-5.991 5.728-6.196 15.234-.469 21.211 5.728 5.991 15.249 6.182 21.211.469 14.033-13.433 32.915-20.149 51.797-20.149s37.764 6.716 51.797 20.149c5.962 5.72 15.482 5.517 21.211-.469 5.728-5.977 5.522-15.483-.469-21.211-19.629-18.794-46.084-28.191-72.539-28.191z"/><path d="m256 166.396c-11.243 0-22.485 3.955-30.864 11.865-6.035 5.684-6.313 15.176-.63 21.196 5.654 6.05 15.19 6.328 21.196.63 2.798-2.637 6.548-3.955 10.298-3.955s7.5 1.318 10.298 3.955c5.984 5.68 15.522 5.411 21.196-.63 5.684-6.021 5.405-15.513-.63-21.196-8.379-7.91-19.621-11.865-30.864-11.865z"/></g><g fill="#4bb9ec"><path d="m370.609 113.178c5.728-5.977 5.537-15.469-.439-21.211-30.908-29.649-71.455-45.967-114.17-45.967v30c34.937 0 68.115 13.359 93.398 37.617 6.034 5.761 15.493 5.506 21.211-.439z"/><path d="m329.008 156.361c5.728-5.977 5.522-15.483-.469-21.211-19.629-18.794-46.084-28.191-72.539-28.191v29.722c18.882 0 37.764 6.716 51.797 20.149 5.962 5.72 15.481 5.517 21.211-.469z"/><path d="m287.494 199.457c5.684-6.021 5.405-15.513-.63-21.196-8.379-7.91-19.622-11.865-30.864-11.865v29.736c3.75 0 7.5 1.318 10.298 3.955 5.984 5.68 15.522 5.411 21.196-.63z"/></g><path d="m75 376h-60c-8.284 0-15-6.716-15-15v-120c0-8.284 6.716-15 15-15h75v135c0 8.284-6.716 15-15 15z" fill="#0b799d"/><path d="m497 376h-60c-8.284 0-15-6.716-15-15v-135h75c8.284 0 15 6.716 15 15v120c0 8.284-6.716 15-15 15z" fill="#07485e"/><path d="m392 301c0 8.29-6.71 15-15 15h-121v-30h121c8.29 0 15 6.71 15 15z" fill="#dfe7f4"/></g></svg>