<svg id="Capa_1" enable-background="new 0 0 512 512" height="512" viewBox="0 0 512 512" width="512" xmlns="http://www.w3.org/2000/svg"><g><g><g><path d="m15 120.002c-8.284 0-15-6.716-15-15 0-57.897 47.103-105 105-105 8.284 0 15 6.716 15 15s-6.716 15-15 15c-41.355 0-75 33.645-75 75 0 8.285-6.716 15-15 15z" fill="#76e2f8"/></g><g><path d="m75 120.002c-8.284 0-15-6.716-15-15 0-24.813 20.187-45 45-45 8.284 0 15 6.716 15 15s-6.716 15-15 15c-8.271 0-15 6.729-15 15 0 8.285-6.716 15-15 15z" fill="#76e2f8"/></g></g><g><g><path d="m497 120.038c-8.284 0-15-6.716-15-15 0-41.355-33.645-75-75-75-8.284 0-15-6.716-15-15s6.716-15 15-15c57.897 0 105 47.103 105 105 0 8.284-6.716 15-15 15z" fill="#4bb9ec"/></g><g><path d="m437 120.038c-8.284 0-15-6.716-15-15 0-8.271-6.729-15-15-15-8.284 0-15-6.716-15-15s6.716-15 15-15c24.813 0 45 20.187 45 45 0 8.284-6.716 15-15 15z" fill="#4bb9ec"/></g></g><g><g><g><g><path d="m256 511.998c-60.1 0-116.603-23.404-159.1-65.901-42.496-42.497-65.9-98.999-65.9-159.099s23.404-116.602 65.9-159.099c42.497-42.497 99-65.901 159.1-65.901s116.603 23.404 159.1 65.901c42.496 42.497 65.9 98.999 65.9 159.099s-23.404 116.602-65.9 159.099c-42.497 42.497-99 65.901-159.1 65.901z" fill="#0b799d"/></g></g></g><path d="m256 511.998c60.1 0 116.603-23.404 159.1-65.901 42.496-42.497 65.9-98.999 65.9-159.099s-23.404-116.602-65.9-159.099c-42.497-42.497-99-65.901-159.1-65.901z" fill="#07485e"/><g><path d="m406 301.998h-90c-8.284 0-15-6.716-15-15 0-24.813-20.187-45-45-45s-45 20.187-45 45c0 8.284-6.716 15-15 15h-90c-8.284 0-15-6.716-15-15 0-90.981 74.019-165 165-165s165 74.019 165 165c0 8.284-6.716 15-15 15z" fill="#76e2f8"/></g><g><path d="m301 286.998c0 8.284 6.716 15 15 15h90c8.284 0 15-6.716 15-15 0-90.981-74.019-165-165-165v120c24.813 0 45 20.187 45 45z" fill="#4bb9ec"/></g><g><g><circle cx="316" cy="407.002" fill="#ff4a4a" r="15"/></g></g><g><circle cx="196" cy="407.002" fill="#ff9f22" r="15"/></g></g></g><g><path d="m256 361.998c-41.355 0-75-33.645-75-75s33.645-75 75-75 75 33.645 75 75-33.645 75-75 75z" fill="#f0f7ff"/></g><path d="m331 286.998c0-41.355-33.645-75-75-75v150c41.355 0 75-33.645 75-75z" fill="#dfe7f4"/><g><g><circle cx="256" cy="407.002" fill="#ff9f22" r="15"/></g></g><path d="m271 407.002c0-8.284-6.716-15-15-15v30c8.284 0 15-6.716 15-15z" fill="#ff4a4a"/></svg>