<svg id="Capa_1" enable-background="new 0 0 512 512" height="512" viewBox="0 0 512 512" width="512" xmlns="http://www.w3.org/2000/svg"><g><path d="m466 182h-30-121c-8.291 0-15 6.709-15 15s6.709 15 15 15h121 30c8.276 0 16 6.724 16 15s-7.724 15-16 15c-11.567 0-22.02 4.508-30 11.704-9.139 8.243-15 20.048-15 33.296v30c0 8.291 6.709 15 15 15s15-6.709 15-15v-30c0-8.276 6.724-15 15-15 24.814 0 46-20.186 46-45s-21.186-45-46-45z" fill="#dfe7f4"/><path d="m451 317v-30c0-8.276 6.724-15 15-15 24.814 0 46-20.186 46-45s-21.186-45-46-45h-30v30h30c8.276 0 16 6.724 16 15s-7.724 15-16 15c-11.567 0-22.02 4.508-30 11.704v78.296c8.291 0 15-6.709 15-15z" fill="#c7cfe1"/><path d="m436 302c-41.353 0-76 33.647-76 75v60c0 41.353 34.647 75 76 75s76-33.647 76-75v-60c0-41.353-34.647-75-76-75z" fill="#ff9f22"/><path d="m512 437v-60c0-41.353-34.647-75-76-75v210c41.353 0 76-33.647 76-75z" fill="#ff4a4a"/><path d="m120 197h90v60h-90z" fill="#dfe7f4"/><path d="m165 197h45v60h-45z" fill="#c7cfe1"/><path d="m315 0h-300c-8.401 0-15 6.599-15 15v182c0 8.401 6.599 15 15 15h300c8.401 0 15-6.599 15-15v-182c0-8.401-6.599-15-15-15z" fill="#0b799d"/><path d="m330 15v182c0 8.401-6.599 15-15 15h-150v-212h150c8.401 0 15 6.599 15 15z" fill="#07485e"/><path d="m315 302h-300c-8.401 0-15 6.599-15 15v180c0 8.401 6.599 15 15 15h300c8.401 0 15-6.599 15-15v-180c0-8.401-6.599-15-15-15z" fill="#0b799d"/><path d="m330 317v180c0 8.401-6.599 15-15 15h-150v-210h150c8.401 0 15 6.599 15 15z" fill="#07485e"/><g fill="#f0f7ff"><path d="m270 257c0 8.401-6.599 15-15 15h-180c-8.401 0-15-6.599-15-15s6.599-15 15-15h180c8.401 0 15 6.599 15 15z"/><path d="m30 392h30v30h-30z"/><path d="m90 392h30v30h-30z"/><path d="m150 332h30v30h-30z"/></g><path d="m210 332h30v30h-30z" fill="#dfe7f4"/><path d="m150 392h30v30h-30z" fill="#f0f7ff"/><path d="m90 332h30v30h-30z" fill="#f0f7ff"/><path d="m90 452h150v30h-150z" fill="#76e2f8"/><path d="m210 392h30v30h-30z" fill="#dfe7f4"/><path d="m270 392h30v30h-30z" fill="#dfe7f4"/><path d="m270 332h30v30h-30z" fill="#dfe7f4"/><path d="m30 332h30v30h-30z" fill="#f0f7ff"/><path d="m30 452h30v30h-30z" fill="#76e2f8"/><path d="m270 452h30v30h-30z" fill="#4bb9ec"/><path d="m165 332h15v30h-15z" fill="#dfe7f4"/><path d="m165 392h15v30h-15z" fill="#dfe7f4"/><path d="m165 452h75v30h-75z" fill="#4bb9ec"/><path d="m270 257c0 8.401-6.599 15-15 15h-90v-30h90c8.401 0 15 6.599 15 15z" fill="#dfe7f4"/><path d="m30 30v152h270v-152z" fill="#76e2f8"/><path d="m165 30h135v152h-135z" fill="#4bb9ec"/><path d="m436 362c-8.291 0-15 6.709-15 15v30c0 8.291 6.709 15 15 15s15-6.709 15-15v-30c0-8.291-6.709-15-15-15z" fill="#0b799d"/><path d="m451 407v-30c0-8.291-6.709-15-15-15v60c8.291 0 15-6.709 15-15z" fill="#07485e"/></g></svg>