<svg id="Capa_1" enable-background="new 0 0 512 512" height="512" viewBox="0 0 512 512" width="512" xmlns="http://www.w3.org/2000/svg"><g><path d="m271 256v60c0 8.399-6.599 15-15 15s-15-6.601-15-15v-60c0-8.401 6.599-15 15-15s15 6.599 15 15z" fill="#0b799d"/><path d="m271 256v60c0 8.399-6.599 15-15 15v-90c8.401 0 15 6.599 15 15z" fill="#07485e"/><path d="m331 196v60c0 8.399-6.599 15-15 15h-120c-8.401 0-15-6.601-15-15v-60z" fill="#ff9f22"/><path d="m331 196v60c0 8.399-6.599 15-15 15h-60v-75z" fill="#ff4a4a"/><path d="m391 196c0 8.399-6.599 15-15 15h-240c-8.401 0-15-6.601-15-15 0-8.401 6.599-15 15-15h240c8.401 0 15 6.599 15 15z" fill="#0b799d"/><path d="m391 196c0 8.399-6.599 15-15 15h-120v-30h120c8.401 0 15 6.599 15 15z" fill="#07485e"/><path d="m106 151c-8.291 0-15-6.709-15-15v-59c0-8.291 6.709-15 15-15s15 6.709 15 15v59c0 8.291-6.709 15-15 15z" fill="#0b799d"/><path d="m106 330c-8.291 0-15-6.709-15-15v-89c0-8.291 6.709-15 15-15s15 6.709 15 15v89c0 8.291-6.709 15-15 15z" fill="#0b799d"/><path d="m406 151c-8.291 0-15-6.709-15-15v-59c0-8.291 6.709-15 15-15s15 6.709 15 15v59c0 8.291-6.709 15-15 15z" fill="#07485e"/><path d="m406 330c-8.291 0-15-6.709-15-15v-89c0-8.291 6.709-15 15-15s15 6.709 15 15v89c0 8.291-6.709 15-15 15z" fill="#07485e"/><path d="m106 241c-24.814 0-45-20.186-45-45v-60c0-8.291 6.709-15 15-15h60c8.291 0 15 6.709 15 15v60c0 24.814-20.186 45-45 45z" fill="#dfe7f4"/><path d="m406 241c-24.814 0-45-20.186-45-45v-60c0-8.291 6.709-15 15-15h60c8.291 0 15 6.709 15 15v60c0 24.814-20.186 45-45 45z" fill="#c7cfe1"/><g><circle cx="256" cy="376" fill="#0b799d" r="75"/><path d="m331 376c0-41.422-33.578-75-75-75v150c41.422 0 75-33.58 75-75z" fill="#07485e"/><circle cx="256" cy="376" fill="#76e2f8" r="45"/><path d="m301 376c0-24.814-20.186-45-45-45v90c24.814 0 45-20.186 45-45z" fill="#4bb9ec"/><circle cx="256" cy="376" fill="#f0f7ff" r="15"/><path d="m271 376c0-8.284-6.716-15-15-15v30c8.284 0 15-6.716 15-15z" fill="#dfe7f4"/></g><path d="m436 331h-60c-8.291 0-15-6.709-15-15s6.709-15 15-15h60c8.291 0 15 6.709 15 15s-6.709 15-15 15z" fill="#c7cfe1"/><path d="m136 331h-60c-8.291 0-15-6.709-15-15s6.709-15 15-15h60c8.291 0 15 6.709 15 15s-6.709 15-15 15z" fill="#dfe7f4"/><path d="m196 91h-181c-8.291 0-15-6.709-15-15s6.709-15 15-15h181c8.291 0 15 6.709 15 15s-6.709 15-15 15z" fill="#76e2f8"/><path d="m497 91h-181c-8.291 0-15-6.709-15-15s6.709-15 15-15h181c8.291 0 15 6.709 15 15s-6.709 15-15 15z" fill="#4bb9ec"/></g></svg>