<svg id="Capa_1" enable-background="new 0 0 512 512" height="512" viewBox="0 0 512 512" width="512" xmlns="http://www.w3.org/2000/svg"><g><path d="m512 136v300c0 8.399-6.599 15-15 15h-482c-8.401 0-15-6.601-15-15v-300c0-8.401 6.599-15 15-15h482c8.401 0 15 6.599 15 15z" fill="#07485e"/><path d="m512 136v300c0 8.399-6.599 15-15 15h-151v-330h151c8.401 0 15 6.599 15 15z" fill="#03232e"/><path d="m135 481h-30c-24.814 0-45-20.186-45-45v-300c0-24.814 20.186-45 45-45h30c24.814 0 46 20.186 46 45v300c0 24.814-21.186 45-46 45z" fill="#0b799d"/><g fill="#f0f7ff"><circle cx="286" cy="256" r="15"/><circle cx="286" cy="316" r="15"/><circle cx="346" cy="316" r="15"/><circle cx="346" cy="256" r="15"/></g><circle cx="406" cy="256" fill="#dfe7f4" r="15"/><circle cx="406" cy="316" fill="#dfe7f4" r="15"/><circle cx="286" cy="376" fill="#f0f7ff" r="15"/><circle cx="346" cy="376" fill="#f0f7ff" r="15"/><circle cx="406" cy="376" fill="#dfe7f4" r="15"/><path d="m361 376c0 8.399-6.599 15-15 15v-30c8.401 0 15 6.599 15 15z" fill="#dfe7f4"/><path d="m361 316c0 8.399-6.599 15-15 15v-30c8.401 0 15 6.599 15 15z" fill="#dfe7f4"/><path d="m361 256c0 8.399-6.599 15-15 15v-30c8.401 0 15 6.599 15 15z" fill="#dfe7f4"/><path d="m436 31h-180c-8.401 0-15 6.599-15 15v150c0 8.399 6.599 15 15 15h180c8.401 0 15-6.601 15-15v-150c0-8.401-6.599-15-15-15z" fill="#f0f7ff"/><path d="m451 46v150c0 8.399-6.599 15-15 15h-90v-180h90c8.401 0 15 6.599 15 15z" fill="#dfe7f4"/></g></svg>