<svg id="Capa_1" enable-background="new 0 0 512 512" height="512" viewBox="0 0 512 512" width="512" xmlns="http://www.w3.org/2000/svg"><g><path d="m256 15c-70.8 0-132.9 37.8-167.1 94.501 0 .298.3.298.3.298l30.3 18.6c17.241 10.778 39.771 8.02 54-5.7 22.5-21.151 52.5-31.725 82.5-31.725s60 10.574 82.5 31.725c14.7 14.101 36.899 16.501 54 5.7l30.3-18.6s.3 0 .3-.298c-32.697-55.705-95.771-94.501-167.1-94.501z" fill="#ff9f22"/><path d="m392.5 128.399 30.3-18.6s.3 0 .3-.298c-32.697-55.705-95.771-94.501-167.1-94.501v75.974c30 0 60 10.574 82.5 31.725 14.7 14.101 36.899 16.501 54 5.7z" fill="#ff4a4a"/><path d="m256 0c-115.796 0-210 94.204-210 210v30c0 8.291 6.709 15 15 15s15-6.709 15-15v-30c0-99.258 80.742-180 180-180s180 80.742 180 180v30c0 8.291 6.709 15 15 15s15-6.709 15-15v-30c0-115.796-94.204-210-210-210z" fill="#0b799d"/><path d="m436 210v30c0 8.291 6.709 15 15 15s15-6.709 15-15v-30c0-115.796-94.204-210-210-210v30c99.258 0 180 80.742 180 180z" fill="#07485e"/><path d="m451 346c-8.291 0-15 6.709-15 15v76c0 8.276-6.724 15-15 15h-150c-5.284 0-10.285 1.082-15 2.763-17.422 6.213-30 22.707-30 42.237 0 8.291 6.709 15 15 15s15-6.709 15-15c0-8.276 6.724-15 15-15h150c24.814 0 45-20.186 45-45v-76c0-8.291-6.709-15-15-15z" fill="#f0f7ff"/><path d="m271 482h150c24.814 0 45-20.186 45-45v-76c0-8.291-6.709-15-15-15s-15 6.709-15 15v76c0 8.276-6.724 15-15 15h-150c-5.284 0-10.285 1.082-15 2.763v42.237c0-8.276 6.724-15 15-15z" fill="#dfe7f4"/><path d="m121 391h-15c-49.629 0-90-40.371-90-90s40.371-91 90-91h15c8.291 0 15 6.709 15 15v151c0 8.291-6.709 15-15 15z" fill="#ff9f22"/><path d="m406 391h-15c-8.291 0-15-6.709-15-15v-151c0-8.291 6.709-15 15-15h15c49.629 0 90 41.371 90 91s-40.371 90-90 90zm0-30h.293z" fill="#ff4a4a"/></g></svg>