<svg id="Capa_1" enable-background="new 0 0 512 512" height="512" viewBox="0 0 512 512" width="512" xmlns="http://www.w3.org/2000/svg"><g><path d="m286 0h-30-30c-8.284 0-15 6.714-15 15v467h45 45v-467c0-8.286-6.716-15-15-15z" fill="#dfe7f4"/><path d="m301 15c0-8.286-6.716-15-15-15h-30v482h45z" fill="#c7cfe1"/><path d="m346 61h-90-30c-24.814 0-45 20.186-45 45v15l30 15-30 15v30l30 15-30 15v30l30 15-30 15v15c0 24.814 20.186 45 45 45h30 30c24.814 0 45-20.186 45-45v-120c0-8.276 6.724-15 15-15 24.814 0 45-20.186 45-45s-20.186-45-45-45z" fill="#ff9f22"/><g fill="#ff4a4a"><path d="m331 286v-120c0-8.276 6.724-15 15-15 24.814 0 45-20.186 45-45s-20.186-45-45-45h-90v270h30c24.814 0 45-20.186 45-45z"/><path d="m241 256c0-8.291-6.709-15-15-15h-45v30h45c8.291 0 15-6.709 15-15z"/><path d="m241 196c0-8.291-6.709-15-15-15h-45v30h45c8.291 0 15-6.709 15-15z"/><path d="m241 136c0-8.291-6.709-15-15-15h-45v30h45c8.291 0 15-6.709 15-15z"/></g><path d="m406 422h-150-150c-24.814 0-45 20.186-45 45v30c0 8.291 6.709 15 15 15h180 180c8.291 0 15-6.709 15-15v-30c0-24.814-20.186-45-45-45z" fill="#0b799d"/><path d="m451 497v-30c0-24.814-20.186-45-45-45h-150v90h180c8.291 0 15-6.709 15-15z" fill="#07485e"/></g></svg>