<svg id="Capa_1" enable-background="new 0 0 512 512" height="512" viewBox="0 0 512 512" width="512" xmlns="http://www.w3.org/2000/svg"><g><path d="m346 0h-90-90c-24.814 0-45 20.186-45 45v331c0 74.443 60.557 136 135 136s135-61.557 135-136v-331c0-24.814-20.186-45-45-45z" fill="#0b799d"/><path d="m391 376v-331c0-24.814-20.186-45-45-45h-90v512c74.443 0 135-61.557 135-136z" fill="#07485e"/><path d="m226 211h-30c-8.291 0-15-6.709-15-15s6.709-15 15-15h30c8.291 0 15 6.709 15 15s-6.709 15-15 15z" fill="#f0f7ff"/><path d="m316 211h-30c-8.291 0-15-6.709-15-15s6.709-15 15-15h30c8.291 0 15 6.709 15 15s-6.709 15-15 15z" fill="#dfe7f4"/><path d="m226 151h-30c-8.291 0-15-6.709-15-15s6.709-15 15-15h30c8.291 0 15 6.709 15 15s-6.709 15-15 15z" fill="#f0f7ff"/><path d="m316 151h-30c-8.291 0-15-6.709-15-15s6.709-15 15-15h30c8.291 0 15 6.709 15 15s-6.709 15-15 15z" fill="#dfe7f4"/><path d="m316 271h-30c-8.291 0-15-6.709-15-15s6.709-15 15-15h30c8.291 0 15 6.709 15 15s-6.709 15-15 15z" fill="#dfe7f4"/><path d="m226 271h-30c-8.291 0-15-6.709-15-15s6.709-15 15-15h30c8.291 0 15 6.709 15 15s-6.709 15-15 15z" fill="#f0f7ff"/><circle cx="196" cy="76" fill="#76e2f8" r="15"/><circle cx="316" cy="76" fill="#ff4a4a" r="15"/><g><circle cx="256" cy="376" fill="#f0f7ff" r="75"/><path d="m331 376c0-41.422-33.578-75-75-75v150c41.422 0 75-33.58 75-75z" fill="#dfe7f4"/><circle cx="256" cy="376" fill="#76e2f8" r="45"/><path d="m301 376c0-24.814-20.186-45-45-45v90c24.814 0 45-20.186 45-45z" fill="#4bb9ec"/><circle cx="256" cy="376" fill="#0b799d" r="15"/><path d="m271 376c0-8.284-6.716-15-15-15v30c8.284 0 15-6.716 15-15z" fill="#07485e"/></g></g></svg>