<svg id="Capa_1" enable-background="new 0 0 512 512" height="512" viewBox="0 0 512 512" width="512" xmlns="http://www.w3.org/2000/svg"><g><path d="m347.034 360h30c8.291 0 15-6.709 15-15s-6.709-15-15-15h-20.728l-15-30-14.92-30-18.625 30 25.854 51.709c2.55 5.083 7.735 8.291 13.419 8.291z" fill="#0b799d"/><path d="m457.762 330h-20.728c-8.291 0-15 6.709-15 15s6.709 15 15 15h30c5.684 0 10.869-3.208 13.418-8.291l25.855-51.709-16.155-30-17.39 30z" fill="#07485e"/><path d="m407.034 90h-30v150h30 30v-150z" fill="#0b799d"/><path d="m407.034 90h30v150h-30z" fill="#07485e"/><path d="m104.034 105h60v210h-60z" fill="#0b799d"/><path d="m134.034 105h30v210h-30z" fill="#07485e"/><path d="m239.034 375v122h-210v-122c0-57.9 47.1-105 105-105s105 47.1 105 105z" fill="#ff9f22"/><path d="m239.034 375v122h-105v-227c57.9 0 105 47.1 105 105z" fill="#ff4a4a"/><path d="m269.034 497c0 8.399-6.599 15-15 15h-240c-8.401 0-14-6.601-14-15 0-8.401 5.599-15 14-15h240c8.401 0 15 6.599 15 15z" fill="#0b799d"/><path d="m134.034 330c-24.901 0-45 20.099-45 45 0 24.899 20.099 45 45 45s45-20.101 45-45c0-24.901-20.099-45-45-45z" fill="#0b799d"/><path d="m149.034 45h243v60h-243z" fill="#07485e"/><g><circle cx="134.034" cy="75" fill="#ff9f22" r="75"/><path d="m209.034 75c0-41.422-33.578-75-75-75v150c41.422 0 75-33.58 75-75z" fill="#ff4a4a"/><circle cx="134.034" cy="75" fill="#0b799d" r="15"/><path d="m149.034 75c0-8.284-6.716-15-15-15v30c8.284 0 15-6.716 15-15z" fill="#07485e"/></g><g><circle cx="407.034" cy="75" fill="#ff9f22" r="75"/><path d="m482.034 75c0-41.422-33.578-75-75-75v150c41.422 0 75-33.58 75-75z" fill="#ff4a4a"/><circle cx="407.034" cy="75" fill="#0b799d" r="15"/><path d="m422.034 75c0-8.284-6.716-15-15-15v30c8.284 0 15-6.716 15-15z" fill="#07485e"/></g><path d="m134.034 420v-90c24.901 0 45 20.099 45 45 0 24.899-20.099 45-45 45z" fill="#07485e"/><path d="m269.034 497c0 8.399-6.599 15-15 15h-120v-30h120c8.401 0 15 6.599 15 15z" fill="#07485e"/><path d="m510.63 279.128c-.115-.269-30.178-60.837-30.178-60.837-2.549-5.083-7.734-8.291-13.418-8.291h-60-60c-5.684 0-10.869 3.208-13.418 8.291-3.087 6.218 11.204-22.522-30.178 60.837-1.771 4.102-1.818 8.586.178 12.581l4.146 8.291h33.545 65.728 65.728 33.545l4.146-8.291c1.943-3.893 2.027-8.298.176-12.581z" fill="#ff9f22"/><path d="m506.307 300 4.146-8.291c1.945-3.893 2.029-8.298.178-12.581-.115-.269-30.178-60.837-30.178-60.837-2.549-5.083-7.734-8.291-13.418-8.291h-60v90h65.728z" fill="#ff4a4a"/></g></svg>