<svg id="Capa_1" enable-background="new 0 0 512 512" height="512" viewBox="0 0 512 512" width="512" xmlns="http://www.w3.org/2000/svg"><g><path d="m203.148 360.381-37.148-13.528-30.146-10.979-44.283 157.01h74.429 74.429z" fill="#76e2f8"/><path d="m203.148 360.381-37.148-13.528v146.031h74.429z" fill="#4bb9ec"/><path d="m305.395 175.605c-5.859-5.859-15.352-5.859-21.211 0l-53.789 53.789c-5.859 5.859-5.859 15.352 0 21.211s15.352 5.859 21.211 0l53.789-53.789c5.859-5.859 5.859-15.351 0-21.211z" fill="#0b799d"/><path d="m251.605 250.605 53.789-53.789c5.859-5.859 5.859-15.352 0-21.211l-75 75c5.86 5.86 15.352 5.86 21.211 0z" fill="#07485e"/><g fill="#76e2f8"><path d="m316 60c-8.291 0-15 6.709-15 15s6.709 15 15 15c20.676 0 39.426 8.412 53.007 21.993s21.993 32.331 21.993 53.007c0 8.291 6.709 15 15 15s15-6.709 15-15c0-28.945-11.777-55.195-30.791-74.209s-45.264-30.791-74.209-30.791z"/><path d="m432.618 48.382c-29.877-29.877-71.127-48.382-116.618-48.382-8.291 0-15 6.709-15 15s6.709 15 15 15c37.222 0 70.972 15.139 95.416 39.584s39.584 58.194 39.584 95.416c0 8.291 6.709 15 15 15s15-6.709 15-15c0-45.491-18.505-86.741-48.382-116.618z"/></g><path d="m466 180c8.291 0 15-6.709 15-15 0-45.491-18.505-86.741-48.382-116.618l-21.202 21.202c24.445 24.444 39.584 58.194 39.584 95.416 0 8.291 6.709 15 15 15z" fill="#4bb9ec"/><path d="m406 180c8.291 0 15-6.709 15-15 0-28.945-11.777-55.195-30.791-74.209l-21.202 21.202c13.581 13.581 21.993 32.331 21.993 53.007 0 8.291 6.709 15 15 15z" fill="#4bb9ec"/><path d="m347.805 133.195c-8.148-8.149-19.398-13.195-31.805-13.195-24.814 0-45 20.186-45 45 0 12.407 5.046 23.657 13.195 31.805s19.398 13.195 31.805 13.195c24.814 0 45-20.186 45-45 0-12.407-5.046-23.657-13.195-31.805z" fill="#76e2f8"/><path d="m361 165c0-12.407-5.046-23.657-13.195-31.805l-63.611 63.611c8.149 8.148 19.399 13.194 31.806 13.194 24.814 0 45-20.186 45-45z" fill="#4bb9ec"/><path d="m347.069 324.858-95.464-95.464-95.464-95.464c-5.859-5.859-15.352-5.859-21.211 0-58.491 58.491-58.491 153.647 0 212.139 58.478 58.478 153.629 58.51 212.139 0 5.86-5.859 5.86-15.351 0-21.211z" fill="#f0f7ff"/><path d="m347.069 346.069c5.859-5.859 5.859-15.352 0-21.211l-95.464-95.464-116.674 116.675c58.478 58.479 153.629 58.51 212.138 0z" fill="#c7cfe1"/><path d="m286 482h-120-120c-8.291 0-15 6.709-15 15s6.709 15 15 15h120 120c8.291 0 15-6.709 15-15s-6.709-15-15-15z" fill="#0b799d"/><path d="m301 497c0-8.291-6.709-15-15-15h-120v30h120c8.291 0 15-6.709 15-15z" fill="#07485e"/></g></svg>