<svg id="Capa_1" enable-background="new 0 0 512 512" height="512" viewBox="0 0 512 512" width="512" xmlns="http://www.w3.org/2000/svg"><g><path d="m330.546 372.367h-74.546-74.546l-30 121h104.546 104.546z" fill="#76e2f8"/><path d="m330.546 372.367h-74.546v121h104.546z" fill="#4bb9ec"/><path d="m421 196h-165-165l-29.24 15c7.709 100.516 91.783 180 194.24 180s186.531-79.484 194.24-180z" fill="#f0f7ff"/><path d="m450.24 211-29.24-15h-165v195c102.457 0 186.531-79.484 194.24-180z" fill="#dfe7f4"/><path d="m256 0c-102.457 0-186.531 80.484-194.24 181l29.24 15h165 165l29.24-15c-7.709-100.516-91.783-181-194.24-181z" fill="#f0f7ff"/><path d="m450.24 181c-7.709-100.516-91.783-181-194.24-181v196h165z" fill="#dfe7f4"/><path d="m450.24 181h-194.24-194.24c-.381 4.968-.76 9.937-.76 15s.379 10.032.76 15h194.24 194.24c.381-4.968.76-9.937.76-15s-.379-10.032-.76-15z" fill="#dfe7f4"/><path d="m451 196c0-5.063-.379-10.032-.76-15h-194.24v30h194.24c.381-4.968.76-9.937.76-15z" fill="#c7cfe1"/><circle cx="256" cy="196" fill="#0b799d" r="105"/><path d="m361 196c0-57.99-47.01-105-105-105v210c57.99 0 105-47.01 105-105z" fill="#07485e"/><g><circle cx="256" cy="196" fill="#76e2f8" r="75"/><path d="m331 196c0-41.422-33.578-75-75-75v150c41.422 0 75-33.58 75-75z" fill="#4bb9ec"/><circle cx="256" cy="196" fill="#f0f7ff" r="15"/><path d="m271 196c0-8.284-6.716-15-15-15v30c8.284 0 15-6.716 15-15z" fill="#dfe7f4"/></g><path d="m406 482h-150-150c-8.291 0-15 6.709-15 15s6.709 15 15 15h150 150c8.291 0 15-6.709 15-15s-6.709-15-15-15z" fill="#0b799d"/><path d="m421 497c0-8.291-6.709-15-15-15h-150v30h150c8.291 0 15-6.709 15-15z" fill="#07485e"/></g></svg>