<svg id="Capa_1" enable-background="new 0 0 512 512" height="512" viewBox="0 0 512 512" width="512" xmlns="http://www.w3.org/2000/svg" xmlns:xlink="http://www.w3.org/1999/xlink"><linearGradient id="SVGID_1_" gradientUnits="userSpaceOnUse" x1="256" x2="256" y1="481" y2="31"><stop offset="0" stop-color="#a93aff"/><stop offset="1" stop-color="#ff81ff"/></linearGradient><g><g><path d="m497 31c-18.794 0-463.32 0-482 0-8.284 0-15 6.716-15 15v420c0 8.284 6.716 15 15 15h482c8.284 0 15-6.716 15-15v-420c0-8.284-6.716-15-15-15zm-156.213 30 30 30h-77.574l-30-30zm-47.574 60h77.574l-30 30h-77.574zm-141.213-60h68.787l30 30h-98.787zm0 60h98.787l-30 30h-68.787zm330 330h-452v-390h92v105c0 8.284 6.716 15 15 15h345zm0-300h-98.787l30-30h68.787zm0-60h-68.787l-30-30h98.787zm-407 0c-8.284 0-15 6.716-15 15s6.716 15 15 15 15-6.716 15-15-6.716-15-15-15zm17 165c0 8.284 6.716 15 15 15h45v90h-45c-8.284 0-15 6.716-15 15s6.716 15 15 15h300c8.284 0 15-6.716 15-15s-6.716-15-15-15h-45v-90h45c8.284 0 15-6.716 15-15s-6.716-15-15-15h-300c-8.284 0-15 6.716-15 15zm90 15h150v90h-150z" fill="url(#SVGID_1_)"/></g></g></svg>