<svg id="Capa_1" enable-background="new 0 0 512 512" height="512" viewBox="0 0 512 512" width="512" xmlns="http://www.w3.org/2000/svg" xmlns:xlink="http://www.w3.org/1999/xlink"><linearGradient id="SVGID_1_" gradientUnits="userSpaceOnUse" x1="256" x2="256" y1="512" y2="0"><stop offset="0" stop-color="#00b59c"/><stop offset="1" stop-color="#9cffac"/></linearGradient><g><g><path d="m376 0h-240c-8.284 0-15 6.716-15 15v482c0 8.284 6.716 15 15 15h240c8.284 0 15-6.716 15-15v-482c0-8.284-6.716-15-15-15zm-15 482h-210v-452h210zm-90-60h-30c-8.284 0-15 6.716-15 15s6.716 15 15 15h30c8.284 0 15-6.716 15-15s-6.716-15-15-15zm-53.292-106.583 90-45c11.045-5.522 11.03-21.318 0-26.833l-90-45c-9.97-4.985-21.708 2.287-21.708 13.416v90c0 11.147 11.754 18.393 21.708 13.417zm8.292-79.146 41.459 20.729-41.459 20.729zm30-146.271c8.284 0 15-6.716 15-15s-6.716-15-15-15-15 6.716-15 15 6.716 15 15 15z" fill="url(#SVGID_1_)"/></g></g></svg>