<svg id="Capa_1" enable-background="new 0 0 512 512" height="512" viewBox="0 0 512 512" width="512" xmlns="http://www.w3.org/2000/svg" xmlns:xlink="http://www.w3.org/1999/xlink"><linearGradient id="SVGID_1_" gradientUnits="userSpaceOnUse" x1="256" x2="256" y1="512" y2="0"><stop offset="0" stop-color="#fd5900"/><stop offset="1" stop-color="#ffde00"/></linearGradient><g><g><path d="m196 150c8.284 0 15-6.716 15-15v-60c0-8.284-6.716-15-15-15s-15 6.716-15 15v60c0 8.284 6.716 15 15 15zm60 0c8.284 0 15-6.716 15-15v-60c0-8.284-6.716-15-15-15s-15 6.716-15 15v60c0 8.284 6.716 15 15 15zm60 0c8.284 0 15-6.716 15-15v-60c0-8.284-6.716-15-15-15s-15 6.716-15 15v60c0 8.284 6.716 15 15 15zm75-75c0-8.284-6.716-15-15-15s-15 6.716-15 15v60c0 8.284 6.716 15 15 15s15-6.716 15-15zm-15 347h-240c-8.284 0-15 6.716-15 15s6.716 15 15 15h240c8.284 0 15-6.716 15-15s-6.716-15-15-15zm60-90c8.284 0 15-6.716 15-15v-302c0-8.284-6.716-15-15-15h-300c-8.284 0-15 6.716-15 15v143.787l-55.606 55.606c-2.814 2.813-4.394 6.629-4.394 10.607v92c0 8.284 6.716 15 15 15h45v30h-45c-8.284 0-15 6.716-15 15v120c0 8.284 6.716 15 15 15h360c8.284 0 15-6.716 15-15v-120c0-8.284-6.716-15-15-15h-15v-30zm-30 60h15v90h-330v-90h45c8.284 0 15-6.716 15-15v-60c0-8.284-6.716-15-15-15h-45v-70.787l55.606-55.606c2.814-2.813 4.394-6.629 4.394-10.607v-135h270v272h-15c-8.284 0-15 6.716-15 15v60c0 8.284 6.716 15 15 15z" fill="url(#SVGID_1_)"/></g></g></svg>