<svg id="Capa_1" enable-background="new 0 0 512 512" height="512" viewBox="0 0 512 512" width="512" xmlns="http://www.w3.org/2000/svg" xmlns:xlink="http://www.w3.org/1999/xlink"><linearGradient id="SVGID_1_" gradientUnits="userSpaceOnUse" x1="256" x2="256" y1="496" y2="16"><stop offset="0" stop-color="#5558ff"/><stop offset="1" stop-color="#00c0ff"/></linearGradient><g><g><path d="m407 166c5.259 0 10.305-.915 15-2.58v137.58c0 8.284 6.716 15 15 15s15-6.716 15-15v-180c0-24.813-20.187-45-45-45s-45 20.187-45 45 20.187 45 45 45zm0-60c8.271 0 15 6.729 15 15s-6.729 15-15 15-15-6.729-15-15 6.729-15 15-15zm90-90h-482c-8.284 0-15 6.716-15 15v450c0 8.284 6.716 15 15 15h482c8.284 0 15-6.716 15-15v-450c0-8.284-6.716-15-15-15zm-15 450h-452v-420h452zm-257-30c90.981 0 165-74.019 165-165s-74.019-165-165-165-165 74.019-165 165 74.019 165 165 165zm0-300c74.439 0 135 60.561 135 135s-60.561 135-135 135-135-60.561-135-135 60.561-135 135-135zm0 180c24.813 0 45-20.187 45-45s-20.187-45-45-45-45 20.187-45 45 20.187 45 45 45zm0-60c8.271 0 15 6.729 15 15s-6.729 15-15 15-15-6.729-15-15 6.729-15 15-15zm-90-150c8.284 0 15-6.716 15-15s-6.716-15-15-15-15 6.716-15 15 6.716 15 15 15zm-60 0c8.284 0 15-6.716 15-15s-6.716-15-15-15-15 6.716-15 15 6.716 15 15 15zm362 300h-60c-8.284 0-15 6.716-15 15s6.716 15 15 15h60c8.284 0 15-6.716 15-15s-6.716-15-15-15z" fill="url(#SVGID_1_)"/></g></g></svg>