<svg id="Capa_1" enable-background="new 0 0 512 512" height="512" viewBox="0 0 512 512" width="512" xmlns="http://www.w3.org/2000/svg" xmlns:xlink="http://www.w3.org/1999/xlink"><linearGradient id="SVGID_1_" gradientUnits="userSpaceOnUse" x1="256" x2="256" y1="512" y2="0"><stop offset="0" stop-color="#fd5900"/><stop offset="1" stop-color="#ffde00"/></linearGradient><g><g><path d="m226 60h-30v-45c0-8.284-6.716-15-15-15h-90c-8.284 0-15 6.716-15 15v45h-30c-8.284 0-15 6.716-15 15v422c0 8.284 6.716 15 15 15h180c8.284 0 15-6.716 15-15v-422c0-8.284-6.716-15-15-15zm-120-30h60v30h-60zm105 452h-150v-150h150zm0-180h-150v-212h150zm-105 120h15v15c0 8.284 6.716 15 15 15s15-6.716 15-15v-15h15c8.284 0 15-6.716 15-15s-6.716-15-15-15h-15v-15c0-8.284-6.716-15-15-15s-15 6.716-15 15v15h-15c-8.284 0-15 6.716-15 15s6.716 15 15 15zm360-362h-30v-45c0-8.284-6.716-15-15-15h-90c-8.284 0-15 6.716-15 15v45h-30c-8.284 0-15 6.716-15 15v422c0 8.284 6.716 15 15 15h180c8.284 0 15-6.716 15-15v-422c0-8.284-6.716-15-15-15zm-120-30h60v30h-60zm105 452h-150v-150h150zm0-180h-150v-212h150zm-105 120h60c8.284 0 15-6.716 15-15s-6.716-15-15-15h-60c-8.284 0-15 6.716-15 15s6.716 15 15 15z" fill="url(#SVGID_1_)"/></g></g></svg>