<svg id="Capa_1" enable-background="new 0 0 512 512" height="512" viewBox="0 0 512 512" width="512" xmlns="http://www.w3.org/2000/svg" xmlns:xlink="http://www.w3.org/1999/xlink"><linearGradient id="SVGID_1_" gradientUnits="userSpaceOnUse" x1="256" x2="256" y1="512" y2="0"><stop offset="0" stop-color="#5558ff"/><stop offset="1" stop-color="#00c0ff"/></linearGradient><g><g><path d="m466 0h-210c-8.284 0-15 6.716-15 15v45h-60v-45c0-8.284-6.716-15-15-15h-60c-8.284 0-15 6.716-15 15v45h-45c-8.284 0-15 6.716-15 15v270c0 8.284 6.716 15 15 15h150v62h-32.58c-6.192-17.459-22.865-30-42.42-30h-45c-8.284 0-15 6.716-15 15v60c0 8.284 6.716 15 15 15h45c19.555 0 36.228-12.541 42.42-30h32.58v45c0 8.284 6.716 15 15 15h60c8.284 0 15-6.716 15-15v-137h150c8.284 0 15-6.716 15-15v-105h15c8.284 0 15-6.716 15-15v-210c0-8.284-6.716-15-15-15zm-345 452h-30v-30h30c8.271 0 15 6.729 15 15s-6.729 15-15 15zm0-422h30v30h-30zm135 452h-30v-122h30zm165-152h-360v-240h180v135c0 8.284 6.716 15 15 15h165zm30-120h-180v-180h180zm-90-30c33.084 0 60-26.916 60-60s-26.916-60-60-60-60 26.916-60 60 26.916 60 60 60zm0-90c16.542 0 30 13.458 30 30s-13.458 30-30 30-30-13.458-30-30 13.458-30 30-30zm-165 30h-90c-8.284 0-15 6.716-15 15v90c0 8.284 6.716 15 15 15h90c8.284 0 15-6.716 15-15v-90c0-8.284-6.716-15-15-15zm-15 90h-60v-60h60zm195 90c8.284 0 15-6.716 15-15s-6.716-15-15-15-15 6.716-15 15 6.716 15 15 15zm-60 0c8.284 0 15-6.716 15-15s-6.716-15-15-15-15 6.716-15 15 6.716 15 15 15zm-180-30h-30c-8.284 0-15 6.716-15 15s6.716 15 15 15h30c8.284 0 15-6.716 15-15s-6.716-15-15-15z" fill="url(#SVGID_1_)"/></g></g></svg>