<svg id="Capa_1" enable-background="new 0 0 512 512" height="512" viewBox="0 0 512 512" width="512" xmlns="http://www.w3.org/2000/svg" xmlns:xlink="http://www.w3.org/1999/xlink"><linearGradient id="SVGID_1_" gradientUnits="userSpaceOnUse" x1="256" x2="256" y1="466.001" y2="45.999"><stop offset="0" stop-color="#fd3a84"/><stop offset="1" stop-color="#ffa68d"/></linearGradient><g><g><path d="m455.705 116.369c-6.726-4.839-16.099-3.312-20.938 3.412s-3.312 16.098 3.412 20.937c27.439 19.748 43.82 51.629 43.82 85.282s-16.381 65.534-43.82 85.282c-6.724 4.839-8.251 14.213-3.412 20.937 4.816 6.691 14.181 8.275 20.938 3.412 35.25-25.369 56.295-66.353 56.295-109.63s-21.045-84.262-56.295-109.632zm-65.705 36.141v-91.509c0-6.61-4.327-12.441-10.653-14.356-6.322-1.916-13.16.536-16.827 6.036-34.782 52.172-92.982 83.32-155.686 83.32h-161.834c-24.813 0-45 20.187-45 45v90c0 24.813 20.187 45 45 45h15v135c0 8.284 6.716 15 15 15h60c8.284 0 15-6.716 15-15v-75h15c8.284 0 15-6.716 15-15s-6.716-15-15-15h-15v-30h56.833c62.704 0 120.904 31.148 155.686 83.32 8.165 12.248 27.48 6.591 27.48-8.32v-91.509c34.192-6.968 60-37.271 60-73.491s-25.807-66.523-59.999-73.491zm-270 283.491h-30v-120h30zm60-150h-135c-8.271 0-15-6.729-15-15v-90c0-8.271 6.729-15 15-15h135zm180 63.198c-39.531-39.408-93.06-62.337-150-63.159v-120.079c56.94-.822 110.469-23.75 150-63.159zm30-80.779v-84.84c17.459 6.192 30 22.865 30 42.42s-12.541 36.228-30 42.42z" fill="url(#SVGID_1_)"/></g></g></svg>