<svg id="Capa_1" enable-background="new 0 0 512 512" height="512" viewBox="0 0 512 512" width="512" xmlns="http://www.w3.org/2000/svg" xmlns:xlink="http://www.w3.org/1999/xlink"><linearGradient id="SVGID_1_" gradientUnits="userSpaceOnUse" x1="256" x2="256" y1="507.226" y2="4.774"><stop offset="0" stop-color="#a93aff"/><stop offset="1" stop-color="#ff81ff"/></linearGradient><g><g><path d="m497 327.226h-196v-45c0-8.284-6.716-15-15-15h-15v-135c0-8.284-6.716-15-15-15s-15 6.716-15 15v135h-15c-8.284 0-15 6.716-15 15v45h-196c-8.284 0-15 6.716-15 15v150c0 8.284 6.716 15 15 15h60c8.284 0 15-6.716 15-15v-15h332v15c0 8.284 6.716 15 15 15h60c8.284 0 15-6.716 15-15v-150c0-8.284-6.716-15-15-15zm-256-30h30v30h-30zm241 180h-30v-15c0-8.284-6.716-15-15-15h-362c-8.284 0-15 6.716-15 15v15h-30v-120h452zm-45-60c8.284 0 15-6.716 15-15s-6.716-15-15-15-15 6.716-15 15 6.716 15 15 15zm-60 0c8.284 0 15-6.716 15-15s-6.716-15-15-15-15 6.716-15 15 6.716 15 15 15zm-60 0c8.284 0 15-6.716 15-15s-6.716-15-15-15-15 6.716-15 15 6.716 15 15 15zm-205.412-160.842c6.466-5.18 7.507-14.62 2.327-21.085-47.854-59.724-47.854-146.421 0-206.145 5.18-6.465 4.139-15.905-2.327-21.085-6.466-5.181-15.905-4.137-21.085 2.326-27.502 34.324-42.648 77.591-42.648 121.831s15.146 87.508 42.647 121.831c5.181 6.465 14.622 7.507 21.086 2.327zm25.769-39.811c2.963 3.698 7.318 5.621 11.716 5.621 3.289 0 6.603-1.077 9.369-3.294 6.465-5.18 7.507-14.62 2.327-21.085-30.45-38.005-30.45-93.173 0-131.177 5.18-6.465 4.138-15.905-2.327-21.085-6.466-5.18-15.905-4.138-21.085 2.327-19.041 23.765-29.527 53.72-29.527 84.347s10.486 60.581 29.527 84.346zm58.572-31.862c3.29 0 6.604-1.078 9.37-3.295 6.465-5.18 7.506-14.621 2.325-21.085-13.049-16.285-13.049-39.924 0-56.209 5.181-6.465 4.14-15.905-2.325-21.085-6.466-5.181-15.905-4.138-21.085 2.325-21.761 27.155-21.761 66.573 0 93.729 2.963 3.697 7.318 5.62 11.715 5.62zm203.929 50.588c-5.18 6.465-4.139 15.905 2.327 21.085 6.478 5.191 15.915 4.125 21.085-2.326 27.502-34.324 42.647-77.591 42.647-121.831s-15.146-87.508-42.647-121.831c-5.181-6.465-14.621-7.507-21.085-2.326-6.466 5.18-7.507 14.62-2.327 21.085 47.855 59.723 47.855 146.42 0 206.144zm-44.527-16.399c6.466 5.18 15.905 4.137 21.085-2.327 19.041-23.765 29.527-53.72 29.527-84.347s-10.486-60.582-29.527-84.347c-5.179-6.464-14.62-7.508-21.085-2.327-6.465 5.18-7.507 14.62-2.327 21.085 30.45 38.005 30.45 93.173 0 131.177-5.18 6.466-4.138 15.906 2.327 21.086zm-46.855-37.484c2.768 2.218 6.08 3.295 9.37 3.295 4.396 0 8.753-1.924 11.716-5.621 21.759-27.155 21.759-66.573 0-93.728-5.181-6.465-14.62-7.507-21.086-2.326-6.465 5.18-7.506 14.62-2.326 21.085 13.05 16.285 13.05 39.924 0 56.209-5.18 6.466-4.139 15.906 2.326 21.086z" fill="url(#SVGID_1_)"/></g></g></svg>