<svg id="Capa_1" enable-background="new 0 0 512 512" height="512" viewBox="0 0 512 512" width="512" xmlns="http://www.w3.org/2000/svg" xmlns:xlink="http://www.w3.org/1999/xlink"><linearGradient id="SVGID_1_" gradientUnits="userSpaceOnUse" x1="256" x2="256" y1="512" y2="0"><stop offset="0" stop-color="#5558ff"/><stop offset="1" stop-color="#00c0ff"/></linearGradient><g><g><path d="m436 0h-60c-8.284 0-15 6.716-15 15v46h-210v-46c0-8.284-6.716-15-15-15h-60c-8.284 0-15 6.716-15 15v482c0 8.284 6.716 15 15 15h60c8.284 0 15-6.716 15-15v-46h210v46c0 8.284 6.716 15 15 15h60c8.284 0 15-6.716 15-15v-482c0-8.284-6.716-15-15-15zm-315 482h-30v-31h30zm0-61h-30v-30h30zm0-60h-30v-30h30zm0-60h-30v-30h30zm0-60h-30v-30h30zm0-60h-30v-30h30zm0-60h-30v-30h30zm0-60h-30v-31h30zm240 360h-210v-150h210zm0-180h-210v-150h210zm60 241h-30v-31h30zm0-61h-30v-30h30zm0-60h-30v-30h30zm0-60h-30v-30h30zm0-60h-30v-30h30zm0-60h-30v-30h30zm0-60h-30v-30h30zm0-60h-30v-31h30z" fill="url(#SVGID_1_)"/></g></g></svg>