<svg id="Capa_1" enable-background="new 0 0 512 512" height="512" viewBox="0 0 512 512" width="512" xmlns="http://www.w3.org/2000/svg" xmlns:xlink="http://www.w3.org/1999/xlink"><linearGradient id="SVGID_1_" gradientUnits="userSpaceOnUse" x1="256" x2="256" y1="512" y2="0"><stop offset="0" stop-color="#fd5900"/><stop offset="1" stop-color="#ffde00"/></linearGradient><g><g><path d="m376 120c8.284 0 15-6.716 15-15v-60c0-8.284-6.716-15-15-15h-45v-15c0-8.284-6.716-15-15-15h-180c-8.284 0-15 6.716-15 15v482c0 8.284 6.716 15 15 15h240c8.284 0 15-6.716 15-15v-332c0-8.284-6.716-15-15-15h-45v-30zm-45-60h30v30h-30zm30 120v302h-210v-452h150v135c0 8.284 6.716 15 15 15zm-165 30c-8.284 0-15 6.716-15 15v212c0 8.284 6.716 15 15 15h120c8.284 0 15-6.716 15-15v-212c0-8.284-6.716-15-15-15zm15 212c0-24.813 20.187-45 45-45s45 20.187 45 45zm90-59.959c-12.544-9.438-28.129-15.041-45-15.041s-32.456 5.603-45 15.041v-62.082c12.544 9.438 28.129 15.041 45 15.041s32.456-5.603 45-15.041zm-45-77.041c-24.813 0-45-20.187-45-45h90c0 24.813-20.187 45-45 45zm0-195c8.284 0 15-6.716 15-15s-6.716-15-15-15-15 6.716-15 15 6.716 15 15 15zm-60 0c8.284 0 15-6.716 15-15s-6.716-15-15-15-15 6.716-15 15 6.716 15 15 15zm60 60c8.284 0 15-6.716 15-15s-6.716-15-15-15-15 6.716-15 15 6.716 15 15 15zm-60 0c8.284 0 15-6.716 15-15s-6.716-15-15-15-15 6.716-15 15 6.716 15 15 15z" fill="url(#SVGID_1_)"/></g></g></svg>