<svg id="Capa_1" enable-background="new 0 0 512 512" height="512" viewBox="0 0 512 512" width="512" xmlns="http://www.w3.org/2000/svg" xmlns:xlink="http://www.w3.org/1999/xlink"><linearGradient id="SVGID_1_" gradientUnits="userSpaceOnUse" x1="256" x2="256" y1="512" y2="0"><stop offset="0" stop-color="#fd3a84"/><stop offset="1" stop-color="#ffa68d"/></linearGradient><g><g><path d="m436 241h-76.076c-6.597-45.916-43.008-82.327-88.924-88.924v-30.248c30.386 3.338 58.531 16.784 80.46 38.712 5.857 5.858 15.355 5.858 21.213 0s5.858-15.355 0-21.213c-27.602-27.601-63.262-44.208-101.673-47.648v-15.679c0-8.284-6.716-15-15-15s-15 6.716-15 15v15.689c-79.035 7.157-142.154 70.276-149.311 149.311h-15.689c-8.284 0-15 6.716-15 15s6.716 15 15 15h15.689c7.157 79.035 70.276 142.154 149.311 149.311v15.689c0 8.284 6.716 15 15 15s15-6.716 15-15v-15.689c79.035-7.157 142.154-70.276 149.311-149.311h15.689c8.284 0 15-6.716 15-15s-6.716-15-15-15zm-195-119.162v30.238c-45.916 6.597-82.327 43.008-88.924 88.924h-30.238c6.939-62.479 56.683-112.223 119.162-119.162zm0 268.324c-62.479-6.939-112.223-56.683-119.162-119.162h30.238c6.597 45.916 43.008 82.327 88.924 88.924zm15-59.162c-41.355 0-75-33.645-75-75s33.645-75 75-75 75 33.645 75 75-33.645 75-75 75zm15 59.162v-30.238c45.916-6.597 82.327-43.008 88.924-88.924h30.238c-6.939 62.479-56.683 112.223-119.162 119.162zm-9.26-178.02c-5.603-2.321-12.057-1.038-16.347 3.251l-30 30c-5.858 5.858-5.858 15.355 0 21.213 5.857 5.858 15.355 5.858 21.213 0l4.394-4.394v23.788c0 8.284 6.716 15 15 15s15-6.716 15-15v-60c0-6.067-3.654-11.537-9.26-13.858zm175.285-137.233c-48.328-48.306-112.617-74.909-181.025-74.909-68.453 0-132.766 26.626-181.092 74.974-48.304 48.328-74.908 112.618-74.908 181.026 0 68.453 26.626 132.766 74.975 181.091 48.328 48.306 112.617 74.909 181.025 74.909 68.453 0 132.766-26.626 181.092-74.974 48.304-48.328 74.908-112.618 74.908-181.026 0-68.453-26.626-132.766-74.975-181.091zm-181.025 407.091c-124.617 0-226-101.383-226-226s101.383-226 226-226 226 101.383 226 226-101.383 226-226 226z" fill="url(#SVGID_1_)"/></g></g></svg>