<svg id="Capa_1" enable-background="new 0 0 512 512" height="512" viewBox="0 0 512 512" width="512" xmlns="http://www.w3.org/2000/svg" xmlns:xlink="http://www.w3.org/1999/xlink"><linearGradient id="SVGID_1_" gradientUnits="userSpaceOnUse" x1="256" x2="256" y1="512" y2="0"><stop offset="0" stop-color="#a93aff"/><stop offset="1" stop-color="#ff81ff"/></linearGradient><g><g><path d="m256 90c-57.897 0-105 47.103-105 105s47.103 105 105 105 105-47.103 105-105-47.103-105-105-105zm0 180c-41.355 0-75-33.645-75-75s33.645-75 75-75 75 33.645 75 75-33.645 75-75 75zm0-120c-24.813 0-45 20.187-45 45s20.187 45 45 45 45-20.187 45-45-20.187-45-45-45zm0 60c-8.271 0-15-6.729-15-15s6.729-15 15-15 15 6.729 15 15-6.729 15-15 15zm90-210h-180c-57.897 0-105 47.103-105 105v150c0 57.897 47.103 105 105 105h75v62h-15c-41.355 0-75 33.645-75 75 0 8.284 6.716 15 15 15h180c8.284 0 15-6.716 15-15 0-41.355-33.645-75-75-75h-15v-62h75c57.897 0 105-47.103 105-105v-150c0-57.897-47.103-105-105-105zm-60 452c19.557 0 36.239 12.539 42.43 30h-144.86c6.19-17.461 22.873-30 42.43-30zm135-197c0 41.355-33.645 75-75 75h-180c-41.355 0-75-33.645-75-75v-150c0-41.355 33.645-75 75-75h180c41.355 0 75 33.645 75 75zm-75-195c-8.284 0-15 6.716-15 15s6.716 15 15 15 15-6.716 15-15-6.716-15-15-15z" fill="url(#SVGID_1_)"/></g></g></svg>