<svg id="Capa_1" enable-background="new 0 0 512 512" height="512" viewBox="0 0 512 512" width="512" xmlns="http://www.w3.org/2000/svg" xmlns:xlink="http://www.w3.org/1999/xlink"><linearGradient id="SVGID_1_" gradientUnits="userSpaceOnUse" x1="256" x2="256" y1="512" y2="0"><stop offset="0" stop-color="#a93aff"/><stop offset="1" stop-color="#ff81ff"/></linearGradient><g><g><path d="m497 0h-482c-8.284 0-15 6.716-15 15v482c0 8.284 6.716 15 15 15h482c8.284 0 15-6.716 15-15v-482c0-8.284-6.716-15-15-15zm-15 482h-452v-150h452zm0-180h-452v-272h452zm-376 150c24.813 0 45-20.187 45-45s-20.187-45-45-45-45 20.187-45 45 20.187 45 45 45zm0-60c8.271 0 15 6.729 15 15s-6.729 15-15 15-15-6.729-15-15 6.729-15 15-15zm90 0c8.284 0 15-6.716 15-15s-6.716-15-15-15-15 6.716-15 15 6.716 15 15 15zm0 60c8.284 0 15-6.716 15-15s-6.716-15-15-15-15 6.716-15 15 6.716 15 15 15zm60 0c8.284 0 15-6.716 15-15s-6.716-15-15-15-15 6.716-15 15 6.716 15 15 15zm0-60c8.284 0 15-6.716 15-15s-6.716-15-15-15-15 6.716-15 15 6.716 15 15 15zm60 60h120c8.284 0 15-6.716 15-15v-60c0-8.284-6.716-15-15-15h-120c-8.284 0-15 6.716-15 15v60c0 8.284 6.716 15 15 15zm15-60h90v30h-90zm-240-152h15v15c0 8.284 6.716 15 15 15s15-6.716 15-15v-15h15c8.284 0 15-6.716 15-15s-6.716-15-15-15h-15v-135c0-8.284-6.716-15-15-15s-15 6.716-15 15v135h-15c-8.284 0-15 6.716-15 15s6.716 15 15 15zm90-60h15v75c0 8.284 6.716 15 15 15s15-6.716 15-15v-75h15c8.284 0 15-6.716 15-15s-6.716-15-15-15h-15v-75c0-8.284-6.716-15-15-15s-15 6.716-15 15v75h-15c-8.284 0-15 6.716-15 15s6.716 15 15 15zm90-60h15v135c0 8.284 6.716 15 15 15s15-6.716 15-15v-135h15c8.284 0 15-6.716 15-15s-6.716-15-15-15h-15v-15c0-8.284-6.716-15-15-15s-15 6.716-15 15v15h-15c-8.284 0-15 6.716-15 15s6.716 15 15 15zm90 60h15v75c0 8.284 6.716 15 15 15s15-6.716 15-15v-75h15c8.284 0 15-6.716 15-15s-6.716-15-15-15h-15v-75c0-8.284-6.716-15-15-15s-15 6.716-15 15v75h-15c-8.284 0-15 6.716-15 15s6.716 15 15 15z" fill="url(#SVGID_1_)"/></g></g></svg>