<svg id="Capa_1" enable-background="new 0 0 512 512" height="512" viewBox="0 0 512 512" width="512" xmlns="http://www.w3.org/2000/svg" xmlns:xlink="http://www.w3.org/1999/xlink"><linearGradient id="SVGID_1_" gradientUnits="userSpaceOnUse" x1="256" x2="256" y1="481" y2="31"><stop offset="0" stop-color="#5558ff"/><stop offset="1" stop-color="#00c0ff"/></linearGradient><g><g><path d="m497 31h-120c-8.284 0-15 6.716-15 15v105h-212v-105c0-8.284-6.716-15-15-15h-120c-8.284 0-15 6.716-15 15v420c0 8.284 6.716 15 15 15h120c8.284 0 15-6.716 15-15v-45h91v30h-45c-8.284 0-15 6.716-15 15s6.716 15 15 15h120c8.284 0 15-6.716 15-15s-6.716-15-15-15h-45v-30h91v45c0 8.284 6.716 15 15 15h120c8.284 0 15-6.716 15-15v-420c0-8.284-6.716-15-15-15zm-377 420h-90v-390h90v90h-45c-8.284 0-15 6.716-15 15v240c0 8.284 6.716 15 15 15h45zm-30-60v-210h332v210zm392 60h-90v-30h45c8.284 0 15-6.716 15-15v-240c0-8.284-6.716-15-15-15h-45v-90h90zm-407-330c8.284 0 15-6.716 15-15s-6.716-15-15-15-15 6.716-15 15 6.716 15 15 15zm362 0c8.284 0 15-6.716 15-15s-6.716-15-15-15-15 6.716-15 15 6.716 15 15 15z" fill="url(#SVGID_1_)"/></g></g></svg>