<svg id="Capa_1" enable-background="new 0 0 512 512" height="512" viewBox="0 0 512 512" width="512" xmlns="http://www.w3.org/2000/svg" xmlns:xlink="http://www.w3.org/1999/xlink"><linearGradient id="SVGID_1_" gradientUnits="userSpaceOnUse" x1="256" x2="256" y1="511.999" y2=".001"><stop offset="0" stop-color="#fd3a84"/><stop offset="1" stop-color="#ffa68d"/></linearGradient><g><g><path d="m429.232 96.979c1.931-5.964 2.636-12.341 1.958-18.784-1.409-13.385-8.621-25.216-19.787-32.46-46.117-29.919-99.854-45.734-155.403-45.734s-109.286 15.815-155.402 45.735c-11.166 7.244-18.378 19.075-19.787 32.46-.679 6.442.027 12.819 1.958 18.783-52.736 48.302-82.769 116.163-82.769 188.022v45c0 33.084 26.916 60 60 60h2.58c6.192 17.458 22.865 30 42.42 30h30c8.284 0 15-6.716 15-15v-150c0-8.284-6.716-15-15-15h-30c-19.555 0-36.228 12.542-42.42 30h-2.58c-10.877 0-21.077 2.924-29.884 8.005 1.845-59.911 27.33-116.198 70.959-157.11 14.501 9.393 33.639 9.783 48.493.186 31.024-20.043 68.823-31.081 106.432-31.081s75.408 11.038 106.432 31.082c7.316 4.727 15.673 7.032 24.003 7.032 8.581 0 17.131-2.453 24.489-7.219 43.629 40.913 69.115 97.2 70.96 157.111-8.806-5.081-19.007-8.005-29.884-8.005h-2.58c-6.192-17.458-22.865-30-42.42-30h-30c-8.284 0-15 6.716-15 15v150c0 8.284 6.716 15 15 15h30c5.259 0 10.305-.915 15-2.58v19.58c0 8.271-6.729 15-15 15h-180c-24.813 0-45 20.185-45 45 0 8.284 6.716 14.998 15 14.998s15-6.719 15-15.003c0-8.268 6.729-14.995 15-14.995h180c24.813 0 45-20.187 45-45v-47c33.084 0 60-26.916 60-60v-45c0-71.86-30.033-139.721-82.768-188.023zm-339.232 188.022c0-8.271 6.729-15 15-15h15v120h-15c-8.271 0-15-6.729-15-15zm-30 15v60c-16.542 0-30-13.458-30-30s13.458-30 30-30zm336.963-206.176c-4.953 4.954-12.458 5.799-18.252 2.059-36.335-23.475-78.768-35.883-122.711-35.883s-86.376 12.408-122.711 35.882c-5.792 3.742-13.298 2.895-18.252-2.058-3.281-3.282-4.882-7.833-4.392-12.487.269-2.55 1.441-7.296 6.28-10.436 41.244-26.757 89.335-40.901 139.075-40.901s97.831 14.144 139.074 40.901c4.839 3.14 6.012 7.886 6.28 10.435.491 4.655-1.11 9.207-4.391 12.488zm25.037 281.176c0 8.271-6.729 15-15 15h-15v-120h15c8.271 0 15 6.729 15 15zm30-15v-60c16.542 0 30 13.458 30 30s-13.458 30-30 30z" fill="url(#SVGID_1_)"/></g></g></svg>