<svg id="Capa_1" enable-background="new 0 0 512 512" height="512" viewBox="0 0 512 512" width="512" xmlns="http://www.w3.org/2000/svg" xmlns:xlink="http://www.w3.org/1999/xlink"><linearGradient id="SVGID_1_" gradientUnits="userSpaceOnUse" x1="256" x2="256" y1="481" y2="31"><stop offset="0" stop-color="#fd3a84"/><stop offset="1" stop-color="#ffa68d"/></linearGradient><g><g><path d="m497 31h-482c-8.284 0-15 6.716-15 15v420c0 8.284 6.716 15 15 15h482c8.284 0 15-6.716 15-15v-420c0-8.284-6.716-15-15-15zm-15 420h-452v-300h452zm0-330h-452v-60h272v15c0 8.284 6.716 15 15 15s15-6.716 15-15v-15h30v15c0 8.284 6.716 15 15 15s15-6.716 15-15v-15h30v15c0 8.284 6.716 15 15 15s15-6.716 15-15v-15h30zm-271 300h90c66.168 0 120-53.832 120-120s-53.832-120-120-120h-90c-66.168 0-120 53.832-120 120s53.832 120 120 120zm0-210h90c49.626 0 90 40.374 90 90s-40.374 90-90 90h-90c-49.626 0-90-40.374-90-90s40.374-90 90-90zm7.609 148.053c4.713 2.668 10.484 2.583 15.108-.191l75-45c4.518-2.711 7.283-7.593 7.283-12.862s-2.765-10.151-7.283-12.862l-75-45c-4.633-2.78-10.404-2.854-15.108-.191-4.702 2.662-7.609 7.649-7.609 13.053v90c0 5.404 2.907 10.391 7.609 13.053zm22.391-76.56 30.845 18.507-30.845 18.507z" fill="url(#SVGID_1_)"/></g></g></svg>