<svg id="Capa_1" enable-background="new 0 0 512 512" height="512" viewBox="0 0 512 512" width="512" xmlns="http://www.w3.org/2000/svg" xmlns:xlink="http://www.w3.org/1999/xlink"><linearGradient id="SVGID_1_" gradientUnits="userSpaceOnUse" x1="256" x2="256" y1="421" y2="91"><stop offset="0" stop-color="#5558ff"/><stop offset="1" stop-color="#00c0ff"/></linearGradient><g><g><path d="m497 91h-482c-8.284 0-15 6.716-15 15v300c0 8.284 6.716 15 15 15h482c8.284 0 15-6.716 15-15v-300c0-8.284-6.716-15-15-15zm-406 30h330v30h-330zm391 270h-452v-270h31v45c0 8.284 6.716 15 15 15h360c8.284 0 15-6.716 15-15v-45h31zm-106-180h-240c-41.355 0-75 33.645-75 75s33.645 75 75 75h240c41.355 0 75-33.645 75-75s-33.645-75-75-75zm-195 60h-45c-8.284 0-15 6.716-15 15s6.716 15 15 15h45v30h-45c-24.813 0-45-20.187-45-45s20.187-45 45-45h45zm120 60h-90v-90h90zm75 0h-45v-30h45c8.284 0 15-6.716 15-15s-6.716-15-15-15h-45v-30h45c24.813 0 45 20.187 45 45s-20.187 45-45 45z" fill="url(#SVGID_1_)"/></g></g></svg>