<svg id="Capa_1" enable-background="new 0 0 512 512" height="512" viewBox="0 0 512 512" width="512" xmlns="http://www.w3.org/2000/svg" xmlns:xlink="http://www.w3.org/1999/xlink"><linearGradient id="SVGID_1_" gradientUnits="userSpaceOnUse" x1="256" x2="256" y1="512" y2="0"><stop offset="0" stop-color="#5558ff"/><stop offset="1" stop-color="#00c0ff"/></linearGradient><g><g><path d="m316 240c8.284 0 15-6.716 15-15v-120c0-8.284-6.716-15-15-15s-15 6.716-15 15v120c0 8.284 6.716 15 15 15zm120 0c8.284 0 15-6.716 15-15v-60c0-8.284-6.716-15-15-15s-15 6.716-15 15v60c0 8.284 6.716 15 15 15zm-180 0c8.284 0 15-6.716 15-15v-60c0-8.284-6.716-15-15-15s-15 6.716-15 15v60c0 8.284 6.716 15 15 15zm120 0c8.284 0 15-6.716 15-15v-150c0-8.284-6.716-15-15-15s-15 6.716-15 15v150c0 8.284 6.716 15 15 15zm-240 0c8.284 0 15-6.716 15-15v-90c0-8.284-6.716-15-15-15s-15 6.716-15 15v90c0 8.284 6.716 15 15 15zm361-240h-482c-8.284 0-15 6.716-15 15v390c0 8.284 6.716 15 15 15h181v62h-60c-8.284 0-15 6.716-15 15s6.716 15 15 15h240c8.284 0 15-6.716 15-15s-6.716-15-15-15h-60v-62h181c8.284 0 15-6.716 15-15v-390c0-8.284-6.716-15-15-15zm-211 482h-60v-62h60zm196-92h-452v-360h452zm-406-60h47.58c6.192 17.458 22.865 30 42.42 30s36.228-12.542 42.42-30h227.58c8.284 0 15-6.716 15-15s-6.716-15-15-15h-227.58c-6.192-17.458-22.865-30-42.42-30s-36.228 12.542-42.42 30h-47.58c-8.284 0-15 6.716-15 15s6.716 15 15 15zm90-30c8.271 0 15 6.729 15 15s-6.729 15-15 15-15-6.729-15-15 6.729-15 15-15zm30-60c8.284 0 15-6.716 15-15v-30c0-8.284-6.716-15-15-15s-15 6.716-15 15v30c0 8.284 6.716 15 15 15zm-120 0c8.284 0 15-6.716 15-15v-30c0-8.284-6.716-15-15-15s-15 6.716-15 15v30c0 8.284 6.716 15 15 15z" fill="url(#SVGID_1_)"/></g></g></svg>