<svg id="Capa_1" enable-background="new 0 0 512 512" height="512" viewBox="0 0 512 512" width="512" xmlns="http://www.w3.org/2000/svg" xmlns:xlink="http://www.w3.org/1999/xlink"><linearGradient id="SVGID_1_" gradientUnits="userSpaceOnUse" x1="256" x2="256" y1="512" y2="0"><stop offset="0" stop-color="#a93aff"/><stop offset="1" stop-color="#ff81ff"/></linearGradient><g><g><path d="m210 225c0 8.284 6.716 15 15 15s15-6.716 15-15-6.716-15-15-15-15 6.716-15 15zm15-45c33.084 0 60-26.916 60-60s-26.916-60-60-60-60 26.916-60 60 26.916 60 60 60zm0-90c16.542 0 30 13.458 30 30s-13.458 30-30 30-30-13.458-30-30 13.458-30 30-30zm265.269 353.208c-14.307-14.966-33.225-23.208-53.269-23.208h-99.588c16.854-9.753 32.549-21.764 46.687-35.901 42.497-42.497 65.901-98.999 65.901-159.099s-23.404-116.602-65.901-159.099c-42.497-42.497-98.999-65.901-159.099-65.901s-116.602 23.404-159.099 65.901-65.901 98.999-65.901 159.099 23.404 116.602 65.901 159.099 98.999 65.901 159.099 65.901h212c24.393 0 45 21.523 45 47 0 8.284 6.716 15 15 15s15-6.716 15-15c0-20.029-7.718-39.133-21.731-53.792zm-460.269-218.208c0-107.523 87.477-195 195-195s195 87.477 195 195-87.477 195-195 195-195-87.477-195-195zm90-60c-33.084 0-60 26.916-60 60s26.916 60 60 60 60-26.916 60-60-26.916-60-60-60zm0 90c-16.542 0-30-13.458-30-30s13.458-30 30-30 30 13.458 30 30-13.458 30-30 30zm270-30c0-33.084-26.916-60-60-60s-60 26.916-60 60 26.916 60 60 60 60-26.916 60-60zm-60 30c-16.542 0-30-13.458-30-30s13.458-30 30-30 30 13.458 30 30-13.458 30-30 30zm-105 15c-33.084 0-60 26.916-60 60s26.916 60 60 60 60-26.916 60-60-26.916-60-60-60zm0 90c-16.542 0-30-13.458-30-30s13.458-30 30-30 30 13.458 30 30-13.458 30-30 30z" fill="url(#SVGID_1_)"/></g></g></svg>