<svg version="1.0" xmlns="http://www.w3.org/2000/svg"
 width="920.000000pt" height="920.000000pt" viewBox="0 0 920.000000 920.000000"
 preserveAspectRatio="xMidYMid meet">
<g transform="translate(0.000000,920.000000) scale(0.100000,-0.100000)"
fill="#34a9d9" stroke="none">
<path d="M1153 8398 c3 -18 175 -1567 383 -3443 208 -1876 380 -3414 384
-3418 4 -4 123 -41 266 -81 142 -41 733 -210 1312 -375 579 -166 1065 -304
1080 -307 18 -4 455 117 1361 375 734 210 1338 384 1341 388 4 5 176 1540 384
3413 207 1873 379 3422 382 3443 l6 37 -3452 0 -3452 0 5 -32z m5360 -1538
c-6 -111 -34 -565 -38 -620 -3 -36 -12 -177 -20 -315 -8 -137 -17 -284 -20
-325 -12 -182 -25 -392 -30 -480 -3 -52 -8 -124 -10 -160 -3 -36 -9 -144 -15
-240 -5 -96 -12 -204 -15 -240 -3 -36 -12 -182 -20 -325 -8 -143 -17 -291 -20
-330 -3 -38 -12 -187 -20 -330 -8 -143 -17 -285 -20 -315 -2 -30 -7 -117 -11
-192 -4 -81 -12 -142 -18 -147 -6 -5 -33 -15 -61 -23 -27 -9 -395 -128 -817
-266 l-767 -252 -293 96 c-161 52 -518 169 -793 259 -275 90 -512 167 -528
171 -15 3 -30 11 -34 18 -9 13 -9 16 -28 381 -9 160 -18 331 -21 380 -14 239
-20 371 -17 378 2 4 188 7 413 7 225 0 411 -3 413 -7 7 -11 16 -141 23 -338 3
-93 9 -173 13 -177 4 -5 171 -64 371 -132 201 -68 390 -133 422 -144 l56 -20
354 120 c194 66 387 132 429 146 l77 26 6 70 c6 62 32 453 52 764 l7 102 -922
0 -921 0 -1 38 c-1 20 -3 55 -4 77 -2 22 -9 141 -14 265 -6 124 -14 276 -17
338 l-7 112 962 0 c761 0 962 3 965 13 2 6 14 152 26 322 12 171 25 351 29
400 5 50 6 93 4 98 -2 4 -651 7 -1441 7 -1364 0 -1437 1 -1444 17 -3 10 -14
124 -23 253 -9 129 -22 306 -29 393 -6 87 -9 160 -7 163 2 2 864 3 1915 2
l1911 -3 -2 -35z"/>
</g>
</svg>
