<svg version="1.0" xmlns="http://www.w3.org/2000/svg"
 width="200.000000pt" height="200.000000pt" viewBox="0 0 200.000000 200.000000"
 preserveAspectRatio="xMidYMid meet">
<g transform="translate(0.000000,200.000000) scale(0.100000,-0.100000)"
fill="#d64613" stroke="none">
<path d="M825 1985 c-237 -45 -456 -174 -599 -354 -303 -381 -301 -899 5
-1268 200 -243 492 -373 809 -360 261 11 470 101 656 282 196 192 291 407 301
680 6 148 -9 244 -58 381 -162 446 -650 726 -1114 639z m573 -279 c124 -64 91
-240 -47 -254 -136 -13 -202 142 -99 234 12 12 30 24 38 27 28 10 81 7 108 -7z
m-261 -142 c14 -4 24 -17 28 -36 4 -16 23 -46 43 -67 42 -44 101 -65 159 -55
36 5 42 3 75 -34 69 -76 118 -184 133 -290 l7 -52 -101 0 c-95 0 -101 1 -101
20 0 11 -9 45 -19 75 -67 191 -276 297 -470 239 -30 -8 -57 -12 -61 -7 -4 4
-26 42 -48 84 l-41 76 37 17 c66 32 151 46 247 41 50 -2 100 -7 112 -11z
m-403 -165 l48 -81 -50 -52 c-153 -154 -148 -400 10 -548 l40 -36 -47 -81
c-26 -45 -51 -81 -57 -81 -17 0 -136 121 -167 169 -17 25 -39 71 -51 102 l-22
56 33 46 c28 40 32 55 32 107 0 52 -4 67 -32 107 l-33 46 18 46 c29 78 80 154
148 219 35 34 68 62 73 62 4 0 30 -36 57 -81z m-373 -269 c57 -16 92 -60 97
-123 4 -49 1 -57 -27 -90 -60 -68 -144 -71 -205 -8 -67 69 -33 193 60 221 39
11 34 11 75 0z m1215 -207 c-11 -78 -45 -168 -86 -230 -68 -103 -72 -106 -116
-101 -91 11 -169 -31 -200 -107 -23 -56 -35 -60 -179 -60 -81 0 -125 5 -165
19 -98 33 -95 28 -53 104 66 117 53 106 107 88 59 -20 167 -21 232 -1 119 35
231 156 256 275 l12 60 99 0 99 0 -6 -47z m-178 -387 c87 -45 103 -153 33
-220 -30 -29 -90 -43 -134 -32 -59 14 -108 100 -93 160 8 31 53 85 80 96 32
13 84 11 114 -4z"/>
</g>
</svg>
